<?xml version="1.0" encoding="utf-8"?>
<svg xmlns="http://www.w3.org/2000/svg" xmlns:xlink="http://www.w3.org/1999/xlink" width="380" height="380" viewBox="0 0 1520 1520">
<defs>
  <clipPath id="clip100">
    <rect x="0" y="0" width="1520" height="1520"/>
  </clipPath>
</defs>
<path clip-path="url(#clip100)" d="M0 1520 L1520 1520 L1520 0 L0 0  Z" fill="#ffffff" fill-rule="evenodd" fill-opacity="1"/>
<defs>
  <clipPath id="clip101">
    <rect x="224" y="344" width="1253" height="997"/>
  </clipPath>
</defs>
<path clip-path="url(#clip100)" d="M47.2441 1472.76 L1472.76 1472.76 L1472.76 153.712 L47.2441 153.712  Z" fill="#ffffff" fill-rule="evenodd" fill-opacity="1"/>
<defs>
  <clipPath id="clip102">
    <rect x="47" y="153" width="1427" height="1320"/>
  </clipPath>
</defs>
<path clip-path="url(#clip100)" d="M537.261 12.096 L545.444 12.096 L545.444 37.6572 L572.585 12.096 L583.117 12.096 L553.1 40.2903 L585.264 72.576 L574.489 72.576 L545.444 43.45 L545.444 72.576 L537.261 72.576 L537.261 12.096 Z" fill="#000000" fill-rule="nonzero" fill-opacity="1" /><path clip-path="url(#clip100)" d="M604.79 32.4315 Q598.794 32.4315 595.31 37.1306 Q591.827 41.7891 591.827 49.9314 Q591.827 58.0738 595.27 62.7728 Q598.754 67.4314 604.79 67.4314 Q610.744 67.4314 614.228 62.7323 Q617.712 58.0333 617.712 49.9314 Q617.712 41.8701 614.228 37.1711 Q610.744 32.4315 604.79 32.4315 M604.79 26.1121 Q614.512 26.1121 620.062 32.4315 Q625.611 38.7509 625.611 49.9314 Q625.611 61.0714 620.062 67.4314 Q614.512 73.7508 604.79 73.7508 Q595.027 73.7508 589.477 67.4314 Q583.968 61.0714 583.968 49.9314 Q583.968 38.7509 589.477 32.4315 Q595.027 26.1121 604.79 26.1121 Z" fill="#000000" fill-rule="nonzero" fill-opacity="1" /><path clip-path="url(#clip100)" d="M670.617 28.9478 L670.617 35.9153 Q667.457 34.1734 664.257 33.3227 Q661.097 32.4315 657.856 32.4315 Q650.605 32.4315 646.595 37.0496 Q642.585 41.6271 642.585 49.9314 Q642.585 58.2358 646.595 62.8538 Q650.605 67.4314 657.856 67.4314 Q661.097 67.4314 664.257 66.5807 Q667.457 65.6895 670.617 63.9476 L670.617 70.8341 Q667.498 72.2924 664.135 73.0216 Q660.814 73.7508 657.046 73.7508 Q646.797 73.7508 640.762 67.3098 Q634.726 60.8689 634.726 49.9314 Q634.726 38.832 640.802 32.472 Q646.919 26.1121 657.532 26.1121 Q660.976 26.1121 664.257 26.8413 Q667.538 27.5299 670.617 28.9478 Z" fill="#000000" fill-rule="nonzero" fill-opacity="1" /><path clip-path="url(#clip100)" d="M721.294 45.1919 L721.294 72.576 L713.84 72.576 L713.84 45.4349 Q713.84 38.994 711.328 35.7938 Q708.817 32.5936 703.794 32.5936 Q697.758 32.5936 694.274 36.4419 Q690.79 40.2903 690.79 46.9338 L690.79 72.576 L683.296 72.576 L683.296 9.54393 L690.79 9.54393 L690.79 34.2544 Q693.464 30.163 697.069 28.1376 Q700.715 26.1121 705.455 26.1121 Q713.273 26.1121 717.283 30.9732 Q721.294 35.7938 721.294 45.1919 Z" fill="#000000" fill-rule="nonzero" fill-opacity="1" /><path clip-path="url(#clip100)" d="M795.182 28.9478 L795.182 35.9153 Q792.022 34.1734 788.822 33.3227 Q785.662 32.4315 782.422 32.4315 Q775.171 32.4315 771.16 37.0496 Q767.15 41.6271 767.15 49.9314 Q767.15 58.2358 771.16 62.8538 Q775.171 67.4314 782.422 67.4314 Q785.662 67.4314 788.822 66.5807 Q792.022 65.6895 795.182 63.9476 L795.182 70.8341 Q792.063 72.2924 788.701 73.0216 Q785.379 73.7508 781.612 73.7508 Q771.363 73.7508 765.327 67.3098 Q759.291 60.8689 759.291 49.9314 Q759.291 38.832 765.367 32.472 Q771.484 26.1121 782.098 26.1121 Q785.541 26.1121 788.822 26.8413 Q792.103 27.5299 795.182 28.9478 Z" fill="#000000" fill-rule="nonzero" fill-opacity="1" /><path clip-path="url(#clip100)" d="M807.375 54.671 L807.375 27.2059 L814.829 27.2059 L814.829 54.3874 Q814.829 60.8284 817.341 64.0691 Q819.852 67.2693 824.875 67.2693 Q830.911 67.2693 834.395 63.421 Q837.919 59.5726 837.919 52.9291 L837.919 27.2059 L845.373 27.2059 L845.373 72.576 L837.919 72.576 L837.919 65.6084 Q835.205 69.7404 831.6 71.7658 Q828.035 73.7508 823.295 73.7508 Q815.477 73.7508 811.426 68.8897 Q807.375 64.0286 807.375 54.671 M826.131 26.1121 L826.131 26.1121 Z" fill="#000000" fill-rule="nonzero" fill-opacity="1" /><path clip-path="url(#clip100)" d="M887.016 34.1734 Q885.76 33.4443 884.261 33.1202 Q882.803 32.7556 881.021 32.7556 Q874.701 32.7556 871.299 36.8875 Q867.936 40.9789 867.936 48.6757 L867.936 72.576 L860.442 72.576 L860.442 27.2059 L867.936 27.2059 L867.936 34.2544 Q870.286 30.1225 874.053 28.1376 Q877.821 26.1121 883.208 26.1121 Q883.978 26.1121 884.91 26.2337 Q885.841 26.3147 886.976 26.5172 L887.016 34.1734 Z" fill="#000000" fill-rule="nonzero" fill-opacity="1" /><path clip-path="url(#clip100)" d="M889.487 27.2059 L897.386 27.2059 L911.565 65.2844 L925.743 27.2059 L933.642 27.2059 L916.628 72.576 L906.501 72.576 L889.487 27.2059 Z" fill="#000000" fill-rule="nonzero" fill-opacity="1" /><path clip-path="url(#clip100)" d="M982.739 48.0275 L982.739 51.6733 L948.468 51.6733 Q948.954 59.3701 953.086 63.421 Q957.259 67.4314 964.672 67.4314 Q968.966 67.4314 972.976 66.3781 Q977.027 65.3249 980.997 63.2184 L980.997 70.267 Q976.987 71.9684 972.774 72.8596 Q968.561 73.7508 964.226 73.7508 Q953.37 73.7508 947.01 67.4314 Q940.691 61.1119 940.691 50.3365 Q940.691 39.1965 946.686 32.6746 Q952.722 26.1121 962.93 26.1121 Q972.085 26.1121 977.392 32.0264 Q982.739 37.9003 982.739 48.0275 M975.285 45.84 Q975.204 39.7232 971.842 36.0774 Q968.52 32.4315 963.011 32.4315 Q956.773 32.4315 953.005 35.9558 Q949.278 39.4801 948.711 45.8805 L975.285 45.84 Z" fill="#000000" fill-rule="nonzero" fill-opacity="1" /><polyline clip-path="url(#clip102)" style="stroke:#4682b4; stroke-linecap:round; stroke-linejoin:round; stroke-width:2.4; stroke-opacity:1; fill:none" points="87.5888,1007.34 104.192,1007.34 112.493,992.964 120.794,1007.34 137.397,1007.34 145.698,992.964 137.397,978.586 154,978.586 162.301,964.207 170.603,978.586 187.205,978.586 178.904,992.964 187.205,1007.34 203.808,1007.34 212.109,992.964 220.411,1007.34 237.013,1007.34 245.315,992.964 237.013,978.586 253.616,978.586 261.918,964.207 253.616,949.829 237.013,949.829 245.315,935.45 237.013,921.072 253.616,921.072 261.918,906.694 270.219,921.072 286.822,921.072 295.123,906.694 286.822,892.315 303.424,892.315 311.726,877.937 320.027,892.315 336.63,892.315 328.329,906.694 336.63,921.072 353.233,921.072 361.534,906.694 369.835,921.072 386.438,921.072 378.137,935.45 386.438,949.829 369.835,949.829 361.534,964.207 369.835,978.586 386.438,978.586 378.137,992.964 386.438,1007.34 403.041,1007.34 411.342,992.964 419.644,1007.34 436.246,1007.34 444.548,992.964 436.246,978.586 452.849,978.586 461.151,964.207 469.452,978.586 486.055,978.586 477.753,992.964 486.055,1007.34 502.657,1007.34 510.959,992.964 519.26,1007.34 535.863,1007.34 544.164,992.964 535.863,978.586 552.466,978.586 560.767,964.207 552.466,949.829 535.863,949.829 544.164,935.45 535.863,921.072 552.466,921.072 560.767,906.694 569.068,921.072 585.671,921.072 593.973,906.694 585.671,892.315 602.274,892.315 610.575,877.937 602.274,863.558 585.671,863.558 593.973,849.18 585.671,834.802 569.068,834.802 560.767,849.18 552.466,834.802 535.863,834.802 544.164,820.423 535.863,806.045 552.466,806.045 560.767,791.666 552.466,777.288 535.863,777.288 544.164,762.91 535.863,748.531 552.466,748.531 560.767,734.153 569.068,748.531 585.671,748.531 593.973,734.153 585.671,719.774 602.274,719.774 610.575,705.396 618.877,719.774 635.479,719.774 627.178,734.153 635.479,748.531 652.082,748.531 660.384,734.153 668.685,748.531 685.288,748.531 693.589,734.153 685.288,719.774 701.89,719.774 710.192,705.396 701.89,691.018 685.288,691.018 693.589,676.639 685.288,662.261 701.89,662.261 710.192,647.882 718.493,662.261 735.096,662.261 743.397,647.882 735.096,633.504 751.699,633.504 760,619.126 768.301,633.504 784.904,633.504 776.603,647.882 784.904,662.261 801.507,662.261 809.808,647.882 818.11,662.261 834.712,662.261 826.411,676.639 834.712,691.018 818.11,691.018 809.808,705.396 818.11,719.774 834.712,719.774 826.411,734.153 834.712,748.531 851.315,748.531 859.616,734.153 867.918,748.531 884.521,748.531 892.822,734.153 884.521,719.774 901.123,719.774 909.425,705.396 917.726,719.774 934.329,719.774 926.027,734.153 934.329,748.531 950.932,748.531 959.233,734.153 967.534,748.531 984.137,748.531 975.836,762.91 984.137,777.288 967.534,777.288 959.233,791.666 967.534,806.045 984.137,806.045 975.836,820.423 984.137,834.802 967.534,834.802 959.233,849.18 950.932,834.802 934.329,834.802 926.027,849.18 934.329,863.558 917.726,863.558 909.425,877.937 917.726,892.315 934.329,892.315 926.027,906.694 934.329,921.072 950.932,921.072 959.233,906.694 967.534,921.072 984.137,921.072 975.836,935.45 984.137,949.829 967.534,949.829 959.233,964.207 967.534,978.586 984.137,978.586 975.836,992.964 984.137,1007.34 1000.74,1007.34 1009.04,992.964 1017.34,1007.34 1033.95,1007.34 1042.25,992.964 1033.95,978.586 1050.55,978.586 1058.85,964.207 1067.15,978.586 1083.75,978.586 1075.45,992.964 1083.75,1007.34 1100.36,1007.34 1108.66,992.964 1116.96,1007.34 1133.56,1007.34 1141.86,992.964 1133.56,978.586 1150.16,978.586 1158.47,964.207 1150.16,949.829 1133.56,949.829 1141.86,935.45 1133.56,921.072 1150.16,921.072 1158.47,906.694 1166.77,921.072 1183.37,921.072 1191.67,906.694 1183.37,892.315 1199.97,892.315 1208.27,877.937 1216.58,892.315 1233.18,892.315 1224.88,906.694 1233.18,921.072 1249.78,921.072 1258.08,906.694 1266.38,921.072 1282.99,921.072 1274.69,935.45 1282.99,949.829 1266.38,949.829 1258.08,964.207 1266.38,978.586 1282.99,978.586 1274.69,992.964 1282.99,1007.34 1299.59,1007.34 1307.89,992.964 1316.19,1007.34 1332.79,1007.34 1341.1,992.964 1332.79,978.586 1349.4,978.586 1357.7,964.207 1366,978.586 1382.6,978.586 1374.3,992.964 1382.6,1007.34 1399.21,1007.34 1407.51,992.964 1415.81,1007.34 1432.41,1007.34 "/>
</svg>
