<svg xmlns="http://www.w3.org/2000/svg" width="620" height="1608" font-family="ui-monospace,SFMono-Regular,Menlo,monospace" font-size="11">
<text x="8" y="14" font-size="12" fill="#444">tolerance budget spent (delta / tol)</text>
<text x="242" y="39" text-anchor="end" fill="#333">Ext !== nothing</text>
<rect x="250" y="29" width="1.0" height="11" fill="#4c9f70" rx="2"/>
<text x="256.0" y="39" fill="#666">0.0</text>
<text x="242" y="57" text-anchor="end" fill="#333">PinaxTestSet &lt;: Test.AbstractTe…</text>
<rect x="250" y="47" width="1.0" height="11" fill="#4c9f70" rx="2"/>
<text x="256.0" y="57" fill="#666">0.0</text>
<text x="242" y="75" text-anchor="end" fill="#333">Pinax.report_out() == &quot;somewhere&quot;</text>
<rect x="250" y="65" width="1.0" height="11" fill="#4c9f70" rx="2"/>
<text x="256.0" y="75" fill="#666">0.0</text>
<text x="242" y="93" text-anchor="end" fill="#333">Pinax.report_title() == &quot;My Suite&quot;</text>
<rect x="250" y="83" width="1.0" height="11" fill="#4c9f70" rx="2"/>
<text x="256.0" y="93" fill="#666">0.0</text>
<text x="242" y="111" text-anchor="end" fill="#333">_approx_numbers(_result_data_ex…</text>
<rect x="250" y="101" width="1.0" height="11" fill="#4c9f70" rx="2"/>
<text x="256.0" y="111" fill="#666">0.0</text>
<text x="242" y="129" text-anchor="end" fill="#333">_approx_numbers(_result_data_ex…</text>
<rect x="250" y="119" width="1.0" height="11" fill="#4c9f70" rx="2"/>
<text x="256.0" y="129" fill="#666">0.0</text>
<text x="242" y="147" text-anchor="end" fill="#333">c.pass</text>
<rect x="250" y="137" width="1.0" height="11" fill="#4c9f70" rx="2"/>
<text x="256.0" y="147" fill="#666">0.0</text>
<text x="242" y="165" text-anchor="end" fill="#333">c.got == 1.0 &amp;&amp; (c.want == 1.00…</text>
<rect x="250" y="155" width="1.0" height="11" fill="#4c9f70" rx="2"/>
<text x="256.0" y="165" fill="#666">0.0</text>
<text x="242" y="183" text-anchor="end" fill="#333">c.delta / c.tol &gt; 0.9</text>
<rect x="250" y="173" width="1.0" height="11" fill="#4c9f70" rx="2"/>
<text x="256.0" y="183" fill="#666">0.0</text>
<text x="242" y="201" text-anchor="end" fill="#333">(_check_for(atol_pass, 1)).pass</text>
<rect x="250" y="191" width="1.0" height="11" fill="#4c9f70" rx="2"/>
<text x="256.0" y="201" fill="#666">0.0</text>
<text x="242" y="219" text-anchor="end" fill="#333">b.pass &amp;&amp; b.got == 1.0</text>
<rect x="250" y="209" width="1.0" height="11" fill="#4c9f70" rx="2"/>
<text x="256.0" y="219" fill="#666">0.0</text>
<text x="242" y="237" text-anchor="end" fill="#333">_approx_numbers(_result_data_ex…</text>
<rect x="250" y="227" width="1.0" height="11" fill="#4c9f70" rx="2"/>
<text x="256.0" y="237" fill="#666">0.0</text>
<text x="242" y="255" text-anchor="end" fill="#333">startswith(s, &quot;&lt;svg&quot;)</text>
<rect x="250" y="245" width="1.0" height="11" fill="#4c9f70" rx="2"/>
<text x="256.0" y="255" fill="#666">0.0</text>
<text x="242" y="273" text-anchor="end" fill="#333">occursin(&quot;#d9534f&quot;, s)</text>
<rect x="250" y="263" width="1.0" height="11" fill="#4c9f70" rx="2"/>
<text x="256.0" y="273" fill="#666">0.0</text>
<text x="242" y="291" text-anchor="end" fill="#333">occursin(&quot;44×&quot;, s)</text>
<rect x="250" y="281" width="1.0" height="11" fill="#4c9f70" rx="2"/>
<text x="256.0" y="291" fill="#666">0.0</text>
<text x="242" y="309" text-anchor="end" fill="#333">occursin(&quot;&lt;/svg&gt;&quot;, s)</text>
<rect x="250" y="299" width="1.0" height="11" fill="#4c9f70" rx="2"/>
<text x="256.0" y="309" fill="#666">0.0</text>
<text x="242" y="327" text-anchor="end" fill="#333">(back.children[1]).description …</text>
<rect x="250" y="317" width="1.0" height="11" fill="#4c9f70" rx="2"/>
<text x="256.0" y="327" fill="#666">0.0</text>
<text x="242" y="345" text-anchor="end" fill="#333">((back.children[1]).checks[1]).…</text>
<rect x="250" y="335" width="1.0" height="11" fill="#4c9f70" rx="2"/>
<text x="256.0" y="345" fill="#666">0.0</text>
<text x="242" y="363" text-anchor="end" fill="#333">occursin(&quot;test_a.jl&quot;, md) &amp;&amp; oc…</text>
<rect x="250" y="353" width="1.0" height="11" fill="#4c9f70" rx="2"/>
<text x="256.0" y="363" fill="#666">0.0</text>
<text x="242" y="381" text-anchor="end" fill="#333">!(occursin(&quot;shard&quot;, lowercase(m…</text>
<rect x="250" y="371" width="1.0" height="11" fill="#4c9f70" rx="2"/>
<text x="256.0" y="381" fill="#666">0.0</text>
<text x="242" y="399" text-anchor="end" fill="#333">occursin(&quot;t1 —&quot;, md) &amp;&amp; occur…</text>
<rect x="250" y="389" width="1.0" height="11" fill="#4c9f70" rx="2"/>
<text x="256.0" y="399" fill="#666">0.0</text>
<text x="242" y="417" text-anchor="end" fill="#333">Pinax._ntests(n) == 2</text>
<rect x="250" y="407" width="1.0" height="11" fill="#4c9f70" rx="2"/>
<text x="256.0" y="417" fill="#666">0.0</text>
<text x="242" y="435" text-anchor="end" fill="#333">Pinax._nfail(n) == 0</text>
<rect x="250" y="425" width="1.0" height="11" fill="#4c9f70" rx="2"/>
<text x="256.0" y="435" fill="#666">0.0</text>
<text x="242" y="453" text-anchor="end" fill="#333">occursin(&quot;1 broken&quot;, Pinax._sum…</text>
<rect x="250" y="443" width="1.0" height="11" fill="#4c9f70" rx="2"/>
<text x="256.0" y="453" fill="#666">0.0</text>
<text x="242" y="471" text-anchor="end" fill="#333">occursin(&quot;1/2 passed&quot;, Pinax._s…</text>
<rect x="250" y="461" width="1.0" height="11" fill="#4c9f70" rx="2"/>
<text x="256.0" y="471" fill="#666">0.0</text>
<text x="242" y="489" text-anchor="end" fill="#333">captured === root</text>
<rect x="250" y="479" width="1.0" height="11" fill="#4c9f70" rx="2"/>
<text x="256.0" y="489" fill="#666">0.0</text>
<text x="242" y="507" text-anchor="end" fill="#333">length(root.figures) == 2</text>
<rect x="250" y="497" width="1.0" height="11" fill="#4c9f70" rx="2"/>
<text x="256.0" y="507" fill="#666">0.0</text>
<text x="242" y="525" text-anchor="end" fill="#333">root.desc !== nothing &amp;&amp; occurs…</text>
<rect x="250" y="515" width="1.0" height="11" fill="#4c9f70" rx="2"/>
<text x="256.0" y="525" fill="#666">0.0</text>
<text x="242" y="543" text-anchor="end" fill="#333">root.content == [:figure =&gt; 1, …</text>
<rect x="250" y="533" width="1.0" height="11" fill="#4c9f70" rx="2"/>
<text x="256.0" y="543" fill="#666">0.0</text>
<text x="242" y="561" text-anchor="end" fill="#333">occursin(&quot;a table caption&quot;, html)</text>
<rect x="250" y="551" width="1.0" height="11" fill="#4c9f70" rx="2"/>
<text x="256.0" y="561" fill="#666">0.0</text>
<text x="242" y="579" text-anchor="end" fill="#333">occursin(&quot;hand built&quot;, html)</text>
<rect x="250" y="569" width="1.0" height="11" fill="#4c9f70" rx="2"/>
<text x="256.0" y="579" fill="#666">0.0</text>
<text x="242" y="597" text-anchor="end" fill="#333">isfile(Pinax.dump_test_report(r…</text>
<rect x="250" y="587" width="1.0" height="11" fill="#4c9f70" rx="2"/>
<text x="256.0" y="597" fill="#666">0.0</text>
<text x="242" y="615" text-anchor="end" fill="#333">isfile(joinpath(dir, &quot;r_html&quot;, …</text>
<rect x="250" y="605" width="1.0" height="11" fill="#4c9f70" rx="2"/>
<text x="256.0" y="615" fill="#666">0.0</text>
<text x="242" y="633" text-anchor="end" fill="#333">isfile(joinpath(dir, &quot;r_html&quot;, …</text>
<rect x="250" y="623" width="1.0" height="11" fill="#4c9f70" rx="2"/>
<text x="256.0" y="633" fill="#666">0.0</text>
<text x="242" y="651" text-anchor="end" fill="#333">occursin(&quot;test_a_jl_basics&quot;, ht…</text>
<rect x="250" y="641" width="1.0" height="11" fill="#4c9f70" rx="2"/>
<text x="256.0" y="651" fill="#666">0.0</text>
<text x="242" y="669" text-anchor="end" fill="#333">dups &gt;= 2</text>
<rect x="250" y="659" width="1.0" height="11" fill="#4c9f70" rx="2"/>
<text x="256.0" y="669" fill="#666">0.0</text>
<text x="242" y="687" text-anchor="end" fill="#333">length(((doc.pages[1]).sections…</text>
<rect x="250" y="677" width="1.0" height="11" fill="#4c9f70" rx="2"/>
<text x="256.0" y="687" fill="#666">0.0</text>
<text x="242" y="705" text-anchor="end" fill="#333">!(r.ok)</text>
<rect x="250" y="695" width="1.0" height="11" fill="#4c9f70" rx="2"/>
<text x="256.0" y="705" fill="#666">0.0</text>
<text x="242" y="723" text-anchor="end" fill="#333">!(isdir(joinpath(dir, &quot;rep_agen…</text>
<rect x="250" y="713" width="1.0" height="11" fill="#4c9f70" rx="2"/>
<text x="256.0" y="723" fill="#666">0.0</text>
<text x="242" y="741" text-anchor="end" fill="#333">!(r.ok)</text>
<rect x="250" y="731" width="1.0" height="11" fill="#4c9f70" rx="2"/>
<text x="256.0" y="741" fill="#666">0.0</text>
<text x="242" y="759" text-anchor="end" fill="#333">occursin(&quot;Pinax test report&quot;, r…</text>
<rect x="250" y="749" width="1.0" height="11" fill="#4c9f70" rx="2"/>
<text x="256.0" y="759" fill="#666">0.0</text>
<text x="242" y="777" text-anchor="end" fill="#333">occursin(&quot;1/2 FAIL&quot;, md)</text>
<rect x="250" y="767" width="1.0" height="11" fill="#4c9f70" rx="2"/>
<text x="256.0" y="777" fill="#666">0.0</text>
<text x="242" y="795" text-anchor="end" fill="#333">occursin(&quot;got 0.5, want 0.9&quot;, md)</text>
<rect x="250" y="785" width="1.0" height="11" fill="#4c9f70" rx="2"/>
<text x="256.0" y="795" fill="#666">0.0</text>
<text x="242" y="813" text-anchor="end" fill="#333">occursin(&quot;convergence of E agai…</text>
<rect x="250" y="803" width="1.0" height="11" fill="#4c9f70" rx="2"/>
<text x="256.0" y="813" fill="#666">0.0</text>
<text x="242" y="831" text-anchor="end" fill="#333">isfile(joinpath(dir, &quot;rep_html&quot;…</text>
<rect x="250" y="821" width="1.0" height="11" fill="#4c9f70" rx="2"/>
<text x="256.0" y="831" fill="#666">0.0</text>
<text x="242" y="849" text-anchor="end" fill="#333">!(occursin(&quot;noisy fixture&quot;, md))</text>
<rect x="250" y="839" width="1.0" height="11" fill="#4c9f70" rx="2"/>
<text x="256.0" y="849" fill="#666">0.0</text>
<text x="242" y="867" text-anchor="end" fill="#333">run_it(joinpath(dir, &quot;suite.jl&quot;…</text>
<rect x="250" y="857" width="1.0" height="11" fill="#4c9f70" rx="2"/>
<text x="256.0" y="867" fill="#666">0.0</text>
<text x="242" y="885" text-anchor="end" fill="#333">isfile(joinpath(out * &quot;_html&quot;, …</text>
<rect x="250" y="875" width="1.0" height="11" fill="#4c9f70" rx="2"/>
<text x="256.0" y="885" fill="#666">0.0</text>
<text x="242" y="903" text-anchor="end" fill="#333">occursin(&quot;a description written…</text>
<rect x="250" y="893" width="1.0" height="11" fill="#4c9f70" rx="2"/>
<text x="256.0" y="903" fill="#666">0.0</text>
<text x="242" y="921" text-anchor="end" fill="#333">!(run_it(joinpath(dir, &quot;bad.jl&quot;…</text>
<rect x="250" y="911" width="1.0" height="11" fill="#4c9f70" rx="2"/>
<text x="256.0" y="921" fill="#666">0.0</text>
<text x="242" y="939" text-anchor="end" fill="#333">_parse_binding(&quot;χ = 8&quot;) == [:χ…</text>
<rect x="250" y="929" width="1.0" height="11" fill="#4c9f70" rx="2"/>
<text x="256.0" y="939" fill="#666">0.0</text>
<text x="242" y="957" text-anchor="end" fill="#333">_parse_binding(&quot;χ = 8, β = 0.…</text>
<rect x="250" y="947" width="1.0" height="11" fill="#4c9f70" rx="2"/>
<text x="256.0" y="957" fill="#666">0.0</text>
<text x="242" y="975" text-anchor="end" fill="#333">_parse_binding(&quot;N = (1, 2)&quot;) ==…</text>
<rect x="250" y="965" width="1.0" height="11" fill="#4c9f70" rx="2"/>
<text x="256.0" y="975" fill="#666">0.0</text>
<text x="242" y="993" text-anchor="end" fill="#333">_parse_binding(&quot;a plain sentenc…</text>
<rect x="250" y="983" width="1.0" height="11" fill="#4c9f70" rx="2"/>
<text x="256.0" y="993" fill="#666">0.0</text>
<text x="242" y="1011" text-anchor="end" fill="#333">_parse_binding(&quot;MyPkg&quot;) === not…</text>
<rect x="250" y="1001" width="1.0" height="11" fill="#4c9f70" rx="2"/>
<text x="256.0" y="1011" fill="#666">0.0</text>
<text x="242" y="1029" text-anchor="end" fill="#333">_parse_binding(&quot;x == y&quot;) === no…</text>
<rect x="250" y="1019" width="1.0" height="11" fill="#4c9f70" rx="2"/>
<text x="256.0" y="1029" fill="#666">0.0</text>
<text x="242" y="1047" text-anchor="end" fill="#333">_is_swept(file, _looks_like_a_f…</text>
<rect x="250" y="1037" width="1.0" height="11" fill="#4c9f70" rx="2"/>
<text x="256.0" y="1047" fill="#666">0.0</text>
<text x="242" y="1065" text-anchor="end" fill="#333">occursin(&quot;Convergence of&quot;, html)</text>
<rect x="250" y="1055" width="1.0" height="11" fill="#4c9f70" rx="2"/>
<text x="256.0" y="1065" fill="#666">0.0</text>
<text x="242" y="1083" text-anchor="end" fill="#333">occursin(&quot;test_conv_jl_conv_1&quot;,…</text>
<rect x="250" y="1073" width="1.0" height="11" fill="#4c9f70" rx="2"/>
<text x="256.0" y="1083" fill="#666">0.0</text>
<text x="242" y="1101" text-anchor="end" fill="#333">occursin(&quot;test_conv_jl_swpmargi…</text>
<rect x="250" y="1091" width="1.0" height="11" fill="#4c9f70" rx="2"/>
<text x="256.0" y="1101" fill="#666">0.0</text>
<text x="242" y="1119" text-anchor="end" fill="#333">occursin(&quot;1/3 FAIL&quot;, md)</text>
<rect x="250" y="1109" width="1.0" height="11" fill="#4c9f70" rx="2"/>
<text x="256.0" y="1119" fill="#666">0.0</text>
<text x="242" y="1137" text-anchor="end" fill="#333">occursin(&quot;[χ = 8]&quot;, md) &amp;&amp; occ…</text>
<rect x="250" y="1127" width="1.0" height="11" fill="#4c9f70" rx="2"/>
<text x="256.0" y="1137" fill="#666">0.0</text>
<text x="242" y="1155" text-anchor="end" fill="#333">!(occursin(&quot;[id: test_conv_jl_8…</text>
<rect x="250" y="1145" width="1.0" height="11" fill="#4c9f70" rx="2"/>
<text x="256.0" y="1155" fill="#666">0.0</text>
<text x="242" y="1173" text-anchor="end" fill="#333">_is_swept(file, _looks_like_a_f…</text>
<rect x="250" y="1163" width="1.0" height="11" fill="#4c9f70" rx="2"/>
<text x="256.0" y="1173" fill="#666">0.0</text>
<text x="242" y="1191" text-anchor="end" fill="#333">occursin(&quot;χ = 8&quot;, html) &amp;&amp; occ…</text>
<rect x="250" y="1181" width="1.0" height="11" fill="#4c9f70" rx="2"/>
<text x="256.0" y="1191" fill="#666">0.0</text>
<text x="242" y="1209" text-anchor="end" fill="#333">_is_swept(file, _looks_like_a_f…</text>
<rect x="250" y="1199" width="1.0" height="11" fill="#4c9f70" rx="2"/>
<text x="256.0" y="1209" fill="#666">0.0</text>
<text x="242" y="1227" text-anchor="end" fill="#333">occursin(&quot;TFIM&quot;, html) &amp;&amp; occur…</text>
<rect x="250" y="1217" width="1.0" height="11" fill="#4c9f70" rx="2"/>
<text x="256.0" y="1227" fill="#666">0.0</text>
<text x="242" y="1245" text-anchor="end" fill="#333">!(_is_swept(file, _looks_like_a…</text>
<rect x="250" y="1235" width="1.0" height="11" fill="#4c9f70" rx="2"/>
<text x="256.0" y="1245" fill="#666">0.0</text>
<text x="242" y="1263" text-anchor="end" fill="#333">occursin(&quot;a smoke check&quot;, txt)</text>
<rect x="250" y="1253" width="1.0" height="11" fill="#4c9f70" rx="2"/>
<text x="256.0" y="1263" fill="#666">0.0</text>
<text x="242" y="1281" text-anchor="end" fill="#333">occursin(&quot;could not be folded&quot;,…</text>
<rect x="250" y="1271" width="1.0" height="11" fill="#4c9f70" rx="2"/>
<text x="256.0" y="1281" fill="#666">0.0</text>
<text x="242" y="1299" text-anchor="end" fill="#333">occursin(&quot;Convergence of&quot;, md)</text>
<rect x="250" y="1289" width="1.0" height="11" fill="#4c9f70" rx="2"/>
<text x="256.0" y="1299" fill="#666">0.0</text>
<text x="242" y="1317" text-anchor="end" fill="#333">occursin(&quot;[χ = 8]&quot;, md) &amp;&amp; occ…</text>
<rect x="250" y="1307" width="1.0" height="11" fill="#4c9f70" rx="2"/>
<text x="256.0" y="1317" fill="#666">0.0</text>
<text x="242" y="1335" text-anchor="end" fill="#333">occursin(&quot;1/3&quot;, md)</text>
<rect x="250" y="1325" width="1.0" height="11" fill="#4c9f70" rx="2"/>
<text x="256.0" y="1335" fill="#666">0.0</text>
<text x="242" y="1353" text-anchor="end" fill="#333">any((r-&gt;begin
            #= /h…</text>
<rect x="250" y="1343" width="1.0" height="11" fill="#4c9f70" rx="2"/>
<text x="256.0" y="1353" fill="#666">0.0</text>
<text x="242" y="1371" text-anchor="end" fill="#333">any((r-&gt;begin
            #= /h…</text>
<rect x="250" y="1361" width="1.0" height="11" fill="#4c9f70" rx="2"/>
<text x="256.0" y="1371" fill="#666">0.0</text>
<text x="242" y="1389" text-anchor="end" fill="#333">any((r-&gt;begin
            #= /h…</text>
<rect x="250" y="1379" width="1.0" height="11" fill="#4c9f70" rx="2"/>
<text x="256.0" y="1389" fill="#666">0.0</text>
<text x="242" y="1407" text-anchor="end" fill="#333">any((r-&gt;begin
            #= /h…</text>
<rect x="250" y="1397" width="1.0" height="11" fill="#4c9f70" rx="2"/>
<text x="256.0" y="1407" fill="#666">0.0</text>
<text x="242" y="1425" text-anchor="end" fill="#333">occursin(&quot;Provenance&quot;, md) &amp;&amp; o…</text>
<rect x="250" y="1415" width="1.0" height="11" fill="#4c9f70" rx="2"/>
<text x="256.0" y="1425" fill="#666">0.0</text>
<text x="242" y="1443" text-anchor="end" fill="#333">Pinax._package_line(proj) == &quot;D…</text>
<rect x="250" y="1433" width="1.0" height="11" fill="#4c9f70" rx="2"/>
<text x="256.0" y="1443" fill="#666">0.0</text>
<text x="242" y="1461" text-anchor="end" fill="#333">Pinax._package_line(nothing) == &quot;&quot;</text>
<rect x="250" y="1451" width="1.0" height="11" fill="#4c9f70" rx="2"/>
<text x="256.0" y="1461" fill="#666">0.0</text>
<text x="242" y="1479" text-anchor="end" fill="#333">Pinax._package_line(joinpath(te…</text>
<rect x="250" y="1469" width="1.0" height="11" fill="#4c9f70" rx="2"/>
<text x="256.0" y="1479" fill="#666">0.0</text>
<text x="242" y="1497" text-anchor="end" fill="#333">Pinax._package_line(proj) == &quot;&quot;</text>
<rect x="250" y="1487" width="1.0" height="11" fill="#4c9f70" rx="2"/>
<text x="256.0" y="1497" fill="#666">0.0</text>
<text x="242" y="1515" text-anchor="end" fill="#333">any((r-&gt;begin
            #= /h…</text>
<rect x="250" y="1505" width="1.0" height="11" fill="#4c9f70" rx="2"/>
<text x="256.0" y="1515" fill="#666">0.0</text>
<text x="242" y="1533" text-anchor="end" fill="#333">!(any((r-&gt;begin
               …</text>
<rect x="250" y="1523" width="1.0" height="11" fill="#4c9f70" rx="2"/>
<text x="256.0" y="1533" fill="#666">0.0</text>
<text x="242" y="1551" text-anchor="end" fill="#333">(root.checks[end]).label == &quot;en…</text>
<rect x="250" y="1541" width="1.0" height="11" fill="#4c9f70" rx="2"/>
<text x="256.0" y="1551" fill="#666">0.0</text>
<text x="242" y="1569" text-anchor="end" fill="#333">any((e-&gt;begin
            #= /h…</text>
<rect x="250" y="1559" width="1.0" height="11" fill="#4c9f70" rx="2"/>
<text x="256.0" y="1569" fill="#666">0.0</text>
<line x1="508.33333333333337" y1="22" x2="508.33333333333337" y2="1576" stroke="#d9534f" stroke-width="1" stroke-dasharray="3,2"/>
<text x="511.33333333333337" y="1588" fill="#d9534f">tol</text>
<line x1="250" y1="22" x2="250" y2="1576" stroke="#bbb" stroke-width="1"/>
</svg>
