<svg xmlns="http://www.w3.org/2000/svg" width="620" height="780" font-family="ui-monospace,SFMono-Regular,Menlo,monospace" font-size="11">
<text x="8" y="14" font-size="12" fill="#444">tolerance budget spent (delta / tol)</text>
<text x="242" y="39" text-anchor="end" fill="#333">Ext !== nothing</text>
<rect x="250" y="29" width="1.0" height="11" fill="#4c9f70" rx="2"/>
<text x="256.0" y="39" fill="#666">0.0</text>
<text x="242" y="57" text-anchor="end" fill="#333">PinaxTestSet &lt;: Test.AbstractTe…</text>
<rect x="250" y="47" width="1.0" height="11" fill="#4c9f70" rx="2"/>
<text x="256.0" y="57" fill="#666">0.0</text>
<text x="242" y="75" text-anchor="end" fill="#333">Pinax.report_out() == &quot;somewhere&quot;</text>
<rect x="250" y="65" width="1.0" height="11" fill="#4c9f70" rx="2"/>
<text x="256.0" y="75" fill="#666">0.0</text>
<text x="242" y="93" text-anchor="end" fill="#333">Pinax.report_title() == &quot;My Suite&quot;</text>
<rect x="250" y="83" width="1.0" height="11" fill="#4c9f70" rx="2"/>
<text x="256.0" y="93" fill="#666">0.0</text>
<text x="242" y="111" text-anchor="end" fill="#333">_approx_numbers(_result_data_ex…</text>
<rect x="250" y="101" width="1.0" height="11" fill="#4c9f70" rx="2"/>
<text x="256.0" y="111" fill="#666">0.0</text>
<text x="242" y="129" text-anchor="end" fill="#333">_approx_numbers(_result_data_ex…</text>
<rect x="250" y="119" width="1.0" height="11" fill="#4c9f70" rx="2"/>
<text x="256.0" y="129" fill="#666">0.0</text>
<text x="242" y="147" text-anchor="end" fill="#333">c.pass</text>
<rect x="250" y="137" width="1.0" height="11" fill="#4c9f70" rx="2"/>
<text x="256.0" y="147" fill="#666">0.0</text>
<text x="242" y="165" text-anchor="end" fill="#333">c.got == 1.0 &amp;&amp; (c.want == 1.00…</text>
<rect x="250" y="155" width="1.0" height="11" fill="#4c9f70" rx="2"/>
<text x="256.0" y="165" fill="#666">0.0</text>
<text x="242" y="183" text-anchor="end" fill="#333">c.delta / c.tol &gt; 0.9</text>
<rect x="250" y="173" width="1.0" height="11" fill="#4c9f70" rx="2"/>
<text x="256.0" y="183" fill="#666">0.0</text>
<text x="242" y="201" text-anchor="end" fill="#333">(_check_for(atol_pass, 1)).pass</text>
<rect x="250" y="191" width="1.0" height="11" fill="#4c9f70" rx="2"/>
<text x="256.0" y="201" fill="#666">0.0</text>
<text x="242" y="219" text-anchor="end" fill="#333">b.pass &amp;&amp; b.got == 1.0</text>
<rect x="250" y="209" width="1.0" height="11" fill="#4c9f70" rx="2"/>
<text x="256.0" y="219" fill="#666">0.0</text>
<text x="242" y="237" text-anchor="end" fill="#333">_approx_numbers(_result_data_ex…</text>
<rect x="250" y="227" width="1.0" height="11" fill="#4c9f70" rx="2"/>
<text x="256.0" y="237" fill="#666">0.0</text>
<text x="242" y="255" text-anchor="end" fill="#333">startswith(s, &quot;&lt;svg&quot;)</text>
<rect x="250" y="245" width="1.0" height="11" fill="#4c9f70" rx="2"/>
<text x="256.0" y="255" fill="#666">0.0</text>
<text x="242" y="273" text-anchor="end" fill="#333">occursin(&quot;#d9534f&quot;, s)</text>
<rect x="250" y="263" width="1.0" height="11" fill="#4c9f70" rx="2"/>
<text x="256.0" y="273" fill="#666">0.0</text>
<text x="242" y="291" text-anchor="end" fill="#333">occursin(&quot;44×&quot;, s)</text>
<rect x="250" y="281" width="1.0" height="11" fill="#4c9f70" rx="2"/>
<text x="256.0" y="291" fill="#666">0.0</text>
<text x="242" y="309" text-anchor="end" fill="#333">occursin(&quot;&lt;/svg&gt;&quot;, s)</text>
<rect x="250" y="299" width="1.0" height="11" fill="#4c9f70" rx="2"/>
<text x="256.0" y="309" fill="#666">0.0</text>
<text x="242" y="327" text-anchor="end" fill="#333">(back.children[1]).description …</text>
<rect x="250" y="317" width="1.0" height="11" fill="#4c9f70" rx="2"/>
<text x="256.0" y="327" fill="#666">0.0</text>
<text x="242" y="345" text-anchor="end" fill="#333">((back.children[1]).checks[1]).…</text>
<rect x="250" y="335" width="1.0" height="11" fill="#4c9f70" rx="2"/>
<text x="256.0" y="345" fill="#666">0.0</text>
<text x="242" y="363" text-anchor="end" fill="#333">occursin(&quot;test_a.jl&quot;, md) &amp;&amp; oc…</text>
<rect x="250" y="353" width="1.0" height="11" fill="#4c9f70" rx="2"/>
<text x="256.0" y="363" fill="#666">0.0</text>
<text x="242" y="381" text-anchor="end" fill="#333">!(occursin(&quot;shard&quot;, lowercase(m…</text>
<rect x="250" y="371" width="1.0" height="11" fill="#4c9f70" rx="2"/>
<text x="256.0" y="381" fill="#666">0.0</text>
<text x="242" y="399" text-anchor="end" fill="#333">occursin(&quot;t1 —&quot;, md) &amp;&amp; occur…</text>
<rect x="250" y="389" width="1.0" height="11" fill="#4c9f70" rx="2"/>
<text x="256.0" y="399" fill="#666">0.0</text>
<text x="242" y="417" text-anchor="end" fill="#333">Pinax._ntests(n) == 2</text>
<rect x="250" y="407" width="1.0" height="11" fill="#4c9f70" rx="2"/>
<text x="256.0" y="417" fill="#666">0.0</text>
<text x="242" y="435" text-anchor="end" fill="#333">Pinax._nfail(n) == 0</text>
<rect x="250" y="425" width="1.0" height="11" fill="#4c9f70" rx="2"/>
<text x="256.0" y="435" fill="#666">0.0</text>
<text x="242" y="453" text-anchor="end" fill="#333">occursin(&quot;1 broken&quot;, Pinax._sum…</text>
<rect x="250" y="443" width="1.0" height="11" fill="#4c9f70" rx="2"/>
<text x="256.0" y="453" fill="#666">0.0</text>
<text x="242" y="471" text-anchor="end" fill="#333">occursin(&quot;1/2 passed&quot;, Pinax._s…</text>
<rect x="250" y="461" width="1.0" height="11" fill="#4c9f70" rx="2"/>
<text x="256.0" y="471" fill="#666">0.0</text>
<text x="242" y="489" text-anchor="end" fill="#333">captured === root</text>
<rect x="250" y="479" width="1.0" height="11" fill="#4c9f70" rx="2"/>
<text x="256.0" y="489" fill="#666">0.0</text>
<text x="242" y="507" text-anchor="end" fill="#333">length(root.figures) == 2</text>
<rect x="250" y="497" width="1.0" height="11" fill="#4c9f70" rx="2"/>
<text x="256.0" y="507" fill="#666">0.0</text>
<text x="242" y="525" text-anchor="end" fill="#333">root.desc !== nothing &amp;&amp; occurs…</text>
<rect x="250" y="515" width="1.0" height="11" fill="#4c9f70" rx="2"/>
<text x="256.0" y="525" fill="#666">0.0</text>
<text x="242" y="543" text-anchor="end" fill="#333">root.content == [:figure =&gt; 1, …</text>
<rect x="250" y="533" width="1.0" height="11" fill="#4c9f70" rx="2"/>
<text x="256.0" y="543" fill="#666">0.0</text>
<text x="242" y="561" text-anchor="end" fill="#333">occursin(&quot;a table caption&quot;, html)</text>
<rect x="250" y="551" width="1.0" height="11" fill="#4c9f70" rx="2"/>
<text x="256.0" y="561" fill="#666">0.0</text>
<text x="242" y="579" text-anchor="end" fill="#333">occursin(&quot;hand built&quot;, html)</text>
<rect x="250" y="569" width="1.0" height="11" fill="#4c9f70" rx="2"/>
<text x="256.0" y="579" fill="#666">0.0</text>
<text x="242" y="597" text-anchor="end" fill="#333">isfile(Pinax.dump_test_report(r…</text>
<rect x="250" y="587" width="1.0" height="11" fill="#4c9f70" rx="2"/>
<text x="256.0" y="597" fill="#666">0.0</text>
<text x="242" y="615" text-anchor="end" fill="#333">isfile(joinpath(dir, &quot;r_html&quot;, …</text>
<rect x="250" y="605" width="1.0" height="11" fill="#4c9f70" rx="2"/>
<text x="256.0" y="615" fill="#666">0.0</text>
<text x="242" y="633" text-anchor="end" fill="#333">isfile(joinpath(dir, &quot;r_html&quot;, …</text>
<rect x="250" y="623" width="1.0" height="11" fill="#4c9f70" rx="2"/>
<text x="256.0" y="633" fill="#666">0.0</text>
<text x="242" y="651" text-anchor="end" fill="#333">occursin(&quot;test_a_jl_basics&quot;, ht…</text>
<rect x="250" y="641" width="1.0" height="11" fill="#4c9f70" rx="2"/>
<text x="256.0" y="651" fill="#666">0.0</text>
<text x="242" y="669" text-anchor="end" fill="#333">dups &gt;= 2</text>
<rect x="250" y="659" width="1.0" height="11" fill="#4c9f70" rx="2"/>
<text x="256.0" y="669" fill="#666">0.0</text>
<text x="242" y="687" text-anchor="end" fill="#333">length(((doc.pages[1]).sections…</text>
<rect x="250" y="677" width="1.0" height="11" fill="#4c9f70" rx="2"/>
<text x="256.0" y="687" fill="#666">0.0</text>
<text x="242" y="705" text-anchor="end" fill="#333">!(r.ok)</text>
<rect x="250" y="695" width="1.0" height="11" fill="#4c9f70" rx="2"/>
<text x="256.0" y="705" fill="#666">0.0</text>
<text x="242" y="723" text-anchor="end" fill="#333">!(isdir(joinpath(dir, &quot;rep_agen…</text>
<rect x="250" y="713" width="1.0" height="11" fill="#4c9f70" rx="2"/>
<text x="256.0" y="723" fill="#666">0.0</text>
<text x="242" y="741" text-anchor="end" fill="#333">!(r.ok)</text>
<rect x="250" y="731" width="1.0" height="11" fill="#4c9f70" rx="2"/>
<text x="256.0" y="741" fill="#666">0.0</text>
<line x1="508.33333333333337" y1="22" x2="508.33333333333337" y2="748" stroke="#d9534f" stroke-width="1" stroke-dasharray="3,2"/>
<text x="511.33333333333337" y="760" fill="#d9534f">tol</text>
<line x1="250" y1="22" x2="250" y2="748" stroke="#bbb" stroke-width="1"/>
</svg>
