<?xml version="1.0" encoding="utf-8"?>
<svg xmlns="http://www.w3.org/2000/svg" xmlns:xlink="http://www.w3.org/1999/xlink" width="380" height="380" viewBox="0 0 1520 1520">
<defs>
  <clipPath id="clip470">
    <rect x="0" y="0" width="1520" height="1520"/>
  </clipPath>
</defs>
<path clip-path="url(#clip470)" d="M0 1520 L1520 1520 L1520 0 L0 0  Z" fill="#ffffff" fill-rule="evenodd" fill-opacity="1"/>
<defs>
  <clipPath id="clip471">
    <rect x="47" y="153" width="1427" height="1320"/>
  </clipPath>
</defs>
<path clip-path="url(#clip470)" d="M47.2441 1472.76 L1472.76 1472.76 L1472.76 153.712 L47.2441 153.712  Z" fill="#ffffff" fill-rule="evenodd" fill-opacity="1"/>
<path clip-path="url(#clip470)" d="M603.817 14.0809 L603.817 22.0612 Q599.159 19.8332 595.027 18.7395 Q590.895 17.6457 587.047 17.6457 Q580.363 17.6457 576.717 20.2383 Q573.112 22.8309 573.112 27.611 Q573.112 31.6214 575.502 33.6873 Q577.932 35.7128 584.657 36.9686 L589.599 37.9813 Q598.754 39.7232 603.088 44.1387 Q607.463 48.5136 607.463 55.8863 Q607.463 64.6767 601.549 69.2137 Q595.675 73.7508 584.292 73.7508 Q579.998 73.7508 575.137 72.7785 Q570.316 71.8063 565.131 69.9024 L565.131 61.4765 Q570.114 64.2716 574.894 65.6895 Q579.674 67.1073 584.292 67.1073 Q591.3 67.1073 595.108 64.3527 Q598.916 61.598 598.916 56.4939 Q598.916 52.0379 596.161 49.5264 Q593.447 47.0148 587.209 45.759 L582.226 44.7868 Q573.071 42.9639 568.98 39.075 Q564.888 35.1862 564.888 28.2591 Q564.888 20.2383 570.519 15.6203 Q576.19 11.0023 586.115 11.0023 Q590.368 11.0023 594.784 11.7719 Q599.199 12.5416 603.817 14.0809 Z" fill="#000000" fill-rule="nonzero" fill-opacity="1" /><path clip-path="url(#clip470)" d="M619.899 27.2059 L627.353 27.2059 L627.353 72.576 L619.899 72.576 L619.899 27.2059 M619.899 9.54393 L627.353 9.54393 L627.353 18.9825 L619.899 18.9825 L619.899 9.54393 Z" fill="#000000" fill-rule="nonzero" fill-opacity="1" /><path clip-path="url(#clip470)" d="M681.757 48.0275 L681.757 51.6733 L647.486 51.6733 Q647.972 59.3701 652.104 63.421 Q656.277 67.4314 663.69 67.4314 Q667.984 67.4314 671.994 66.3781 Q676.045 65.3249 680.015 63.2184 L680.015 70.267 Q676.005 71.9684 671.792 72.8596 Q667.579 73.7508 663.244 73.7508 Q652.388 73.7508 646.028 67.4314 Q639.708 61.1119 639.708 50.3365 Q639.708 39.1965 645.704 32.6746 Q651.74 26.1121 661.948 26.1121 Q671.103 26.1121 676.41 32.0264 Q681.757 37.9003 681.757 48.0275 M674.303 45.84 Q674.222 39.7232 670.86 36.0774 Q667.538 32.4315 662.029 32.4315 Q655.79 32.4315 652.023 35.9558 Q648.296 39.4801 647.729 45.8805 L674.303 45.84 Z" fill="#000000" fill-rule="nonzero" fill-opacity="1" /><path clip-path="url(#clip470)" d="M720.281 34.1734 Q719.025 33.4443 717.526 33.1202 Q716.068 32.7556 714.286 32.7556 Q707.966 32.7556 704.563 36.8875 Q701.201 40.9789 701.201 48.6757 L701.201 72.576 L693.707 72.576 L693.707 27.2059 L701.201 27.2059 L701.201 34.2544 Q703.551 30.1225 707.318 28.1376 Q711.085 26.1121 716.473 26.1121 Q717.243 26.1121 718.174 26.2337 Q719.106 26.3147 720.24 26.5172 L720.281 34.1734 Z" fill="#000000" fill-rule="nonzero" fill-opacity="1" /><path clip-path="url(#clip470)" d="M735.31 65.7705 L735.31 89.8329 L727.816 89.8329 L727.816 27.2059 L735.31 27.2059 L735.31 34.0924 Q737.659 30.0415 741.224 28.0971 Q744.829 26.1121 749.812 26.1121 Q758.076 26.1121 763.22 32.6746 Q768.406 39.2371 768.406 49.9314 Q768.406 60.6258 763.22 67.1883 Q758.076 73.7508 749.812 73.7508 Q744.829 73.7508 741.224 71.8063 Q737.659 69.8214 735.31 65.7705 M760.668 49.9314 Q760.668 41.7081 757.266 37.0496 Q753.903 32.3505 747.989 32.3505 Q742.075 32.3505 738.672 37.0496 Q735.31 41.7081 735.31 49.9314 Q735.31 58.1548 738.672 62.8538 Q742.075 67.5124 747.989 67.5124 Q753.903 67.5124 757.266 62.8538 Q760.668 58.1548 760.668 49.9314 Z" fill="#000000" fill-rule="nonzero" fill-opacity="1" /><path clip-path="url(#clip470)" d="M780.761 27.2059 L788.215 27.2059 L788.215 72.576 L780.761 72.576 L780.761 27.2059 M780.761 9.54393 L788.215 9.54393 L788.215 18.9825 L780.761 18.9825 L780.761 9.54393 Z" fill="#000000" fill-rule="nonzero" fill-opacity="1" /><path clip-path="url(#clip470)" d="M825.037 5.93863 L833.099 5.93863 L819.893 21.17 L813.695 21.17 L825.037 5.93863 M841.524 45.1919 L841.524 72.576 L834.071 72.576 L834.071 45.4349 Q834.071 38.994 831.559 35.7938 Q829.048 32.5936 824.025 32.5936 Q817.989 32.5936 814.505 36.4419 Q811.021 40.2903 811.021 46.9338 L811.021 72.576 L803.527 72.576 L803.527 27.2059 L811.021 27.2059 L811.021 34.2544 Q813.695 30.163 817.3 28.1376 Q820.946 26.1121 825.685 26.1121 Q833.504 26.1121 837.514 30.9732 Q841.524 35.7938 841.524 45.1919 Z" fill="#000000" fill-rule="nonzero" fill-opacity="1" /><path clip-path="url(#clip470)" d="M885.315 28.5427 L885.315 35.5912 Q882.155 33.9709 878.752 33.1607 Q875.349 32.3505 871.704 32.3505 Q866.154 32.3505 863.359 34.0519 Q860.604 35.7533 860.604 39.156 Q860.604 41.7486 862.589 43.2475 Q864.574 44.7058 870.569 46.0426 L873.122 46.6097 Q881.061 48.3111 884.383 51.4303 Q887.745 54.509 887.745 60.0587 Q887.745 66.3781 882.722 70.0644 Q877.74 73.7508 868.99 73.7508 Q865.344 73.7508 861.374 73.0216 Q857.445 72.3329 853.07 70.9151 L853.07 63.2184 Q857.201 65.3654 861.212 66.4591 Q865.222 67.5124 869.152 67.5124 Q874.418 67.5124 877.253 65.73 Q880.089 63.9071 880.089 60.6258 Q880.089 57.5877 878.023 55.9673 Q875.998 54.3469 869.071 52.8481 L866.478 52.2405 Q859.551 50.7821 856.472 47.7845 Q853.394 44.7463 853.394 39.4801 Q853.394 33.0797 857.931 29.5959 Q862.468 26.1121 870.812 26.1121 Q874.944 26.1121 878.59 26.7198 Q882.236 27.3274 885.315 28.5427 Z" fill="#000000" fill-rule="nonzero" fill-opacity="1" /><path clip-path="url(#clip470)" d="M899.331 9.54393 L906.825 9.54393 L906.825 46.7717 L929.064 27.2059 L938.584 27.2059 L914.522 48.4326 L939.597 72.576 L929.875 72.576 L906.825 50.4176 L906.825 72.576 L899.331 72.576 L899.331 9.54393 Z" fill="#000000" fill-rule="nonzero" fill-opacity="1" /><path clip-path="url(#clip470)" d="M947.658 27.2059 L955.112 27.2059 L955.112 72.576 L947.658 72.576 L947.658 27.2059 M947.658 9.54393 L955.112 9.54393 L955.112 18.9825 L947.658 18.9825 L947.658 9.54393 Z" fill="#000000" fill-rule="nonzero" fill-opacity="1" /><polyline clip-path="url(#clip471)" style="stroke:#2e8b57; stroke-linecap:round; stroke-linejoin:round; stroke-width:2.4; stroke-opacity:1; fill:none" points="87.5888,1386.46 108.602,1386.46 119.108,1368.26 108.602,1350.07 119.108,1331.87 140.121,1331.87 150.627,1350.07 140.121,1368.26 150.627,1386.46 171.64,1386.46 182.147,1368.26 203.159,1368.26 213.666,1386.46 234.679,1386.46 245.185,1368.26 234.679,1350.07 213.666,1350.07 203.159,1331.87 213.666,1313.67 203.159,1295.47 182.147,1295.47 171.64,1313.67 150.627,1313.67 140.121,1295.47 150.627,1277.27 171.64,1277.27 182.147,1259.08 171.64,1240.88 182.147,1222.68 203.159,1222.68 213.666,1240.88 234.679,1240.88 245.185,1222.68 234.679,1204.48 213.666,1204.48 203.159,1186.29 213.666,1168.09 234.679,1168.09 245.185,1149.89 234.679,1131.69 245.185,1113.5 266.198,1113.5 276.704,1131.69 266.198,1149.89 276.704,1168.09 297.717,1168.09 308.224,1186.29 297.717,1204.48 276.704,1204.48 266.198,1222.68 276.704,1240.88 297.717,1240.88 308.224,1222.68 329.237,1222.68 339.743,1240.88 329.237,1259.08 339.743,1277.27 360.756,1277.27 371.262,1295.47 360.756,1313.67 339.743,1313.67 329.237,1295.47 308.224,1295.47 297.717,1313.67 308.224,1331.87 297.717,1350.07 276.704,1350.07 266.198,1368.26 276.704,1386.46 297.717,1386.46 308.224,1368.26 329.237,1368.26 339.743,1386.46 360.756,1386.46 371.262,1368.26 360.756,1350.07 371.262,1331.87 392.275,1331.87 402.782,1350.07 392.275,1368.26 402.782,1386.46 423.794,1386.46 434.301,1368.26 455.314,1368.26 465.82,1386.46 486.833,1386.46 497.339,1368.26 486.833,1350.07 465.82,1350.07 455.314,1331.87 465.82,1313.67 486.833,1313.67 497.339,1295.47 486.833,1277.27 497.339,1259.08 518.352,1259.08 528.859,1277.27 518.352,1295.47 528.859,1313.67 549.871,1313.67 560.378,1331.87 549.871,1350.07 528.859,1350.07 518.352,1368.26 528.859,1386.46 549.871,1386.46 560.378,1368.26 581.391,1368.26 591.897,1386.46 612.91,1386.46 623.416,1368.26 612.91,1350.07 623.416,1331.87 644.429,1331.87 654.936,1350.07 644.429,1368.26 654.936,1386.46 675.949,1386.46 686.455,1368.26 707.468,1368.26 717.974,1386.46 738.987,1386.46 749.494,1368.26 738.987,1350.07 717.974,1350.07 707.468,1331.87 717.974,1313.67 707.468,1295.47 686.455,1295.47 675.949,1313.67 654.936,1313.67 644.429,1295.47 654.936,1277.27 675.949,1277.27 686.455,1259.08 675.949,1240.88 654.936,1240.88 644.429,1222.68 654.936,1204.48 644.429,1186.29 623.416,1186.29 612.91,1204.48 623.416,1222.68 612.91,1240.88 591.897,1240.88 581.391,1222.68 560.378,1222.68 549.871,1240.88 528.859,1240.88 518.352,1222.68 528.859,1204.48 549.871,1204.48 560.378,1186.29 549.871,1168.09 560.378,1149.89 581.391,1149.89 591.897,1168.09 612.91,1168.09 623.416,1149.89 612.91,1131.69 591.897,1131.69 581.391,1113.5 591.897,1095.3 581.391,1077.1 560.378,1077.1 549.871,1095.3 528.859,1095.3 518.352,1077.1 528.859,1058.9 549.871,1058.9 560.378,1040.7 549.871,1022.51 528.859,1022.51 518.352,1004.31 528.859,986.112 518.352,967.914 497.339,967.914 486.833,986.112 497.339,1004.31 486.833,1022.51 465.82,1022.51 455.314,1040.7 465.82,1058.9 486.833,1058.9 497.339,1077.1 486.833,1095.3 465.82,1095.3 455.314,1077.1 434.301,1077.1 423.794,1095.3 402.782,1095.3 392.275,1077.1 402.782,1058.9 392.275,1040.7 371.262,1040.7 360.756,1058.9 371.262,1077.1 360.756,1095.3 339.743,1095.3 329.237,1077.1 308.224,1077.1 297.717,1095.3 276.704,1095.3 266.198,1077.1 276.704,1058.9 297.717,1058.9 308.224,1040.7 297.717,1022.51 308.224,1004.31 329.237,1004.31 339.743,1022.51 360.756,1022.51 371.262,1004.31 360.756,986.112 339.743,986.112 329.237,967.914 339.743,949.716 360.756,949.716 371.262,931.519 360.756,913.321 371.262,895.123 392.275,895.123 402.782,913.321 392.275,931.519 402.782,949.716 423.794,949.716 434.301,931.519 455.314,931.519 465.82,949.716 486.833,949.716 497.339,931.519 486.833,913.321 465.82,913.321 455.314,895.123 465.82,876.926 455.314,858.728 434.301,858.728 423.794,876.926 402.782,876.926 392.275,858.728 402.782,840.531 423.794,840.531 434.301,822.333 423.794,804.135 434.301,785.938 455.314,785.938 465.82,804.135 486.833,804.135 497.339,785.938 486.833,767.74 465.82,767.74 455.314,749.542 465.82,731.345 486.833,731.345 497.339,713.147 486.833,694.949 497.339,676.752 518.352,676.752 528.859,694.949 518.352,713.147 528.859,731.345 549.871,731.345 560.378,749.542 549.871,767.74 528.859,767.74 518.352,785.938 528.859,804.135 549.871,804.135 560.378,785.938 581.391,785.938 591.897,804.135 612.91,804.135 623.416,785.938 612.91,767.74 623.416,749.542 644.429,749.542 654.936,767.74 644.429,785.938 654.936,804.135 675.949,804.135 686.455,785.938 707.468,785.938 717.974,804.135 738.987,804.135 749.494,785.938 738.987,767.74 717.974,767.74 707.468,749.542 717.974,731.345 707.468,713.147 686.455,713.147 675.949,731.345 654.936,731.345 644.429,713.147 654.936,694.949 675.949,694.949 686.455,676.752 675.949,658.554 654.936,658.554 644.429,640.356 654.936,622.159 644.429,603.961 623.416,603.961 612.91,622.159 623.416,640.356 612.91,658.554 591.897,658.554 581.391,640.356 560.378,640.356 549.871,658.554 528.859,658.554 518.352,640.356 528.859,622.159 549.871,622.159 560.378,603.961 549.871,585.763 560.378,567.566 581.391,567.566 591.897,585.763 612.91,585.763 623.416,567.566 612.91,549.368 591.897,549.368 581.391,531.17 591.897,512.973 612.91,512.973 623.416,494.775 612.91,476.577 623.416,458.38 644.429,458.38 654.936,476.577 644.429,494.775 654.936,512.973 675.949,512.973 686.455,494.775 707.468,494.775 717.974,512.973 738.987,512.973 749.494,494.775 738.987,476.577 717.974,476.577 707.468,458.38 717.974,440.182 707.468,421.984 686.455,421.984 675.949,440.182 654.936,440.182 644.429,421.984 654.936,403.787 675.949,403.787 686.455,385.589 675.949,367.391 686.455,349.194 707.468,349.194 717.974,367.391 738.987,367.391 749.494,349.194 738.987,330.996 717.974,330.996 707.468,312.798 717.974,294.601 738.987,294.601 749.494,276.403 738.987,258.205 749.494,240.008 770.506,240.008 781.013,258.205 770.506,276.403 781.013,294.601 802.026,294.601 812.532,312.798 802.026,330.996 781.013,330.996 770.506,349.194 781.013,367.391 802.026,367.391 812.532,349.194 833.545,349.194 844.051,367.391 833.545,385.589 844.051,403.787 865.064,403.787 875.571,421.984 865.064,440.182 844.051,440.182 833.545,421.984 812.532,421.984 802.026,440.182 812.532,458.38 802.026,476.577 781.013,476.577 770.506,494.775 781.013,512.973 802.026,512.973 812.532,494.775 833.545,494.775 844.051,512.973 865.064,512.973 875.571,494.775 865.064,476.577 875.571,458.38 896.584,458.38 907.09,476.577 896.584,494.775 907.09,512.973 928.103,512.973 938.609,531.17 928.103,549.368 907.09,549.368 896.584,567.566 907.09,585.763 928.103,585.763 938.609,567.566 959.622,567.566 970.129,585.763 959.622,603.961 970.129,622.159 991.141,622.159 1001.65,640.356 991.141,658.554 970.129,658.554 959.622,640.356 938.609,640.356 928.103,658.554 907.09,658.554 896.584,640.356 907.09,622.159 896.584,603.961 875.571,603.961 865.064,622.159 875.571,640.356 865.064,658.554 844.051,658.554 833.545,676.752 844.051,694.949 865.064,694.949 875.571,713.147 865.064,731.345 844.051,731.345 833.545,713.147 812.532,713.147 802.026,731.345 812.532,749.542 802.026,767.74 781.013,767.74 770.506,785.938 781.013,804.135 802.026,804.135 812.532,785.938 833.545,785.938 844.051,804.135 865.064,804.135 875.571,785.938 865.064,767.74 875.571,749.542 896.584,749.542 907.09,767.74 896.584,785.938 907.09,804.135 928.103,804.135 938.609,785.938 959.622,785.938 970.129,804.135 991.141,804.135 1001.65,785.938 991.141,767.74 970.129,767.74 959.622,749.542 970.129,731.345 991.141,731.345 1001.65,713.147 991.141,694.949 1001.65,676.752 1022.66,676.752 1033.17,694.949 1022.66,713.147 1033.17,731.345 1054.18,731.345 1064.69,749.542 1054.18,767.74 1033.17,767.74 1022.66,785.938 1033.17,804.135 1054.18,804.135 1064.69,785.938 1085.7,785.938 1096.21,804.135 1085.7,822.333 1096.21,840.531 1117.22,840.531 1127.72,858.728 1117.22,876.926 1096.21,876.926 1085.7,858.728 1064.69,858.728 1054.18,876.926 1064.69,895.123 1054.18,913.321 1033.17,913.321 1022.66,931.519 1033.17,949.716 1054.18,949.716 1064.69,931.519 1085.7,931.519 1096.21,949.716 1117.22,949.716 1127.72,931.519 1117.22,913.321 1127.72,895.123 1148.74,895.123 1159.24,913.321 1148.74,931.519 1159.24,949.716 1180.26,949.716 1190.76,967.914 1180.26,986.112 1159.24,986.112 1148.74,1004.31 1159.24,1022.51 1180.26,1022.51 1190.76,1004.31 1211.78,1004.31 1222.28,1022.51 1211.78,1040.7 1222.28,1058.9 1243.3,1058.9 1253.8,1077.1 1243.3,1095.3 1222.28,1095.3 1211.78,1077.1 1190.76,1077.1 1180.26,1095.3 1159.24,1095.3 1148.74,1077.1 1159.24,1058.9 1148.74,1040.7 1127.72,1040.7 1117.22,1058.9 1127.72,1077.1 1117.22,1095.3 1096.21,1095.3 1085.7,1077.1 1064.69,1077.1 1054.18,1095.3 1033.17,1095.3 1022.66,1077.1 1033.17,1058.9 1054.18,1058.9 1064.69,1040.7 1054.18,1022.51 1033.17,1022.51 1022.66,1004.31 1033.17,986.112 1022.66,967.914 1001.65,967.914 991.141,986.112 1001.65,1004.31 991.141,1022.51 970.129,1022.51 959.622,1040.7 970.129,1058.9 991.141,1058.9 1001.65,1077.1 991.141,1095.3 970.129,1095.3 959.622,1077.1 938.609,1077.1 928.103,1095.3 938.609,1113.5 928.103,1131.69 907.09,1131.69 896.584,1149.89 907.09,1168.09 928.103,1168.09 938.609,1149.89 959.622,1149.89 970.129,1168.09 959.622,1186.29 970.129,1204.48 991.141,1204.48 1001.65,1222.68 991.141,1240.88 970.129,1240.88 959.622,1222.68 938.609,1222.68 928.103,1240.88 907.09,1240.88 896.584,1222.68 907.09,1204.48 896.584,1186.29 875.571,1186.29 865.064,1204.48 875.571,1222.68 865.064,1240.88 844.051,1240.88 833.545,1259.08 844.051,1277.27 865.064,1277.27 875.571,1295.47 865.064,1313.67 844.051,1313.67 833.545,1295.47 812.532,1295.47 802.026,1313.67 812.532,1331.87 802.026,1350.07 781.013,1350.07 770.506,1368.26 781.013,1386.46 802.026,1386.46 812.532,1368.26 833.545,1368.26 844.051,1386.46 865.064,1386.46 875.571,1368.26 865.064,1350.07 875.571,1331.87 896.584,1331.87 907.09,1350.07 896.584,1368.26 907.09,1386.46 928.103,1386.46 938.609,1368.26 959.622,1368.26 970.129,1386.46 991.141,1386.46 1001.65,1368.26 991.141,1350.07 970.129,1350.07 959.622,1331.87 970.129,1313.67 991.141,1313.67 1001.65,1295.47 991.141,1277.27 1001.65,1259.08 1022.66,1259.08 1033.17,1277.27 1022.66,1295.47 1033.17,1313.67 1054.18,1313.67 1064.69,1331.87 1054.18,1350.07 1033.17,1350.07 1022.66,1368.26 1033.17,1386.46 1054.18,1386.46 1064.69,1368.26 1085.7,1368.26 1096.21,1386.46 1117.22,1386.46 1127.72,1368.26 1117.22,1350.07 1127.72,1331.87 1148.74,1331.87 1159.24,1350.07 1148.74,1368.26 1159.24,1386.46 1180.26,1386.46 1190.76,1368.26 1211.78,1368.26 1222.28,1386.46 1243.3,1386.46 1253.8,1368.26 1243.3,1350.07 1222.28,1350.07 1211.78,1331.87 1222.28,1313.67 1211.78,1295.47 1190.76,1295.47 1180.26,1313.67 1159.24,1313.67 1148.74,1295.47 1159.24,1277.27 1180.26,1277.27 1190.76,1259.08 1180.26,1240.88 1190.76,1222.68 1211.78,1222.68 1222.28,1240.88 1243.3,1240.88 1253.8,1222.68 1243.3,1204.48 1222.28,1204.48 1211.78,1186.29 1222.28,1168.09 1243.3,1168.09 1253.8,1149.89 1243.3,1131.69 1253.8,1113.5 1274.81,1113.5 1285.32,1131.69 1274.81,1149.89 1285.32,1168.09 1306.33,1168.09 1316.84,1186.29 1306.33,1204.48 1285.32,1204.48 1274.81,1222.68 1285.32,1240.88 1306.33,1240.88 1316.84,1222.68 1337.85,1222.68 1348.36,1240.88 1337.85,1259.08 1348.36,1277.27 1369.37,1277.27 1379.88,1295.47 1369.37,1313.67 1348.36,1313.67 1337.85,1295.47 1316.84,1295.47 1306.33,1313.67 1316.84,1331.87 1306.33,1350.07 1285.32,1350.07 1274.81,1368.26 1285.32,1386.46 1306.33,1386.46 1316.84,1368.26 1337.85,1368.26 1348.36,1386.46 1369.37,1386.46 1379.88,1368.26 1369.37,1350.07 1379.88,1331.87 1400.89,1331.87 1411.4,1350.07 1400.89,1368.26 1411.4,1386.46 1432.41,1386.46 "/>
</svg>
