<?xml version="1.0" encoding="utf-8"?>
<svg xmlns="http://www.w3.org/2000/svg" xmlns:xlink="http://www.w3.org/1999/xlink" width="420" height="360" viewBox="0 0 1680 1440">
<defs>
  <clipPath id="clip010">
    <rect x="0" y="0" width="1680" height="1440"/>
  </clipPath>
</defs>
<path clip-path="url(#clip010)" d="M0 1440 L1680 1440 L1680 0 L0 0  Z" fill="#ffffff" fill-rule="evenodd" fill-opacity="1"/>
<defs>
  <clipPath id="clip011">
    <rect x="248" y="140" width="1385" height="1102"/>
  </clipPath>
</defs>
<path clip-path="url(#clip010)" d="M210.341 1241.33 L1632.76 1241.33 L1632.76 140.752 L210.341 140.752  Z" fill="#ffffff" fill-rule="evenodd" fill-opacity="1"/>
<defs>
  <clipPath id="clip012">
    <rect x="210" y="140" width="1423" height="1102"/>
  </clipPath>
</defs>
<polyline clip-path="url(#clip012)" style="stroke:#000000; stroke-linecap:round; stroke-linejoin:round; stroke-width:2; stroke-opacity:0.1; fill:none" points="306.902,1241.33 306.902,140.752 "/>
<polyline clip-path="url(#clip012)" style="stroke:#000000; stroke-linecap:round; stroke-linejoin:round; stroke-width:2; stroke-opacity:0.1; fill:none" points="667.349,1241.33 667.349,140.752 "/>
<polyline clip-path="url(#clip012)" style="stroke:#000000; stroke-linecap:round; stroke-linejoin:round; stroke-width:2; stroke-opacity:0.1; fill:none" points="1027.8,1241.33 1027.8,140.752 "/>
<polyline clip-path="url(#clip012)" style="stroke:#000000; stroke-linecap:round; stroke-linejoin:round; stroke-width:2; stroke-opacity:0.1; fill:none" points="1388.24,1241.33 1388.24,140.752 "/>
<polyline clip-path="url(#clip012)" style="stroke:#000000; stroke-linecap:round; stroke-linejoin:round; stroke-width:2; stroke-opacity:0.1; fill:none" points="210.341,1210.8 1632.76,1210.8 "/>
<polyline clip-path="url(#clip012)" style="stroke:#000000; stroke-linecap:round; stroke-linejoin:round; stroke-width:2; stroke-opacity:0.1; fill:none" points="210.341,982.703 1632.76,982.703 "/>
<polyline clip-path="url(#clip012)" style="stroke:#000000; stroke-linecap:round; stroke-linejoin:round; stroke-width:2; stroke-opacity:0.1; fill:none" points="210.341,754.609 1632.76,754.609 "/>
<polyline clip-path="url(#clip012)" style="stroke:#000000; stroke-linecap:round; stroke-linejoin:round; stroke-width:2; stroke-opacity:0.1; fill:none" points="210.341,526.515 1632.76,526.515 "/>
<polyline clip-path="url(#clip012)" style="stroke:#000000; stroke-linecap:round; stroke-linejoin:round; stroke-width:2; stroke-opacity:0.1; fill:none" points="210.341,298.42 1632.76,298.42 "/>
<polyline clip-path="url(#clip010)" style="stroke:#000000; stroke-linecap:round; stroke-linejoin:round; stroke-width:4; stroke-opacity:1; fill:none" points="210.341,1241.33 1632.76,1241.33 "/>
<polyline clip-path="url(#clip010)" style="stroke:#000000; stroke-linecap:round; stroke-linejoin:round; stroke-width:4; stroke-opacity:1; fill:none" points="306.902,1241.33 306.902,1222.43 "/>
<polyline clip-path="url(#clip010)" style="stroke:#000000; stroke-linecap:round; stroke-linejoin:round; stroke-width:4; stroke-opacity:1; fill:none" points="667.349,1241.33 667.349,1222.43 "/>
<polyline clip-path="url(#clip010)" style="stroke:#000000; stroke-linecap:round; stroke-linejoin:round; stroke-width:4; stroke-opacity:1; fill:none" points="1027.8,1241.33 1027.8,1222.43 "/>
<polyline clip-path="url(#clip010)" style="stroke:#000000; stroke-linecap:round; stroke-linejoin:round; stroke-width:4; stroke-opacity:1; fill:none" points="1388.24,1241.33 1388.24,1222.43 "/>
<path clip-path="url(#clip010)" d="M260.965 1281.14 L290.64 1281.14 L290.64 1285.07 L260.965 1285.07 L260.965 1281.14 Z" fill="#000000" fill-rule="nonzero" fill-opacity="1" /><path clip-path="url(#clip010)" d="M301.543 1294.03 L309.182 1294.03 L309.182 1267.67 L300.872 1269.33 L300.872 1265.08 L309.136 1263.41 L313.811 1263.41 L313.811 1294.03 L321.45 1294.03 L321.45 1297.97 L301.543 1297.97 L301.543 1294.03 Z" fill="#000000" fill-rule="nonzero" fill-opacity="1" /><path clip-path="url(#clip010)" d="M340.895 1266.49 Q337.284 1266.49 335.455 1270.05 Q333.649 1273.59 333.649 1280.72 Q333.649 1287.83 335.455 1291.39 Q337.284 1294.94 340.895 1294.94 Q344.529 1294.94 346.334 1291.39 Q348.163 1287.83 348.163 1280.72 Q348.163 1273.59 346.334 1270.05 Q344.529 1266.49 340.895 1266.49 M340.895 1262.78 Q346.705 1262.78 349.76 1267.39 Q352.839 1271.97 352.839 1280.72 Q352.839 1289.45 349.76 1294.06 Q346.705 1298.64 340.895 1298.64 Q335.084 1298.64 332.006 1294.06 Q328.95 1289.45 328.95 1280.72 Q328.95 1271.97 332.006 1267.39 Q335.084 1262.78 340.895 1262.78 Z" fill="#000000" fill-rule="nonzero" fill-opacity="1" /><path clip-path="url(#clip010)" d="M636.99 1281.14 L666.666 1281.14 L666.666 1285.07 L636.99 1285.07 L636.99 1281.14 Z" fill="#000000" fill-rule="nonzero" fill-opacity="1" /><path clip-path="url(#clip010)" d="M676.805 1263.41 L695.161 1263.41 L695.161 1267.34 L681.087 1267.34 L681.087 1275.82 Q682.106 1275.47 683.124 1275.31 Q684.143 1275.12 685.161 1275.12 Q690.948 1275.12 694.328 1278.29 Q697.708 1281.46 697.708 1286.88 Q697.708 1292.46 694.235 1295.56 Q690.763 1298.64 684.444 1298.64 Q682.268 1298.64 679.999 1298.27 Q677.754 1297.9 675.347 1297.16 L675.347 1292.46 Q677.43 1293.59 679.652 1294.15 Q681.874 1294.7 684.351 1294.7 Q688.356 1294.7 690.694 1292.6 Q693.032 1290.49 693.032 1286.88 Q693.032 1283.27 690.694 1281.16 Q688.356 1279.06 684.351 1279.06 Q682.476 1279.06 680.601 1279.47 Q678.749 1279.89 676.805 1280.77 L676.805 1263.41 Z" fill="#000000" fill-rule="nonzero" fill-opacity="1" /><path clip-path="url(#clip010)" d="M1027.8 1266.49 Q1024.19 1266.49 1022.36 1270.05 Q1020.55 1273.59 1020.55 1280.72 Q1020.55 1287.83 1022.36 1291.39 Q1024.19 1294.94 1027.8 1294.94 Q1031.43 1294.94 1033.24 1291.39 Q1035.06 1287.83 1035.06 1280.72 Q1035.06 1273.59 1033.24 1270.05 Q1031.43 1266.49 1027.8 1266.49 M1027.8 1262.78 Q1033.61 1262.78 1036.66 1267.39 Q1039.74 1271.97 1039.74 1280.72 Q1039.74 1289.45 1036.66 1294.06 Q1033.61 1298.64 1027.8 1298.64 Q1021.99 1298.64 1018.91 1294.06 Q1015.85 1289.45 1015.85 1280.72 Q1015.85 1271.97 1018.91 1267.39 Q1021.99 1262.78 1027.8 1262.78 Z" fill="#000000" fill-rule="nonzero" fill-opacity="1" /><path clip-path="url(#clip010)" d="M1378.52 1263.41 L1396.88 1263.41 L1396.88 1267.34 L1382.8 1267.34 L1382.8 1275.82 Q1383.82 1275.47 1384.84 1275.31 Q1385.86 1275.12 1386.88 1275.12 Q1392.66 1275.12 1396.04 1278.29 Q1399.42 1281.46 1399.42 1286.88 Q1399.42 1292.46 1395.95 1295.56 Q1392.48 1298.64 1386.16 1298.64 Q1383.98 1298.64 1381.72 1298.27 Q1379.47 1297.9 1377.06 1297.16 L1377.06 1292.46 Q1379.15 1293.59 1381.37 1294.15 Q1383.59 1294.7 1386.07 1294.7 Q1390.07 1294.7 1392.41 1292.6 Q1394.75 1290.49 1394.75 1286.88 Q1394.75 1283.27 1392.41 1281.16 Q1390.07 1279.06 1386.07 1279.06 Q1384.19 1279.06 1382.32 1279.47 Q1380.47 1279.89 1378.52 1280.77 L1378.52 1263.41 Z" fill="#000000" fill-rule="nonzero" fill-opacity="1" /><path clip-path="url(#clip010)" d="M923.235 1378.7 Q920.753 1385.07 918.397 1387.01 Q916.042 1388.95 912.095 1388.95 L907.416 1388.95 L907.416 1384.05 L910.854 1384.05 Q913.273 1384.05 914.61 1382.9 Q915.946 1381.76 917.57 1377.49 L918.62 1374.82 L904.202 1339.74 L910.408 1339.74 L921.548 1367.63 L932.688 1339.74 L938.895 1339.74 L923.235 1378.7 Z" fill="#000000" fill-rule="nonzero" fill-opacity="1" /><polyline clip-path="url(#clip010)" style="stroke:#000000; stroke-linecap:round; stroke-linejoin:round; stroke-width:4; stroke-opacity:1; fill:none" points="210.341,1241.33 210.341,140.752 "/>
<polyline clip-path="url(#clip010)" style="stroke:#000000; stroke-linecap:round; stroke-linejoin:round; stroke-width:4; stroke-opacity:1; fill:none" points="210.341,1210.8 229.238,1210.8 "/>
<polyline clip-path="url(#clip010)" style="stroke:#000000; stroke-linecap:round; stroke-linejoin:round; stroke-width:4; stroke-opacity:1; fill:none" points="210.341,982.703 229.238,982.703 "/>
<polyline clip-path="url(#clip010)" style="stroke:#000000; stroke-linecap:round; stroke-linejoin:round; stroke-width:4; stroke-opacity:1; fill:none" points="210.341,754.609 229.238,754.609 "/>
<polyline clip-path="url(#clip010)" style="stroke:#000000; stroke-linecap:round; stroke-linejoin:round; stroke-width:4; stroke-opacity:1; fill:none" points="210.341,526.515 229.238,526.515 "/>
<polyline clip-path="url(#clip010)" style="stroke:#000000; stroke-linecap:round; stroke-linejoin:round; stroke-width:4; stroke-opacity:1; fill:none" points="210.341,298.42 229.238,298.42 "/>
<path clip-path="url(#clip010)" d="M173.196 1196.6 Q169.585 1196.6 167.757 1200.16 Q165.951 1203.7 165.951 1210.83 Q165.951 1217.94 167.757 1221.5 Q169.585 1225.05 173.196 1225.05 Q176.831 1225.05 178.636 1221.5 Q180.465 1217.94 180.465 1210.83 Q180.465 1203.7 178.636 1200.16 Q176.831 1196.6 173.196 1196.6 M173.196 1192.89 Q179.006 1192.89 182.062 1197.5 Q185.141 1202.08 185.141 1210.83 Q185.141 1219.56 182.062 1224.17 Q179.006 1228.75 173.196 1228.75 Q167.386 1228.75 164.307 1224.17 Q161.252 1219.56 161.252 1210.83 Q161.252 1202.08 164.307 1197.5 Q167.386 1192.89 173.196 1192.89 Z" fill="#000000" fill-rule="nonzero" fill-opacity="1" /><path clip-path="url(#clip010)" d="M164.238 965.423 L182.594 965.423 L182.594 969.358 L168.52 969.358 L168.52 977.831 Q169.539 977.483 170.557 977.321 Q171.576 977.136 172.594 977.136 Q178.381 977.136 181.761 980.307 Q185.141 983.479 185.141 988.895 Q185.141 994.474 181.669 997.576 Q178.196 1000.65 171.877 1000.65 Q169.701 1000.65 167.432 1000.28 Q165.187 999.914 162.78 999.173 L162.78 994.474 Q164.863 995.608 167.085 996.164 Q169.307 996.719 171.784 996.719 Q175.789 996.719 178.127 994.613 Q180.465 992.506 180.465 988.895 Q180.465 985.284 178.127 983.178 Q175.789 981.071 171.784 981.071 Q169.909 981.071 168.034 981.488 Q166.182 981.905 164.238 982.784 L164.238 965.423 Z" fill="#000000" fill-rule="nonzero" fill-opacity="1" /><path clip-path="url(#clip010)" d="M133.845 767.954 L141.484 767.954 L141.484 741.588 L133.173 743.255 L133.173 738.996 L141.437 737.329 L146.113 737.329 L146.113 767.954 L153.752 767.954 L153.752 771.889 L133.845 771.889 L133.845 767.954 Z" fill="#000000" fill-rule="nonzero" fill-opacity="1" /><path clip-path="url(#clip010)" d="M173.196 740.408 Q169.585 740.408 167.757 743.972 Q165.951 747.514 165.951 754.644 Q165.951 761.75 167.757 765.315 Q169.585 768.856 173.196 768.856 Q176.831 768.856 178.636 765.315 Q180.465 761.75 180.465 754.644 Q180.465 747.514 178.636 743.972 Q176.831 740.408 173.196 740.408 M173.196 736.704 Q179.006 736.704 182.062 741.31 Q185.141 745.894 185.141 754.644 Q185.141 763.37 182.062 767.977 Q179.006 772.56 173.196 772.56 Q167.386 772.56 164.307 767.977 Q161.252 763.37 161.252 754.644 Q161.252 745.894 164.307 741.31 Q167.386 736.704 173.196 736.704 Z" fill="#000000" fill-rule="nonzero" fill-opacity="1" /><path clip-path="url(#clip010)" d="M134.84 539.859 L142.479 539.859 L142.479 513.494 L134.169 515.16 L134.169 510.901 L142.433 509.235 L147.109 509.235 L147.109 539.859 L154.747 539.859 L154.747 543.795 L134.84 543.795 L134.84 539.859 Z" fill="#000000" fill-rule="nonzero" fill-opacity="1" /><path clip-path="url(#clip010)" d="M164.238 509.235 L182.594 509.235 L182.594 513.17 L168.52 513.17 L168.52 521.642 Q169.539 521.295 170.557 521.133 Q171.576 520.947 172.594 520.947 Q178.381 520.947 181.761 524.119 Q185.141 527.29 185.141 532.707 Q185.141 538.285 181.669 541.387 Q178.196 544.466 171.877 544.466 Q169.701 544.466 167.432 544.096 Q165.187 543.725 162.78 542.984 L162.78 538.285 Q164.863 539.42 167.085 539.975 Q169.307 540.531 171.784 540.531 Q175.789 540.531 178.127 538.424 Q180.465 536.318 180.465 532.707 Q180.465 529.096 178.127 526.989 Q175.789 524.883 171.784 524.883 Q169.909 524.883 168.034 525.299 Q166.182 525.716 164.238 526.596 L164.238 509.235 Z" fill="#000000" fill-rule="nonzero" fill-opacity="1" /><path clip-path="url(#clip010)" d="M137.062 311.765 L153.382 311.765 L153.382 315.7 L131.437 315.7 L131.437 311.765 Q134.099 309.011 138.683 304.381 Q143.289 299.728 144.47 298.386 Q146.715 295.862 147.595 294.126 Q148.497 292.367 148.497 290.677 Q148.497 287.923 146.553 286.187 Q144.632 284.45 141.53 284.45 Q139.331 284.45 136.877 285.214 Q134.447 285.978 131.669 287.529 L131.669 282.807 Q134.493 281.673 136.947 281.094 Q139.4 280.515 141.437 280.515 Q146.808 280.515 150.002 283.2 Q153.196 285.886 153.196 290.376 Q153.196 292.506 152.386 294.427 Q151.599 296.325 149.493 298.918 Q148.914 299.589 145.812 302.807 Q142.71 306.001 137.062 311.765 Z" fill="#000000" fill-rule="nonzero" fill-opacity="1" /><path clip-path="url(#clip010)" d="M173.196 284.219 Q169.585 284.219 167.757 287.784 Q165.951 291.325 165.951 298.455 Q165.951 305.561 167.757 309.126 Q169.585 312.668 173.196 312.668 Q176.831 312.668 178.636 309.126 Q180.465 305.561 180.465 298.455 Q180.465 291.325 178.636 287.784 Q176.831 284.219 173.196 284.219 M173.196 280.515 Q179.006 280.515 182.062 285.122 Q185.141 289.705 185.141 298.455 Q185.141 307.182 182.062 311.788 Q179.006 316.372 173.196 316.372 Q167.386 316.372 164.307 311.788 Q161.252 307.182 161.252 298.455 Q161.252 289.705 164.307 285.122 Q167.386 280.515 173.196 280.515 Z" fill="#000000" fill-rule="nonzero" fill-opacity="1" /><path clip-path="url(#clip010)" d="M56.3333 704.551 L56.3333 676.733 L61.6805 676.733 L87.3025 698.759 L87.3025 676.733 L91.9813 676.733 L91.9813 705.347 L86.6341 705.347 L61.0121 683.322 L61.0121 704.551 L56.3333 704.551 Z" fill="#000000" fill-rule="nonzero" fill-opacity="1" /><path clip-path="url(#clip010)" d="M881.728 76.7889 Q878.568 84.8907 875.571 87.3618 Q872.573 89.8329 867.55 89.8329 L861.595 89.8329 L861.595 83.5945 L865.97 83.5945 Q869.049 83.5945 870.75 82.1361 Q872.451 80.6778 874.517 75.2496 L875.854 71.8468 L857.504 27.2059 L865.403 27.2059 L879.581 62.6918 L893.759 27.2059 L901.658 27.2059 L881.728 76.7889 Z" fill="#000000" fill-rule="nonzero" fill-opacity="1" /><path clip-path="url(#clip010)" d="M908.18 46.9338 L941.56 46.9338 L941.56 52.7671 L908.18 52.7671 L908.18 46.9338 Z" fill="#000000" fill-rule="nonzero" fill-opacity="1" /><path clip-path="url(#clip010)" d="M950.188 27.2059 L985.593 27.2059 L985.593 34.0114 L957.561 66.6212 L985.593 66.6212 L985.593 72.576 L949.175 72.576 L949.175 65.7705 L977.208 33.1607 L950.188 33.1607 L950.188 27.2059 Z" fill="#000000" fill-rule="nonzero" fill-opacity="1" /><polyline clip-path="url(#clip012)" style="stroke:#009af9; stroke-linecap:round; stroke-linejoin:round; stroke-width:1.6; stroke-opacity:1; fill:none" points="1099.89,1165.18 1101.59,1169.11 1103.25,1172.72 1104.85,1176.03 1106.42,1179.06 1107.93,1181.83 1109.4,1184.36 1110.83,1186.68 1112.22,1188.79 1113.56,1190.71 1114.86,1192.46 1116.12,1194.05 1117.34,1195.5 1118.52,1196.82 1119.66,1198.02 1120.76,1199.11 1121.81,1200.1 1122.83,1200.99 1123.81,1201.8 1124.75,1202.54 1125.64,1203.2 1126.5,1203.8 1127.31,1204.35 1128.09,1204.84 1128.82,1205.28 1129.52,1205.69 1130.17,1206.05 1130.78,1206.38 1131.35,1206.67 1131.87,1206.94 1132.36,1207.18 1132.8,1207.39 1133.2,1207.59 1133.56,1207.76 1133.87,1207.92 1134.14,1208.07 1134.37,1208.19 1134.55,1208.31 1134.7,1208.42 1134.79,1208.51 1134.85,1208.59 1134.85,1208.67 1134.82,1208.74 1134.74,1208.8 1134.62,1208.86 1134.45,1208.91 1134.23,1208.96 1133.98,1209 1133.67,1209.04 1133.33,1209.07 1132.94,1209.1 1132.5,1209.13 1132.02,1209.16 1131.49,1209.18 1130.92,1209.21 1130.3,1209.23 1129.64,1209.24 1128.94,1209.26 1128.19,1209.28 1127.4,1209.29 1126.56,1209.31 1125.68,1209.32 1124.75,1209.33 1123.79,1209.34 1122.78,1209.35 1121.72,1209.36 1120.62,1209.37 1119.48,1209.38 1118.3,1209.39 1117.08,1209.4 1115.81,1209.41 1114.51,1209.41 1113.16,1209.42 1111.77,1209.43 1110.34,1209.44 1108.87,1209.44 1107.37,1209.45 1105.82,1209.45 1104.24,1209.46 1102.61,1209.46 1100.96,1209.47 1099.26,1209.47 1097.53,1209.48 1095.76,1209.48 1093.95,1209.49 1092.12,1209.49 1090.25,1209.5 1088.34,1209.5 1086.4,1209.51 1084.43,1209.51 1082.43,1209.51 1080.4,1209.52 1078.34,1209.52 1076.24,1209.52 1074.12,1209.53 1071.98,1209.53 1069.8,1209.53 1067.6,1209.54 1065.37,1209.54 1063.12,1209.54 1060.85,1209.54 1058.55,1209.55 1056.22,1209.55 1053.88,1209.55 1051.52,1209.55 1049.14,1209.56 1046.73,1209.56 1044.31,1209.56 1041.88,1209.56 1039.42,1209.56 1036.95,1209.56 1034.47,1209.56 1031.97,1209.57 1029.47,1209.57 1026.95,1209.57 1024.41,1209.57 1021.87,1209.57 1019.32,1209.57 1016.77,1209.57 1014.2,1209.57 1011.64,1209.57 1009.06,1209.57 1006.49,1209.57 1003.91,1209.57 1001.32,1209.57 998.743,1209.57 996.162,1209.57 993.582,1209.57 991.005,1209.57 988.432,1209.57 985.863,1209.57 983.3,1209.56 980.744,1209.56 978.196,1209.56 975.656,1209.56 973.127,1209.56 970.608,1209.56 968.102,1209.56 965.608,1209.55 963.129,1209.55 960.665,1209.55 958.217,1209.55 955.786,1209.54 953.374,1209.54 950.981,1209.54 948.609,1209.54 946.258,1209.53 943.929,1209.53 941.624,1209.53 939.343,1209.52 937.088,1209.52 934.86,1209.52 932.659,1209.51 930.486,1209.51 928.343,1209.5 926.23,1209.5 924.149,1209.5 922.1,1209.49 920.084,1209.49 918.103,1209.48 916.157,1209.48 914.247,1209.47 912.374,1209.47 910.539,1209.46 908.743,1209.46 906.986,1209.45 905.27,1209.45 903.595,1209.44 901.963,1209.43 900.373,1209.43 898.827,1209.42 897.326,1209.42 895.871,1209.41 894.461,1209.4 893.099,1209.39 891.784,1209.39 890.517,1209.38 889.3,1209.37 888.132,1209.37 887.014,1209.36 885.948,1209.35 884.933,1209.34 883.971,1209.33 883.061,1209.33 882.205,1209.32 881.403,1209.31 880.655,1209.3 879.962,1209.29 879.325,1209.28 878.744,1209.27 878.219,1209.26 877.752,1209.25 877.341,1209.24 876.988,1209.23 876.693,1209.22 876.457,1209.21 876.279,1209.2 876.16,1209.19 876.101,1209.18 876.101,1209.17 876.161,1209.16 876.281,1209.15 876.461,1209.13 876.701,1209.12 877.002,1209.11 877.363,1209.1 877.785,1209.09 878.268,1209.07 878.811,1209.06 879.415,1209.05 880.08,1209.04 880.806,1209.02 881.593,1209.01 882.44,1209 883.347,1208.98 884.315,1208.97 885.344,1208.95 886.432,1208.94 887.58,1208.93 888.788,1208.91 890.055,1208.9 891.381,1208.88 892.766,1208.87 894.21,1208.85 895.711,1208.84 897.27,1208.82 898.887,1208.81 900.56,1208.79 902.29,1208.78 904.076,1208.76 905.917,1208.75 907.813,1208.73 909.764,1208.71 911.768,1208.7 913.826,1208.68 915.936,1208.67 918.098,1208.65 920.311,1208.63 922.575,1208.62 924.889,1208.6 927.252,1208.59 929.663,1208.57 932.122,1208.55 934.628,1208.54 937.179,1208.52 939.776,1208.51 942.417,1208.49 945.101,1208.48 947.828,1208.46 950.596,1208.44 953.405,1208.43 956.254,1208.41 959.14,1208.4 962.065,1208.38 965.026,1208.37 968.023,1208.36 971.053,1208.34 974.118,1208.33 977.214,1208.31 980.342,1208.3 983.499,1208.29 986.686,1208.27 989.9,1208.26 993.14,1208.25 996.406,1208.24 999.696,1208.23 1003.01,1208.22 1006.34,1208.21 1009.7,1208.2 1013.07,1208.19 1016.46,1208.18 1019.87,1208.17 1023.29,1208.16 1026.73,1208.15 1030.18,1208.14 1033.64,1208.14 1037.11,1208.13 1040.59,1208.13 1044.08,1208.12 1047.57,1208.12 1051.06,1208.11 1054.56,1208.11 1058.06,1208.11 1061.56,1208.11 1065.06,1208.11 1068.56,1208.11 1072.05,1208.11 1075.54,1208.11 1079.02,1208.11 1082.5,1208.11 1085.96,1208.11 1089.41,1208.12 1092.85,1208.12 1096.27,1208.13 1099.68,1208.13 1103.08,1208.14 1106.45,1208.15 1109.81,1208.15 1113.14,1208.16 1116.45,1208.17 1119.74,1208.18 1123,1208.19 1126.24,1208.2 1129.44,1208.22 1132.62,1208.23 1135.77,1208.24 1138.88,1208.25 1141.96,1208.27 1145.01,1208.28 1148.02,1208.3 1150.99,1208.31 1153.92,1208.33 1156.82,1208.35 1159.67,1208.36 1162.48,1208.38 1165.24,1208.4 1167.96,1208.42 1170.63,1208.44 1173.25,1208.45 1175.82,1208.47 1178.35,1208.49 1180.82,1208.51 1183.24,1208.53 1185.6,1208.55 1187.91,1208.57 1190.17,1208.59 1192.36,1208.61 1194.5,1208.64 1196.58,1208.66 1198.59,1208.68 1200.55,1208.7 1202.44,1208.72 1204.27,1208.74 1206.04,1208.76 1207.73,1208.78 1209.37,1208.8 1210.93,1208.82 1212.43,1208.84 1213.85,1208.86 1215.21,1208.89 1216.5,1208.91 1217.71,1208.93 1218.85,1208.95 1219.92,1208.97 1220.92,1208.98 1221.84,1209 1222.68,1209.02 1223.45,1209.04 1224.14,1209.06 1224.76,1209.08 1225.3,1209.1 1225.76,1209.12 1226.14,1209.13 1226.44,1209.15 1226.66,1209.17 1226.81,1209.19 1226.87,1209.2 1226.85,1209.22 1226.75,1209.23 1226.57,1209.25 1226.31,1209.27 1225.97,1209.28 1225.55,1209.3 1225.04,1209.31 1224.45,1209.33 1223.78,1209.34 1223.03,1209.35 1222.19,1209.37 1221.28,1209.38 1220.28,1209.39 1219.2,1209.41 1218.03,1209.42 1216.79,1209.43 1215.46,1209.44 1214.06,1209.45 1212.57,1209.47 1211,1209.48 1209.35,1209.49 1207.62,1209.5 1205.81,1209.51 1203.92,1209.52 1201.95,1209.53 1199.9,1209.54 1197.78,1209.55 1195.57,1209.56 1193.29,1209.57 1190.94,1209.57 1188.51,1209.58 1186,1209.59 1183.42,1209.6 1180.77,1209.61 1178.04,1209.61 1175.24,1209.62 1172.37,1209.63 1169.43,1209.64 1166.42,1209.64 1163.35,1209.65 1160.2,1209.66 1156.99,1209.66 1153.71,1209.67 1150.37,1209.67 1146.97,1209.68 1143.5,1209.69 1139.97,1209.69 1136.39,1209.7 1132.74,1209.7 1129.04,1209.71 1125.28,1209.71 1121.47,1209.71 1117.6,1209.72 1113.68,1209.72 1109.71,1209.73 1105.69,1209.73 1101.62,1209.73 1097.51,1209.74 1093.35,1209.74 1089.15,1209.74 1084.9,1209.75 1080.61,1209.75 1076.29,1209.75 1071.93,1209.75 1067.53,1209.76 1063.1,1209.76 1058.63,1209.76 1054.14,1209.76 1049.61,1209.76 1045.06,1209.77 1040.48,1209.77 1035.88,1209.77 1031.25,1209.77 1026.61,1209.77 1021.95,1209.77 1017.26,1209.77 1012.57,1209.77 1007.86,1209.77 1003.14,1209.77 998.406,1209.77 993.668,1209.77 988.923,1209.77 984.174,1209.77 979.423,1209.77 974.672,1209.77 969.923,1209.77 965.177,1209.77 960.436,1209.77 955.703,1209.77 950.979,1209.76 946.266,1209.76 941.566,1209.76 936.881,1209.76 932.214,1209.76 927.565,1209.76 922.937,1209.75 918.332,1209.75 913.752,1209.75 909.198,1209.74 904.673,1209.74 900.179,1209.74 895.717,1209.73 891.289,1209.73 886.898,1209.73 882.545,1209.72 878.232,1209.72 873.961,1209.71 869.734,1209.71 865.552,1209.71 861.418,1209.7 857.334,1209.7 853.301,1209.69 849.321,1209.68 845.395,1209.68 841.527,1209.67 837.717,1209.67 833.967,1209.66 830.279,1209.65 826.654,1209.65 823.095,1209.64 819.603,1209.63 816.18,1209.63 812.827,1209.62 809.546,1209.61 806.339,1209.6 803.206,1209.59 800.151,1209.58 797.173,1209.58 794.276,1209.57 791.459,1209.56 788.726,1209.55 786.076,1209.54 783.512,1209.53 781.034,1209.52 778.645,1209.51 776.345,1209.49 774.136,1209.48 772.019,1209.47 769.995,1209.46 768.066,1209.45 766.232,1209.43 764.494,1209.42 762.855,1209.41 761.314,1209.39 759.873,1209.38 758.532,1209.36 757.293,1209.35 756.157,1209.33 755.124,1209.32 754.195,1209.3 753.371,1209.28 752.653,1209.27 752.042,1209.25 751.537,1209.23 751.14,1209.21 750.852,1209.19 750.672,1209.18 750.602,1209.16 750.641,1209.13 750.79,1209.11 751.051,1209.09 751.422,1209.07 751.904,1209.05 752.497,1209.02 753.202,1209 754.019,1208.98 754.948,1208.95 755.989,1208.93 757.141,1208.9 758.406,1208.87 759.782,1208.85 761.27,1208.82 762.87,1208.79 764.58,1208.76 766.402,1208.73 768.335,1208.7 770.378,1208.67 772.531,1208.63 774.794,1208.6 777.165,1208.57 779.646,1208.53 782.234,1208.5 784.929,1208.46 787.731,1208.42 790.64,1208.39 793.653,1208.35 796.771,1208.31 799.992,1208.27 803.316,1208.23 806.741,1208.18 810.267,1208.14 813.893,1208.1 817.617,1208.05 821.439,1208.01 825.357,1207.96 829.37,1207.91 833.477,1207.86 837.676,1207.81 841.967,1207.76 846.347,1207.71 850.815,1207.66 855.371,1207.61 860.012,1207.56 864.736,1207.5 869.543,1207.45 874.43,1207.39 879.396,1207.34 884.44,1207.28 889.559,1207.22 894.751,1207.16 900.015,1207.1 905.35,1207.04 910.752,1206.98 916.22,1206.92 921.753,1206.86 927.348,1206.8 933.003,1206.74 938.716,1206.68 944.485,1206.62 950.308,1206.56 956.183,1206.5 962.107,1206.44 968.079,1206.37 974.095,1206.31 980.155,1206.25 986.255,1206.19 992.393,1206.14 998.567,1206.08 1004.77,1206.02 1011.01,1205.96 1017.28,1205.91 1023.57,1205.86 1029.89,1205.81 1036.23,1205.76 1042.59,1205.71 1048.96,1205.66 1055.35,1205.62 1061.75,1205.57 1068.15,1205.53 1074.57,1205.5 1080.98,1205.46 1087.4,1205.43 1093.82,1205.4 1100.23,1205.37 1106.64,1205.35 1113.03,1205.33 1119.42,1205.31 1125.79,1205.3 1132.14,1205.29 1138.47,1205.29 1144.78,1205.29 1151.07,1205.29 1157.33,1205.29 1163.55,1205.3 1169.75,1205.32 1175.91,1205.33 1182.03,1205.36 1188.11,1205.38 1194.14,1205.41 1200.13,1205.45 1206.08,1205.48 1211.97,1205.53 1217.8,1205.57 1223.59,1205.62 1229.31,1205.67 1234.97,1205.73 1240.57,1205.79 1246.1,1205.85 1251.57,1205.92 1256.96,1205.98 1262.28,1206.06 1267.52,1206.13 1272.69,1206.21 1277.77,1206.28 1282.78,1206.36 1287.7,1206.44 1292.53,1206.53 1297.27,1206.61 1301.92,1206.7 1306.47,1206.78 1310.93,1206.87 1315.3,1206.96 1319.56,1207.04 1323.72,1207.13 1327.77,1207.22 1331.72,1207.3 1335.56,1207.39 1339.29,1207.47 1342.91,1207.56 1346.42,1207.64 1349.81,1207.72 1353.08,1207.8 1356.23,1207.88 1359.26,1207.96 1362.17,1208.03 1364.96,1208.11 1367.62,1208.18 1370.15,1208.25 1372.55,1208.32 1374.83,1208.38 1376.97,1208.45 1378.98,1208.51 1380.85,1208.57 1382.59,1208.63 1384.19,1208.68 1385.66,1208.74 1386.99,1208.79 1388.17,1208.84 1389.22,1208.89 1390.12,1208.94 1390.88,1208.98 1391.5,1209.02 1391.97,1209.07 1392.3,1209.1 1392.48,1209.14 1392.52,1209.18 1392.41,1209.21 1392.15,1209.25 1391.74,1209.28 1391.18,1209.31 1390.48,1209.34 1389.63,1209.37 1388.62,1209.39 1387.47,1209.42 1386.17,1209.45 1384.72,1209.47 1383.12,1209.49 1381.36,1209.51 1379.46,1209.54 1377.41,1209.56 1375.21,1209.57 1372.87,1209.59 1370.37,1209.61 1367.73,1209.63 1364.93,1209.65 1361.99,1209.66 1358.91,1209.68 1355.68,1209.69 1352.3,1209.71 1348.78,1209.72 1345.12,1209.73 1341.31,1209.74 1337.36,1209.76 1333.27,1209.77 1329.04,1209.78 1324.68,1209.79 1320.17,1209.8 1315.53,1209.81 1310.76,1209.82 1305.85,1209.83 1300.81,1209.84 1295.64,1209.85 1290.35,1209.86 1284.92,1209.87 1279.37,1209.87 1273.7,1209.88 1267.9,1209.89 1261.98,1209.9 1255.95,1209.9 1249.8,1209.91 1243.53,1209.91 1237.16,1209.92 1230.67,1209.93 1224.08,1209.93 1217.38,1209.94 1210.57,1209.94 1203.67,1209.95 1196.67,1209.95 1189.57,1209.96 1182.37,1209.96 1175.09,1209.96 1167.71,1209.97 1160.25,1209.97 1152.71,1209.98 1145.09,1209.98 1137.38,1209.98 1129.61,1209.98 1121.76,1209.99 1113.84,1209.99 1105.85,1209.99 1097.8,1209.99 1089.69,1210 1081.52,1210 1073.3,1210 1065.02,1210 1056.7,1210 1048.33,1210 1039.92,1210.01 1031.47,1210.01 1022.98,1210.01 1014.46,1210.01 1005.92,1210.01 997.341,1210.01 988.744,1210.01 980.128,1210.01 971.495,1210.01 962.851,1210.01 954.197,1210.01 945.537,1210.01 936.876,1210.01 928.215,1210 919.559,1210 910.912,1210 902.276,1210 893.655,1210 885.053,1210 876.473,1209.99 867.919,1209.99 859.394,1209.99 850.902,1209.99 842.446,1209.98 834.03,1209.98 825.658,1209.98 817.333,1209.97 809.058,1209.97 800.837,1209.97 792.673,1209.96 784.571,1209.96 776.533,1209.95 768.563,1209.95 760.664,1209.94 752.84,1209.94 745.095,1209.93 737.431,1209.93 729.852,1209.92 722.362,1209.92 714.964,1209.91 707.66,1209.9 700.456,1209.9 693.353,1209.89 686.355,1209.88 679.465,1209.88 672.687,1209.87 666.023,1209.86 659.477,1209.85 653.051,1209.84 646.75,1209.83 640.575,1209.82 634.53,1209.81 628.618,1209.8 622.842,1209.79 617.204,1209.78 611.708,1209.77 606.355,1209.76 601.149,1209.75 596.093,1209.73 591.189,1209.72 586.44,1209.71 581.847,1209.69 577.415,1209.68 573.144,1209.66 569.038,1209.65 565.098,1209.63 561.327,1209.61 557.728,1209.59 554.302,1209.58 551.05,1209.56 547.977,1209.54 545.082,1209.52 542.368,1209.5 539.837,1209.47 537.491,1209.45 535.331,1209.43 533.359,1209.4 531.577,1209.38 529.985,1209.35 528.585,1209.32 527.379,1209.29 526.368,1209.26 525.552,1209.23 524.934,1209.2 524.513,1209.16 524.292,1209.13 524.271,1209.09 524.45,1209.05 524.83,1209.01 525.413,1208.97 526.198,1208.93 527.186,1208.88 528.377,1208.84 529.772,1208.79 531.371,1208.73 533.174,1208.68 535.182,1208.62 537.393,1208.57 539.808,1208.5 542.427,1208.44 545.25,1208.37 548.276,1208.3 551.504,1208.23 554.935,1208.15 558.567,1208.07 562.401,1207.98 566.434,1207.89 570.666,1207.8 575.097,1207.7 579.725,1207.59 584.55,1207.48 589.569,1207.37 594.781,1207.25 600.186,1207.12 605.782,1206.98 611.566,1206.84 617.538,1206.69 623.696,1206.54 630.038,1206.37 636.562,1206.19 643.266,1206.01 650.148,1205.81 657.206,1205.61 664.437,1205.39 671.839,1205.16 679.41,1204.92 687.148,1204.66 695.049,1204.39 703.111,1204.1 711.331,1203.79 719.707,1203.47 728.235,1203.13 736.912,1202.77 745.736,1202.39 754.702,1201.98 763.809,1201.56 773.052,1201.1 782.428,1200.62 791.933,1200.11 801.565,1199.58 811.318,1199.01 821.19,1198.41 831.176,1197.77 841.273,1197.1 851.477,1196.39 861.783,1195.63 872.187,1194.84 882.685,1194.01 893.273,1193.12 903.946,1192.19 914.699,1191.21 925.529,1190.18 936.43,1189.1 947.397,1187.96 958.426,1186.77 969.512,1185.52 980.65,1184.21 991.834,1182.84 1003.06,1181.42 1014.32,1179.93 1025.62,1178.38 1036.93,1176.78 1048.27,1175.12 1059.63,1173.4 1070.99,1171.63 1082.36,1169.8 1093.72,1167.93 1105.08,1166.01 1116.42,1164.06 1127.74,1162.07 1139.04,1160.06 1150.3,1158.02 1161.53,1155.98 1172.71,1153.93 1183.85,1151.89 1194.93,1149.86 1205.95,1147.87 1216.9,1145.91 1227.78,1144.01 1238.58,1142.18 1249.3,1140.42 1259.92,1138.76 1270.45,1137.2 1280.88,1135.76 1291.2,1134.46 1301.4,1133.3 1311.49,1132.3 1321.46,1131.46 1331.3,1130.81 1341.01,1130.35 1350.57,1130.08 1360,1130.01 1369.28,1130.15 1378.41,1130.49 1387.38,1131.05 1396.2,1131.81 1404.85,1132.78 1413.34,1133.94 1421.66,1135.3 1429.8,1136.85 1437.77,1138.56 1445.57,1140.44 1453.18,1142.46 1460.61,1144.62 1467.85,1146.89 1474.91,1149.26 1481.77,1151.72 1488.44,1154.24 1494.92,1156.81 1501.21,1159.42 1507.29,1162.04 1513.18,1164.66 1518.87,1167.26 1524.36,1169.84 1529.64,1172.37 1534.72,1174.85 1539.6,1177.26 1544.26,1179.59 1548.72,1181.84 1552.97,1184 1557.01,1186.07 1560.84,1188.03 1564.45,1189.89 1567.85,1191.64 1571.04,1193.29 1574.01,1194.83 1576.76,1196.26 1579.3,1197.6 1581.61,1198.83 1583.71,1199.97 1585.58,1201.01 1587.23,1201.96 1588.66,1202.83 1589.87,1203.62 1590.85,1204.33 1591.6,1204.98 1592.13,1205.56 1592.43,1206.08 1592.5,1206.54 1592.34,1206.96 1591.96,1207.32 1591.34,1207.65 1590.49,1207.94 1589.41,1208.19 1588.11,1208.42 1586.57,1208.61 1584.79,1208.79 1582.79,1208.94 1580.56,1209.07 1578.09,1209.19 1575.39,1209.29 1572.46,1209.38 1569.3,1209.45 1565.91,1209.52 1562.29,1209.58 1558.44,1209.63 1554.37,1209.68 1550.06,1209.72 1545.52,1209.75 1540.76,1209.79 1535.78,1209.81 1530.57,1209.84 1525.13,1209.86 1519.48,1209.88 1513.61,1209.9 1507.51,1209.92 1501.2,1209.94 1494.67,1209.95 1487.93,1209.96 1480.98,1209.98 1473.82,1209.99 1466.45,1210 1458.87,1210.01 1451.09,1210.02 1443.11,1210.03 1434.93,1210.04 1426.55,1210.05 1417.98,1210.05 1409.22,1210.06 1400.27,1210.07 1391.14,1210.08 1381.82,1210.08 1372.32,1210.09 1362.64,1210.09 1352.8,1210.1 1342.78,1210.11 1332.59,1210.11 1322.24,1210.12 1311.74,1210.12 1301.07,1210.13 1290.25,1210.13 1279.29,1210.13 1268.18,1210.14 1256.92,1210.14 1245.53,1210.15 1234.01,1210.15 1222.36,1210.15 1210.58,1210.15 1198.68,1210.16 1186.66,1210.16 1174.54,1210.16 1162.3,1210.16 1149.96,1210.17 1137.52,1210.17 1124.99,1210.17 1112.37,1210.17 1099.66,1210.17 1086.88,1210.18 1074.02,1210.18 1061.08,1210.18 1048.09,1210.18 1035.03,1210.18 1021.91,1210.18 1008.75,1210.18 995.539,1210.18 982.289,1210.18 969.003,1210.18 955.687,1210.18 942.346,1210.18 928.986,1210.18 915.611,1210.18 902.227,1210.18 888.84,1210.18 875.454,1210.18 862.075,1210.17 848.709,1210.17 835.36,1210.17 822.035,1210.17 808.738,1210.17 795.476,1210.16 782.253,1210.16 769.074,1210.16 755.947,1210.16 742.875,1210.15 729.865,1210.15 716.922,1210.15 704.051,1210.14 691.257,1210.14 678.547,1210.14 665.925,1210.13 653.398,1210.13 640.97,1210.12 628.647,1210.12 616.433,1210.11 604.336,1210.11 592.359,1210.1 580.508,1210.1 568.789,1210.09 557.206,1210.09 545.765,1210.08 534.47,1210.07 523.328,1210.07 512.343,1210.06 501.52,1210.05 490.863,1210.04 480.379,1210.03 470.072,1210.03 459.947,1210.02 450.008,1210.01 440.26,1210 430.708,1209.99 421.357,1209.98 412.211,1209.96 403.274,1209.95 394.551,1209.94 386.047,1209.93 377.765,1209.91 369.71,1209.9 361.885,1209.89 354.296,1209.87 346.946,1209.86 339.838,1209.84 332.977,1209.82 326.367,1209.8 320.01,1209.78 313.911,1209.76 308.073,1209.74 302.5,1209.72 297.194,1209.7 292.159,1209.68 287.398,1209.65 282.913,1209.63 278.709,1209.6 274.787,1209.57 271.151,1209.54 267.802,1209.51 264.744,1209.47 261.979,1209.44 259.508,1209.4 257.335,1209.36 255.461,1209.32 253.887,1209.28 252.617,1209.23 251.652,1209.18 250.992,1209.13 250.641,1209.08 250.598,1209.02 250.865,1208.96 251.444,1208.9 252.335,1208.83 253.539,1208.75 255.057,1208.67 256.889,1208.59 259.036,1208.5 261.499,1208.41 264.277,1208.3 267.371,1208.2 270.78,1208.08 274.504,1207.95 278.544,1207.82 282.898,1207.67 287.566,1207.52 292.547,1207.35 297.841,1207.16 303.446,1206.97 309.362,1206.75 315.587,1206.52 322.119,1206.27 328.958,1205.99 336.101,1205.69 343.547,1205.36 351.293,1205.01 359.338,1204.61 367.679,1204.18 376.313,1203.71 385.24,1203.2 394.454,1202.62 403.954,1202 413.737,1201.3 423.799,1200.53 434.137,1199.68 444.747,1198.73 455.626,1197.68 466.769,1196.52 478.173,1195.21 489.833,1193.76 501.744,1192.14 513.902,1190.32 526.302,1188.29 538.939,1186.01 551.806,1183.45 564.898,1180.57 578.209,1177.34 591.733,1173.69 605.462,1169.59 619.389,1164.96 633.506,1159.74 647.806,1153.85 662.279,1147.2 676.916,1139.68 691.708,1131.2 706.643,1121.63 721.71,1110.83 736.897,1098.65 752.19,1084.93 767.575,1069.5 783.037,1052.17 798.558,1032.74 814.12,1011.01 829.703,986.786 845.287,959.863 860.847,930.061 876.358,897.225 891.793,861.239 907.123,822.046 922.317,779.663 937.34,734.207 952.158,685.912 966.733,635.156 981.027,582.476 994.998,528.584 1008.61,474.369 1021.81,420.891 1034.57,369.362 1046.85,321.103 1058.6,277.491 1069.8,239.891 1080.41,209.572 1090.41,187.628 1099.77,174.898 1108.49,171.901 1116.56,178.797 1123.96,195.373 1130.72,221.056 1136.84,254.96 1142.33,295.949 1147.22,342.715 1151.53,393.866 1155.29,448.001 1158.53,503.784 1161.29,559.995 1163.59,615.573 1165.47,669.632 1166.95,721.469 1168.08,770.558 1168.88,816.539 1169.37,859.194 1169.59,898.426 1169.55,934.239 1169.28,966.711 1168.8,995.981 1168.12,1022.22 1167.27,1045.64 1166.25,1066.45 1165.08,1084.87 1163.76,1101.13 1162.32,1115.43 1160.76,1127.97 1159.09,1138.95 1157.32,1148.53 1155.44,1156.88 1153.47,1164.14 1151.42,1170.45 1149.28,1175.92 1147.06,1180.65 1144.76,1184.74 1142.39,1188.28 1139.96,1191.32 1137.45,1193.95 1134.88,1196.21 1132.25,1198.15 1129.56,1199.82 1126.81,1201.25 1124,1202.48 1121.14,1203.54 1118.22,1204.44 1115.26,1205.21 1112.24,1205.87 1109.17,1206.44 1106.06,1206.92 1102.89,1207.33 1099.69,1207.68 1096.44,1207.98 1093.15,1208.24 1089.81,1208.46 1086.44,1208.64 1083.03,1208.8 1079.58,1208.94 1076.1,1209.05 1072.58,1209.15 1069.02,1209.23 1065.44,1209.3 1061.83,1209.36 1058.18,1209.42 1054.51,1209.46 1050.82,1209.5 1047.1,1209.53 1043.35,1209.56 1039.58,1209.58 1035.8,1209.6 1031.99,1209.61 1028.16,1209.63 1024.32,1209.64 1020.47,1209.65 1016.6,1209.66 1012.72,1209.67 1008.83,1209.67 1004.93,1209.68 1001.02,1209.68 997.109,1209.68 993.193,1209.69 989.274,1209.69 985.354,1209.69 981.435,1209.69 977.518,1209.69 973.604,1209.69 969.696,1209.69 965.795,1209.69 961.903,1209.69 958.02,1209.69 954.149,1209.69 950.292,1209.69 946.449,1209.69 942.623,1209.68 938.815,1209.68 935.027,1209.68 931.26,1209.68 927.516,1209.68 923.796,1209.67 920.103,1209.67 916.437,1209.67 912.8,1209.66 909.194,1209.66 905.621,1209.66 902.081,1209.65 898.577,1209.65 895.11,1209.64 891.681,1209.64 888.293,1209.63 884.946,1209.63 881.642,1209.63 878.383,1209.62 875.17,1209.61 872.004,1209.61 868.888,1209.6 865.821,1209.6 862.807,1209.59 859.846,1209.59 856.94,1209.58 854.09,1209.57 851.297,1209.57 848.563,1209.56 845.889,1209.55 843.276,1209.54 840.726,1209.54 838.24,1209.53 835.819,1209.52 833.465,1209.51 831.178,1209.5 828.961,1209.49 826.813,1209.49 824.736,1209.48 822.731,1209.47 820.8,1209.46 818.943,1209.45 817.162,1209.44 815.457,1209.43 813.829,1209.42 812.28,1209.4 810.81,1209.39 809.42,1209.38 808.111,1209.37 806.884,1209.36 805.74,1209.35 804.68,1209.33 803.703,1209.32 802.812,1209.31 802.006,1209.29 801.287,1209.28 800.654,1209.26 800.109,1209.25 799.652,1209.23 799.284,1209.22 799.004,1209.2 798.815,1209.19 798.715,1209.17 798.706,1209.15 798.787,1209.14 798.96,1209.12 799.224,1209.1 799.579,1209.08 800.027,1209.07 800.566,1209.05 801.197,1209.03 801.921,1209.01 802.737,1208.99 803.645,1208.97 804.646,1208.95 805.738,1208.92 806.923,1208.9 808.2,1208.88 809.569,1208.86 811.03,1208.83 812.582,1208.81 814.226,1208.79 815.96,1208.76 817.785,1208.74 819.7,1208.71 821.705,1208.69 823.799,1208.66 825.982,1208.63 828.253,1208.61 830.612,1208.58 833.058,1208.55 835.591,1208.52 838.209,1208.49 840.912,1208.46 843.699,1208.43 846.57,1208.4 849.524,1208.37 852.559,1208.34 855.675,1208.31 858.871,1208.28 862.146,1208.25 865.499,1208.21 868.928,1208.18 872.434,1208.15 876.014,1208.11 879.667,1208.08 883.393,1208.05 887.19,1208.01 891.057,1207.98 894.992,1207.94 898.995,1207.91 903.063,1207.87 907.195,1207.84 911.391,1207.8 915.648,1207.76 919.966,1207.73 924.342,1207.69 928.775,1207.66 933.263,1207.62 937.806,1207.58 942.4,1207.55 947.045,1207.51 951.739,1207.48 956.48,1207.44 961.267,1207.41 966.098,1207.37 970.97,1207.34 975.882,1207.31 980.833,1207.27 985.82,1207.24 990.842,1207.21 995.896,1207.18 1000.98,1207.15 1006.1,1207.12 1011.24,1207.09 1016.4,1207.06 1021.59,1207.03 1026.8,1207.01 1032.03,1206.98 1037.27,1206.96 1042.53,1206.94 1047.81,1206.92 1053.09,1206.9 1058.38,1206.88 1063.68,1206.86 1068.98,1206.85 1074.29,1206.84 1079.59,1206.83 1084.9,1206.82 1090.2,1206.81 1095.49,1206.8 1100.77,1206.8 1106.05,1206.8 1111.31,1206.8 1116.55,1206.8 1121.78,1206.8 1126.99,1206.81 1132.18,1206.81 1137.34,1206.82 1142.48,1206.83 1147.59,1206.85 1152.68,1206.86 1157.72,1206.88 1162.74,1206.9 1167.72,1206.92 1172.66,1206.95 1177.56,1206.97 1182.41,1207 1187.22,1207.03 1191.99,1207.06 1196.7,1207.09 1201.37,1207.13 1205.98,1207.16 1210.53,1207.2 1215.03,1207.24 1219.47,1207.28 1223.85,1207.32 1228.16,1207.36 1232.41,1207.41 1236.59,1207.45 1240.71,1207.5 1244.75,1207.54 1248.72,1207.59 1252.61,1207.64 1256.43,1207.69 1260.17,1207.74 1263.83,1207.79 1267.41,1207.83 1270.9,1207.88 1274.31,1207.93 1277.63,1207.98 1280.87,1208.03 1284.01,1208.08 1287.06,1208.13 1290.02,1208.18 1292.88,1208.23 1295.65,1208.27 1298.32,1208.32 1300.89,1208.37 1303.36,1208.41 1305.73,1208.46 1307.99,1208.5 1310.15,1208.55 1312.2,1208.59 1314.15,1208.63 1315.98,1208.68 1317.71,1208.72 1319.33,1208.76 1320.84,1208.79 1322.23,1208.83 1323.51,1208.87 1324.67,1208.9 1325.72,1208.94 1326.65,1208.97 1327.47,1209.01 1328.17,1209.04 1328.75,1209.07 1329.21,1209.1 1329.55,1209.13 1329.77,1209.16 1329.86,1209.19 1329.84,1209.21 1329.69,1209.24 1329.43,1209.26 1329.03,1209.29 1328.52,1209.31 1327.88,1209.34 1327.12,1209.36 1326.23,1209.38 1325.22,1209.4 1324.09,1209.42 1322.83,1209.44 1321.45,1209.46 1319.94,1209.48 1318.31,1209.5 1316.56,1209.51 1314.68,1209.53 1312.68,1209.55 1310.55,1209.56 1308.31,1209.58 1305.94,1209.59 1303.45,1209.61 1300.83,1209.62 1298.1,1209.63 1295.25,1209.64 1292.28,1209.66 1289.19,1209.67 1285.98,1209.68 1282.65,1209.69 1279.21,1209.7 1275.65,1209.71 1271.98,1209.72 1268.2,1209.73 1264.3,1209.74 1260.29,1209.75 1256.18,1209.76 1251.95,1209.77 1247.62,1209.78 1243.18,1209.79 1238.63,1209.79 1233.98,1209.8 1229.23,1209.81 1224.38,1209.82 1219.43,1209.82 1214.39,1209.83 1209.24,1209.84 1204.01,1209.84 1198.68,1209.85 1193.26,1209.85 1187.75,1209.86 1182.16,1209.86 1176.48,1209.87 1170.72,1209.87 1164.88,1209.88 1158.95,1209.88 1152.96,1209.89 1146.88,1209.89 1140.74,1209.89 1134.52,1209.9 1128.23,1209.9 1121.88,1209.9 1115.47,1209.91 1108.99,1209.91 1102.46,1209.91 1095.87,1209.92 1089.22,1209.92 1082.52,1209.92 1075.78,1209.92 1068.98,1209.92 1062.14,1209.93 1055.26,1209.93 1048.34,1209.93 1041.39,1209.93 1034.4,1209.93 1027.38,1209.93 1020.33,1209.93 1013.25,1209.93 1006.16,1209.93 999.038,1209.93 991.902,1209.93 984.751,1209.93 977.588,1209.93 970.416,1209.93 963.238,1209.93 956.057,1209.93 948.874,1209.93 941.694,1209.93 934.52,1209.93 927.353,1209.93 920.197,1209.92 913.056,1209.92 905.931,1209.92 898.826,1209.92 891.743,1209.92 884.686,1209.91 877.658,1209.91 870.661,1209.91 863.698,1209.91 856.773,1209.9 849.887,1209.9 843.045,1209.9 836.249,1209.89 829.502,1209.89 822.807,1209.88 816.167,1209.88 809.584,1209.88 803.062,1209.87 796.603,1209.87 790.21,1209.86 783.887,1209.85 777.635,1209.85 771.457,1209.84 765.357,1209.84 759.338,1209.83 753.401,1209.82 747.549,1209.82 741.786,1209.81 736.114,1209.8 730.535,1209.8 725.052,1209.79 719.669,1209.78 714.386,1209.77 709.207,1209.76 704.135,1209.75 699.171,1209.74 694.318,1209.73 689.579,1209.72 684.956,1209.71 680.451,1209.7 676.066,1209.69 671.804,1209.68 667.667,1209.67 663.657,1209.65 659.777,1209.64 656.027,1209.63 652.411,1209.61 648.929,1209.6 645.585,1209.59 642.38,1209.57 639.316,1209.55 636.395,1209.54 633.617,1209.52 630.986,1209.5 628.503,1209.49 626.169,1209.47 623.985,1209.45 621.954,1209.43 620.076,1209.41 618.354,1209.39 616.787,1209.37 615.379,1209.34 614.129,1209.32 613.039,1209.29 612.109,1209.27 611.342,1209.24 610.738,1209.22 610.297,1209.19 610.021,1209.16 609.91,1209.13 609.965,1209.1 610.186,1209.07 610.575,1209.03 611.132,1209 611.856,1208.96 612.749,1208.93 613.811,1208.89 615.042,1208.85 616.442,1208.81 618.011,1208.76 619.749,1208.72 621.657,1208.67 623.733,1208.63 625.979,1208.58 628.393,1208.53 630.975,1208.47 633.725,1208.42 636.643,1208.36 639.728,1208.3 642.979,1208.24 646.396,1208.17 649.977,1208.1 653.723,1208.03 657.632,1207.96 661.703,1207.88 665.935,1207.81 670.327,1207.72 674.879,1207.64 679.588,1207.55 684.453,1207.46 689.473,1207.36 694.647,1207.26 699.973,1207.16 705.449,1207.05 711.074,1206.93 716.846,1206.82 722.764,1206.69 728.824,1206.57 735.027,1206.43 741.368,1206.3 747.847,1206.15 754.461,1206 761.208,1205.85 768.086,1205.68 775.093,1205.51 782.225,1205.34 789.481,1205.16 796.858,1204.96 804.353,1204.77 811.964,1204.56 819.689,1204.35 827.523,1204.13 835.465,1203.9 843.512,1203.66 851.66,1203.41 859.906,1203.15 868.248,1202.88 876.683,1202.61 885.207,1202.32 893.816,1202.03 902.508,1201.72 911.28,1201.41 920.128,1201.08 929.047,1200.75 938.036,1200.4 947.091,1200.05 956.207,1199.68 965.381,1199.31 974.61,1198.92 983.89,1198.53 993.216,1198.13 1002.59,1197.72 1012,1197.3 1021.44,1196.88 1030.92,1196.45 1040.42,1196.01 1049.95,1195.57 1059.5,1195.13 1069.06,1194.68 1078.63,1194.23 1088.21,1193.78 1097.8,1193.34 1107.38,1192.89 1116.96,1192.45 1126.54,1192.02 1136.09,1191.59 1145.63,1191.18 1155.15,1190.77 1164.65,1190.38 1174.11,1190 1183.54,1189.64 1192.93,1189.3 1202.28,1188.98 1211.59,1188.69 1220.84,1188.42 1230.04,1188.18 1239.18,1187.97 1248.26,1187.78 1257.27,1187.64 1266.21,1187.52 1275.07,1187.44 1283.86,1187.4 1292.57,1187.4 1301.19,1187.44 1309.72,1187.51 1318.15,1187.63 1326.49,1187.79 1334.73,1187.98 1342.86,1188.22 1350.89,1188.49 1358.8,1188.81 1366.6,1189.16 1374.28,1189.54 1381.84,1189.96 1389.28,1190.41 1396.58,1190.89 1403.76,1191.4 1410.8,1191.93 1417.71,1192.49 1424.47,1193.06 1431.09,1193.65 1437.57,1194.26 1443.89,1194.87 1450.07,1195.5 1456.09,1196.12 1461.95,1196.75 1467.66,1197.38 1473.2,1198.01 1478.58,1198.63 1483.79,1199.24 1488.83,1199.84 1493.7,1200.42 1498.4,1201 1502.92,1201.55 1507.26,1202.09 1511.42,1202.61 1515.4,1203.11 1519.2,1203.58 1522.81,1204.04 1526.23,1204.47 1529.46,1204.88 1532.5,1205.27 1535.34,1205.64 1537.99,1205.98 1540.45,1206.3 1542.7,1206.6 1544.76,1206.88 1546.61,1207.14 1548.26,1207.38 1549.71,1207.61 1550.95,1207.81 1551.98,1208 1552.81,1208.18 1553.43,1208.33 1553.83,1208.48 1554.03,1208.61 1554.02,1208.74 1553.79,1208.85 1553.35,1208.95 1552.7,1209.04 1551.83,1209.12 1550.75,1209.2 1549.46,1209.27 1547.94,1209.33 1546.22,1209.39 1544.27,1209.44 1542.12,1209.49 1539.74,1209.53 1537.15,1209.57 1534.35,1209.61 1531.33,1209.64 1528.09,1209.67 1524.65,1209.7 1520.98,1209.73 1517.11,1209.75 1513.02,1209.77 1508.72,1209.79 1504.21,1209.81 1499.49,1209.83 1494.57,1209.85 1489.43,1209.86 1484.09,1209.88 1478.54,1209.89 1472.79,1209.91 1466.84,1209.92 1460.69,1209.93 1454.34,1209.94 1447.79,1209.96 1441.05,1209.97 1434.11,1209.98 1426.98,1209.99 1419.67,1209.99 1412.17,1210 1404.48,1210.01 1396.61,1210.02 1388.56,1210.03 1380.33,1210.04 1371.93,1210.04 1363.35,1210.05 1354.61,1210.06 1345.7,1210.06 1336.63,1210.07 1327.39,1210.07 1318,1210.08 1308.46,1210.08 1298.76,1210.09 1288.91,1210.09 1278.92,1210.1 1268.79,1210.1 1258.52,1210.11 1248.12,1210.11 1237.59,1210.11 1226.93,1210.12 1216.15,1210.12 1205.24,1210.12 1194.23,1210.13 1183.1,1210.13 1171.86,1210.13 1160.52,1210.14 1149.09,1210.14 1137.55,1210.14 1125.93,1210.14 1114.22,1210.14 1102.43,1210.15 1090.56,1210.15 1078.62,1210.15 1066.61,1210.15 1054.53,1210.15 1042.4,1210.15 1030.21,1210.15 1017.97,1210.15 1005.68,1210.15 993.356,1210.15 980.994,1210.15 968.601,1210.15 956.181,1210.15 943.74,1210.15 931.282,1210.15 918.813,1210.15 906.337,1210.15 893.859,1210.15 881.384,1210.15 868.918,1210.15 856.465,1210.14 844.03,1210.14 831.619,1210.14 819.236,1210.14 806.887,1210.14 794.576,1210.13 782.309,1210.13 770.091,1210.13 757.927,1210.13 745.822,1210.12 733.781,1210.12 721.808,1210.12 709.911,1210.11 698.092,1210.11 686.358,1210.1 674.713,1210.1 663.163,1210.1 651.712,1210.09 640.365,1210.09 629.128,1210.08 618.005,1210.07 607.001,1210.07 596.121,1210.06 585.37,1210.06 574.753,1210.05 564.275,1210.04 553.94,1210.04 543.753,1210.03 533.718,1210.02 523.841,1210.01 514.126,1210 504.577,1210 495.199,1209.99 485.996,1209.98 476.973,1209.97 468.135,1209.96 459.484,1209.95 451.026,1209.93 442.765,1209.92 434.705,1209.91 426.85,1209.9 419.203,1209.88 411.769,1209.87 404.551,1209.86 397.554,1209.84 390.781,1209.82 384.235,1209.81 377.92,1209.79 371.84,1209.77 365.998,1209.75 360.397,1209.73 355.04,1209.71 349.931,1209.69 345.072,1209.67 340.467,1209.65 336.118,1209.62 332.028,1209.6 328.2,1209.57 324.636,1209.54 321.338,1209.51 318.31,1209.48 315.553,1209.45 313.07,1209.42 310.862,1209.38 308.932,1209.34 307.282,1209.3 305.913,1209.26 304.826,1209.22 304.024,1209.17 303.508,1209.12 303.279,1209.07 303.338,1209.02 303.687,1208.96 304.326,1208.9 305.256,1208.83 306.479,1208.76 307.994,1208.69 309.803,1208.61 311.905,1208.53 314.301,1208.44 316.991,1208.35 319.975,1208.25 323.253,1208.15 326.826,1208.03 330.691,1207.91 334.85,1207.78 339.301,1207.64 344.044,1207.49 349.078,1207.33 354.402,1207.16 360.014,1206.97 365.915,1206.77 372.102,1206.55 378.574,1206.32 385.329,1206.06 392.365,1205.79 399.682,1205.49 407.276,1205.16 415.145,1204.81 423.288,1204.43 431.702,1204.01 440.384,1203.55 449.332,1203.05 458.542,1202.5 468.013,1201.9 477.74,1201.24 487.72,1200.51 497.95,1199.72 508.427,1198.84 519.146,1197.87 530.104,1196.8 541.297,1195.62 552.719,1194.31 564.368,1192.86 576.237,1191.25 588.323,1189.47 600.619,1187.49 613.121,1185.29 625.824,1182.84 638.721,1180.11 651.806,1177.07 665.072,1173.68 678.514,1169.91 692.124,1165.69 705.894,1160.99 719.817,1155.75 733.884,1149.9 748.086,1143.38 762.415,1136.1 776.861,1128 791.412,1118.97 806.059,1108.93 820.788,1097.78 835.587,1085.4 850.444,1071.7 865.343,1056.55 880.269,1039.86 895.206,1021.5 910.135,1001.39 925.039,979.444 939.897,955.585 954.688,929.778 969.39,902.018 983.979,872.341 998.429,840.841 1012.71,807.671 1026.81,773.057 1040.68,737.306 1054.3,700.808 1067.65,664.043 1080.68,627.572 1093.38,592.035 1105.71,558.133 1117.65,526.605 1129.16,498.206 1140.23,473.671 1150.83,453.68 1160.94,438.819 1170.56,429.554 1179.66,426.195 1188.24,428.88 1196.29,437.563 1203.82,452.02 1210.83,471.86 1217.32,496.545 1223.32,525.429 1228.82,557.784 1233.86,592.843 1238.44,629.834 1242.58,668.009 1246.32,706.672 1249.66,745.198 1252.63,783.045 1255.25,819.76 1257.54,854.982 1259.53,888.436 1261.22,919.926 1262.65,949.331 1263.82,976.59 1264.75,1001.69 1265.46,1024.67 1265.95,1045.6 1266.25,1064.56 1266.36,1081.66 1266.3,1097.02 1266.07,1110.76 1265.67,1123.02 1265.13,1133.91 1264.44,1143.57 1263.61,1152.1 1262.64,1159.62 1261.54,1166.24 1260.32,1172.04 1258.97,1177.12 1257.51,1181.56 1255.92,1185.43 1254.23,1188.79 1252.42,1191.72 1250.5,1194.26 1248.48,1196.45 1246.35,1198.35 1244.12,1199.99 1241.78,1201.41 1239.34,1202.62 1236.8,1203.67 1234.17,1204.57 1231.44,1205.34 1228.61,1206 1225.68,1206.56 1222.67,1207.04 1219.56,1207.46 1216.35,1207.81 1213.06,1208.11 1209.68,1208.36 1206.21,1208.58 1202.66,1208.77 1199.01,1208.92 1195.29,1209.06 1191.48,1209.17 1187.59,1209.27 1183.62,1209.35 1179.57,1209.42 1175.44,1209.48 1171.23,1209.53 1166.95,1209.57 1162.6,1209.61 1158.17,1209.64 1153.67,1209.67 1149.11,1209.69 1144.47,1209.71 1139.77,1209.73 1135.01,1209.74 1130.18,1209.76 1125.29,1209.77 1120.35,1209.78 1115.34,1209.79 1110.28,1209.79 1105.17,1209.8 1100,1209.81 1094.78,1209.81 1089.52,1209.82 1084.2,1209.82 1078.85,1209.83 1073.45,1209.83 1068.01,1209.83 1062.53,1209.83 1057.02,1209.84 1051.47,1209.84 1045.89,1209.84 1040.27,1209.84 1034.63,1209.84 1028.97,1209.85 1023.28,1209.85 1017.57,1209.85 1011.84,1209.85 1006.09,1209.85 1000.33,1209.85 994.552,1209.85 988.766,1209.85 982.972,1209.85 977.172,1209.85 971.369,1209.85 965.565,1209.85 959.761,1209.85 953.961,1209.84 948.167,1209.84 942.381,1209.84 936.605,1209.84 930.842,1209.84 925.094,1209.84 919.364,1209.83 913.653,1209.83 907.965,1209.83 902.302,1209.83 896.665,1209.82 891.058,1209.82 885.482,1209.82 879.941,1209.82 874.436,1209.81 868.97,1209.81 863.544,1209.8 858.163,1209.8 852.827,1209.8 847.539,1209.79 842.302,1209.79 837.117,1209.78 831.987,1209.78 826.915,1209.77 821.902,1209.77 816.951,1209.76 812.064,1209.76 807.243,1209.75 802.491,1209.74 797.809,1209.74 793.2,1209.73 788.666,1209.72 784.208,1209.72 779.83,1209.71 775.533,1209.7 771.319,1209.69 767.191,1209.68 763.149,1209.67 759.197,1209.67 755.336,1209.66 751.567,1209.65 747.894,1209.64 744.317,1209.63 740.839,1209.62 737.462,1209.61 734.186,1209.6 731.014,1209.58 727.948,1209.57 724.988,1209.56 722.138,1209.55 719.397,1209.53 716.769,1209.52 714.254,1209.51 711.853,1209.49 709.569,1209.48 707.402,1209.46 705.355,1209.45 703.427,1209.43 701.621,1209.42 699.937,1209.4 698.377,1209.38 696.942,1209.36 695.633,1209.35 694.451,1209.33 693.397,1209.31 692.472,1209.29 691.676,1209.27 691.011,1209.25 690.478,1209.22 690.076,1209.2 689.807,1209.18 689.672,1209.15 689.67,1209.13 689.803,1209.1 690.071,1209.08 690.474,1209.05 691.013,1209.02 691.688,1208.99 692.499,1208.96 693.447,1208.93 694.531,1208.9 695.752,1208.87 697.109,1208.84 698.604,1208.8 700.235,1208.77 702.003,1208.73 703.907,1208.69 705.947,1208.66 708.123,1208.62 710.434,1208.57 712.88,1208.53 715.461,1208.49 718.176,1208.44 721.025,1208.4 724.006,1208.35 727.12,1208.3 730.365,1208.25 733.74,1208.2 737.246,1208.15 740.88,1208.09 744.642,1208.03 748.53,1207.98 752.545,1207.92 756.684,1207.85 760.946,1207.79 765.331,1207.72 769.836,1207.66 774.461,1207.59 779.204,1207.52 784.064,1207.44 789.038,1207.37 794.126,1207.29 799.326,1207.21 804.636,1207.13 810.054,1207.05 815.579,1206.96 821.209,1206.87 826.941,1206.78 832.775,1206.69 838.707,1206.59 844.736,1206.5 850.861,1206.4 857.077,1206.29 863.385,1206.19 869.78,1206.08 876.262,1205.98 882.827,1205.87 889.474,1205.75 896.199,1205.64 903.001,1205.52 909.876,1205.4 916.824,1205.28 923.84,1205.16 930.922,1205.03 938.067,1204.91 945.274,1204.78 952.539,1204.65 959.859,1204.52 967.232,1204.39 974.654,1204.26 982.124,1204.13 989.637,1203.99 997.192,1203.86 1004.78,1203.73 1012.41,1203.6 1020.07,1203.47 1027.76,1203.34 1035.48,1203.21 1043.21,1203.08 1050.97,1202.96 1058.75,1202.84 1066.54,1202.72 1074.34,1202.6 1082.14,1202.49 1089.95,1202.38 1097.77,1202.28 1105.58,1202.18 1113.38,1202.08 1121.18,1202 1128.96,1201.92 1136.73,1201.84 1144.48,1201.77 1152.21,1201.71 1159.92,1201.66 1167.59,1201.61 1175.24,1201.58 1182.85,1201.55 1190.43,1201.53 1197.96,1201.52 1205.45,1201.52 1212.89,1201.54 1220.29,1201.56 1227.63,1201.59 1234.91,1201.63 1242.13,1201.68 1249.29,1201.74 1256.39,1201.81 1263.41,1201.89 1270.37,1201.98 1277.25,1202.08 1284.05,1202.19 1290.77,1202.31 1297.4,1202.44 1303.95,1202.57 1310.41,1202.71 1316.78,1202.86 1323.05,1203.02 1329.22,1203.18 1335.3,1203.35 1341.27,1203.53 1347.13,1203.7 1352.88,1203.89 1358.53,1204.07 1364.05,1204.26 1369.47,1204.45 1374.76,1204.64 1379.93,1204.83 1384.98,1205.02 1389.9,1205.21 1394.69,1205.4 1399.35,1205.59 1403.87,1205.78 1408.26,1205.96 1412.51,1206.14 1416.63,1206.31 1420.6,1206.49 1424.42,1206.65 1428.1,1206.82 1431.63,1206.97 1435.01,1207.13 1438.24,1207.28 1441.32,1207.42 1444.24,1207.56 1447,1207.69 1449.6,1207.81 1452.05,1207.93 1454.33,1208.05 1456.45,1208.16 1458.4,1208.26 1460.18,1208.36 1461.8,1208.45 1463.25,1208.54 1464.53,1208.63 1465.64,1208.71 1466.58,1208.78 1467.34,1208.85 1467.93,1208.92 1468.34,1208.98 1468.58,1209.04 1468.64,1209.1 1468.52,1209.15 1468.22,1209.2 1467.75,1209.24 1467.09,1209.29 1466.26,1209.33 1465.25,1209.37 1464.05,1209.4 1462.68,1209.44 1461.13,1209.47 1459.39,1209.5 1457.47,1209.53 1455.38,1209.55 1453.1,1209.58 1450.64,1209.6 1448,1209.63 1445.19,1209.65 1442.19,1209.67 1439.01,1209.69 1435.66,1209.71 1432.13,1209.73 1428.42,1209.74 1424.53,1209.76 1420.47,1209.78 1416.24,1209.79 1411.83,1209.8 1407.25,1209.82 1402.5,1209.83 1397.58,1209.84 1392.49,1209.86 1387.24,1209.87 1381.81,1209.88 1376.23,1209.89 1370.48,1209.9 1364.57,1209.91 1358.5,1209.92 1352.27,1209.93 1345.89,1209.93 1339.36,1209.94 1332.67,1209.95 1325.83,1209.96 1318.85,1209.97 1311.72,1209.97 1304.45,1209.98 1297.03,1209.99 1289.48,1209.99 1281.8,1210 1273.98,1210 1266.03,1210.01 1257.95,1210.01 1249.75,1210.02 1241.42,1210.02 1232.98,1210.03 1224.42,1210.03 1215.74,1210.04 1206.95,1210.04 1198.06,1210.05 1189.06,1210.05 1179.97,1210.05 1170.77,1210.06 1161.48,1210.06 1152.1,1210.06 1142.62,1210.06 1133.07,1210.07 1123.43,1210.07 1113.72,1210.07 1103.93,1210.07 1094.08,1210.07 1084.15,1210.08 1074.17,1210.08 1064.12,1210.08 1054.02,1210.08 1043.87,1210.08 1033.67,1210.08 1023.42,1210.08 1013.14,1210.08 1002.82,1210.08 992.471,1210.08 982.092,1210.08 971.69,1210.08 961.268,1210.08 950.83,1210.08 940.381,1210.08 929.924,1210.08 919.465,1210.08 909.006,1210.08 898.553,1210.08 888.109,1210.08 877.679,1210.08 867.267,1210.07 856.877,1210.07 846.513,1210.07 836.18,1210.07 825.882,1210.06 815.623,1210.06 805.407,1210.06 795.239,1210.06 785.124,1210.05 775.064,1210.05 765.065,1210.05 755.131,1210.04 745.265,1210.04 735.473,1210.03 725.759,1210.03 716.126,1210.02 706.578,1210.02 697.121,1210.01 687.758,1210.01 678.493,1210 669.331,1210 660.275,1209.99 651.329,1209.98 642.498,1209.98 633.785,1209.97 625.195,1209.96 616.732,1209.96 608.398,1209.95 600.199,1209.94 592.138,1209.93 584.218,1209.92 576.444,1209.91 568.819,1209.9 561.347,1209.89 554.032,1209.88 546.876,1209.87 539.884,1209.86 533.059,1209.85 526.404,1209.84 519.923,1209.83 513.618,1209.81 507.494,1209.8 501.553,1209.78 495.799,1209.77 490.234,1209.75 484.862,1209.74 479.685,1209.72 474.707,1209.7 469.929,1209.69 465.355,1209.67 460.988,1209.65 456.829,1209.63 452.882,1209.61 449.149,1209.59 445.632,1209.56 442.333,1209.54 439.255,1209.51 436.4,1209.49 433.769,1209.46 431.365,1209.43 429.19,1209.4 427.245,1209.37 425.532,1209.34 424.053,1209.31 422.808,1209.27 421.8,1209.24 421.031,1209.2 420.5,1209.16 420.209,1209.11 420.16,1209.07 420.353,1209.02 420.789,1208.97 421.468,1208.92 422.393,1208.87 423.562,1208.81 424.978,1208.75 426.639,1208.69 428.546,1208.62 430.7,1208.55 433.1,1208.48 435.747,1208.4 438.64,1208.32 441.78,1208.23 445.165,1208.14 448.795,1208.04 452.671,1207.94 456.791,1207.83 461.154,1207.71 465.759,1207.59 470.607,1207.46 475.695,1207.32 481.023,1207.17 486.588,1207.01 492.391,1206.84 498.429,1206.66 504.701,1206.47 511.204,1206.27 517.938,1206.05 524.901,1205.81 532.089,1205.56 539.502,1205.29 547.137,1205.01 554.991,1204.7 563.062,1204.36 571.348,1204.01 579.846,1203.62 588.553,1203.21 597.466,1202.76 606.582,1202.28 615.898,1201.76 625.41,1201.2 635.116,1200.59 645.012,1199.94 655.094,1199.23 665.359,1198.47 675.802,1197.64 686.419,1196.74 697.207,1195.77 708.162,1194.72 719.278,1193.58 730.551,1192.34 741.977,1191 753.551,1189.54 765.268,1187.96 777.122,1186.24 789.109,1184.38 801.223,1182.37 813.458,1180.18 825.809,1177.81 838.269,1175.23 850.833,1172.45 863.493,1169.44 876.244,1166.17 889.079,1162.65 901.99,1158.84 914.97,1154.74 928.012,1150.31 941.108,1145.56 954.25,1140.44 967.429,1134.96 980.638,1129.09 993.866,1122.83 1007.11,1116.15 1020.35,1109.05 1033.58,1101.53 1046.79,1093.58 1059.98,1085.21 1073.12,1076.42 1086.22,1067.24 1099.25,1057.69 1112.21,1047.8 1125.08,1037.61 1137.86,1027.18 1150.53,1016.56 1163.08,1005.82 1175.49,995.052 1187.76,984.342 1199.86,973.791 1211.8,963.508 1223.56,953.608 1235.12,944.211 1246.47,935.439 1257.61,927.414 1268.53,920.254 1279.2,914.072 1289.63,908.971 1299.81,905.04 1309.72,902.355 1319.36,900.973 1328.74,900.931 1337.83,902.244 1346.64,904.907 1355.16,908.892 1363.39,914.149 1371.34,920.608 1378.99,928.183 1386.36,936.771 1393.44,946.256 1400.23,956.514 1406.74,967.414 1412.97,978.824 1418.92,990.611 1424.6,1002.64 1430.02,1014.8 1435.16,1026.97 1440.05,1039.03 1444.69,1050.9 1449.08,1062.49 1453.22,1073.72 1457.12,1084.54 1460.78,1094.9 1464.21,1104.75 1467.42,1114.08 1470.39,1122.86 1473.15,1131.09 1475.69,1138.76 1478.01,1145.87 1480.13,1152.45 1482.03,1158.5 1483.72,1164.04 1485.21,1169.1 1486.5,1173.7 1487.58,1177.87 1488.46,1181.64 1489.15,1185.02 1489.63,1188.06 1489.92,1190.77 1490.01,1193.19 1489.9,1195.34 1489.6,1197.24 1489.1,1198.92 1488.41,1200.39 1487.53,1201.69 1486.45,1202.82 1485.18,1203.81 1483.71,1204.68 1482.05,1205.42 1480.2,1206.07 1478.16,1206.63 1475.93,1207.12 1473.51,1207.53 1470.89,1207.89 1468.09,1208.19 1465.1,1208.46 1461.92,1208.68 1458.55,1208.87 1454.99,1209.03 1451.25,1209.17 1447.32,1209.29 1443.2,1209.39 1438.9,1209.48 1434.42,1209.55 1429.76,1209.61 1424.92,1209.66 1419.9,1209.71 1414.7,1209.75 1409.32,1209.78 1403.77,1209.81 1398.04,1209.84 1392.14,1209.86 1386.08,1209.88 1379.84,1209.9 1373.44,1209.91 1366.87,1209.93 1360.14,1209.94 1353.25,1209.95 1346.2,1209.96 1338.99,1209.97 1331.63,1209.98 1324.12,1209.99 1316.46,1210 1308.65,1210 1300.69,1210.01 1292.6,1210.02 1284.37,1210.02 1276,1210.03 1267.49,1210.03 1258.86,1210.04 1250.1,1210.04 1241.21,1210.05 1232.2,1210.05 1223.08,1210.06 1213.83,1210.06 1204.48,1210.07 1195.02,1210.07 1185.45,1210.07 1175.78,1210.08 1166.01,1210.08 1156.15,1210.08 1146.19,1210.08 1136.15,1210.09 1126.02,1210.09 1115.81,1210.09 1105.53,1210.09 1095.17,1210.09 1084.75,1210.1 1074.26,1210.1 1063.7,1210.1 1053.1,1210.1 1042.43,1210.1 1031.72,1210.1 1020.97,1210.1 1010.17,1210.1 999.335,1210.1 988.469,1210.1 977.574,1210.1 966.656,1210.1 955.718,1210.1 944.764,1210.1 933.8,1210.1 922.829,1210.1 911.855,1210.1 900.883,1210.1 889.918,1210.1 878.964,1210.1 868.025,1210.09 857.106,1210.09 846.211,1210.09 835.345,1210.09 824.512,1210.09 813.716,1210.08 802.962,1210.08 792.256,1210.08 781.6,1210.07 770.999,1210.07 760.459,1210.07 749.983,1210.06 739.576,1210.06 729.242,1210.06 718.986,1210.05 708.812,1210.05 698.725,1210.04 688.729,1210.04 678.828,1210.03 669.026,1210.03 659.329,1210.02 649.74,1210.01 640.264,1210.01 630.905,1210 621.666,1209.99 612.553,1209.99 603.569,1209.98 594.719,1209.97 586.007,1209.96 577.435,1209.96 569.01,1209.95 560.734,1209.94 552.612,1209.93 544.647,1209.92 536.843,1209.91 529.204,1209.9 521.733,1209.89 514.435,1209.88 507.313,1209.86 500.371,1209.85 493.611,1209.84 487.038,1209.83 480.654,1209.81 474.464,1209.8 468.47,1209.78 462.675,1209.77 457.083,1209.75 451.697,1209.73 446.519,1209.72 441.553,1209.7 436.801,1209.68 432.266,1209.66 427.951,1209.64 423.859,1209.62 419.991,1209.59 416.351,1209.57 412.94,1209.55 409.762,1209.52 406.817,1209.49 404.109,1209.46 401.639,1209.44 399.409,1209.4 397.421,1209.37 395.677,1209.34 394.179,1209.3 392.927,1209.27 391.924,1209.23 391.171,1209.19 390.669,1209.14 390.419,1209.1 390.423,1209.05 390.68,1209 391.194,1208.95 391.963,1208.89 392.989,1208.84 394.272,1208.78 395.813,1208.71 397.612,1208.64 399.669,1208.57 401.985,1208.5 404.56,1208.42 407.393,1208.33 410.485,1208.24 413.835,1208.14 417.443,1208.04 421.308,1207.94 425.43,1207.82 429.808,1207.7 434.441,1207.57 439.328,1207.43 444.469,1207.28 449.862,1207.13 455.506,1206.96 461.4,1206.78 467.541,1206.59 473.929,1206.38 480.562,1206.16 487.438,1205.92 494.554,1205.67 501.91,1205.39 509.503,1205.1 517.33,1204.78 525.389,1204.43 533.678,1204.06 542.194,1203.67 550.934,1203.23 559.896,1202.77 569.076,1202.26 578.471,1201.71 588.078,1201.12 597.894,1200.47 607.915,1199.77 618.137,1199.01 628.557,1198.18 639.17,1197.28 649.974,1196.29 660.963,1195.22 672.133,1194.06 683.48,1192.78 694.999,1191.39 706.685,1189.87 718.534,1188.22 730.539,1186.41 742.697,1184.43 755,1182.27 767.445,1179.9 780.024,1177.32 792.731,1174.5 805.561,1171.42 818.506,1168.05 831.559,1164.38 844.715,1160.37 857.964,1156.01 871.3,1151.25 884.714,1146.08 898.199,1140.45 911.745,1134.35 925.343,1127.73 938.984,1120.58 952.658,1112.85 966.356,1104.53 980.065,1095.58 993.775,1085.98 1007.48,1075.73 1021.15,1064.81 1034.79,1053.21 1048.39,1040.95 1061.92,1028.04 1075.38,1014.52 1088.75,1000.43 1102.01,985.834 1115.16,970.811 1128.17,955.458 1141.03,939.894 1153.72,924.254 1166.24,908.693 1178.56,893.384 1190.66,878.512 1202.54,864.278 1214.18,850.886 1225.56,838.546 1236.67,827.465 1247.5,817.838 1258.04,809.848 1268.27,803.654 1278.19,799.389 1287.79,797.152 1297.06,797.006 1305.99,798.974 1314.6,803.037 1322.86,809.138 1330.78,817.18 1338.37,827.031 1345.61,838.529 1352.53,851.487 1359.11,865.701 1365.37,880.953 1371.31,897.02 1376.94,913.683 1382.26,930.727 1387.28,947.947 1392.01,965.155 1396.46,982.181 1400.64,998.875 1404.55,1015.11 1408.2,1030.77 1411.59,1045.77 1414.75,1060.05 1417.66,1073.55 1420.34,1086.25 1422.8,1098.13 1425.04,1109.18 1427.06,1119.41 1428.88,1128.85 1430.48,1137.5 1431.89,1145.42 1433.1,1152.62 1434.11,1159.15 1434.93,1165.06 1435.57,1170.37 1436.02,1175.15 1436.28,1179.42 1436.36,1183.22 1436.26,1186.61 1435.98,1189.61 1435.52,1192.26 1434.88,1194.6 1434.07,1196.66 1433.09,1198.46 1431.93,1200.04 1430.59,1201.41 1429.09,1202.61 1427.41,1203.65 1425.56,1204.55 1423.53,1205.32 1421.34,1205.99 1418.98,1206.57 1416.45,1207.07 1413.76,1207.49 1410.89,1207.86 1407.86,1208.17 1404.66,1208.43 1401.29,1208.66 1397.77,1208.85 1394.07,1209.01 1390.22,1209.15 1386.2,1209.27 1382.03,1209.37 1377.69,1209.46 1373.19,1209.53 1368.54,1209.59 1363.73,1209.64 1358.77,1209.69 1353.65,1209.73 1348.38,1209.76 1342.96,1209.79 1337.4,1209.81 1331.68,1209.84 1325.82,1209.86 1319.82,1209.87 1313.68,1209.89 1307.39,1209.9 1300.97,1209.91 1294.41,1209.92 1287.72,1209.93 1280.9,1209.94 1273.94,1209.95 1266.86,1209.96 1259.66,1209.97 1252.33,1209.97 1244.88,1209.98 1237.32,1209.98 1229.64,1209.99 1221.85,1210 1213.95,1210 1205.94,1210 1197.83,1210.01 1189.62,1210.01 1181.31,1210.02 1172.9,1210.02 1164.4,1210.02 1155.82,1210.03 1147.14,1210.03 1138.38,1210.03 1129.55,1210.04 1120.63,1210.04 1111.65,1210.04 1102.59,1210.04 1093.47,1210.04 1084.28,1210.05 1075.03,1210.05 1065.73,1210.05 1056.37,1210.05 1046.96,1210.05 1037.51,1210.05 1028.02,1210.05 1018.48,1210.05 1008.92,1210.05 999.318,1210.05 989.692,1210.05 980.041,1210.05 970.371,1210.05 960.684,1210.05 950.985,1210.05 941.278,1210.05 931.566,1210.05 921.852,1210.05 912.142,1210.05 902.439,1210.05 892.747,1210.05 883.07,1210.04 873.411,1210.04 863.775,1210.04 854.166,1210.04 844.587,1210.04 835.043,1210.03 825.538,1210.03 816.074,1210.03 806.658,1210.02 797.291,1210.02 787.979,1210.02 778.726,1210.01 769.534,1210.01 760.409,1210.01 751.354,1210 742.373,1210 733.469,1209.99 724.648,1209.99 715.912,1209.98 707.266,1209.98 698.713,1209.97 690.257,1209.97 681.901,1209.96 673.651,1209.95 665.509,1209.95 657.478,1209.94 649.564,1209.93 641.769,1209.92 634.096,1209.92 626.551,1209.91 619.135,1209.9 611.853,1209.89 604.707,1209.88 597.702,1209.87 590.841,1209.86 584.127,1209.85 577.563,1209.84 571.152,1209.83 564.899,1209.82 558.805,1209.8 552.874,1209.79 547.109,1209.78 541.513,1209.77 536.088,1209.75 530.839,1209.74 525.767,1209.72 520.875,1209.71 516.166,1209.69 511.642,1209.67 507.306,1209.65 503.161,1209.64 499.209,1209.62 495.452,1209.6 491.893,1209.58 488.533,1209.56 485.375,1209.53 482.422,1209.51 479.674,1209.49 477.134,1209.46 474.803,1209.43 472.684,1209.41 470.779,1209.38 469.087,1209.35 467.612,1209.32 466.355,1209.29 465.317,1209.25 464.499,1209.22 463.903,1209.18 463.529,1209.14 463.379,1209.1 463.453,1209.06 463.753,1209.01 464.278,1208.97 465.031,1208.92 466.011,1208.87 467.219,1208.82 468.655,1208.76 470.319,1208.7 472.213,1208.64 474.335,1208.57 476.686,1208.51 479.267,1208.44 482.075,1208.36 485.113,1208.28 488.378,1208.2 491.871,1208.11 495.591,1208.02 499.537,1207.92 503.709,1207.81 508.106,1207.7 512.727,1207.59 517.571,1207.47 522.637,1207.34 527.923,1207.2 533.429,1207.05 539.152,1206.9 545.092,1206.74 551.246,1206.56 557.614,1206.38 564.192,1206.18 570.98,1205.97 577.975,1205.75 585.175,1205.51 592.578,1205.26 600.182,1204.99 607.984,1204.7 615.981,1204.39 624.172,1204.06 632.552,1203.71 641.121,1203.34 649.874,1202.93 658.808,1202.5 667.921,1202.04 677.209,1201.55 686.669,1201.02 696.298,1200.45 706.091,1199.84 716.046,1199.19 726.158,1198.49 736.424,1197.74 746.839,1196.94 757.4,1196.07 768.102,1195.14 778.942,1194.14 789.914,1193.07 801.014,1191.92 812.237,1190.69 823.579,1189.36 835.035,1187.94 846.6,1186.42 858.268,1184.79 870.034,1183.04 881.894,1181.16 893.84,1179.16 905.868,1177.02 917.971,1174.73 930.145,1172.29 942.381,1169.68 954.675,1166.91 967.02,1163.97 979.409,1160.84 991.835,1157.52 1004.29,1154.01 1016.77,1150.31 1029.27,1146.41 1041.77,1142.3 1054.28,1138 1066.78,1133.5 1079.26,1128.8 1091.73,1123.92 1104.16,1118.86 1116.55,1113.64 1128.9,1108.27 1141.19,1102.77 1153.41,1097.16 1165.56,1091.47 1177.63,1085.74 1189.61,1079.99 1201.49,1074.27 1213.26,1068.61 1224.91,1063.06 1236.44,1057.66 1247.83,1052.48 1259.08,1047.54 1270.18,1042.92 1281.12,1038.66 1291.9,1034.81 1302.49,1031.41 1312.91,1028.52 1323.14,1026.17 1333.18,1024.4 1343.01,1023.24 1352.64,1022.72 1362.06,1022.84 1371.27,1023.62 1380.25,1025.06 1389.02,1027.14 1397.55,1029.85 1405.86,1033.16 1413.94,1037.05 1421.78,1041.47 1429.39,1046.38 1436.77,1051.72 1443.91,1057.45 1450.81,1063.5 1457.48,1069.82 1463.92,1076.35 1470.12,1083.03 1476.09,1089.8 1481.83,1096.61 1487.33,1103.4 1492.61,1110.13 1497.65,1116.76 1502.47,1123.23 1507.06,1129.53 1511.43,1135.61 1515.57,1141.46 1519.49,1147.05 1523.19,1152.37 1526.67,1157.4 1529.92,1162.14 1532.96,1166.59 1535.78,1170.74 1538.38,1174.6 1540.77,1178.18 1542.94,1181.48 1544.89,1184.5 1546.63,1187.27 1548.15,1189.8 1549.45,1192.09 1550.54,1194.16 1551.41,1196.03 1552.07,1197.71 1552.51,1199.22 1552.74,1200.56 1552.75,1201.76 1552.54,1202.81 1552.12,1203.75 1551.48,1204.57 1550.62,1205.3 1549.55,1205.93 1548.26,1206.49 1546.76,1206.97 1545.04,1207.39 1543.1,1207.75 1540.95,1208.07 1538.58,1208.34 1535.99,1208.57 1533.19,1208.77 1530.17,1208.95 1526.94,1209.1 1523.5,1209.22 1519.84,1209.33 1515.97,1209.43 1511.89,1209.51 1507.59,1209.58 1503.09,1209.63 1498.37,1209.69 1493.45,1209.73 1488.32,1209.77 1482.99,1209.8 1477.45,1209.83 1471.7,1209.86 1465.76,1209.88 1459.62,1209.9 1453.27,1209.92 1446.74,1209.93 1440,1209.95 1433.08,1209.96 1425.96,1209.97 1418.65,1209.99 1411.16,1210 1403.49,1210.01 1395.63,1210.02 1387.59,1210.02 1379.38,1210.03 1370.99,1210.04 1362.43,1210.05 1353.7,1210.05 1344.81,1210.06 1335.75,1210.07 1326.53,1210.07 1317.15,1210.08 1307.62,1210.08 1297.94,1210.09 1288.12,1210.09 1278.14,1210.1 1268.03,1210.1 1257.78,1210.11 1247.4,1210.11 1236.88,1210.11 1226.24,1210.12 1215.48,1210.12 1204.6,1210.12 1193.6,1210.13 1182.49,1210.13 1171.28,1210.13 1159.96,1210.13 1148.55,1210.14 1137.04,1210.14 1125.44,1210.14 1113.75,1210.14 1101.98,1210.14 1090.13,1210.15 1078.22,1210.15 1066.23,1210.15 1054.18,1210.15 1042.07,1210.15 1029.9,1210.15 1017.69,1210.15 1005.43,1210.15 993.125,1210.15 980.788,1210.15 968.42,1210.15 956.026,1210.15 943.611,1210.15 931.179,1210.15 918.736,1210.15 906.286,1210.15 893.835,1210.15 881.387,1210.15 868.947,1210.15 856.521,1210.14 844.113,1210.14 831.729,1210.14 819.373,1210.14 807.051,1210.14 794.767,1210.13 782.527,1210.13 770.336,1210.13 758.199,1210.13 746.121,1210.12 734.107,1210.12 722.162,1210.12 710.291,1210.11 698.5,1210.11 686.792,1210.1 675.175,1210.1 663.651,1210.09 652.227,1210.09 640.907,1210.08 629.696,1210.08 618.599,1210.07 607.622,1210.07 596.768,1210.06 586.043,1210.06 575.452,1210.05 564.999,1210.04 554.689,1210.04 544.527,1210.03 534.518,1210.02 524.666,1210.01 514.975,1210 505.45,1209.99 496.096,1209.99 486.918,1209.98 477.918,1209.97 469.103,1209.96 460.475,1209.94 452.04,1209.93 443.801,1209.92 435.763,1209.91 427.929,1209.9 420.304,1209.88 412.891,1209.87 405.694,1209.85 398.717,1209.84 391.964,1209.82 385.437,1209.81 379.142,1209.79 373.08,1209.77 367.256,1209.75 361.673,1209.73 356.333,1209.71 351.241,1209.69 346.399,1209.67 341.809,1209.65 337.476,1209.62 333.401,1209.6 329.587,1209.57 326.037,1209.54 322.753,1209.51 319.738,1209.48 316.993,1209.45 314.522,1209.42 312.326,1209.38 310.407,1209.34 308.767,1209.3 307.407,1209.26 306.33,1209.22 305.536,1209.17 305.028,1209.12 304.806,1209.07 304.873,1209.02 305.228,1208.96 305.872,1208.9 306.808,1208.83 308.035,1208.76 309.554,1208.69 311.366,1208.61 313.471,1208.53 315.869,1208.44 318.561,1208.35 321.546,1208.25 324.824,1208.15 328.396,1208.03 332.26,1207.91 336.417,1207.78 340.866,1207.64 345.606,1207.49 350.636,1207.33 355.956,1207.16 361.564,1206.97 367.459,1206.77 373.64,1206.56 380.105,1206.32 386.852,1206.07 393.881,1205.8 401.188,1205.5 408.773,1205.17 416.633,1204.82 424.765,1204.44 433.168,1204.02 441.838,1203.57 450.773,1203.07 459.971,1202.52 469.427,1201.93 479.14,1201.27 489.106,1200.55 499.32,1199.76 509.781,1198.89 520.484,1197.92 531.424,1196.86 542.599,1195.69 554.003,1194.39 565.633,1192.95 577.483,1191.36 589.548,1189.59 601.825,1187.63 614.306,1185.45 626.987,1183.03 639.862,1180.33 652.925,1177.32 666.169,1173.97 679.588,1170.24 693.175,1166.08 706.921,1161.43 720.821,1156.26 734.864,1150.48 749.043,1144.04 763.348,1136.87 777.769,1128.87 792.296,1119.98 806.919,1110.08 821.625,1099.09 836.401,1086.9 851.235,1073.41 866.113,1058.5 881.018,1042.07 895.934,1024.01 910.845,1004.23 925.732,982.637 940.574,959.169 955.352,933.785 970.042,906.477 984.622,877.28 999.065,846.28 1013.35,813.625 1027.44,779.532 1041.32,744.294 1054.95,708.291 1068.31,671.983 1081.36,635.918 1094.08,600.716 1106.44,567.059 1118.41,535.672 1129.96,507.294 1141.08,482.649 1151.73,462.412 1161.9,447.169 1171.57,437.391 1180.74,433.401 1189.39,435.353 1197.51,443.226 1205.12,456.819 1212.21,475.769 1218.79,499.566 1224.87,527.587 1230.46,559.127 1235.58,593.437 1240.24,629.758 1244.47,667.35 1248.29,705.522 1251.72,743.649 1254.77,781.185 1257.47,817.671 1259.84,852.738 1261.9,886.102 1263.67,917.56 1265.17,946.979 1266.41,974.289 1267.41,999.473 1268.18,1022.56 1268.74,1043.6 1269.1,1062.69 1269.27,1079.92 1269.26,1095.42 1269.09,1109.3 1268.75,1121.69 1268.25,1132.71 1267.61,1142.48 1266.83,1151.13 1265.91,1158.75 1264.85,1165.46 1263.67,1171.35 1262.37,1176.51 1260.94,1181.02 1259.4,1184.96 1257.74,1188.38 1255.96,1191.36 1254.08,1193.95 1252.09,1196.18 1249.99,1198.12 1247.78,1199.79 1245.47,1201.23 1243.06,1202.47 1240.55,1203.54 1237.94,1204.46 1235.23,1205.24 1232.42,1205.92 1229.51,1206.49 1226.51,1206.99 1223.42,1207.41 1220.23,1207.77 1216.95,1208.07 1213.58,1208.33 1210.12,1208.56 1206.57,1208.75 1202.94,1208.91 1199.21,1209.04 1195.41,1209.16 1191.52,1209.26 1187.55,1209.34 1183.49,1209.41 1179.36,1209.47 1175.15,1209.53 1170.87,1209.57 1166.5,1209.61 1162.07,1209.64 1157.56,1209.67 1152.98,1209.69 1148.33,1209.71 1143.62,1209.73 1138.83,1209.75 1133.99,1209.76 1129.08,1209.77 1124.11,1209.78 1119.08,1209.79 1113.99,1209.8 1108.85,1209.8 1103.65,1209.81 1098.41,1209.82 1093.11,1209.82 1087.76,1209.82 1082.37,1209.83 1076.94,1209.83 1071.46,1209.84 1065.94,1209.84 1060.38,1209.84 1054.79,1209.84 1049.17,1209.84 1043.51,1209.85 1037.82,1209.85 1032.11,1209.85 1026.37,1209.85 1020.61,1209.85 1014.82,1209.85 1009.02,1209.85 1003.2,1209.85 997.37,1209.85 991.526,1209.85 985.672,1209.85 979.811,1209.85 973.945,1209.85 968.077,1209.85 962.209,1209.85 956.342,1209.85 950.481,1209.85 944.626,1209.85 938.78,1209.85 932.946,1209.84 927.126,1209.84 921.323,1209.84 915.538,1209.84 909.775,1209.84 904.035,1209.83 898.321,1209.83 892.635,1209.83 886.98,1209.82 881.359,1209.82 875.773,1209.82 870.225,1209.81 864.717,1209.81 859.251,1209.81 853.831,1209.8 848.458,1209.8 843.135,1209.79 837.864,1209.79 832.648,1209.78 827.488,1209.78 822.386,1209.77 817.347,1209.77 812.37,1209.76 807.46,1209.76 802.617,1209.75 797.844,1209.74 793.144,1209.74 788.519,1209.73 783.97,1209.72 779.5,1209.72 775.111,1209.71 770.804,1209.7 766.583,1209.69 762.449,1209.68 758.404,1209.67 754.45,1209.67 750.589,1209.66 746.823,1209.65 743.154,1209.64 739.583,1209.63 736.113,1209.62 732.745,1209.6 729.481,1209.59 726.323,1209.58 723.272,1209.57 720.33,1209.56 717.499,1209.54 714.78,1209.53 712.175,1209.52 709.685,1209.5 707.312,1209.49 705.057,1209.47 702.921,1209.46 700.907,1209.44 699.014,1209.43 697.244,1209.41 695.599,1209.39 694.08,1209.38 692.688,1209.36 691.423,1209.34 690.287,1209.32 689.281,1209.3 688.406,1209.28 687.662,1209.26 687.05,1209.24 686.572,1209.21 686.228,1209.19 686.017,1209.17 685.943,1209.14 686.003,1209.12 686.2,1209.09 686.534,1209.06 687.004,1209.04 687.612,1209.01 688.358,1208.98 689.241,1208.95 690.263,1208.92 691.422,1208.88 692.72,1208.85 694.156,1208.82 695.731,1208.78 697.443,1208.75 699.294,1208.71 701.282,1208.67 703.408,1208.63 705.671,1208.59 708.07,1208.55 710.606,1208.5 713.278,1208.46 716.085,1208.41 719.027,1208.36 722.103,1208.32 725.312,1208.26 728.653,1208.21 732.127,1208.16 735.731,1208.1 739.464,1208.05 743.327,1207.99 747.317,1207.93 751.434,1207.87 755.676,1207.8 760.042,1207.73 764.532,1207.67 769.143,1207.6 773.873,1207.53 778.723,1207.45 783.69,1207.37 788.772,1207.3 793.968,1207.22 799.277,1207.13 804.696,1207.05 810.224,1206.96 815.858,1206.87 821.598,1206.78 827.441,1206.69 833.385,1206.59 839.428,1206.49 845.568,1206.39 851.803,1206.28 858.13,1206.18 864.548,1206.07 871.055,1205.96 877.647,1205.84 884.322,1205.73 891.079,1205.61 897.914,1205.49 904.825,1205.37 911.81,1205.24 918.865,1205.11 925.989,1204.98 933.179,1204.85 940.432,1204.72 947.744,1204.59 955.115,1204.45 962.54,1204.32 970.017,1204.18 977.542,1204.04 985.114,1203.9 992.729,1203.76 1000.38,1203.62 1008.08,1203.48 1015.8,1203.35 1023.56,1203.21 1031.34,1203.07 1039.15,1202.94 1046.99,1202.8 1054.84,1202.67 1062.7,1202.54 1070.58,1202.42 1078.47,1202.3 1086.36,1202.18 1094.26,1202.06 1102.15,1201.96 1110.05,1201.85 1117.93,1201.75 1125.81,1201.66 1133.67,1201.58 1141.51,1201.5 1149.33,1201.43 1157.14,1201.37 1164.91,1201.31 1172.65,1201.27 1180.37,1201.23 1188.04,1201.2 1195.68,1201.18 1203.27,1201.18 1210.82,1201.18 1218.32,1201.19 1225.76,1201.22 1233.15,1201.25 1240.48,1201.3 1247.75,1201.35 1254.95,1201.42 1262.09,1201.5 1269.16,1201.58 1276.15,1201.68 1283.06,1201.79 1289.89,1201.91 1296.64,1202.04 1303.31,1202.17 1309.88,1202.32 1316.36,1202.47 1322.75,1202.63 1329.04,1202.8 1335.23,1202.97 1341.31,1203.15 1347.29,1203.34 1353.16,1203.53 1358.92,1203.72 1364.57,1203.91 1370.1,1204.11 1375.51,1204.31 1380.79,1204.51 1385.96,1204.72 1390.99,1204.92 1395.9,1205.12 1400.68,1205.32 1405.32,1205.51 1409.82,1205.71 1414.19,1205.9 1418.42,1206.08 1422.5,1206.27 1426.44,1206.45 1430.24,1206.62 1433.88,1206.79 1437.38,1206.95 1440.72,1207.11 1443.9,1207.26 1446.93,1207.41 1449.81,1207.55 1452.52,1207.69 1455.07,1207.81 1457.46,1207.94 1459.68,1208.06 1461.74,1208.17 1463.63,1208.27 1465.35,1208.37 1466.91,1208.47 1468.29,1208.56 1469.5,1208.64 1470.53,1208.72 1471.39,1208.8 1472.08,1208.87 1472.59,1208.94 1472.92,1209 1473.07,1209.06 1473.04,1209.11 1472.84,1209.17 1472.45,1209.21 1471.88,1209.26 1471.14,1209.3 1470.21,1209.34 1469.09,1209.38 1467.8,1209.42 1466.32,1209.45 1464.66,1209.48 1462.82,1209.51 1460.8,1209.54 1458.59,1209.57 1456.2,1209.59 1453.63,1209.62 1450.88,1209.64 1447.95,1209.66 1444.83,1209.68 1441.54,1209.7 1438.06,1209.72 1434.41,1209.74 1430.58,1209.76 1426.57,1209.77 1422.38,1209.79 1418.02,1209.8 1413.48,1209.81 1408.77,1209.83 1403.89,1209.84 1398.84,1209.85 1393.62,1209.86 1388.23,1209.88 1382.67,1209.89 1376.95,1209.9 1371.06,1209.91 1365.02,1209.92 1358.81,1209.93 1352.44,1209.93 1345.92,1209.94 1339.25,1209.95 1332.42,1209.96 1325.44,1209.97 1318.31,1209.97 1311.04,1209.98 1303.63,1209.99 1296.07,1209.99 1288.38,1210 1280.55,1210.01 1272.59,1210.01 1264.5,1210.02 1256.28,1210.02 1247.93,1210.03 1239.46,1210.03 1230.88,1210.04 1222.17,1210.04 1213.36,1210.04 1204.43,1210.05 1195.4,1210.05 1186.26,1210.05 1177.02,1210.06 1167.69,1210.06 1158.26,1210.06 1148.74,1210.07 1139.13,1210.07 1129.44,1210.07 1119.67,1210.07 1109.82,1210.08 1099.9,1210.08 1089.91,1210.08 1079.86,1210.08 1069.74,1210.08 1059.57,1210.08 1049.34,1210.08 1039.06,1210.09 1028.74,1210.09 1018.37,1210.09 1007.97,1210.09 997.527,1210.09 987.058,1210.09 976.563,1210.09 966.046,1210.09 955.511,1210.09 944.963,1210.09 934.405,1210.09 923.841,1210.09 913.277,1210.08 902.715,1210.08 892.161,1210.08 881.619,1210.08 871.092,1210.08 860.586,1210.08 850.104,1210.07 839.651,1210.07 829.231,1210.07 818.848,1210.07 808.507,1210.06 798.212,1210.06 787.967,1210.06 777.776,1210.05 767.645,1210.05 "/>
</svg>
