<?xml version="1.0" encoding="utf-8"?>
<svg xmlns="http://www.w3.org/2000/svg" xmlns:xlink="http://www.w3.org/1999/xlink" width="380" height="380" viewBox="0 0 1520 1520">
<defs>
  <clipPath id="clip680">
    <rect x="0" y="0" width="1520" height="1520"/>
  </clipPath>
</defs>
<path clip-path="url(#clip680)" d="M0 1520 L1520 1520 L1520 0 L0 0  Z" fill="#ffffff" fill-rule="evenodd" fill-opacity="1"/>
<defs>
  <clipPath id="clip681">
    <rect x="47" y="153" width="1427" height="1320"/>
  </clipPath>
</defs>
<path clip-path="url(#clip680)" d="M47.2441 1472.76 L1472.76 1472.76 L1472.76 153.712 L47.2441 153.712  Z" fill="#ffffff" fill-rule="evenodd" fill-opacity="1"/>
<path clip-path="url(#clip680)" d="M497.461 12.096 L505.644 12.096 L505.644 36.8875 L535.377 36.8875 L535.377 12.096 L543.56 12.096 L543.56 72.576 L535.377 72.576 L535.377 43.7741 L505.644 43.7741 L505.644 72.576 L497.461 72.576 L497.461 12.096 Z" fill="#000000" fill-rule="nonzero" fill-opacity="1" /><path clip-path="url(#clip680)" d="M559.521 27.2059 L566.974 27.2059 L566.974 72.576 L559.521 72.576 L559.521 27.2059 M559.521 9.54393 L566.974 9.54393 L566.974 18.9825 L559.521 18.9825 L559.521 9.54393 Z" fill="#000000" fill-rule="nonzero" fill-opacity="1" /><path clip-path="url(#clip680)" d="M582.57 9.54393 L590.024 9.54393 L590.024 72.576 L582.57 72.576 L582.57 9.54393 Z" fill="#000000" fill-rule="nonzero" fill-opacity="1" /><path clip-path="url(#clip680)" d="M638.189 49.9314 Q638.189 41.7081 634.787 37.0496 Q631.424 32.3505 625.51 32.3505 Q619.596 32.3505 616.193 37.0496 Q612.831 41.7081 612.831 49.9314 Q612.831 58.1548 616.193 62.8538 Q619.596 67.5124 625.51 67.5124 Q631.424 67.5124 634.787 62.8538 Q638.189 58.1548 638.189 49.9314 M612.831 34.0924 Q615.18 30.0415 618.745 28.0971 Q622.35 26.1121 627.333 26.1121 Q635.597 26.1121 640.741 32.6746 Q645.927 39.2371 645.927 49.9314 Q645.927 60.6258 640.741 67.1883 Q635.597 73.7508 627.333 73.7508 Q622.35 73.7508 618.745 71.8063 Q615.18 69.8214 612.831 65.7705 L612.831 72.576 L605.336 72.576 L605.336 9.54393 L612.831 9.54393 L612.831 34.0924 Z" fill="#000000" fill-rule="nonzero" fill-opacity="1" /><path clip-path="url(#clip680)" d="M697.089 48.0275 L697.089 51.6733 L662.819 51.6733 Q663.305 59.3701 667.437 63.421 Q671.609 67.4314 679.022 67.4314 Q683.316 67.4314 687.327 66.3781 Q691.378 65.3249 695.348 63.2184 L695.348 70.267 Q691.337 71.9684 687.124 72.8596 Q682.911 73.7508 678.577 73.7508 Q667.72 73.7508 661.36 67.4314 Q655.041 61.1119 655.041 50.3365 Q655.041 39.1965 661.036 32.6746 Q667.072 26.1121 677.281 26.1121 Q686.436 26.1121 691.742 32.0264 Q697.089 37.9003 697.089 48.0275 M689.636 45.84 Q689.555 39.7232 686.193 36.0774 Q682.871 32.4315 677.362 32.4315 Q671.123 32.4315 667.356 35.9558 Q663.629 39.4801 663.062 45.8805 L689.636 45.84 Z" fill="#000000" fill-rule="nonzero" fill-opacity="1" /><path clip-path="url(#clip680)" d="M735.614 34.1734 Q734.358 33.4443 732.859 33.1202 Q731.401 32.7556 729.618 32.7556 Q723.299 32.7556 719.896 36.8875 Q716.534 40.9789 716.534 48.6757 L716.534 72.576 L709.04 72.576 L709.04 27.2059 L716.534 27.2059 L716.534 34.2544 Q718.883 30.1225 722.651 28.1376 Q726.418 26.1121 731.806 26.1121 Q732.575 26.1121 733.507 26.2337 Q734.439 26.3147 735.573 26.5172 L735.614 34.1734 Z" fill="#000000" fill-rule="nonzero" fill-opacity="1" /><path clip-path="url(#clip680)" d="M750.804 14.324 L750.804 27.2059 L766.157 27.2059 L766.157 32.9987 L750.804 32.9987 L750.804 57.6282 Q750.804 63.1779 752.303 64.7578 Q753.843 66.3376 758.501 66.3376 L766.157 66.3376 L766.157 72.576 L758.501 72.576 Q749.873 72.576 746.592 69.3758 Q743.31 66.1351 743.31 57.6282 L743.31 32.9987 L737.842 32.9987 L737.842 27.2059 L743.31 27.2059 L743.31 14.324 L750.804 14.324 Z" fill="#000000" fill-rule="nonzero" fill-opacity="1" /><path clip-path="url(#clip680)" d="M834.982 28.9478 L834.982 35.9153 Q831.823 34.1734 828.622 33.3227 Q825.463 32.4315 822.222 32.4315 Q814.971 32.4315 810.96 37.0496 Q806.95 41.6271 806.95 49.9314 Q806.95 58.2358 810.96 62.8538 Q814.971 67.4314 822.222 67.4314 Q825.463 67.4314 828.622 66.5807 Q831.823 65.6895 834.982 63.9476 L834.982 70.8341 Q831.863 72.2924 828.501 73.0216 Q825.179 73.7508 821.412 73.7508 Q811.163 73.7508 805.127 67.3098 Q799.091 60.8689 799.091 49.9314 Q799.091 38.832 805.168 32.472 Q811.284 26.1121 821.898 26.1121 Q825.341 26.1121 828.622 26.8413 Q831.904 27.5299 834.982 28.9478 Z" fill="#000000" fill-rule="nonzero" fill-opacity="1" /><path clip-path="url(#clip680)" d="M847.175 54.671 L847.175 27.2059 L854.629 27.2059 L854.629 54.3874 Q854.629 60.8284 857.141 64.0691 Q859.652 67.2693 864.675 67.2693 Q870.711 67.2693 874.195 63.421 Q877.719 59.5726 877.719 52.9291 L877.719 27.2059 L885.173 27.2059 L885.173 72.576 L877.719 72.576 L877.719 65.6084 Q875.005 69.7404 871.4 71.7658 Q867.835 73.7508 863.096 73.7508 Q855.277 73.7508 851.226 68.8897 Q847.175 64.0286 847.175 54.671 M865.931 26.1121 L865.931 26.1121 Z" fill="#000000" fill-rule="nonzero" fill-opacity="1" /><path clip-path="url(#clip680)" d="M926.816 34.1734 Q925.56 33.4443 924.062 33.1202 Q922.603 32.7556 920.821 32.7556 Q914.501 32.7556 911.099 36.8875 Q907.736 40.9789 907.736 48.6757 L907.736 72.576 L900.242 72.576 L900.242 27.2059 L907.736 27.2059 L907.736 34.2544 Q910.086 30.1225 913.853 28.1376 Q917.621 26.1121 923.008 26.1121 Q923.778 26.1121 924.71 26.2337 Q925.641 26.3147 926.776 26.5172 L926.816 34.1734 Z" fill="#000000" fill-rule="nonzero" fill-opacity="1" /><path clip-path="url(#clip680)" d="M929.287 27.2059 L937.187 27.2059 L951.365 65.2844 L965.543 27.2059 L973.442 27.2059 L956.428 72.576 L946.301 72.576 L929.287 27.2059 Z" fill="#000000" fill-rule="nonzero" fill-opacity="1" /><path clip-path="url(#clip680)" d="M1022.54 48.0275 L1022.54 51.6733 L988.268 51.6733 Q988.755 59.3701 992.886 63.421 Q997.059 67.4314 1004.47 67.4314 Q1008.77 67.4314 1012.78 66.3781 Q1016.83 65.3249 1020.8 63.2184 L1020.8 70.267 Q1016.79 71.9684 1012.57 72.8596 Q1008.36 73.7508 1004.03 73.7508 Q993.17 73.7508 986.81 67.4314 Q980.491 61.1119 980.491 50.3365 Q980.491 39.1965 986.486 32.6746 Q992.522 26.1121 1002.73 26.1121 Q1011.89 26.1121 1017.19 32.0264 Q1022.54 37.9003 1022.54 48.0275 M1015.09 45.84 Q1015 39.7232 1011.64 36.0774 Q1008.32 32.4315 1002.81 32.4315 Q996.573 32.4315 992.805 35.9558 Q989.079 39.4801 988.512 45.8805 L1015.09 45.84 Z" fill="#000000" fill-rule="nonzero" fill-opacity="1" /><polyline clip-path="url(#clip681)" style="stroke:#ff8c00; stroke-linecap:round; stroke-linejoin:round; stroke-width:2.4; stroke-opacity:1; fill:none" points="137.81,191.044 137.81,231.185 177.951,231.185 177.951,191.044 218.092,191.044 258.233,191.044 258.233,231.185 218.092,231.185 218.092,271.326 258.233,271.326 258.233,311.468 218.092,311.468 177.951,311.468 177.951,271.326 137.81,271.326 137.81,311.468 137.81,351.609 177.951,351.609 177.951,391.75 137.81,391.75 137.81,431.891 137.81,472.033 177.951,472.033 177.951,431.891 218.092,431.891 218.092,472.033 258.233,472.033 258.233,431.891 258.233,391.75 218.092,391.75 218.092,351.609 258.233,351.609 298.375,351.609 338.516,351.609 338.516,391.75 298.375,391.75 298.375,431.891 298.375,472.033 338.516,472.033 338.516,431.891 378.657,431.891 378.657,472.033 418.799,472.033 418.799,431.891 418.799,391.75 378.657,391.75 378.657,351.609 418.799,351.609 418.799,311.468 418.799,271.326 378.657,271.326 378.657,311.468 338.516,311.468 298.375,311.468 298.375,271.326 338.516,271.326 338.516,231.185 298.375,231.185 298.375,191.044 338.516,191.044 378.657,191.044 378.657,231.185 418.799,231.185 418.799,191.044 458.94,191.044 499.081,191.044 499.081,231.185 458.94,231.185 458.94,271.326 458.94,311.468 499.081,311.468 499.081,271.326 539.223,271.326 539.223,311.468 579.364,311.468 579.364,271.326 579.364,231.185 539.223,231.185 539.223,191.044 579.364,191.044 619.505,191.044 619.505,231.185 659.647,231.185 659.647,191.044 699.788,191.044 739.929,191.044 739.929,231.185 699.788,231.185 699.788,271.326 739.929,271.326 739.929,311.468 699.788,311.468 659.647,311.468 659.647,271.326 619.505,271.326 619.505,311.468 619.505,351.609 619.505,391.75 659.647,391.75 659.647,351.609 699.788,351.609 739.929,351.609 739.929,391.75 699.788,391.75 699.788,431.891 739.929,431.891 739.929,472.033 699.788,472.033 659.647,472.033 659.647,431.891 619.505,431.891 619.505,472.033 579.364,472.033 539.223,472.033 539.223,431.891 579.364,431.891 579.364,391.75 579.364,351.609 539.223,351.609 539.223,391.75 499.081,391.75 499.081,351.609 458.94,351.609 458.94,391.75 458.94,431.891 499.081,431.891 499.081,472.033 458.94,472.033 458.94,512.174 499.081,512.174 499.081,552.315 458.94,552.315 458.94,592.457 458.94,632.598 499.081,632.598 499.081,592.457 539.223,592.457 539.223,632.598 579.364,632.598 579.364,592.457 579.364,552.315 539.223,552.315 539.223,512.174 579.364,512.174 619.505,512.174 619.505,552.315 659.647,552.315 659.647,512.174 699.788,512.174 739.929,512.174 739.929,552.315 699.788,552.315 699.788,592.457 739.929,592.457 739.929,632.598 699.788,632.598 659.647,632.598 659.647,592.457 619.505,592.457 619.505,632.598 619.505,672.739 619.505,712.881 659.647,712.881 659.647,672.739 699.788,672.739 739.929,672.739 739.929,712.881 699.788,712.881 699.788,753.022 739.929,753.022 739.929,793.163 699.788,793.163 659.647,793.163 659.647,753.022 619.505,753.022 619.505,793.163 579.364,793.163 539.223,793.163 539.223,753.022 579.364,753.022 579.364,712.881 579.364,672.739 539.223,672.739 539.223,712.881 499.081,712.881 499.081,672.739 458.94,672.739 458.94,712.881 458.94,753.022 499.081,753.022 499.081,793.163 458.94,793.163 418.799,793.163 418.799,753.022 378.657,753.022 378.657,793.163 338.516,793.163 298.375,793.163 298.375,753.022 338.516,753.022 338.516,712.881 298.375,712.881 298.375,672.739 338.516,672.739 378.657,672.739 378.657,712.881 418.799,712.881 418.799,672.739 418.799,632.598 378.657,632.598 378.657,592.457 418.799,592.457 418.799,552.315 418.799,512.174 378.657,512.174 378.657,552.315 338.516,552.315 338.516,512.174 298.375,512.174 298.375,552.315 298.375,592.457 338.516,592.457 338.516,632.598 298.375,632.598 258.233,632.598 218.092,632.598 218.092,592.457 258.233,592.457 258.233,552.315 258.233,512.174 218.092,512.174 218.092,552.315 177.951,552.315 177.951,512.174 137.81,512.174 137.81,552.315 137.81,592.457 177.951,592.457 177.951,632.598 137.81,632.598 137.81,672.739 137.81,712.881 177.951,712.881 177.951,672.739 218.092,672.739 258.233,672.739 258.233,712.881 218.092,712.881 218.092,753.022 258.233,753.022 258.233,793.163 218.092,793.163 177.951,793.163 177.951,753.022 137.81,753.022 137.81,793.163 137.81,833.305 177.951,833.305 177.951,873.446 137.81,873.446 137.81,913.587 137.81,953.729 177.951,953.729 177.951,913.587 218.092,913.587 218.092,953.729 258.233,953.729 258.233,913.587 258.233,873.446 218.092,873.446 218.092,833.305 258.233,833.305 298.375,833.305 298.375,873.446 338.516,873.446 338.516,833.305 378.657,833.305 418.799,833.305 418.799,873.446 378.657,873.446 378.657,913.587 418.799,913.587 418.799,953.729 378.657,953.729 338.516,953.729 338.516,913.587 298.375,913.587 298.375,953.729 298.375,993.87 298.375,1034.01 338.516,1034.01 338.516,993.87 378.657,993.87 418.799,993.87 418.799,1034.01 378.657,1034.01 378.657,1074.15 418.799,1074.15 418.799,1114.29 378.657,1114.29 338.516,1114.29 338.516,1074.15 298.375,1074.15 298.375,1114.29 258.233,1114.29 218.092,1114.29 218.092,1074.15 258.233,1074.15 258.233,1034.01 258.233,993.87 218.092,993.87 218.092,1034.01 177.951,1034.01 177.951,993.87 137.81,993.87 137.81,1034.01 137.81,1074.15 177.951,1074.15 177.951,1114.29 137.81,1114.29 137.81,1154.44 137.81,1194.58 177.951,1194.58 177.951,1154.44 218.092,1154.44 258.233,1154.44 258.233,1194.58 218.092,1194.58 218.092,1234.72 258.233,1234.72 258.233,1274.86 218.092,1274.86 177.951,1274.86 177.951,1234.72 137.81,1234.72 137.81,1274.86 137.81,1315 177.951,1315 177.951,1355.14 137.81,1355.14 137.81,1395.28 137.81,1435.42 177.951,1435.42 177.951,1395.28 218.092,1395.28 218.092,1435.42 258.233,1435.42 258.233,1395.28 258.233,1355.14 218.092,1355.14 218.092,1315 258.233,1315 298.375,1315 338.516,1315 338.516,1355.14 298.375,1355.14 298.375,1395.28 298.375,1435.42 338.516,1435.42 338.516,1395.28 378.657,1395.28 378.657,1435.42 418.799,1435.42 418.799,1395.28 418.799,1355.14 378.657,1355.14 378.657,1315 418.799,1315 418.799,1274.86 418.799,1234.72 378.657,1234.72 378.657,1274.86 338.516,1274.86 298.375,1274.86 298.375,1234.72 338.516,1234.72 338.516,1194.58 298.375,1194.58 298.375,1154.44 338.516,1154.44 378.657,1154.44 378.657,1194.58 418.799,1194.58 418.799,1154.44 458.94,1154.44 458.94,1194.58 499.081,1194.58 499.081,1154.44 539.223,1154.44 579.364,1154.44 579.364,1194.58 539.223,1194.58 539.223,1234.72 579.364,1234.72 579.364,1274.86 539.223,1274.86 499.081,1274.86 499.081,1234.72 458.94,1234.72 458.94,1274.86 458.94,1315 499.081,1315 499.081,1355.14 458.94,1355.14 458.94,1395.28 458.94,1435.42 499.081,1435.42 499.081,1395.28 539.223,1395.28 539.223,1435.42 579.364,1435.42 579.364,1395.28 579.364,1355.14 539.223,1355.14 539.223,1315 579.364,1315 619.505,1315 659.647,1315 659.647,1355.14 619.505,1355.14 619.505,1395.28 619.505,1435.42 659.647,1435.42 659.647,1395.28 699.788,1395.28 699.788,1435.42 739.929,1435.42 739.929,1395.28 739.929,1355.14 699.788,1355.14 699.788,1315 739.929,1315 739.929,1274.86 739.929,1234.72 699.788,1234.72 699.788,1274.86 659.647,1274.86 619.505,1274.86 619.505,1234.72 659.647,1234.72 659.647,1194.58 619.505,1194.58 619.505,1154.44 659.647,1154.44 699.788,1154.44 699.788,1194.58 739.929,1194.58 739.929,1154.44 739.929,1114.29 699.788,1114.29 699.788,1074.15 739.929,1074.15 739.929,1034.01 739.929,993.87 699.788,993.87 699.788,1034.01 659.647,1034.01 659.647,993.87 619.505,993.87 619.505,1034.01 619.505,1074.15 659.647,1074.15 659.647,1114.29 619.505,1114.29 579.364,1114.29 579.364,1074.15 539.223,1074.15 539.223,1114.29 499.081,1114.29 458.94,1114.29 458.94,1074.15 499.081,1074.15 499.081,1034.01 458.94,1034.01 458.94,993.87 499.081,993.87 539.223,993.87 539.223,1034.01 579.364,1034.01 579.364,993.87 579.364,953.729 579.364,913.587 539.223,913.587 539.223,953.729 499.081,953.729 458.94,953.729 458.94,913.587 499.081,913.587 499.081,873.446 458.94,873.446 458.94,833.305 499.081,833.305 539.223,833.305 539.223,873.446 579.364,873.446 579.364,833.305 619.505,833.305 659.647,833.305 659.647,873.446 619.505,873.446 619.505,913.587 619.505,953.729 659.647,953.729 659.647,913.587 699.788,913.587 699.788,953.729 739.929,953.729 739.929,913.587 739.929,873.446 699.788,873.446 699.788,833.305 739.929,833.305 780.071,833.305 820.212,833.305 820.212,873.446 780.071,873.446 780.071,913.587 780.071,953.729 820.212,953.729 820.212,913.587 860.353,913.587 860.353,953.729 900.495,953.729 900.495,913.587 900.495,873.446 860.353,873.446 860.353,833.305 900.495,833.305 940.636,833.305 940.636,873.446 980.777,873.446 980.777,833.305 1020.92,833.305 1061.06,833.305 1061.06,873.446 1020.92,873.446 1020.92,913.587 1061.06,913.587 1061.06,953.729 1020.92,953.729 980.777,953.729 980.777,913.587 940.636,913.587 940.636,953.729 940.636,993.87 940.636,1034.01 980.777,1034.01 980.777,993.87 1020.92,993.87 1061.06,993.87 1061.06,1034.01 1020.92,1034.01 1020.92,1074.15 1061.06,1074.15 1061.06,1114.29 1020.92,1114.29 980.777,1114.29 980.777,1074.15 940.636,1074.15 940.636,1114.29 900.495,1114.29 860.353,1114.29 860.353,1074.15 900.495,1074.15 900.495,1034.01 900.495,993.87 860.353,993.87 860.353,1034.01 820.212,1034.01 820.212,993.87 780.071,993.87 780.071,1034.01 780.071,1074.15 820.212,1074.15 820.212,1114.29 780.071,1114.29 780.071,1154.44 780.071,1194.58 820.212,1194.58 820.212,1154.44 860.353,1154.44 900.495,1154.44 900.495,1194.58 860.353,1194.58 860.353,1234.72 900.495,1234.72 900.495,1274.86 860.353,1274.86 820.212,1274.86 820.212,1234.72 780.071,1234.72 780.071,1274.86 780.071,1315 820.212,1315 820.212,1355.14 780.071,1355.14 780.071,1395.28 780.071,1435.42 820.212,1435.42 820.212,1395.28 860.353,1395.28 860.353,1435.42 900.495,1435.42 900.495,1395.28 900.495,1355.14 860.353,1355.14 860.353,1315 900.495,1315 940.636,1315 980.777,1315 980.777,1355.14 940.636,1355.14 940.636,1395.28 940.636,1435.42 980.777,1435.42 980.777,1395.28 1020.92,1395.28 1020.92,1435.42 1061.06,1435.42 1061.06,1395.28 1061.06,1355.14 1020.92,1355.14 1020.92,1315 1061.06,1315 1061.06,1274.86 1061.06,1234.72 1020.92,1234.72 1020.92,1274.86 980.777,1274.86 940.636,1274.86 940.636,1234.72 980.777,1234.72 980.777,1194.58 940.636,1194.58 940.636,1154.44 980.777,1154.44 1020.92,1154.44 1020.92,1194.58 1061.06,1194.58 1061.06,1154.44 1101.2,1154.44 1101.2,1194.58 1141.34,1194.58 1141.34,1154.44 1181.48,1154.44 1221.63,1154.44 1221.63,1194.58 1181.48,1194.58 1181.48,1234.72 1221.63,1234.72 1221.63,1274.86 1181.48,1274.86 1141.34,1274.86 1141.34,1234.72 1101.2,1234.72 1101.2,1274.86 1101.2,1315 1141.34,1315 1141.34,1355.14 1101.2,1355.14 1101.2,1395.28 1101.2,1435.42 1141.34,1435.42 1141.34,1395.28 1181.48,1395.28 1181.48,1435.42 1221.63,1435.42 1221.63,1395.28 1221.63,1355.14 1181.48,1355.14 1181.48,1315 1221.63,1315 1261.77,1315 1301.91,1315 1301.91,1355.14 1261.77,1355.14 1261.77,1395.28 1261.77,1435.42 1301.91,1435.42 1301.91,1395.28 1342.05,1395.28 1342.05,1435.42 1382.19,1435.42 1382.19,1395.28 1382.19,1355.14 1342.05,1355.14 1342.05,1315 1382.19,1315 1382.19,1274.86 1382.19,1234.72 1342.05,1234.72 1342.05,1274.86 1301.91,1274.86 1261.77,1274.86 1261.77,1234.72 1301.91,1234.72 1301.91,1194.58 1261.77,1194.58 1261.77,1154.44 1301.91,1154.44 1342.05,1154.44 1342.05,1194.58 1382.19,1194.58 1382.19,1154.44 1382.19,1114.29 1342.05,1114.29 1342.05,1074.15 1382.19,1074.15 1382.19,1034.01 1382.19,993.87 1342.05,993.87 1342.05,1034.01 1301.91,1034.01 1301.91,993.87 1261.77,993.87 1261.77,1034.01 1261.77,1074.15 1301.91,1074.15 1301.91,1114.29 1261.77,1114.29 1221.63,1114.29 1221.63,1074.15 1181.48,1074.15 1181.48,1114.29 1141.34,1114.29 1101.2,1114.29 1101.2,1074.15 1141.34,1074.15 1141.34,1034.01 1101.2,1034.01 1101.2,993.87 1141.34,993.87 1181.48,993.87 1181.48,1034.01 1221.63,1034.01 1221.63,993.87 1221.63,953.729 1221.63,913.587 1181.48,913.587 1181.48,953.729 1141.34,953.729 1101.2,953.729 1101.2,913.587 1141.34,913.587 1141.34,873.446 1101.2,873.446 1101.2,833.305 1141.34,833.305 1181.48,833.305 1181.48,873.446 1221.63,873.446 1221.63,833.305 1261.77,833.305 1301.91,833.305 1301.91,873.446 1261.77,873.446 1261.77,913.587 1261.77,953.729 1301.91,953.729 1301.91,913.587 1342.05,913.587 1342.05,953.729 1382.19,953.729 1382.19,913.587 1382.19,873.446 1342.05,873.446 1342.05,833.305 1382.19,833.305 1382.19,793.163 1382.19,753.022 1342.05,753.022 1342.05,793.163 1301.91,793.163 1261.77,793.163 1261.77,753.022 1301.91,753.022 1301.91,712.881 1261.77,712.881 1261.77,672.739 1301.91,672.739 1342.05,672.739 1342.05,712.881 1382.19,712.881 1382.19,672.739 1382.19,632.598 1342.05,632.598 1342.05,592.457 1382.19,592.457 1382.19,552.315 1382.19,512.174 1342.05,512.174 1342.05,552.315 1301.91,552.315 1301.91,512.174 1261.77,512.174 1261.77,552.315 1261.77,592.457 1301.91,592.457 1301.91,632.598 1261.77,632.598 1221.63,632.598 1181.48,632.598 1181.48,592.457 1221.63,592.457 1221.63,552.315 1221.63,512.174 1181.48,512.174 1181.48,552.315 1141.34,552.315 1141.34,512.174 1101.2,512.174 1101.2,552.315 1101.2,592.457 1141.34,592.457 1141.34,632.598 1101.2,632.598 1101.2,672.739 1101.2,712.881 1141.34,712.881 1141.34,672.739 1181.48,672.739 1221.63,672.739 1221.63,712.881 1181.48,712.881 1181.48,753.022 1221.63,753.022 1221.63,793.163 1181.48,793.163 1141.34,793.163 1141.34,753.022 1101.2,753.022 1101.2,793.163 1061.06,793.163 1020.92,793.163 1020.92,753.022 1061.06,753.022 1061.06,712.881 1061.06,672.739 1020.92,672.739 1020.92,712.881 980.777,712.881 980.777,672.739 940.636,672.739 940.636,712.881 940.636,753.022 980.777,753.022 980.777,793.163 940.636,793.163 900.495,793.163 900.495,753.022 860.353,753.022 860.353,793.163 820.212,793.163 780.071,793.163 780.071,753.022 820.212,753.022 820.212,712.881 780.071,712.881 780.071,672.739 820.212,672.739 860.353,672.739 860.353,712.881 900.495,712.881 900.495,672.739 900.495,632.598 900.495,592.457 860.353,592.457 860.353,632.598 820.212,632.598 780.071,632.598 780.071,592.457 820.212,592.457 820.212,552.315 780.071,552.315 780.071,512.174 820.212,512.174 860.353,512.174 860.353,552.315 900.495,552.315 900.495,512.174 940.636,512.174 980.777,512.174 980.777,552.315 940.636,552.315 940.636,592.457 940.636,632.598 980.777,632.598 980.777,592.457 1020.92,592.457 1020.92,632.598 1061.06,632.598 1061.06,592.457 1061.06,552.315 1020.92,552.315 1020.92,512.174 1061.06,512.174 1061.06,472.033 1020.92,472.033 1020.92,431.891 1061.06,431.891 1061.06,391.75 1061.06,351.609 1020.92,351.609 1020.92,391.75 980.777,391.75 980.777,351.609 940.636,351.609 940.636,391.75 940.636,431.891 980.777,431.891 980.777,472.033 940.636,472.033 900.495,472.033 900.495,431.891 860.353,431.891 860.353,472.033 820.212,472.033 780.071,472.033 780.071,431.891 820.212,431.891 820.212,391.75 780.071,391.75 780.071,351.609 820.212,351.609 860.353,351.609 860.353,391.75 900.495,391.75 900.495,351.609 900.495,311.468 900.495,271.326 860.353,271.326 860.353,311.468 820.212,311.468 780.071,311.468 780.071,271.326 820.212,271.326 820.212,231.185 780.071,231.185 780.071,191.044 820.212,191.044 860.353,191.044 860.353,231.185 900.495,231.185 900.495,191.044 940.636,191.044 980.777,191.044 980.777,231.185 940.636,231.185 940.636,271.326 940.636,311.468 980.777,311.468 980.777,271.326 1020.92,271.326 1020.92,311.468 1061.06,311.468 1061.06,271.326 1061.06,231.185 1020.92,231.185 1020.92,191.044 1061.06,191.044 1101.2,191.044 1101.2,231.185 1141.34,231.185 1141.34,191.044 1181.48,191.044 1221.63,191.044 1221.63,231.185 1181.48,231.185 1181.48,271.326 1221.63,271.326 1221.63,311.468 1181.48,311.468 1141.34,311.468 1141.34,271.326 1101.2,271.326 1101.2,311.468 1101.2,351.609 1141.34,351.609 1141.34,391.75 1101.2,391.75 1101.2,431.891 1101.2,472.033 1141.34,472.033 1141.34,431.891 1181.48,431.891 1181.48,472.033 1221.63,472.033 1221.63,431.891 1221.63,391.75 1181.48,391.75 1181.48,351.609 1221.63,351.609 1261.77,351.609 1301.91,351.609 1301.91,391.75 1261.77,391.75 1261.77,431.891 1261.77,472.033 1301.91,472.033 1301.91,431.891 1342.05,431.891 1342.05,472.033 1382.19,472.033 1382.19,431.891 1382.19,391.75 1342.05,391.75 1342.05,351.609 1382.19,351.609 1382.19,311.468 1382.19,271.326 1342.05,271.326 1342.05,311.468 1301.91,311.468 1261.77,311.468 1261.77,271.326 1301.91,271.326 1301.91,231.185 1261.77,231.185 1261.77,191.044 1301.91,191.044 1342.05,191.044 1342.05,231.185 1382.19,231.185 1382.19,191.044 "/>
</svg>
