<svg xmlns="http://www.w3.org/2000/svg" width="620" height="1428" font-family="ui-monospace,SFMono-Regular,Menlo,monospace" font-size="11">
<text x="8" y="14" font-size="12" fill="#444">tolerance budget spent (delta / tol)</text>
<text x="242" y="39" text-anchor="end" fill="#333">c.id == :E1</text>
<rect x="250" y="29" width="1.0" height="11" fill="#4c9f70" rx="2"/>
<text x="256.0" y="39" fill="#666">0.0</text>
<text x="242" y="57" text-anchor="end" fill="#333">c.label == &quot;energy density e&quot;</text>
<rect x="250" y="47" width="1.0" height="11" fill="#4c9f70" rx="2"/>
<text x="256.0" y="57" fill="#666">0.0</text>
<text x="242" y="75" text-anchor="end" fill="#333">c.kind == :rel</text>
<rect x="250" y="65" width="1.0" height="11" fill="#4c9f70" rx="2"/>
<text x="256.0" y="75" fill="#666">0.0</text>
<text x="242" y="93" text-anchor="end" fill="#333">c.delta ≈ abs(-0.81034 - -0.8…</text>
<rect x="250" y="83" width="1.0" height="11" fill="#4c9f70" rx="2"/>
<text x="256.0" y="93" fill="#666">0.0</text>
<text x="242" y="111" text-anchor="end" fill="#333">c.pass</text>
<rect x="250" y="101" width="1.0" height="11" fill="#4c9f70" rx="2"/>
<text x="256.0" y="111" fill="#666">0.0</text>
<text x="242" y="129" text-anchor="end" fill="#333">c.kind == :abs</text>
<rect x="250" y="119" width="1.0" height="11" fill="#4c9f70" rx="2"/>
<text x="256.0" y="129" fill="#666">0.0</text>
<text x="242" y="147" text-anchor="end" fill="#333">c.delta ≈ 1.0e-5</text>
<rect x="250" y="137" width="1.0" height="11" fill="#4c9f70" rx="2"/>
<text x="256.0" y="147" fill="#666">0.0</text>
<text x="242" y="165" text-anchor="end" fill="#333">c.want == 0.0</text>
<rect x="250" y="155" width="1.0" height="11" fill="#4c9f70" rx="2"/>
<text x="256.0" y="165" fill="#666">0.0</text>
<text x="242" y="183" text-anchor="end" fill="#333">c.pass</text>
<rect x="250" y="173" width="1.0" height="11" fill="#4c9f70" rx="2"/>
<text x="256.0" y="183" fill="#666">0.0</text>
<text x="242" y="201" text-anchor="end" fill="#333">c.kind == :abs</text>
<rect x="250" y="191" width="1.0" height="11" fill="#4c9f70" rx="2"/>
<text x="256.0" y="201" fill="#666">0.0</text>
<text x="242" y="219" text-anchor="end" fill="#333">c.delta ≈ 0.5</text>
<rect x="250" y="209" width="1.0" height="11" fill="#4c9f70" rx="2"/>
<text x="256.0" y="219" fill="#666">0.0</text>
<text x="242" y="237" text-anchor="end" fill="#333">c.pass</text>
<rect x="250" y="227" width="1.0" height="11" fill="#4c9f70" rx="2"/>
<text x="256.0" y="237" fill="#666">0.0</text>
<text x="242" y="255" text-anchor="end" fill="#333">c.kind == :abs</text>
<rect x="250" y="245" width="1.0" height="11" fill="#4c9f70" rx="2"/>
<text x="256.0" y="255" fill="#666">0.0</text>
<text x="242" y="273" text-anchor="end" fill="#333">!(c.pass)</text>
<rect x="250" y="263" width="1.0" height="11" fill="#4c9f70" rx="2"/>
<text x="256.0" y="273" fill="#666">0.0</text>
<text x="242" y="291" text-anchor="end" fill="#333">(cs[1]).id == :S1</text>
<rect x="250" y="281" width="1.0" height="11" fill="#4c9f70" rx="2"/>
<text x="256.0" y="291" fill="#666">0.0</text>
<text x="242" y="309" text-anchor="end" fill="#333">(cs[2]).id == :S2</text>
<rect x="250" y="299" width="1.0" height="11" fill="#4c9f70" rx="2"/>
<text x="256.0" y="309" fill="#666">0.0</text>
<text x="242" y="327" text-anchor="end" fill="#333">pg.id == :aa_tl</text>
<rect x="250" y="317" width="1.0" height="11" fill="#4c9f70" rx="2"/>
<text x="256.0" y="327" fill="#666">0.0</text>
<text x="242" y="345" text-anchor="end" fill="#333">pg.title == &quot;AA TL test set&quot;</text>
<rect x="250" y="335" width="1.0" height="11" fill="#4c9f70" rx="2"/>
<text x="256.0" y="345" fill="#666">0.0</text>
<text x="242" y="363" text-anchor="end" fill="#333">pg.status === :benchmark</text>
<rect x="250" y="353" width="1.0" height="11" fill="#4c9f70" rx="2"/>
<text x="256.0" y="363" fill="#666">0.0</text>
<text x="242" y="381" text-anchor="end" fill="#333">length(pg.checks) == 1</text>
<rect x="250" y="371" width="1.0" height="11" fill="#4c9f70" rx="2"/>
<text x="256.0" y="381" fill="#666">0.0</text>
<text x="242" y="399" text-anchor="end" fill="#333">occursin(&quot;\&quot;kind\&quot;:\&quot;benchmark\…</text>
<rect x="250" y="389" width="1.0" height="11" fill="#4c9f70" rx="2"/>
<text x="256.0" y="399" fill="#666">0.0</text>
<text x="242" y="417" text-anchor="end" fill="#333">occursin(&quot;\&quot;id\&quot;:\&quot;aa_tl\&quot;&quot;, aj)</text>
<rect x="250" y="407" width="1.0" height="11" fill="#4c9f70" rx="2"/>
<text x="256.0" y="417" fill="#666">0.0</text>
<text x="242" y="435" text-anchor="end" fill="#333">occursin(&quot;\&quot;verdict\&quot;:\&quot;FAIL\&quot;&quot;…</text>
<rect x="250" y="425" width="1.0" height="11" fill="#4c9f70" rx="2"/>
<text x="256.0" y="435" fill="#666">0.0</text>
<text x="242" y="453" text-anchor="end" fill="#333">occursin(&quot;\&quot;passed\&quot;:2&quot;, aj)</text>
<rect x="250" y="443" width="1.0" height="11" fill="#4c9f70" rx="2"/>
<text x="256.0" y="453" fill="#666">0.0</text>
<text x="242" y="471" text-anchor="end" fill="#333">occursin(&quot;\&quot;total\&quot;:3&quot;, aj)</text>
<rect x="250" y="461" width="1.0" height="11" fill="#4c9f70" rx="2"/>
<text x="256.0" y="471" fill="#666">0.0</text>
<text x="242" y="489" text-anchor="end" fill="#333">occursin(&quot;\&quot;failed\&quot;:[\&quot;G2\&quot;]&quot;,…</text>
<rect x="250" y="479" width="1.0" height="11" fill="#4c9f70" rx="2"/>
<text x="256.0" y="489" fill="#666">0.0</text>
<text x="242" y="507" text-anchor="end" fill="#333">occursin(&quot;\&quot;id\&quot;:\&quot;E1\&quot;,\&quot;label…</text>
<rect x="250" y="497" width="1.0" height="11" fill="#4c9f70" rx="2"/>
<text x="256.0" y="507" fill="#666">0.0</text>
<text x="242" y="525" text-anchor="end" fill="#333">occursin(&quot;\&quot;kind\&quot;:\&quot;rel\&quot;&quot;, aj)</text>
<rect x="250" y="515" width="1.0" height="11" fill="#4c9f70" rx="2"/>
<text x="256.0" y="525" fill="#666">0.0</text>
<text x="242" y="543" text-anchor="end" fill="#333">occursin(&quot;\&quot;kind\&quot;:\&quot;abs\&quot;&quot;, aj)</text>
<rect x="250" y="533" width="1.0" height="11" fill="#4c9f70" rx="2"/>
<text x="256.0" y="543" fill="#666">0.0</text>
<text x="242" y="561" text-anchor="end" fill="#333">occursin(&quot;\&quot;got\&quot;:0.5,\&quot;want\&quot;:…</text>
<rect x="250" y="551" width="1.0" height="11" fill="#4c9f70" rx="2"/>
<text x="256.0" y="561" fill="#666">0.0</text>
<text x="242" y="579" text-anchor="end" fill="#333">occursin(&quot;\&quot;pass\&quot;:false&quot;, aj)</text>
<rect x="250" y="569" width="1.0" height="11" fill="#4c9f70" rx="2"/>
<text x="256.0" y="579" fill="#666">0.0</text>
<text x="242" y="597" text-anchor="end" fill="#333">occursin(&quot;\&quot;pass\&quot;:true&quot;, aj)</text>
<rect x="250" y="587" width="1.0" height="11" fill="#4c9f70" rx="2"/>
<text x="256.0" y="597" fill="#666">0.0</text>
<text x="242" y="615" text-anchor="end" fill="#333">occursin(&quot;\&quot;status\&quot;:\&quot;benchmar…</text>
<rect x="250" y="605" width="1.0" height="11" fill="#4c9f70" rx="2"/>
<text x="256.0" y="615" fill="#666">0.0</text>
<text x="242" y="633" text-anchor="end" fill="#333">occursin(&quot;2/3 FAIL&quot;, am)</text>
<rect x="250" y="623" width="1.0" height="11" fill="#4c9f70" rx="2"/>
<text x="256.0" y="633" fill="#666">0.0</text>
<text x="242" y="651" text-anchor="end" fill="#333">occursin(&quot;[FAIL] G2&quot;, am)</text>
<rect x="250" y="641" width="1.0" height="11" fill="#4c9f70" rx="2"/>
<text x="256.0" y="651" fill="#666">0.0</text>
<text x="242" y="669" text-anchor="end" fill="#333">occursin(&quot;pinax-benchmark&quot;, g)</text>
<rect x="250" y="659" width="1.0" height="11" fill="#4c9f70" rx="2"/>
<text x="256.0" y="669" fill="#666">0.0</text>
<text x="242" y="687" text-anchor="end" fill="#333">occursin(&quot;pinax-verdict-fail&quot;, g)</text>
<rect x="250" y="677" width="1.0" height="11" fill="#4c9f70" rx="2"/>
<text x="256.0" y="687" fill="#666">0.0</text>
<text x="242" y="705" text-anchor="end" fill="#333">occursin(&quot;AA TL test set   2/3 …</text>
<rect x="250" y="695" width="1.0" height="11" fill="#4c9f70" rx="2"/>
<text x="256.0" y="705" fill="#666">0.0</text>
<text x="242" y="723" text-anchor="end" fill="#333">occursin(&quot;class=\&quot;pinax-checks\…</text>
<rect x="250" y="713" width="1.0" height="11" fill="#4c9f70" rx="2"/>
<text x="256.0" y="723" fill="#666">0.0</text>
<text x="242" y="741" text-anchor="end" fill="#333">count(&quot;&lt;tr class=\&quot;pinax-pass\&quot;…</text>
<rect x="250" y="731" width="1.0" height="11" fill="#4c9f70" rx="2"/>
<text x="256.0" y="741" fill="#666">0.0</text>
<text x="242" y="759" text-anchor="end" fill="#333">count(&quot;&lt;tr class=\&quot;pinax-fail\&quot;…</text>
<rect x="250" y="749" width="1.0" height="11" fill="#4c9f70" rx="2"/>
<text x="256.0" y="759" fill="#666">0.0</text>
<text x="242" y="777" text-anchor="end" fill="#333">occursin(&quot;energy density e&quot;, g)</text>
<rect x="250" y="767" width="1.0" height="11" fill="#4c9f70" rx="2"/>
<text x="256.0" y="777" fill="#666">0.0</text>
<text x="242" y="795" text-anchor="end" fill="#333">occursin(&quot;gap&quot;, g)</text>
<rect x="250" y="785" width="1.0" height="11" fill="#4c9f70" rx="2"/>
<text x="256.0" y="795" fill="#666">0.0</text>
<text x="242" y="813" text-anchor="end" fill="#333">occursin(&quot;\&quot;verdict\&quot;:\&quot;PASS\&quot;&quot;…</text>
<rect x="250" y="803" width="1.0" height="11" fill="#4c9f70" rx="2"/>
<text x="256.0" y="813" fill="#666">0.0</text>
<text x="242" y="831" text-anchor="end" fill="#333">occursin(&quot;\&quot;passed\&quot;:2&quot;, aj)</text>
<rect x="250" y="821" width="1.0" height="11" fill="#4c9f70" rx="2"/>
<text x="256.0" y="831" fill="#666">0.0</text>
<text x="242" y="849" text-anchor="end" fill="#333">occursin(&quot;\&quot;failed\&quot;:[]&quot;, aj)</text>
<rect x="250" y="839" width="1.0" height="11" fill="#4c9f70" rx="2"/>
<text x="256.0" y="849" fill="#666">0.0</text>
<text x="242" y="867" text-anchor="end" fill="#333">occursin(&quot;pinax-verdict-pass&quot;, g)</text>
<rect x="250" y="857" width="1.0" height="11" fill="#4c9f70" rx="2"/>
<text x="256.0" y="867" fill="#666">0.0</text>
<text x="242" y="885" text-anchor="end" fill="#333">occursin(&quot;all good   2/2 PASS&quot;, g)</text>
<rect x="250" y="875" width="1.0" height="11" fill="#4c9f70" rx="2"/>
<text x="256.0" y="885" fill="#666">0.0</text>
<text x="242" y="903" text-anchor="end" fill="#333">first(findfirst(&quot;pinax-verdict&quot;…</text>
<rect x="250" y="893" width="1.0" height="11" fill="#4c9f70" rx="2"/>
<text x="256.0" y="903" fill="#666">0.0</text>
<text x="242" y="921" text-anchor="end" fill="#333">occursin(&quot;class=\&quot;figgrid&quot;, g)</text>
<rect x="250" y="911" width="1.0" height="11" fill="#4c9f70" rx="2"/>
<text x="256.0" y="921" fill="#666">0.0</text>
<text x="242" y="939" text-anchor="end" fill="#333">occursin(&quot;\\begin{tabular}&quot;, lx)</text>
<rect x="250" y="929" width="1.0" height="11" fill="#4c9f70" rx="2"/>
<text x="256.0" y="939" fill="#666">0.0</text>
<text x="242" y="957" text-anchor="end" fill="#333">occursin(&quot;Verdict: FAIL&quot;, lx)</text>
<rect x="250" y="947" width="1.0" height="11" fill="#4c9f70" rx="2"/>
<text x="256.0" y="957" fill="#666">0.0</text>
<text x="242" y="975" text-anchor="end" fill="#333">occursin(&quot;PASS&quot;, lx)</text>
<rect x="250" y="965" width="1.0" height="11" fill="#4c9f70" rx="2"/>
<text x="256.0" y="975" fill="#666">0.0</text>
<text x="242" y="993" text-anchor="end" fill="#333">occursin(&quot;FAIL&quot;, lx)</text>
<rect x="250" y="983" width="1.0" height="11" fill="#4c9f70" rx="2"/>
<text x="256.0" y="993" fill="#666">0.0</text>
<text x="242" y="1011" text-anchor="end" fill="#333">occursin(&quot;\&quot;custom_chk\&quot;:\&quot;E\&quot;&quot;…</text>
<rect x="250" y="1001" width="1.0" height="11" fill="#4c9f70" rx="2"/>
<text x="256.0" y="1011" fill="#666">0.0</text>
<text x="242" y="1029" text-anchor="end" fill="#333">#= /home/runner/work/Pinax.jl/P…</text>
<rect x="250" y="1019" width="1.0" height="11" fill="#4c9f70" rx="2"/>
<text x="256.0" y="1029" fill="#666">0.0</text>
<text x="242" y="1047" text-anchor="end" fill="#333">#= /home/runner/work/Pinax.jl/P…</text>
<rect x="250" y="1037" width="1.0" height="11" fill="#4c9f70" rx="2"/>
<text x="256.0" y="1047" fill="#666">0.0</text>
<text x="242" y="1065" text-anchor="end" fill="#333">#= /home/runner/work/Pinax.jl/P…</text>
<rect x="250" y="1055" width="1.0" height="11" fill="#4c9f70" rx="2"/>
<text x="256.0" y="1065" fill="#666">0.0</text>
<text x="242" y="1083" text-anchor="end" fill="#333">#= /home/runner/work/Pinax.jl/P…</text>
<rect x="250" y="1073" width="1.0" height="11" fill="#4c9f70" rx="2"/>
<text x="256.0" y="1083" fill="#666">0.0</text>
<text x="242" y="1101" text-anchor="end" fill="#333">#= /home/runner/work/Pinax.jl/P…</text>
<rect x="250" y="1091" width="1.0" height="11" fill="#4c9f70" rx="2"/>
<text x="256.0" y="1101" fill="#666">0.0</text>
<text x="242" y="1119" text-anchor="end" fill="#333">occursin(&quot;\&quot;total\&quot;:1&quot;, aj)</text>
<rect x="250" y="1109" width="1.0" height="11" fill="#4c9f70" rx="2"/>
<text x="256.0" y="1119" fill="#666">0.0</text>
<text x="242" y="1137" text-anchor="end" fill="#333">occursin(&quot;\&quot;verdict\&quot;:\&quot;FAIL\&quot;&quot;…</text>
<rect x="250" y="1127" width="1.0" height="11" fill="#4c9f70" rx="2"/>
<text x="256.0" y="1137" fill="#666">0.0</text>
<text x="242" y="1155" text-anchor="end" fill="#333">occursin(&quot;\&quot;failed\&quot;:[\&quot;G\&quot;]&quot;, aj)</text>
<rect x="250" y="1145" width="1.0" height="11" fill="#4c9f70" rx="2"/>
<text x="256.0" y="1155" fill="#666">0.0</text>
<text x="242" y="1173" text-anchor="end" fill="#333">occursin(&quot;\\\&quot;gap\\\&quot;&quot;, aj)</text>
<rect x="250" y="1163" width="1.0" height="11" fill="#4c9f70" rx="2"/>
<text x="256.0" y="1173" fill="#666">0.0</text>
<text x="242" y="1191" text-anchor="end" fill="#333">occursin(&quot;energy \\u0026 &quot;, aj)</text>
<rect x="250" y="1181" width="1.0" height="11" fill="#4c9f70" rx="2"/>
<text x="256.0" y="1191" fill="#666">0.0</text>
<text x="242" y="1209" text-anchor="end" fill="#333">occursin(&quot;\\u003cx\\u003e&quot;, aj)</text>
<rect x="250" y="1199" width="1.0" height="11" fill="#4c9f70" rx="2"/>
<text x="256.0" y="1209" fill="#666">0.0</text>
<text x="242" y="1227" text-anchor="end" fill="#333">occursin(&quot;&amp;amp;&quot;, g)</text>
<rect x="250" y="1217" width="1.0" height="11" fill="#4c9f70" rx="2"/>
<text x="256.0" y="1227" fill="#666">0.0</text>
<text x="242" y="1245" text-anchor="end" fill="#333">occursin(&quot;&amp;lt;&quot;, g)</text>
<rect x="250" y="1235" width="1.0" height="11" fill="#4c9f70" rx="2"/>
<text x="256.0" y="1245" fill="#666">0.0</text>
<text x="242" y="1263" text-anchor="end" fill="#333">!(occursin(&quot;energy &amp; \&quot;gap\&quot; &lt;x…</text>
<rect x="250" y="1253" width="1.0" height="11" fill="#4c9f70" rx="2"/>
<text x="256.0" y="1263" fill="#666">0.0</text>
<text x="242" y="1281" text-anchor="end" fill="#333">occursin(&quot;E\\_1&quot;, lx)</text>
<rect x="250" y="1271" width="1.0" height="11" fill="#4c9f70" rx="2"/>
<text x="256.0" y="1281" fill="#666">0.0</text>
<text x="242" y="1299" text-anchor="end" fill="#333">occursin(&quot;\\&amp;&quot;, lx)</text>
<rect x="250" y="1289" width="1.0" height="11" fill="#4c9f70" rx="2"/>
<text x="256.0" y="1299" fill="#666">0.0</text>
<text x="242" y="1317" text-anchor="end" fill="#333">occursin(&quot;\&quot;total\&quot;:0&quot;, aj)</text>
<rect x="250" y="1307" width="1.0" height="11" fill="#4c9f70" rx="2"/>
<text x="256.0" y="1317" fill="#666">0.0</text>
<text x="242" y="1335" text-anchor="end" fill="#333">occursin(&quot;\&quot;passed\&quot;:0&quot;, aj)</text>
<rect x="250" y="1325" width="1.0" height="11" fill="#4c9f70" rx="2"/>
<text x="256.0" y="1335" fill="#666">0.0</text>
<text x="242" y="1353" text-anchor="end" fill="#333">occursin(&quot;\&quot;verdict\&quot;:\&quot;PASS\&quot;&quot;…</text>
<rect x="250" y="1343" width="1.0" height="11" fill="#4c9f70" rx="2"/>
<text x="256.0" y="1353" fill="#666">0.0</text>
<text x="242" y="1371" text-anchor="end" fill="#333">occursin(&quot;\&quot;failed\&quot;:[]&quot;, aj)</text>
<rect x="250" y="1361" width="1.0" height="11" fill="#4c9f70" rx="2"/>
<text x="256.0" y="1371" fill="#666">0.0</text>
<text x="242" y="1389" text-anchor="end" fill="#333">occursin(&quot;\&quot;checks\&quot;:[]&quot;, aj)</text>
<rect x="250" y="1379" width="1.0" height="11" fill="#4c9f70" rx="2"/>
<text x="256.0" y="1389" fill="#666">0.0</text>
<line x1="508.33333333333337" y1="22" x2="508.33333333333337" y2="1396" stroke="#d9534f" stroke-width="1" stroke-dasharray="3,2"/>
<text x="511.33333333333337" y="1408" fill="#d9534f">tol</text>
<line x1="250" y1="22" x2="250" y2="1396" stroke="#bbb" stroke-width="1"/>
</svg>
