<?xml version="1.0" encoding="utf-8"?>
<svg xmlns="http://www.w3.org/2000/svg" xmlns:xlink="http://www.w3.org/1999/xlink" width="380" height="380" viewBox="0 0 1520 1520">
<defs>
  <clipPath id="clip790">
    <rect x="0" y="0" width="1520" height="1520"/>
  </clipPath>
</defs>
<path clip-path="url(#clip790)" d="M0 1520 L1520 1520 L1520 0 L0 0  Z" fill="#ffffff" fill-rule="evenodd" fill-opacity="1"/>
<defs>
  <clipPath id="clip791">
    <rect x="47" y="153" width="1427" height="1320"/>
  </clipPath>
</defs>
<path clip-path="url(#clip790)" d="M47.2441 1472.76 L1472.76 1472.76 L1472.76 153.712 L47.2441 153.712  Z" fill="#ffffff" fill-rule="evenodd" fill-opacity="1"/>
<path clip-path="url(#clip790)" d="M446.663 12.096 L454.845 12.096 L454.845 37.6572 L481.986 12.096 L492.519 12.096 L462.502 40.2903 L494.666 72.576 L483.89 72.576 L454.845 43.45 L454.845 72.576 L446.663 72.576 L446.663 12.096 Z" fill="#000000" fill-rule="nonzero" fill-opacity="1" /><path clip-path="url(#clip790)" d="M514.191 32.4315 Q508.196 32.4315 504.712 37.1306 Q501.228 41.7891 501.228 49.9314 Q501.228 58.0738 504.672 62.7728 Q508.155 67.4314 514.191 67.4314 Q520.146 67.4314 523.63 62.7323 Q527.114 58.0333 527.114 49.9314 Q527.114 41.8701 523.63 37.1711 Q520.146 32.4315 514.191 32.4315 M514.191 26.1121 Q523.913 26.1121 529.463 32.4315 Q535.013 38.7509 535.013 49.9314 Q535.013 61.0714 529.463 67.4314 Q523.913 73.7508 514.191 73.7508 Q504.428 73.7508 498.879 67.4314 Q493.369 61.0714 493.369 49.9314 Q493.369 38.7509 498.879 32.4315 Q504.428 26.1121 514.191 26.1121 Z" fill="#000000" fill-rule="nonzero" fill-opacity="1" /><path clip-path="url(#clip790)" d="M580.018 28.9478 L580.018 35.9153 Q576.859 34.1734 573.658 33.3227 Q570.499 32.4315 567.258 32.4315 Q560.007 32.4315 555.996 37.0496 Q551.986 41.6271 551.986 49.9314 Q551.986 58.2358 555.996 62.8538 Q560.007 67.4314 567.258 67.4314 Q570.499 67.4314 573.658 66.5807 Q576.859 65.6895 580.018 63.9476 L580.018 70.8341 Q576.899 72.2924 573.537 73.0216 Q570.215 73.7508 566.448 73.7508 Q556.199 73.7508 550.163 67.3098 Q544.127 60.8689 544.127 49.9314 Q544.127 38.832 550.204 32.472 Q556.321 26.1121 566.934 26.1121 Q570.377 26.1121 573.658 26.8413 Q576.94 27.5299 580.018 28.9478 Z" fill="#000000" fill-rule="nonzero" fill-opacity="1" /><path clip-path="url(#clip790)" d="M630.695 45.1919 L630.695 72.576 L623.241 72.576 L623.241 45.4349 Q623.241 38.994 620.73 35.7938 Q618.218 32.5936 613.195 32.5936 Q607.159 32.5936 603.676 36.4419 Q600.192 40.2903 600.192 46.9338 L600.192 72.576 L592.698 72.576 L592.698 9.54393 L600.192 9.54393 L600.192 34.2544 Q602.865 30.163 606.471 28.1376 Q610.117 26.1121 614.856 26.1121 Q622.674 26.1121 626.685 30.9732 Q630.695 35.7938 630.695 45.1919 Z" fill="#000000" fill-rule="nonzero" fill-opacity="1" /><path clip-path="url(#clip790)" d="M700.857 28.5427 L700.857 35.5912 Q697.697 33.9709 694.294 33.1607 Q690.892 32.3505 687.246 32.3505 Q681.696 32.3505 678.901 34.0519 Q676.146 35.7533 676.146 39.156 Q676.146 41.7486 678.131 43.2475 Q680.116 44.7058 686.112 46.0426 L688.664 46.6097 Q696.603 48.3111 699.925 51.4303 Q703.287 54.509 703.287 60.0587 Q703.287 66.3781 698.264 70.0644 Q693.282 73.7508 684.532 73.7508 Q680.886 73.7508 676.916 73.0216 Q672.987 72.3329 668.612 70.9151 L668.612 63.2184 Q672.744 65.3654 676.754 66.4591 Q680.764 67.5124 684.694 67.5124 Q689.96 67.5124 692.795 65.73 Q695.631 63.9071 695.631 60.6258 Q695.631 57.5877 693.565 55.9673 Q691.54 54.3469 684.613 52.8481 L682.02 52.2405 Q675.093 50.7821 672.014 47.7845 Q668.936 44.7463 668.936 39.4801 Q668.936 33.0797 673.473 29.5959 Q678.01 26.1121 686.355 26.1121 Q690.486 26.1121 694.132 26.7198 Q697.778 27.3274 700.857 28.5427 Z" fill="#000000" fill-rule="nonzero" fill-opacity="1" /><path clip-path="url(#clip790)" d="M752.87 45.1919 L752.87 72.576 L745.417 72.576 L745.417 45.4349 Q745.417 38.994 742.905 35.7938 Q740.394 32.5936 735.371 32.5936 Q729.335 32.5936 725.851 36.4419 Q722.367 40.2903 722.367 46.9338 L722.367 72.576 L714.873 72.576 L714.873 27.2059 L722.367 27.2059 L722.367 34.2544 Q725.041 30.163 728.646 28.1376 Q732.292 26.1121 737.031 26.1121 Q744.85 26.1121 748.86 30.9732 Q752.87 35.7938 752.87 45.1919 Z" fill="#000000" fill-rule="nonzero" fill-opacity="1" /><path clip-path="url(#clip790)" d="M785.318 32.4315 Q779.323 32.4315 775.839 37.1306 Q772.355 41.7891 772.355 49.9314 Q772.355 58.0738 775.799 62.7728 Q779.282 67.4314 785.318 67.4314 Q791.273 67.4314 794.757 62.7323 Q798.241 58.0333 798.241 49.9314 Q798.241 41.8701 794.757 37.1711 Q791.273 32.4315 785.318 32.4315 M785.318 26.1121 Q795.04 26.1121 800.59 32.4315 Q806.14 38.7509 806.14 49.9314 Q806.14 61.0714 800.59 67.4314 Q795.04 73.7508 785.318 73.7508 Q775.555 73.7508 770.006 67.4314 Q764.497 61.0714 764.497 49.9314 Q764.497 38.7509 770.006 32.4315 Q775.555 26.1121 785.318 26.1121 Z" fill="#000000" fill-rule="nonzero" fill-opacity="1" /><path clip-path="url(#clip790)" d="M814.161 27.2059 L821.614 27.2059 L830.931 62.6108 L840.208 27.2059 L848.998 27.2059 L858.315 62.6108 L867.592 27.2059 L875.046 27.2059 L863.177 72.576 L854.386 72.576 L844.623 35.3887 L834.82 72.576 L826.03 72.576 L814.161 27.2059 Z" fill="#000000" fill-rule="nonzero" fill-opacity="1" /><path clip-path="url(#clip790)" d="M909.316 9.54393 L909.316 15.7418 L902.187 15.7418 Q898.176 15.7418 896.596 17.3622 Q895.057 18.9825 895.057 23.1955 L895.057 27.2059 L907.331 27.2059 L907.331 32.9987 L895.057 32.9987 L895.057 72.576 L887.563 72.576 L887.563 32.9987 L880.433 32.9987 L880.433 27.2059 L887.563 27.2059 L887.563 24.0462 Q887.563 16.471 891.087 13.0277 Q894.612 9.54393 902.268 9.54393 L909.316 9.54393 Z" fill="#000000" fill-rule="nonzero" fill-opacity="1" /><path clip-path="url(#clip790)" d="M915.555 9.54393 L923.008 9.54393 L923.008 72.576 L915.555 72.576 L915.555 9.54393 Z" fill="#000000" fill-rule="nonzero" fill-opacity="1" /><path clip-path="url(#clip790)" d="M959.223 49.7694 Q950.19 49.7694 946.706 51.8354 Q943.222 53.9013 943.222 58.8839 Q943.222 62.8538 945.815 65.2034 Q948.448 67.5124 952.945 67.5124 Q959.142 67.5124 962.869 63.1374 Q966.637 58.7219 966.637 51.4303 L966.637 49.7694 L959.223 49.7694 M974.09 46.6907 L974.09 72.576 L966.637 72.576 L966.637 65.6895 Q964.085 69.8214 960.277 71.8063 Q956.469 73.7508 950.96 73.7508 Q943.992 73.7508 939.86 69.8619 Q935.769 65.9325 935.769 59.3701 Q935.769 51.7138 940.873 47.825 Q946.018 43.9361 956.185 43.9361 L966.637 43.9361 L966.637 43.2069 Q966.637 38.0623 963.234 35.2672 Q959.872 32.4315 953.755 32.4315 Q949.866 32.4315 946.18 33.3632 Q942.493 34.295 939.09 36.1584 L939.09 29.2718 Q943.182 27.692 947.03 26.9223 Q950.879 26.1121 954.524 26.1121 Q964.368 26.1121 969.229 31.2163 Q974.09 36.3204 974.09 46.6907 Z" fill="#000000" fill-rule="nonzero" fill-opacity="1" /><path clip-path="url(#clip790)" d="M989.16 9.54393 L996.654 9.54393 L996.654 46.7717 L1018.89 27.2059 L1028.41 27.2059 L1004.35 48.4326 L1029.43 72.576 L1019.7 72.576 L996.654 50.4176 L996.654 72.576 L989.16 72.576 L989.16 9.54393 Z" fill="#000000" fill-rule="nonzero" fill-opacity="1" /><path clip-path="url(#clip790)" d="M1073.34 48.0275 L1073.34 51.6733 L1039.07 51.6733 Q1039.55 59.3701 1043.68 63.421 Q1047.86 67.4314 1055.27 67.4314 Q1059.56 67.4314 1063.57 66.3781 Q1067.63 65.3249 1071.6 63.2184 L1071.6 70.267 Q1067.59 71.9684 1063.37 72.8596 Q1059.16 73.7508 1054.82 73.7508 Q1043.97 73.7508 1037.61 67.4314 Q1031.29 61.1119 1031.29 50.3365 Q1031.29 39.1965 1037.28 32.6746 Q1043.32 26.1121 1053.53 26.1121 Q1062.68 26.1121 1067.99 32.0264 Q1073.34 37.9003 1073.34 48.0275 M1065.88 45.84 Q1065.8 39.7232 1062.44 36.0774 Q1059.12 32.4315 1053.61 32.4315 Q1047.37 32.4315 1043.6 35.9558 Q1039.88 39.4801 1039.31 45.8805 L1065.88 45.84 Z" fill="#000000" fill-rule="nonzero" fill-opacity="1" /><polyline clip-path="url(#clip791)" style="stroke:#4682b4; stroke-linecap:round; stroke-linejoin:round; stroke-width:2.4; stroke-opacity:1; fill:none" points="221.167,1124.33 234.472,1124.33 241.124,1135.85 247.776,1124.33 261.081,1124.33 267.733,1135.85 261.081,1147.37 274.385,1147.37 281.038,1158.9 287.69,1147.37 300.994,1147.37 294.342,1135.85 300.994,1124.33 314.299,1124.33 320.951,1135.85 327.603,1124.33 340.908,1124.33 347.56,1135.85 340.908,1147.37 354.212,1147.37 360.865,1158.9 354.212,1170.42 340.908,1170.42 347.56,1181.94 340.908,1193.46 354.212,1193.46 360.865,1204.98 367.517,1193.46 380.821,1193.46 387.474,1204.98 380.821,1216.51 394.126,1216.51 400.778,1228.03 407.43,1216.51 420.735,1216.51 414.083,1204.98 420.735,1193.46 434.039,1193.46 440.692,1204.98 447.344,1193.46 460.648,1193.46 453.996,1181.94 460.648,1170.42 447.344,1170.42 440.692,1158.9 447.344,1147.37 460.648,1147.37 453.996,1135.85 460.648,1124.33 473.953,1124.33 480.605,1135.85 487.257,1124.33 500.562,1124.33 507.214,1135.85 500.562,1147.37 513.867,1147.37 520.519,1158.9 527.171,1147.37 540.476,1147.37 533.823,1135.85 540.476,1124.33 553.78,1124.33 560.432,1135.85 567.085,1124.33 580.389,1124.33 587.041,1135.85 580.389,1147.37 593.694,1147.37 600.346,1158.9 593.694,1170.42 580.389,1170.42 587.041,1181.94 580.389,1193.46 593.694,1193.46 600.346,1204.98 606.998,1193.46 620.303,1193.46 626.955,1204.98 620.303,1216.51 633.607,1216.51 640.259,1228.03 633.607,1239.55 620.303,1239.55 626.955,1251.07 620.303,1262.59 606.998,1262.59 600.346,1251.07 593.694,1262.59 580.389,1262.59 587.041,1274.12 580.389,1285.64 593.694,1285.64 600.346,1297.16 593.694,1308.68 580.389,1308.68 587.041,1320.2 580.389,1331.73 593.694,1331.73 600.346,1343.25 606.998,1331.73 620.303,1331.73 626.955,1343.25 620.303,1354.77 633.607,1354.77 640.259,1366.29 646.912,1354.77 660.216,1354.77 653.564,1343.25 660.216,1331.73 673.521,1331.73 680.173,1343.25 686.825,1331.73 700.13,1331.73 706.782,1343.25 700.13,1354.77 713.434,1354.77 720.086,1366.29 713.434,1377.81 700.13,1377.81 706.782,1389.34 700.13,1400.86 713.434,1400.86 720.086,1412.38 726.739,1400.86 740.043,1400.86 746.695,1412.38 740.043,1423.9 753.348,1423.9 760,1435.42 766.652,1423.9 779.957,1423.9 773.305,1412.38 779.957,1400.86 793.261,1400.86 799.914,1412.38 806.566,1400.86 819.87,1400.86 813.218,1389.34 819.87,1377.81 806.566,1377.81 799.914,1366.29 806.566,1354.77 819.87,1354.77 813.218,1343.25 819.87,1331.73 833.175,1331.73 839.827,1343.25 846.479,1331.73 859.784,1331.73 866.436,1343.25 859.784,1354.77 873.088,1354.77 879.741,1366.29 886.393,1354.77 899.697,1354.77 893.045,1343.25 899.697,1331.73 913.002,1331.73 919.654,1343.25 926.306,1331.73 939.611,1331.73 932.959,1320.2 939.611,1308.68 926.306,1308.68 919.654,1297.16 926.306,1285.64 939.611,1285.64 932.959,1274.12 939.611,1262.59 926.306,1262.59 919.654,1251.07 913.002,1262.59 899.697,1262.59 893.045,1251.07 899.697,1239.55 886.393,1239.55 879.741,1228.03 886.393,1216.51 899.697,1216.51 893.045,1204.98 899.697,1193.46 913.002,1193.46 919.654,1204.98 926.306,1193.46 939.611,1193.46 932.959,1181.94 939.611,1170.42 926.306,1170.42 919.654,1158.9 926.306,1147.37 939.611,1147.37 932.959,1135.85 939.611,1124.33 952.915,1124.33 959.568,1135.85 966.22,1124.33 979.524,1124.33 986.177,1135.85 979.524,1147.37 992.829,1147.37 999.481,1158.9 1006.13,1147.37 1019.44,1147.37 1012.79,1135.85 1019.44,1124.33 1032.74,1124.33 1039.39,1135.85 1046.05,1124.33 1059.35,1124.33 1066,1135.85 1059.35,1147.37 1072.66,1147.37 1079.31,1158.9 1072.66,1170.42 1059.35,1170.42 1066,1181.94 1059.35,1193.46 1072.66,1193.46 1079.31,1204.98 1085.96,1193.46 1099.27,1193.46 1105.92,1204.98 1099.27,1216.51 1112.57,1216.51 1119.22,1228.03 1125.87,1216.51 1139.18,1216.51 1132.53,1204.98 1139.18,1193.46 1152.48,1193.46 1159.14,1204.98 1165.79,1193.46 1179.09,1193.46 1172.44,1181.94 1179.09,1170.42 1165.79,1170.42 1159.14,1158.9 1165.79,1147.37 1179.09,1147.37 1172.44,1135.85 1179.09,1124.33 1192.4,1124.33 1199.05,1135.85 1205.7,1124.33 1219.01,1124.33 1225.66,1135.85 1219.01,1147.37 1232.31,1147.37 1238.96,1158.9 1245.61,1147.37 1258.92,1147.37 1252.27,1135.85 1258.92,1124.33 1272.22,1124.33 1278.88,1135.85 1285.53,1124.33 1298.83,1124.33 1292.18,1112.81 1298.83,1101.29 1285.53,1101.29 1278.88,1089.76 1285.53,1078.24 1298.83,1078.24 1292.18,1066.72 1298.83,1055.2 1285.53,1055.2 1278.88,1043.67 1272.22,1055.2 1258.92,1055.2 1252.27,1043.67 1258.92,1032.15 1245.61,1032.15 1238.96,1020.63 1245.61,1009.11 1258.92,1009.11 1252.27,997.587 1258.92,986.065 1272.22,986.065 1278.88,997.587 1285.53,986.065 1298.83,986.065 1292.18,974.543 1298.83,963.021 1285.53,963.021 1278.88,951.499 1285.53,939.977 1298.83,939.977 1292.18,928.454 1298.83,916.932 1285.53,916.932 1278.88,905.41 1272.22,916.932 1258.92,916.932 1252.27,905.41 1258.92,893.888 1245.61,893.888 1238.96,882.366 1232.31,893.888 1219.01,893.888 1225.66,905.41 1219.01,916.932 1205.7,916.932 1199.05,905.41 1192.4,916.932 1179.09,916.932 1172.44,905.41 1179.09,893.888 1165.79,893.888 1159.14,882.366 1165.79,870.844 1179.09,870.844 1172.44,859.322 1179.09,847.8 1165.79,847.8 1159.14,836.278 1152.48,847.8 1139.18,847.8 1132.53,836.278 1139.18,824.756 1125.87,824.756 1119.22,813.234 1125.87,801.712 1139.18,801.712 1132.53,790.19 1139.18,778.668 1152.48,778.668 1159.14,790.19 1165.79,778.668 1179.09,778.668 1172.44,767.146 1179.09,755.624 1165.79,755.624 1159.14,744.102 1165.79,732.58 1179.09,732.58 1172.44,721.058 1179.09,709.536 1192.4,709.536 1199.05,721.058 1205.7,709.536 1219.01,709.536 1225.66,721.058 1219.01,732.58 1232.31,732.58 1238.96,744.102 1245.61,732.58 1258.92,732.58 1252.27,721.058 1258.92,709.536 1272.22,709.536 1278.88,721.058 1285.53,709.536 1298.83,709.536 1292.18,698.014 1298.83,686.492 1285.53,686.492 1278.88,674.969 1285.53,663.447 1298.83,663.447 1292.18,651.925 1298.83,640.403 1285.53,640.403 1278.88,628.881 1272.22,640.403 1258.92,640.403 1252.27,628.881 1258.92,617.359 1245.61,617.359 1238.96,605.837 1245.61,594.315 1258.92,594.315 1252.27,582.793 1258.92,571.271 1272.22,571.271 1278.88,582.793 1285.53,571.271 1298.83,571.271 1292.18,559.749 1298.83,548.227 1285.53,548.227 1278.88,536.705 1285.53,525.183 1298.83,525.183 1292.18,513.661 1298.83,502.139 1285.53,502.139 1278.88,490.617 1272.22,502.139 1258.92,502.139 1252.27,490.617 1258.92,479.095 1245.61,479.095 1238.96,467.573 1232.31,479.095 1219.01,479.095 1225.66,490.617 1219.01,502.139 1205.7,502.139 1199.05,490.617 1192.4,502.139 1179.09,502.139 1172.44,490.617 1179.09,479.095 1165.79,479.095 1159.14,467.573 1165.79,456.051 1179.09,456.051 1172.44,444.529 1179.09,433.007 1165.79,433.007 1159.14,421.484 1152.48,433.007 1139.18,433.007 1132.53,421.484 1139.18,409.962 1125.87,409.962 1119.22,398.44 1112.57,409.962 1099.27,409.962 1105.92,421.484 1099.27,433.007 1085.96,433.007 1079.31,421.484 1072.66,433.007 1059.35,433.007 1066,444.529 1059.35,456.051 1072.66,456.051 1079.31,467.573 1072.66,479.095 1059.35,479.095 1066,490.617 1059.35,502.139 1046.05,502.139 1039.39,490.617 1032.74,502.139 1019.44,502.139 1012.79,490.617 1019.44,479.095 1006.13,479.095 999.481,467.573 992.829,479.095 979.524,479.095 986.177,490.617 979.524,502.139 966.22,502.139 959.568,490.617 952.915,502.139 939.611,502.139 932.959,490.617 939.611,479.095 926.306,479.095 919.654,467.573 926.306,456.051 939.611,456.051 932.959,444.529 939.611,433.007 926.306,433.007 919.654,421.484 913.002,433.007 899.697,433.007 893.045,421.484 899.697,409.962 886.393,409.962 879.741,398.44 886.393,386.918 899.697,386.918 893.045,375.396 899.697,363.874 913.002,363.874 919.654,375.396 926.306,363.874 939.611,363.874 932.959,352.352 939.611,340.83 926.306,340.83 919.654,329.308 926.306,317.786 939.611,317.786 932.959,306.264 939.611,294.742 926.306,294.742 919.654,283.22 913.002,294.742 899.697,294.742 893.045,283.22 899.697,271.698 886.393,271.698 879.741,260.176 873.088,271.698 859.784,271.698 866.436,283.22 859.784,294.742 846.479,294.742 839.827,283.22 833.175,294.742 819.87,294.742 813.218,283.22 819.87,271.698 806.566,271.698 799.914,260.176 806.566,248.654 819.87,248.654 813.218,237.132 819.87,225.61 806.566,225.61 799.914,214.088 793.261,225.61 779.957,225.61 773.305,214.088 779.957,202.566 766.652,202.566 760,191.044 753.348,202.566 740.043,202.566 746.695,214.088 740.043,225.61 726.739,225.61 720.086,214.088 713.434,225.61 700.13,225.61 706.782,237.132 700.13,248.654 713.434,248.654 720.086,260.176 713.434,271.698 700.13,271.698 706.782,283.22 700.13,294.742 686.825,294.742 680.173,283.22 673.521,294.742 660.216,294.742 653.564,283.22 660.216,271.698 646.912,271.698 640.259,260.176 633.607,271.698 620.303,271.698 626.955,283.22 620.303,294.742 606.998,294.742 600.346,283.22 593.694,294.742 580.389,294.742 587.041,306.264 580.389,317.786 593.694,317.786 600.346,329.308 593.694,340.83 580.389,340.83 587.041,352.352 580.389,363.874 593.694,363.874 600.346,375.396 606.998,363.874 620.303,363.874 626.955,375.396 620.303,386.918 633.607,386.918 640.259,398.44 633.607,409.962 620.303,409.962 626.955,421.484 620.303,433.007 606.998,433.007 600.346,421.484 593.694,433.007 580.389,433.007 587.041,444.529 580.389,456.051 593.694,456.051 600.346,467.573 593.694,479.095 580.389,479.095 587.041,490.617 580.389,502.139 567.085,502.139 560.432,490.617 553.78,502.139 540.476,502.139 533.823,490.617 540.476,479.095 527.171,479.095 520.519,467.573 513.867,479.095 500.562,479.095 507.214,490.617 500.562,502.139 487.257,502.139 480.605,490.617 473.953,502.139 460.648,502.139 453.996,490.617 460.648,479.095 447.344,479.095 440.692,467.573 447.344,456.051 460.648,456.051 453.996,444.529 460.648,433.007 447.344,433.007 440.692,421.484 434.039,433.007 420.735,433.007 414.083,421.484 420.735,409.962 407.43,409.962 400.778,398.44 394.126,409.962 380.821,409.962 387.474,421.484 380.821,433.007 367.517,433.007 360.865,421.484 354.212,433.007 340.908,433.007 347.56,444.529 340.908,456.051 354.212,456.051 360.865,467.573 354.212,479.095 340.908,479.095 347.56,490.617 340.908,502.139 327.603,502.139 320.951,490.617 314.299,502.139 300.994,502.139 294.342,490.617 300.994,479.095 287.69,479.095 281.038,467.573 274.385,479.095 261.081,479.095 267.733,490.617 261.081,502.139 247.776,502.139 241.124,490.617 234.472,502.139 221.167,502.139 227.82,513.661 221.167,525.183 234.472,525.183 241.124,536.705 234.472,548.227 221.167,548.227 227.82,559.749 221.167,571.271 234.472,571.271 241.124,582.793 247.776,571.271 261.081,571.271 267.733,582.793 261.081,594.315 274.385,594.315 281.038,605.837 274.385,617.359 261.081,617.359 267.733,628.881 261.081,640.403 247.776,640.403 241.124,628.881 234.472,640.403 221.167,640.403 227.82,651.925 221.167,663.447 234.472,663.447 241.124,674.969 234.472,686.492 221.167,686.492 227.82,698.014 221.167,709.536 234.472,709.536 241.124,721.058 247.776,709.536 261.081,709.536 267.733,721.058 261.081,732.58 274.385,732.58 281.038,744.102 287.69,732.58 300.994,732.58 294.342,721.058 300.994,709.536 314.299,709.536 320.951,721.058 327.603,709.536 340.908,709.536 347.56,721.058 340.908,732.58 354.212,732.58 360.865,744.102 354.212,755.624 340.908,755.624 347.56,767.146 340.908,778.668 354.212,778.668 360.865,790.19 367.517,778.668 380.821,778.668 387.474,790.19 380.821,801.712 394.126,801.712 400.778,813.234 394.126,824.756 380.821,824.756 387.474,836.278 380.821,847.8 367.517,847.8 360.865,836.278 354.212,847.8 340.908,847.8 347.56,859.322 340.908,870.844 354.212,870.844 360.865,882.366 354.212,893.888 340.908,893.888 347.56,905.41 340.908,916.932 327.603,916.932 320.951,905.41 314.299,916.932 300.994,916.932 294.342,905.41 300.994,893.888 287.69,893.888 281.038,882.366 274.385,893.888 261.081,893.888 267.733,905.41 261.081,916.932 247.776,916.932 241.124,905.41 234.472,916.932 221.167,916.932 227.82,928.454 221.167,939.977 234.472,939.977 241.124,951.499 234.472,963.021 221.167,963.021 227.82,974.543 221.167,986.065 234.472,986.065 241.124,997.587 247.776,986.065 261.081,986.065 267.733,997.587 261.081,1009.11 274.385,1009.11 281.038,1020.63 274.385,1032.15 261.081,1032.15 267.733,1043.67 261.081,1055.2 247.776,1055.2 241.124,1043.67 234.472,1055.2 221.167,1055.2 227.82,1066.72 221.167,1078.24 234.472,1078.24 241.124,1089.76 234.472,1101.29 221.167,1101.29 227.82,1112.81 221.167,1124.33 "/>
</svg>
