<?xml version="1.0" encoding="utf-8"?>
<svg xmlns="http://www.w3.org/2000/svg" xmlns:xlink="http://www.w3.org/1999/xlink" width="420" height="360" viewBox="0 0 1680 1440">
<defs>
  <clipPath id="clip460">
    <rect x="0" y="0" width="1680" height="1440"/>
  </clipPath>
</defs>
<path clip-path="url(#clip460)" d="M0 1440 L1680 1440 L1680 0 L0 0  Z" fill="#ffffff" fill-rule="evenodd" fill-opacity="1"/>
<defs>
  <clipPath id="clip461">
    <rect x="336" y="0" width="1177" height="1177"/>
  </clipPath>
</defs>
<defs>
  <clipPath id="clip462">
    <rect x="211" y="140" width="1422" height="1102"/>
  </clipPath>
</defs>
<path clip-path="url(#clip462)" d="M869.165 738.929 L869.165 718.524 L885.253 708.321 L913.12 714.212 L913.12 734.617 L897.031 744.819 L869.165 738.929  Z" fill="#ffffff" fill-rule="evenodd" fill-opacity="1"/>
<polyline clip-path="url(#clip462)" style="stroke:#000000; stroke-linecap:round; stroke-linejoin:round; stroke-width:2; stroke-opacity:0.1; fill:none" points="611.945,1060.07 929.654,784.928 929.654,234.64 "/>
<polyline clip-path="url(#clip462)" style="stroke:#000000; stroke-linecap:round; stroke-linejoin:round; stroke-width:2; stroke-opacity:0.1; fill:none" points="751.276,1100.29 1068.98,825.149 1068.98,274.861 "/>
<polyline clip-path="url(#clip462)" style="stroke:#000000; stroke-linecap:round; stroke-linejoin:round; stroke-width:2; stroke-opacity:0.1; fill:none" points="890.606,1140.51 1208.32,865.37 1208.32,315.082 "/>
<polyline clip-path="url(#clip462)" style="stroke:#000000; stroke-linecap:round; stroke-linejoin:round; stroke-width:2; stroke-opacity:0.1; fill:none" points="1029.94,1180.74 1347.65,905.592 1347.65,355.304 "/>
<polyline clip-path="url(#clip462)" style="stroke:#000000; stroke-linecap:round; stroke-linejoin:round; stroke-width:2; stroke-opacity:0.1; fill:none" points="1069.21,1156.52 518.918,997.665 518.918,447.377 "/>
<polyline clip-path="url(#clip462)" style="stroke:#000000; stroke-linecap:round; stroke-linejoin:round; stroke-width:2; stroke-opacity:0.1; fill:none" points="1128.11,1105.51 577.822,946.652 577.822,396.364 "/>
<polyline clip-path="url(#clip462)" style="stroke:#000000; stroke-linecap:round; stroke-linejoin:round; stroke-width:2; stroke-opacity:0.1; fill:none" points="1187.01,1054.49 636.726,895.64 636.726,345.351 "/>
<polyline clip-path="url(#clip462)" style="stroke:#000000; stroke-linecap:round; stroke-linejoin:round; stroke-width:2; stroke-opacity:0.1; fill:none" points="1245.92,1003.48 695.631,844.627 695.631,294.339 "/>
<polyline clip-path="url(#clip462)" style="stroke:#000000; stroke-linecap:round; stroke-linejoin:round; stroke-width:2; stroke-opacity:0.1; fill:none" points="1304.82,952.469 754.535,793.614 754.535,243.326 "/>
<polyline clip-path="url(#clip462)" style="stroke:#000000; stroke-linecap:round; stroke-linejoin:round; stroke-width:2; stroke-opacity:0.1; fill:none" points="488.128,1019.41 805.837,744.263 1356.13,903.118 "/>
<polyline clip-path="url(#clip462)" style="stroke:#000000; stroke-linecap:round; stroke-linejoin:round; stroke-width:2; stroke-opacity:0.1; fill:none" points="488.128,908.645 805.837,633.501 1356.13,792.355 "/>
<polyline clip-path="url(#clip462)" style="stroke:#000000; stroke-linecap:round; stroke-linejoin:round; stroke-width:2; stroke-opacity:0.1; fill:none" points="488.128,797.882 805.837,522.738 1356.13,681.593 "/>
<polyline clip-path="url(#clip462)" style="stroke:#000000; stroke-linecap:round; stroke-linejoin:round; stroke-width:2; stroke-opacity:0.1; fill:none" points="488.128,687.12 805.837,411.976 1356.13,570.83 "/>
<polyline clip-path="url(#clip462)" style="stroke:#000000; stroke-linecap:round; stroke-linejoin:round; stroke-width:2; stroke-opacity:0.1; fill:none" points="488.128,576.357 805.837,301.213 1356.13,460.068 "/>
<polyline clip-path="url(#clip460)" style="stroke:#000000; stroke-linecap:round; stroke-linejoin:round; stroke-width:4; stroke-opacity:1; fill:none" points="488.128,1024.33 1038.42,1183.18 "/>
<polyline clip-path="url(#clip460)" style="stroke:#000000; stroke-linecap:round; stroke-linejoin:round; stroke-width:4; stroke-opacity:1; fill:none" points="611.945,1060.07 615.757,1056.77 "/>
<polyline clip-path="url(#clip460)" style="stroke:#000000; stroke-linecap:round; stroke-linejoin:round; stroke-width:4; stroke-opacity:1; fill:none" points="751.276,1100.29 755.088,1096.99 "/>
<polyline clip-path="url(#clip460)" style="stroke:#000000; stroke-linecap:round; stroke-linejoin:round; stroke-width:4; stroke-opacity:1; fill:none" points="890.606,1140.51 894.419,1137.21 "/>
<polyline clip-path="url(#clip460)" style="stroke:#000000; stroke-linecap:round; stroke-linejoin:round; stroke-width:4; stroke-opacity:1; fill:none" points="1029.94,1180.74 1033.75,1177.43 "/>
<path clip-path="url(#clip460)" d="M515.901 1080.25 L545.577 1080.25 L545.577 1084.18 L515.901 1084.18 L515.901 1080.25 Z" fill="#000000" fill-rule="nonzero" fill-opacity="1" /><path clip-path="url(#clip460)" d="M556.48 1093.14 L564.118 1093.14 L564.118 1066.78 L555.808 1068.44 L555.808 1064.18 L564.072 1062.52 L568.748 1062.52 L568.748 1093.14 L576.387 1093.14 L576.387 1097.08 L556.48 1097.08 L556.48 1093.14 Z" fill="#000000" fill-rule="nonzero" fill-opacity="1" /><path clip-path="url(#clip460)" d="M595.831 1065.59 Q592.22 1065.59 590.391 1069.16 Q588.586 1072.7 588.586 1079.83 Q588.586 1086.94 590.391 1090.5 Q592.22 1094.04 595.831 1094.04 Q599.465 1094.04 601.271 1090.5 Q603.1 1086.94 603.1 1079.83 Q603.1 1072.7 601.271 1069.16 Q599.465 1065.59 595.831 1065.59 M595.831 1061.89 Q601.641 1061.89 604.697 1066.5 Q607.776 1071.08 607.776 1079.83 Q607.776 1088.56 604.697 1093.16 Q601.641 1097.75 595.831 1097.75 Q590.021 1097.75 586.942 1093.16 Q583.887 1088.56 583.887 1079.83 Q583.887 1071.08 586.942 1066.5 Q590.021 1061.89 595.831 1061.89 Z" fill="#000000" fill-rule="nonzero" fill-opacity="1" /><path clip-path="url(#clip460)" d="M735.162 1105.82 Q731.551 1105.82 729.722 1109.38 Q727.917 1112.92 727.917 1120.05 Q727.917 1127.16 729.722 1130.72 Q731.551 1134.26 735.162 1134.26 Q738.796 1134.26 740.602 1130.72 Q742.43 1127.16 742.43 1120.05 Q742.43 1112.92 740.602 1109.38 Q738.796 1105.82 735.162 1105.82 M735.162 1102.11 Q740.972 1102.11 744.028 1106.72 Q747.106 1111.3 747.106 1120.05 Q747.106 1128.78 744.028 1133.39 Q740.972 1137.97 735.162 1137.97 Q729.352 1137.97 726.273 1133.39 Q723.218 1128.78 723.218 1120.05 Q723.218 1111.3 726.273 1106.72 Q729.352 1102.11 735.162 1102.11 Z" fill="#000000" fill-rule="nonzero" fill-opacity="1" /><path clip-path="url(#clip460)" d="M835.141 1173.58 L842.78 1173.58 L842.78 1147.22 L834.47 1148.88 L834.47 1144.63 L842.734 1142.96 L847.409 1142.96 L847.409 1173.58 L855.048 1173.58 L855.048 1177.52 L835.141 1177.52 L835.141 1173.58 Z" fill="#000000" fill-rule="nonzero" fill-opacity="1" /><path clip-path="url(#clip460)" d="M874.493 1146.04 Q870.882 1146.04 869.053 1149.6 Q867.247 1153.14 867.247 1160.27 Q867.247 1167.38 869.053 1170.94 Q870.882 1174.49 874.493 1174.49 Q878.127 1174.49 879.932 1170.94 Q881.761 1167.38 881.761 1160.27 Q881.761 1153.14 879.932 1149.6 Q878.127 1146.04 874.493 1146.04 M874.493 1142.33 Q880.303 1142.33 883.358 1146.94 Q886.437 1151.52 886.437 1160.27 Q886.437 1169 883.358 1173.61 Q880.303 1178.19 874.493 1178.19 Q868.683 1178.19 865.604 1173.61 Q862.548 1169 862.548 1160.27 Q862.548 1151.52 865.604 1146.94 Q868.683 1142.33 874.493 1142.33 Z" fill="#000000" fill-rule="nonzero" fill-opacity="1" /><path clip-path="url(#clip460)" d="M977.689 1213.8 L994.009 1213.8 L994.009 1217.74 L972.064 1217.74 L972.064 1213.8 Q974.726 1211.05 979.31 1206.42 Q983.916 1201.77 985.097 1200.43 Q987.342 1197.9 988.222 1196.17 Q989.124 1194.41 989.124 1192.72 Q989.124 1189.96 987.18 1188.23 Q985.259 1186.49 982.157 1186.49 Q979.958 1186.49 977.504 1187.25 Q975.074 1188.02 972.296 1189.57 L972.296 1184.85 Q975.12 1183.71 977.574 1183.13 Q980.027 1182.55 982.064 1182.55 Q987.435 1182.55 990.629 1185.24 Q993.823 1187.93 993.823 1192.42 Q993.823 1194.55 993.013 1196.47 Q992.226 1198.37 990.12 1200.96 Q989.541 1201.63 986.439 1204.85 Q983.337 1208.04 977.689 1213.8 Z" fill="#000000" fill-rule="nonzero" fill-opacity="1" /><path clip-path="url(#clip460)" d="M1013.82 1186.26 Q1010.21 1186.26 1008.38 1189.82 Q1006.58 1193.37 1006.58 1200.49 Q1006.58 1207.6 1008.38 1211.17 Q1010.21 1214.71 1013.82 1214.71 Q1017.46 1214.71 1019.26 1211.17 Q1021.09 1207.6 1021.09 1200.49 Q1021.09 1193.37 1019.26 1189.82 Q1017.46 1186.26 1013.82 1186.26 M1013.82 1182.55 Q1019.63 1182.55 1022.69 1187.16 Q1025.77 1191.74 1025.77 1200.49 Q1025.77 1209.22 1022.69 1213.83 Q1019.63 1218.41 1013.82 1218.41 Q1008.01 1218.41 1004.93 1213.83 Q1001.88 1209.22 1001.88 1200.49 Q1001.88 1191.74 1004.93 1187.16 Q1008.01 1182.55 1013.82 1182.55 Z" fill="#000000" fill-rule="nonzero" fill-opacity="1" /><path clip-path="url(#clip460)" d="M656.767 1248.25 L643.876 1265.6 L657.435 1283.9 L650.529 1283.9 L640.153 1269.9 L629.776 1283.9 L622.87 1283.9 L636.715 1265.25 L624.047 1248.25 L630.954 1248.25 L640.407 1260.95 L649.86 1248.25 L656.767 1248.25 Z" fill="#000000" fill-rule="nonzero" fill-opacity="1" /><polyline clip-path="url(#clip460)" style="stroke:#000000; stroke-linecap:round; stroke-linejoin:round; stroke-width:4; stroke-opacity:1; fill:none" points="1038.42,1183.18 1356.13,908.04 "/>
<polyline clip-path="url(#clip460)" style="stroke:#000000; stroke-linecap:round; stroke-linejoin:round; stroke-width:4; stroke-opacity:1; fill:none" points="1069.21,1156.52 1062.6,1154.61 "/>
<polyline clip-path="url(#clip460)" style="stroke:#000000; stroke-linecap:round; stroke-linejoin:round; stroke-width:4; stroke-opacity:1; fill:none" points="1128.11,1105.51 1121.51,1103.6 "/>
<polyline clip-path="url(#clip460)" style="stroke:#000000; stroke-linecap:round; stroke-linejoin:round; stroke-width:4; stroke-opacity:1; fill:none" points="1187.01,1054.49 1180.41,1052.59 "/>
<polyline clip-path="url(#clip460)" style="stroke:#000000; stroke-linecap:round; stroke-linejoin:round; stroke-width:4; stroke-opacity:1; fill:none" points="1245.92,1003.48 1239.32,1001.58 "/>
<polyline clip-path="url(#clip460)" style="stroke:#000000; stroke-linecap:round; stroke-linejoin:round; stroke-width:4; stroke-opacity:1; fill:none" points="1304.82,952.469 1298.22,950.563 "/>
<path clip-path="url(#clip460)" d="M1080 1174 L1109.68 1174 L1109.68 1177.93 L1080 1177.93 L1080 1174 Z" fill="#000000" fill-rule="nonzero" fill-opacity="1" /><path clip-path="url(#clip460)" d="M1123.8 1186.89 L1140.12 1186.89 L1140.12 1190.82 L1118.17 1190.82 L1118.17 1186.89 Q1120.84 1184.13 1125.42 1179.51 Q1130.03 1174.85 1131.21 1173.51 Q1133.45 1170.99 1134.33 1169.25 Q1135.23 1167.49 1135.23 1165.8 Q1135.23 1163.05 1133.29 1161.31 Q1131.37 1159.57 1128.27 1159.57 Q1126.07 1159.57 1123.61 1160.34 Q1121.18 1161.1 1118.4 1162.65 L1118.4 1157.93 Q1121.23 1156.8 1123.68 1156.22 Q1126.14 1155.64 1128.17 1155.64 Q1133.54 1155.64 1136.74 1158.32 Q1139.93 1161.01 1139.93 1165.5 Q1139.93 1167.63 1139.12 1169.55 Q1138.34 1171.45 1136.23 1174.04 Q1135.65 1174.71 1132.55 1177.93 Q1129.45 1181.13 1123.8 1186.89 Z" fill="#000000" fill-rule="nonzero" fill-opacity="1" /><path clip-path="url(#clip460)" d="M1159.93 1159.34 Q1156.32 1159.34 1154.49 1162.91 Q1152.69 1166.45 1152.69 1173.58 Q1152.69 1180.69 1154.49 1184.25 Q1156.32 1187.79 1159.93 1187.79 Q1163.57 1187.79 1165.37 1184.25 Q1167.2 1180.69 1167.2 1173.58 Q1167.2 1166.45 1165.37 1162.91 Q1163.57 1159.34 1159.93 1159.34 M1159.93 1155.64 Q1165.74 1155.64 1168.8 1160.25 Q1171.88 1164.83 1171.88 1173.58 Q1171.88 1182.31 1168.8 1186.91 Q1165.74 1191.5 1159.93 1191.5 Q1154.12 1191.5 1151.04 1186.91 Q1147.99 1182.31 1147.99 1173.58 Q1147.99 1164.83 1151.04 1160.25 Q1154.12 1155.64 1159.93 1155.64 Z" fill="#000000" fill-rule="nonzero" fill-opacity="1" /><path clip-path="url(#clip460)" d="M1138.91 1122.98 L1168.58 1122.98 L1168.58 1126.92 L1138.91 1126.92 L1138.91 1122.98 Z" fill="#000000" fill-rule="nonzero" fill-opacity="1" /><path clip-path="url(#clip460)" d="M1179.49 1135.88 L1187.12 1135.88 L1187.12 1109.51 L1178.81 1111.18 L1178.81 1106.92 L1187.08 1105.25 L1191.75 1105.25 L1191.75 1135.88 L1199.39 1135.88 L1199.39 1139.81 L1179.49 1139.81 L1179.49 1135.88 Z" fill="#000000" fill-rule="nonzero" fill-opacity="1" /><path clip-path="url(#clip460)" d="M1218.84 1108.33 Q1215.23 1108.33 1213.4 1111.9 Q1211.59 1115.44 1211.59 1122.57 Q1211.59 1129.67 1213.4 1133.24 Q1215.23 1136.78 1218.84 1136.78 Q1222.47 1136.78 1224.28 1133.24 Q1226.11 1129.67 1226.11 1122.57 Q1226.11 1115.44 1224.28 1111.9 Q1222.47 1108.33 1218.84 1108.33 M1218.84 1104.63 Q1224.65 1104.63 1227.7 1109.23 Q1230.78 1113.82 1230.78 1122.57 Q1230.78 1131.29 1227.7 1135.9 Q1224.65 1140.48 1218.84 1140.48 Q1213.03 1140.48 1209.95 1135.9 Q1206.89 1131.29 1206.89 1122.57 Q1206.89 1113.82 1209.95 1109.23 Q1213.03 1104.63 1218.84 1104.63 Z" fill="#000000" fill-rule="nonzero" fill-opacity="1" /><path clip-path="url(#clip460)" d="M1209.76 1057.32 Q1206.14 1057.32 1204.32 1060.88 Q1202.51 1064.42 1202.51 1071.55 Q1202.51 1078.66 1204.32 1082.23 Q1206.14 1085.77 1209.76 1085.77 Q1213.39 1085.77 1215.2 1082.23 Q1217.02 1078.66 1217.02 1071.55 Q1217.02 1064.42 1215.2 1060.88 Q1213.39 1057.32 1209.76 1057.32 M1209.76 1053.61 Q1215.57 1053.61 1218.62 1058.22 Q1221.7 1062.8 1221.7 1071.55 Q1221.7 1080.28 1218.62 1084.89 Q1215.57 1089.47 1209.76 1089.47 Q1203.95 1089.47 1200.87 1084.89 Q1197.81 1080.28 1197.81 1071.55 Q1197.81 1062.8 1200.87 1058.22 Q1203.95 1053.61 1209.76 1053.61 Z" fill="#000000" fill-rule="nonzero" fill-opacity="1" /><path clip-path="url(#clip460)" d="M1257.39 1033.85 L1265.03 1033.85 L1265.03 1007.49 L1256.72 1009.15 L1256.72 1004.89 L1264.98 1003.23 L1269.66 1003.23 L1269.66 1033.85 L1277.29 1033.85 L1277.29 1037.79 L1257.39 1037.79 L1257.39 1033.85 Z" fill="#000000" fill-rule="nonzero" fill-opacity="1" /><path clip-path="url(#clip460)" d="M1296.74 1006.31 Q1293.13 1006.31 1291.3 1009.87 Q1289.49 1013.41 1289.49 1020.54 Q1289.49 1027.65 1291.3 1031.21 Q1293.13 1034.75 1296.74 1034.75 Q1300.37 1034.75 1302.18 1031.21 Q1304.01 1027.65 1304.01 1020.54 Q1304.01 1013.41 1302.18 1009.87 Q1300.37 1006.31 1296.74 1006.31 M1296.74 1002.6 Q1302.55 1002.6 1305.6 1007.21 Q1308.68 1011.79 1308.68 1020.54 Q1308.68 1029.27 1305.6 1033.87 Q1302.55 1038.46 1296.74 1038.46 Q1290.93 1038.46 1287.85 1033.87 Q1284.79 1029.27 1284.79 1020.54 Q1284.79 1011.79 1287.85 1007.21 Q1290.93 1002.6 1296.74 1002.6 Z" fill="#000000" fill-rule="nonzero" fill-opacity="1" /><path clip-path="url(#clip460)" d="M1321.24 982.839 L1337.56 982.839 L1337.56 986.774 L1315.62 986.774 L1315.62 982.839 Q1318.28 980.084 1322.87 975.455 Q1327.47 970.802 1328.65 969.459 Q1330.9 966.936 1331.78 965.2 Q1332.68 963.441 1332.68 961.751 Q1332.68 958.996 1330.74 957.26 Q1328.81 955.524 1325.71 955.524 Q1323.51 955.524 1321.06 956.288 Q1318.63 957.052 1315.85 958.603 L1315.85 953.881 Q1318.68 952.746 1321.13 952.168 Q1323.58 951.589 1325.62 951.589 Q1330.99 951.589 1334.18 954.274 Q1337.38 956.959 1337.38 961.45 Q1337.38 963.58 1336.57 965.501 Q1335.78 967.399 1333.68 969.992 Q1333.1 970.663 1329.99 973.881 Q1326.89 977.075 1321.24 982.839 Z" fill="#000000" fill-rule="nonzero" fill-opacity="1" /><path clip-path="url(#clip460)" d="M1357.38 955.293 Q1353.77 955.293 1351.94 958.858 Q1350.13 962.399 1350.13 969.529 Q1350.13 976.635 1351.94 980.2 Q1353.77 983.742 1357.38 983.742 Q1361.01 983.742 1362.82 980.2 Q1364.65 976.635 1364.65 969.529 Q1364.65 962.399 1362.82 958.858 Q1361.01 955.293 1357.38 955.293 M1357.38 951.589 Q1363.19 951.589 1366.24 956.195 Q1369.32 960.779 1369.32 969.529 Q1369.32 978.256 1366.24 982.862 Q1363.19 987.445 1357.38 987.445 Q1351.57 987.445 1348.49 982.862 Q1345.43 978.256 1345.43 969.529 Q1345.43 960.779 1348.49 956.195 Q1351.57 951.589 1357.38 951.589 Z" fill="#000000" fill-rule="nonzero" fill-opacity="1" /><path clip-path="url(#clip460)" d="M1322.08 1229.07 Q1319.6 1235.43 1317.24 1237.37 Q1314.88 1239.31 1310.94 1239.31 L1306.26 1239.31 L1306.26 1234.41 L1309.7 1234.41 Q1312.12 1234.41 1313.45 1233.27 Q1314.79 1232.12 1316.41 1227.86 L1317.46 1225.18 L1303.04 1190.11 L1309.25 1190.11 L1320.39 1217.99 L1331.53 1190.11 L1337.74 1190.11 L1322.08 1229.07 Z" fill="#000000" fill-rule="nonzero" fill-opacity="1" /><polyline clip-path="url(#clip460)" style="stroke:#000000; stroke-linecap:round; stroke-linejoin:round; stroke-width:4; stroke-opacity:1; fill:none" points="488.128,1024.33 488.128,474.041 "/>
<polyline clip-path="url(#clip460)" style="stroke:#000000; stroke-linecap:round; stroke-linejoin:round; stroke-width:4; stroke-opacity:1; fill:none" points="488.128,1019.41 491.941,1016.11 "/>
<polyline clip-path="url(#clip460)" style="stroke:#000000; stroke-linecap:round; stroke-linejoin:round; stroke-width:4; stroke-opacity:1; fill:none" points="488.128,908.645 491.941,905.343 "/>
<polyline clip-path="url(#clip460)" style="stroke:#000000; stroke-linecap:round; stroke-linejoin:round; stroke-width:4; stroke-opacity:1; fill:none" points="488.128,797.882 491.941,794.581 "/>
<polyline clip-path="url(#clip460)" style="stroke:#000000; stroke-linecap:round; stroke-linejoin:round; stroke-width:4; stroke-opacity:1; fill:none" points="488.128,687.12 491.941,683.818 "/>
<polyline clip-path="url(#clip460)" style="stroke:#000000; stroke-linecap:round; stroke-linejoin:round; stroke-width:4; stroke-opacity:1; fill:none" points="488.128,576.357 491.941,573.056 "/>
<path clip-path="url(#clip460)" d="M456.024 1005.21 Q452.413 1005.21 450.584 1008.77 Q448.779 1012.31 448.779 1019.44 Q448.779 1026.55 450.584 1030.11 Q452.413 1033.65 456.024 1033.65 Q459.658 1033.65 461.464 1030.11 Q463.293 1026.55 463.293 1019.44 Q463.293 1012.31 461.464 1008.77 Q459.658 1005.21 456.024 1005.21 M456.024 1001.5 Q461.834 1001.5 464.89 1006.11 Q467.968 1010.69 467.968 1019.44 Q467.968 1028.17 464.89 1032.78 Q461.834 1037.36 456.024 1037.36 Q450.214 1037.36 447.135 1032.78 Q444.08 1028.17 444.08 1019.44 Q444.08 1010.69 447.135 1006.11 Q450.214 1001.5 456.024 1001.5 Z" fill="#000000" fill-rule="nonzero" fill-opacity="1" /><path clip-path="url(#clip460)" d="M416.672 921.99 L424.311 921.99 L424.311 895.624 L416.001 897.291 L416.001 893.031 L424.265 891.365 L428.941 891.365 L428.941 921.99 L436.58 921.99 L436.58 925.925 L416.672 925.925 L416.672 921.99 Z" fill="#000000" fill-rule="nonzero" fill-opacity="1" /><path clip-path="url(#clip460)" d="M456.024 894.444 Q452.413 894.444 450.584 898.008 Q448.779 901.55 448.779 908.68 Q448.779 915.786 450.584 919.351 Q452.413 922.892 456.024 922.892 Q459.658 922.892 461.464 919.351 Q463.293 915.786 463.293 908.68 Q463.293 901.55 461.464 898.008 Q459.658 894.444 456.024 894.444 M456.024 890.74 Q461.834 890.74 464.89 895.346 Q467.968 899.93 467.968 908.68 Q467.968 917.406 464.89 922.013 Q461.834 926.596 456.024 926.596 Q450.214 926.596 447.135 922.013 Q444.08 917.406 444.08 908.68 Q444.08 899.93 447.135 895.346 Q450.214 890.74 456.024 890.74 Z" fill="#000000" fill-rule="nonzero" fill-opacity="1" /><path clip-path="url(#clip460)" d="M419.89 811.227 L436.209 811.227 L436.209 815.162 L414.265 815.162 L414.265 811.227 Q416.927 808.473 421.51 803.843 Q426.117 799.19 427.297 797.848 Q429.543 795.324 430.422 793.588 Q431.325 791.829 431.325 790.139 Q431.325 787.385 429.381 785.649 Q427.459 783.912 424.358 783.912 Q422.158 783.912 419.705 784.676 Q417.274 785.44 414.496 786.991 L414.496 782.269 Q417.321 781.135 419.774 780.556 Q422.228 779.977 424.265 779.977 Q429.635 779.977 432.83 782.662 Q436.024 785.348 436.024 789.838 Q436.024 791.968 435.214 793.889 Q434.427 795.787 432.32 798.38 Q431.742 799.051 428.64 802.269 Q425.538 805.463 419.89 811.227 Z" fill="#000000" fill-rule="nonzero" fill-opacity="1" /><path clip-path="url(#clip460)" d="M456.024 783.681 Q452.413 783.681 450.584 787.246 Q448.779 790.787 448.779 797.917 Q448.779 805.023 450.584 808.588 Q452.413 812.13 456.024 812.13 Q459.658 812.13 461.464 808.588 Q463.293 805.023 463.293 797.917 Q463.293 790.787 461.464 787.246 Q459.658 783.681 456.024 783.681 M456.024 779.977 Q461.834 779.977 464.89 784.584 Q467.968 789.167 467.968 797.917 Q467.968 806.644 464.89 811.25 Q461.834 815.834 456.024 815.834 Q450.214 815.834 447.135 811.25 Q444.08 806.644 444.08 797.917 Q444.08 789.167 447.135 784.584 Q450.214 779.977 456.024 779.977 Z" fill="#000000" fill-rule="nonzero" fill-opacity="1" /><path clip-path="url(#clip460)" d="M430.029 685.766 Q433.385 686.483 435.26 688.752 Q437.158 691.02 437.158 694.354 Q437.158 699.469 433.64 702.27 Q430.121 705.071 423.64 705.071 Q421.464 705.071 419.149 704.631 Q416.858 704.215 414.404 703.358 L414.404 698.844 Q416.348 699.979 418.663 700.557 Q420.978 701.136 423.501 701.136 Q427.899 701.136 430.191 699.4 Q432.506 697.664 432.506 694.354 Q432.506 691.298 430.353 689.585 Q428.223 687.849 424.404 687.849 L420.376 687.849 L420.376 684.006 L424.589 684.006 Q428.038 684.006 429.867 682.641 Q431.695 681.252 431.695 678.659 Q431.695 675.997 429.797 674.585 Q427.922 673.15 424.404 673.15 Q422.483 673.15 420.284 673.567 Q418.084 673.983 415.446 674.863 L415.446 670.696 Q418.108 669.956 420.422 669.585 Q422.76 669.215 424.821 669.215 Q430.145 669.215 433.246 671.645 Q436.348 674.053 436.348 678.173 Q436.348 681.043 434.705 683.034 Q433.061 685.002 430.029 685.766 Z" fill="#000000" fill-rule="nonzero" fill-opacity="1" /><path clip-path="url(#clip460)" d="M456.024 672.918 Q452.413 672.918 450.584 676.483 Q448.779 680.025 448.779 687.155 Q448.779 694.261 450.584 697.826 Q452.413 701.367 456.024 701.367 Q459.658 701.367 461.464 697.826 Q463.293 694.261 463.293 687.155 Q463.293 680.025 461.464 676.483 Q459.658 672.918 456.024 672.918 M456.024 669.215 Q461.834 669.215 464.89 673.821 Q467.968 678.405 467.968 687.155 Q467.968 695.881 464.89 700.488 Q461.834 705.071 456.024 705.071 Q450.214 705.071 447.135 700.488 Q444.08 695.881 444.08 687.155 Q444.08 678.405 447.135 673.821 Q450.214 669.215 456.024 669.215 Z" fill="#000000" fill-rule="nonzero" fill-opacity="1" /><path clip-path="url(#clip460)" d="M428.709 563.151 L416.904 581.6 L428.709 581.6 L428.709 563.151 M427.483 559.077 L433.362 559.077 L433.362 581.6 L438.293 581.6 L438.293 585.489 L433.362 585.489 L433.362 593.637 L428.709 593.637 L428.709 585.489 L413.108 585.489 L413.108 580.975 L427.483 559.077 Z" fill="#000000" fill-rule="nonzero" fill-opacity="1" /><path clip-path="url(#clip460)" d="M456.024 562.156 Q452.413 562.156 450.584 565.721 Q448.779 569.262 448.779 576.392 Q448.779 583.498 450.584 587.063 Q452.413 590.605 456.024 590.605 Q459.658 590.605 461.464 587.063 Q463.293 583.498 463.293 576.392 Q463.293 569.262 461.464 565.721 Q459.658 562.156 456.024 562.156 M456.024 558.452 Q461.834 558.452 464.89 563.059 Q467.968 567.642 467.968 576.392 Q467.968 585.119 464.89 589.725 Q461.834 594.309 456.024 594.309 Q450.214 594.309 447.135 589.725 Q444.08 585.119 444.08 576.392 Q444.08 567.642 447.135 563.059 Q450.214 558.452 456.024 558.452 Z" fill="#000000" fill-rule="nonzero" fill-opacity="1" /><path clip-path="url(#clip460)" d="M332.964 762.696 L332.964 734.878 L338.311 734.878 L363.933 756.903 L363.933 734.878 L368.612 734.878 L368.612 763.492 L363.264 763.492 L337.642 741.467 L337.642 762.696 L332.964 762.696 Z" fill="#000000" fill-rule="nonzero" fill-opacity="1" /><path clip-path="url(#clip460)" d="M704.674 12.096 L712.857 12.096 L712.857 65.6895 L742.307 65.6895 L742.307 72.576 L704.674 72.576 L704.674 12.096 Z" fill="#000000" fill-rule="nonzero" fill-opacity="1" /><path clip-path="url(#clip460)" d="M766.694 32.4315 Q760.698 32.4315 757.215 37.1306 Q753.731 41.7891 753.731 49.9314 Q753.731 58.0738 757.174 62.7728 Q760.658 67.4314 766.694 67.4314 Q772.649 67.4314 776.132 62.7323 Q779.616 58.0333 779.616 49.9314 Q779.616 41.8701 776.132 37.1711 Q772.649 32.4315 766.694 32.4315 M766.694 26.1121 Q776.416 26.1121 781.966 32.4315 Q787.515 38.7509 787.515 49.9314 Q787.515 61.0714 781.966 67.4314 Q776.416 73.7508 766.694 73.7508 Q756.931 73.7508 751.381 67.4314 Q745.872 61.0714 745.872 49.9314 Q745.872 38.7509 751.381 32.4315 Q756.931 26.1121 766.694 26.1121 Z" fill="#000000" fill-rule="nonzero" fill-opacity="1" /><path clip-path="url(#clip460)" d="M826.161 34.1734 Q824.905 33.4443 823.406 33.1202 Q821.948 32.7556 820.166 32.7556 Q813.846 32.7556 810.444 36.8875 Q807.081 40.9789 807.081 48.6757 L807.081 72.576 L799.587 72.576 L799.587 27.2059 L807.081 27.2059 L807.081 34.2544 Q809.431 30.1225 813.198 28.1376 Q816.966 26.1121 822.353 26.1121 Q823.123 26.1121 824.055 26.2337 Q824.986 26.3147 826.121 26.5172 L826.161 34.1734 Z" fill="#000000" fill-rule="nonzero" fill-opacity="1" /><path clip-path="url(#clip460)" d="M870.964 48.0275 L870.964 51.6733 L836.693 51.6733 Q837.18 59.3701 841.311 63.421 Q845.484 67.4314 852.897 67.4314 Q857.191 67.4314 861.201 66.3781 Q865.252 65.3249 869.222 63.2184 L869.222 70.267 Q865.212 71.9684 860.999 72.8596 Q856.786 73.7508 852.451 73.7508 Q841.595 73.7508 835.235 67.4314 Q828.916 61.1119 828.916 50.3365 Q828.916 39.1965 834.911 32.6746 Q840.947 26.1121 851.155 26.1121 Q860.31 26.1121 865.617 32.0264 Q870.964 37.9003 870.964 48.0275 M863.51 45.84 Q863.429 39.7232 860.067 36.0774 Q856.745 32.4315 851.236 32.4315 Q844.998 32.4315 841.23 35.9558 Q837.504 39.4801 836.936 45.8805 L863.51 45.84 Z" fill="#000000" fill-rule="nonzero" fill-opacity="1" /><path clip-path="url(#clip460)" d="M920.912 45.1919 L920.912 72.576 L913.458 72.576 L913.458 45.4349 Q913.458 38.994 910.947 35.7938 Q908.435 32.5936 903.412 32.5936 Q897.376 32.5936 893.892 36.4419 Q890.408 40.2903 890.408 46.9338 L890.408 72.576 L882.914 72.576 L882.914 27.2059 L890.408 27.2059 L890.408 34.2544 Q893.082 30.163 896.687 28.1376 Q900.333 26.1121 905.073 26.1121 Q912.891 26.1121 916.901 30.9732 Q920.912 35.7938 920.912 45.1919 Z" fill="#000000" fill-rule="nonzero" fill-opacity="1" /><path clip-path="url(#clip460)" d="M932.538 27.2059 L967.943 27.2059 L967.943 34.0114 L939.91 66.6212 L967.943 66.6212 L967.943 72.576 L931.525 72.576 L931.525 65.7705 L959.557 33.1607 L932.538 33.1607 L932.538 27.2059 Z" fill="#000000" fill-rule="nonzero" fill-opacity="1" /><path clip-path="url(#clip460)" d="M1031.54 39.9662 Q1037.42 41.222 1040.7 45.1919 Q1044.02 49.1618 1044.02 54.9951 Q1044.02 63.9476 1037.86 68.8492 Q1031.7 73.7508 1020.36 73.7508 Q1016.55 73.7508 1012.5 72.9811 Q1008.49 72.2519 1004.2 70.7531 L1004.2 62.8538 Q1007.6 64.8388 1011.65 65.8515 Q1015.7 66.8642 1020.12 66.8642 Q1027.82 66.8642 1031.83 63.826 Q1035.88 60.7879 1035.88 54.9951 Q1035.88 49.6479 1032.11 46.6502 Q1028.38 43.612 1021.7 43.612 L1014.65 43.612 L1014.65 36.8875 L1022.02 36.8875 Q1028.06 36.8875 1031.26 34.4975 Q1034.46 32.067 1034.46 27.5299 Q1034.46 22.8714 1031.14 20.4004 Q1027.86 17.8888 1021.7 17.8888 Q1018.34 17.8888 1014.49 18.618 Q1010.64 19.3471 1006.02 20.8865 L1006.02 13.5948 Q1010.68 12.2985 1014.73 11.6504 Q1018.82 11.0023 1022.43 11.0023 Q1031.74 11.0023 1037.17 15.2557 Q1042.6 19.4686 1042.6 26.6793 Q1042.6 31.7024 1039.72 35.1862 Q1036.85 38.6294 1031.54 39.9662 Z" fill="#000000" fill-rule="nonzero" fill-opacity="1" /><path clip-path="url(#clip460)" d="M1054.71 46.5287 L1076.55 46.5287 L1076.55 53.1722 L1054.71 53.1722 L1054.71 46.5287 Z" fill="#000000" fill-rule="nonzero" fill-opacity="1" /><path clip-path="url(#clip460)" d="M1096.92 18.8205 L1096.92 65.8515 L1106.81 65.8515 Q1119.33 65.8515 1125.12 60.1802 Q1130.95 54.509 1130.95 42.2752 Q1130.95 30.1225 1125.12 24.4918 Q1119.33 18.8205 1106.81 18.8205 L1096.92 18.8205 M1088.74 12.096 L1105.55 12.096 Q1123.13 12.096 1131.36 19.4281 Q1139.58 26.7198 1139.58 42.2752 Q1139.58 57.9117 1131.32 65.2439 Q1123.05 72.576 1105.55 72.576 L1088.74 72.576 L1088.74 12.096 Z" fill="#000000" fill-rule="nonzero" fill-opacity="1" /><polyline clip-path="url(#clip462)" style="stroke:#009af9; stroke-linecap:round; stroke-linejoin:round; stroke-width:1.6; stroke-opacity:1; fill:none" points="919.697,954.527 923.464,952.348 928.713,950.15 935.644,947.609 944.574,944.395 955.932,940.115 970.267,934.262 988.249,926.146 1010.65,914.804 1038.29,898.904 1071.91,876.652 1111.85,845.79 1157.58,803.821 1206.81,748.78 1254.53,680.866 1292.45,604.876 1310.16,532.077 1299.08,478.379 1257.76,456.892 1193.96,469.307 1120.66,504.848 1049.56,548.173 987.429,587.841 936.404,619 895.941,641.51 864.428,657.24 840.064,668.336 821.202,676.515 806.462,682.935 794.723,688.292 785.101,692.947 776.913,697.047 769.643,700.608 762.917,703.572 756.475,705.841 750.155,707.305 743.881,707.855 737.65,707.392 731.521,705.848 725.61,703.186 720.077,699.42 715.115,694.625 710.933,688.942 707.735,682.587 705.7,675.842 704.959,669.044 705.572,662.561 707.519,656.757 710.696,651.959 714.921,648.426 719.953,646.325 725.512,645.721 731.308,646.582 737.059,648.794 742.512,652.18 747.453,656.526 751.713,661.601 755.167,667.171 757.729,673.015 759.351,678.928 760.01,684.721 759.709,690.226 758.472,695.288 756.337,699.767 753.362,703.531 749.622,706.458 745.21,708.433 740.246,709.353 734.875,709.132 729.271,707.706 723.64,705.046 718.214,701.173 713.247,696.164 708.998,690.171 705.718,683.423 703.623,676.224 702.873,668.939 703.55,661.967 705.645,655.709 709.052,650.524 713.581,646.696 718.974,644.408 724.928,643.731 731.131,644.627 737.28,646.97 743.105,650.565 748.379,655.18 752.925,660.563 756.613,666.466 759.357,672.654 761.107,678.911 761.843,685.043 761.57,690.873 760.313,696.245 758.112,701.012 755.024,705.039 751.124,708.2 746.507,710.373 741.292,711.447 735.626,711.326 729.688,709.937 723.693,707.238 717.883,703.239 712.529,698.011 707.912,691.705 704.305,684.554 701.948,676.878 701.025,669.067 701.634,661.555 703.773,654.779 707.336,649.135 712.121,644.941 717.848,642.401 724.192,641.594 730.812,642.481 737.382,644.924 743.609,648.71 749.252,653.584 754.123,659.278 758.084,665.524 761.048,672.072 762.964,678.695 763.814,685.191 763.604,691.377 762.359,697.092 760.12,702.187 756.945,706.521 752.907,709.963 748.1,712.386 742.642,713.67 736.681,713.707 730.398,712.412 724.013,709.729 717.782,705.655 711.99,700.247 706.94,693.65 702.931,686.1 700.234,677.927 699.058,669.547 699.526,661.427 701.65,654.05 705.326,647.855 710.343,643.199 716.402,640.315 723.15,639.299 730.217,640.114 737.249,642.609 743.928,646.555 749.994,651.675 755.244,657.676 759.535,664.272 762.772,671.197 764.907,678.21 765.92,685.099 765.819,691.677 764.63,697.776 762.395,703.244 759.169,707.936 755.025,711.716 750.053,714.45 744.369,716.011 738.119,716.279 731.485,715.152 724.691,712.56 717.999,708.479 711.712,702.951 706.155,696.105 701.656,688.173 698.519,679.494 696.988,670.503 697.217,661.705 699.24,653.628 702.964,646.766 708.171,641.526 714.545,638.179 721.707,636.847 729.252,637.5 736.792,639.979 743.982,644.038 750.536,649.376 756.234,655.675 760.922,662.626 764.502,669.944 766.921,677.372 768.16,684.687 768.228,691.696 767.151,698.224 764.972,704.116 761.745,709.225 757.538,713.409 752.439,716.528 746.559,718.447 740.038,719.034 733.057,718.17 725.838,715.765 718.651,711.772 711.81,706.209 705.663,699.183 700.568,690.913 696.868,681.735 694.851,672.101 694.709,662.551 696.512,653.664 700.186,645.996 705.515,640.015 712.17,636.049 719.742,634.255 727.792,634.62 735.892,636.986 743.66,641.087 750.78,646.599 757.011,653.175 762.184,660.479 766.191,668.202 768.976,676.07 770.52,683.848 770.833,691.33 769.941,698.339 767.887,704.714 764.723,710.306 760.514,714.969 755.342,718.56 749.31,720.933 742.553,721.945 735.243,721.461 727.597,719.367 719.888,715.587 712.437,710.11 705.611,703.01 699.801,694.48 695.391,684.842 692.72,674.555 692.035,664.187 693.452,654.369 696.933,645.73 702.276,638.815 709.146,634.025 717.106,631.573 725.678,631.478 734.388,633.588 742.811,637.626 750.591,643.241 757.459,650.055 763.223,657.699 767.764,665.834 771.02,674.167 772.97,682.442 773.624,690.446 773.009,697.992 771.168,704.916 768.152,711.065 764.021,716.293 758.851,720.452 752.736,723.39 745.799,724.954 738.199,724.99 730.146,723.362 721.904,719.96 713.798,714.733 706.208,707.715 699.552,699.056 694.261,689.047 690.731,678.136 689.277,666.907 690.084,656.042 693.165,646.246 698.354,638.162 705.32,632.285 713.609,628.91 722.7,628.113 732.066,629.763 741.226,633.58 749.777,639.186 757.406,646.169 763.895,654.12 769.105,662.665 772.964,671.481 775.448,680.291 776.564,688.866 776.344,697.01 774.83,704.554 772.07,711.344 768.124,717.231 763.058,722.067 756.955,725.696 749.924,727.955 742.108,728.678 733.697,727.702 724.943,724.885 716.161,720.13 707.735,713.413 700.106,704.828 693.745,694.612 689.114,683.175 686.609,671.098 686.501,659.097 688.889,647.954 693.668,638.424 700.535,631.128 709.029,626.48 718.591,624.642 728.638,625.536 738.618,628.892 748.063,634.314 756.605,641.349 763.984,649.541 770.033,658.473 774.663,667.781 777.842,677.159 779.578,686.355 779.902,695.162 778.859,703.404 776.497,710.923 772.873,717.571 768.045,723.202 762.087,727.658 755.088,730.774 747.169,732.372 738.498,732.269 729.299,730.288 719.866,726.284 710.572,720.169 701.866,711.958 694.25,701.807 688.249,690.055 684.349,677.242 682.935,664.089 684.222,651.442 688.206,640.172 694.651,631.059 703.119,624.677 713.025,621.331 723.725,621.038 734.586,623.57 745.055,628.525 754.687,635.414 763.159,643.725 770.261,652.983 775.878,662.769 779.963,672.736 782.519,682.602 783.58,692.139 783.192,701.158 781.408,709.501 778.282,717.018 773.87,723.567 768.231,728.996 761.439,733.14 753.59,735.817 744.818,736.831 735.31,735.979 725.323,733.067 715.201,727.938 705.375,720.516 696.36,710.848 688.727,699.161 683.052,685.897 679.85,671.73 679.488,657.529 682.119,644.266 687.632,632.897 695.66,624.21 705.63,618.72 716.846,616.614 728.588,617.764 740.191,621.8 751.105,628.204 760.914,636.406 769.34,645.856 776.221,656.063 781.486,666.618 785.126,677.19 787.174,687.52 787.68,697.401 786.703,706.664 784.302,715.162 780.53,722.756 775.441,729.302 769.091,734.646 761.55,738.611 752.916,740.999 743.329,741.59 732.995,740.157 722.2,736.479 711.331,730.384 700.878,721.789 691.425,710.767 683.615,697.602 678.09,682.837 675.398,667.277 675.903,651.939 679.702,637.932 686.589,626.299 696.071,617.849 707.446,613.044 719.914,611.961 732.68,614.337 745.048,619.673 756.468,627.345 766.551,636.713 775.057,647.189 781.865,658.272 786.941,669.558 790.309,680.733 792.024,691.557 792.155,701.84 790.767,711.432 787.923,720.196 783.674,728.002 778.067,734.71 771.15,740.159 762.987,744.164 753.667,746.51 743.33,746.952 732.187,745.231 720.541,741.092 708.813,734.326 697.543,724.826 687.386,712.658 679.065,698.134 673.303,681.871 670.714,664.792 671.69,648.064 676.309,632.953 684.293,620.622 695.044,611.942 707.737,607.363 721.46,606.884 735.334,610.13 748.616,616.48 760.74,625.209 771.327,635.602 780.162,647.025 787.154,658.957 792.302,670.992 795.658,682.825 797.298,694.228 797.305,705.029 795.756,715.09 792.713,724.291 788.225,732.509 782.332,739.611 775.07,745.439 766.485,749.802 756.65,752.473 745.688,753.184 733.793,751.641 721.266,747.542 708.535,740.619 696.171,730.701 684.887,717.795 675.494,702.18 668.824,684.485 665.606,665.706 666.331,647.153 671.13,630.277 679.719,616.437 691.43,606.659 705.325,601.47 720.363,600.865 735.549,604.397 750.051,611.336 763.249,620.842 774.743,632.104 784.318,644.416 791.901,657.216 797.516,670.073 801.237,682.678 803.165,694.806 803.401,706.297 802.034,717.028 799.134,726.891 794.749,735.782 788.91,743.581 781.639,750.141 772.959,755.28 762.912,758.77 751.582,760.332 739.12,759.643 725.784,756.349 711.964,750.102 698.218,740.62 685.277,727.774 674.024,711.705 665.421,692.929 660.381,672.406 659.604,651.521 663.413,631.926 671.649,615.278 683.671,602.924 698.466,595.658 714.845,593.626 731.636,596.403 747.839,603.18 762.707,612.987 775.753,624.867 786.721,637.991 795.526,651.7 802.201,665.504 806.845,679.057 809.584,692.123 810.545,704.541 809.842,716.198 807.559,727.005 803.755,736.878 798.461,745.724 791.687,753.425 783.432,759.825 773.697,764.719 762.508,767.847 749.942,768.884 736.16,767.445 721.45,763.107 706.268,755.45 691.272,744.139 677.334,729.035 665.505,710.341 656.912,688.741 652.592,665.47 653.272,642.258 659.184,621.099 669.954,603.878 684.656,591.991 701.994,586.085 720.558,586.025 739.053,591.061 756.452,600.104 772.051,611.99 785.449,625.661 796.486,640.263 805.167,655.158 811.601,669.9 815.944,684.195 818.362,697.856 819.009,710.767 818.009,722.853 815.448,734.056 811.38,744.319 805.821,753.568 798.759,761.7 790.166,768.569 780.009,773.975 768.272,777.647 754.984,779.239 740.259,778.32 724.341,774.393 707.659,766.929 690.877,755.449 674.929,739.648 660.996,719.579 650.414,695.836 644.479,669.699 644.184,643.118 649.947,618.467 661.446,598.089 677.65,583.782 697.033,576.421 717.907,575.885 738.725,581.264 758.277,591.221 775.76,604.344 790.739,619.378 803.071,635.334 812.806,651.501 820.108,667.407 825.188,682.758 828.263,697.383 829.527,711.194 829.14,724.146 827.212,736.215 823.812,747.38 818.961,757.609 812.641,766.841 804.802,774.981 795.374,781.88 784.277,787.321 771.451,791.003 756.881,792.528 740.645,791.387 722.973,786.972 704.315,778.613 685.414,765.668 667.357,747.682 651.565,724.625 639.676,697.152 633.298,666.814 633.647,636.047 641.184,607.834 655.404,585.071 674.906,569.852 697.728,563.009 721.8,564.093 745.327,571.735 767.004,584.168 786.046,599.668 802.109,616.805 815.165,634.531 825.378,652.143 833.014,669.214 838.366,685.508 841.716,700.916 843.305,715.403 843.326,728.975 841.914,741.655 839.15,753.467 835.061,764.424 829.627,774.516 822.783,783.704 814.43,791.905 804.438,798.978 792.666,804.706 778.977,808.774 763.275,810.744 745.55,810.035 725.951,805.913 704.873,797.513 683.065,783.926 661.722,764.375 642.524,738.516 627.531,706.83 618.889,670.981 618.335,633.929 626.65,599.546 643.3,571.727 666.493,553.319 693.662,545.387 722.13,547.199 749.655,556.8 774.699,571.792 796.429,589.957 814.57,609.561 829.217,629.417 840.679,648.795 849.351,667.298 855.644,684.749 859.937,701.101 862.551,716.381 863.744,730.652 863.71,743.992 862.578,756.477 860.422,768.178 857.261,779.153 853.068,789.444 847.77,799.07 841.251,808.025 833.358,816.264 823.897,823.697 812.644,830.164 799.355,835.413 783.783,839.066 765.718,840.577 745.048,839.19 721.852,833.902 696.537,823.469 670.013,806.504 643.863,781.725 620.437,748.439 602.713,707.218 593.805,660.554 596.103,613.035 610.343,570.572 635.134,538.687 667.299,520.692 702.901,516.828 738.348,524.778 771.067,540.998 799.637,561.99 823.577,585.008 843.018,608.226 858.43,630.594 870.42,651.6 879.615,671.064 886.595,688.991 891.866,705.469 895.851,720.626 898.895,734.595 901.273,747.501 903.2,759.456 904.847,770.556 906.35,780.883 907.819,790.502 909.348,799.465 911.019,807.812 912.915,815.571 915.118,822.756 917.717,829.372 920.814,835.409 924.53,840.843 929.006,845.627 934.413,849.693 940.956,852.938 948.883,855.214 958.489,856.316 970.12,855.954 984.176,853.733 1001.1,849.112 1021.35,841.369 1045.33,829.571 1073.28,812.57 1105.07,789.081 1139.9,757.917 1175.89,718.489 1209.68,671.63 1236.43,620.571 1250.49,571.464 1247.18,532.432 1224.96,510.683 1186.63,509.004 1138.39,524.354 1087.29,549.88 1038.9,578.522 996.399,605.506 960.9,628.772 932.202,648.155 909.455,664.375 891.579,678.35 877.497,690.86 866.23,702.453 856.937,713.454 848.912,724.021 841.571,734.196 834.437,743.946 827.112,753.191 819.262,761.813 810.603,769.662 800.893,776.553 789.924,782.248 777.535,786.449 763.626,788.778 748.187,788.766 731.346,785.854 713.421,779.413 694.989,768.808 676.941,753.519 660.494,733.333 647.129,708.58 638.41,680.358 635.688,650.626 639.749,622.029 650.538,597.415 667.101,579.181 687.787,568.71 710.636,566.147 733.782,570.584 755.737,580.496 775.499,594.199 792.526,610.18 806.638,627.25 817.897,644.566 826.504,661.581 832.721,677.97 836.819,693.558 839.045,708.269 839.602,722.08 838.642,734.995 836.264,747.028 832.513,758.186 827.388,768.456 820.843,777.799 812.794,786.133 803.133,793.323 791.735,799.16 778.484,803.345 763.299,805.464 746.184,804.971 727.29,801.181 707,793.292 686.021,780.47 665.473,762.003 646.915,737.578 632.259,707.631 623.505,673.667 622.306,638.375 629.462,605.305 644.587,578.102 666.119,559.532 691.726,550.791 718.895,551.403 745.455,559.686 769.856,573.451 791.207,590.589 809.157,609.398 823.732,628.672 835.179,647.644 843.851,665.874 850.124,683.147 854.352,699.388 856.841,714.599 857.837,728.825 857.522,742.128 856.017,754.573 853.385,766.216 849.636,777.101 844.732,787.253 838.589,796.668 831.082,805.31 822.047,813.093 811.293,819.872 798.605,825.412 783.771,829.366 766.613,831.235 747.039,830.335 725.134,825.768 701.272,816.43 676.268,801.095 651.523,778.63 629.106,748.396 611.654,710.815 601.969,667.935 602.318,623.637 613.622,583.079 634.966,551.347 663.767,531.855 696.565,525.417 729.989,530.447 761.454,543.984 789.385,562.835 813.102,584.324 832.559,606.554 848.087,628.357 860.193,649.104 869.435,668.522 876.349,686.547 881.409,703.223 885.016,718.649 887.493,732.941 889.094,746.218 890.009,758.588 890.38,770.154 890.301,781.002 889.835,791.211 889.013,800.847 887.841,809.969 886.304,818.63 884.366,826.874 881.972,834.742 879.042,842.269 875.478,849.485 871.15,856.412 865.899,863.062 859.531,869.432 851.807,875.494 842.443,881.181 831.1,886.367 817.388,890.834 800.871,894.223 781.095,895.965 757.646,895.193 730.253,890.626 698.986,880.479 664.545,862.434 628.652,833.845 594.441,792.386 566.569,737.31 550.62,671.161 551.503,600.957 571.261,537.284 607.661,490.653 654.848,467.013 705.772,465.741 754.613,481.335 797.882,506.808 834.232,536.284 863.728,565.923 887.158,593.693 905.581,618.772 920.078,641.003 931.641,660.538 941.128,677.63 949.26,692.537 956.634,705.476 963.74,716.61 970.986,726.04 978.712,733.808 987.208,739.893 996.725,744.215 1007.48,746.634 1019.63,746.948 1033.31,744.903 1048.54,740.207 1065.22,732.557 1083.07,721.7 1101.57,707.515 1119.89,690.138 1136.85,670.105 1150.99,648.475 1160.74,626.866 1164.65,607.302 1161.8,591.862 1152.09,582.166 1136.33,578.943 1116.07,581.862 1093.29,589.739 1069.92,600.983 1047.52,614.058 1027.2,627.773 1009.57,641.37 994.869,654.46 983.062,666.905 973.962,678.697 967.308,689.879 962.822,700.49 960.249,710.548 959.375,720.039 960.036,728.919 962.123,737.117 965.579,744.539 970.398,751.065 976.618,756.548 984.316,760.809 993.599,763.626 1004.59,764.735 1017.42,763.813 1032.18,760.485 1048.91,754.327 1067.48,744.902 1087.6,731.817 1108.65,714.836 1129.6,694.048 1149,670.069 1164.98,644.235 1175.5,618.656 1178.74,595.995 1173.63,578.924 1160.25,569.37 1139.9,567.92 1114.82,573.701 1087.56,584.828 1060.46,599.116 1035.22,614.691 1012.92,630.282 994.002,645.217 978.525,659.262 966.27,672.431 956.896,684.836 950.019,696.604 945.269,707.827 942.324,718.557 940.919,728.805 940.852,738.55 941.986,747.748 944.239,756.335 947.587,764.234 952.053,771.349 957.709,777.563 964.666,782.732 973.078,786.673 983.131,789.156 995.037,789.885 1009.02,788.49 1025.28,784.512 1043.96,777.403 1065.08,766.546 1088.4,751.322 1113.31,731.241 1138.66,706.17 1162.64,676.659 1182.78,644.283 1196.22,611.836 1200.29,583.087 1193.41,561.926 1175.71,551.106 1149.19,551.216 1117.14,560.573 1083.16,576.1 1050.26,594.575 1020.45,613.54 994.736,631.584 973.387,648.176 956.178,663.321 942.64,677.266 932.21,690.302 924.324,702.672 918.471,714.547 914.211,726.022 911.183,737.142 909.101,747.916 907.741,758.334 906.937,768.379 906.568,778.031 906.551,787.275 906.831,796.096 907.379,804.487 908.186,812.439 909.258,819.949 910.62,827.01 912.311,833.617 914.386,839.759 916.918,845.417 919.999,850.567 923.746,855.169 928.304,859.166 933.85,862.477 940.604,864.986 948.828,866.529 958.843,866.88 971.023,865.719 985.803,862.61 1003.66,856.953 1025.1,847.946 1050.55,834.548 1080.23,815.483 1113.96,789.338 1150.71,754.86 1188.2,711.573 1222.51,660.763 1248.09,606.571 1258.83,556.355 1250.2,519.141 1221.68,501.951 1177.52,506.106 1125.07,526.661 1071.71,555.545 1022.67,585.574 980.55,612.541 945.924,635.069 918.228,653.483 896.402,668.759 879.267,681.901 865.703,693.69 854.725,704.635 845.501,715.019 837.343,724.957 829.685,734.457 822.071,743.45 814.122,751.823 805.532,759.422 796.047,766.057 785.466,771.491 773.643,775.437 760.503,777.54 746.064,777.379 730.475,774.466 714.063,768.277 697.378,758.311 681.228,744.201 666.68,725.863 654.991,703.688 647.452,678.693 645.154,652.564 648.711,627.505 658.067,605.852 672.446,589.587 690.506,579.902 710.625,577.021 731.221,580.311 750.981,588.592 768.969,600.49 784.63,614.711 797.722,630.188 808.226,646.126 816.262,661.975 822.019,677.382 825.707,692.134 827.523,706.112 827.634,719.252 826.164,731.521 823.194,742.891 818.759,753.33 812.857,762.781 805.449,771.157 796.474,778.319 785.862,784.069 773.555,788.128 759.534,790.126 743.861,789.589 726.734,785.945 708.553,778.555 689.987,766.789 672.029,750.171 655.998,728.581 643.454,702.518 635.978,673.306 634.851,643.139 640.691,614.826 653.217,591.235 671.248,574.606 692.979,566.037 716.395,565.368 739.671,571.456 761.418,582.653 780.746,597.258 797.219,613.804 810.735,631.178 821.408,648.611 829.471,665.621 835.202,681.929 838.875,697.395 840.733,711.961 840.971,725.621 839.732,738.386 837.103,750.275 833.122,761.294 827.774,771.432 821.005,780.647 812.722,788.852 802.808,795.905 791.131,801.589 777.569,805.589 762.04,807.474 744.553,806.673 725.273,802.473 704.608,794.043 683.31,780.522 662.563,761.197 644.001,735.789 629.609,704.822 621.432,669.955 621.103,634.059 629.33,600.841 645.575,574.001 668.117,556.23 694.502,548.541 722.169,550.252 748.963,559.516 773.391,574.06 794.627,591.756 812.385,610.931 826.737,630.42 837.965,649.498 846.44,667.764 852.552,685.029 856.66,701.234 859.073,716.397 860.034,730.571 859.726,743.825 858.268,756.226 855.722,767.838 852.099,778.707 847.358,788.864 841.417,798.311 834.151,807.02 825.394,814.919 814.951,821.875 802.6,827.675 788.115,831.996 771.29,834.369 751.997,834.141 730.258,830.439 706.36,822.166 681.012,808.058 655.496,786.87 631.79,757.747 612.518,720.789 600.613,677.683 598.64,632.053 607.926,589.088 627.932,554.258 656.265,531.596 689.416,522.497 723.792,525.697 756.53,538.255 785.823,556.803 810.837,578.428 831.45,601.027 847.966,623.288 860.9,644.499 870.835,664.342 878.337,682.735 883.91,699.721 887.986,715.398 890.916,729.889 892.979,743.317 894.391,755.797 895.314,767.432 895.869,778.313 896.142,788.518 896.191,798.115 896.055,807.162 895.756,815.709 895.302,823.8 894.691,831.475 893.908,838.769 892.932,845.715 891.73,852.343 890.26,858.683 888.464,864.764 886.273,870.612 883.6,876.255 880.335,881.717 876.344,887.019 871.459,892.177 865.475,897.194 858.141,902.055 849.151,906.712 838.136,911.063 824.66,914.92 808.222,917.955 788.273,919.631 764.268,919.086 735.764,915 702.625,905.442 665.344,887.765 625.535,858.729 586.481,815.125 553.459,755.229 533.243,681.071 532.221,600.402 553.465,526.102 594.58,471.593 648.383,444.591 706.159,444.152 760.925,463.029 808.777,492.393 848.455,525.202 880.311,557.164 905.431,586.24 925.115,611.779 940.62,633.824 953.059,652.691 963.376,668.751 972.344,682.338 980.592,693.711 988.622,703.052 996.836,710.467 1005.55,715.995 1014.99,719.613 1025.35,721.247 1036.7,720.785 1049.07,718.091 1062.36,713.033 1076.34,705.524 1090.62,695.572 1104.62,683.35 1117.58,669.263 1128.58,654.004 1136.64,638.562 1140.87,624.145 1140.63,612.02 1135.69,603.278 1126.34,598.606 1113.34,598.15 1097.8,601.531 1080.94,607.996 1063.94,616.638 1047.75,626.593 1033.08,637.166 1020.35,647.865 1009.76,658.382 1001.37,668.538 995.112,678.235 990.873,687.412 988.521,696.013 987.923,703.977 988.972,711.223 991.586,717.65 995.714,723.133 1001.33,727.523 1008.43,730.645 1017.03,732.297 1027.11,732.255 1038.66,730.273 1051.6,726.102 1065.74,719.514 1080.78,710.343 1096.23,698.553 1111.38,684.315 1125.31,668.095 1136.93,650.723 1145.07,633.391 1148.7,617.55 1147.15,604.682 1140.26,595.993 1128.52,592.132 1112.96,593.063 1094.97,598.138 1075.98,606.339 1057.27,616.562 1039.86,627.847 1024.38,639.482 1011.19,651.013 1000.41,662.188 992.012,672.89 985.859,683.066 981.785,692.687 979.617,701.722 979.201,710.121 980.414,717.812 983.173,724.698 987.432,730.658 993.18,735.54 1000.43,739.168 1009.23,741.332 1019.61,741.787 1031.59,740.262 1045.14,736.461 1060.16,730.089 1076.39,720.891 1093.39,708.718 1110.47,693.622 1126.66,675.967 1140.73,656.543 1151.32,636.612 1157.07,617.839 1156.99,602.054 1150.69,590.865 1138.55,585.261 1121.69,585.367 1101.7,590.483 1080.32,599.376 1059.14,610.669 1039.34,623.157 1021.73,635.969 1006.71,648.572 994.389,660.704 984.698,672.266 977.455,683.246 972.436,693.654 969.415,703.493 968.191,712.743 968.604,721.357 970.541,729.261 973.935,736.354 978.767,742.512 985.058,747.579 992.862,751.368 1002.26,753.654 1013.33,754.171 1026.16,752.607 1040.77,748.613 1057.11,741.818 1074.97,731.87 1093.92,718.511 1113.26,701.688 1131.89,681.705 1148.39,659.382 1161.07,636.164 1168.23,614.068 1168.55,595.397 1161.46,582.229 1147.39,575.84 1127.73,576.356 1104.49,582.799 1079.82,593.517 1055.63,606.738 1033.29,620.989 1013.64,635.279 997.036,649.074 983.518,662.169 972.911,674.543 964.937,686.256 959.287,697.376 955.664,707.948 953.812,717.986 953.524,727.469 954.655,736.347 957.113,744.547 960.862,751.974 965.915,758.508 972.332,764.003 980.212,768.28 989.685,771.116 1000.9,772.239 1014.02,771.314 1029.18,767.943 1046.43,761.667 1065.71,751.994 1086.76,738.461 1108.97,720.749 1131.3,698.865 1152.2,673.379 1169.66,645.656 1181.41,617.964 1185.36,593.256 1180.24,574.564 1166.05,564.116 1144.24,562.601 1117.28,569.016 1088.05,581.189 1059.08,596.63 1032.27,613.25 1008.69,629.68 988.79,645.244 972.562,659.751 959.725,673.271 949.874,685.971 942.57,698.015 937.398,709.523 933.995,720.566 932.064,731.169 931.376,741.325 931.764,751.004 933.124,760.16 935.405,768.737 938.603,776.67 942.76,783.88 947.96,790.271 954.328,795.724 962.029,800.087 971.267,803.16 982.278,804.684 995.328,804.32 1010.69,801.636 1028.62,796.086 1049.29,787.011 1072.7,773.668 1098.56,755.316 1126.05,731.395 1153.71,701.845 1179.2,667.539 1199.42,630.718 1210.95,595.142 1210.91,565.553 1198.07,546.336 1173.54,539.852 1140.5,545.499 1103.22,560.176 1065.71,579.812 1030.89,600.872 1000.39,621.114 974.813,639.56 954.015,656.088 937.497,670.993 924.595,684.683 914.626,697.522 906.953,709.775 901.021,721.603 896.363,733.093 892.595,744.279 889.405,755.163 886.539,765.735 883.791,775.979 880.985,785.884 877.965,795.44 874.586,804.642 870.702,813.487 866.162,821.97 860.797,830.082 854.416,837.8 846.801,845.083 837.698,851.851 826.816,857.974 813.829,863.237 798.385,867.307 780.129,869.676 758.758,869.595 734.105,866.001 706.292,857.455 675.945,842.155 644.474,818.102 614.334,783.572 589.1,737.994 573.074,683.1 570.239,623.8 582.752,567.806 609.761,523.46 647.46,496.611 690.488,488.569 733.754,496.437 773.635,515.184 808.226,539.793 836.983,566.453 860.201,592.783 878.592,617.539 893.015,640.219 904.32,660.728 913.279,679.168 920.559,695.714 926.723,710.551 932.237,723.846 937.487,735.729 942.802,746.296 948.465,755.6 954.731,763.652 961.845,770.415 970.042,775.804 979.564,779.675 990.653,781.816 1003.55,781.943 1018.48,779.684 1035.61,774.582 1055.02,766.105 1076.59,753.691 1099.9,736.841 1124.12,715.287 1147.85,689.246 1169.05,659.731 1185.21,628.801 1193.75,599.541 1192.62,575.568 1181.12,560.049 1160.2,554.622 1132.36,558.834 1100.85,570.486 1068.79,586.625 1038.62,604.562 1011.8,622.44 988.992,639.303 970.263,654.858 955.316,669.19 943.687,682.526 934.858,695.101 928.329,707.099 923.658,718.639 920.471,729.78 918.471,740.541 917.426,750.916 917.17,760.881 917.587,770.408 918.609,779.466 920.207,788.023 922.386,796.044 925.185,803.491 928.672,810.318 932.947,816.468 938.144,821.865 944.43,826.408 952.012,829.956 961.139,832.323 972.104,833.25 985.242,832.39 1000.92,829.28 1019.5,823.312 1041.32,813.71 1066.56,799.541 1095.09,779.771 1126.29,753.446 1158.67,720.055 1189.63,680.117 1215.4,635.907 1231.41,591.922 1233.5,554.454 1219.53,529.78 1190.6,521.541 1150.92,529.033 1106.2,547.805 1061.71,572.071 1021.06,597.058 986.068,620.024 957.14,640.045 933.877,657.289 915.487,672.368 901.062,685.937 889.717,698.518 880.657,710.465 873.202,721.979 866.78,733.152 860.916,744.006 855.215,754.517 849.342,764.636 843.004,774.299 835.939,783.421 827.895,791.898 818.632,799.592 807.912,806.318 795.509,811.82 781.215,815.747 764.877,817.624 746.437,816.823 726.007,812.546 703.963,803.847 681.069,789.71 658.577,769.243 638.284,742.005 622.428,708.451 613.36,670.355 612.988,630.95 622.153,594.501 640.221,565.285 665.171,546.352 694.157,538.733 724.273,541.457 753.149,552.264 779.216,568.497 801.673,587.774 820.312,608.292 835.3,628.853 847.01,648.752 855.893,667.628 862.4,685.339 866.944,701.867 869.873,717.266 871.468,731.618 871.94,745.017 871.439,757.554 870.057,769.314 867.836,780.372 864.773,790.789 860.821,800.609 855.893,809.862 849.864,818.552 842.57,826.658 833.807,834.115 823.332,840.804 810.872,846.526 796.132,850.97 778.822,853.667 758.705,853.94 735.677,850.846 709.895,843.137 681.954,829.281 653.112,807.624 625.492,776.774 602.123,736.3 586.635,687.626 582.447,634.714 591.595,583.848 613.742,542.072 646.058,514.783 684.166,503.904 723.58,507.768 760.814,522.509 793.791,543.817 821.67,568.118 844.458,592.97 862.639,616.956 876.906,639.385 887.996,660.015 896.601,678.841 903.336,695.975 908.721,711.564 913.185,725.763 917.084,738.71 920.707,750.522 924.298,761.29 928.067,771.078 932.203,779.923 936.891,787.833 942.314,794.785 948.667,800.719 956.166,805.536 965.05,809.084 975.586,811.144 988.064,811.419 1002.8,809.513 1020.08,804.91 1040.16,796.966 1063.17,784.92 1088.95,767.952 1116.95,745.328 1145.91,716.679 1173.74,682.439 1197.42,644.358 1213.31,605.862 1217.93,571.812 1209.17,547.33 1187.28,535.948 1155.04,538.117 1116.84,551.168 1077.23,570.763 1039.74,592.729 1006.49,614.198 978.37,633.79 955.371,651.209 937.013,666.731 922.602,680.817 911.396,693.902 902.692,706.312 895.872,718.257 890.411,729.849 885.872,741.138 881.898,752.133 878.193,762.822 874.512,773.187 870.639,783.204 866.382,792.853 861.554,802.111 855.966,810.952 849.42,819.335 841.696,827.203 832.551,834.461 821.716,840.964 808.898,846.487 793.793,850.691 776.109,853.077 755.62,852.933 732.251,849.276 706.206,840.822 678.16,826.021 649.474,803.241 622.385,771.194 600.01,729.665 585.978,680.394 583.557,627.672 594.485,577.95 618.072,538.124 651.235,513.148 689.54,504.424 728.623,509.92 765.201,525.659 797.384,547.421 824.465,571.799 846.528,596.51 864.088,620.254 877.843,642.412 888.522,662.777 896.803,681.365 903.285,698.29 908.471,713.702 912.778,727.752 916.548,740.576 920.06,752.288 923.551,762.976 927.224,772.704 931.263,781.507 935.846,789.394 941.154,796.342 947.379,802.294 954.732,807.154 963.452,810.773 973.803,812.94 986.078,813.366 1000.59,811.66 1017.65,807.316 1037.52,799.696 1060.35,788.038 1086.04,771.504 1114.08,749.319 1143.31,721.035 1171.73,686.957 1196.34,648.679 1213.48,609.49 1219.53,574.229 1212.11,548.188 1191.2,535.239 1159.41,536.192 1121.1,548.581 1080.97,568.036 1042.73,590.208 1008.68,612.026 979.793,631.968 956.121,649.669 937.2,665.389 922.326,679.602 910.743,692.763 901.732,705.218 894.654,717.191 888.969,728.806 884.223,740.115 880.047,751.131 876.133,761.842 872.226,772.226 868.101,782.258 863.555,791.914 858.393,801.165 852.418,809.975 845.42,818.296 837.173,826.052 827.426,833.13 815.906,839.354 802.322,844.459 786.383,848.052 767.83,849.565 746.5,848.202 722.423,842.893 695.974,832.287 668.061,814.838 640.335,789.065 615.311,754.076 596.248,710.345 586.609,660.493 589.086,609.555 604.518,564.113 631.326,530.32 665.932,511.768 703.962,508.527 741.514,517.825 775.884,535.633 805.663,558.104 830.452,582.324 850.489,606.426 866.339,629.387 878.693,650.749 888.238,670.385 895.607,688.341 901.343,704.736 905.905,719.718 909.666,733.43 912.93,745.999 915.947,757.535 918.923,768.123 922.037,777.826 925.449,786.684 929.314,794.715 933.79,801.911 939.046,808.236 945.269,813.623 952.672,817.961 961.501,821.092 972.032,822.79 984.58,822.747 999.481,820.548 1017.08,815.648 1037.67,807.357 1061.43,794.841 1088.29,777.172 1117.71,753.477 1148.45,723.232 1178.31,686.751 1204.01,645.803 1221.49,604.087 1226.78,567.037 1217.42,540.494 1193.65,528.507 1158.64,531.522 1117.38,546.351 1074.91,567.953 1035.07,591.623 1000.07,614.273 970.679,634.542 946.79,652.262 927.789,667.852 912.871,681.882 901.209,694.857 892.036,707.141 884.683,718.96 878.583,730.43 873.264,741.596 868.337,752.458 863.475,762.99 858.397,773.154 852.853,782.904 846.609,792.184 839.437,800.924 831.102,809.029 821.364,816.366 809.971,822.744 796.669,827.887 781.218,831.404 763.431,832.749 743.224,831.181 720.715,825.745 696.342,815.28 671.024,798.531 646.3,774.395 624.392,742.365 608.05,703.132 600.086,659.132 602.601,614.633 616.189,575 639.544,545.195 669.779,528.199 703.315,524.284 736.851,531.436 767.973,546.5 795.299,566.288 818.305,588.243 837.054,610.613 851.938,632.354 863.494,652.927 872.292,672.118 878.865,689.896 883.681,706.326 887.128,721.514 889.522,735.582 891.108,748.648 892.071,760.822 892.547,772.201 892.632,782.871 892.389,792.908 891.854,802.377 891.041,811.334 889.946,819.829 888.545,827.907 886.8,835.608 884.657,842.969 882.041,850.022 878.857,856.797 874.986,863.318 870.282,869.603 864.561,875.657 857.602,881.468 849.135,886.994 838.838,892.146 826.329,896.762 811.174,900.562 792.896,903.093 771.012,903.64 745.121,901.115 715.047,893.939 681.093,879.945 644.419,856.433 607.491,820.569 574.432,770.389 550.847,706.497 542.656,633.887 553.871,562.355 584.375,503.909 629.454,467.79 681.747,456.542 734.188,466.103 781.954,489.148 822.764,518.608 856.209,549.456 882.915,578.841 903.948,605.501 920.469,629.091 933.566,649.714 944.197,667.638 953.169,683.153 961.149,696.517 968.684,707.925 976.221,717.505 984.128,725.324 992.709,731.381 1002.22,735.616 1012.85,737.909 1024.77,738.087 1038.05,735.932 1052.69,731.201 1068.54,723.66 1085.29,713.14 1102.39,699.618 1119.02,683.325 1134.08,664.861 1146.27,645.275 1154.24,626.056 1156.83,608.975 1153.36,595.761 1143.87,587.699 1129.14,585.308 1110.57,588.247 1089.86,595.504 1068.66,605.748 1048.33,617.693 1029.85,630.323 1013.78,642.964 1000.35,655.243 989.579,666.995 981.326,678.172 975.389,688.777 971.542,698.813 969.577,708.27 969.317,717.11 970.63,725.27 973.43,732.66 977.679,739.163 983.379,744.637 990.571,748.906 999.321,751.762 1009.71,752.956 1021.82,752.195 1035.69,749.147 1051.29,743.453 1068.49,734.756 1086.93,722.764 1106.02,707.345 1124.82,688.662 1142.04,667.332 1156.09,644.555 1165.28,622.129 1168.14,602.255 1163.8,587.11 1152.33,578.284 1134.76,576.329 1112.89,580.658 1088.85,589.844 1064.61,602.145 1041.74,615.976 1021.25,630.181 1003.68,644.072 989.174,657.336 977.626,669.892 968.8,681.771 962.4,693.037 958.129,703.742 955.719,713.906 954.951,723.519 955.66,732.539 957.738,740.897 961.132,748.504 965.84,755.246 971.906,760.982 979.415,765.539 988.487,768.707 999.263,770.226 1011.89,769.778 1026.51,766.983 1043.18,761.402 1061.88,752.559 1082.36,739.996 1104.11,723.369 1126.19,702.618 1147.18,678.186 1165.19,651.25 1178.02,623.854 1183.59,598.773 1180.43,579.001 1168.29,566.927 1148.29,563.571 1122.68,568.294 1094.21,579.177 1065.49,593.812 1038.51,610.042 1014.51,626.367 994.071,641.979 977.267,656.594 963.883,670.225 953.548,683.016 945.84,695.124 940.347,706.674 936.704,717.741 934.609,728.356 933.824,738.515 934.177,748.189 935.559,757.329 937.913,765.879 941.234,773.767 945.563,780.908 950.983,787.2 957.62,792.514 965.639,796.685 975.243,799.501 986.667,800.688 1000.17,799.889 1016,796.654 1034.39,790.423 1055.46,780.537 1079.12,766.276 1104.97,746.966 1132.04,722.186 1158.69,692.101 1182.47,657.889 1200.26,622.099 1208.83,588.647 1205.76,562.106 1190.4,546.303 1164.33,542.844 1130.95,550.529 1094.36,566.084 1058.24,585.664 1025.12,606.14 996.357,625.634 972.368,643.392 952.95,659.384 937.587,673.912 925.637,687.35 916.452,700.02 909.437,712.15 904.075,723.877 899.935,735.269 896.666,746.351 893.985,757.121 891.668,767.569 889.53,777.682 887.423,787.448 885.217,796.863 882.797,805.927 880.048,814.646 876.855,823.028 873.093,831.081 868.619,838.812 863.267,846.219 856.845,853.288 849.123,859.982 839.83,866.226 828.652,871.889 815.23,876.752 799.172,880.462 780.076,882.476 757.59,881.979 731.504,877.793 701.929,868.302 669.547,851.451 635.942,824.941 603.923,786.788 577.596,736.39 561.869,675.933 561.135,611.38 577.451,551.826 609.261,506.623 651.749,481.629 698.724,477.19 744.735,489.113 786.234,511.389 821.605,538.569 850.62,566.824 873.832,593.955 892.135,618.936 906.505,641.446 917.865,661.52 927.033,679.339 934.704,695.124 941.459,709.076 947.779,721.361 954.067,732.096 960.662,741.348 967.861,749.132 975.933,755.406 985.126,760.074 995.67,762.973 1007.78,763.876 1021.63,762.485 1037.35,758.438 1054.95,751.324 1074.3,740.726 1094.99,726.302 1116.28,707.916 1137,685.826 1155.52,660.896 1169.87,634.758 1178.01,609.781 1178.33,588.739 1170.13,574.146 1153.93,567.51 1131.47,568.871 1105.17,576.903 1077.58,589.506 1050.87,604.532 1026.5,620.299 1005.31,635.76 987.592,650.426 973.268,664.176 962.062,677.079 953.605,689.263 947.51,700.847 943.418,711.912 941.025,722.494 940.085,732.593 940.419,742.18 941.909,751.204 944.492,759.599 948.16,767.283 952.953,774.154 958.956,780.09 966.294,784.939 975.132,788.505 985.667,790.544 998.12,790.741 1012.71,788.7 1029.65,783.935 1049.05,775.873 1070.87,763.88 1094.8,747.343 1120.12,725.83 1145.49,699.34 1168.91,668.656 1187.75,635.676 1199.08,603.528 1200.41,576.168 1190.53,557.368 1170.07,549.418 1141.51,552.268 1108.35,563.716 1074.14,580.478 1041.68,599.429 1012.71,618.363 988.021,636.128 967.702,652.374 951.442,667.205 938.722,680.902 928.966,693.756 921.613,705.997 916.165,717.775 912.198,729.173 909.367,740.224 907.399,750.933 906.084,761.287 905.264,771.269 904.824,780.861 904.683,790.051 904.786,798.827 905.102,807.184 905.616,815.12 906.326,822.635 907.245,829.729 908.398,836.403 909.821,842.656 911.563,848.483 913.688,853.873 916.277,858.809 919.433,863.262 923.28,867.19 927.974,870.532 933.707,873.198 940.712,875.063 949.276,875.949 959.74,875.607 972.512,873.689 988.06,869.714 1006.9,863.021 1029.56,852.723 1056.49,837.67 1087.9,816.46 1123.45,787.568 1161.9,749.721 1200.52,702.649 1234.71,648.237 1258.28,591.679 1264.82,541.542 1250.3,507.47 1215.47,495.777 1166.09,505.924 1110.38,531.112 1055.73,562.457 1006.82,593.057 965.586,619.456 932.13,640.955 905.587,658.287 884.747,672.599 868.373,684.926 855.332,696.015 844.654,706.328 835.526,716.098 827.285,725.401 819.397,734.21 811.427,742.428 803.028,749.911 793.926,756.478 783.907,761.904 772.822,765.922 760.596,768.213 747.243,768.404 732.896,766.076 717.844,760.785 702.564,752.12 687.75,739.782 674.307,723.713 663.3,704.234 655.832,682.175 652.856,658.908 654.969,636.249 662.229,616.176 674.104,600.455 689.551,590.276 707.231,586.06 725.758,587.485 743.912,593.692 760.76,603.56 775.688,615.954 788.368,629.876 798.691,644.536 806.693,659.355 812.498,673.934 816.264,688.012 818.155,701.424 818.313,714.065 816.851,725.866 813.848,736.769 809.343,746.711 803.347,755.609 795.842,763.348 786.799,769.768 776.19,774.646 764.012,777.691 750.32,778.531 735.265,776.719 719.144,771.745 702.454,763.095 685.94,750.337 670.609,733.266 657.696,712.091 648.532,687.61 644.333,661.313 645.923,635.297 653.495,611.953 666.498,593.478 683.728,581.389 703.594,576.241 724.44,577.641 744.825,584.526 763.671,595.52 780.3,609.256 794.378,624.568 805.826,640.562 814.734,656.608 821.281,672.295 825.68,687.372 828.141,701.696 828.845,715.192 827.935,727.824 825.507,739.566 821.614,750.393 816.264,760.263 809.428,769.103 801.052,776.798 791.06,783.178 779.383,787.996 765.975,790.919 750.853,791.512 734.149,789.234 716.165,783.454 697.453,773.51 678.874,758.821 661.634,739.071 647.235,714.46 637.319,685.957 633.369,655.437 636.343,625.557 646.352,599.311 662.55,579.332 683.306,567.261 706.595,563.44 730.437,567.046 753.221,576.535 773.842,590.141 791.691,606.248 806.55,623.578 818.467,641.219 827.647,658.579 834.366,675.31 838.912,691.224 841.548,706.242 842.496,720.344 841.925,733.541 839.948,745.855 836.624,757.304 831.962,767.89 825.922,777.591 818.428,786.347 809.368,794.05 798.61,800.525 786.016,805.514 771.469,808.65 754.912,809.434 736.406,807.22 716.207,801.22 694.862,790.55 673.316,774.354 652.977,752.038 635.7,723.61 623.598,690.07 618.653,653.673 622.189,617.826 634.386,586.469 654.108,563.063 679.17,549.64 706.921,546.398 734.875,551.982 761.127,564.193 784.485,580.7 804.393,599.521 820.762,619.194 833.792,638.761 843.833,657.661 851.286,675.608 856.542,692.487 859.948,708.288 861.793,723.053 862.3,736.851 861.626,749.757 859.871,761.841 857.079,773.166 853.242,783.778 848.308,793.704 842.178,802.946 834.716,811.469 825.743,819.199 815.051,825.994 802.407,831.633 787.571,835.778 770.329,837.936 750.546,837.422 728.248,833.318 703.746,824.468 677.796,809.547 651.767,787.257 627.76,756.737 608.546,718.172 597.183,673.462 596.268,626.555 607.026,582.966 628.68,548.345 658.555,526.645 692.925,518.966 728.106,523.68 761.264,537.572 790.681,557.14 815.632,579.457 836.084,602.472 852.41,624.942 865.17,646.22 874.975,666.037 882.405,684.346 887.979,701.209 892.132,716.741 895.219,731.069 897.526,744.321 899.275,756.612 900.637,768.043 901.746,778.703 902.703,788.664 903.589,797.989 904.469,806.727 905.399,814.92 906.429,822.599 907.609,829.789 908.992,836.508 910.634,842.765 912.601,848.563 914.974,853.895 917.845,858.744 921.331,863.078 925.572,866.851 930.74,869.989 937.047,872.391 944.747,873.909 954.152,874.336 965.63,873.383 979.615,870.646 996.596,865.57 1017.1,857.4 1041.61,845.136 1070.5,827.518 1103.76,803.076 1140.69,770.357 1179.41,728.457 1216.41,677.951 1246.31,622.122 1262.63,567.754 1259.78,524.24 1235.74,500.162 1193.68,498.892 1140.8,516.743 1085.2,545.492 1033.09,576.901 987.819,605.666 950.366,629.74 920.314,649.209 896.608,665.066 878.013,678.427 863.338,690.193 851.528,700.97 841.689,711.107 833.082,720.756 825.106,729.943 817.274,738.607 809.194,746.631 800.548,753.858 791.088,760.088 780.622,765.083 769.025,768.554 756.249,770.157 742.346,769.493 727.501,766.12 712.067,759.582 696.608,749.48 681.91,735.568 668.971,717.899 658.918,696.967 652.857,673.82 651.666,650.055 655.777,627.644 665.029,608.596 678.659,594.549 695.449,586.445 713.972,584.408 732.845,587.856 750.923,595.761 767.378,606.934 781.709,620.246 793.682,634.756 803.258,649.745 810.522,664.702 815.625,679.286 818.739,693.281 820.026,706.552 819.625,719.017 817.64,730.617 814.134,741.299 809.138,751.001 802.646,759.636 794.633,767.078 785.06,773.151 773.898,777.614 761.148,780.149 746.878,780.356 731.268,777.753 714.66,771.807 697.618,761.989 680.969,747.886 665.813,729.361 653.464,706.753 645.295,681.054 642.49,653.977 645.755,627.812 655.091,605.035 669.728,587.781 688.277,577.364 709.041,574.061 730.347,577.227 750.809,585.621 769.442,597.788 785.666,612.361 799.234,628.22 810.134,644.533 818.501,660.734 824.54,676.464 828.476,691.511 830.524,705.761 830.86,719.16 829.622,731.682 826.896,743.311 822.723,754.026 817.102,763.785 809.994,772.514 801.332,780.094 791.033,786.346 779.017,791.013 765.234,793.745 749.7,794.086 732.552,791.465 714.111,785.221 694.961,774.662 676.015,759.184 658.548,738.478 644.142,712.794 634.503,683.209 631.147,651.755 634.998,621.264 646.069,594.855 663.371,575.193 685.132,563.836 709.223,560.961 733.623,565.572 756.729,575.987 777.48,590.364 795.32,607.065 810.084,624.823 821.863,642.758 830.893,660.31 837.472,677.16 841.902,693.146 844.454,708.205 845.354,722.332 844.772,735.55 842.82,747.889 839.558,759.375 834.99,770.018 829.077,779.803 821.735,788.68 812.846,796.553 802.269,803.259 789.852,808.556 775.455,812.091 758.991,813.38 740.477,811.786 720.111,806.512 698.377,796.637 676.15,781.228 654.79,759.55 636.15,731.418 622.425,697.612 615.778,660.22 617.789,622.634 628.903,588.986 648.161,563.113 673.4,547.466 701.857,542.552 730.854,547.125 758.291,558.92 782.83,575.453 803.826,594.567 821.15,614.665 834.998,634.696 845.735,654.046 853.787,672.403 859.573,689.645 863.469,705.762 865.789,720.802 866.783,734.843 866.631,747.967 865.455,760.258 863.318,771.789 860.236,782.62 856.176,792.795 851.063,802.341 844.779,811.255 837.168,819.506 828.033,827.013 817.145,833.637 804.247,839.151 789.073,843.206 771.381,845.293 751.003,844.693 727.939,840.431 702.484,831.267 675.41,815.751 648.156,792.441 622.968,760.341 602.844,719.589 591.114,672.219 590.601,622.553 602.588,576.658 626.12,540.685 658.176,518.798 694.651,511.93 731.601,518.045 766.089,533.493 796.424,554.469 821.967,577.903 842.789,601.721 859.355,624.718 872.299,646.301 882.287,666.259 889.944,684.586 895.817,701.374 900.367,716.759 903.973,730.88 906.942,743.869 909.521,755.84 911.908,766.89 914.268,777.095 916.745,786.515 919.468,795.188 922.562,803.137 926.155,810.363 930.387,816.848 935.415,822.549 941.421,827.392 948.618,831.266 957.254,834.01 967.619,835.399 980.045,835.12 994.898,832.751 1012.56,827.733 1033.4,819.34 1057.66,806.674 1085.37,788.701 1116.09,764.384 1148.65,732.981 1180.84,694.574 1209.17,650.791 1229.18,605.449 1236.29,564.508 1227.44,534.685 1202.62,520.866 1165.25,523.81 1120.89,539.949 1075.26,563.47 1032.63,588.97 995.371,612.987 964.259,634.089 939.076,652.205 919.092,667.891 903.394,681.84 891.062,694.64 881.258,706.705 873.255,718.283 866.44,729.497 860.302,740.386 854.42,750.934 848.436,761.095 842.042,770.802 834.965,779.97 826.949,788.49 817.751,796.224 807.136,802.985 794.879,808.519 780.783,812.481 764.701,814.407 746.583,813.685 726.544,809.548 704.958,801.086 682.566,787.332 660.581,767.441 640.73,741.004 625.157,708.464 616.116,671.511 615.449,633.217 623.995,597.644 641.203,568.897 665.186,549.966 693.246,541.946 722.579,544.022 750.86,554.099 776.515,569.647 798.713,588.349 817.202,608.423 832.108,628.662 843.77,648.339 852.611,667.069 859.065,684.689 863.528,701.167 866.338,716.541 867.766,730.885 868.017,744.284 867.231,756.825 865.493,768.585 862.835,779.633 859.242,790.021 854.654,799.784 848.971,808.936 842.052,817.46 833.717,825.304 823.747,832.363 811.894,838.458 797.887,843.308 781.458,846.494 762.383,847.405 740.551,845.197 716.074,838.749 689.445,826.679 661.735,807.464 634.781,779.76 611.258,742.972 594.472,698.048 587.717,648.163 593.259,598.732 611.36,556.278 639.937,526.366 675.196,511.714 712.874,511.651 749.382,523.059 782.363,541.954 810.677,564.748 834.092,588.816 852.924,612.525 867.764,635.007 879.289,655.888 888.166,675.084 894.996,692.655 900.293,708.726 904.485,723.441 907.921,736.938 910.886,749.341 913.607,760.756 916.275,771.266 919.053,780.934 922.088,789.803 925.519,797.894 929.491,805.209 934.156,811.722 939.685,817.382 946.273,822.103 954.147,825.754 963.567,828.15 974.836,829.031 988.288,828.046 1004.28,824.723 1023.18,818.445 1045.26,808.437 1070.67,793.774 1099.22,773.465 1130.14,746.643 1161.84,712.957 1191.62,673.155 1215.67,629.764 1229.57,587.432 1229.5,552.333 1213.81,530.274 1183.99,524.245 1144.38,533.048 1100.5,552.153 1057.3,576.051 1018.07,600.364 984.405,622.652 956.632,642.141 934.324,659.036 916.705,673.92 902.897,687.406 892.051,699.975 883.406,711.949 876.309,723.511 870.215,734.744 864.67,745.666 859.296,756.257 853.773,766.475 847.82,776.263 841.181,785.551 833.613,794.251 824.877,802.248 814.732,809.384 802.937,815.438 789.263,820.103 773.51,822.953 755.551,823.408 735.395,820.71 713.276,813.918 689.776,801.948 665.958,783.725 643.468,758.458 624.512,726.09 611.632,687.812 607.191,646.415 612.676,606.13 628.093,571.755 651.814,547.286 681.016,534.74 712.495,533.803 743.442,542.397 771.871,557.673 796.678,576.891 817.477,597.889 834.36,619.193 847.69,639.918 857.945,659.601 865.625,678.049 871.196,695.228 875.059,711.189 877.547,726.022 878.918,739.831 879.368,752.72 879.031,764.787 877.992,776.12 876.29,786.797 873.926,796.884 870.864,806.434 867.033,815.489 862.33,824.078 856.614,832.211 849.709,839.873 841.398,847.019 831.423,853.552 819.484,859.308 805.251,864.017 788.374,867.261 768.529,868.415 745.482,866.574 719.212,860.488 690.091,848.531 659.139,828.786 628.296,799.364 600.611,759.076 580.087,708.484 570.951,650.972 576.321,593.04 596.787,542.969 629.833,507.989 670.667,491.553 713.953,492.552 755.363,506.733 792.241,528.949 823.476,554.816 849.021,581.338 869.422,606.8 885.478,630.399 898.043,651.876 907.921,671.253 915.822,688.677 922.349,704.329 928.006,718.383 933.209,730.989 938.308,742.261 943.6,752.273 949.349,761.061 955.799,768.616 963.184,774.885 971.742,779.762 981.715,783.078 993.349,784.6 1006.89,784.009 1022.55,780.903 1040.5,774.786 1060.77,765.095 1083.18,751.252 1107.21,732.778 1131.87,709.489 1155.53,681.788 1175.97,650.985 1190.5,619.511 1196.54,590.783 1192.29,568.531 1177.51,555.677 1153.71,553.289 1123.79,560.265 1091.16,573.953 1058.86,591.274 1029.09,609.679 1003.06,627.566 981.208,644.214 963.445,659.494 949.387,673.574 938.52,686.713 930.309,699.147 924.254,711.049 919.921,722.523 916.948,733.617 915.049,744.345 914.004,754.695 913.652,764.646 913.883,774.174 914.629,783.251 915.855,791.854 917.561,799.956 919.774,807.532 922.546,814.55 925.958,820.973 930.117,826.749 935.162,831.809 941.266,836.057 948.643,839.363 957.547,841.543 968.28,842.35 981.192,841.443 996.671,838.362 1015.12,832.497 1036.92,823.059 1062.33,809.075 1091.32,789.429 1123.36,763.028 1157.09,729.152 1189.97,688.066 1218.1,641.829 1236.62,594.936 1240.81,554.061 1227.95,526.24 1198.82,515.93 1157.72,522.817 1110.83,542.224 1063.95,567.76 1021.08,594.069 984.206,618.074 953.775,638.753 929.339,656.323 910.033,671.49 894.875,684.996 882.914,697.429 873.304,709.18 865.32,720.471 858.353,731.399 851.903,741.981 845.55,752.183 838.94,761.936 831.769,771.15 823.763,779.709 814.672,787.467 804.262,794.232 792.323,799.751 778.675,803.688 763.195,805.602 745.861,804.922 726.809,800.946 706.415,792.862 685.39,779.829 664.862,761.144 646.4,736.511 631.92,706.398 623.414,672.354 622.507,637.102 629.959,604.209 645.337,577.3 667.044,559.092 692.732,550.714 719.895,551.638 746.382,560.154 770.671,574.067 791.891,591.283 809.707,610.119 824.157,629.385 835.492,648.33 844.066,666.523 850.255,683.756 854.412,699.956 856.839,715.128 857.781,729.318 857.416,742.587 855.864,754.999 853.185,766.612 849.387,777.468 844.431,787.591 838.23,796.975 830.658,805.582 821.551,813.325 810.714,820.054 797.935,825.53 783.002,829.399 765.738,831.157 746.061,830.109 724.065,825.348 700.142,815.763 675.13,800.127 650.46,777.324 628.229,746.75 611.089,708.893 601.834,665.884 602.68,621.677 614.47,581.456 636.204,550.255 665.242,531.377 698.111,525.515 731.47,530.994 762.778,544.828 790.508,563.836 814.015,585.38 833.275,607.599 848.627,629.354 860.584,650.038 869.703,669.389 876.517,687.348 881.497,703.963 885.039,719.334 887.463,733.578 889.018,746.812 889.894,759.145 890.228,770.678 890.113,781.499 889.609,791.683 888.744,801.298 887.525,810.403 885.933,819.049 883.931,827.28 881.46,835.138 878.439,842.656 874.764,849.864 870.303,856.783 864.892,863.422 858.33,869.775 850.374,875.81 840.73,881.452 829.055,886.563 814.949,890.907 797.976,894.097 777.684,895.526 753.674,894.273 725.718,888.989 693.96,877.811 659.23,858.36 623.441,827.997 589.953,784.553 563.605,727.682 549.981,660.555 553.672,590.828 576.116,529.311 614.449,486.039 662.491,465.983 713.278,467.626 761.328,485.059 803.512,511.372 838.741,540.997 867.222,570.399 889.799,597.769 907.542,622.409 921.519,644.226 932.7,663.391 941.922,680.16 949.883,694.787 957.163,707.48 964.239,718.392 971.504,727.616 979.293,735.186 987.889,741.072 997.539,745.187 1008.45,747.38 1020.79,747.443 1034.67,745.114 1050.12,740.093 1067,732.076 1085.04,720.814 1103.66,706.202 1122,688.407 1138.84,668.016 1152.69,646.155 1161.95,624.509 1165.21,605.149 1161.6,590.151 1151.11,581.078 1134.66,578.549 1113.89,582.119 1090.8,590.516 1067.31,602.118 1044.97,615.398 1024.82,629.203 1007.42,642.818 992.974,655.89 981.425,668.302 972.566,680.06 966.129,691.21 961.834,701.793 959.426,711.825 958.694,721.29 959.478,730.141 961.674,738.308 965.228,745.694 970.14,752.177 976.452,757.611 984.245,761.812 993.629,764.559 1004.73,765.582 1017.69,764.556 1032.59,761.099 1049.47,754.783 1068.21,745.164 1088.5,731.845 1109.7,714.592 1130.78,693.506 1150.23,669.23 1166.16,643.14 1176.51,617.398 1179.44,594.717 1173.92,577.79 1160.08,568.523 1139.28,567.441 1113.83,573.595 1086.31,585.038 1059.05,599.554 1033.76,615.27 1011.46,630.936 992.603,645.904 977.199,659.96 965.023,673.132 955.722,685.541 948.905,697.315 944.2,708.549 941.282,719.295 939.886,729.563 939.809,739.333 940.915,748.562 943.122,757.187 946.405,765.134 950.787,772.307 956.339,778.595 963.174,783.856 971.443,787.914 981.333,790.542 993.061,791.454 1006.85,790.285 1022.92,786.582 1041.43,779.798 1062.42,769.313 1085.69,754.489 1110.69,734.795 1136.33,710.027 1160.85,680.631 1181.82,648.063 1196.35,615.02 1201.65,585.263 1195.94,562.812 1179.12,550.669 1153.06,549.697 1121.02,558.384 1086.68,573.666 1053.19,592.21 1022.69,611.409 996.293,629.732 974.319,646.576 956.569,661.921 942.573,676.014 931.761,689.157 923.555,701.61 917.428,713.554 912.925,725.096 909.67,736.284 907.363,747.134 905.769,757.637 904.709,767.778 904.053,777.539 903.704,786.906 903.594,795.868 903.681,804.42 903.937,812.559 904.352,820.288 904.923,827.609 905.663,834.528 906.59,841.047 907.736,847.169 909.139,852.894 910.853,858.217 912.944,863.13 915.495,867.613 918.61,871.639 922.417,875.164 927.074,878.126 932.777,880.435 939.765,881.963 948.33,882.532 958.825,881.887 971.67,879.676 987.349,875.405 1006.4,868.397 1029.38,857.737 1056.77,842.232 1088.79,820.416 1125.15,790.683 1164.54,751.678 1204.13,703.088 1239.13,646.88 1263.02,588.544 1269.08,537.154 1253.2,502.846 1216.38,492.052 1164.9,503.814 1107.41,530.657 1051.51,563.203 1001.85,594.414 960.23,620.947 926.602,642.285 899.998,659.309 879.139,673.254 862.748,685.195 849.672,695.895 838.93,705.813 829.707,715.176 821.342,724.049 813.305,732.394 805.173,740.103 796.611,747.019 787.361,752.947 777.237,757.654 766.122,760.863 753.981,762.253 740.88,761.463 727.01,758.105 712.721,751.798 698.541,742.227 685.192,729.237 673.559,712.943 664.62,693.847 659.317,672.917 658.376,651.562 662.142,631.484 670.461,614.393 682.677,601.691 697.75,594.205 714.455,592.089 731.582,594.901 748.106,601.804 763.259,611.794 776.549,623.884 787.717,637.226 796.684,651.146 803.49,665.149 808.24,678.886 811.068,692.123 812.107,704.701 811.474,716.512 809.257,727.471 805.516,737.501 800.282,746.512 793.562,754.391 785.351,760.989 775.642,766.104 764.453,769.478 751.846,770.787 737.966,769.642 723.084,765.607 707.637,758.24 692.269,747.171 677.85,732.212 665.443,713.51 656.212,691.695 651.254,667.972 651.373,644.079 656.875,622.069 667.44,603.929 682.161,591.173 699.72,584.55 718.658,583.981 737.62,588.727 755.524,597.674 771.622,609.61 785.486,623.43 796.941,638.239 805.992,653.369 812.749,668.355 817.378,682.893 820.053,696.793 820.938,709.938 820.163,722.257 817.824,733.698 813.978,744.209 808.644,753.727 801.81,762.158 793.445,769.369 783.506,775.173 771.963,779.311 758.824,781.449 744.171,781.164 728.207,777.955 711.314,771.272 694.104,760.587 677.468,745.51 662.568,725.97 650.767,702.415 643.448,675.987 641.748,648.557 646.265,622.529 656.848,600.403 672.572,584.224 691.933,575.126 713.18,573.184 734.656,577.579 755.032,586.969 773.397,599.871 789.245,614.935 802.387,631.087 812.855,647.545 820.808,663.788 826.466,679.492 830.061,694.472 831.803,708.632 831.868,721.929 830.384,734.343 827.43,745.864 823.041,756.471 817.206,766.12 809.879,774.734 800.987,782.191 790.44,788.301 778.157,792.799 764.084,795.32 748.244,795.389 730.784,792.416 712.047,785.719 692.65,774.589 673.554,758.421 656.089,736.934 641.891,710.442 632.702,680.129 630.029,648.164 634.735,617.501 646.727,591.32 664.889,572.251 687.343,561.731 711.908,559.781 736.555,565.262 759.719,576.402 780.389,591.327 798.063,608.408 812.619,626.407 824.179,644.477 833.001,662.093 839.395,678.958 843.668,694.929 846.094,709.959 846.898,724.051 846.248,737.232 844.254,749.539 840.971,761.001 836.401,771.631 830.499,781.417 823.18,790.312 814.322,798.224 803.776,804.995 791.383,810.385 776.993,814.047 760.507,815.499 741.922,814.103 721.417,809.053 699.453,799.411 676.884,784.202 655.059,762.638 635.845,734.455 621.48,700.358 614.212,662.389 615.726,623.959 626.564,589.309 645.815,562.442 671.307,545.977 700.203,540.522 729.738,544.846 757.731,556.629 782.789,573.305 804.239,592.642 821.946,612.986 836.113,633.252 847.117,652.812 855.397,671.348 861.39,688.739 865.483,704.98 868.004,720.123 869.212,734.25 869.298,747.449 868.394,759.809 866.575,771.406 863.864,782.309 860.241,792.569 855.64,802.221 849.958,811.278 843.048,819.726 834.726,827.513 824.771,834.536 812.927,840.617 798.917,845.48 782.464,848.705 763.332,849.683 741.393,847.566 716.743,841.222 689.858,829.244 661.795,810.067 634.392,782.283 610.357,745.226 593.063,699.781 585.907,649.117 591.262,598.739 609.451,555.346 638.379,524.697 674.165,509.633 712.435,509.485 749.507,521.047 782.974,540.218 811.679,563.314 835.398,587.656 854.465,611.584 869.491,634.226 881.174,655.216 890.194,674.475 897.166,692.073 902.617,708.141 906.983,722.826 910.625,736.269 913.833,748.595 916.845,759.905 919.863,770.281 923.06,779.78 926.597,788.438 930.628,796.264 935.315,803.245 940.831,809.337 947.371,814.46 955.156,818.493 964.439,821.259 975.51,822.513 988.687,821.918 1004.31,819.026 1022.72,813.253 1044.18,803.868 1068.81,790.005 1096.43,770.737 1126.33,745.258 1157.02,713.229 1186,675.317 1209.72,633.807 1224.05,592.939 1225.31,558.422 1211.74,535.8 1184.44,528.207 1147.23,534.974 1105.27,552.182 1063.33,574.713 1024.8,598.266 991.42,620.275 963.678,639.782 941.281,656.836 923.547,671.927 909.654,685.617 898.79,698.372 890.216,710.513 883.293,722.232 877.485,733.622 872.346,744.711 867.506,755.491 862.657,765.933 857.527,775.998 851.873,785.639 845.467,794.798 838.079,803.401 829.475,811.348 819.411,818.497 807.633,824.641 793.886,829.485 777.936,832.607 759.608,833.423 738.848,831.146 715.826,824.767 691.065,813.086 665.602,794.838 641.127,768.986 620.008,735.204 605.08,694.507 599.105,649.739 603.952,605.525 619.835,567.339 645.055,539.889 676.465,525.632 710.439,524.282 743.806,533.452 774.355,549.864 800.904,570.402 823.081,592.659 841.041,615.04 855.227,636.623 866.198,656.955 874.524,675.874 880.731,693.376 885.273,709.542 888.527,724.485 890.796,738.326 892.313,751.184 893.257,763.167 893.756,774.37 893.905,784.876 893.762,794.759 893.366,804.08 892.732,812.894 891.861,821.25 890.737,829.19 889.329,836.753 887.595,843.975 885.473,850.89 882.888,857.527 879.741,863.915 875.912,870.078 871.249,876.031 865.568,881.783 858.643,887.321 850.198,892.607 839.903,897.554 827.368,902.001 812.144,905.671 793.734,908.11 771.636,908.595 745.417,906.022 714.875,898.769 680.29,884.599 642.826,860.698 605.008,824.079 571.1,772.631 546.95,706.918 538.747,632.139 550.666,558.579 582.506,498.832 629.227,462.463 683.084,451.874 736.77,462.552 785.401,486.727 826.759,517.074 860.529,548.491 887.428,578.162 908.584,604.889 925.201,628.393 938.393,648.822 949.135,666.475 958.242,681.663 966.386,694.651 974.115,705.637 981.873,714.751 990.023,722.054 998.858,727.542 1008.62,731.153 1019.48,732.766 1031.56,732.215 1044.9,729.301 1059.45,723.813 1074.97,715.576 1091.09,704.506 1107.18,690.699 1122.37,674.526 1135.55,656.724 1145.52,638.433 1151.08,621.137 1151.36,606.453 1145.97,595.822 1135.22,590.166 1120.04,589.68 1101.83,593.838 1082.13,601.618 1062.38,611.822 1043.74,623.356 1027,635.385 1012.58,647.365 1000.67,658.996 991.24,670.138 984.173,680.742 979.281,690.789 976.372,700.263 975.271,709.129 975.832,717.33 977.954,724.782 981.573,731.377 986.669,736.98 993.256,741.426 1001.37,744.52 1011.08,746.031 1022.42,745.691 1035.42,743.201 1050.04,738.238 1066.14,730.49 1083.4,719.701 1101.28,705.758 1118.94,688.804 1135.25,669.365 1148.81,648.467 1158.11,627.651 1161.81,608.833 1159.05,593.965 1149.72,584.57 1134.58,581.341 1115.12,583.988 1093.18,591.421 1070.6,602.157 1048.9,614.744 1029.14,628.039 1011.95,641.296 997.575,654.116 986.011,666.34 977.095,677.942 970.59,688.947 966.239,699.381 963.802,709.252 963.078,718.54 963.912,727.194 966.202,735.138 969.897,742.27 974.991,748.463 981.524,753.559 989.57,757.369 999.227,759.662 1010.61,760.161 1023.81,758.539 1038.89,754.419 1055.82,747.396 1074.42,737.073 1094.28,723.136 1114.66,705.478 1134.43,684.369 1152.07,660.642 1165.72,635.828 1173.53,612.124 1173.97,592.08 1166.41,578.015 1151.31,571.348 1130.21,572.185 1105.36,579.382 1079.11,591.057 1053.51,605.234 1030.01,620.314 1009.45,635.264 992.172,649.564 978.153,663.047 967.166,675.738 958.885,687.734 952.958,699.13 949.055,709.993 946.89,720.349 946.238,730.189 946.932,739.476 948.867,748.15 951.994,756.131 956.314,763.319 961.88,769.593 968.785,774.803 977.162,778.764 987.178,781.241 999.02,781.942 1012.88,780.503 1028.93,776.484 1047.26,769.367 1067.82,758.59 1090.34,743.613 1114.16,724.052 1138.1,699.898 1160.41,671.804 1178.77,641.373 1190.57,611.274 1193.5,584.955 1186.26,565.855 1169.11,556.309 1143.95,556.724 1113.79,565.55 1081.88,580.053 1050.93,597.376 1022.8,615.313 998.461,632.565 978.19,648.597 961.824,663.364 948.961,677.049 939.101,689.886 931.738,702.081 926.409,713.775 922.716,725.048 920.335,735.933 919.012,746.431 918.558,756.523 918.842,766.18 919.782,775.371 921.338,784.06 923.509,792.21 926.326,799.781 929.855,806.723 934.192,812.976 939.469,818.46 945.852,823.071 953.548,826.665 962.803,829.05 973.908,829.963 987.192,829.051 1003.01,825.845 1021.73,819.735 1043.64,809.948 1068.89,795.562 1097.33,775.574 1128.24,749.091 1160.1,715.7 1190.24,676.054 1214.92,632.555 1229.67,589.75 1230.58,553.807 1215.78,530.686 1186.58,523.641 1147.21,531.719 1103.22,550.487 1059.67,574.374 1019.98,598.858 985.839,621.375 957.629,641.071 934.946,658.119 917.021,673.104 902.968,686.648 891.929,699.246 883.133,711.233 875.919,722.8 869.731,734.033 864.108,744.954 858.666,755.544 853.082,765.758 847.069,775.539 840.37,784.816 832.74,793.497 823.939,801.463 813.727,808.555 801.864,814.545 788.124,819.122 772.316,821.853 754.322,822.154 734.163,819.265 712.093,812.243 688.717,800.02 665.121,781.546 642.966,756.081 624.458,723.636 612.105,685.478 608.204,644.448 614.149,604.773 629.863,571.165 653.67,547.481 682.754,535.6 713.963,535.125 744.555,543.962 772.605,559.304 797.051,578.469 817.528,599.35 834.135,620.514 847.232,641.098 857.291,660.652 864.803,678.988 870.222,696.074 873.944,711.958 876.291,726.727 877.515,740.485 877.804,753.333 877.284,765.367 876.035,776.674 874.087,787.327 871.433,797.39 868.027,806.914 863.789,815.935 858.601,824.474 852.312,832.531 844.729,840.076 835.62,847.04 824.713,853.294 811.698,858.624 796.243,862.693 778.018,864.988 756.748,864.759 732.305,860.952 704.855,852.155 675.072,836.622 644.398,812.465 615.279,778.121 591.203,733.207 576.287,679.596 574.254,622.166 587.016,568.342 613.626,525.992 650.386,500.528 692.182,493.084 734.176,500.875 772.918,519.139 806.575,543.121 834.602,569.187 857.259,595.037 875.215,619.45 889.286,641.913 900.287,662.313 908.96,680.733 915.95,697.333 921.796,712.289 926.95,725.763 931.782,737.887 936.607,748.761 941.695,758.447 947.29,766.971 953.622,774.317 960.918,780.423 969.412,785.178 979.348,788.411 990.978,789.88 1004.56,789.259 1020.33,786.132 1038.47,779.985 1059.06,770.222 1081.93,756.217 1106.62,737.426 1132.12,713.59 1156.81,685.04 1178.35,653.055 1193.94,620.122 1200.76,589.834 1196.84,566.201 1181.79,552.43 1157.17,549.747 1126.06,557.002 1092.1,571.335 1058.52,589.419 1027.63,608.521 1000.69,626.954 978.127,643.985 959.814,659.518 945.322,673.766 934.096,687.025 925.561,699.561 919.186,711.564 914.507,723.149 911.141,734.374 908.779,745.256 907.18,755.788 906.161,765.956 905.588,775.741 905.364,785.127 905.424,794.1 905.728,802.653 906.255,810.78 907.001,818.478 907.977,825.747 909.208,832.585 910.729,838.988 912.594,844.949 914.869,850.457 917.639,855.489 921.012,860.014 925.121,863.986 930.129,867.334 936.237,869.96 943.693,871.726 952.793,872.436 963.893,871.816 977.412,869.486 993.827,864.921 1013.65,857.407 1037.38,845.998 1065.4,829.486 1097.77,806.448 1133.95,775.426 1172.29,735.396 1209.59,686.621 1240.86,631.824 1259.78,577.119 1260.5,531.49 1240.27,503.84 1201.31,498.626 1150.22,513.387 1095.06,540.521 1042.42,571.639 996.116,600.899 957.5,625.744 926.356,645.956 901.722,662.408 882.391,676.207 867.166,688.289 854.973,699.305 844.895,709.64 836.171,719.478 828.176,728.864 820.407,737.751 812.453,746.037 803.985,753.572 794.737,760.169 784.5,765.602 773.129,769.593 760.548,771.811 746.774,771.864 731.947,769.308 716.371,763.668 700.551,754.5 685.225,741.481 671.358,724.543 660.088,704.034 652.587,680.853 649.861,656.49 652.516,632.904 660.569,612.211 673.398,596.258 689.849,586.244 708.474,582.52 727.81,584.65 746.598,591.654 763.901,602.312 779.125,615.424 791.974,629.964 802.371,645.136 810.387,660.371 816.169,675.286 819.897,689.64 821.747,703.283 821.872,716.128 820.388,728.119 817.375,739.209 812.871,749.347 806.879,758.46 799.375,766.443 790.317,773.141 779.659,778.341 767.379,781.752 753.503,782.999 738.151,781.62 721.588,777.078 704.281,768.806 686.956,756.296 670.629,739.245 656.578,717.752 646.231,692.526 640.941,665.028 641.691,637.422 648.806,612.273 661.805,592.021 679.47,578.425 700.114,572.203 721.952,573.015 743.408,579.746 763.302,590.917 780.89,605.042 795.809,620.852 807.976,637.38 817.496,653.954 824.566,670.139 829.426,685.679 832.306,700.434 833.411,714.337 832.902,727.363 830.889,739.502 827.436,750.745 822.558,761.069 816.23,770.425 808.392,778.724 798.958,785.827 787.833,791.525 774.932,795.521 760.213,797.416 743.719,796.693 725.64,792.719 706.389,784.776 686.677,772.142 667.587,754.252 650.576,730.941 637.379,702.741 629.759,671.138 629.126,638.619 636.113,608.359 650.315,583.553 670.319,566.603 694.047,558.554 719.262,559.016 744.007,566.551 766.852,579.248 786.942,595.229 803.904,612.942 817.715,631.254 828.561,649.419 836.736,666.988 842.563,683.725 846.352,699.525 848.373,714.366 848.84,728.266 847.909,741.263 845.678,753.399 842.189,764.703 837.433,775.191 831.356,784.85 823.859,793.632 814.812,801.439 804.056,808.11 791.421,813.396 776.75,816.939 759.934,818.24 740.969,816.633 720.041,811.282 697.627,801.207 674.62,785.395 652.433,763.03 633.015,733.858 618.696,698.656 611.793,659.611 614.002,620.335 625.79,585.256 646.107,558.47 672.614,542.544 702.348,537.922 732.483,543.174 760.843,555.818 786.077,573.198 807.57,593.059 825.241,613.762 839.335,634.256 850.261,653.947 858.481,672.546 864.444,689.955 868.548,706.185 871.127,721.301 872.443,735.39 872.695,748.55 872.016,760.87 870.487,772.436 868.14,783.319 864.962,793.576 860.898,803.253 855.856,812.375 849.703,820.944 842.268,828.934 833.34,836.278 822.67,842.849 809.979,848.44 794.966,852.726 777.337,855.219 756.859,855.216 733.437,851.736 707.256,843.49 678.963,828.902 649.897,806.29 622.288,774.288 "/>
</svg>
