<?xml version="1.0" encoding="utf-8"?>
<svg xmlns="http://www.w3.org/2000/svg" xmlns:xlink="http://www.w3.org/1999/xlink" width="420" height="360" viewBox="0 0 1680 1440">
<defs>
  <clipPath id="clip170">
    <rect x="0" y="0" width="1680" height="1440"/>
  </clipPath>
</defs>
<path clip-path="url(#clip170)" d="M0 1440 L1680 1440 L1680 0 L0 0  Z" fill="#ffffff" fill-rule="evenodd" fill-opacity="1"/>
<defs>
  <clipPath id="clip171">
    <rect x="211" y="140" width="1422" height="1102"/>
  </clipPath>
</defs>
<path clip-path="url(#clip170)" d="M211.498 1241.33 L1632.76 1241.33 L1632.76 140.752 L211.498 140.752  Z" fill="#ffffff" fill-rule="evenodd" fill-opacity="1"/>
<polyline clip-path="url(#clip171)" style="stroke:#000000; stroke-linecap:round; stroke-linejoin:round; stroke-width:2; stroke-opacity:0.1; fill:none" points="531.286,1241.33 531.286,140.752 "/>
<polyline clip-path="url(#clip171)" style="stroke:#000000; stroke-linecap:round; stroke-linejoin:round; stroke-width:2; stroke-opacity:0.1; fill:none" points="891.142,1241.33 891.142,140.752 "/>
<polyline clip-path="url(#clip171)" style="stroke:#000000; stroke-linecap:round; stroke-linejoin:round; stroke-width:2; stroke-opacity:0.1; fill:none" points="1251,1241.33 1251,140.752 "/>
<polyline clip-path="url(#clip171)" style="stroke:#000000; stroke-linecap:round; stroke-linejoin:round; stroke-width:2; stroke-opacity:0.1; fill:none" points="1610.86,1241.33 1610.86,140.752 "/>
<polyline clip-path="url(#clip171)" style="stroke:#000000; stroke-linecap:round; stroke-linejoin:round; stroke-width:2; stroke-opacity:0.1; fill:none" points="211.498,1231.48 1632.76,1231.48 "/>
<polyline clip-path="url(#clip171)" style="stroke:#000000; stroke-linecap:round; stroke-linejoin:round; stroke-width:2; stroke-opacity:0.1; fill:none" points="211.498,1009.96 1632.76,1009.96 "/>
<polyline clip-path="url(#clip171)" style="stroke:#000000; stroke-linecap:round; stroke-linejoin:round; stroke-width:2; stroke-opacity:0.1; fill:none" points="211.498,788.435 1632.76,788.435 "/>
<polyline clip-path="url(#clip171)" style="stroke:#000000; stroke-linecap:round; stroke-linejoin:round; stroke-width:2; stroke-opacity:0.1; fill:none" points="211.498,566.91 1632.76,566.91 "/>
<polyline clip-path="url(#clip171)" style="stroke:#000000; stroke-linecap:round; stroke-linejoin:round; stroke-width:2; stroke-opacity:0.1; fill:none" points="211.498,345.385 1632.76,345.385 "/>
<polyline clip-path="url(#clip170)" style="stroke:#000000; stroke-linecap:round; stroke-linejoin:round; stroke-width:4; stroke-opacity:1; fill:none" points="211.498,1241.33 1632.76,1241.33 "/>
<polyline clip-path="url(#clip170)" style="stroke:#000000; stroke-linecap:round; stroke-linejoin:round; stroke-width:4; stroke-opacity:1; fill:none" points="531.286,1241.33 531.286,1222.43 "/>
<polyline clip-path="url(#clip170)" style="stroke:#000000; stroke-linecap:round; stroke-linejoin:round; stroke-width:4; stroke-opacity:1; fill:none" points="891.142,1241.33 891.142,1222.43 "/>
<polyline clip-path="url(#clip170)" style="stroke:#000000; stroke-linecap:round; stroke-linejoin:round; stroke-width:4; stroke-opacity:1; fill:none" points="1251,1241.33 1251,1222.43 "/>
<polyline clip-path="url(#clip170)" style="stroke:#000000; stroke-linecap:round; stroke-linejoin:round; stroke-width:4; stroke-opacity:1; fill:none" points="1610.86,1241.33 1610.86,1222.43 "/>
<path clip-path="url(#clip170)" d="M485.348 1281.14 L515.024 1281.14 L515.024 1285.07 L485.348 1285.07 L485.348 1281.14 Z" fill="#000000" fill-rule="nonzero" fill-opacity="1" /><path clip-path="url(#clip170)" d="M525.927 1294.03 L533.566 1294.03 L533.566 1267.67 L525.256 1269.33 L525.256 1265.08 L533.519 1263.41 L538.195 1263.41 L538.195 1294.03 L545.834 1294.03 L545.834 1297.97 L525.927 1297.97 L525.927 1294.03 Z" fill="#000000" fill-rule="nonzero" fill-opacity="1" /><path clip-path="url(#clip170)" d="M565.278 1266.49 Q561.667 1266.49 559.839 1270.05 Q558.033 1273.59 558.033 1280.72 Q558.033 1287.83 559.839 1291.39 Q561.667 1294.94 565.278 1294.94 Q568.913 1294.94 570.718 1291.39 Q572.547 1287.83 572.547 1280.72 Q572.547 1273.59 570.718 1270.05 Q568.913 1266.49 565.278 1266.49 M565.278 1262.78 Q571.089 1262.78 574.144 1267.39 Q577.223 1271.97 577.223 1280.72 Q577.223 1289.45 574.144 1294.06 Q571.089 1298.64 565.278 1298.64 Q559.468 1298.64 556.39 1294.06 Q553.334 1289.45 553.334 1280.72 Q553.334 1271.97 556.39 1267.39 Q559.468 1262.78 565.278 1262.78 Z" fill="#000000" fill-rule="nonzero" fill-opacity="1" /><path clip-path="url(#clip170)" d="M891.142 1266.49 Q887.531 1266.49 885.702 1270.05 Q883.897 1273.59 883.897 1280.72 Q883.897 1287.83 885.702 1291.39 Q887.531 1294.94 891.142 1294.94 Q894.776 1294.94 896.582 1291.39 Q898.411 1287.83 898.411 1280.72 Q898.411 1273.59 896.582 1270.05 Q894.776 1266.49 891.142 1266.49 M891.142 1262.78 Q896.952 1262.78 900.008 1267.39 Q903.087 1271.97 903.087 1280.72 Q903.087 1289.45 900.008 1294.06 Q896.952 1298.64 891.142 1298.64 Q885.332 1298.64 882.253 1294.06 Q879.198 1289.45 879.198 1280.72 Q879.198 1271.97 882.253 1267.39 Q885.332 1262.78 891.142 1262.78 Z" fill="#000000" fill-rule="nonzero" fill-opacity="1" /><path clip-path="url(#clip170)" d="M1225.69 1294.03 L1233.33 1294.03 L1233.33 1267.67 L1225.02 1269.33 L1225.02 1265.08 L1233.28 1263.41 L1237.95 1263.41 L1237.95 1294.03 L1245.59 1294.03 L1245.59 1297.97 L1225.69 1297.97 L1225.69 1294.03 Z" fill="#000000" fill-rule="nonzero" fill-opacity="1" /><path clip-path="url(#clip170)" d="M1265.04 1266.49 Q1261.43 1266.49 1259.6 1270.05 Q1257.79 1273.59 1257.79 1280.72 Q1257.79 1287.83 1259.6 1291.39 Q1261.43 1294.94 1265.04 1294.94 Q1268.67 1294.94 1270.48 1291.39 Q1272.31 1287.83 1272.31 1280.72 Q1272.31 1273.59 1270.48 1270.05 Q1268.67 1266.49 1265.04 1266.49 M1265.04 1262.78 Q1270.85 1262.78 1273.9 1267.39 Q1276.98 1271.97 1276.98 1280.72 Q1276.98 1289.45 1273.9 1294.06 Q1270.85 1298.64 1265.04 1298.64 Q1259.23 1298.64 1256.15 1294.06 Q1253.09 1289.45 1253.09 1280.72 Q1253.09 1271.97 1256.15 1267.39 Q1259.23 1262.78 1265.04 1262.78 Z" fill="#000000" fill-rule="nonzero" fill-opacity="1" /><path clip-path="url(#clip170)" d="M1589.63 1294.03 L1605.95 1294.03 L1605.95 1297.97 L1584 1297.97 L1584 1294.03 Q1586.67 1291.28 1591.25 1286.65 Q1595.86 1282 1597.04 1280.65 Q1599.28 1278.13 1600.16 1276.39 Q1601.06 1274.64 1601.06 1272.95 Q1601.06 1270.19 1599.12 1268.45 Q1597.2 1266.72 1594.1 1266.72 Q1591.9 1266.72 1589.44 1267.48 Q1587.01 1268.25 1584.24 1269.8 L1584.24 1265.08 Q1587.06 1263.94 1589.51 1263.36 Q1591.97 1262.78 1594 1262.78 Q1599.37 1262.78 1602.57 1265.47 Q1605.76 1268.15 1605.76 1272.64 Q1605.76 1274.77 1604.95 1276.7 Q1604.17 1278.59 1602.06 1281.19 Q1601.48 1281.86 1598.38 1285.07 Q1595.28 1288.27 1589.63 1294.03 Z" fill="#000000" fill-rule="nonzero" fill-opacity="1" /><path clip-path="url(#clip170)" d="M1625.76 1266.49 Q1622.15 1266.49 1620.32 1270.05 Q1618.52 1273.59 1618.52 1280.72 Q1618.52 1287.83 1620.32 1291.39 Q1622.15 1294.94 1625.76 1294.94 Q1629.4 1294.94 1631.2 1291.39 Q1633.03 1287.83 1633.03 1280.72 Q1633.03 1273.59 1631.2 1270.05 Q1629.4 1266.49 1625.76 1266.49 M1625.76 1262.78 Q1631.57 1262.78 1634.63 1267.39 Q1637.71 1271.97 1637.71 1280.72 Q1637.71 1289.45 1634.63 1294.06 Q1631.57 1298.64 1625.76 1298.64 Q1619.95 1298.64 1616.87 1294.06 Q1613.82 1289.45 1613.82 1280.72 Q1613.82 1271.97 1616.87 1267.39 Q1619.95 1262.78 1625.76 1262.78 Z" fill="#000000" fill-rule="nonzero" fill-opacity="1" /><path clip-path="url(#clip170)" d="M938.742 1339.74 L925.851 1357.09 L939.41 1375.39 L932.503 1375.39 L922.127 1361.39 L911.751 1375.39 L904.844 1375.39 L918.69 1356.74 L906.022 1339.74 L912.929 1339.74 L922.382 1352.44 L931.835 1339.74 L938.742 1339.74 Z" fill="#000000" fill-rule="nonzero" fill-opacity="1" /><polyline clip-path="url(#clip170)" style="stroke:#000000; stroke-linecap:round; stroke-linejoin:round; stroke-width:4; stroke-opacity:1; fill:none" points="211.498,1241.33 211.498,140.752 "/>
<polyline clip-path="url(#clip170)" style="stroke:#000000; stroke-linecap:round; stroke-linejoin:round; stroke-width:4; stroke-opacity:1; fill:none" points="211.498,1231.48 230.396,1231.48 "/>
<polyline clip-path="url(#clip170)" style="stroke:#000000; stroke-linecap:round; stroke-linejoin:round; stroke-width:4; stroke-opacity:1; fill:none" points="211.498,1009.96 230.396,1009.96 "/>
<polyline clip-path="url(#clip170)" style="stroke:#000000; stroke-linecap:round; stroke-linejoin:round; stroke-width:4; stroke-opacity:1; fill:none" points="211.498,788.435 230.396,788.435 "/>
<polyline clip-path="url(#clip170)" style="stroke:#000000; stroke-linecap:round; stroke-linejoin:round; stroke-width:4; stroke-opacity:1; fill:none" points="211.498,566.91 230.396,566.91 "/>
<polyline clip-path="url(#clip170)" style="stroke:#000000; stroke-linecap:round; stroke-linejoin:round; stroke-width:4; stroke-opacity:1; fill:none" points="211.498,345.385 230.396,345.385 "/>
<path clip-path="url(#clip170)" d="M174.354 1217.28 Q170.743 1217.28 168.914 1220.85 Q167.108 1224.39 167.108 1231.52 Q167.108 1238.63 168.914 1242.19 Q170.743 1245.73 174.354 1245.73 Q177.988 1245.73 179.794 1242.19 Q181.622 1238.63 181.622 1231.52 Q181.622 1224.39 179.794 1220.85 Q177.988 1217.28 174.354 1217.28 M174.354 1213.58 Q180.164 1213.58 183.219 1218.19 Q186.298 1222.77 186.298 1231.52 Q186.298 1240.25 183.219 1244.85 Q180.164 1249.44 174.354 1249.44 Q168.544 1249.44 165.465 1244.85 Q162.409 1240.25 162.409 1231.52 Q162.409 1222.77 165.465 1218.19 Q168.544 1213.58 174.354 1213.58 Z" fill="#000000" fill-rule="nonzero" fill-opacity="1" /><path clip-path="url(#clip170)" d="M135.002 1023.3 L142.641 1023.3 L142.641 996.939 L134.331 998.606 L134.331 994.346 L142.595 992.68 L147.271 992.68 L147.271 1023.3 L154.909 1023.3 L154.909 1027.24 L135.002 1027.24 L135.002 1023.3 Z" fill="#000000" fill-rule="nonzero" fill-opacity="1" /><path clip-path="url(#clip170)" d="M174.354 995.759 Q170.743 995.759 168.914 999.323 Q167.108 1002.86 167.108 1009.99 Q167.108 1017.1 168.914 1020.67 Q170.743 1024.21 174.354 1024.21 Q177.988 1024.21 179.794 1020.67 Q181.622 1017.1 181.622 1009.99 Q181.622 1002.86 179.794 999.323 Q177.988 995.759 174.354 995.759 M174.354 992.055 Q180.164 992.055 183.219 996.661 Q186.298 1001.24 186.298 1009.99 Q186.298 1018.72 183.219 1023.33 Q180.164 1027.91 174.354 1027.91 Q168.544 1027.91 165.465 1023.33 Q162.409 1018.72 162.409 1009.99 Q162.409 1001.24 165.465 996.661 Q168.544 992.055 174.354 992.055 Z" fill="#000000" fill-rule="nonzero" fill-opacity="1" /><path clip-path="url(#clip170)" d="M138.22 801.78 L154.539 801.78 L154.539 805.715 L132.595 805.715 L132.595 801.78 Q135.257 799.025 139.84 794.395 Q144.446 789.743 145.627 788.4 Q147.872 785.877 148.752 784.141 Q149.655 782.382 149.655 780.692 Q149.655 777.937 147.71 776.201 Q145.789 774.465 142.687 774.465 Q140.488 774.465 138.034 775.229 Q135.604 775.993 132.826 777.544 L132.826 772.821 Q135.65 771.687 138.104 771.109 Q140.558 770.53 142.595 770.53 Q147.965 770.53 151.159 773.215 Q154.354 775.9 154.354 780.391 Q154.354 782.52 153.544 784.442 Q152.757 786.34 150.65 788.932 Q150.071 789.604 146.97 792.821 Q143.868 796.016 138.22 801.78 Z" fill="#000000" fill-rule="nonzero" fill-opacity="1" /><path clip-path="url(#clip170)" d="M174.354 774.233 Q170.743 774.233 168.914 777.798 Q167.108 781.34 167.108 788.47 Q167.108 795.576 168.914 799.141 Q170.743 802.682 174.354 802.682 Q177.988 802.682 179.794 799.141 Q181.622 795.576 181.622 788.47 Q181.622 781.34 179.794 777.798 Q177.988 774.233 174.354 774.233 M174.354 770.53 Q180.164 770.53 183.219 775.136 Q186.298 779.72 186.298 788.47 Q186.298 797.196 183.219 801.803 Q180.164 806.386 174.354 806.386 Q168.544 806.386 165.465 801.803 Q162.409 797.196 162.409 788.47 Q162.409 779.72 165.465 775.136 Q168.544 770.53 174.354 770.53 Z" fill="#000000" fill-rule="nonzero" fill-opacity="1" /><path clip-path="url(#clip170)" d="M148.359 565.556 Q151.715 566.273 153.59 568.542 Q155.488 570.81 155.488 574.144 Q155.488 579.259 151.97 582.06 Q148.451 584.861 141.97 584.861 Q139.794 584.861 137.479 584.421 Q135.187 584.005 132.734 583.148 L132.734 578.634 Q134.678 579.769 136.993 580.347 Q139.308 580.926 141.831 580.926 Q146.229 580.926 148.521 579.19 Q150.835 577.454 150.835 574.144 Q150.835 571.088 148.683 569.375 Q146.553 567.639 142.734 567.639 L138.706 567.639 L138.706 563.796 L142.919 563.796 Q146.368 563.796 148.196 562.431 Q150.025 561.042 150.025 558.449 Q150.025 555.787 148.127 554.375 Q146.252 552.94 142.734 552.94 Q140.812 552.94 138.613 553.357 Q136.414 553.773 133.775 554.653 L133.775 550.486 Q136.437 549.746 138.752 549.375 Q141.09 549.005 143.15 549.005 Q148.474 549.005 151.576 551.435 Q154.678 553.843 154.678 557.963 Q154.678 560.833 153.034 562.824 Q151.391 564.792 148.359 565.556 Z" fill="#000000" fill-rule="nonzero" fill-opacity="1" /><path clip-path="url(#clip170)" d="M174.354 552.708 Q170.743 552.708 168.914 556.273 Q167.108 559.815 167.108 566.944 Q167.108 574.051 168.914 577.616 Q170.743 581.157 174.354 581.157 Q177.988 581.157 179.794 577.616 Q181.622 574.051 181.622 566.944 Q181.622 559.815 179.794 556.273 Q177.988 552.708 174.354 552.708 M174.354 549.005 Q180.164 549.005 183.219 553.611 Q186.298 558.195 186.298 566.944 Q186.298 575.671 183.219 580.278 Q180.164 584.861 174.354 584.861 Q168.544 584.861 165.465 580.278 Q162.409 575.671 162.409 566.944 Q162.409 558.195 165.465 553.611 Q168.544 549.005 174.354 549.005 Z" fill="#000000" fill-rule="nonzero" fill-opacity="1" /><path clip-path="url(#clip170)" d="M147.039 332.179 L135.234 350.628 L147.039 350.628 L147.039 332.179 M145.812 328.105 L151.692 328.105 L151.692 350.628 L156.622 350.628 L156.622 354.517 L151.692 354.517 L151.692 362.665 L147.039 362.665 L147.039 354.517 L131.437 354.517 L131.437 350.003 L145.812 328.105 Z" fill="#000000" fill-rule="nonzero" fill-opacity="1" /><path clip-path="url(#clip170)" d="M174.354 331.183 Q170.743 331.183 168.914 334.748 Q167.108 338.29 167.108 345.419 Q167.108 352.526 168.914 356.091 Q170.743 359.632 174.354 359.632 Q177.988 359.632 179.794 356.091 Q181.622 352.526 181.622 345.419 Q181.622 338.29 179.794 334.748 Q177.988 331.183 174.354 331.183 M174.354 327.48 Q180.164 327.48 183.219 332.086 Q186.298 336.67 186.298 345.419 Q186.298 354.146 183.219 358.753 Q180.164 363.336 174.354 363.336 Q168.544 363.336 165.465 358.753 Q162.409 354.146 162.409 345.419 Q162.409 336.67 165.465 332.086 Q168.544 327.48 174.354 327.48 Z" fill="#000000" fill-rule="nonzero" fill-opacity="1" /><path clip-path="url(#clip170)" d="M56.3333 704.551 L56.3333 676.733 L61.6805 676.733 L87.3025 698.759 L87.3025 676.733 L91.9813 676.733 L91.9813 705.347 L86.6341 705.347 L61.0121 683.322 L61.0121 704.551 L56.3333 704.551 Z" fill="#000000" fill-rule="nonzero" fill-opacity="1" /><path clip-path="url(#clip170)" d="M901.184 27.2059 L884.778 49.2833 L902.035 72.576 L893.244 72.576 L880.038 54.752 L866.832 72.576 L858.042 72.576 L875.663 48.8377 L859.541 27.2059 L868.331 27.2059 L880.362 43.369 L892.393 27.2059 L901.184 27.2059 Z" fill="#000000" fill-rule="nonzero" fill-opacity="1" /><path clip-path="url(#clip170)" d="M908.8 46.9338 L942.179 46.9338 L942.179 52.7671 L908.8 52.7671 L908.8 46.9338 Z" fill="#000000" fill-rule="nonzero" fill-opacity="1" /><path clip-path="url(#clip170)" d="M950.807 27.2059 L986.212 27.2059 L986.212 34.0114 L958.18 66.6212 L986.212 66.6212 L986.212 72.576 L949.795 72.576 L949.795 65.7705 L977.827 33.1607 L950.807 33.1607 L950.807 27.2059 Z" fill="#000000" fill-rule="nonzero" fill-opacity="1" /><polyline clip-path="url(#clip171)" style="stroke:#009af9; stroke-linecap:round; stroke-linejoin:round; stroke-width:1.6; stroke-opacity:1; fill:none" points="927.128,1209.33 928.886,1209.93 933.854,1210.18 941.868,1209.94 953.08,1208.95 967.903,1206.81 986.992,1202.87 1011.23,1196.11 1041.7,1184.98 1079.7,1167.08 1126.57,1138.88 1183.5,1095.44 1251.01,1030.33 1328.1,936.592 1410.95,809.341 1491.53,650.997 1557.13,477.421 1592.53,319.176 1585.56,210.871 1533.31,171.901 1444.25,195.656 1334.03,257.717 1218.7,332.564 1110.07,403.638 1014.59,463.945 934.459,512.477 869.22,550.802 817.104,581.09 775.874,605.266 743.289,624.783 717.33,640.638 696.283,653.476 678.752,663.684 663.635,671.478 650.097,676.963 637.532,680.181 625.527,681.147 613.842,679.877 602.385,676.417 591.187,670.868 580.391,663.407 570.231,654.307 561.005,643.947 553.052,632.809 546.714,621.462 542.304,610.526 540.062,600.625 540.127,592.331 542.511,586.107 547.085,582.269 553.594,580.962 561.671,582.161 570.873,585.693 580.719,591.274 590.725,598.543 600.441,607.107 609.465,616.566 617.466,626.535 624.184,636.655 629.427,646.6 633.068,656.072 635.036,664.801 635.308,672.54 633.9,679.06 630.863,684.151 626.284,687.62 620.282,689.295 613.015,689.035 604.68,686.742 595.523,682.372 585.839,675.959 575.974,667.634 566.325,657.641 557.322,646.347 549.412,634.243 543.031,621.921 538.569,610.042 536.328,599.276 536.491,590.241 539.097,583.442 544.028,579.222 551.018,577.735 559.68,578.949 569.539,582.67 580.079,588.582 590.782,596.291 601.165,605.372 610.803,615.394 619.347,625.95 626.523,636.661 632.134,647.188 636.053,657.222 638.207,666.485 638.574,674.721 637.174,681.695 634.059,687.188 629.316,690.994 623.067,692.931 615.468,692.841 606.719,690.609 597.069,686.175 586.82,679.556 576.333,670.873 566.022,660.364 556.345,648.407 547.782,635.514 540.808,622.317 535.852,609.527 533.256,597.877 533.234,588.05 535.84,580.606 540.96,575.927 548.315,574.189 557.489,575.36 567.972,579.228 579.205,585.448 590.628,593.592 601.72,603.197 612.026,613.804 621.174,624.978 628.875,636.321 634.924,647.477 639.187,658.128 641.593,667.987 642.119,676.79 640.786,684.294 637.648,690.269 632.792,694.502 626.336,696.794 618.436,696.971 609.291,694.897 599.152,690.491 588.325,683.749 577.18,674.772 566.148,663.79 555.714,651.178 546.394,637.467 538.704,623.326 533.123,609.52 530.037,596.851 529.7,586.075 532.196,577.821 537.42,572.527 545.085,570.4 554.751,571.414 565.867,575.345 577.83,581.817 590.033,590.366 601.912,600.49 612.975,611.694 622.822,623.514 631.145,635.528 637.728,647.366 642.43,658.695 645.178,669.219 645.95,678.667 644.766,686.789 641.68,693.345 636.778,698.111 630.175,700.872 622.024,701.437 612.52,699.645 601.909,695.39 590.5,688.64 578.667,679.467 566.858,668.081 555.578,654.85 545.382,640.311 536.832,625.163 530.459,610.228 526.71,596.382 525.889,584.466 528.121,575.196 533.325,569.081 541.212,566.376 551.323,567.075 563.068,570.947 575.794,577.587 588.841,586.491 601.595,597.114 613.52,608.92 624.181,621.411 633.246,634.14 640.482,646.714 645.742,658.788 648.947,670.057 650.074,680.242 649.144,689.083 646.209,696.335 641.352,701.759 634.685,705.128 626.355,706.229 616.548,704.877 605.505,700.933 593.527,694.33 580.992,685.104 568.353,673.43 556.138,659.653 544.935,644.305 535.354,628.108 527.99,611.931 523.356,596.729 521.828,583.444 523.586,572.898 528.589,565.694 536.563,562.159 547.033,562.324 559.377,565.961 572.887,572.641 586.843,581.818 600.571,592.9 613.481,605.301 625.095,618.484 635.05,631.969 643.09,645.34 649.055,658.235 652.861,670.338 654.483,681.361 653.94,691.039 651.283,699.118 646.593,705.349 639.974,709.489 631.566,711.307 621.543,710.589 610.134,707.161 597.629,700.912 584.398,691.832 570.895,680.045 557.661,665.855 545.313,649.772 534.512,632.517 525.918,615.001 520.126,598.256 517.598,583.337 518.597,571.193 523.143,562.554 530.996,557.85 541.684,557.177 554.553,560.326 568.843,566.857 583.765,576.178 598.572,587.644 612.611,600.614 625.345,614.498 636.369,628.778 645.399,643.008 652.256,656.805 656.846,669.84 659.139,681.817 659.154,692.463 656.939,701.519 652.571,708.726 646.15,713.83 637.802,716.58 627.689,716.733 616.02,714.077 603.068,708.452 589.185,699.788 574.815,688.144 560.501,673.76 546.879,657.093 534.655,638.841 524.557,619.933 517.274,601.471 513.375,584.624 513.232,570.496 516.96,559.982 524.384,553.656 535.056,551.721 548.307,554.023 563.324,560.119 579.245,569.383 595.238,581.106 610.564,594.581 624.616,609.156 636.931,624.261 647.181,639.41 655.163,654.195 660.766,668.269 663.954,681.325 664.742,693.085 663.178,703.285 659.335,711.66 653.307,717.947 645.207,721.877 635.181,723.182 623.413,721.612 610.15,716.953 595.714,709.064 580.526,697.923 565.114,683.678 550.119,666.701 536.277,647.628 524.381,627.369 515.22,607.067 509.489,588.003 507.703,571.451 510.113,558.513 516.652,549.969 526.936,546.188 540.307,547.119 555.913,552.354 572.813,561.241 590.076,573.008 606.858,586.867 622.456,602.085 636.327,618.024 648.084,634.145 657.483,650.003 664.391,665.227 668.758,679.497 670.594,692.53 669.948,704.056 666.89,713.81 661.508,721.522 653.905,726.913 644.206,729.694 632.57,729.58 619.206,726.304 604.398,719.65 588.523,709.498 572.075,695.878 555.675,679.039 540.067,659.503 526.092,638.101 514.632,615.968 506.523,594.463 502.456,575.034 502.867,559.027 507.861,547.499 517.178,541.072 530.218,539.878 546.119,543.605 563.87,551.61 582.427,563.061 600.817,577.076 618.21,592.82 633.952,609.561 647.569,626.686 658.755,643.694 667.337,660.181 673.246,675.807 676.484,690.279 677.097,703.325 675.156,714.682 670.746,724.08 663.963,731.237 654.912,735.854 643.725,737.616 630.57,736.213 615.679,731.355 599.369,722.818 582.073,710.495 564.36,694.47 546.946,675.09 530.685,653.032 516.529,629.334 505.45,605.362 498.334,582.695 495.859,562.939 498.378,547.495 505.844,537.351 517.799,532.952 533.432,534.188 551.693,540.498 571.427,551.021 591.507,564.776 610.935,580.8 628.901,598.229 644.804,616.342 658.239,634.556 668.971,652.41 676.893,669.533 681.989,685.615 684.301,700.382 683.905,713.573 680.886,724.927 675.337,734.168 667.353,740.995 657.039,745.087 644.523,746.098 629.976,743.684 613.644,737.521 595.87,727.362 577.135,713.097 558.078,694.842 539.509,673.029 522.394,648.476 507.802,622.423 496.81,596.469 490.371,572.425 489.167,552.069 493.484,536.871 503.137,527.762 517.486,525.025 535.521,528.327 556.011,536.869 577.665,549.599 599.276,565.4 619.819,583.234 638.498,602.216 654.757,621.635 668.249,640.934 678.799,659.686 686.354,677.547 690.946,694.235 692.649,709.492 691.56,723.068 687.778,734.703 681.396,744.113 672.503,750.984 661.194,754.966 647.586,755.683 631.842,752.742 614.2,745.773 595.017,734.477 574.799,718.71 554.238,698.575 534.226,674.539 515.837,647.522 500.271,618.934 488.736,590.605 482.293,564.602 481.681,542.926 487.173,527.183 498.495,518.321 514.856,516.518 535.067,521.257 557.715,531.529 581.362,546.09 604.698,563.681 626.647,583.179 646.403,603.662 663.43,624.412 677.42,644.889 688.244,664.688 695.896,683.492 700.445,701.039 701.998,717.09 700.67,731.407 696.57,743.738 689.791,753.797 680.413,761.26 668.513,765.757 654.184,766.876 637.56,764.176 618.852,757.215 598.392,745.614 576.678,729.133 554.413,707.79 532.538,681.994 512.216,652.666 494.783,621.309 481.618,589.951 473.965,560.945 472.724,536.615 478.268,518.854 490.337,508.789 508.062,506.629 530.102,511.76 554.859,522.99 580.708,538.871 606.183,557.964 630.096,579.013 651.577,601.016 670.067,623.216 685.266,645.065 697.07,666.165 705.507,686.218 710.682,704.982 712.734,722.24 711.804,737.775 708.013,751.351 701.46,762.695 692.216,771.488 680.336,777.355 665.877,779.86 648.925,778.517 629.627,772.811 608.246,762.242 585.205,746.414 561.151,725.148 536.995,698.644 513.929,667.64 493.394,633.547 476.967,598.46 466.172,564.996 462.234,535.926 465.831,513.68 476.922,499.875 494.725,495.05 517.835,498.691 544.474,509.508 572.769,525.828 600.998,545.952 627.747,568.391 651.978,591.968 673.025,615.818 690.533,639.332 704.388,662.094 714.635,683.808 721.41,704.251 724.892,723.232 725.257,740.566 722.658,756.048 717.212,769.441 708.995,780.456 698.047,788.745 684.389,793.886 668.043,795.378 649.066,792.654 627.594,785.105 603.899,772.137 578.457,753.278 552.013,728.328 525.639,697.562 500.751,661.94 479.053,623.257 462.386,584.134 452.475,547.752 450.615,517.335 457.372,495.505 472.424,483.737 494.582,482.144 522.012,489.65 552.565,504.436 584.12,524.444 614.84,547.765 643.315,572.853 668.593,598.57 690.134,624.134 707.722,649.036 721.369,672.944 731.231,695.638 737.526,716.951 740.491,736.739 740.338,754.849 737.236,771.102 731.299,785.279 722.586,797.102 711.108,806.221 696.84,812.197 679.748,814.496 659.821,812.482 637.116,805.442 611.826,792.63 584.352,773.374 555.394,747.24 526.032,714.271 497.773,675.267 472.523,632.029 452.441,587.435 439.651,545.198 435.853,509.271 441.926,483.003 457.672,468.374 481.807,465.646 512.215,473.54 546.364,489.819 581.747,511.962 616.205,537.677 648.112,565.158 676.404,593.132 700.511,620.774 720.249,647.584 735.697,673.27 747.089,697.661 754.726,720.643 758.921,742.125 759.949,762.006 758.028,780.165 753.308,796.44 745.863,810.616 735.699,822.407 722.764,831.44 706.962,837.231 688.182,839.173 666.333,836.523 641.396,828.417 613.504,813.918 583.03,792.132 550.705,762.408 517.731,724.646 485.857,679.678 457.359,629.622 434.864,578.015 420.976,529.504 417.754,489.013 426.187,460.574 445.873,446.312 475.052,446.066 510.995,457.787 550.583,478.423 590.863,504.819 629.425,534.319 664.57,564.991 695.29,595.586 721.15,625.378 742.13,653.986 758.472,681.232 770.56,707.042 778.819,731.384 783.658,754.237 785.429,775.567 784.405,795.319 780.77,813.4 774.618,829.673 765.958,843.941 754.717,855.926 740.755,865.25 723.878,871.406 703.861,873.729 680.487,871.373 653.596,863.3 623.172,848.313 589.451,825.157 553.073,792.737 515.247,750.493 477.891,698.926 443.681,640.173 415.885,578.36 397.919,519.362 392.633,469.724 401.538,434.964 424.287,417.976 458.683,418.416 501.217,433.316 547.905,458.445 595.059,489.644 639.786,523.617 680.156,558.149 715.139,591.951 744.409,624.386 768.124,655.209 786.728,684.375 800.801,711.93 810.946,737.946 817.728,762.492 821.63,785.623 823.041,807.371 822.245,827.751 819.425,846.748 814.67,864.318 807.976,880.379 799.257,894.794 788.346,907.358 775.002,917.769 758.913,925.598 739.711,930.247 716.987,930.9 690.329,926.472 659.381,915.569 623.948,896.498 584.152,867.37 540.651,826.394 494.913,772.441 449.473,705.924 408.046,629.826 375.295,550.354 356.079,476.479 354.243,417.86 371.36,381.723 406.057,370.42 454.346,381.178 510.795,407.998 569.911,444.251 627.179,484.513 679.521,525.212 725.262,564.421 763.852,601.344 795.506,635.82 820.889,667.979 840.88,698.046 856.406,726.25 868.35,752.787 877.5,777.815 884.528,801.461 889.99,823.824 894.342,844.988 897.946,865.022 901.097,883.987 904.034,901.934 906.956,918.911 910.038,934.955 913.441,950.097 917.325,964.359 921.856,977.748 927.218,990.256 933.621,1001.85 941.315,1012.47 950.592,1022 961.807,1030.25 975.383,1036.95 991.824,1041.67 1011.72,1043.79 1035.75,1042.37 1064.67,1036.09 1099.25,1023.11 1140.16,1000.94 1187.82,966.414 1242,915.972 1301.38,846.354 1362.89,756.165 1421.23,648.204 1468.92,531.709 1497.42,422.43 1499.63,338.468 1472.68,292.816 1419.43,287.581 1347.47,314.468 1266.34,360.48 1184.68,413.852 1108.66,466.871 1041.72,515.787 985.067,559.483 938.427,598.174 900.689,632.547 870.374,663.325 845.922,691.094 825.858,716.269 808.863,739.102 793.799,759.715 779.703,778.12 765.761,794.234 751.288,807.878 735.702,818.776 718.507,826.542 699.29,830.669 677.722,830.52 653.592,825.333 626.844,814.255 597.655,796.425 566.522,771.13 534.36,738.051 502.595,697.595 473.172,651.246 448.462,601.796 430.985,553.247 422.971,510.252 425.857,477.13 439.876,456.815 463.931,450.192 495.812,456.135 532.666,472.146 571.553,495.226 609.886,522.585 645.688,552.027 677.656,582.024 705.093,611.624 727.772,640.282 745.794,667.713 759.45,693.779 769.119,718.41 775.194,741.565 778.029,763.198 777.916,783.246 775.063,801.615 769.596,818.167 761.552,832.707 750.893,844.967 737.51,854.579 721.243,861.058 701.9,863.771 679.297,861.919 653.305,854.53 623.928,840.492 591.412,818.647 556.375,787.994 519.959,748.031 483.963,699.225 450.877,643.529 423.743,584.704 405.754,528.126 399.622,479.865 406.869,445.174 427.332,427.033 459.117,425.482 499.051,438.055 543.421,460.951 588.697,490.262 632.03,522.772 671.45,556.232 705.843,589.273 734.779,621.168 758.321,651.598 776.829,680.461 790.814,707.761 800.828,733.541 807.397,757.844 810.976,780.706 811.926,802.137 810.513,822.128 806.901,840.635 801.158,857.579 793.263,872.829 783.11,886.188 770.513,897.371 755.218,905.977 736.913,911.449 715.247,913.036 689.865,909.75 660.467,900.335 626.896,883.278 589.283,856.905 548.231,819.633 505.054,770.45 461.998,709.655 422.346,639.72 390.241,565.893 370.083,495.924 365.521,438.467 378.341,400.508 407.78,385.086 450.647,390.689 502.214,412.532 557.428,444.734 611.909,482.099 662.48,520.937 707.251,559.067 745.418,595.439 776.964,629.693 802.366,661.824 822.355,691.975 837.753,720.326 849.362,747.044 857.913,772.273 864.028,796.129 868.221,818.708 870.896,840.088 872.363,860.337 872.847,879.515 872.501,897.671 871.422,914.851 869.65,931.094 867.185,946.43 863.984,960.881 859.964,974.457 855.003,987.151 848.935,998.933 841.548,1009.74 832.575,1019.48 821.683,1027.96 808.471,1034.93 792.454,1039.98 773.055,1042.51 749.613,1041.64 721.39,1036.11 687.618,1024.14 647.599,1003.35 600.886,970.669 547.6,922.571 488.897,855.715 427.575,768.373 368.613,662.666 319.232,546.9 287.895,436.04 282.023,348.168 305.138,297.283 355.134,287.028 424.943,310.269 505.157,354.327 586.927,407.1 663.737,460.333 731.818,509.823 789.708,554.181 837.52,593.496 876.275,628.416 907.42,659.665 932.506,687.85 953.022,713.405 970.305,736.601 985.514,757.578 999.635,776.362 1013.5,792.885 1027.8,806.983 1043.14,818.396 1060.02,826.758 1078.88,831.58 1100.05,832.245 1123.78,828.005 1150.16,818.011 1179.06,801.383 1210.05,777.351 1242.29,745.488 1274.45,706.035 1304.67,660.261 1330.6,610.734 1349.7,561.303 1359.63,516.62 1358.74,481.199 1346.57,458.326 1323.99,449.276 1293.07,453.226 1256.61,467.823 1217.6,490.055 1178.75,517.027 1142.16,546.405 1109.26,576.541 1080.85,606.391 1057.21,635.352 1038.28,663.11 1023.8,689.51 1013.39,714.48 1006.65,737.98 1003.19,759.969 1002.73,780.394 1005.03,799.169 1009.95,816.17 1017.43,831.219 1027.5,844.067 1040.26,854.374 1055.86,861.684 1074.49,865.402 1096.36,864.764 1121.61,858.834 1150.29,846.515 1182.24,826.628 1216.94,798.085 1253.41,760.196 1290,713.119 1324.37,658.392 1353.57,599.345 1374.33,541.073 1383.72,489.686 1379.82,450.88 1362.36,428.355 1332.83,422.878 1294.21,432.463 1250.19,453.446 1204.45,481.788 1160.07,514.017 1119.25,547.623 1083.32,581.037 1052.84,613.402 1027.84,644.327 1008.02,673.676 992.866,701.445 981.827,727.676 974.354,752.419 969.966,775.717 968.27,797.592 968.969,818.045 971.87,837.048 976.876,854.537 983.983,870.407 993.27,884.49 1004.9,896.542 1019.11,906.214 1036.2,913.015 1056.51,916.278 1080.42,915.109 1108.27,908.352 1140.3,894.574 1176.54,872.116 1216.61,839.27 1259.53,794.662 1303.45,737.902 1345.48,670.446 1381.73,596.408 1407.71,522.743 1419.24,458.198 1413.57,410.96 1390.37,385.986 1351.95,383.547 1302.66,399.829 1247.64,428.988 1191.73,465.268 1138.68,504.258 1090.91,543.176 1049.63,580.571 1015.12,615.868 987.059,648.967 964.765,679.985 947.419,709.106 934.182,736.514 924.273,762.37 917.012,786.803 911.827,809.92 908.257,831.809 905.944,852.544 904.614,872.19 904.071,890.804 904.176,908.44 904.845,925.143 906.034,940.957 907.735,955.919 909.973,970.061 912.803,983.406 916.312,995.971 920.616,1007.76 925.872,1018.75 932.274,1028.92 940.067,1038.18 949.553,1046.41 961.104,1053.42 975.168,1058.88 992.289,1062.35 1013.1,1063.12 1038.35,1060.17 1068.85,1052.02 1105.42,1036.59 1148.8,1011.1 1199.36,972.005 1256.75,915.382 1319.3,837.824 1383.34,738.374 1442.65,621.263 1488.74,498.216 1512.43,387.655 1506.88,308.837 1470.49,273.195 1407.99,279.342 1328.53,315.735 1242.4,367.878 1158.17,424.175 1081.45,477.852 1015.02,526.114 959.485,568.517 914.151,605.658 877.63,638.398 848.282,667.516 824.472,693.598 804.694,717.028 787.635,738.017 772.175,756.639 757.376,772.85 742.462,786.505 726.79,797.359 709.831,805.065 691.165,809.169 670.481,809.111 647.597,804.242 622.498,793.858 595.393,777.289 566.787,754.037 537.551,723.984 508.98,687.659 482.785,646.486 460.988,602.929 445.688,560.371 438.71,522.652 441.211,493.316 453.369,474.82 474.29,468.023 502.161,472.188 534.614,485.423 569.155,505.323 603.526,529.543 635.934,556.133 665.132,583.656 690.386,611.145 711.377,637.991 728.091,663.832 740.699,688.45 749.471,711.707 754.708,733.497 756.689,753.717 755.647,772.245 751.75,788.926 745.095,803.557 735.71,815.867 723.567,825.506 708.587,832.02 690.675,834.839 669.745,833.263 645.774,826.476 618.869,813.581 589.354,793.701 557.879,766.157 525.527,730.742 493.899,688.079 465.112,639.964 441.667,589.556 426.123,541.169 420.62,499.581 426.365,468.957 443.269,451.814 469.901,448.501 503.788,457.419 541.95,475.79 581.444,500.536 619.782,528.943 655.134,558.957 686.355,589.197 712.881,618.832 734.595,647.402 751.669,674.677 764.439,700.551 773.306,724.973 778.669,747.909 780.878,769.319 780.213,789.138 776.866,807.273 770.946,823.58 762.474,837.86 751.392,849.833 737.577,859.121 720.852,865.218 701.013,867.468 677.863,865.041 651.272,856.927 621.251,841.976 588.065,818.997 552.376,786.979 515.398,745.457 479.029,695.01 445.878,637.793 419.098,577.842 401.952,520.81 397.131,472.934 406.037,439.429 428.298,423.025 461.791,423.401 503.151,437.759 548.558,462.096 594.463,492.445 638.065,525.634 677.479,559.497 711.679,592.754 740.319,624.749 763.525,655.21 781.704,684.071 795.398,711.353 805.179,737.112 811.581,761.401 815.064,784.26 815.992,805.708 814.628,825.741 811.138,844.324 805.587,861.389 797.955,876.818 788.135,890.432 775.94,901.966 761.115,911.046 743.339,917.148 722.25,919.558 697.468,917.323 668.649,909.219 635.573,893.737 598.266,869.157 557.195,833.759 513.5,786.259 469.243,726.528 427.566,656.498 392.596,580.934 368.924,507.422 360.624,444.998 370.058,401.554 397.004,381.212 438.599,383.24 490.147,403.087 546.377,434.629 602.566,472.219 655.196,511.735 702.103,550.693 742.306,587.875 775.689,622.849 802.696,655.595 824.066,686.266 840.65,715.061 853.298,742.166 862.786,767.74 869.785,791.91 874.855,814.782 878.445,836.441 880.908,856.962 882.513,876.409 883.461,894.841 883.894,912.312 883.913,928.872 883.58,944.566 882.929,959.438 881.97,973.528 880.692,986.872 879.063,999.504 877.034,1011.45 874.535,1022.74 871.474,1033.38 867.733,1043.38 863.164,1052.73 857.582,1061.41 850.758,1069.37 842.406,1076.51 832.178,1082.67 819.644,1087.62 804.285,1090.98 785.473,1092.17 762.468,1090.34 734.422,1084.22 700.409,1071.96 659.512,1050.99 611.003,1017.85 554.67,968.295 491.357,897.885 423.717,803.513 357.007,686.175 299.425,554.332 261.176,425.424 251.722,322.073 275.987,262.571 331.824,251.831 410.722,280.476 501.265,332.128 592.919,391.784 678.209,449.863 753.075,502.021 816.173,547.262 867.917,586.165 909.664,619.781 943.158,649.112 970.195,674.927 992.443,697.74 1011.37,717.847 1028.22,735.371 1044.02,750.298 1059.61,762.5 1075.66,771.749 1092.69,777.728 1111.07,780.036 1131.05,778.208 1152.71,771.744 1175.94,760.166 1200.41,743.116 1225.49,720.485 1250.29,692.583 1273.56,660.307 1293.84,625.261 1309.52,589.737 1319.1,556.497 1321.46,528.356 1316.04,507.656 1303.1,495.81 1283.58,493.093 1259.07,498.746 1231.42,511.301 1202.54,529.003 1174.12,550.146 1147.51,573.284 1123.66,597.305 1103.17,621.405 1086.31,645.032 1073.16,667.808 1063.62,689.464 1057.54,709.795 1054.73,728.62 1055,745.754 1058.22,760.994 1064.27,774.094 1073.08,784.758 1084.63,792.622 1098.9,797.246 1115.88,798.111 1135.5,794.624 1157.63,786.156 1181.97,772.104 1208,752 1234.93,725.685 1261.61,693.517 1286.56,656.59 1307.98,616.875 1323.98,577.177 1332.85,540.818 1333.34,511.067 1325.01,490.462 1308.34,480.286 1284.69,480.411 1256.03,489.545 1224.58,505.723 1192.48,526.825 1161.54,550.951 1133.1,576.596 1108.06,602.677 1086.88,628.467 1069.73,653.497 1056.55,677.468 1047.16,700.181 1041.31,721.483 1038.78,741.237 1039.33,759.295 1042.81,775.479 1049.1,789.57 1058.17,801.284 1070,810.265 1084.64,816.062 1102.13,818.125 1122.49,815.798 1145.66,808.343 1171.46,794.988 1199.48,775.035 1228.98,748.039 1258.87,714.053 1287.56,673.927 1313.09,629.561 1333.23,583.973 1345.79,541.037 1349.06,504.83 1342.18,478.748 1325.44,464.718 1300.23,462.865 1268.78,471.748 1233.72,488.988 1197.61,511.974 1162.63,538.377 1130.38,566.395 1101.9,594.778 1077.73,622.732 1058.01,649.783 1042.62,675.665 1031.31,700.222 1023.76,723.357 1019.63,744.987 1018.66,765.022 1020.6,783.348 1025.33,799.81 1032.75,814.202 1042.87,826.245 1055.76,835.57 1071.51,841.701 1090.25,844.031 1112.11,841.811 1137.11,834.162 1165.16,820.112 1195.94,798.707 1228.75,769.209 1262.43,731.404 1295.24,685.998 1324.89,635.01 1348.68,581.954 1363.88,531.578 1368.27,489.039 1360.68,458.673 1341.4,442.883 1312.15,441.665 1275.71,452.974 1235.3,473.649 1194.01,500.38 1154.36,530.367 1118.15,561.576 1086.45,592.699 1059.71,622.984 1037.96,652.046 1020.95,679.713 1008.26,705.923 999.466,730.658 994.116,753.909 991.841,775.658 992.346,795.864 995.428,814.455 1000.98,831.316 1008.97,846.275 1019.46,859.09 1032.6,869.423 1048.58,876.813 1067.64,880.649 1090.02,880.136 1115.95,874.279 1145.53,861.886 1178.68,841.638 1214.93,812.257 1253.33,772.829 1292.2,723.307 1329.09,665.131 1360.77,601.757 1383.66,538.72 1394.41,482.844 1390.81,440.599 1372.44,416.215 1340.92,410.54 1299.54,421.245 1252.41,444.114 1203.56,474.584 1156.33,508.828 1113.08,544.165 1075.15,578.989 1043.07,612.481 1016.8,644.31 995.928,674.409 979.867,702.827 967.974,729.654 959.627,754.979 954.28,778.879 951.482,801.411 950.886,822.612 952.248,842.498 955.423,861.064 960.355,878.274 967.075,894.054 975.694,908.285 986.399,920.777 999.451,931.251 1015.18,939.305 1033.98,944.368 1056.31,945.652 1082.6,942.089 1113.31,932.283 1148.72,914.489 1188.85,886.682 1233.2,846.81 1280.5,793.32 1328.35,726.066 1373.08,647.46 1409.82,563.417 1433.26,483.213 1438.87,417.531 1424.37,375.029 1390.67,359.243 1341.68,367.829 1283.16,394.447 1221.11,431.735 1160.56,473.556 1104.97,515.848 1056.25,556.442 1015.06,594.469 981.199,629.78 953.951,662.556 932.364,693.073 915.426,721.601 902.172,748.365 891.733,773.544 883.363,797.27 876.433,819.647 870.422,840.752 864.895,860.643 859.485,879.362 853.873,896.931 847.767,913.353 840.885,928.608 832.943,942.641 823.633,955.351 812.617,966.576 799.511,976.065 783.874,983.445 765.205,988.171 742.945,989.464 716.491,986.236 685.242,977 648.678,959.806 606.517,932.241 558.953,891.609 507.007,835.439 452.956,762.506 400.707,674.361 355.843,576.933 324.98,481.02 314.243,400.305 327.236,346.774 363.522,325.927 418.594,335.127 485.399,366.069 556.481,409.079 625.677,456.338 688.857,502.973 743.881,546.647 790.151,586.642 828.084,623.064 858.66,656.322 883.098,686.868 902.657,715.082 918.52,741.249 931.741,765.565 943.232,788.151 953.773,809.065 964.029,828.311 974.576,845.837 985.931,861.532 998.567,875.21 1012.94,886.591 1029.49,895.278 1048.68,900.719 1070.92,902.169 1096.62,898.657 1126.09,888.966 1159.47,871.649 1196.59,845.147 1236.78,808.049 1278.71,759.567 1320.11,700.235 1357.8,632.684 1387.8,562.114 1406.04,495.918 1409.2,442.121 1395.8,407.024 1366.72,393.228 1325.07,399.187 1275.32,420.43 1222.22,451.514 1169.88,487.621 1121.29,525.291 1078.25,562.448 1041.54,598.051 1011.2,631.712 986.799,663.385 967.673,693.176 953.058,721.232 942.207,747.697 934.443,772.697 929.19,796.334 925.981,818.689 924.456,839.83 924.351,859.811 925.491,878.672 927.779,896.442 931.186,913.137 935.747,928.753 941.556,943.265 948.765,956.614 957.588,968.697 968.303,979.346 981.255,988.307 996.863,995.197 1015.62,999.457 1038.1,1000.29 1064.92,996.56 1096.71,986.726 1134.01,968.745 1177.13,940.073 1225.9,897.851 1279.25,839.444 1334.79,763.536 1388.41,671.8 1434.19,570.629 1465.16,471.627 1474.93,389.343 1459.88,336.205 1420.78,317.42 1362.64,329.502 1292.98,363.254 1219.59,408.455 1148.73,457.14 1084.46,504.541 1028.8,548.506 982.193,588.487 944.09,624.709 913.409,657.656 888.852,687.816 869.108,715.585 852.955,741.252 839.31,765.002 827.242,786.939 815.954,807.1 804.764,825.454 793.079,841.909 780.369,856.295 766.148,868.356 749.953,877.721 731.343,883.882 709.899,886.153 685.248,883.652 657.104,875.275 625.349,859.73 590.144,835.631 552.089,801.729 512.403,757.324 473.092,702.85 437.012,640.539 407.695,574.854 388.866,512.237 383.632,459.894 393.613,423.832 418.36,407.053 455.386,408.912 500.808,425.908 550.294,453.289 599.914,486.535 646.657,522.19 688.585,558.019 724.722,592.789 754.834,625.945 779.178,657.315 798.289,686.919 812.827,714.847 823.462,741.208 830.815,766.099 835.416,789.6 837.694,811.77 837.97,832.651 836.467,852.265 833.311,870.613 828.542,887.672 822.121,903.384 813.93,917.648 803.779,930.302 791.405,941.102 776.473,949.689 758.581,955.55 737.269,957.963 712.039,955.935 682.403,948.138 647.957,932.865 608.52,908.052 564.343,871.447 516.392,821.053 466.696,755.95 418.632,677.502 376.955,590.594 347.29,504.041 334.953,429.187 343.34,376.496 372.618,351.711 419.495,354.042 478.243,377.505 542.391,414.122 606.226,456.777 665.621,500.557 718.174,542.74 762.925,582.188 799.933,618.667 829.875,652.36 853.736,683.584 872.594,712.653 887.501,739.828 899.411,765.309 909.154,789.245 917.435,811.74 924.849,832.866 931.898,852.667 939.014,871.159 946.581,888.331 954.959,904.136 964.501,918.479 975.567,931.206 988.547,942.082 1003.86,950.754 1021.98,956.716 1043.41,959.256 1068.69,957.389 1098.32,949.795 1132.74,934.773 1172.15,910.256 1216.34,873.975 1264.37,823.89 1314.26,759.008 1362.67,680.589 1404.84,593.407 1435.14,506.221 1448.17,430.429 1440.41,376.677 1411.6,350.941 1364.94,352.606 1306.17,375.733 1241.8,412.284 1177.61,455.037 1117.81,498.983 1064.85,541.341 1019.72,580.942 982.378,617.544 952.151,651.331 928.051,682.625 908.99,711.745 893.909,738.956 881.844,764.461 871.955,788.409 863.529,810.905 855.965,832.021 848.752,851.797 841.453,870.248 833.675,887.357 825.053,903.07 815.227,917.284 803.828,929.833 790.461,940.462 774.696,948.799 756.061,954.306 734.048,956.233 708.132,953.55 677.812,944.885 642.699,928.491 602.654,902.28 558.003,864.025 509.838,811.846 460.348,745.085 413.087,665.532 372.937,578.586 345.516,493.468 335.927,421.526 347.154,372.688 378.88,351.809 427.435,357.292 486.941,382.766 551.005,420.317 614.133,463.137 672.452,506.651 723.779,548.394 767.31,587.373 803.198,623.424 832.164,656.75 855.205,687.668 873.394,716.48 887.762,743.438 899.242,768.733 908.64,792.507 916.641,814.861 923.819,835.866 930.662,855.565 937.586,873.975 944.966,891.088 953.15,906.858 962.484,921.2 973.322,933.965 986.047,944.928 1001.08,953.751 1018.88,959.946 1039.96,962.823 1064.85,961.422 1094.09,954.452 1128.14,940.233 1167.24,916.699 1211.25,881.543 1259.35,832.609 1309.66,768.677 1358.96,690.669 1402.58,602.973 1434.84,514.089 1450.11,435.499 1444.55,378.363 1417.46,349.417 1371.8,348.678 1313.22,370.451 1248.36,406.558 1183.22,449.463 1122.24,493.846 1068.03,536.715 1021.72,576.788 983.33,613.783 952.199,647.879 927.339,679.41 907.643,708.71 892.026,736.055 879.497,761.657 869.192,785.67 860.371,808.2 852.412,829.317 844.785,849.057 837.032,867.427 828.744,884.398 819.539,899.9 809.041,913.808 796.863,925.926 782.595,935.958 765.793,943.477 745.98,947.875 722.65,948.313 695.299,943.66 663.482,932.438 626.914,912.817 585.632,882.707 540.237,840.053 492.197,783.439 444.153,713.078 400.081,632.003 365.064,546.916 344.475,467.741 342.603,405.26 361.192,367.485 398.675,356.804 450.579,369.783 510.887,399.495 573.623,438.544 633.984,481.094 688.793,523.461 736.415,563.786 776.41,601.401 809.128,636.267 835.367,668.611 856.121,698.726 872.418,726.881 885.222,753.297 895.39,778.143 903.656,801.546 910.637,823.601 916.847,844.378 922.717,863.928 928.616,882.279 934.873,899.442 941.791,915.4 949.673,930.106 958.831,943.469 969.603,955.336 982.367,965.476 997.548,973.539 1015.63,979.018 1037.15,981.186 1062.69,979.03 1092.82,971.167 1128.06,955.777 1168.72,930.602 1214.68,893.081 1265.06,840.791 1317.87,772.331 1369.58,688.709 1415.06,594.879 1448.04,500.459 1462.42,418.301 1454.17,360.527 1422.96,333.832 1372.43,337.2 1309.02,363.543 1239.99,403.614 1171.63,449.403 1108.39,495.591 1052.74,539.413 1005.58,579.85 966.705,616.833 935.276,650.686 910.155,681.828 890.128,710.637 874.03,737.406 860.81,762.347 849.556,785.598 839.488,807.243 829.941,827.313 820.342,845.793 810.187,862.619 799.012,877.668 786.376,890.741 771.843,901.543 754.971,909.652 735.307,914.481 712.402,915.236 685.834,910.872 655.267,900.069 620.549,881.252 581.852,852.71 539.882,812.888 496.112,760.929 453.002,697.47 414.068,625.515 383.623,550.943 366.08,481.986 364.865,427.343 381.316,393.473 414.127,382.512 459.645,392.067 512.903,416.838 568.84,450.853 623.242,489.115 673.173,528.227 716.979,566.272 754.053,602.381 784.514,636.306 808.926,668.099 828.067,697.925 842.776,725.973 853.86,752.41 862.039,777.379 867.926,800.994 872.019,823.349 874.715,844.521 876.315,864.579 877.041,883.583 877.049,901.586 876.44,918.637 875.268,934.777 873.547,950.046 871.257,964.475 868.346,978.087 864.727,990.898 860.282,1002.91 854.853,1014.1 848.242,1024.43 840.199,1033.82 830.414,1042.14 818.511,1049.17 804.031,1054.59 786.425,1057.9 765.047,1058.36 739.157,1054.92 707.948,1046.01 670.61,1029.5 626.471,1002.53 575.245,961.535 517.446,902.671 454.983,822.835 391.827,721.686 334.448,604.358 291.417,483.429 271.609,377.5 281.195,304.87 320.89,275.219 385.352,285.658 465.262,324.158 550.607,376.667 633.274,432.356 708.078,485.091 772.581,532.443 826.346,574.118 870.163,610.734 905.439,643.123 933.798,672.026 956.845,697.989 976.046,721.37 992.681,742.361 1007.84,761.023 1022.43,777.307 1037.22,791.06 1052.84,802.033 1069.8,809.872 1088.54,814.115 1109.37,814.187 1132.48,809.414 1157.9,799.058 1185.44,782.403 1214.61,758.894 1244.53,728.352 1273.9,691.255 1300.95,649.009 1323.61,604.119 1339.67,560.082 1347.19,520.916 1344.93,490.364 1332.67,471.036 1311.3,463.864 1282.7,468.074 1249.34,481.672 1213.82,502.125 1178.47,526.974 1145.17,554.193 1115.19,582.304 1089.27,610.324 1067.73,637.648 1050.56,663.923 1037.57,688.947 1028.47,712.596 1022.93,734.777 1020.66,755.401 1021.41,774.361 1025,791.518 1031.33,806.683 1040.35,819.606 1052.12,829.954 1066.71,837.293 1084.23,841.071 1104.81,840.6 1128.5,835.055 1155.26,823.509 1184.86,805.008 1216.73,778.733 1249.91,744.268 1282.87,701.955 1313.56,653.298 1339.43,601.232 1357.76,550.044 1366.13,504.759 1362.98,470.055 1348.05,449.067 1322.53,442.665 1288.84,449.516 1250.04,466.828 1209.27,491.326 1169.26,520.033 1132.05,550.655 1098.96,581.645 1070.65,612.066 1047.31,641.41 1028.77,669.431 1014.7,696.027 1004.66,721.16 998.218,744.813 994.989,766.967 994.655,787.582 996.985,806.592 1001.84,823.889 1009.17,839.313 1019.01,852.638 1031.47,863.547 1046.72,871.609 1064.99,876.252 1086.51,876.73 1111.5,872.103 1140.09,861.241 1172.21,842.875 1207.48,815.744 1245.07,778.875 1283.46,732.04 1320.39,676.34 1352.85,614.754 1377.37,552.305 1390.58,495.482 1390.05,450.789 1374.97,422.918 1346.52,413.432 1307.62,420.677 1262.16,440.849 1214.17,469.49 1167.11,502.659 1123.49,537.474 1084.87,572.131 1051.94,605.659 1024.78,637.629 1003.06,667.913 986.248,696.53 973.727,723.552 964.884,749.06 959.172,773.125 956.133,795.802 955.412,817.122 956.755,837.098 960.01,855.715 965.116,872.929 972.102,888.653 981.076,902.752 992.225,915.015 1005.81,925.136 1022.16,932.674 1041.67,937.017 1064.76,937.324 1091.87,932.474 1123.37,921.021 1159.48,901.206 1200.06,871.056 1244.45,828.702 1291.12,772.973 1337.41,704.334 1379.45,625.971 1412.38,544.469 1431.17,469.269 1431.92,410.384 1413.16,375.088 1376.5,365.421 1326.24,378.113 1268.06,406.72 1207.59,444.37 1149.39,485.586 1096.48,526.864 1050.44,566.38 1011.74,603.433 980.069,637.93 954.699,670.047 934.703,700.036 919.115,728.14 907.028,754.562 897.634,779.463 890.243,802.969 884.283,825.18 879.283,846.173 874.856,866.014 870.685,884.754 866.497,902.434 862.055,919.084 857.133,934.718 851.512,949.334 844.958,962.906 837.216,975.374 827.994,986.635 816.955,996.518 803.701,1004.76 787.77,1010.97 768.621,1014.57 745.645,1014.72 718.172,1010.24 685.523,999.493 647.099,980.296 602.551,949.923 552.059,905.281 496.743,843.518 439.168,763.234 383.794,666.352 337.011,560.03 306.312,457.104 298.398,373.33 316.775,321.588 360.144,306.415 422.716,322.949 496.271,360.72 572.666,408.841 645.573,459.273 711.059,507.483 767.342,551.622 814.198,591.39 852.363,627.175 883.058,659.552 907.68,689.054 927.607,716.091 944.102,740.946 958.277,763.788 971.086,784.695 983.34,803.665 995.734,820.621 1008.87,835.405 1023.29,847.771 1039.47,857.365 1057.86,863.701 1078.85,866.137 1102.8,863.856 1129.93,855.862 1160.3,841.013 1193.71,818.131 1229.51,786.22 1266.53,744.826 1302.89,694.536 1335.99,637.509 1362.72,577.769 1379.82,520.95 1384.62,473.256 1375.74,439.875 1353.55,423.524 1320.17,423.885 1278.94,438.181 1233.67,462.433 1187.9,492.694 1144.41,525.802 1105.09,559.598 1070.97,592.8 1042.39,624.751 1019.23,655.177 1001.1,684.007 987.438,711.262 977.691,736.996 971.324,761.259 967.881,784.09 966.999,805.508 968.416,825.505 971.972,844.047 977.598,861.06 985.32,876.424 995.247,889.955 1007.56,901.383 1022.53,910.327 1040.46,916.253 1061.73,918.435 1086.7,915.911 1115.71,907.443 1148.96,891.515 1186.41,866.412 1227.56,830.44 1271.21,782.376 1315.25,722.197 1356.49,651.987 1390.78,576.66 1413.55,503.888 1420.84,442.652 1410.42,400.633 1382.68,381.664 1340.58,384.769 1288.86,405.292 1232.76,437.141 1176.91,474.774 1124.74,514.181 1078.34,552.967 1038.64,589.962 1005.72,624.762 979.121,657.355 958.104,687.894 941.819,716.575 929.427,743.58 920.161,769.064 913.361,793.154 908.478,815.951 905.073,837.54 902.801,857.994 901.403,877.378 900.688,895.748 900.522,913.158 900.816,929.656 901.52,945.287 902.612,960.091 904.1,974.106 906.014,987.365 908.409,999.893 911.364,1011.71 914.985,1022.83 919.405,1033.25 924.798,1042.95 931.376,1051.88 939.403,1059.96 949.206,1067.06 961.183,1072.96 975.82,1077.31 993.701,1079.61 1015.51,1079.08 1042.06,1074.6 1074.2,1064.51 1112.83,1046.5 1158.7,1017.46 1212.13,973.496 1272.58,910.35 1337.95,824.628 1403.86,716.097 1463.12,590.814 1506.32,463.244 1523.9,354.222 1509.67,283.239 1463.69,259.112 1392.59,276.57 1306.85,321.269 1217.11,377.993 1131.57,435.868 1055.15,489.252 989.911,536.275 935.938,577.064 892.169,612.494 857.004,643.529 828.702,670.965 805.588,695.362 786.162,717.067 769.133,736.247 753.419,752.929 738.127,767.024 722.527,778.339 706.035,786.585 688.194,791.375 668.675,792.234 647.282,788.615 623.989,779.937 598.972,765.655 572.669,745.378 545.834,719.038 519.575,687.095 495.348,650.737 474.871,611.992 459.945,573.652 452.173,538.941 452.648,510.947 461.686,491.99 478.713,483.163 502.342,484.226 530.635,493.867 561.438,510.18 592.707,531.139 622.726,554.942 650.219,580.166 674.357,605.781 694.696,631.092 711.092,655.644 723.598,679.141 732.388,701.379 737.688,722.196 739.725,741.446 738.698,758.968 734.76,774.571 728.009,788.018 718.49,799.01 706.202,807.172 691.119,812.039 673.214,813.047 652.496,809.538 629.062,800.79 603.164,786.077 575.29,764.793 546.252,736.639 517.254,701.873 489.927,661.59 466.259,617.919 448.411,574.011 438.394,533.692 437.667,500.769 446.779,478.191 465.186,467.399 491.323,468.139 522.924,478.791 557.448,496.997 592.491,520.294 626.068,546.546 656.737,574.13 683.6,601.926 706.218,629.223 724.495,655.593 738.564,680.787 748.681,704.651 755.15,727.08 758.27,747.976 758.297,767.232 755.426,784.71 749.78,800.231 741.411,813.555 730.307,824.366 716.402,832.253 699.595,836.691 679.783,837.029 656.901,832.484 630.985,822.168 602.246,805.157 571.183,780.635 538.686,748.135 506.148,707.867 475.503,661.108 449.162,610.48 429.761,559.945 419.731,514.307 420.762,478.227 433.342,455.077 456.555,446.129 488.258,450.477 525.549,465.64 565.352,488.49 604.91,516.047 642.087,545.936 675.452,576.498 704.221,606.696 728.124,635.945 747.243,663.947 761.877,690.564 772.423,715.736 779.298,739.435 782.888,761.63 783.511,782.278 781.402,801.303 776.711,818.595 769.495,833.988 759.732,847.249 747.323,858.058 732.107,865.981 713.881,870.443 692.426,870.703 667.552,865.835 639.167,854.735 607.364,836.185 572.559,808.995 535.636,772.299 498.116,725.988 462.254,671.275 430.996,611.183 407.697,550.657 395.545,495.954 396.806,453.239 412.141,426.874 440.327,418.233 478.516,425.668 522.94,445.533 569.734,473.582 615.582,506.058 658.059,540.201 695.676,574.263 727.75,607.287 754.193,638.834 775.303,668.759 791.586,697.061 803.629,723.795 812.012,749.026 817.254,772.812 819.785,795.192 819.939,816.184 817.942,835.783 813.928,853.953 807.931,870.62 799.902,885.665 789.708,898.901 777.14,910.057 761.917,918.742 743.696,924.411 722.091,926.321 696.702,923.477 667.167,914.592 633.255,898.086 595,872.155 552.905,835.004 508.187,785.325 463.047,723.067 420.818,650.418 385.851,572.583 362.92,497.687 356.157,435.191 367.791,393.051 397.292,375.019 441.413,379.738 495.132,402.069 552.989,435.551 610.228,474.458 663.404,514.76 710.48,554.121 750.606,591.459 783.787,626.446 810.556,659.127 831.716,689.694 848.166,718.365 860.783,745.339 870.362,770.779 877.591,794.815 883.04,817.553 887.172,839.08 890.358,859.471 892.888,878.789 894.989,897.094 896.841,914.439 898.589,930.871 900.354,946.436 902.241,961.174 904.35,975.121 906.778,988.308 909.633,1000.76 913.032,1012.49 917.115,1023.51 922.045,1033.81 928.022,1043.36 935.286,1052.09 944.133,1059.91 954.923,1066.63 968.091,1072 984.167,1075.6 1003.78,1076.81 1027.66,1074.72 1056.65,1067.97 1091.62,1054.64 1133.4,1032.08 1182.58,996.816 1239.15,944.759 1301.93,871.901 1367.87,776.008 1431.34,659.375 1484.08,531.759 1516.33,410.952 1519.74,318.113 1490.79,268.606 1432.67,264.685 1354.1,296.139 1265.96,347.522 1177.88,405.39 1096.54,461.394 1025.47,511.837 965.707,555.924 916.759,594.205 877.273,627.626 845.568,657.075 819.926,683.235 798.753,706.558 780.65,727.304 764.425,745.574 749.087,761.342 733.818,774.473 717.954,784.733 700.963,791.788 682.436,795.209 662.09,794.48 639.785,789.017 615.558,778.219 589.673,761.558 562.682,738.711 535.475,709.758 509.316,675.399 485.807,637.143 466.771,597.372 454.026,559.175 449.074,525.901 452.779,500.517 465.135,484.985 485.221,479.898 511.361,484.532 541.435,497.227 573.24,515.909 604.787,538.548 634.49,563.437 661.23,589.284 684.331,615.191 703.479,640.565 718.626,665.028 729.896,688.334 737.5,710.307 741.681,730.803 742.668,749.681 740.652,766.777 735.768,781.894 728.096,794.779 717.66,805.115 704.443,812.5 688.404,816.433 669.509,816.315 647.773,811.449 623.314,801.076 596.43,784.457 567.681,761.009 537.984,730.52 508.676,693.425 481.534,651.089 458.675,605.982 442.327,561.588 434.465,521.943 436.386,490.842 448.369,470.971 469.549,463.325 498.071,467.181 531.469,480.555 567.123,500.901 602.66,525.732 636.197,552.992 666.429,581.178 692.593,609.29 714.367,636.714 731.749,663.091 744.93,688.217 754.207,711.969 759.904,734.256 762.322,754.991 761.715,774.071 758.265,791.358 752.081,806.67 743.197,819.761 731.581,830.303 717.151,837.872 699.788,841.919 679.373,841.765 655.833,836.589 629.197,825.463 599.688,807.421 567.831,781.618 534.571,747.587 501.381,705.599 470.305,657.066 443.874,604.835 424.83,553.142 415.654,507.034 418.002,471.292 432.23,449.216 457.226,441.84 490.638,447.944 529.394,464.773 570.321,489.028 610.642,517.67 648.25,548.344 681.781,579.451 710.526,610.019 734.286,639.52 753.203,667.7 767.62,694.451 777.967,719.738 784.684,743.546 788.168,765.858 788.745,786.64 786.655,805.831 782.044,823.328 774.969,838.981 765.403,852.572 753.24,863.798 738.308,872.243 720.386,877.353 699.233,878.403 674.621,874.472 646.405,864.445 614.608,847.053 579.552,821.005 542.017,785.25 503.413,739.417 465.917,684.394 432.476,622.911 406.565,559.785 391.634,501.446 390.323,454.573 403.681,424.237 430.765,412.443 468.823,417.872 513.99,436.855 562.174,464.885 609.792,497.875 654.18,532.78 693.676,567.666 727.489,601.479 755.485,633.743 777.956,664.309 795.429,693.19 808.529,720.459 817.877,746.201 824.038,770.494 827.488,793.396 828.6,814.946 827.643,835.161 824.789,854.037 820.114,871.537 813.605,887.591 805.169,902.079 794.635,914.815 781.756,925.525 766.214,933.811 747.63,939.115 725.575,940.665 699.602,937.419 669.3,928.019 634.384,910.768 594.844,883.706 551.158,844.843 504.573,792.672 457.398,727.028 413.196,650.191 376.661,567.8 352.973,488.763 346.593,423.439 359.857,380.392 392.038,363.366 439.453,370.409 496.571,395.565 557.52,431.698 617.311,472.728 672.437,514.547 720.916,554.899 762.017,592.834 795.877,628.146 823.151,660.975 844.752,691.574 861.661,720.204 874.825,747.084 885.095,772.389 893.207,796.256 899.776,818.79 905.312,840.074 910.234,860.172 914.893,879.136 919.584,897.004 924.572,913.799 930.105,929.528 936.427,944.175 943.797,957.696 952.497,970.007 962.847,980.965 975.219,990.35 990.041,997.826 1007.81,1002.9 1029.1,1004.86 1054.53,1002.68 1084.75,994.956 1120.38,979.791 1161.84,954.759 1209.18,917.009 1261.68,863.665 1317.44,792.735 1372.9,704.655 1422.62,604.162 1459.71,501.436 1477.19,410.835 1470.22,346.447 1438.03,316.372 1384.49,319.698 1316.72,348.301 1242.82,391.552 1169.75,440.383 1102.36,488.953 1043.29,534.385 993.396,575.758 952.359,613.16 919.194,647.056 892.616,677.97 871.279,706.344 853.905,732.503 839.35,756.664 826.621,778.953 814.871,799.417 803.374,818.037 791.506,834.727 778.712,849.323 764.491,861.576 748.373,871.123 729.916,877.466 708.706,879.941 684.377,877.691 656.657,869.652 625.439,854.584 590.889,831.164 553.6,798.215 514.758,755.085 476.303,702.214 440.98,641.744 412.182,577.929 393.484,516.904 387.892,465.562 397.013,429.717 420.492,412.4 456.022,413.192 499.923,428.895 548.027,455.02 596.506,487.204 642.38,522.039 683.69,557.272 719.416,591.624 749.264,624.487 773.434,655.648 792.415,685.094 806.827,712.893 817.308,739.137 824.453,763.909 828.774,787.278 830.681,809.294 830.481,829.985 828.378,849.357 824.482,867.392 818.814,884.04 811.31,899.209 801.83,912.75 790.156,924.44 775.999,933.949 758.999,940.809 738.743,944.362 714.776,943.707 686.646,937.644 653.973,924.628 616.563,902.786 574.594,870.051 528.865,824.517 481.103,765.128 434.24,692.714 392.492,611.122 361.006,527.803 344.912,452.932 347.905,396.7 370.933,365.782 411.706,361.091 465.355,378.253 525.872,410.191 587.592,449.918 646.146,492.19 698.767,533.831 744.131,573.305 781.998,610.112 812.823,644.274 837.441,676.029 856.841,705.653 872.019,733.398 883.897,759.467 893.289,784.017 900.883,807.167 907.259,829.009 912.891,849.613 918.181,869.031 923.466,887.3 929.047,904.437 935.201,920.442 942.204,935.288 950.338,948.911 959.912,961.202 971.271,971.984 984.812,980.986 1000.99,987.804 1020.31,991.854 1043.36,992.301 1070.75,987.979 1103.08,977.304 1140.86,958.212 1184.31,928.183 1233.12,884.461 1286.05,824.665 1340.54,747.92 1392.3,656.505 1435.39,557.383 1463.05,462.337 1469.39,385.366 1451.47,337.693 1410.58,323.248 1351.99,337.856 1283.11,372.414 1211.33,417.265 1142.52,465.065 1080.4,511.485 1026.76,554.595 981.944,593.923 945.361,629.69 915.943,662.347 892.431,692.344 873.557,720.052 858.151,745.739 845.173,769.582 833.732,791.687 823.065,812.094 812.519,830.789 801.524,847.697 789.571,862.678 776.183,875.511 760.907,885.87 743.294,893.298 722.908,897.172 699.334,896.665 672.216,890.719 641.318,878.04 606.634,857.157 568.529,826.587 527.937,785.182 486.562,732.689 447.023,670.476 412.811,602.203 387.925,533.969 376.125,473.45 379.952,427.981 399.89,402.303 434.095,397.204 478.866,409.821 529.614,435.233 581.891,468.281 632.102,504.788 677.803,541.944 717.658,578.158 751.214,612.691 778.63,645.305 800.427,676.014 817.301,704.932 829.992,732.198 839.2,757.938 845.542,782.261 849.529,805.252 851.566,826.981 851.955,847.501 850.9,866.851 848.523,885.055 844.867,902.12 839.906,918.033 833.546,932.75 825.631,946.193 815.938,958.225 804.175,968.639 789.982,977.119 772.924,983.205 752.498,986.234 728.139,985.271 699.261,979.028 665.31,965.786 625.894,943.358 580.968,909.176 531.143,860.626 478.072,795.814 424.869,714.86 376.332,621.527 338.66,524.364 318.336,435.974 320.275,369.545 345.965,333.852 392.699,329.919 454.432,351.691 523.749,389.796 593.829,435.44 659.621,482.447 718.124,527.424 768.09,569.007 809.51,606.978 843.131,641.632 870.072,673.406 891.575,702.712 908.85,729.873 923.004,755.124 935.002,778.621 945.675,800.452 955.729,820.652 965.772,839.205 976.336,856.041 987.905,871.027 1000.94,883.95 1015.88,894.499 1033.17,902.23 1053.26,906.535 1076.58,906.596 1103.53,901.353 1134.39,889.486 1169.23,869.457 1207.8,839.657 1249.24,798.724 1291.97,746.111 1333.4,682.856 1369.99,612.362 1397.55,540.716 1411.97,475.959 1410.31,426.136 1391.68,396.788 1357.75,389.259 1312.24,400.803 1259.98,426.241 1205.73,459.997 1153.37,497.505 1105.57,535.696 1063.79,572.844 1028.55,608.167 999.682,641.432 976.646,672.677 958.693,702.047 945.03,729.705 934.903,755.8 927.642,780.458 922.685,803.781 919.579,825.852 917.976,846.74 917.622,866.503 918.343,885.188 920.037,902.833 922.666,919.466 926.246,935.104 930.847,949.744 936.588,963.366 943.641,975.917 952.235,987.303 962.659,997.37 975.27,1005.88 990.501,1012.46 1008.86,1016.59 1030.95,1017.49 1057.43,1014.05 1088.97,1004.73 1126.22,987.453 1169.6,959.585 1219.08,918.04 1273.79,859.791 1331.52,782.947 1388.18,688.531 1437.73,582.516 1472.68,476.77 1485.9,387.041 1472.97,327.522 1434.15,304.829 1374.47,315.788 1301.96,350.491 1225.05,397.63 1150.57,448.366 1082.98,497.457 1024.45,542.606 975.468,583.297 935.436,619.849 903.182,652.84 877.311,682.829 856.42,710.261 839.206,735.444 824.518,758.569 811.365,779.729 798.903,798.931 786.412,816.107 773.269,831.111 758.926,843.704 742.89,853.542 724.711,860.156 703.988,862.922 680.38,861.046 653.652,853.561 623.736,839.36 590.83,817.292 555.53,786.375 518.972,746.138 482.958,697.098 449.988,641.272 423.106,582.487 405.49,526.163 399.813,478.361 407.538,444.272 428.433,426.77 460.548,425.791 500.679,438.803 545.109,461.984 590.329,491.446 633.523,524.009 672.754,557.461 706.934,590.459 735.657,622.297 758.998,652.664 777.323,681.464 791.146,708.703 801.02,734.424 807.466,758.67 810.936,781.474 811.788,802.848 810.283,822.779 806.581,841.224 800.748,858.099 792.758,873.272 782.501,886.543 769.79,897.621 754.368,906.098 735.92,911.412 714.096,912.8 688.542,909.264 658.963,899.535 625.214,882.092 587.441,855.26 546.278,817.473 503.076,767.765 460.126,706.517 420.757,636.32 389.133,562.548 369.642,493.028 365.862,436.386 379.473,399.458 409.588,385.07 452.927,391.523 504.729,413.943 559.956,446.455 614.279,483.929 664.584,522.749 709.037,560.798 746.876,597.066 778.113,631.212 803.237,663.243 822.987,693.304 838.183,721.573 849.627,748.217 858.041,773.379 864.044,797.172 868.142,819.693 870.736,841.018 872.128,861.214 872.541,880.341 872.124,898.447 870.967,915.579 869.111,931.773 866.55,947.058 863.236,961.456 859.083,974.974 853.964,987.602 847.706,999.307 840.091,1010.02 830.843,1019.63 819.62,1027.96 806.01,1034.71 789.515,1039.46 769.548,1041.57 745.435,1040.11 716.433,1033.75 681.781,1020.65 640.809,998.292 593.137,963.556 539.013,912.896 479.804,843.123 418.606,752.953 360.738,645.318 313.676,529.549 285.865,421.355 284.278,338.615 311.633,294.004 364.987,289.398 436.76,316.473 517.503,362.365 598.671,415.48 674.176,468.233 740.642,516.938 796.883,560.493 843.18,599.108 880.639,633.455 910.729,664.246 934.997,692.058 954.908,717.297 971.77,740.215 986.713,760.933 1000.7,779.464 1014.53,795.727 1028.89,809.548 1044.36,820.654 1061.45,828.665 1080.56,833.076 1102.04,833.252 1126.12,828.426 1152.86,817.733 1182.12,800.285 1213.43,775.324 1245.9,742.466 1278.13,702.033 1308.19,655.425 1333.68,605.37 1352.04,555.871 1360.95,511.663 1358.84,477.228 1345.4,455.694 1321.64,448.108 1289.76,453.425 1252.63,469.141 1213.28,492.189 1174.36,519.692 1137.91,549.375 1105.31,579.655 1077.27,609.544 1054.05,638.483 1035.54,666.183 1021.45,692.507 1011.4,717.392 1004.97,740.802 1001.8,762.7 1001.58,783.03 1004.09,801.71 1009.21,818.614 1016.87,833.56 1027.12,846.298 1040.05,856.482 1055.83,863.65 1074.67,867.196 1096.75,866.347 1122.25,860.149 1151.2,847.488 1183.43,827.169 1218.43,798.093 1255.17,759.574 1291.97,711.802 1326.46,656.383 1355.61,596.755 1376.13,538.133 1385.06,486.725 1380.54,448.25 1362.35,426.339 1332.09,421.621 1292.81,431.963 1248.28,453.595 1202.19,482.432 1157.62,515.001 1116.74,548.825 1080.83,582.366 1050.43,614.801 1025.54,645.76 1005.83,675.125 990.783,702.899 979.828,729.133 972.413,753.88 968.054,777.186 966.354,799.078 967.018,819.559 969.85,838.604 974.755,856.157 981.725,872.117 990.841,886.325 1002.27,898.547 1016.23,908.446 1033.05,915.55 1053.05,919.209 1076.64,918.55 1104.15,912.438 1135.88,899.449 1171.88,877.916 1211.85,846.085 1254.9,802.472 1299.26,746.493 1342.14,679.334 1379.7,604.823 1407.39,529.733 1420.87,462.879 1417.11,412.826 1395.47,385.092 1358.03,380.45 1309.05,395.334 1253.75,423.862 1197.11,460.073 1143.08,499.318 1094.22,538.629 1051.88,576.44 1016.38,612.12 987.449,645.552 964.402,676.853 946.411,706.215 932.618,733.831 922.219,759.87 914.507,784.468 908.889,807.737 904.881,829.768 902.101,850.639 900.257,870.416 899.128,889.16 898.555,906.927 898.424,923.767 898.664,939.728 899.232,954.853 900.112,969.183 901.31,982.757 902.851,995.607 904.779,1007.76 907.16,1019.25 910.08,1030.09 913.649,1040.28 918.008,1049.83 923.333,1058.71 929.842,1066.88 937.805,1074.26 947.554,1080.7 959.497,1085.99 974.131,1089.8 992.057,1091.59 1013.99,1090.6 1040.74,1085.66 1073.24,1075.09 1112.39,1056.5 1159.01,1026.65 1213.47,981.461 1275.22,916.463 1342.13,828.032 1409.63,715.882 1470.2,586.417 1513.97,455.001 1530.98,343.666 1514.91,272.692 1466.13,250.65 1391.86,271.168 1303.18,318.737 1211.08,377.492 1123.87,436.463 1046.36,490.198 980.476,537.076 926.145,577.418 882.178,612.224 846.891,642.529 818.48,669.161 795.239,692.693 775.648,713.469 758.413,731.65 742.454,747.251 726.89,760.17 711.013,770.204 694.268,777.055 676.239,780.341 656.649,779.608 635.375,774.359 612.474,764.098 588.218,748.423 563.145,727.141 538.096,700.437 514.224,669.043 492.961,634.383 475.898,598.594 464.592,564.366 460.306,534.564 463.748,511.713 474.892,497.503 492.938,492.503 516.446,496.183 543.585,507.206 572.429,523.841 601.205,544.336 628.466,567.16 653.154,591.112 674.593,615.314 692.43,639.159 706.556,662.23 717.026,684.238 723.989,704.969 727.631,724.237 728.138,741.863 725.669,757.651 720.344,771.369 712.239,782.736 701.392,791.406 687.817,796.959 671.524,798.896 652.555,796.639 631.023,789.561 607.176,777.038 581.458,758.546 554.585,733.818 527.608,703.048 501.934,667.111 479.288,627.743 461.565,587.555 450.581,549.798 447.744,517.843 453.737,494.504 468.328,481.443 490.369,478.9 518.016,485.844 549.063,500.42 581.308,520.491 612.829,544.061 642.141,569.505 668.238,595.629 690.544,621.619 708.827,646.947 723.098,671.28 733.517,694.397 740.315,716.141 743.741,736.373 744.021,754.953 741.337,771.714 735.812,786.45 727.511,798.899 716.446,808.727 702.587,815.51 685.888,818.726 666.313,817.748 643.885,811.853 618.746,800.264 591.23,782.241 561.959,757.235 531.931,725.116 502.582,686.472 475.788,642.88 453.744,597.058 438.699,552.706 432.567,513.957 436.494,484.525 450.541,466.841 473.611,461.551 503.657,467.602 538.104,482.789 574.313,504.483 609.961,530.22 643.259,558.025 673.005,586.493 698.537,614.71 719.613,642.126 736.286,668.427 748.786,693.436 757.43,717.045 762.549,739.173 764.445,759.736 763.362,778.63 759.473,795.718 752.874,810.81 743.586,823.654 731.565,833.913 716.715,841.146 698.908,844.788 678.018,844.135 653.969,838.341 626.797,826.45 596.743,807.475 564.366,780.568 530.665,745.292 497.188,702.001 466.065,652.254 439.914,599.096 421.53,546.974 413.39,501.079 417.069,466.196 432.772,445.474 459.21,439.687 493.867,447.345 533.566,465.499 575.098,490.765 615.705,520.108 653.342,551.228 686.716,582.594 715.19,613.298 738.62,642.859 757.195,671.055 771.286,697.799 781.343,723.069 787.816,746.857 791.104,769.155 791.533,789.931 789.34,809.128 784.667,826.65 777.567,842.35 768.004,856.015 755.867,867.347 740.975,875.938 723.1,881.236 701.983,882.518 677.384,878.863 649.131,869.143 617.222,852.062 581.941,826.28 544.032,790.669 504.873,744.754 466.625,689.308 432.252,626.969 405.298,562.543 389.337,502.577 387.161,453.993 399.964,422.156 426.891,409.302 465.192,414.195 510.929,433.102 559.896,461.371 608.392,494.76 653.658,530.111 693.97,565.422 728.509,599.61 757.131,632.195 780.139,663.036 798.079,692.157 811.594,719.643 821.33,745.591 827.873,770.085 831.72,793.196 833.262,814.969 832.789,835.436 830.49,854.602 826.458,872.45 820.703,888.932 813.151,903.957 803.651,917.38 791.977,928.979 777.832,938.428 760.851,945.261 740.606,948.823 716.632,948.211 688.462,942.219 655.694,929.287 618.11,907.51 575.859,874.766 529.71,829.07 481.372,769.262 433.781,696.072 391.201,613.3 358.885,528.473 342.11,451.992 344.722,394.375 367.768,362.574 408.957,357.6 463.327,374.974 524.73,407.405 587.368,447.704 646.775,490.497 700.134,532.549 746.11,572.322 784.473,609.33 815.701,643.62 840.657,675.448 860.354,705.108 875.816,732.859 887.985,758.911 897.695,783.423 905.652,806.513 912.452,828.272 918.589,848.764 924.48,868.033 930.484,886.105 936.925,902.981 944.107,918.638 952.335,933.018 961.928,946.014 973.236,957.453 986.647,967.074 1002.61,974.488 1021.61,979.131 1044.2,980.204 1070.97,976.599 1102.49,966.815 1139.22,948.912 1181.37,920.529 1228.63,879.096 1279.87,822.383 1332.68,749.53 1383.08,662.528 1425.54,567.637 1453.71,475.616 1461.91,399.535 1447.04,350.352 1409.94,332.619 1355.19,343.306 1289.65,374.342 1220.42,416.607 1153.31,462.818 1092.17,508.447 1038.99,551.311 994.313,590.727 957.708,626.774 928.236,659.82 904.722,690.277 885.962,718.499 870.822,744.755 858.293,769.235 847.505,792.06 837.714,813.299 828.287,832.973 818.675,851.058 808.388,867.476 796.976,882.091 784.001,894.685 769.027,904.939 751.611,912.4 731.299,916.441 707.639,916.215 680.221,910.618 648.73,898.264 613.064,877.522 573.482,846.666 530.825,804.21 486.759,749.515 443.977,683.626 406.217,610.139 377.924,535.553 363.441,468.471 365.872,417.436 386.038,388.185 422.071,381.855 469.911,395.224 524.429,422.608 580.643,458.082 634.564,496.929 683.523,536.075 726.11,573.864 761.903,609.597 791.146,643.116 814.472,674.517 832.692,703.98 846.653,731.696 857.153,757.83 864.897,782.518 870.478,805.872 874.38,827.982 876.983,848.927 878.576,868.772 879.373,887.577 879.525,905.396 879.133,922.278 878.253,938.267 876.906,953.404 875.082,967.724 872.742,981.257 869.82,994.025 866.219,1006.04 861.815,1017.31 856.442,1027.8 849.896,1037.49 841.923,1046.28 832.207,1054.05 820.363,1060.58 805.924,1065.56 788.328,1068.47 766.911,1068.59 740.911,1064.83 709.489,1055.62 671.799,1038.77 627.121,1011.31 575.124,969.562 516.291,909.476 452.54,827.738 387.943,723.874 329.194,603.149 285.216,478.706 265.265,370.07 275.734,296.364 317.245,267.43 384.08,279.774 466.445,320.47 553.961,374.799 638.341,431.677 714.389,485.003 779.745,532.496 834.078,574.012 878.278,610.277 913.833,642.193 942.426,670.538 965.702,695.875 985.154,718.563 1002.08,738.79 1017.57,756.603 1032.54,771.937 1047.75,784.623 1063.8,794.39 1081.2,800.87 1100.33,803.589 1121.46,801.98 1144.71,795.404 1170.01,783.204 1197.05,764.803 1225.22,739.866 1253.52,708.514 1280.56,671.571 1304.59,630.772 1323.61,588.81 1335.69,549.11 1339.31,515.284 1333.66,490.397 1318.95,476.295 1296.33,473.284 1267.75,480.28 1235.53,495.3 1202.02,516.054 1169.23,540.415 1138.74,566.665 1111.6,593.561 1088.4,620.268 1069.36,646.26 1054.45,671.213 1043.49,694.924 1036.22,717.252 1032.36,738.076 1031.66,757.274 1033.94,774.699 1039.05,790.163 1046.92,803.424 1057.55,814.171 1070.97,822 1087.25,826.407 1106.46,826.768 1128.63,822.349 1153.68,812.329 1181.39,795.874 1211.22,772.273 1242.31,741.162 1273.29,702.825 1302.36,658.529 1327.25,610.757 1345.54,563.179 1355,520.19 1354.1,486.044 1342.38,463.845 1320.69,454.833 1290.95,458.292 1255.83,472.058 1218.17,493.314 1180.56,519.314 1145.04,547.811 1113.02,577.187 1085.29,606.394 1062.19,634.812 1043.69,662.098 1029.55,688.074 1019.43,712.646 1012.96,735.752 1009.79,757.335 1009.64,777.322 1012.3,795.61 1017.63,812.053 1025.59,826.447 1036.2,838.516 1049.55,847.888 1065.79,854.071 1085.09,856.434 1107.61,854.188 1133.42,846.385 1162.5,831.961 1194.53,809.836 1228.85,779.126 1264.29,739.476 1299.02,691.513 1330.59,637.307 1356.08,580.62 1372.47,526.655 1377.28,481.128 1369.21,448.856 1348.55,432.455 1317.22,431.809 1278.27,444.518 1235.26,466.994 1191.5,495.578 1149.7,527.254 1111.7,559.9 1078.57,592.205 1050.73,623.456 1028.11,653.323 1010.4,681.687 997.121,708.528 987.752,733.868 981.81,757.733 978.874,780.136 978.612,801.069 980.79,820.499 985.269,838.353 992.005,854.517 1001.04,868.815 1012.51,880.992 1026.61,890.69 1043.59,897.415 1063.77,900.501 1087.46,899.073 1114.94,892.016 1146.38,877.98 1181.7,855.446 1220.45,822.923 1261.57,779.322 1303.18,724.568 1342.48,660.361 1375.8,590.81 1399.05,522.461 1408.54,463.232 1401.95,420.315 1379.2,397.922 1342.51,396.15 1295.88,411.567 1244.02,438.982 1191.33,473.248 1141.27,510.355 1096.1,547.701 1056.98,583.867 1024.24,618.234 997.616,650.633 976.538,681.117 960.275,709.816 948.074,736.875 939.236,762.424 933.148,786.571 929.307,809.403 927.317,830.99 926.883,851.388 927.803,870.639 929.958,888.771 933.304,905.8 937.861,921.721 943.715,936.505 951.012,950.089 959.96,962.367 970.832,973.162 983.973,982.212 999.798,989.122 1018.8,993.318 1041.53,993.984 1068.6,989.972 1100.61,979.723 1138.07,961.194 1181.24,931.873 1229.86,888.984 1282.77,830.064 1337.48,754.071 1389.8,663.017 1433.86,563.574 1462.84,467.344 1470.7,388.438 1454.22,338.511 1414.43,322.047 1356.44,335.257 1287.63,369.116 1215.53,413.812 1146.12,461.774 1083.29,508.483 1028.94,551.897 983.45,591.49 946.284,627.469 916.378,660.288 892.467,690.408 873.274,718.207 857.611,743.961 844.428,767.852 832.818,789.987 822.008,810.408 811.335,829.099 800.223,845.985 788.156,860.923 774.653,873.686 759.259,883.944 741.526,891.235 721.019,894.928 697.33,894.191 670.112,887.964 639.147,874.955 604.45,853.711 566.418,822.783 526.02,781.089 484.997,728.465 445.992,666.395 412.494,598.637 388.452,531.317 377.531,472.03 382.141,427.91 402.639,403.449 437.102,399.245 481.821,412.364 532.255,437.929 584.04,470.893 633.67,507.187 678.773,544.088 718.059,580.051 751.101,614.359 778.066,646.779 799.472,677.321 816.007,706.095 828.396,733.23 837.325,758.851 843.397,783.058 847.109,805.934 848.852,827.544 848.916,847.936 847.491,867.143 844.685,885.18 840.527,902.047 834.973,917.715 827.911,932.122 819.165,945.164 808.486,956.668 795.561,966.377 779.999,973.908 761.344,978.707 739.073,979.988 712.623,976.661 681.434,967.251 645.042,949.841 603.227,922.091 556.259,881.439 505.233,825.62 452.473,753.671 401.868,667.392 358.866,572.787 329.808,480.387 320.445,403.216 334.041,352.448 369.998,333.041 423.902,342.344 488.979,372.473 558.107,414.293 625.392,460.39 686.869,506.095 740.461,549.117 785.568,588.712 822.565,624.929 852.376,658.127 876.165,688.718 895.137,717.059 910.43,743.424 923.058,768.006 933.9,790.93 943.703,812.27 953.106,832.047 962.661,850.242 972.857,866.783 984.149,881.536 996.972,894.293 1011.76,904.744 1028.96,912.448 1049.02,916.792 1072.4,916.951 1099.51,911.839 1130.68,900.091 1166.04,880.088 1205.37,850.095 1247.88,808.582 1291.99,754.8 1335.09,689.617 1373.5,616.397 1402.82,541.426 1418.62,473.229 1417.65,420.488 1398.86,389.284 1363.92,381.153 1316.76,393.157 1262.48,419.702 1206.13,454.791 1151.81,493.567 1102.3,532.821 1059.1,570.796 1022.7,606.736 992.907,640.453 969.094,672.034 950.461,701.658 936.156,729.516 925.372,755.779 917.393,780.584 911.615,804.047 907.543,826.259 904.788,847.299 903.052,867.235 902.111,886.128 901.807,904.031 902.033,920.995 902.725,937.066 903.854,952.285 905.422,966.69 907.456,980.313 910.012,993.18 913.171,1005.31 917.043,1016.71 921.771,1027.38 927.535,1037.28 934.56,1046.37 943.124,1054.55 953.571,1061.65 966.319,1067.43 981.874,1071.51 1000.84,1073.3 1023.93,1071.96 1051.96,1066.21 1085.78,1054.25 1126.23,1033.58 1173.95,1000.91 1229.03,952.269 1290.54,883.616 1355.81,792.327 1419.72,679.738 1474.5,554.112 1510.63,431.803 1519.37,333.643 1496.24,276.42 1443.22,264.85 1368.17,290.69 1281.69,339.082 1193.71,396.071 1111.42,452.454 1038.85,503.827 977.436,548.979 926.912,588.271 886.061,622.592 853.254,652.84 826.783,679.724 805.036,703.733 786.585,725.155 770.209,744.117 754.881,760.618 739.757,774.544 724.143,785.682 707.478,793.718 689.321,798.24 669.351,798.741 647.381,794.635 623.389,785.294 597.566,770.126 570.375,748.703 542.617,720.938 515.471,687.317 490.487,649.119 469.499,608.531 454.421,568.568 446.939,532.684 448.173,504.142 458.391,485.321 476.901,477.235 502.157,479.464 532.057,490.48 564.316,508.184 596.801,530.422 627.764,555.33 655.937,581.473 680.522,607.843 701.124,633.774 717.646,658.848 730.188,682.797 738.96,705.444 744.218,726.648 746.209,746.279 745.146,764.192 741.185,780.207 734.426,794.101 724.905,805.582 712.611,814.282 697.496,819.736 679.507,821.373 658.616,818.514 634.877,810.393 608.491,796.215 579.891,775.267 549.837,747.113 519.508,711.851 490.54,670.429 464.992,624.9 445.168,578.467 433.284,535.179 431.038,499.212 439.192,473.933 457.327,461.122 483.892,460.682 516.518,470.956 552.495,489.413 589.227,513.369 624.556,540.492 656.915,569.016 685.327,597.742 709.321,625.923 728.799,653.125 743.913,679.108 754.95,703.738 762.251,726.93 766.151,748.611 766.937,768.699 764.834,787.084 759.987,803.618 752.464,818.097 742.259,830.245 729.301,839.698 713.472,845.976 694.633,848.469 672.652,846.419 647.465,838.927 619.144,824.989 588.001,803.605 554.701,773.971 520.398,735.799 486.831,689.728 456.332,637.741 431.672,583.388 415.689,531.542 410.727,487.561 418.044,456.006 437.407,439.44 467.078,437.91 504.208,449.308 545.466,470.346 587.663,497.578 628.186,528.102 665.19,559.82 697.586,591.398 724.91,622.081 747.15,651.491 764.581,679.471 777.626,705.971 786.759,730.987 792.434,754.522 795.044,776.57 794.9,797.104 792.22,816.067 787.127,833.36 779.652,848.835 769.742,862.275 757.265,873.376 742.023,881.716 723.767,886.729 702.222,887.669 677.13,883.579 648.308,873.29 615.748,855.453 579.744,828.673 541.068,791.784 501.16,744.308 462.279,687.097 427.52,622.972 400.564,557.03 385.092,496.138 383.918,447.449 398.146,416.344 426.734,404.841 466.705,411.359 513.923,431.836 564.061,461.413 613.383,495.778 659.158,531.796 699.724,567.536 734.339,601.985 762.932,634.724 785.863,665.656 803.724,694.832 817.192,722.358 826.937,748.342 833.56,772.879 837.572,796.046 839.374,817.9 839.266,838.48 837.447,857.807 834.023,875.879 829.019,892.669 822.377,908.117 813.967,922.117 803.586,934.502 790.958,945.017 775.735,953.292 757.505,958.793 735.794,960.774 710.096,958.206 679.915,949.715 644.853,933.541 604.747,907.562 559.892,869.488 511.338,817.335 461.242,750.304 "/>
</svg>
