<?xml version="1.0" encoding="utf-8"?>
<svg xmlns="http://www.w3.org/2000/svg" xmlns:xlink="http://www.w3.org/1999/xlink" width="560" height="380" viewBox="0 0 2240 1520">
<defs>
  <clipPath id="clip460">
    <rect x="0" y="0" width="2240" height="1520"/>
  </clipPath>
</defs>
<path clip-path="url(#clip460)" d="M0 1520 L2240 1520 L2240 0 L0 0  Z" fill="#ffffff" fill-rule="evenodd" fill-opacity="1"/>
<defs>
  <clipPath id="clip461">
    <rect x="73" y="0" width="2094" height="1520"/>
  </clipPath>
</defs>
<path clip-path="url(#clip460)" d="M219.115 1342.51 L2192.76 1342.51 L2192.76 47.2441 L219.115 47.2441  Z" fill="#ffffff" fill-rule="evenodd" fill-opacity="1"/>
<defs>
  <clipPath id="clip462">
    <rect x="219" y="47" width="1975" height="1296"/>
  </clipPath>
</defs>
<polyline clip-path="url(#clip462)" style="stroke:#000000; stroke-linecap:round; stroke-linejoin:round; stroke-width:2; stroke-opacity:0.1; fill:none" points="274.973,1342.51 274.973,47.2441 "/>
<polyline clip-path="url(#clip462)" style="stroke:#000000; stroke-linecap:round; stroke-linejoin:round; stroke-width:2; stroke-opacity:0.1; fill:none" points="633.035,1342.51 633.035,47.2441 "/>
<polyline clip-path="url(#clip462)" style="stroke:#000000; stroke-linecap:round; stroke-linejoin:round; stroke-width:2; stroke-opacity:0.1; fill:none" points="991.098,1342.51 991.098,47.2441 "/>
<polyline clip-path="url(#clip462)" style="stroke:#000000; stroke-linecap:round; stroke-linejoin:round; stroke-width:2; stroke-opacity:0.1; fill:none" points="1349.16,1342.51 1349.16,47.2441 "/>
<polyline clip-path="url(#clip462)" style="stroke:#000000; stroke-linecap:round; stroke-linejoin:round; stroke-width:2; stroke-opacity:0.1; fill:none" points="1707.22,1342.51 1707.22,47.2441 "/>
<polyline clip-path="url(#clip462)" style="stroke:#000000; stroke-linecap:round; stroke-linejoin:round; stroke-width:2; stroke-opacity:0.1; fill:none" points="2065.29,1342.51 2065.29,47.2441 "/>
<polyline clip-path="url(#clip462)" style="stroke:#000000; stroke-linecap:round; stroke-linejoin:round; stroke-width:2; stroke-opacity:0.1; fill:none" points="219.115,1110.66 2192.76,1110.66 "/>
<polyline clip-path="url(#clip462)" style="stroke:#000000; stroke-linecap:round; stroke-linejoin:round; stroke-width:2; stroke-opacity:0.1; fill:none" points="219.115,853.78 2192.76,853.78 "/>
<polyline clip-path="url(#clip462)" style="stroke:#000000; stroke-linecap:round; stroke-linejoin:round; stroke-width:2; stroke-opacity:0.1; fill:none" points="219.115,596.9 2192.76,596.9 "/>
<polyline clip-path="url(#clip462)" style="stroke:#000000; stroke-linecap:round; stroke-linejoin:round; stroke-width:2; stroke-opacity:0.1; fill:none" points="219.115,340.021 2192.76,340.021 "/>
<polyline clip-path="url(#clip462)" style="stroke:#000000; stroke-linecap:round; stroke-linejoin:round; stroke-width:2; stroke-opacity:0.1; fill:none" points="219.115,83.1417 2192.76,83.1417 "/>
<polyline clip-path="url(#clip460)" style="stroke:#000000; stroke-linecap:round; stroke-linejoin:round; stroke-width:4; stroke-opacity:1; fill:none" points="219.115,1342.51 2192.76,1342.51 "/>
<polyline clip-path="url(#clip460)" style="stroke:#000000; stroke-linecap:round; stroke-linejoin:round; stroke-width:4; stroke-opacity:1; fill:none" points="274.973,1342.51 274.973,1323.62 "/>
<polyline clip-path="url(#clip460)" style="stroke:#000000; stroke-linecap:round; stroke-linejoin:round; stroke-width:4; stroke-opacity:1; fill:none" points="633.035,1342.51 633.035,1323.62 "/>
<polyline clip-path="url(#clip460)" style="stroke:#000000; stroke-linecap:round; stroke-linejoin:round; stroke-width:4; stroke-opacity:1; fill:none" points="991.098,1342.51 991.098,1323.62 "/>
<polyline clip-path="url(#clip460)" style="stroke:#000000; stroke-linecap:round; stroke-linejoin:round; stroke-width:4; stroke-opacity:1; fill:none" points="1349.16,1342.51 1349.16,1323.62 "/>
<polyline clip-path="url(#clip460)" style="stroke:#000000; stroke-linecap:round; stroke-linejoin:round; stroke-width:4; stroke-opacity:1; fill:none" points="1707.22,1342.51 1707.22,1323.62 "/>
<polyline clip-path="url(#clip460)" style="stroke:#000000; stroke-linecap:round; stroke-linejoin:round; stroke-width:4; stroke-opacity:1; fill:none" points="2065.29,1342.51 2065.29,1323.62 "/>
<path clip-path="url(#clip460)" d="M242.126 1399.7 L249.764 1399.7 L249.764 1373.33 L241.454 1375 L241.454 1370.74 L249.718 1369.07 L254.394 1369.07 L254.394 1399.7 L262.033 1399.7 L262.033 1403.63 L242.126 1403.63 L242.126 1399.7 Z" fill="#000000" fill-rule="nonzero" fill-opacity="1" /><path clip-path="url(#clip460)" d="M271.477 1397.75 L276.361 1397.75 L276.361 1403.63 L271.477 1403.63 L271.477 1397.75 Z" fill="#000000" fill-rule="nonzero" fill-opacity="1" /><path clip-path="url(#clip460)" d="M296.547 1372.15 Q292.935 1372.15 291.107 1375.72 Q289.301 1379.26 289.301 1386.39 Q289.301 1393.5 291.107 1397.06 Q292.935 1400.6 296.547 1400.6 Q300.181 1400.6 301.986 1397.06 Q303.815 1393.5 303.815 1386.39 Q303.815 1379.26 301.986 1375.72 Q300.181 1372.15 296.547 1372.15 M296.547 1368.45 Q302.357 1368.45 305.412 1373.06 Q308.491 1377.64 308.491 1386.39 Q308.491 1395.12 305.412 1399.72 Q302.357 1404.31 296.547 1404.31 Q290.736 1404.31 287.658 1399.72 Q284.602 1395.12 284.602 1386.39 Q284.602 1377.64 287.658 1373.06 Q290.736 1368.45 296.547 1368.45 Z" fill="#000000" fill-rule="nonzero" fill-opacity="1" /><path clip-path="url(#clip460)" d="M600.686 1399.7 L608.325 1399.7 L608.325 1373.33 L600.015 1375 L600.015 1370.74 L608.278 1369.07 L612.954 1369.07 L612.954 1399.7 L620.593 1399.7 L620.593 1403.63 L600.686 1403.63 L600.686 1399.7 Z" fill="#000000" fill-rule="nonzero" fill-opacity="1" /><path clip-path="url(#clip460)" d="M630.038 1397.75 L634.922 1397.75 L634.922 1403.63 L630.038 1403.63 L630.038 1397.75 Z" fill="#000000" fill-rule="nonzero" fill-opacity="1" /><path clip-path="url(#clip460)" d="M645.153 1369.07 L663.51 1369.07 L663.51 1373.01 L649.436 1373.01 L649.436 1381.48 Q650.454 1381.13 651.473 1380.97 Q652.491 1380.79 653.51 1380.79 Q659.297 1380.79 662.676 1383.96 Q666.056 1387.13 666.056 1392.55 Q666.056 1398.12 662.584 1401.23 Q659.111 1404.31 652.792 1404.31 Q650.616 1404.31 648.348 1403.94 Q646.102 1403.56 643.695 1402.82 L643.695 1398.12 Q645.778 1399.26 648 1399.81 Q650.223 1400.37 652.699 1400.37 Q656.704 1400.37 659.042 1398.26 Q661.38 1396.16 661.38 1392.55 Q661.38 1388.94 659.042 1386.83 Q656.704 1384.72 652.699 1384.72 Q650.824 1384.72 648.949 1385.14 Q647.098 1385.56 645.153 1386.44 L645.153 1369.07 Z" fill="#000000" fill-rule="nonzero" fill-opacity="1" /><path clip-path="url(#clip460)" d="M962.336 1399.7 L978.656 1399.7 L978.656 1403.63 L956.711 1403.63 L956.711 1399.7 Q959.373 1396.94 963.957 1392.31 Q968.563 1387.66 969.744 1386.32 Q971.989 1383.8 972.869 1382.06 Q973.772 1380.3 973.772 1378.61 Q973.772 1375.86 971.827 1374.12 Q969.906 1372.38 966.804 1372.38 Q964.605 1372.38 962.151 1373.15 Q959.721 1373.91 956.943 1375.46 L956.943 1370.74 Q959.767 1369.61 962.221 1369.03 Q964.674 1368.45 966.711 1368.45 Q972.082 1368.45 975.276 1371.13 Q978.471 1373.82 978.471 1378.31 Q978.471 1380.44 977.66 1382.36 Q976.873 1384.26 974.767 1386.85 Q974.188 1387.52 971.086 1390.74 Q967.985 1393.94 962.336 1399.7 Z" fill="#000000" fill-rule="nonzero" fill-opacity="1" /><path clip-path="url(#clip460)" d="M988.471 1397.75 L993.355 1397.75 L993.355 1403.63 L988.471 1403.63 L988.471 1397.75 Z" fill="#000000" fill-rule="nonzero" fill-opacity="1" /><path clip-path="url(#clip460)" d="M1013.54 1372.15 Q1009.93 1372.15 1008.1 1375.72 Q1006.29 1379.26 1006.29 1386.39 Q1006.29 1393.5 1008.1 1397.06 Q1009.93 1400.6 1013.54 1400.6 Q1017.17 1400.6 1018.98 1397.06 Q1020.81 1393.5 1020.81 1386.39 Q1020.81 1379.26 1018.98 1375.72 Q1017.17 1372.15 1013.54 1372.15 M1013.54 1368.45 Q1019.35 1368.45 1022.41 1373.06 Q1025.48 1377.64 1025.48 1386.39 Q1025.48 1395.12 1022.41 1399.72 Q1019.35 1404.31 1013.54 1404.31 Q1007.73 1404.31 1004.65 1399.72 Q1001.6 1395.12 1001.6 1386.39 Q1001.6 1377.64 1004.65 1373.06 Q1007.73 1368.45 1013.54 1368.45 Z" fill="#000000" fill-rule="nonzero" fill-opacity="1" /><path clip-path="url(#clip460)" d="M1320.9 1399.7 L1337.22 1399.7 L1337.22 1403.63 L1315.27 1403.63 L1315.27 1399.7 Q1317.93 1396.94 1322.52 1392.31 Q1327.12 1387.66 1328.3 1386.32 Q1330.55 1383.8 1331.43 1382.06 Q1332.33 1380.3 1332.33 1378.61 Q1332.33 1375.86 1330.39 1374.12 Q1328.47 1372.38 1325.36 1372.38 Q1323.17 1372.38 1320.71 1373.15 Q1318.28 1373.91 1315.5 1375.46 L1315.5 1370.74 Q1318.33 1369.61 1320.78 1369.03 Q1323.23 1368.45 1325.27 1368.45 Q1330.64 1368.45 1333.84 1371.13 Q1337.03 1373.82 1337.03 1378.31 Q1337.03 1380.44 1336.22 1382.36 Q1335.43 1384.26 1333.33 1386.85 Q1332.75 1387.52 1329.65 1390.74 Q1326.54 1393.94 1320.9 1399.7 Z" fill="#000000" fill-rule="nonzero" fill-opacity="1" /><path clip-path="url(#clip460)" d="M1347.03 1397.75 L1351.92 1397.75 L1351.92 1403.63 L1347.03 1403.63 L1347.03 1397.75 Z" fill="#000000" fill-rule="nonzero" fill-opacity="1" /><path clip-path="url(#clip460)" d="M1362.15 1369.07 L1380.5 1369.07 L1380.5 1373.01 L1366.43 1373.01 L1366.43 1381.48 Q1367.45 1381.13 1368.47 1380.97 Q1369.48 1380.79 1370.5 1380.79 Q1376.29 1380.79 1379.67 1383.96 Q1383.05 1387.13 1383.05 1392.55 Q1383.05 1398.12 1379.58 1401.23 Q1376.1 1404.31 1369.79 1404.31 Q1367.61 1404.31 1365.34 1403.94 Q1363.1 1403.56 1360.69 1402.82 L1360.69 1398.12 Q1362.77 1399.26 1364.99 1399.81 Q1367.22 1400.37 1369.69 1400.37 Q1373.7 1400.37 1376.04 1398.26 Q1378.37 1396.16 1378.37 1392.55 Q1378.37 1388.94 1376.04 1386.83 Q1373.7 1384.72 1369.69 1384.72 Q1367.82 1384.72 1365.94 1385.14 Q1364.09 1385.56 1362.15 1386.44 L1362.15 1369.07 Z" fill="#000000" fill-rule="nonzero" fill-opacity="1" /><path clip-path="url(#clip460)" d="M1688.53 1385 Q1691.89 1385.72 1693.76 1387.99 Q1695.66 1390.25 1695.66 1393.59 Q1695.66 1398.7 1692.14 1401.5 Q1688.62 1404.31 1682.14 1404.31 Q1679.97 1404.31 1677.65 1403.87 Q1675.36 1403.45 1672.91 1402.59 L1672.91 1398.08 Q1674.85 1399.21 1677.17 1399.79 Q1679.48 1400.37 1682 1400.37 Q1686.4 1400.37 1688.69 1398.63 Q1691.01 1396.9 1691.01 1393.59 Q1691.01 1390.53 1688.86 1388.82 Q1686.73 1387.08 1682.91 1387.08 L1678.88 1387.08 L1678.88 1383.24 L1683.09 1383.24 Q1686.54 1383.24 1688.37 1381.87 Q1690.2 1380.49 1690.2 1377.89 Q1690.2 1375.23 1688.3 1373.82 Q1686.42 1372.38 1682.91 1372.38 Q1680.98 1372.38 1678.79 1372.8 Q1676.59 1373.22 1673.95 1374.1 L1673.95 1369.93 Q1676.61 1369.19 1678.92 1368.82 Q1681.26 1368.45 1683.32 1368.45 Q1688.65 1368.45 1691.75 1370.88 Q1694.85 1373.29 1694.85 1377.41 Q1694.85 1380.28 1693.21 1382.27 Q1691.56 1384.24 1688.53 1385 Z" fill="#000000" fill-rule="nonzero" fill-opacity="1" /><path clip-path="url(#clip460)" d="M1704.53 1397.75 L1709.41 1397.75 L1709.41 1403.63 L1704.53 1403.63 L1704.53 1397.75 Z" fill="#000000" fill-rule="nonzero" fill-opacity="1" /><path clip-path="url(#clip460)" d="M1729.6 1372.15 Q1725.98 1372.15 1724.16 1375.72 Q1722.35 1379.26 1722.35 1386.39 Q1722.35 1393.5 1724.16 1397.06 Q1725.98 1400.6 1729.6 1400.6 Q1733.23 1400.6 1735.04 1397.06 Q1736.86 1393.5 1736.86 1386.39 Q1736.86 1379.26 1735.04 1375.72 Q1733.23 1372.15 1729.6 1372.15 M1729.6 1368.45 Q1735.41 1368.45 1738.46 1373.06 Q1741.54 1377.64 1741.54 1386.39 Q1741.54 1395.12 1738.46 1399.72 Q1735.41 1404.31 1729.6 1404.31 Q1723.79 1404.31 1720.71 1399.72 Q1717.65 1395.12 1717.65 1386.39 Q1717.65 1377.64 1720.71 1373.06 Q1723.79 1368.45 1729.6 1368.45 Z" fill="#000000" fill-rule="nonzero" fill-opacity="1" /><path clip-path="url(#clip460)" d="M2047.09 1385 Q2050.45 1385.72 2052.32 1387.99 Q2054.22 1390.25 2054.22 1393.59 Q2054.22 1398.7 2050.7 1401.5 Q2047.18 1404.31 2040.7 1404.31 Q2038.53 1404.31 2036.21 1403.87 Q2033.92 1403.45 2031.47 1402.59 L2031.47 1398.08 Q2033.41 1399.21 2035.73 1399.79 Q2038.04 1400.37 2040.56 1400.37 Q2044.96 1400.37 2047.25 1398.63 Q2049.57 1396.9 2049.57 1393.59 Q2049.57 1390.53 2047.42 1388.82 Q2045.29 1387.08 2041.47 1387.08 L2037.44 1387.08 L2037.44 1383.24 L2041.65 1383.24 Q2045.1 1383.24 2046.93 1381.87 Q2048.76 1380.49 2048.76 1377.89 Q2048.76 1375.23 2046.86 1373.82 Q2044.98 1372.38 2041.47 1372.38 Q2039.55 1372.38 2037.35 1372.8 Q2035.15 1373.22 2032.51 1374.1 L2032.51 1369.93 Q2035.17 1369.19 2037.48 1368.82 Q2039.82 1368.45 2041.88 1368.45 Q2047.21 1368.45 2050.31 1370.88 Q2053.41 1373.29 2053.41 1377.41 Q2053.41 1380.28 2051.77 1382.27 Q2050.12 1384.24 2047.09 1385 Z" fill="#000000" fill-rule="nonzero" fill-opacity="1" /><path clip-path="url(#clip460)" d="M2063.09 1397.75 L2067.97 1397.75 L2067.97 1403.63 L2063.09 1403.63 L2063.09 1397.75 Z" fill="#000000" fill-rule="nonzero" fill-opacity="1" /><path clip-path="url(#clip460)" d="M2078.2 1369.07 L2096.56 1369.07 L2096.56 1373.01 L2082.48 1373.01 L2082.48 1381.48 Q2083.5 1381.13 2084.52 1380.97 Q2085.54 1380.79 2086.56 1380.79 Q2092.35 1380.79 2095.73 1383.96 Q2099.1 1387.13 2099.1 1392.55 Q2099.1 1398.12 2095.63 1401.23 Q2092.16 1404.31 2085.84 1404.31 Q2083.67 1404.31 2081.4 1403.94 Q2079.15 1403.56 2076.74 1402.82 L2076.74 1398.12 Q2078.83 1399.26 2081.05 1399.81 Q2083.27 1400.37 2085.75 1400.37 Q2089.75 1400.37 2092.09 1398.26 Q2094.43 1396.16 2094.43 1392.55 Q2094.43 1388.94 2092.09 1386.83 Q2089.75 1384.72 2085.75 1384.72 Q2083.87 1384.72 2082 1385.14 Q2080.15 1385.56 2078.2 1386.44 L2078.2 1369.07 Z" fill="#000000" fill-rule="nonzero" fill-opacity="1" /><path clip-path="url(#clip460)" d="M1185.84 1437.46 L1226.04 1437.46 L1226.04 1442.87 L1209.17 1442.87 L1209.17 1484.98 L1202.7 1484.98 L1202.7 1442.87 L1185.84 1442.87 L1185.84 1437.46 Z" fill="#000000" fill-rule="nonzero" fill-opacity="1" /><polyline clip-path="url(#clip460)" style="stroke:#000000; stroke-linecap:round; stroke-linejoin:round; stroke-width:4; stroke-opacity:1; fill:none" points="219.115,1342.51 219.115,47.2441 "/>
<polyline clip-path="url(#clip460)" style="stroke:#000000; stroke-linecap:round; stroke-linejoin:round; stroke-width:4; stroke-opacity:1; fill:none" points="219.115,1110.66 238.012,1110.66 "/>
<polyline clip-path="url(#clip460)" style="stroke:#000000; stroke-linecap:round; stroke-linejoin:round; stroke-width:4; stroke-opacity:1; fill:none" points="219.115,853.78 238.012,853.78 "/>
<polyline clip-path="url(#clip460)" style="stroke:#000000; stroke-linecap:round; stroke-linejoin:round; stroke-width:4; stroke-opacity:1; fill:none" points="219.115,596.9 238.012,596.9 "/>
<polyline clip-path="url(#clip460)" style="stroke:#000000; stroke-linecap:round; stroke-linejoin:round; stroke-width:4; stroke-opacity:1; fill:none" points="219.115,340.021 238.012,340.021 "/>
<polyline clip-path="url(#clip460)" style="stroke:#000000; stroke-linecap:round; stroke-linejoin:round; stroke-width:4; stroke-opacity:1; fill:none" points="219.115,83.1417 238.012,83.1417 "/>
<path clip-path="url(#clip460)" d="M129.936 1096.46 Q126.325 1096.46 124.497 1100.02 Q122.691 1103.56 122.691 1110.69 Q122.691 1117.8 124.497 1121.37 Q126.325 1124.91 129.936 1124.91 Q133.571 1124.91 135.376 1121.37 Q137.205 1117.8 137.205 1110.69 Q137.205 1103.56 135.376 1100.02 Q133.571 1096.46 129.936 1096.46 M129.936 1092.75 Q135.747 1092.75 138.802 1097.36 Q141.881 1101.94 141.881 1110.69 Q141.881 1119.42 138.802 1124.03 Q135.747 1128.61 129.936 1128.61 Q124.126 1128.61 121.048 1124.03 Q117.992 1119.42 117.992 1110.69 Q117.992 1101.94 121.048 1097.36 Q124.126 1092.75 129.936 1092.75 Z" fill="#000000" fill-rule="nonzero" fill-opacity="1" /><path clip-path="url(#clip460)" d="M150.098 1122.06 L154.983 1122.06 L154.983 1127.94 L150.098 1127.94 L150.098 1122.06 Z" fill="#000000" fill-rule="nonzero" fill-opacity="1" /><path clip-path="url(#clip460)" d="M169.195 1124 L185.515 1124 L185.515 1127.94 L163.571 1127.94 L163.571 1124 Q166.233 1121.25 170.816 1116.62 Q175.422 1111.97 176.603 1110.62 Q178.848 1108.1 179.728 1106.37 Q180.631 1104.61 180.631 1102.92 Q180.631 1100.16 178.686 1098.43 Q176.765 1096.69 173.663 1096.69 Q171.464 1096.69 169.01 1097.45 Q166.58 1098.22 163.802 1099.77 L163.802 1095.05 Q166.626 1093.91 169.08 1093.33 Q171.533 1092.75 173.57 1092.75 Q178.941 1092.75 182.135 1095.44 Q185.33 1098.12 185.33 1102.62 Q185.33 1104.74 184.519 1106.67 Q183.732 1108.56 181.626 1111.16 Q181.047 1111.83 177.945 1115.05 Q174.844 1118.24 169.195 1124 Z" fill="#000000" fill-rule="nonzero" fill-opacity="1" /><path clip-path="url(#clip460)" d="M127.853 839.579 Q124.242 839.579 122.413 843.143 Q120.608 846.685 120.608 853.815 Q120.608 860.921 122.413 864.486 Q124.242 868.028 127.853 868.028 Q131.487 868.028 133.293 864.486 Q135.122 860.921 135.122 853.815 Q135.122 846.685 133.293 843.143 Q131.487 839.579 127.853 839.579 M127.853 835.875 Q133.663 835.875 136.719 840.481 Q139.797 845.065 139.797 853.815 Q139.797 862.541 136.719 867.148 Q133.663 871.731 127.853 871.731 Q122.043 871.731 118.964 867.148 Q115.909 862.541 115.909 853.815 Q115.909 845.065 118.964 840.481 Q122.043 835.875 127.853 835.875 Z" fill="#000000" fill-rule="nonzero" fill-opacity="1" /><path clip-path="url(#clip460)" d="M148.015 865.18 L152.899 865.18 L152.899 871.06 L148.015 871.06 L148.015 865.18 Z" fill="#000000" fill-rule="nonzero" fill-opacity="1" /><path clip-path="url(#clip460)" d="M175.932 840.574 L164.126 859.023 L175.932 859.023 L175.932 840.574 M174.705 836.5 L180.584 836.5 L180.584 859.023 L185.515 859.023 L185.515 862.912 L180.584 862.912 L180.584 871.06 L175.932 871.06 L175.932 862.912 L160.33 862.912 L160.33 858.398 L174.705 836.5 Z" fill="#000000" fill-rule="nonzero" fill-opacity="1" /><path clip-path="url(#clip460)" d="M128.177 582.699 Q124.566 582.699 122.737 586.264 Q120.932 589.806 120.932 596.935 Q120.932 604.042 122.737 607.606 Q124.566 611.148 128.177 611.148 Q131.811 611.148 133.617 607.606 Q135.446 604.042 135.446 596.935 Q135.446 589.806 133.617 586.264 Q131.811 582.699 128.177 582.699 M128.177 578.995 Q133.987 578.995 137.043 583.602 Q140.122 588.185 140.122 596.935 Q140.122 605.662 137.043 610.268 Q133.987 614.852 128.177 614.852 Q122.367 614.852 119.288 610.268 Q116.233 605.662 116.233 596.935 Q116.233 588.185 119.288 583.602 Q122.367 578.995 128.177 578.995 Z" fill="#000000" fill-rule="nonzero" fill-opacity="1" /><path clip-path="url(#clip460)" d="M148.339 608.301 L153.223 608.301 L153.223 614.18 L148.339 614.18 L148.339 608.301 Z" fill="#000000" fill-rule="nonzero" fill-opacity="1" /><path clip-path="url(#clip460)" d="M173.987 595.037 Q170.839 595.037 168.987 597.19 Q167.158 599.343 167.158 603.093 Q167.158 606.819 168.987 608.995 Q170.839 611.148 173.987 611.148 Q177.135 611.148 178.964 608.995 Q180.816 606.819 180.816 603.093 Q180.816 599.343 178.964 597.19 Q177.135 595.037 173.987 595.037 M183.269 580.384 L183.269 584.644 Q181.51 583.81 179.705 583.37 Q177.922 582.931 176.163 582.931 Q171.533 582.931 169.08 586.056 Q166.649 589.181 166.302 595.5 Q167.668 593.486 169.728 592.421 Q171.788 591.333 174.265 591.333 Q179.473 591.333 182.482 594.505 Q185.515 597.653 185.515 603.093 Q185.515 608.417 182.367 611.634 Q179.219 614.852 173.987 614.852 Q167.992 614.852 164.821 610.268 Q161.649 605.662 161.649 596.935 Q161.649 588.741 165.538 583.88 Q169.427 578.995 175.978 578.995 Q177.737 578.995 179.519 579.343 Q181.325 579.69 183.269 580.384 Z" fill="#000000" fill-rule="nonzero" fill-opacity="1" /><path clip-path="url(#clip460)" d="M128.432 325.82 Q124.821 325.82 122.992 329.385 Q121.186 332.926 121.186 340.056 Q121.186 347.162 122.992 350.727 Q124.821 354.269 128.432 354.269 Q132.066 354.269 133.872 350.727 Q135.7 347.162 135.7 340.056 Q135.7 332.926 133.872 329.385 Q132.066 325.82 128.432 325.82 M128.432 322.116 Q134.242 322.116 137.298 326.723 Q140.376 331.306 140.376 340.056 Q140.376 348.783 137.298 353.389 Q134.242 357.972 128.432 357.972 Q122.622 357.972 119.543 353.389 Q116.487 348.783 116.487 340.056 Q116.487 331.306 119.543 326.723 Q122.622 322.116 128.432 322.116 Z" fill="#000000" fill-rule="nonzero" fill-opacity="1" /><path clip-path="url(#clip460)" d="M148.594 351.421 L153.478 351.421 L153.478 357.301 L148.594 357.301 L148.594 351.421 Z" fill="#000000" fill-rule="nonzero" fill-opacity="1" /><path clip-path="url(#clip460)" d="M173.663 340.889 Q170.33 340.889 168.408 342.672 Q166.51 344.454 166.51 347.579 Q166.51 350.704 168.408 352.486 Q170.33 354.269 173.663 354.269 Q176.996 354.269 178.918 352.486 Q180.839 350.681 180.839 347.579 Q180.839 344.454 178.918 342.672 Q177.02 340.889 173.663 340.889 M168.987 338.898 Q165.978 338.158 164.288 336.097 Q162.621 334.037 162.621 331.074 Q162.621 326.931 165.561 324.523 Q168.524 322.116 173.663 322.116 Q178.825 322.116 181.765 324.523 Q184.705 326.931 184.705 331.074 Q184.705 334.037 183.015 336.097 Q181.348 338.158 178.362 338.898 Q181.742 339.685 183.617 341.977 Q185.515 344.269 185.515 347.579 Q185.515 352.602 182.436 355.287 Q179.381 357.972 173.663 357.972 Q167.945 357.972 164.867 355.287 Q161.811 352.602 161.811 347.579 Q161.811 344.269 163.709 341.977 Q165.608 339.685 168.987 338.898 M167.274 331.514 Q167.274 334.199 168.941 335.704 Q170.631 337.209 173.663 337.209 Q176.672 337.209 178.362 335.704 Q180.075 334.199 180.075 331.514 Q180.075 328.829 178.362 327.324 Q176.672 325.82 173.663 325.82 Q170.631 325.82 168.941 327.324 Q167.274 328.829 167.274 331.514 Z" fill="#000000" fill-rule="nonzero" fill-opacity="1" /><path clip-path="url(#clip460)" d="M119.149 96.4865 L126.788 96.4865 L126.788 70.1209 L118.478 71.7876 L118.478 67.5283 L126.742 65.8617 L131.418 65.8617 L131.418 96.4865 L139.057 96.4865 L139.057 100.422 L119.149 100.422 L119.149 96.4865 Z" fill="#000000" fill-rule="nonzero" fill-opacity="1" /><path clip-path="url(#clip460)" d="M148.501 94.5421 L153.385 94.5421 L153.385 100.422 L148.501 100.422 L148.501 94.5421 Z" fill="#000000" fill-rule="nonzero" fill-opacity="1" /><path clip-path="url(#clip460)" d="M173.57 68.9404 Q169.959 68.9404 168.131 72.5052 Q166.325 76.0468 166.325 83.1764 Q166.325 90.2828 168.131 93.8476 Q169.959 97.3893 173.57 97.3893 Q177.205 97.3893 179.01 93.8476 Q180.839 90.2828 180.839 83.1764 Q180.839 76.0468 179.01 72.5052 Q177.205 68.9404 173.57 68.9404 M173.57 65.2367 Q179.381 65.2367 182.436 69.8431 Q185.515 74.4264 185.515 83.1764 Q185.515 91.9032 182.436 96.5097 Q179.381 101.093 173.57 101.093 Q167.76 101.093 164.682 96.5097 Q161.626 91.9032 161.626 83.1764 Q161.626 74.4264 164.682 69.8431 Q167.76 65.2367 173.57 65.2367 Z" fill="#000000" fill-rule="nonzero" fill-opacity="1" /><path clip-path="url(#clip460)" d="M47.6188 768.196 L18.5912 759.22 L18.5912 753.81 L47.6188 762.785 L76.6464 753.81 L76.6464 759.22 L47.6188 768.196 Z" fill="#000000" fill-rule="nonzero" fill-opacity="1" /><path clip-path="url(#clip460)" d="M18.2411 734.903 L83.4259 734.903 L83.4259 740.314 L18.2411 740.314 L18.2411 734.903 Z" fill="#000000" fill-rule="nonzero" fill-opacity="1" /><path clip-path="url(#clip460)" d="M39.2479 692.731 Q35.3012 690.535 33.4233 687.479 Q31.5454 684.423 31.5454 680.286 Q31.5454 674.716 35.4603 671.692 Q39.3434 668.668 46.5366 668.668 L68.0527 668.668 L68.0527 674.557 L46.7276 674.557 Q41.6032 674.557 39.1206 676.371 Q36.638 678.185 36.638 681.909 Q36.638 686.46 39.6617 689.102 Q42.6854 691.744 47.9053 691.744 L68.0527 691.744 L68.0527 697.632 L46.7276 697.632 Q41.5714 697.632 39.1206 699.447 Q36.638 701.261 36.638 705.048 Q36.638 709.536 39.6935 712.178 Q42.7172 714.82 47.9053 714.82 L68.0527 714.82 L68.0527 720.708 L32.4048 720.708 L32.4048 714.82 L37.9429 714.82 Q34.6646 712.814 33.105 710.014 Q31.5454 707.213 31.5454 703.361 Q31.5454 699.478 33.5188 696.773 Q35.4921 694.036 39.2479 692.731 Z" fill="#000000" fill-rule="nonzero" fill-opacity="1" /><path clip-path="url(#clip460)" d="M18.2411 649.444 L83.4259 649.444 L83.4259 654.855 L18.2411 654.855 L18.2411 649.444 Z" fill="#000000" fill-rule="nonzero" fill-opacity="1" /><path clip-path="url(#clip460)" d="M47.6188 621.562 L76.6464 630.538 L76.6464 635.949 L47.6188 626.973 L18.5912 635.949 L18.5912 630.538 L47.6188 621.562 Z" fill="#000000" fill-rule="nonzero" fill-opacity="1" /><polyline clip-path="url(#clip462)" style="stroke:#009af9; stroke-linecap:round; stroke-linejoin:round; stroke-width:6; stroke-opacity:1; fill:none" points="274.973,83.9027 418.198,87.0398 561.423,94.0205 704.648,109.61 847.873,136.945 991.098,614.766 1134.32,326.249 1277.55,1144.74 1420.77,1262.25 1564,1204.59 1707.22,1281.05 1850.45,1295.16 1993.67,1305.86 2136.9,1305.67 "/>
<circle clip-path="url(#clip462)" cx="274.973" cy="83.9027" r="14.4" fill="#009af9" fill-rule="evenodd" fill-opacity="1" stroke="#000000" stroke-opacity="1" stroke-width="3.04"/>
<circle clip-path="url(#clip462)" cx="418.198" cy="87.0398" r="14.4" fill="#009af9" fill-rule="evenodd" fill-opacity="1" stroke="#000000" stroke-opacity="1" stroke-width="3.04"/>
<circle clip-path="url(#clip462)" cx="561.423" cy="94.0205" r="14.4" fill="#009af9" fill-rule="evenodd" fill-opacity="1" stroke="#000000" stroke-opacity="1" stroke-width="3.04"/>
<circle clip-path="url(#clip462)" cx="704.648" cy="109.61" r="14.4" fill="#009af9" fill-rule="evenodd" fill-opacity="1" stroke="#000000" stroke-opacity="1" stroke-width="3.04"/>
<circle clip-path="url(#clip462)" cx="847.873" cy="136.945" r="14.4" fill="#009af9" fill-rule="evenodd" fill-opacity="1" stroke="#000000" stroke-opacity="1" stroke-width="3.04"/>
<circle clip-path="url(#clip462)" cx="991.098" cy="614.766" r="14.4" fill="#009af9" fill-rule="evenodd" fill-opacity="1" stroke="#000000" stroke-opacity="1" stroke-width="3.04"/>
<circle clip-path="url(#clip462)" cx="1134.32" cy="326.249" r="14.4" fill="#009af9" fill-rule="evenodd" fill-opacity="1" stroke="#000000" stroke-opacity="1" stroke-width="3.04"/>
<circle clip-path="url(#clip462)" cx="1277.55" cy="1144.74" r="14.4" fill="#009af9" fill-rule="evenodd" fill-opacity="1" stroke="#000000" stroke-opacity="1" stroke-width="3.04"/>
<circle clip-path="url(#clip462)" cx="1420.77" cy="1262.25" r="14.4" fill="#009af9" fill-rule="evenodd" fill-opacity="1" stroke="#000000" stroke-opacity="1" stroke-width="3.04"/>
<circle clip-path="url(#clip462)" cx="1564" cy="1204.59" r="14.4" fill="#009af9" fill-rule="evenodd" fill-opacity="1" stroke="#000000" stroke-opacity="1" stroke-width="3.04"/>
<circle clip-path="url(#clip462)" cx="1707.22" cy="1281.05" r="14.4" fill="#009af9" fill-rule="evenodd" fill-opacity="1" stroke="#000000" stroke-opacity="1" stroke-width="3.04"/>
<circle clip-path="url(#clip462)" cx="1850.45" cy="1295.16" r="14.4" fill="#009af9" fill-rule="evenodd" fill-opacity="1" stroke="#000000" stroke-opacity="1" stroke-width="3.04"/>
<circle clip-path="url(#clip462)" cx="1993.67" cy="1305.86" r="14.4" fill="#009af9" fill-rule="evenodd" fill-opacity="1" stroke="#000000" stroke-opacity="1" stroke-width="3.04"/>
<circle clip-path="url(#clip462)" cx="2136.9" cy="1305.67" r="14.4" fill="#009af9" fill-rule="evenodd" fill-opacity="1" stroke="#000000" stroke-opacity="1" stroke-width="3.04"/>
<polyline clip-path="url(#clip462)" style="stroke:#ff0000; stroke-linecap:round; stroke-linejoin:round; stroke-width:4; stroke-opacity:1; fill:none" stroke-dasharray="16, 10" points="1183.87,2637.78 1183.87,-1248.03 "/>
<path clip-path="url(#clip460)" d="M1680.25 245.94 L2126.97 245.94 L2126.97 90.4198 L1680.25 90.4198  Z" fill="#ffffff" fill-rule="evenodd" fill-opacity="1"/>
<polyline clip-path="url(#clip460)" style="stroke:#000000; stroke-linecap:round; stroke-linejoin:round; stroke-width:4; stroke-opacity:1; fill:none" points="1680.25,245.94 2126.97,245.94 2126.97,90.4198 1680.25,90.4198 1680.25,245.94 "/>
<polyline clip-path="url(#clip460)" style="stroke:#009af9; stroke-linecap:round; stroke-linejoin:round; stroke-width:6; stroke-opacity:1; fill:none" points="1702.18,142.26 1833.76,142.26 "/>
<circle clip-path="url(#clip460)" cx="1767.97" cy="142.26" r="18.2745" fill="#009af9" fill-rule="evenodd" fill-opacity="1" stroke="#000000" stroke-opacity="1" stroke-width="4.32356"/>
<path clip-path="url(#clip460)" d="M1855.69 144.679 L1862.22 123.568 L1866.15 123.568 L1859.62 144.679 L1866.15 165.79 L1862.22 165.79 L1855.69 144.679 Z" fill="#000000" fill-rule="nonzero" fill-opacity="1" /><path clip-path="url(#clip460)" d="M1879.9 123.313 L1879.9 170.72 L1875.97 170.72 L1875.97 123.313 L1879.9 123.313 Z" fill="#000000" fill-rule="nonzero" fill-opacity="1" /><path clip-path="url(#clip460)" d="M1910.57 138.591 Q1912.17 135.72 1914.39 134.355 Q1916.61 132.989 1919.62 132.989 Q1923.67 132.989 1925.87 135.836 Q1928.07 138.66 1928.07 143.892 L1928.07 159.54 L1923.79 159.54 L1923.79 144.031 Q1923.79 140.304 1922.47 138.498 Q1921.15 136.693 1918.44 136.693 Q1915.13 136.693 1913.21 138.892 Q1911.29 141.091 1911.29 144.887 L1911.29 159.54 L1907.01 159.54 L1907.01 144.031 Q1907.01 140.281 1905.69 138.498 Q1904.37 136.693 1901.61 136.693 Q1898.35 136.693 1896.43 138.915 Q1894.51 141.114 1894.51 144.887 L1894.51 159.54 L1890.22 159.54 L1890.22 133.614 L1894.51 133.614 L1894.51 137.642 Q1895.97 135.257 1898 134.123 Q1900.04 132.989 1902.84 132.989 Q1905.66 132.989 1907.63 134.424 Q1909.62 135.859 1910.57 138.591 Z" fill="#000000" fill-rule="nonzero" fill-opacity="1" /><path clip-path="url(#clip460)" d="M1942.05 123.313 L1942.05 170.72 L1938.12 170.72 L1938.12 123.313 L1942.05 123.313 Z" fill="#000000" fill-rule="nonzero" fill-opacity="1" /><path clip-path="url(#clip460)" d="M1962.33 144.679 L1955.8 165.79 L1951.87 165.79 L1958.4 144.679 L1951.87 123.568 L1955.8 123.568 L1962.33 144.679 Z" fill="#000000" fill-rule="nonzero" fill-opacity="1" /><polyline clip-path="url(#clip460)" style="stroke:#ff0000; stroke-linecap:round; stroke-linejoin:round; stroke-width:4; stroke-opacity:1; fill:none" stroke-dasharray="16, 10" points="1702.18,194.1 1833.76,194.1 "/>
<path clip-path="url(#clip460)" d="M1855.69 176.82 L1884.92 176.82 L1884.92 180.755 L1872.66 180.755 L1872.66 211.38 L1867.96 211.38 L1867.96 180.755 L1855.69 180.755 L1855.69 176.82 Z" fill="#000000" fill-rule="nonzero" fill-opacity="1" /><path clip-path="url(#clip460)" d="M1899.85 186.449 L1899.85 190.431 Q1898.05 189.435 1896.22 188.949 Q1894.41 188.44 1892.56 188.44 Q1888.42 188.44 1886.13 191.079 Q1883.84 193.695 1883.84 198.44 Q1883.84 203.185 1886.13 205.824 Q1888.42 208.44 1892.56 208.44 Q1894.41 208.44 1896.22 207.954 Q1898.05 207.445 1899.85 206.449 L1899.85 210.384 Q1898.07 211.218 1896.15 211.634 Q1894.25 212.051 1892.1 212.051 Q1886.24 212.051 1882.79 208.371 Q1879.35 204.69 1879.35 198.44 Q1879.35 192.097 1882.82 188.463 Q1886.31 184.829 1892.38 184.829 Q1894.35 184.829 1896.22 185.246 Q1898.1 185.639 1899.85 186.449 Z" fill="#000000" fill-rule="nonzero" fill-opacity="1" /><path clip-path="url(#clip460)" d="M1952.56 196.959 L1952.56 201.102 Q1950.13 202.908 1948.05 203.718 Q1945.99 204.505 1943.74 204.505 Q1941.2 204.505 1937.82 203.139 Q1937.59 203.046 1937.42 202.977 Q1937.28 202.931 1936.94 202.792 Q1933.35 201.38 1931.17 201.38 Q1929.14 201.38 1927.15 202.259 Q1925.16 203.139 1922.89 205.083 L1922.89 200.94 Q1925.32 199.134 1927.38 198.347 Q1929.46 197.537 1931.71 197.537 Q1934.25 197.537 1937.66 198.903 Q1937.91 199.019 1938.03 199.065 Q1938.16 199.111 1938.51 199.25 Q1942.1 200.662 1944.28 200.662 Q1946.27 200.662 1948.21 199.806 Q1950.18 198.926 1952.56 196.959 M1952.56 187.954 L1952.56 192.074 Q1950.13 193.903 1948.05 194.713 Q1945.99 195.5 1943.74 195.5 Q1941.2 195.5 1937.82 194.134 Q1937.59 194.042 1937.42 193.972 Q1937.28 193.926 1936.94 193.787 Q1933.35 192.375 1931.17 192.375 Q1929.14 192.375 1927.15 193.255 Q1925.16 194.134 1922.89 196.056 L1922.89 191.935 Q1925.32 190.13 1927.38 189.343 Q1929.46 188.533 1931.71 188.533 Q1934.25 188.533 1937.66 189.898 Q1937.89 189.991 1938 190.037 Q1938.16 190.107 1938.51 190.246 Q1942.1 191.658 1944.28 191.658 Q1946.27 191.658 1948.21 190.801 Q1950.18 189.922 1952.56 187.954 Z" fill="#000000" fill-rule="nonzero" fill-opacity="1" /><path clip-path="url(#clip460)" d="M1981.75 207.445 L1998.07 207.445 L1998.07 211.38 L1976.13 211.38 L1976.13 207.445 Q1978.79 204.69 1983.37 200.06 Q1987.98 195.408 1989.16 194.065 Q1991.4 191.542 1992.28 189.806 Q1993.19 188.047 1993.19 186.357 Q1993.19 183.602 1991.24 181.866 Q1989.32 180.13 1986.22 180.13 Q1984.02 180.13 1981.57 180.894 Q1979.14 181.658 1976.36 183.209 L1976.36 178.486 Q1979.18 177.352 1981.64 176.773 Q1984.09 176.195 1986.13 176.195 Q1991.5 176.195 1994.69 178.88 Q1997.89 181.565 1997.89 186.056 Q1997.89 188.185 1997.08 190.107 Q1996.29 192.005 1994.18 194.597 Q1993.6 195.269 1990.5 198.486 Q1987.4 201.681 1981.75 207.445 Z" fill="#000000" fill-rule="nonzero" fill-opacity="1" /><path clip-path="url(#clip460)" d="M2007.89 205.5 L2012.77 205.5 L2012.77 211.38 L2007.89 211.38 L2007.89 205.5 Z" fill="#000000" fill-rule="nonzero" fill-opacity="1" /><path clip-path="url(#clip460)" d="M2026.98 207.445 L2043.3 207.445 L2043.3 211.38 L2021.36 211.38 L2021.36 207.445 Q2024.02 204.69 2028.6 200.06 Q2033.21 195.408 2034.39 194.065 Q2036.64 191.542 2037.52 189.806 Q2038.42 188.047 2038.42 186.357 Q2038.42 183.602 2036.47 181.866 Q2034.55 180.13 2031.45 180.13 Q2029.25 180.13 2026.8 180.894 Q2024.37 181.658 2021.59 183.209 L2021.59 178.486 Q2024.41 177.352 2026.87 176.773 Q2029.32 176.195 2031.36 176.195 Q2036.73 176.195 2039.92 178.88 Q2043.12 181.565 2043.12 186.056 Q2043.12 188.185 2042.31 190.107 Q2041.52 192.005 2039.41 194.597 Q2038.84 195.269 2035.73 198.486 Q2032.63 201.681 2026.98 207.445 Z" fill="#000000" fill-rule="nonzero" fill-opacity="1" /><path clip-path="url(#clip460)" d="M2063.7 192.236 Q2060.55 192.236 2058.7 194.389 Q2056.87 196.542 2056.87 200.292 Q2056.87 204.019 2058.7 206.195 Q2060.55 208.347 2063.7 208.347 Q2066.84 208.347 2068.67 206.195 Q2070.52 204.019 2070.52 200.292 Q2070.52 196.542 2068.67 194.389 Q2066.84 192.236 2063.7 192.236 M2072.98 177.584 L2072.98 181.843 Q2071.22 181.01 2069.41 180.57 Q2067.63 180.13 2065.87 180.13 Q2061.24 180.13 2058.79 183.255 Q2056.36 186.38 2056.01 192.699 Q2057.38 190.685 2059.44 189.621 Q2061.5 188.533 2063.97 188.533 Q2069.18 188.533 2072.19 191.704 Q2075.22 194.852 2075.22 200.292 Q2075.22 205.616 2072.08 208.833 Q2068.93 212.051 2063.7 212.051 Q2057.7 212.051 2054.53 207.468 Q2051.36 202.861 2051.36 194.134 Q2051.36 185.94 2055.25 181.079 Q2059.14 176.195 2065.69 176.195 Q2067.45 176.195 2069.23 176.542 Q2071.03 176.889 2072.98 177.584 Z" fill="#000000" fill-rule="nonzero" fill-opacity="1" /><path clip-path="url(#clip460)" d="M2083.42 210.662 L2083.42 206.403 Q2085.18 207.236 2086.98 207.676 Q2088.79 208.116 2090.52 208.116 Q2095.15 208.116 2097.58 205.014 Q2100.04 201.889 2100.39 195.547 Q2099.04 197.537 2096.98 198.602 Q2094.92 199.667 2092.42 199.667 Q2087.24 199.667 2084.21 196.542 Q2081.2 193.394 2081.2 187.954 Q2081.2 182.63 2084.34 179.412 Q2087.49 176.195 2092.72 176.195 Q2098.72 176.195 2101.87 180.801 Q2105.04 185.385 2105.04 194.134 Q2105.04 202.306 2101.15 207.19 Q2097.28 212.051 2090.73 212.051 Q2088.97 212.051 2087.17 211.704 Q2085.36 211.357 2083.42 210.662 M2092.72 196.009 Q2095.87 196.009 2097.7 193.857 Q2099.55 191.704 2099.55 187.954 Q2099.55 184.227 2097.7 182.074 Q2095.87 179.898 2092.72 179.898 Q2089.58 179.898 2087.72 182.074 Q2085.9 184.227 2085.9 187.954 Q2085.9 191.704 2087.72 193.857 Q2089.58 196.009 2092.72 196.009 Z" fill="#000000" fill-rule="nonzero" fill-opacity="1" /></svg>
