<?xml version="1.0" encoding="utf-8"?>
<svg xmlns="http://www.w3.org/2000/svg" xmlns:xlink="http://www.w3.org/1999/xlink" width="420" height="360" viewBox="0 0 1680 1440">
<defs>
  <clipPath id="clip830">
    <rect x="0" y="0" width="1680" height="1440"/>
  </clipPath>
</defs>
<path clip-path="url(#clip830)" d="M0 1440 L1680 1440 L1680 0 L0 0  Z" fill="#ffffff" fill-rule="evenodd" fill-opacity="1"/>
<defs>
  <clipPath id="clip831">
    <rect x="210" y="140" width="1423" height="1102"/>
  </clipPath>
</defs>
<path clip-path="url(#clip830)" d="M248.512 1241.33 L1632.76 1241.33 L1632.76 140.752 L248.512 140.752  Z" fill="#ffffff" fill-rule="evenodd" fill-opacity="1"/>
<defs>
  <clipPath id="clip832">
    <rect x="248" y="140" width="1385" height="1102"/>
  </clipPath>
</defs>
<polyline clip-path="url(#clip832)" style="stroke:#000000; stroke-linecap:round; stroke-linejoin:round; stroke-width:2; stroke-opacity:0.1; fill:none" points="548.414,1241.33 548.414,140.752 "/>
<polyline clip-path="url(#clip832)" style="stroke:#000000; stroke-linecap:round; stroke-linejoin:round; stroke-width:2; stroke-opacity:0.1; fill:none" points="866.567,1241.33 866.567,140.752 "/>
<polyline clip-path="url(#clip832)" style="stroke:#000000; stroke-linecap:round; stroke-linejoin:round; stroke-width:2; stroke-opacity:0.1; fill:none" points="1184.72,1241.33 1184.72,140.752 "/>
<polyline clip-path="url(#clip832)" style="stroke:#000000; stroke-linecap:round; stroke-linejoin:round; stroke-width:2; stroke-opacity:0.1; fill:none" points="1502.87,1241.33 1502.87,140.752 "/>
<polyline clip-path="url(#clip832)" style="stroke:#000000; stroke-linecap:round; stroke-linejoin:round; stroke-width:2; stroke-opacity:0.1; fill:none" points="248.512,1166.62 1632.76,1166.62 "/>
<polyline clip-path="url(#clip832)" style="stroke:#000000; stroke-linecap:round; stroke-linejoin:round; stroke-width:2; stroke-opacity:0.1; fill:none" points="248.512,887.724 1632.76,887.724 "/>
<polyline clip-path="url(#clip832)" style="stroke:#000000; stroke-linecap:round; stroke-linejoin:round; stroke-width:2; stroke-opacity:0.1; fill:none" points="248.512,608.832 1632.76,608.832 "/>
<polyline clip-path="url(#clip832)" style="stroke:#000000; stroke-linecap:round; stroke-linejoin:round; stroke-width:2; stroke-opacity:0.1; fill:none" points="248.512,329.941 1632.76,329.941 "/>
<polyline clip-path="url(#clip830)" style="stroke:#000000; stroke-linecap:round; stroke-linejoin:round; stroke-width:4; stroke-opacity:1; fill:none" points="248.512,1241.33 1632.76,1241.33 "/>
<polyline clip-path="url(#clip830)" style="stroke:#000000; stroke-linecap:round; stroke-linejoin:round; stroke-width:4; stroke-opacity:1; fill:none" points="548.414,1241.33 548.414,1222.43 "/>
<polyline clip-path="url(#clip830)" style="stroke:#000000; stroke-linecap:round; stroke-linejoin:round; stroke-width:4; stroke-opacity:1; fill:none" points="866.567,1241.33 866.567,1222.43 "/>
<polyline clip-path="url(#clip830)" style="stroke:#000000; stroke-linecap:round; stroke-linejoin:round; stroke-width:4; stroke-opacity:1; fill:none" points="1184.72,1241.33 1184.72,1222.43 "/>
<polyline clip-path="url(#clip830)" style="stroke:#000000; stroke-linecap:round; stroke-linejoin:round; stroke-width:4; stroke-opacity:1; fill:none" points="1502.87,1241.33 1502.87,1222.43 "/>
<path clip-path="url(#clip830)" d="M518.055 1281.14 L547.731 1281.14 L547.731 1285.07 L518.055 1285.07 L518.055 1281.14 Z" fill="#000000" fill-rule="nonzero" fill-opacity="1" /><path clip-path="url(#clip830)" d="M557.87 1263.41 L576.226 1263.41 L576.226 1267.34 L562.152 1267.34 L562.152 1275.82 Q563.171 1275.47 564.189 1275.31 Q565.208 1275.12 566.226 1275.12 Q572.013 1275.12 575.393 1278.29 Q578.773 1281.46 578.773 1286.88 Q578.773 1292.46 575.3 1295.56 Q571.828 1298.64 565.509 1298.64 Q563.333 1298.64 561.064 1298.27 Q558.819 1297.9 556.412 1297.16 L556.412 1292.46 Q558.495 1293.59 560.717 1294.15 Q562.939 1294.7 565.416 1294.7 Q569.421 1294.7 571.759 1292.6 Q574.097 1290.49 574.097 1286.88 Q574.097 1283.27 571.759 1281.16 Q569.421 1279.06 565.416 1279.06 Q563.541 1279.06 561.666 1279.47 Q559.814 1279.89 557.87 1280.77 L557.87 1263.41 Z" fill="#000000" fill-rule="nonzero" fill-opacity="1" /><path clip-path="url(#clip830)" d="M866.567 1266.49 Q862.956 1266.49 861.127 1270.05 Q859.321 1273.59 859.321 1280.72 Q859.321 1287.83 861.127 1291.39 Q862.956 1294.94 866.567 1294.94 Q870.201 1294.94 872.007 1291.39 Q873.835 1287.83 873.835 1280.72 Q873.835 1273.59 872.007 1270.05 Q870.201 1266.49 866.567 1266.49 M866.567 1262.78 Q872.377 1262.78 875.432 1267.39 Q878.511 1271.97 878.511 1280.72 Q878.511 1289.45 875.432 1294.06 Q872.377 1298.64 866.567 1298.64 Q860.757 1298.64 857.678 1294.06 Q854.622 1289.45 854.622 1280.72 Q854.622 1271.97 857.678 1267.39 Q860.757 1262.78 866.567 1262.78 Z" fill="#000000" fill-rule="nonzero" fill-opacity="1" /><path clip-path="url(#clip830)" d="M1175 1263.41 L1193.35 1263.41 L1193.35 1267.34 L1179.28 1267.34 L1179.28 1275.82 Q1180.3 1275.47 1181.32 1275.31 Q1182.34 1275.12 1183.35 1275.12 Q1189.14 1275.12 1192.52 1278.29 Q1195.9 1281.46 1195.9 1286.88 Q1195.9 1292.46 1192.43 1295.56 Q1188.96 1298.64 1182.64 1298.64 Q1180.46 1298.64 1178.19 1298.27 Q1175.95 1297.9 1173.54 1297.16 L1173.54 1292.46 Q1175.62 1293.59 1177.84 1294.15 Q1180.07 1294.7 1182.54 1294.7 Q1186.55 1294.7 1188.89 1292.6 Q1191.22 1290.49 1191.22 1286.88 Q1191.22 1283.27 1188.89 1281.16 Q1186.55 1279.06 1182.54 1279.06 Q1180.67 1279.06 1178.79 1279.47 Q1176.94 1279.89 1175 1280.77 L1175 1263.41 Z" fill="#000000" fill-rule="nonzero" fill-opacity="1" /><path clip-path="url(#clip830)" d="M1477.56 1294.03 L1485.2 1294.03 L1485.2 1267.67 L1476.89 1269.33 L1476.89 1265.08 L1485.15 1263.41 L1489.83 1263.41 L1489.83 1294.03 L1497.47 1294.03 L1497.47 1297.97 L1477.56 1297.97 L1477.56 1294.03 Z" fill="#000000" fill-rule="nonzero" fill-opacity="1" /><path clip-path="url(#clip830)" d="M1516.91 1266.49 Q1513.3 1266.49 1511.47 1270.05 Q1509.67 1273.59 1509.67 1280.72 Q1509.67 1287.83 1511.47 1291.39 Q1513.3 1294.94 1516.91 1294.94 Q1520.55 1294.94 1522.35 1291.39 Q1524.18 1287.83 1524.18 1280.72 Q1524.18 1273.59 1522.35 1270.05 Q1520.55 1266.49 1516.91 1266.49 M1516.91 1262.78 Q1522.72 1262.78 1525.78 1267.39 Q1528.86 1271.97 1528.86 1280.72 Q1528.86 1289.45 1525.78 1294.06 Q1522.72 1298.64 1516.91 1298.64 Q1511.1 1298.64 1508.02 1294.06 Q1504.97 1289.45 1504.97 1280.72 Q1504.97 1271.97 1508.02 1267.39 Q1511.1 1262.78 1516.91 1262.78 Z" fill="#000000" fill-rule="nonzero" fill-opacity="1" /><path clip-path="url(#clip830)" d="M957.248 1339.74 L944.358 1357.09 L957.917 1375.39 L951.01 1375.39 L940.634 1361.39 L930.258 1375.39 L923.351 1375.39 L937.196 1356.74 L924.529 1339.74 L931.435 1339.74 L940.888 1352.44 L950.342 1339.74 L957.248 1339.74 Z" fill="#000000" fill-rule="nonzero" fill-opacity="1" /><polyline clip-path="url(#clip830)" style="stroke:#000000; stroke-linecap:round; stroke-linejoin:round; stroke-width:4; stroke-opacity:1; fill:none" points="248.512,1241.33 248.512,140.752 "/>
<polyline clip-path="url(#clip830)" style="stroke:#000000; stroke-linecap:round; stroke-linejoin:round; stroke-width:4; stroke-opacity:1; fill:none" points="248.512,1166.62 267.409,1166.62 "/>
<polyline clip-path="url(#clip830)" style="stroke:#000000; stroke-linecap:round; stroke-linejoin:round; stroke-width:4; stroke-opacity:1; fill:none" points="248.512,887.724 267.409,887.724 "/>
<polyline clip-path="url(#clip830)" style="stroke:#000000; stroke-linecap:round; stroke-linejoin:round; stroke-width:4; stroke-opacity:1; fill:none" points="248.512,608.832 267.409,608.832 "/>
<polyline clip-path="url(#clip830)" style="stroke:#000000; stroke-linecap:round; stroke-linejoin:round; stroke-width:4; stroke-opacity:1; fill:none" points="248.512,329.941 267.409,329.941 "/>
<path clip-path="url(#clip830)" d="M131.437 1167.07 L161.113 1167.07 L161.113 1171 L131.437 1171 L131.437 1167.07 Z" fill="#000000" fill-rule="nonzero" fill-opacity="1" /><path clip-path="url(#clip830)" d="M172.016 1179.96 L179.655 1179.96 L179.655 1153.59 L171.344 1155.26 L171.344 1151 L179.608 1149.34 L184.284 1149.34 L184.284 1179.96 L191.923 1179.96 L191.923 1183.9 L172.016 1183.9 L172.016 1179.96 Z" fill="#000000" fill-rule="nonzero" fill-opacity="1" /><path clip-path="url(#clip830)" d="M211.367 1152.41 Q207.756 1152.41 205.928 1155.98 Q204.122 1159.52 204.122 1166.65 Q204.122 1173.76 205.928 1177.32 Q207.756 1180.86 211.367 1180.86 Q215.002 1180.86 216.807 1177.32 Q218.636 1173.76 218.636 1166.65 Q218.636 1159.52 216.807 1155.98 Q215.002 1152.41 211.367 1152.41 M211.367 1148.71 Q217.178 1148.71 220.233 1153.32 Q223.312 1157.9 223.312 1166.65 Q223.312 1175.38 220.233 1179.98 Q217.178 1184.57 211.367 1184.57 Q205.557 1184.57 202.479 1179.98 Q199.423 1175.38 199.423 1166.65 Q199.423 1157.9 202.479 1153.32 Q205.557 1148.71 211.367 1148.71 Z" fill="#000000" fill-rule="nonzero" fill-opacity="1" /><path clip-path="url(#clip830)" d="M162.595 888.175 L192.27 888.175 L192.27 892.11 L162.595 892.11 L162.595 888.175 Z" fill="#000000" fill-rule="nonzero" fill-opacity="1" /><path clip-path="url(#clip830)" d="M202.409 870.444 L220.766 870.444 L220.766 874.379 L206.692 874.379 L206.692 882.851 Q207.71 882.504 208.729 882.342 Q209.747 882.157 210.766 882.157 Q216.553 882.157 219.932 885.328 Q223.312 888.499 223.312 893.916 Q223.312 899.495 219.84 902.596 Q216.367 905.675 210.048 905.675 Q207.872 905.675 205.604 905.305 Q203.358 904.934 200.951 904.194 L200.951 899.495 Q203.034 900.629 205.256 901.184 Q207.479 901.74 209.955 901.74 Q213.96 901.74 216.298 899.634 Q218.636 897.527 218.636 893.916 Q218.636 890.305 216.298 888.198 Q213.96 886.092 209.955 886.092 Q208.08 886.092 206.205 886.509 Q204.354 886.925 202.409 887.805 L202.409 870.444 Z" fill="#000000" fill-rule="nonzero" fill-opacity="1" /><path clip-path="url(#clip830)" d="M211.367 594.631 Q207.756 594.631 205.928 598.196 Q204.122 601.737 204.122 608.867 Q204.122 615.973 205.928 619.538 Q207.756 623.08 211.367 623.08 Q215.002 623.08 216.807 619.538 Q218.636 615.973 218.636 608.867 Q218.636 601.737 216.807 598.196 Q215.002 594.631 211.367 594.631 M211.367 590.927 Q217.178 590.927 220.233 595.534 Q223.312 600.117 223.312 608.867 Q223.312 617.594 220.233 622.2 Q217.178 626.784 211.367 626.784 Q205.557 626.784 202.479 622.2 Q199.423 617.594 199.423 608.867 Q199.423 600.117 202.479 595.534 Q205.557 590.927 211.367 590.927 Z" fill="#000000" fill-rule="nonzero" fill-opacity="1" /><path clip-path="url(#clip830)" d="M202.409 312.661 L220.766 312.661 L220.766 316.596 L206.692 316.596 L206.692 325.068 Q207.71 324.721 208.729 324.559 Q209.747 324.374 210.766 324.374 Q216.553 324.374 219.932 327.545 Q223.312 330.716 223.312 336.133 Q223.312 341.711 219.84 344.813 Q216.367 347.892 210.048 347.892 Q207.872 347.892 205.604 347.522 Q203.358 347.151 200.951 346.411 L200.951 341.711 Q203.034 342.846 205.256 343.401 Q207.479 343.957 209.955 343.957 Q213.96 343.957 216.298 341.85 Q218.636 339.744 218.636 336.133 Q218.636 332.522 216.298 330.415 Q213.96 328.309 209.955 328.309 Q208.08 328.309 206.205 328.725 Q204.354 329.142 202.409 330.022 L202.409 312.661 Z" fill="#000000" fill-rule="nonzero" fill-opacity="1" /><path clip-path="url(#clip830)" d="M95.2915 689.353 Q101.657 691.836 103.599 694.191 Q105.54 696.547 105.54 700.493 L105.54 705.172 L100.639 705.172 L100.639 701.735 Q100.639 699.316 99.4928 697.979 Q98.347 696.642 94.082 695.019 L91.4084 693.968 L56.3333 708.387 L56.3333 702.18 L84.2151 691.04 L56.3333 679.9 L56.3333 673.694 L95.2915 689.353 Z" fill="#000000" fill-rule="nonzero" fill-opacity="1" /><path clip-path="url(#clip830)" d="M916.369 27.2059 L899.963 49.2833 L917.22 72.576 L908.429 72.576 L895.223 54.752 L882.017 72.576 L873.227 72.576 L890.848 48.8377 L874.726 27.2059 L883.516 27.2059 L895.547 43.369 L907.578 27.2059 L916.369 27.2059 Z" fill="#000000" fill-rule="nonzero" fill-opacity="1" /><path clip-path="url(#clip830)" d="M923.985 46.9338 L957.364 46.9338 L957.364 52.7671 L923.985 52.7671 L923.985 46.9338 Z" fill="#000000" fill-rule="nonzero" fill-opacity="1" /><path clip-path="url(#clip830)" d="M988.11 76.7889 Q984.951 84.8907 981.953 87.3618 Q978.955 89.8329 973.932 89.8329 L967.977 89.8329 L967.977 83.5945 L972.352 83.5945 Q975.431 83.5945 977.133 82.1361 Q978.834 80.6778 980.9 75.2496 L982.237 71.8468 L963.886 27.2059 L971.785 27.2059 L985.963 62.6918 L1000.14 27.2059 L1008.04 27.2059 L988.11 76.7889 Z" fill="#000000" fill-rule="nonzero" fill-opacity="1" /><polyline clip-path="url(#clip832)" style="stroke:#009af9; stroke-linecap:round; stroke-linejoin:round; stroke-width:1.6; stroke-opacity:1; fill:none" points="930.197,553.054 927.693,551.735 925.264,550.453 922.902,549.209 920.601,548.001 918.353,546.828 916.154,545.689 913.996,544.584 911.874,543.512 909.785,542.472 907.724,541.465 905.687,540.49 903.67,539.547 901.671,538.635 899.687,537.754 897.714,536.905 895.752,536.087 893.797,535.299 891.848,534.543 889.905,533.819 887.964,533.125 886.026,532.463 884.089,531.832 882.152,531.232 880.215,530.665 878.277,530.129 876.338,529.624 874.398,529.152 872.456,528.712 870.512,528.305 868.566,527.93 866.618,527.588 864.669,527.278 862.718,527.002 860.766,526.759 858.812,526.549 856.859,526.372 854.905,526.229 852.951,526.12 850.998,526.045 849.046,526.004 847.095,525.997 845.147,526.024 843.202,526.086 841.261,526.181 839.323,526.312 837.39,526.477 835.463,526.676 833.541,526.91 831.626,527.179 829.719,527.482 827.82,527.82 825.93,528.192 824.049,528.6 822.179,529.041 820.32,529.518 818.472,530.028 816.637,530.574 814.816,531.153 813.008,531.767 811.216,532.414 809.438,533.096 807.678,533.812 805.934,534.561 804.208,535.343 802.5,536.159 800.812,537.008 799.143,537.89 797.496,538.805 795.87,539.752 794.266,540.731 792.685,541.742 791.128,542.785 789.595,543.859 788.087,544.964 786.604,546.1 785.149,547.266 783.72,548.462 782.319,549.688 780.947,550.943 779.603,552.227 778.29,553.539 777.007,554.879 775.755,556.247 774.534,557.643 773.346,559.065 772.191,560.513 771.069,561.987 769.981,563.487 768.928,565.011 767.91,566.56 766.927,568.132 765.981,569.728 765.072,571.346 764.2,572.986 763.366,574.648 762.569,576.331 761.812,578.035 761.094,579.758 760.415,581.5 759.777,583.261 759.179,585.04 758.622,586.836 758.106,588.649 757.631,590.477 757.199,592.321 756.808,594.18 756.461,596.052 756.156,597.938 755.895,599.836 755.677,601.746 755.503,603.668 755.373,605.599 755.287,607.54 755.245,609.491 755.248,611.449 755.296,613.415 755.389,615.387 755.526,617.365 755.709,619.348 755.938,621.336 756.212,623.327 756.531,625.321 756.895,627.317 757.306,629.314 757.762,631.312 758.263,633.309 758.81,635.305 759.402,637.299 760.04,639.29 760.723,641.277 761.452,643.261 762.226,645.238 763.044,647.21 763.908,649.175 764.816,651.132 765.769,653.081 766.766,655.02 767.807,656.95 768.892,658.868 770.021,660.774 771.192,662.668 772.407,664.549 773.665,666.415 774.965,668.267 776.307,670.103 777.69,671.922 779.115,673.723 780.58,675.507 782.086,677.272 783.632,679.016 785.217,680.741 786.842,682.444 788.504,684.125 790.205,685.783 791.943,687.418 793.719,689.028 795.53,690.613 797.377,692.173 799.26,693.706 801.177,695.212 803.127,696.69 805.112,698.139 807.128,699.559 809.177,700.949 811.257,702.308 813.367,703.636 815.507,704.931 817.676,706.194 819.873,707.424 822.098,708.62 824.35,709.782 826.627,710.908 828.93,711.999 831.257,713.053 833.607,714.07 835.98,715.05 838.374,715.992 840.79,716.896 843.225,717.76 845.68,718.586 848.152,719.371 850.642,720.115 853.148,720.819 855.67,721.482 858.206,722.102 860.755,722.681 863.317,723.217 865.89,723.71 868.474,724.159 871.067,724.565 873.669,724.927 876.278,725.245 878.894,725.518 881.515,725.746 884.14,725.929 886.769,726.067 889.401,726.159 892.033,726.205 894.666,726.205 897.298,726.158 899.928,726.066 902.555,725.926 905.178,725.74 907.795,725.508 910.407,725.228 913.012,724.902 915.608,724.528 918.194,724.108 920.771,723.64 923.335,723.126 925.887,722.564 928.425,721.955 930.949,721.3 933.457,720.598 935.947,719.849 938.42,719.053 940.874,718.211 943.307,717.323 945.719,716.388 948.109,715.408 950.476,714.382 952.819,713.31 955.136,712.193 957.426,711.032 959.689,709.825 961.924,708.574 964.129,707.28 966.304,705.941 968.447,704.559 970.558,703.135 972.636,701.668 974.679,700.158 976.687,698.608 978.658,697.016 980.592,695.383 982.488,693.71 984.345,691.997 986.162,690.246 987.938,688.455 989.673,686.627 991.364,684.761 993.013,682.859 994.617,680.92 996.176,678.946 997.689,676.937 999.156,674.893 1000.57,672.816 1001.95,670.707 1003.27,668.565 1004.54,666.391 1005.76,664.188 1006.93,661.954 1008.05,659.691 1009.12,657.4 1010.13,655.081 1011.09,652.736 1012,650.365 1012.85,647.969 1013.65,645.549 1014.39,643.106 1015.07,640.641 1015.7,638.154 1016.27,635.647 1016.78,633.12 1017.23,630.574 1017.63,628.011 1017.96,625.431 1018.24,622.836 1018.46,620.226 1018.61,617.602 1018.71,614.965 1018.75,612.316 1018.72,609.657 1018.64,606.988 1018.49,604.31 1018.28,601.625 1018.01,598.933 1017.68,596.236 1017.29,593.534 1016.83,590.829 1016.32,588.122 1015.74,585.413 1015.1,582.704 1014.4,579.996 1013.63,577.291 1012.81,574.588 1011.92,571.889 1010.97,569.196 1009.96,566.509 1008.89,563.83 1007.76,561.159 1006.56,558.498 1005.31,555.848 1004,553.21 1002.62,550.585 1001.19,547.974 999.699,545.378 998.149,542.798 996.539,540.236 994.872,537.692 993.147,535.168 991.366,532.665 989.527,530.183 987.633,527.725 985.683,525.29 983.678,522.88 981.619,520.496 979.507,518.14 977.341,515.811 975.123,513.512 972.853,511.242 970.532,509.004 968.161,506.799 965.741,504.626 963.272,502.488 960.755,500.385 958.191,498.318 955.58,496.288 952.925,494.297 950.225,492.344 947.481,490.432 944.695,488.56 941.867,486.731 938.998,484.943 936.09,483.2 933.143,481.501 930.158,479.847 927.137,478.24 924.08,476.679 920.989,475.166 917.864,473.702 914.707,472.287 911.519,470.921 908.301,469.607 905.054,468.345 901.779,467.134 898.478,465.977 895.152,464.873 891.802,463.823 888.429,462.828 885.034,461.888 881.62,461.005 878.186,460.178 874.735,459.408 871.267,458.697 867.784,458.043 864.288,457.448 860.779,456.912 857.259,456.435 853.729,456.019 850.191,455.663 846.647,455.368 843.096,455.134 839.542,454.962 835.985,454.851 832.426,454.802 828.868,454.816 825.311,454.892 821.756,455.031 818.207,455.233 814.663,455.498 811.126,455.826 807.597,456.218 804.079,456.673 800.573,457.192 797.079,457.774 793.6,458.42 790.136,459.129 786.69,459.902 783.262,460.738 779.855,461.638 776.469,462.601 773.106,463.627 769.768,464.717 766.456,465.869 763.171,467.083 759.914,468.36 756.688,469.699 753.494,471.1 750.332,472.562 747.205,474.085 744.113,475.669 741.058,477.313 738.042,479.017 735.066,480.781 732.131,482.604 729.238,484.485 726.39,486.424 723.586,488.421 720.829,490.474 718.119,492.584 715.459,494.749 712.848,496.969 710.289,499.244 707.783,501.572 705.331,503.953 702.934,506.386 700.593,508.871 698.31,511.406 696.085,513.991 693.92,516.625 691.815,519.307 689.773,522.036 687.793,524.811 685.878,527.632 684.027,530.497 682.242,533.405 680.525,536.356 678.875,539.348 677.294,542.381 675.783,545.453 674.343,548.563 672.974,551.711 671.677,554.894 670.454,558.112 669.304,561.364 668.229,564.649 667.23,567.965 666.306,571.311 665.459,574.686 664.69,578.089 663.999,581.519 663.386,584.973 662.852,588.452 662.398,591.953 662.025,595.475 661.731,599.017 661.519,602.578 661.389,606.157 661.34,609.751 661.373,613.36 661.489,616.981 661.688,620.615 661.97,624.259 662.335,627.912 662.784,631.572 663.316,635.239 663.931,638.91 664.631,642.584 665.414,646.26 666.282,649.936 667.233,653.611 668.267,657.283 669.386,660.951 670.588,664.614 671.874,668.269 673.243,671.915 674.695,675.552 676.229,679.177 677.846,682.788 679.546,686.385 681.327,689.966 683.19,693.529 685.133,697.073 687.157,700.596 689.262,704.097 691.445,707.575 693.708,711.027 696.049,714.453 698.468,717.85 700.964,721.219 703.536,724.556 706.184,727.86 708.907,731.131 711.703,734.366 714.574,737.565 717.516,740.725 720.53,743.846 723.615,746.926 726.769,749.963 729.992,752.956 733.283,755.904 736.64,758.806 740.062,761.659 743.549,764.463 747.099,767.217 750.711,769.919 754.384,772.568 758.117,775.162 761.908,777.701 765.756,780.182 769.66,782.606 773.618,784.97 777.629,787.274 781.692,789.516 785.805,791.695 789.966,793.81 794.175,795.86 798.43,797.844 802.728,799.761 807.07,801.61 811.453,803.389 815.875,805.099 820.334,806.737 824.831,808.303 829.361,809.795 833.925,811.215 838.519,812.559 843.144,813.827 847.795,815.02 852.473,816.135 857.175,817.172 861.899,818.131 866.644,819.01 871.408,819.809 876.188,820.528 880.984,821.165 885.792,821.721 890.612,822.194 895.441,822.584 900.278,822.891 905.12,823.115 909.966,823.254 914.813,823.308 919.66,823.278 924.505,823.162 929.346,822.961 934.18,822.674 939.006,822.301 943.823,821.841 948.627,821.296 953.417,820.664 958.19,819.945 962.946,819.14 967.682,818.248 972.396,817.27 977.085,816.205 981.749,815.054 986.384,813.816 990.99,812.492 995.563,811.083 1000.1,809.587 1004.61,808.007 1009.07,806.341 1013.5,804.59 1017.88,802.755 1022.22,800.836 1026.52,798.833 1030.76,796.748 1034.96,794.579 1039.1,792.329 1043.2,789.998 1047.23,787.585 1051.21,785.093 1055.14,782.521 1059,779.871 1062.79,777.143 1066.53,774.337 1070.19,771.456 1073.79,768.499 1077.32,765.467 1080.78,762.362 1084.17,759.184 1087.48,755.935 1090.71,752.616 1093.87,749.226 1096.95,745.769 1099.94,742.244 1102.86,738.654 1105.69,734.998 1108.43,731.279 1111.09,727.497 1113.65,723.655 1116.13,719.753 1118.52,715.792 1120.81,711.774 1123.01,707.701 1125.12,703.574 1127.13,699.394 1129.04,695.163 1130.85,690.882 1132.56,686.553 1134.17,682.177 1135.68,677.757 1137.09,673.293 1138.39,668.788 1139.59,664.242 1140.68,659.658 1141.66,655.038 1142.54,650.383 1143.31,645.694 1143.97,640.975 1144.52,636.225 1144.96,631.448 1145.29,626.645 1145.5,621.819 1145.61,616.969 1145.6,612.1 1145.48,607.212 1145.25,602.308 1144.9,597.389 1144.44,592.457 1143.87,587.515 1143.18,582.564 1142.38,577.607 1141.46,572.644 1140.43,567.679 1139.29,562.713 1138.03,557.748 1136.65,552.786 1135.17,547.83 1133.57,542.881 1131.85,537.941 1130.03,533.013 1128.09,528.097 1126.03,523.197 1123.87,518.315 1121.6,513.452 1119.21,508.61 1116.72,503.792 1114.11,498.999 1111.4,494.234 1108.58,489.498 1105.65,484.794 1102.62,480.124 1099.48,475.488 1096.23,470.891 1092.89,466.332 1089.44,461.816 1085.89,457.342 1082.24,452.914 1078.49,448.533 1074.64,444.202 1070.7,439.921 1066.66,435.693 1062.52,431.521 1058.3,427.405 1053.98,423.347 1049.57,419.35 1045.08,415.415 1040.5,411.544 1035.83,407.738 1031.08,404.001 1026.25,400.332 1021.33,396.734 1016.34,393.209 1011.27,389.758 1006.12,386.383 1000.9,383.086 995.613,379.867 990.252,376.73 984.823,373.674 979.328,370.702 973.767,367.816 968.145,365.016 962.462,362.304 956.72,359.682 950.922,357.15 945.069,354.711 939.164,352.365 933.209,350.114 927.205,347.959 921.155,345.901 915.062,343.942 908.927,342.082 902.752,340.323 896.54,338.666 890.294,337.111 884.015,335.66 877.705,334.314 871.368,333.074 865.005,331.94 858.619,330.914 852.212,329.996 845.787,329.187 839.346,328.487 832.892,327.898 826.426,327.421 819.952,327.055 813.473,326.801 806.989,326.66 800.505,326.633 794.023,326.719 787.545,326.92 781.073,327.235 774.611,327.665 768.161,328.21 761.726,328.871 755.307,329.647 748.909,330.538 742.533,331.546 736.181,332.669 729.858,333.908 723.564,335.263 717.304,336.734 711.079,338.32 704.892,340.022 698.745,341.839 692.642,343.77 686.585,345.816 680.576,347.977 674.618,350.251 668.714,352.638 662.866,355.139 657.077,357.751 651.349,360.475 645.685,363.31 640.087,366.256 634.558,369.311 629.1,372.475 623.716,375.746 618.408,379.125 613.179,382.61 608.031,386.199 602.966,389.893 597.987,393.69 593.096,397.589 588.295,401.589 583.587,405.688 578.974,409.886 574.457,414.18 570.041,418.571 565.725,423.055 561.513,427.633 557.407,432.302 553.409,437.06 549.52,441.907 545.743,446.841 542.08,451.86 538.532,456.963 535.102,462.147 531.792,467.411 528.602,472.753 525.535,478.172 522.593,483.665 519.778,489.231 517.09,494.868 514.531,500.573 512.104,506.345 509.809,512.181 507.648,518.08 505.623,524.039 503.734,530.057 501.983,536.131 500.372,542.258 498.901,548.438 497.571,554.666 496.385,560.942 495.342,567.262 494.444,573.625 493.691,580.028 493.085,586.468 492.627,592.944 492.316,599.452 492.155,605.991 492.143,612.557 492.281,619.148 492.569,625.763 493.009,632.397 493.601,639.049 494.344,645.715 495.24,652.394 496.288,659.083 497.489,665.779 498.842,672.479 500.349,679.181 502.008,685.882 503.82,692.579 505.785,699.27 507.903,705.952 510.172,712.623 512.594,719.278 515.167,725.917 517.892,732.535 520.767,739.131 523.792,745.702 526.967,752.245 530.291,758.756 533.762,765.234 537.381,771.676 541.147,778.078 545.058,784.439 549.113,790.756 553.312,797.025 557.654,803.244 562.136,809.411 566.759,815.523 571.52,821.576 576.418,827.569 581.452,833.499 586.621,839.363 591.922,845.158 597.355,850.883 602.917,856.533 608.607,862.108 614.424,867.604 620.364,873.018 626.427,878.349 632.61,883.594 638.912,888.75 645.33,893.815 651.863,898.786 658.507,903.662 665.262,908.44 672.123,913.117 679.091,917.691 686.161,922.161 693.331,926.523 700.6,930.776 707.964,934.917 715.42,938.945 722.967,942.857 730.602,946.652 738.321,950.326 746.123,953.88 754.004,957.309 761.961,960.614 769.991,963.791 778.093,966.839 786.261,969.757 794.495,972.542 802.79,975.193 811.143,977.708 819.552,980.087 828.012,982.327 836.522,984.426 845.077,986.384 853.675,988.2 862.312,989.871 870.985,991.397 879.69,992.776 888.424,994.008 897.184,995.091 905.966,996.024 914.767,996.807 923.583,997.437 932.41,997.916 941.247,998.241 950.087,998.412 958.929,998.429 967.769,998.29 976.602,997.996 985.426,997.545 994.236,996.938 1003.03,996.173 1011.8,995.252 1020.55,994.172 1029.27,992.935 1037.96,991.54 1046.62,989.987 1055.23,988.276 1063.81,986.407 1072.33,984.381 1080.81,982.197 1089.23,979.855 1097.6,977.357 1105.9,974.703 1114.15,971.892 1122.32,968.926 1130.42,965.806 1138.44,962.531 1146.39,959.102 1154.25,955.522 1162.03,951.789 1169.72,947.906 1177.31,943.872 1184.8,939.69 1192.2,935.361 1199.49,930.885 1206.67,926.264 1213.75,921.5 1220.7,916.593 1227.54,911.545 1234.26,906.358 1240.85,901.033 1247.31,895.572 1253.64,889.977 1259.84,884.25 1265.89,878.391 1271.81,872.405 1277.58,866.291 1283.2,860.053 1288.67,853.693 1293.98,847.213 1299.13,840.614 1304.13,833.9 1308.95,827.073 1313.62,820.135 1318.1,813.089 1322.42,805.937 1326.56,798.683 1330.51,791.328 1334.29,783.876 1337.87,776.329 1341.27,768.691 1344.48,760.964 1347.49,753.152 1350.3,745.257 1352.91,737.283 1355.31,729.233 1357.51,721.11 1359.5,712.918 1361.27,704.66 1362.83,696.34 1364.17,687.96 1365.29,679.526 1366.18,671.04 1366.85,662.506 1367.29,653.929 1367.5,645.311 1367.47,636.657 1367.21,627.971 1366.71,619.257 1365.96,610.519 1364.97,601.761 1363.74,592.988 1362.26,584.203 1360.53,575.412 1358.55,566.617 1356.31,557.825 1353.83,549.038 1351.09,540.262 1348.09,531.502 1344.84,522.761 1341.33,514.045 1337.57,505.357 1333.55,496.703 1329.28,488.087 1324.76,479.514 1319.98,470.989 1314.96,462.515 1309.69,454.097 1304.17,445.741 1298.42,437.45 1292.43,429.229 1286.2,421.082 1279.75,413.014 1273.08,405.029 1266.2,397.131 1259.1,389.324 1251.8,381.613 1244.31,374 1236.63,366.49 1228.77,359.087 1220.73,351.793 1212.53,344.613 1204.18,337.55 1195.67,330.606 1187.03,323.785 1178.26,317.09 1169.37,310.523 1160.37,304.087 1151.26,297.784 1142.05,291.617 1132.75,285.587 1123.38,279.698 1113.92,273.95 1104.4,268.346 1094.82,262.887 1085.19,257.575 1075.5,252.412 1065.77,247.398 1056,242.536 1046.19,237.826 1036.35,233.27 1026.48,228.869 1016.58,224.624 1006.66,220.535 996.722,216.605 986.761,212.834 976.781,209.223 966.785,205.773 956.774,202.485 946.749,199.36 936.71,196.398 926.659,193.601 916.596,190.969 906.523,188.504 896.44,186.206 886.347,184.076 876.247,182.115 866.14,180.323 856.026,178.702 845.909,177.252 835.787,175.974 825.664,174.868 815.541,173.936 805.42,173.179 795.302,172.595 785.19,172.188 775.086,171.956 764.992,171.901 754.912,172.022 744.847,172.321 734.8,172.798 724.775,173.453 714.775,174.287 704.802,175.299 694.861,176.491 684.954,177.861 675.084,179.411 665.256,181.14 655.473,183.048 645.738,185.136 636.056,187.402 626.43,189.847 616.864,192.47 607.361,195.271 597.926,198.25 588.562,201.406 579.273,204.738 570.064,208.247 560.937,211.93 551.898,215.788 542.949,219.819 534.094,224.023 525.339,228.398 516.685,232.943 508.138,237.658 499.7,242.542 491.377,247.591 483.17,252.807 475.086,258.186 467.126,263.728 459.294,269.431 451.595,275.293 444.032,281.312 436.608,287.488 429.327,293.817 422.192,300.298 415.207,306.929 408.375,313.709 401.7,320.634 395.185,327.702 388.833,334.912 382.647,342.261 376.63,349.747 370.786,357.367 365.118,365.119 359.628,372.999 354.319,381.006 349.195,389.137 344.258,397.389 339.51,405.759 334.955,414.244 330.595,422.841 326.432,431.548 322.469,440.361 318.709,449.278 315.153,458.294 311.804,467.407 308.664,476.613 305.736,485.91 303.02,495.294 300.52,504.761 298.237,514.308 296.172,523.931 294.328,533.628 292.706,543.393 291.308,553.225 290.134,563.118 289.188,573.07 288.468,583.076 287.978,593.133 287.718,603.237 287.689,613.383 287.891,623.569 288.327,633.791 288.996,644.043 289.899,654.323 291.037,664.626 292.411,674.948 294.02,685.285 295.865,695.634 297.946,705.99 300.264,716.348 302.818,726.705 305.608,737.057 308.634,747.399 311.896,757.727 315.393,768.038 319.125,778.326 323.092,788.587 327.292,798.819 331.725,809.015 336.391,819.172 341.287,829.286 346.414,839.353 351.77,849.368 357.353,859.327 363.163,869.225 369.198,879.06 375.457,888.825 381.937,898.518 388.637,908.134 395.556,917.669 402.691,927.119 410.041,936.48 417.603,945.747 425.375,954.916 433.356,963.984 441.541,972.946 449.93,981.798 458.519,990.537 467.306,999.158 476.288,1007.66 485.463,1016.03 494.827,1024.28 504.377,1032.39 514.11,1040.36 524.024,1048.2 534.114,1055.89 544.378,1063.43 554.812,1070.82 565.413,1078.06 576.177,1085.13 587.099,1092.05 598.178,1098.8 609.408,1105.38 620.786,1111.79 632.308,1118.02 643.969,1124.07 655.766,1129.94 667.695,1135.63 679.751,1141.13 691.929,1146.44 704.226,1151.55 716.637,1156.47 729.158,1161.19 741.783,1165.71 754.508,1170.02 767.329,1174.13 780.24,1178.02 793.238,1181.71 806.316,1185.18 819.47,1188.43 832.695,1191.46 845.986,1194.28 859.337,1196.87 872.745,1199.23 886.202,1201.37 899.705,1203.29 913.248,1204.97 926.826,1206.42 940.433,1207.63 954.063,1208.62 967.712,1209.36 981.374,1209.87 995.044,1210.15 1008.72,1210.18 1022.38,1209.97 1036.04,1209.53 1049.69,1208.84 1063.31,1207.9 1076.91,1206.73 1090.47,1205.31 1104,1203.65 1117.48,1201.75 1130.92,1199.6 1144.3,1197.2 1157.62,1194.56 1170.87,1191.68 1184.05,1188.56 1197.16,1185.19 1210.18,1181.58 1223.11,1177.72 1235.94,1173.63 1248.68,1169.29 1261.3,1164.71 1273.81,1159.9 1286.21,1154.84 1298.47,1149.55 1310.61,1144.02 1322.61,1138.26 1334.46,1132.27 1346.17,1126.04 1357.72,1119.59 1369.1,1112.91 1380.32,1106 1391.36,1098.87 1402.22,1091.52 1412.89,1083.95 1423.37,1076.17 1433.64,1068.17 1443.71,1059.96 1453.55,1051.54 1463.18,1042.92 1472.56,1034.1 1481.71,1025.07 1490.6,1015.86 1499.24,1006.45 1507.6,996.857 1515.68,987.08 1523.47,977.124 1530.96,966.994 1538.13,956.695 1544.96,946.231 1551.45,935.609 1557.57,924.833 1563.3,913.909 1568.63,902.845 1573.53,891.647 1577.98,880.321 1581.94,868.877 1585.39,857.321 1588.29,845.663 1590.61,833.912 1592.29,822.079 1593.3,810.175 1593.58,798.212 1593.07,786.203 1591.72,774.162 1589.45,762.104 1586.19,750.047 1581.86,738.008 1576.39,726.006 1569.69,714.063 1561.66,702.202 1552.23,690.446 1541.3,678.821 1528.81,667.356 1514.67,656.079 1498.83,645.02 1481.25,634.209 1461.92,623.68 1440.85,613.463 1418.08,603.591 1393.7,594.093 1367.82,584.999 1340.6,576.335 1312.24,568.125 1282.96,560.388 1253.03,553.141 1222.72,546.395 1192.31,540.155 1162.1,534.423 1132.35,529.195 1103.33,524.463 1075.24,520.214 1048.3,516.431 1022.64,513.095 998.379,510.185 975.596,507.676 954.324,505.544 934.569,503.764 916.308,502.311 899.496,501.16 884.07,500.287 869.954,499.671 857.063,499.289 845.308,499.121 834.598,499.15 824.844,499.359 815.956,499.733 807.853,500.257 800.455,500.919 793.691,501.708 787.492,502.614 781.799,503.628 776.556,504.742 771.713,505.949 767.226,507.243 763.056,508.618 759.168,510.069 755.531,511.593 752.119,513.184 748.908,514.839 745.878,516.556 743.01,518.332 740.29,520.164 737.704,522.05 735.24,523.987 732.889,525.975 730.642,528.011 728.493,530.094 726.435,532.222 724.463,534.394 722.573,536.609 720.761,538.865 719.025,541.161 717.361,543.497 715.768,545.87 714.244,548.28 712.788,550.726 711.399,553.207 710.076,555.722 708.818,558.269 707.626,560.848 706.498,563.458 705.435,566.098 704.437,568.766 703.503,571.462 702.634,574.184 701.83,576.932 701.091,579.705 700.418,582.501 699.81,585.32 699.268,588.16 698.792,591.02 698.383,593.9 698.04,596.797 697.764,599.712 697.556,602.643 697.415,605.588 697.342,608.548 697.337,611.52 697.4,614.503 697.532,617.496 697.732,620.499 698.001,623.509 698.339,626.526 698.746,629.549 699.222,632.576 699.767,635.606 700.382,638.638 701.065,641.671 701.818,644.704 702.641,647.735 703.532,650.763 704.492,653.786 705.522,656.805 706.62,659.817 707.786,662.821 709.021,665.816 710.325,668.8 711.696,671.773 713.134,674.734 714.641,677.68 716.214,680.611 717.854,683.526 719.559,686.423 721.331,689.301 723.168,692.159 725.07,694.995 727.037,697.809 729.067,700.599 731.161,703.364 733.317,706.103 735.535,708.814 737.815,711.497 740.155,714.149 742.556,716.771 745.015,719.361 747.534,721.917 750.11,724.439 752.743,726.925 755.432,729.374 758.177,731.786 760.976,734.158 763.828,736.49 766.734,738.782 769.69,741.03 772.698,743.236 775.755,745.397 778.86,747.512 782.013,749.581 785.213,751.602 788.458,753.575 791.747,755.499 795.079,757.372 798.453,759.194 801.868,760.963 805.322,762.679 808.815,764.341 812.345,765.948 815.91,767.499 819.51,768.993 823.143,770.43 826.808,771.808 830.504,773.127 834.228,774.387 837.981,775.585 841.759,776.723 845.563,777.798 849.39,778.811 853.239,779.76 857.109,780.645 860.997,781.466 864.904,782.221 868.826,782.911 872.764,783.535 876.714,784.091 880.676,784.581 884.647,785.002 888.628,785.356 892.615,785.641 896.607,785.857 900.603,786.004 904.601,786.081 908.6,786.088 912.597,786.025 916.592,785.891 920.582,785.687 924.567,785.412 928.544,785.066 932.512,784.649 936.468,784.16 940.413,783.601 944.343,782.969 948.257,782.267 952.154,781.492 956.032,780.647 959.889,779.73 963.724,778.742 967.535,777.683 971.32,776.552 975.078,775.351 978.807,774.08 982.506,772.738 986.172,771.326 989.805,769.844 993.402,768.293 996.963,766.672 1000.48,764.983 1003.97,763.226 1007.41,761.401 1010.8,759.508 1014.16,757.549 1017.46,755.523 1020.72,753.432 1023.93,751.275 1027.09,749.054 1030.2,746.768 1033.25,744.42 1036.24,742.009 1039.19,739.536 1042.07,737.002 1044.89,734.408 1047.65,731.754 1050.35,729.042 1052.99,726.272 1055.56,723.445 1058.07,720.562 1060.51,717.624 1062.88,714.633 1065.18,711.588 1067.41,708.491 1069.56,705.343 1071.65,702.146 1073.66,698.899 1075.59,695.605 1077.45,692.265 1079.22,688.879 1080.92,685.449 1082.54,681.976 1084.08,678.461 1085.54,674.906 1086.92,671.312 1088.21,667.68 1089.42,664.012 1090.54,660.308 1091.58,656.571 1092.53,652.801 1093.39,649 1094.16,645.169 1094.85,641.311 1095.45,637.425 1095.96,633.514 1096.37,629.58 1096.7,625.623 1096.93,621.645 1097.08,617.649 1097.13,613.634 1097.08,609.603 1096.95,605.558 1096.72,601.499 1096.4,597.43 1095.99,593.35 1095.48,589.262 1094.88,585.167 1094.18,581.068 1093.39,576.965 1092.51,572.86 1091.53,568.755 1090.46,564.652 1089.29,560.552 1088.03,556.457 1086.68,552.368 1085.23,548.288 1083.69,544.217 1082.06,540.158 1080.33,536.112 1078.52,532.081 1076.61,528.067 1074.61,524.071 1072.52,520.095 1070.34,516.14 1068.07,512.209 1065.71,508.302 1063.26,504.422 1060.73,500.57 1058.11,496.749 1055.4,492.958 1052.61,489.201 1049.73,485.478 1046.77,481.792 1043.73,478.144 1040.6,474.535 1037.39,470.968 1034.11,467.443 1030.74,463.963 1027.3,460.528 1023.78,457.141 1020.18,453.803 1016.51,450.515 1012.77,447.279 1008.95,444.096 1005.07,440.969 1001.11,437.898 997.09,434.884 993,431.93 988.845,429.036 984.626,426.204 980.344,423.436 976.001,420.732 971.599,418.094 967.138,415.524 962.621,413.022 958.049,410.59 953.424,408.229 948.747,405.94 944.02,403.724 939.245,401.584 934.423,399.518 929.556,397.53 924.646,395.62 919.695,393.788 914.704,392.037 909.675,390.366 904.61,388.778 899.511,387.272 894.38,385.851 889.219,384.513 884.029,383.262 878.812,382.097 873.571,381.019 868.308,380.029 863.024,379.128 857.721,378.316 852.402,377.594 847.069,376.963 841.722,376.423 836.366,375.975 831.001,375.619 825.63,375.356 820.255,375.187 814.878,375.111 809.501,375.13 804.126,375.243 798.756,375.45 793.392,375.753 788.037,376.152 782.693,376.646 777.361,377.235 772.045,377.921 766.746,378.702 761.467,379.58 756.209,380.553 750.975,381.623 745.767,382.789 740.588,384.05 735.438,385.408 730.322,386.861 725.24,388.409 720.194,390.053 715.188,391.791 710.223,393.624 705.301,395.552 700.425,397.573 695.596,399.687 690.817,401.894 686.09,404.194 681.416,406.585 676.799,409.068 672.239,411.641 667.74,414.304 663.302,417.056 658.929,419.896 654.622,422.825 650.383,425.84 646.213,428.941 642.116,432.127 638.093,435.397 634.146,438.75 630.276,442.185 626.485,445.702 622.777,449.298 619.151,452.973 615.61,456.726 612.156,460.556 608.79,464.46 605.515,468.439 602.331,472.49 599.24,476.613 596.245,480.805 593.346,485.067 590.545,489.395 587.844,493.789 585.245,498.247 582.747,502.768 580.354,507.35 578.066,511.991 575.885,516.691 573.811,521.446 571.847,526.256 569.993,531.119 568.251,536.033 566.622,540.996 565.107,546.007 563.706,551.063 562.421,556.164 561.254,561.306 560.204,566.488 559.273,571.709 558.461,576.965 557.77,582.256 557.2,587.58 556.752,592.933 556.427,598.315 556.224,603.723 556.145,609.155 556.191,614.61 556.361,620.084 556.656,625.576 557.077,631.084 557.623,636.605 558.296,642.138 559.095,647.68 560.02,653.229 561.072,658.783 562.251,664.34 563.557,669.897 564.989,675.452 566.548,681.004 568.234,686.549 570.046,692.085 571.984,697.611 574.048,703.124 576.238,708.622 578.553,714.102 580.992,719.562 583.556,725 586.243,730.414 589.054,735.801 591.987,741.16 595.042,746.487 598.218,751.781 601.514,757.039 604.93,762.26 608.464,767.44 612.116,772.578 615.885,777.671 619.769,782.718 623.767,787.715 627.879,792.661 632.103,797.554 636.437,802.392 640.882,807.171 645.434,811.891 650.093,816.549 654.858,821.143 659.727,825.67 664.697,830.129 669.769,834.518 674.94,838.834 680.208,843.077 685.571,847.242 691.029,851.33 696.579,855.337 702.219,859.261 707.947,863.102 713.762,866.857 719.661,870.524 725.643,874.101 731.704,877.586 737.844,880.979 744.06,884.277 750.35,887.478 756.711,890.58 763.142,893.583 769.639,896.484 776.202,899.282 782.826,901.976 789.51,904.563 796.252,907.043 803.049,909.414 809.898,911.674 816.797,913.823 823.743,915.859 830.734,917.781 837.766,919.587 844.839,921.276 851.947,922.848 859.09,924.301 866.264,925.633 873.466,926.845 880.694,927.935 887.945,928.902 895.216,929.746 902.504,930.465 909.806,931.059 917.12,931.526 924.442,931.867 931.77,932.081 939.1,932.167 946.43,932.124 953.756,931.953 961.077,931.652 968.388,931.221 975.686,930.661 982.97,929.97 990.235,929.148 997.478,928.196 1004.7,927.113 1011.89,925.899 1019.05,924.554 1026.18,923.078 1033.27,921.471 1040.32,919.734 1047.33,917.866 1054.3,915.868 1061.21,913.74 1068.08,911.482 1074.89,909.095 1081.64,906.58 1088.33,903.936 1094.96,901.165 1101.52,898.267 1108.01,895.243 1114.43,892.093 1120.77,888.818 1127.03,885.419 1133.22,881.898 1139.32,878.254 1145.33,874.49 1151.25,870.606 1157.08,866.602 1162.82,862.482 1168.45,858.244 1173.99,853.892 1179.42,849.426 1184.74,844.847 1189.96,840.158 1195.06,835.359 1200.05,830.452 1204.92,825.439 1209.67,820.322 1214.3,815.101 1218.81,809.78 1223.19,804.358 1227.44,798.84 1231.55,793.226 1235.53,787.518 1239.38,781.718 1243.09,775.829 1246.65,769.853 1250.07,763.791 1253.35,757.646 1256.48,751.42 1259.46,745.116 1262.28,738.735 1264.96,732.28 1267.47,725.754 1269.83,719.159 1272.04,712.498 1274.08,705.772 1275.95,698.985 1277.66,692.14 1279.21,685.238 1280.59,678.283 1281.8,671.277 1282.84,664.224 1283.71,657.125 1284.4,649.984 1284.92,642.804 1285.27,635.588 1285.44,628.338 1285.43,621.058 1285.24,613.75 1284.87,606.418 1284.33,599.064 1283.6,591.693 1282.7,584.305 1281.61,576.906 1280.34,569.498 1278.89,562.084 1277.26,554.668 1275.44,547.251 1273.45,539.839 1271.27,532.434 1268.92,525.038 1266.38,517.656 1263.66,510.291 1260.76,502.946 1257.69,495.623 1254.44,488.327 1251.01,481.06 1247.41,473.825 1243.63,466.627 1239.69,459.467 1235.57,452.35 1231.29,445.278 1226.83,438.254 1222.22,431.282 1217.44,424.364 1212.5,417.504 1207.41,410.705 1202.16,403.969 1196.76,397.3 1191.2,390.7 1185.5,384.173 1179.66,377.72 1173.68,371.346 1167.55,365.053 1161.29,358.843 1154.9,352.72 1148.38,346.685 1141.73,340.742 1134.96,334.893 1128.07,329.14 1121.06,323.487 1113.94,317.935 1106.71,312.486 1099.37,307.144 1091.92,301.911 1084.37,296.788 1076.73,291.778 1068.98,286.883 1061.15,282.106 1053.22,277.447 1045.21,272.91 1037.11,268.497 1028.93,264.208 1020.67,260.047 1012.34,256.015 1003.93,252.114 995.45,248.346 986.902,244.712 978.289,241.214 969.612,237.854 960.876,234.633 952.081,231.554 943.232,228.617 934.33,225.825 925.379,223.178 916.38,220.678 907.337,218.326 898.253,216.124 889.131,214.074 879.972,212.176 870.781,210.431 861.56,208.841 852.312,207.407 843.039,206.13 833.746,205.011 824.436,204.05 815.11,203.25 805.774,202.61 796.429,202.132 787.079,201.816 777.728,201.663 768.379,201.674 759.035,201.849 749.7,202.189 740.378,202.694 731.071,203.365 721.783,204.201 712.519,205.204 703.281,206.374 694.074,207.71 684.9,209.213 675.764,210.883 666.67,212.72 657.62,214.723 648.619,216.893 639.67,219.23 630.778,221.732 621.945,224.401 613.176,227.234 604.474,230.232 595.842,233.395 587.286,236.721 578.808,240.211 570.412,243.862 562.101,247.675 553.88,251.648 545.752,255.781 537.72,260.073 529.788,264.521 521.96,269.126 514.239,273.886 506.629,278.8 499.133,283.867 491.755,289.084 484.497,294.45 477.364,299.965 470.359,305.626 463.485,311.431 456.745,317.38 450.143,323.469 443.682,329.698 437.364,336.063 431.193,342.564 425.173,349.198 419.305,355.963 413.594,362.857 408.041,369.878 402.65,377.023 397.424,384.289 392.365,391.675 387.476,399.179 382.759,406.796 378.218,414.526 373.855,422.364 369.672,430.309 365.671,438.358 361.855,446.508 358.227,454.756 354.787,463.099 351.54,471.534 348.485,480.058 345.627,488.669 342.966,497.362 340.504,506.135 338.243,514.985 336.185,523.908 334.332,532.902 332.684,541.962 331.245,551.086 330.014,560.269 328.993,569.51 328.183,578.803 327.587,588.146 327.204,597.535 327.035,606.967 327.083,616.437 327.347,625.943 327.828,635.48 328.527,645.045 329.444,654.634 330.581,664.244 331.937,673.87 333.513,683.509 335.309,693.157 337.325,702.81 339.561,712.465 342.017,722.117 344.694,731.762 347.59,741.398 350.706,751.019 354.042,760.622 357.596,770.203 361.368,779.758 365.358,789.283 369.565,798.775 373.988,808.228 378.626,817.64 383.479,827.007 388.544,836.323 393.821,845.587 399.309,854.792 405.006,863.937 410.911,873.016 417.022,882.026 423.337,890.963 429.856,899.823 436.575,908.602 443.494,917.297 450.61,925.903 457.921,934.417 465.426,942.836 473.121,951.154 481.004,959.369 489.073,967.476 497.326,975.473 505.76,983.355 514.372,991.119 523.16,998.761 532.121,1006.28 541.251,1013.67 550.548,1020.92 560.009,1028.04 569.63,1035.02 579.409,1041.86 589.342,1048.56 599.425,1055.1 609.656,1061.49 620.031,1067.73 630.545,1073.81 641.196,1079.72 651.98,1085.48 662.893,1091.06 673.931,1096.47 685.09,1101.72 696.366,1106.78 707.755,1111.67 719.253,1116.37 730.856,1120.89 742.559,1125.22 754.359,1129.37 766.25,1133.32 778.229,1137.08 790.29,1140.64 802.43,1144.01 814.644,1147.17 826.927,1150.14 839.274,1152.89 851.682,1155.45 864.144,1157.79 876.656,1159.92 889.214,1161.84 901.812,1163.55 914.445,1165.04 927.109,1166.32 939.799,1167.38 952.509,1168.22 965.235,1168.84 977.971,1169.24 990.712,1169.42 1003.45,1169.37 1016.19,1169.1 1028.91,1168.61 1041.62,1167.89 1054.31,1166.94 1066.98,1165.77 1079.61,1164.37 1092.2,1162.74 1104.75,1160.89 1117.26,1158.81 1129.71,1156.5 1142.11,1153.96 1154.44,1151.2 1166.7,1148.21 1178.89,1144.99 1190.99,1141.55 1203.02,1137.88 1214.95,1133.98 1226.79,1129.86 1238.52,1125.52 1250.15,1120.95 1261.66,1116.17 1273.06,1111.16 1284.33,1105.93 1295.48,1100.49 1306.49,1094.83 1317.35,1088.95 1328.08,1082.86 1338.65,1076.56 1349.06,1070.05 1359.31,1063.34 1369.4,1056.41 1379.3,1049.29 1389.03,1041.96 1398.57,1034.43 1407.91,1026.71 1417.06,1018.79 1426,1010.69 1434.73,1002.39 1443.24,993.915 1451.52,985.255 1459.56,976.417 1467.37,967.404 1474.92,958.221 1482.22,948.87 1489.24,939.355 1495.99,929.682 1502.46,919.853 1508.62,909.875 1514.48,899.75 1520.01,889.485 1525.21,879.085 1530.06,868.555 1534.54,857.9 1538.64,847.128 1542.34,836.243 1545.61,825.254 1548.44,814.167 1550.8,802.99 1552.67,791.731 1554.02,780.399 1554.81,769.002 1555.01,757.551 1554.58,746.056 1553.49,734.529 1551.7,722.98 1549.15,711.423 1545.8,699.871 1541.6,688.339 1536.51,676.843 1530.45,665.398 1523.39,654.023 1515.27,642.736 1506.04,631.555 1495.65,620.502 1484.07,609.598 1471.25,598.864 1457.19,588.323 1441.86,577.998 1425.28,567.912 1407.46,558.087 1388.46,548.547 1368.32,539.312 1347.14,530.404 1325.03,521.84 1302.09,513.638 1278.49,505.812 1254.38,498.374 1229.92,491.332 1205.3,484.694 1180.69,478.463 1156.27,472.637 1132.19,467.214 1108.62,462.187 1085.69,457.55 1063.52,453.29 1042.19,449.395 1021.78,445.851 1002.35,442.643 983.924,439.755 966.512,437.17 950.11,434.872 934.7,432.844 920.25,431.07 906.721,429.534 894.066,428.223 882.234,427.121 871.168,426.215 860.815,425.494 851.117,424.947 842.022,424.562 833.475,424.33 825.427,424.243 817.831,424.293 810.644,424.474 803.825,424.778 797.336,425.199 791.145,425.734 785.221,426.378 779.536,427.126 774.067,427.975 768.791,428.921 763.689,429.963 758.744,431.097 753.943,432.321 749.27,433.633 744.717,435.032 740.272,436.515 735.929,438.081 731.678,439.729 727.516,441.457 723.437,443.265 719.436,445.151 715.511,447.114 711.658,449.154 707.876,451.268 704.163,453.457 700.518,455.72 696.94,458.054 693.429,460.461 689.983,462.938 686.605,465.485 683.292,468.101 680.047,470.785 676.87,473.537 673.76,476.354 670.72,479.237 667.75,482.184 664.851,485.195 662.023,488.268 659.269,491.402 656.588,494.597 653.983,497.85 651.454,501.162 649.002,504.531 646.628,507.956 644.334,511.436 642.121,514.969 639.99,518.554 637.942,522.191 635.977,525.877 634.098,529.612 632.305,533.394 630.599,537.222 628.981,541.095 627.452,545.011 626.013,548.968 624.665,552.966 623.408,557.003 622.245,561.077 621.175,565.187 620.199,569.332 619.319,573.509 618.534,577.718 617.845,581.957 617.254,586.224 616.76,590.517 616.365,594.836 616.068,599.178 615.871,603.542 615.774,607.925 615.777,612.328 615.88,616.746 616.085,621.18 616.391,625.628 616.798,630.086 617.308,634.555 617.919,639.031 618.633,643.514 619.449,648.002 620.367,652.492 621.388,656.983 622.512,661.474 623.737,665.961 625.065,670.445 626.495,674.922 628.028,679.39 629.662,683.849 631.397,688.297 633.234,692.731 635.172,697.149 637.21,701.55 639.348,705.932 641.586,710.293 643.924,714.632 646.36,718.946 648.893,723.234 651.525,727.493 654.253,731.722 657.077,735.92 659.996,740.084 663.01,744.213 666.118,748.304 669.318,752.356 672.61,756.368 675.993,760.337 679.466,764.262 683.028,768.14 686.678,771.971 690.414,775.752 694.236,779.482 698.142,783.16 702.132,786.782 706.203,790.348 710.354,793.857 714.585,797.305 718.894,800.693 723.279,804.018 727.738,807.278 732.272,810.473 736.877,813.6 741.552,816.658 746.296,819.645 751.108,822.561 755.984,825.403 760.925,828.17 765.927,830.862 770.99,833.475 776.111,836.01 781.288,838.464 786.521,840.836 791.806,843.126 797.142,845.332 802.527,847.452 807.959,849.486 813.437,851.432 818.957,853.289 824.518,855.057 830.118,856.733 835.755,858.317 841.426,859.809 847.13,861.206 852.865,862.509 858.627,863.716 864.416,864.826 870.228,865.839 876.061,866.754 881.914,867.569 887.784,868.285 893.668,868.901 899.565,869.415 905.472,869.828 911.386,870.139 917.305,870.347 923.228,870.452 929.151,870.453 935.072,870.35 940.989,870.143 946.899,869.831 952.8,869.414 958.69,868.892 964.566,868.264 970.425,867.531 976.265,866.692 982.085,865.748 987.88,864.697 993.65,863.541 999.391,862.279 1005.1,860.911 1010.78,859.438 1016.42,857.859 1022.02,856.176 1027.58,854.387 1033.1,852.495 1038.57,850.498 1044,848.397 1049.37,846.193 1054.69,843.886 1059.96,841.477 1065.17,838.966 1070.32,836.354 1075.41,833.642 1080.43,830.83 1085.38,827.92 1090.27,824.911 1095.09,821.805 1099.83,818.602 1104.49,815.304 1109.08,811.911 1113.59,808.425 1118.01,804.847 1122.35,801.177 1126.61,797.417 1130.77,793.568 1134.84,789.632 1138.82,785.608 1142.71,781.5 1146.5,777.308 1150.19,773.033 1153.78,768.677 1157.26,764.241 1160.64,759.728 1163.92,755.138 1167.08,750.472 1170.14,745.734 1173.08,740.924 1175.92,736.044 1178.63,731.095 1181.23,726.08 1183.71,721 1186.07,715.858 1188.31,710.654 1190.43,705.391 1192.43,700.071 1194.29,694.696 1196.03,689.267 1197.65,683.788 1199.13,678.259 1200.49,672.683 1201.71,667.062 1202.8,661.398 1203.76,655.693 1204.58,649.95 1205.27,644.171 1205.82,638.357 1206.24,632.512 1206.52,626.638 1206.66,620.736 1206.66,614.809 1206.52,608.859 1206.24,602.89 1205.82,596.902 1205.27,590.899 1204.57,584.883 1203.73,578.857 1202.75,572.822 1201.63,566.782 1200.37,560.738 1198.97,554.694 1197.42,548.651 1195.74,542.612 1193.91,536.58 1191.95,530.557 1189.85,524.545 1187.6,518.548 1185.22,512.567 1182.71,506.605 1180.05,500.665 1177.26,494.749 1174.33,488.859 1171.27,482.998 1168.07,477.169 1164.74,471.374 1161.28,465.615 1157.69,459.895 1153.97,454.216 1150.12,448.582 1146.15,442.993 1142.05,437.452 1137.82,431.963 1133.47,426.527 1129.01,421.147 1124.42,415.824 1119.71,410.562 1114.89,405.363 1109.96,400.228 1104.91,395.16 1099.75,390.162 1094.48,385.235 1089.1,380.383 1083.62,375.606 1078.04,370.907 1072.35,366.288 1066.56,361.752 1060.68,357.299 1054.7,352.934 1048.63,348.656 1042.46,344.469 1036.21,340.374 1029.87,336.374 1023.45,332.469 1016.94,328.663 1010.35,324.956 1003.69,321.35 996.944,317.849 990.128,314.452 983.241,311.162 976.286,307.98 969.264,304.908 962.178,301.948 955.03,299.101 947.823,296.369 940.56,293.753 933.242,291.254 925.873,288.875 918.454,286.615 910.989,284.478 903.481,282.463 895.931,280.573 888.343,278.808 880.719,277.17 873.063,275.659 865.376,274.277 857.662,273.024 849.923,271.903 842.162,270.913 834.383,270.056 826.588,269.332 818.78,268.742 810.962,268.287 803.136,267.967 795.307,267.784 787.477,267.738 779.649,267.829 771.826,268.057 764.011,268.425 756.207,268.93 748.417,269.575 740.645,270.359 732.894,271.283 725.166,272.346 717.464,273.549 709.793,274.892 702.155,276.374 694.553,277.997 686.99,279.759 679.47,281.661 671.996,283.702 664.57,285.882 657.196,288.201 649.877,290.658 642.617,293.254 635.418,295.986 628.283,298.856 621.215,301.861 614.218,305.003 607.295,308.279 600.449,311.689 593.682,315.232 586.998,318.908 580.399,322.715 573.89,326.653 567.472,330.72 561.148,334.915 554.922,339.237 548.796,343.685 542.774,348.258 536.857,352.954 531.05,357.771 525.354,362.709 519.772,367.766 514.307,372.94 508.961,378.23 503.738,383.634 498.64,389.15 493.669,394.777 488.827,400.512 484.118,406.355 479.544,412.302 475.107,418.352 470.809,424.504 466.652,430.754 462.64,437.101 458.773,443.542 455.055,450.077 451.487,456.701 448.071,463.413 444.81,470.211 441.704,477.092 438.757,484.053 435.969,491.093 433.343,498.209 430.881,505.398 428.583,512.657 426.451,519.985 424.488,527.378 422.694,534.834 421.071,542.349 419.621,549.922 418.343,557.548 417.24,565.227 416.314,572.954 415.563,580.726 414.991,588.542 414.598,596.397 414.384,604.289 414.351,612.215 414.499,620.172 414.829,628.156 415.341,636.165 416.036,644.195 416.915,652.244 417.977,660.308 419.224,668.384 420.655,676.469 422.271,684.559 424.071,692.652 426.055,700.745 428.225,708.833 430.578,716.913 433.116,724.984 435.838,733.04 438.743,741.079 441.832,749.098 445.103,757.093 448.556,765.061 452.191,772.999 456.006,780.903 460.001,788.77 464.175,796.597 468.527,804.381 473.056,812.117 477.761,819.804 482.64,827.437 487.693,835.013 492.918,842.53 498.314,849.984 503.878,857.371 509.611,864.688 515.509,871.933 521.572,879.101 527.797,886.191 534.183,893.198 540.727,900.119 547.428,906.952 554.284,913.693 561.293,920.34 568.451,926.888 575.758,933.336 583.211,939.68 590.806,945.918 598.543,952.045 606.418,958.06 614.428,963.96 622.572,969.741 630.846,975.402 639.247,980.938 647.773,986.348 656.42,991.629 665.186,996.779 674.068,1001.79 683.062,1006.67 692.166,1011.41 701.375,1016.01 710.688,1020.46 720.1,1024.76 729.608,1028.92 739.209,1032.93 748.899,1036.78 758.674,1040.48 768.532,1044.01 778.468,1047.39 788.478,1050.61 798.56,1053.67 808.709,1056.55 818.921,1059.27 829.193,1061.83 839.52,1064.21 849.899,1066.42 860.326,1068.45 870.796,1070.31 881.307,1072 891.852,1073.5 902.429,1074.83 913.033,1075.97 923.661,1076.93 934.307,1077.71 944.968,1078.31 955.639,1078.72 966.316,1078.95 976.995,1078.98 987.672,1078.83 998.341,1078.5 1009,1077.97 1019.64,1077.26 1030.27,1076.35 1040.86,1075.26 1051.43,1073.97 1061.97,1072.49 1072.47,1070.83 1082.92,1068.97 1093.33,1066.92 1103.69,1064.68 1113.99,1062.26 1124.24,1059.64 1134.42,1056.83 1144.52,1053.83 1154.56,1050.64 1164.52,1047.26 1174.39,1043.7 1184.18,1039.95 1193.88,1036.01 1203.48,1031.89 1212.98,1027.59 1222.37,1023.1 1231.66,1018.42 1240.83,1013.57 1249.89,1008.54 1258.82,1003.33 1267.62,997.942 1276.29,992.38 1284.83,986.644 1293.22,980.737 1301.47,974.66 1309.57,968.414 1317.52,962.003 1325.31,955.428 1332.94,948.692 1340.39,941.795 1347.68,934.742 1354.79,927.534 1361.72,920.173 1368.46,912.664 1375.01,905.007 1381.36,897.206 1387.52,889.264 1393.47,881.184 1399.21,872.969 1404.74,864.621 1410.04,856.146 1415.12,847.545 1419.97,838.822 1424.59,829.981 1428.96,821.026 1433.08,811.96 1436.95,802.788 1440.56,793.513 1443.9,784.141 1446.97,774.674 1449.76,765.118 1452.26,755.477 1454.46,745.756 1456.37,735.96 1457.95,726.094 1459.22,716.163 1460.16,706.173 1460.76,696.13 1461.02,686.039 1460.91,675.906 1460.43,665.738 1459.58,655.54 1458.33,645.32 1456.68,635.085 1454.61,624.841 1452.12,614.596 1449.2,604.358 1445.82,594.134 1441.98,583.932 1437.67,573.761 1432.88,563.629 1427.6,553.545 1421.81,543.518 1415.52,533.557 1408.71,523.671 1401.39,513.869 1393.54,504.161 1385.18,494.557 1376.29,485.066 1366.9,475.697 1357,466.46 1346.61,457.365 1335.74,448.419 1324.42,439.633 1312.67,431.014 1300.51,422.571 1287.97,414.311 1275.09,406.241 1261.9,398.368 1248.44,390.697 1234.75,383.235 1220.87,375.984 1206.85,368.95 1192.72,362.134 1178.54,355.541 1164.34,349.17 1150.15,343.023 1136.03,337.099 1122,331.4 1108.09,325.923 1094.34,320.668 1080.76,315.631 1067.38,310.811 1054.22,306.204 1041.29,301.809 1028.6,297.62 1016.16,293.636 1003.96,289.852 992.02,286.265 980.323,282.872 968.869,279.668 957.652,276.65 946.664,273.815 935.895,271.16 925.336,268.682 914.974,266.378 904.799,264.244 894.799,262.279 884.962,260.481 875.277,258.847 865.733,257.375 856.319,256.064 847.024,254.912 837.839,253.917 828.756,253.08 819.767,252.397 810.863,251.869 802.038,251.494 793.286,251.272 784.603,251.203 775.984,251.285 767.424,251.519 758.922,251.903 750.474,252.438 742.078,253.122 733.734,253.957 725.44,254.941 717.196,256.074 709.002,257.356 700.858,258.787 692.766,260.366 684.725,262.093 676.739,263.968 668.807,265.99 660.933,268.159 653.117,270.475 645.363,272.937 637.673,275.544 630.048,278.296 622.492,281.193 615.008,284.233 607.597,287.416 600.264,290.742 593.01,294.209 585.838,297.817 578.752,301.564 571.755,305.45 564.849,309.474 558.038,313.634 551.323,317.93 544.709,322.36 538.199,326.923 531.794,331.618 525.499,336.444 519.316,341.398 513.247,346.48 507.297,351.687 501.467,357.019 495.76,362.474 490.179,368.05 484.728,373.745 479.407,379.557 474.221,385.485 469.172,391.527 464.262,397.68 459.494,403.943 454.87,410.314 450.393,416.79 446.065,423.37 441.888,430.05 437.865,436.83 433.998,443.705 430.289,450.675 426.741,457.737 423.354,464.888 420.132,472.125 417.076,479.447 414.188,486.85 411.47,494.332 408.924,501.891 406.551,509.523 404.353,517.225 402.331,524.996 400.488,532.831 398.824,540.729 397.341,548.687 396.041,556.7 394.924,564.767 393.991,572.884 393.245,581.049 392.685,589.257 392.313,597.507 392.129,605.795 392.135,614.117 392.332,622.472 392.719,630.854 393.298,639.262 394.069,647.691 395.033,656.139 396.189,664.602 397.539,673.077 399.082,681.561 400.819,690.05 402.749,698.54 404.873,707.029 407.191,715.514 409.702,723.989 412.406,732.453 415.304,740.902 418.393,749.332 421.675,757.739 425.148,766.121 428.812,774.474 432.667,782.795 436.71,791.079 440.942,799.324 445.362,807.526 449.968,815.681 454.759,823.787 459.735,831.839 464.894,839.835 470.234,847.77 475.755,855.642 481.454,863.447 487.33,871.182 493.382,878.842 499.608,886.426 506.005,893.929 512.573,901.348 519.309,908.68 526.211,915.922 533.277,923.07 540.504,930.121 547.891,937.073 555.436,943.92 563.135,950.662 570.987,957.293 578.988,963.812 587.136,970.216 595.429,976.5 603.864,982.663 612.438,988.701 621.147,994.612 629.99,1000.39 638.963,1006.04 648.063,1011.55 657.286,1016.92 666.63,1022.15 676.092,1027.24 685.667,1032.18 695.353,1036.97 705.147,1041.6 715.043,1046.09 725.04,1050.41 735.134,1054.58 745.32,1058.59 755.595,1062.43 765.955,1066.11 776.397,1069.62 786.917,1072.95 797.51,1076.12 808.172,1079.11 818.901,1081.93 829.69,1084.57 840.538,1087.03 851.438,1089.31 862.388,1091.4 873.383,1093.31 884.418,1095.04 895.49,1096.58 906.593,1097.93 917.725,1099.09 928.879,1100.05 940.053,1100.83 951.24,1101.41 962.438,1101.8 973.641,1101.99 984.845,1101.99 996.046,1101.79 1007.24,1101.4 1018.42,1100.8 1029.58,1100.01 1040.72,1099.01 1051.83,1097.82 1062.91,1096.43 1073.96,1094.84 1084.97,1093.05 1095.93,1091.05 1106.84,1088.86 1117.69,1086.47 1128.49,1083.88 1139.22,1081.09 1149.88,1078.1 1160.47,1074.91 1170.98,1071.52 1181.41,1067.93 1191.75,1064.15 1202,1060.17 1212.15,1056 1222.19,1051.63 1232.14,1047.07 1241.97,1042.32 1251.68,1037.38 1261.27,1032.25 1270.74,1026.93 1280.08,1021.42 1289.28,1015.73 1298.34,1009.86 1307.26,1003.8 1316.03,997.563 1324.64,991.15 1333.09,984.561 1341.38,977.798 1349.51,970.864 1357.45,963.762 1365.22,956.492 1372.81,949.059 1380.21,941.464 1387.41,933.711 1394.42,925.801 1401.22,917.739 1407.81,909.527 1414.18,901.168 1420.33,892.665 1426.26,884.022 1431.95,875.243 1437.41,866.33 1442.62,857.288 1447.58,848.12 1452.28,838.831 1456.71,829.424 1460.87,819.905 1464.75,810.276 1468.33,800.543 1471.62,790.711 1474.61,780.784 1477.27,770.768 1479.61,760.668 1481.6,750.489 1483.25,740.238 1484.54,729.919 1485.45,719.54 1485.98,709.107 1486.1,698.626 1485.8,688.104 1485.08,677.549 1483.9,666.969 1482.26,656.371 1480.13,645.764 1477.51,635.156 1474.36,624.555 1470.68,613.973 1466.45,603.417 1461.64,592.899 1456.24,582.428 1450.23,572.015 1443.6,561.671 1436.34,551.408 1428.43,541.237 1419.86,531.171 1410.64,521.219 1400.75,511.396 1390.21,501.714 1379.01,492.183 1367.18,482.816 1354.73,473.625 1341.68,464.621 1328.08,455.815 1313.95,447.218 1299.33,438.839 1284.28,430.687 1268.85,422.769 1253.1,415.095 1237.08,407.668 1220.86,400.495 1204.51,393.58 1188.08,386.925 1171.65,380.531 1155.27,374.401 1139.01,368.532 1122.91,362.925 1107.04,357.576 1091.42,352.482 1076.1,347.639 1061.1,343.044 1046.47,338.69 1032.21,334.573 1018.33,330.686 1004.85,327.024 991.766,323.581 979.077,320.35 966.776,317.326 954.853,314.502 943.296,311.874 932.09,309.435 921.218,307.179 910.662,305.103 900.403,303.202 890.423,301.471 880.702,299.905 871.222,298.502 861.963,297.258 852.909,296.17 844.043,295.235 835.348,294.45 826.811,293.814 818.417,293.324 810.155,292.978 802.012,292.774 793.979,292.712 786.046,292.79 778.205,293.007 770.45,293.362 762.774,293.853 755.172,294.481 747.639,295.244 740.173,296.142 732.77,297.174 725.427,298.34 718.144,299.639 710.919,301.071 703.752,302.634 696.642,304.33 689.589,306.156 682.595,308.114 675.66,310.201 668.784,312.418 661.97,314.765 655.219,317.24 648.533,319.842 641.914,322.573 635.363,325.429 628.883,328.412 622.476,331.52 616.144,334.752 609.89,338.108 603.717,341.586 597.626,345.186 591.62,348.907 585.702,352.747 579.873,356.706 574.138,360.782 568.498,364.975 562.955,369.282 557.513,373.704 552.173,378.237 546.939,382.882 541.812,387.637 536.795,392.499 531.891,397.469 527.102,402.543 522.43,407.721 517.878,413 513.447,418.38 509.141,423.858 504.96,429.432 500.909,435.101 496.988,440.863 493.199,446.716 489.545,452.657 486.028,458.685 482.65,464.798 479.412,470.994 476.317,477.27 473.365,483.624 470.56,490.055 467.902,496.559 465.394,503.135 463.037,509.779 460.832,516.491 458.781,523.266 456.885,530.104 455.146,537.001 453.565,543.954 452.144,550.962 450.883,558.022 449.784,565.13 448.847,572.285 448.074,579.484 447.466,586.724 447.024,594.001 446.748,601.315 446.64,608.661 446.699,616.037 446.927,623.44 447.324,630.867 447.891,638.315 448.628,645.782 449.536,653.264 450.615,660.759 451.864,668.264 453.285,675.775 454.877,683.29 456.641,690.805 458.576,698.318 460.683,705.826 462.96,713.325 465.409,720.812 468.028,728.286 470.817,735.741 473.776,743.176 476.905,750.588 480.202,757.973 483.668,765.327 487.3,772.649 491.099,779.935 495.064,787.183 499.194,794.388 503.488,801.547 507.944,808.659 512.562,815.72 517.34,822.726 522.277,829.675 527.372,836.564 532.623,843.389 538.029,850.149 543.589,856.839 549.3,863.457 555.161,869.999 561.17,876.464 567.326,882.848 573.626,889.148 580.069,895.361 586.652,901.485 593.374,907.516 600.232,913.453 607.224,919.291 614.348,925.029 621.601,930.664 628.982,936.192 636.487,941.612 644.114,946.921 651.861,952.116 659.725,957.195 667.703,962.155 675.793,966.994 683.991,971.709 692.295,976.298 700.701,980.758 709.208,985.088 717.812,989.285 726.509,993.347 735.297,997.271 744.173,1001.06 753.133,1004.7 762.174,1008.2 771.293,1011.55 780.486,1014.76 789.75,1017.82 799.081,1020.73 808.477,1023.48 817.933,1026.08 827.446,1028.52 837.012,1030.81 846.628,1032.94 856.29,1034.9 865.994,1036.7 875.737,1038.34 885.514,1039.82 895.323,1041.13 905.158,1042.27 915.017,1043.24 924.895,1044.04 934.788,1044.68 944.693,1045.14 954.606,1045.43 964.522,1045.54 974.437,1045.49 984.348,1045.25 994.251,1044.85 1004.14,1044.27 1014.01,1043.51 1023.87,1042.57 1033.69,1041.46 1043.49,1040.17 1053.26,1038.71 1062.99,1037.07 1072.67,1035.25 1082.32,1033.25 1091.91,1031.08 1101.45,1028.73 1110.93,1026.2 1120.34,1023.5 1129.7,1020.62 1138.98,1017.57 1148.18,1014.34 1157.31,1010.94 1166.36,1007.36 1175.32,1003.61 1184.19,999.693 1192.96,995.603 1201.63,991.343 1210.2,986.914 1218.67,982.319 1227.02,977.557 1235.25,972.63 1243.37,967.54 1251.36,962.288 1259.23,956.876 1266.96,951.305 1274.56,945.577 1282.02,939.694 1289.33,933.657 1296.5,927.469 1303.51,921.132 1310.37,914.647 1317.07,908.018 1323.61,901.245 1329.97,894.332 1336.17,887.281 1342.19,880.095 1348.03,872.775 1353.69,865.325 1359.15,857.748 1364.43,850.045 1369.51,842.221 1374.39,834.278 1379.07,826.219 1383.54,818.048 1387.79,809.767 1391.83,801.38 1395.65,792.891 1399.24,784.302 1402.6,775.618 1405.73,766.842 1408.61,757.979 1411.26,749.031 1413.65,740.003 1415.79,730.899 1417.67,721.723 1419.29,712.479 1420.63,703.173 1421.7,693.808 1422.5,684.389 1423,674.921 1423.22,665.409 1423.13,655.857 1422.75,646.271 1422.05,636.656 1421.04,627.018 1419.71,617.362 1418.05,607.693 1416.06,598.017 1413.74,588.341 1411.07,578.669 1408.05,569.009 1404.67,559.367 1400.94,549.748 1396.85,540.159 1392.39,530.607 1387.56,521.098 1382.35,511.639 1376.78,502.237 1370.83,492.899 1364.51,483.631 1357.82,474.44 1350.76,465.332 1343.34,456.316 1335.56,447.397 1327.43,438.582 1318.96,429.877 1310.16,421.289 1301.05,412.825 1291.62,404.489 1281.91,396.288 1271.92,388.227 1261.68,380.311 1251.2,372.546 1240.5,364.936 1229.61,357.485 1218.55,350.197 1207.33,343.075 1195.98,336.123 1184.53,329.344 1172.99,322.739 1161.39,316.311 1149.74,310.062 1138.07,303.992 1126.39,298.103 1114.72,292.396 1103.08,286.871 1091.48,281.528 1079.93,276.366 1068.44,271.386 1057.03,266.588 1045.7,261.97 1034.45,257.532 1023.3,253.272 1012.24,249.191 1001.27,245.287 990.403,241.559 979.628,238.006 968.947,234.628 958.357,231.423 947.855,228.39 937.439,225.529 927.103,222.838 916.845,220.318 906.659,217.967 896.541,215.785 886.488,213.771 876.494,211.926 866.555,210.248 856.669,208.737 846.83,207.394 837.037,206.218 827.286,205.209 817.575,204.366 807.901,203.691 798.264,203.182 788.661,202.841 779.092,202.666 769.556,202.658 760.053,202.818 750.584,203.145 741.148,203.639 731.747,204.301 722.382,205.131 713.055,206.127 703.767,207.292 694.519,208.623 685.315,210.123 676.157,211.789 667.046,213.623 657.987,215.623 648.981,217.791 640.031,220.124 631.141,222.624 622.314,225.289 613.553,228.12 604.861,231.115 596.242,234.274 587.699,237.597 579.235,241.082 570.854,244.73 562.56,248.538 554.355,252.507 546.244,256.635 538.23,260.921 530.316,265.364 522.506,269.963 514.803,274.716 507.211,279.623 499.733,284.683 492.372,289.892 485.133,295.251 478.018,300.758 471.031,306.41 464.174,312.207 457.452,318.146 450.867,324.226 444.422,330.445 438.121,336.8 431.967,343.291 425.963,349.914 420.112,356.668 414.416,363.55 408.879,370.559 403.504,377.692 398.292,384.946 393.248,392.319 388.374,399.809 383.672,407.413 379.144,415.129 374.794,422.954 370.624,430.885 366.637,438.919 362.834,447.054 359.217,455.287 355.79,463.614 352.554,472.034 349.511,480.542 346.663,489.136 344.012,497.813 341.561,506.57 339.31,515.403 337.261,524.309 335.417,533.285 333.778,542.328 332.346,551.434 331.122,560.599 330.109,569.821 329.307,579.096 328.716,588.421 328.339,597.791 328.177,607.203 328.229,616.655 328.498,626.141 328.983,635.659 329.686,645.204 330.607,654.774 331.747,664.363 333.105,673.969 334.683,683.588 336.48,693.216 338.497,702.849 340.734,712.483 343.191,722.115 345.867,731.74 348.763,741.354 351.878,750.955 355.211,760.537 358.763,770.097 362.533,779.631 366.52,789.136 370.723,798.606 375.142,808.039 379.775,817.43 384.623,826.775 389.682,836.071 394.954,845.313 400.435,854.498 406.125,863.621 412.022,872.68 418.125,881.669 424.432,890.585 430.942,899.425 437.652,908.183 444.561,916.858 451.667,925.443 458.968,933.937 466.461,942.335 474.144,950.633 482.015,958.828 490.072,966.916 498.312,974.893 506.732,982.756 515.33,990.5 524.104,998.123 533.049,1005.62 542.164,1012.99 551.446,1020.23 560.891,1027.33 570.495,1034.29 580.257,1041.11 590.173,1047.79 600.239,1054.32 610.451,1060.69 620.807,1066.91 631.303,1072.97 641.935,1078.87 652.699,1084.61 663.592,1090.18 674.609,1095.57 685.748,1100.8 697.003,1105.85 708.37,1110.72 719.847,1115.41 731.428,1119.92 743.108,1124.24 754.885,1128.37 766.754,1132.31 778.709,1136.06 790.747,1139.61 802.863,1142.96 815.052,1146.11 827.311,1149.06 839.634,1151.81 852.016,1154.35 864.453,1156.68 876.94,1158.81 889.472,1160.72 902.044,1162.42 914.652,1163.9 927.29,1165.17 939.953,1166.22 952.637,1167.06 965.336,1167.67 978.045,1168.07 990.759,1168.24 1003.47,1168.19 1016.18,1167.91 1028.88,1167.41 1041.56,1166.69 1054.22,1165.74 1066.86,1164.56 1079.46,1163.16 1092.03,1161.53 1104.56,1159.68 1117.03,1157.59 1129.46,1155.28 1141.82,1152.75 1154.13,1149.98 1166.36,1146.99 1178.52,1143.78 1190.6,1140.34 1202.6,1136.67 1214.5,1132.78 1226.31,1128.66 1238.02,1124.32 1249.62,1119.76 1261.1,1114.98 1272.47,1109.98 1283.72,1104.75 1294.84,1099.32 1305.82,1093.66 1316.66,1087.79 1327.36,1081.71 1337.91,1075.42 1348.3,1068.92 1358.52,1062.21 1368.58,1055.3 1378.46,1048.18 1388.16,1040.86 1397.68,1033.35 1407,1025.64 1416.12,1017.73 1425.04,1009.64 1433.75,1001.36 1442.23,992.894 1450.49,984.248 1458.52,975.424 1466.3,966.426 1473.84,957.257 1481.11,947.921 1488.12,938.423 1494.86,928.765 1501.3,918.953 1507.45,908.991 1513.3,898.884 1518.82,888.637 1524,878.254 1528.84,867.742 1533.32,857.105 1537.41,846.351 1541.11,835.485 1544.38,824.514 1547.22,813.446 1549.59,802.288 1551.46,791.047 1552.82,779.733 1553.63,768.355 1553.86,756.922 1553.47,745.444 1552.41,733.933 1550.66,722.4 1548.17,710.859 1544.88,699.322 1540.75,687.803 1535.74,676.319 1529.78,664.885 1522.82,653.519 1514.82,642.238 1505.72,631.062 1495.48,620.012 1484.06,609.107 1471.42,598.369 1457.55,587.822 1442.43,577.487 1426.06,567.387 1408.47,557.545 1389.7,547.982 1369.8,538.722 1348.86,529.783 1326.98,521.184 1304.28,512.943 1280.9,505.074 1257,497.588 1232.73,490.496 1208.28,483.804 1183.82,477.515 1159.52,471.629 1135.54,466.144 1112.05,461.054 1089.16,456.351 1067.01,452.025 1045.68,448.064 1025.25,444.454 1005.77,441.18 987.284,438.226 969.798,435.577 953.311,433.215 937.807,431.125 923.257,429.29 909.623,427.696 896.86,426.327 884.917,425.169 873.742,424.21 863.279,423.437 853.473,422.838 844.271,422.404 835.621,422.126 827.472,421.993 819.778,421.999 812.495,422.137 805.583,422.4 799.005,422.782 792.726,423.279 786.716,423.885 780.949,424.598 775.398,425.412 770.043,426.326 764.863,427.336 759.843,428.439 754.966,429.634 750.22,430.918 745.594,432.29 741.077,433.747 736.662,435.289 732.34,436.913 728.108,438.62 723.958,440.406 719.887,442.272 715.892,444.217 711.97,446.238 708.118,448.336 704.336,450.51 700.621,452.758 696.974,455.08 693.393,457.474 689.878,459.941 686.43,462.478 683.048,465.086 679.733,467.763 676.486,470.508 673.307,473.321 670.197,476.2 667.157,479.145 664.188,482.154 661.291,485.227 658.467,488.363 655.717,491.56 653.042,494.817 650.444,498.134 647.923,501.51 645.481,504.942 643.118,508.43 640.837,511.973 638.637,515.57 636.521,519.219 634.489,522.919 632.542,526.669 630.682,530.467 628.909,534.312 627.225,538.203 625.63,542.139 624.126,546.118 622.714,550.138 621.393,554.198 620.166,558.297 619.033,562.433 617.995,566.605 617.052,570.811 616.206,575.049 615.457,579.318 614.806,583.617 614.253,587.944 613.8,592.297 613.446,596.674 613.192,601.074 613.039,605.496 612.987,609.937 613.037,614.395 613.188,618.87 613.442,623.36 613.799,627.861 614.258,632.374 614.82,636.896 615.486,641.425 616.255,645.96 617.127,650.499 618.103,655.039 619.183,659.58 620.366,664.119 621.653,668.654 623.043,673.184 624.536,677.707 626.133,682.221 627.832,686.724 629.634,691.215 631.537,695.691 633.543,700.15 635.651,704.591 637.859,709.012 640.168,713.411 642.577,717.787 645.085,722.136 647.692,726.459 650.398,730.751 653.2,735.013 656.1,739.242 659.096,743.435 662.186,747.593 665.371,751.711 668.65,755.79 672.021,759.826 675.483,763.819 679.036,767.766 682.678,771.665 686.408,775.516 690.226,779.315 694.129,783.062 698.117,786.755 702.188,790.391 706.342,793.97 710.576,797.49 714.89,800.949 719.282,804.345 723.75,807.677 728.294,810.943 732.911,814.141 737.6,817.271 742.359,820.33 747.187,823.318 752.082,826.232 757.042,829.071 762.066,831.834 767.152,834.519 772.298,837.124 777.502,839.65 782.763,842.093 788.077,844.454 793.445,846.73 798.863,848.921 804.33,851.024 809.843,853.04 815.401,854.967 821.002,856.803 826.643,858.548 832.322,860.2 838.038,861.759 843.787,863.224 849.568,864.593 855.38,865.865 861.218,867.041 867.082,868.118 872.968,869.097 878.876,869.976 884.801,870.754 890.743,871.432 896.699,872.007 902.665,872.48 908.641,872.85 914.624,873.117 920.61,873.279 926.599,873.337 932.587,873.29 938.572,873.138 944.551,872.88 950.523,872.516 956.484,872.045 962.433,871.469 968.366,870.785 974.282,869.995 980.178,869.097 986.051,868.093 991.898,866.982 997.719,865.764 1003.51,864.439 1009.27,863.007 1014.99,861.469 1020.68,859.824 1026.32,858.073 1031.92,856.216 1037.48,854.254 1042.99,852.187 1048.46,850.015 1053.87,847.739 1059.22,845.359 1064.52,842.876 1069.76,840.29 1074.94,837.603 1080.05,834.814 1085.1,831.926 1090.08,828.937 1094.98,825.85 1099.82,822.664 1104.58,819.382 1109.26,816.003 1113.86,812.53 1118.38,808.962 1122.81,805.302 1127.16,801.55 1131.42,797.707 1135.59,793.774 1139.66,789.754 1143.64,785.646 1147.52,781.454 1151.31,777.176 1154.99,772.817 1158.57,768.376 1162.05,763.855 1165.41,759.256 1168.67,754.58 1171.82,749.829 1174.86,745.005 1177.79,740.109 1180.59,735.143 1183.28,730.109 1185.86,725.009 1188.31,719.844 1190.64,714.616 1192.85,709.327 1194.93,703.98 1196.88,698.576 1198.71,693.116 1200.41,687.604 1201.98,682.041 1203.42,676.43 1204.73,670.771 1205.9,665.069 1206.94,659.324 1207.84,653.538 1208.61,647.716 1209.24,641.857 1209.73,635.965 1210.08,630.042 1210.3,624.09 1210.37,618.112 1210.31,612.11 1210.1,606.087 1209.75,600.044 1209.26,593.984 1208.63,587.909 1207.85,581.823 1206.93,575.727 1205.87,569.625 1204.67,563.517 1203.32,557.408 1201.84,551.299 1200.21,545.192 1198.43,539.092 1196.52,532.999 1194.46,526.917 1192.27,520.847 1189.93,514.793 1187.45,508.757 1184.84,502.742 1182.08,496.75 1179.19,490.783 1176.16,484.844 1173,478.936 1169.7,473.061 1166.27,467.222 1162.7,461.421 1159,455.66 1155.18,449.942 1151.22,444.27 1147.14,438.645 1142.93,433.071 1138.6,427.55 1134.14,422.083 1129.56,416.674 1124.86,411.325 1120.05,406.038 1115.11,400.815 1110.07,395.66 1104.91,390.573 1099.63,385.557 1094.25,380.615 1088.77,375.749 1083.17,370.96 1077.48,366.251 1071.68,361.625 1065.78,357.082 1059.78,352.626 1053.69,348.258 1047.51,343.981 1041.24,339.796 1034.87,335.705 1028.42,331.71 1021.89,327.813 1015.27,324.016 1008.58,320.321 1001.8,316.729 994.954,313.243 988.032,309.863 981.039,306.592 973.978,303.432 966.851,300.384 959.661,297.449 952.41,294.629 945.101,291.925 937.736,289.34 930.317,286.875 922.848,284.53 915.331,282.307 907.768,280.208 900.163,278.234 892.517,276.386 884.834,274.665 877.117,273.072 869.367,271.609 861.589,270.277 853.784,269.076 845.957,268.007 838.108,267.072 830.242,266.271 822.362,265.605 814.47,265.075 806.57,264.682 798.663,264.426 790.755,264.308 782.846,264.328 774.942,264.488 767.044,264.787 759.155,265.225 751.28,265.804 743.42,266.524 735.58,267.384 727.762,268.385 719.969,269.527 712.205,270.811 704.473,272.236 696.775,273.802 689.116,275.509 681.498,277.357 673.924,279.346 666.398,281.476 658.923,283.746 651.502,286.156 644.138,288.705 636.834,291.394 629.594,294.221 622.42,297.186 615.316,300.288 608.285,303.527 601.329,306.902 594.453,310.412 587.658,314.056 580.949,317.833 574.327,321.742 567.797,325.783 561.36,329.953 555.021,334.253 548.781,338.68 542.644,343.234 536.613,347.913 530.69,352.716 524.878,357.641 519.181,362.687 513.6,367.852 508.138,373.135 502.799,378.534 497.584,384.047 492.496,389.673 487.539,395.409 482.713,401.255 478.023,407.208 473.469,413.265 469.055,419.426 464.783,425.687 460.655,432.048 456.674,438.505 452.841,445.057 449.159,451.701 445.629,458.435 442.254,465.257 439.036,472.164 435.977,479.154 433.078,486.224 430.341,493.372 427.768,500.595 425.362,507.891 423.122,515.257 421.051,522.69 419.151,530.188 417.423,537.748 415.868,545.367 414.487,553.043 413.282,560.772 412.254,568.551 411.404,576.379 410.734,584.251 410.243,592.164 409.934,600.117 409.806,608.105 409.861,616.126 410.099,624.176 410.522,632.253 411.129,640.353 411.921,648.473 412.898,656.611 414.061,664.762 415.411,672.924 416.946,681.093 418.668,689.266 420.577,697.44 422.672,705.612 424.953,713.778 427.421,721.935 430.074,730.08 432.913,738.209 435.937,746.319 439.146,754.407 442.539,762.47 446.116,770.503 449.875,778.505 453.817,786.471 457.94,794.397 462.243,802.282 466.725,810.121 "/>
</svg>
