<svg xmlns="http://www.w3.org/2000/svg" width="620" height="222" font-family="ui-monospace,SFMono-Regular,Menlo,monospace" font-size="11">
<text x="8" y="14" font-size="12" fill="#444">tolerance budget spent (delta / tol)</text>
<text x="242" y="39" text-anchor="end" fill="#333">occursin(&quot;&lt;div class=\&quot;figgrid\…</text>
<rect x="250" y="29" width="1.0" height="11" fill="#4c9f70" rx="2"/>
<text x="256.0" y="39" fill="#666">0.0</text>
<text x="242" y="57" text-anchor="end" fill="#333">occursin(&quot;&lt;div class=\&quot;figgrid …</text>
<rect x="250" y="47" width="1.0" height="11" fill="#4c9f70" rx="2"/>
<text x="256.0" y="57" fill="#666">0.0</text>
<text x="242" y="75" text-anchor="end" fill="#333">occursin(&quot;&lt;div class=\&quot;figgrid …</text>
<rect x="250" y="65" width="1.0" height="11" fill="#4c9f70" rx="2"/>
<text x="256.0" y="75" fill="#666">0.0</text>
<text x="242" y="93" text-anchor="end" fill="#333">occursin(&quot;.figgrid-single{&quot;, html)</text>
<rect x="250" y="83" width="1.0" height="11" fill="#4c9f70" rx="2"/>
<text x="256.0" y="93" fill="#666">0.0</text>
<text x="242" y="111" text-anchor="end" fill="#333">occursin(&quot;.figgrid-wide{&quot;, html)</text>
<rect x="250" y="101" width="1.0" height="11" fill="#4c9f70" rx="2"/>
<text x="256.0" y="111" fill="#666">0.0</text>
<text x="242" y="129" text-anchor="end" fill="#333">occursin(&quot;&lt;div class=\&quot;figgrid\…</text>
<rect x="250" y="119" width="1.0" height="11" fill="#4c9f70" rx="2"/>
<text x="256.0" y="129" fill="#666">0.0</text>
<text x="242" y="147" text-anchor="end" fill="#333">!(occursin(&quot;&lt;div class=\&quot;figgri…</text>
<rect x="250" y="137" width="1.0" height="11" fill="#4c9f70" rx="2"/>
<text x="256.0" y="147" fill="#666">0.0</text>
<text x="242" y="165" text-anchor="end" fill="#333">!(occursin(&quot;&lt;div class=\&quot;figgri…</text>
<rect x="250" y="155" width="1.0" height="11" fill="#4c9f70" rx="2"/>
<text x="256.0" y="165" fill="#666">0.0</text>
<text x="242" y="183" text-anchor="end" fill="#333">#= /home/runner/work/Pinax.jl/P…</text>
<rect x="250" y="173" width="1.0" height="11" fill="#4c9f70" rx="2"/>
<text x="256.0" y="183" fill="#666">0.0</text>
<line x1="508.33333333333337" y1="22" x2="508.33333333333337" y2="190" stroke="#d9534f" stroke-width="1" stroke-dasharray="3,2"/>
<text x="511.33333333333337" y="202" fill="#d9534f">tol</text>
<line x1="250" y1="22" x2="250" y2="190" stroke="#bbb" stroke-width="1"/>
</svg>
