<svg xmlns="http://www.w3.org/2000/svg" width="620" height="492" font-family="ui-monospace,SFMono-Regular,Menlo,monospace" font-size="11">
<text x="8" y="14" font-size="12" fill="#444">tolerance budget spent (delta / tol)</text>
<text x="242" y="39" text-anchor="end" fill="#333">occursin(&quot;Sec. 1&quot;, html)</text>
<rect x="250" y="29" width="1.0" height="11" fill="#4c9f70" rx="2"/>
<text x="256.0" y="39" fill="#666">0.0</text>
<text x="242" y="57" text-anchor="end" fill="#333">occursin(&quot;Sec. 2&quot;, html)</text>
<rect x="250" y="47" width="1.0" height="11" fill="#4c9f70" rx="2"/>
<text x="256.0" y="57" fill="#666">0.0</text>
<text x="242" y="75" text-anchor="end" fill="#333">occursin(&quot;Fig. 1&quot;, html)</text>
<rect x="250" y="65" width="1.0" height="11" fill="#4c9f70" rx="2"/>
<text x="256.0" y="75" fill="#666">0.0</text>
<text x="242" y="93" text-anchor="end" fill="#333">occursin(&quot;Fig. 2&quot;, html)</text>
<rect x="250" y="83" width="1.0" height="11" fill="#4c9f70" rx="2"/>
<text x="256.0" y="93" fill="#666">0.0</text>
<text x="242" y="111" text-anchor="end" fill="#333">occursin(&quot;Fig. 3&quot;, html)</text>
<rect x="250" y="101" width="1.0" height="11" fill="#4c9f70" rx="2"/>
<text x="256.0" y="111" fill="#666">0.0</text>
<text x="242" y="129" text-anchor="end" fill="#333">occursin(&quot;&lt;a href=\&quot;#results\&quot;&gt;…</text>
<rect x="250" y="119" width="1.0" height="11" fill="#4c9f70" rx="2"/>
<text x="256.0" y="129" fill="#666">0.0</text>
<text x="242" y="147" text-anchor="end" fill="#333">occursin(&quot;&lt;a href=\&quot;#keyfig\&quot;&gt;F…</text>
<rect x="250" y="137" width="1.0" height="11" fill="#4c9f70" rx="2"/>
<text x="256.0" y="147" fill="#666">0.0</text>
<text x="242" y="165" text-anchor="end" fill="#333">occursin(&quot;&lt;a href=\&quot;#b\&quot;&gt;the re…</text>
<rect x="250" y="155" width="1.0" height="11" fill="#4c9f70" rx="2"/>
<text x="256.0" y="165" fill="#666">0.0</text>
<text x="242" y="183" text-anchor="end" fill="#333">occursin(&quot;&lt;a href=\&quot;#first\&quot;&gt;Fi…</text>
<rect x="250" y="173" width="1.0" height="11" fill="#4c9f70" rx="2"/>
<text x="256.0" y="183" fill="#666">0.0</text>
<text x="242" y="201" text-anchor="end" fill="#333">occursin(&quot;[?]&quot;, html)</text>
<rect x="250" y="191" width="1.0" height="11" fill="#4c9f70" rx="2"/>
<text x="256.0" y="201" fill="#666">0.0</text>
<text x="242" y="219" text-anchor="end" fill="#333">occursin(&quot;unknown id :ghost&quot;, h…</text>
<rect x="250" y="209" width="1.0" height="11" fill="#4c9f70" rx="2"/>
<text x="256.0" y="219" fill="#666">0.0</text>
<text x="242" y="237" text-anchor="end" fill="#333">count(&quot;Fig. 1&quot;, html) == 2</text>
<rect x="250" y="227" width="1.0" height="11" fill="#4c9f70" rx="2"/>
<text x="256.0" y="237" fill="#666">0.0</text>
<text x="242" y="255" text-anchor="end" fill="#333">count(&quot;Sec. 1&quot;, html) == 2</text>
<rect x="250" y="245" width="1.0" height="11" fill="#4c9f70" rx="2"/>
<text x="256.0" y="255" fill="#666">0.0</text>
<text x="242" y="273" text-anchor="end" fill="#333">occursin(&quot;Figure 1&quot;, html)</text>
<rect x="250" y="263" width="1.0" height="11" fill="#4c9f70" rx="2"/>
<text x="256.0" y="273" fill="#666">0.0</text>
<text x="242" y="291" text-anchor="end" fill="#333">occursin(&quot;Section 1&quot;, html)</text>
<rect x="250" y="281" width="1.0" height="11" fill="#4c9f70" rx="2"/>
<text x="256.0" y="291" fill="#666">0.0</text>
<text x="242" y="309" text-anchor="end" fill="#333">!(occursin(&quot;Fig. 1&quot;, html))</text>
<rect x="250" y="299" width="1.0" height="11" fill="#4c9f70" rx="2"/>
<text x="256.0" y="309" fill="#666">0.0</text>
<text x="242" y="327" text-anchor="end" fill="#333">occursin(&quot;Fig. 1.1&quot;, html)</text>
<rect x="250" y="317" width="1.0" height="11" fill="#4c9f70" rx="2"/>
<text x="256.0" y="327" fill="#666">0.0</text>
<text x="242" y="345" text-anchor="end" fill="#333">occursin(&quot;Fig. 1.2&quot;, html)</text>
<rect x="250" y="335" width="1.0" height="11" fill="#4c9f70" rx="2"/>
<text x="256.0" y="345" fill="#666">0.0</text>
<text x="242" y="363" text-anchor="end" fill="#333">occursin(&quot;Fig. 2.1&quot;, html)</text>
<rect x="250" y="353" width="1.0" height="11" fill="#4c9f70" rx="2"/>
<text x="256.0" y="363" fill="#666">0.0</text>
<text x="242" y="381" text-anchor="end" fill="#333">occursin(&quot;&lt;a href=\&quot;#k\&quot;&gt;Plot 1…</text>
<rect x="250" y="371" width="1.0" height="11" fill="#4c9f70" rx="2"/>
<text x="256.0" y="381" fill="#666">0.0</text>
<text x="242" y="399" text-anchor="end" fill="#333">occursin(&quot;EQ1&quot;, html)</text>
<rect x="250" y="389" width="1.0" height="11" fill="#4c9f70" rx="2"/>
<text x="256.0" y="399" fill="#666">0.0</text>
<text x="242" y="417" text-anchor="end" fill="#333">occursin(&quot;EQ2&quot;, html)</text>
<rect x="250" y="407" width="1.0" height="11" fill="#4c9f70" rx="2"/>
<text x="256.0" y="417" fill="#666">0.0</text>
<text x="242" y="435" text-anchor="end" fill="#333">occursin(&quot;GQ1&quot;, html)</text>
<rect x="250" y="425" width="1.0" height="11" fill="#4c9f70" rx="2"/>
<text x="256.0" y="435" fill="#666">0.0</text>
<text x="242" y="453" text-anchor="end" fill="#333">!(occursin(&quot;EQ3&quot;, html))</text>
<rect x="250" y="443" width="1.0" height="11" fill="#4c9f70" rx="2"/>
<text x="256.0" y="453" fill="#666">0.0</text>
<line x1="508.33333333333337" y1="22" x2="508.33333333333337" y2="460" stroke="#d9534f" stroke-width="1" stroke-dasharray="3,2"/>
<text x="511.33333333333337" y="472" fill="#d9534f">tol</text>
<line x1="250" y1="22" x2="250" y2="460" stroke="#bbb" stroke-width="1"/>
</svg>
