<?xml version="1.0" encoding="utf-8"?>
<svg xmlns="http://www.w3.org/2000/svg" xmlns:xlink="http://www.w3.org/1999/xlink" width="420" height="360" viewBox="0 0 1680 1440">
<defs>
  <clipPath id="clip010">
    <rect x="0" y="0" width="1680" height="1440"/>
  </clipPath>
</defs>
<path clip-path="url(#clip010)" d="M0 1440 L1680 1440 L1680 0 L0 0  Z" fill="#ffffff" fill-rule="evenodd" fill-opacity="1"/>
<defs>
  <clipPath id="clip011">
    <rect x="211" y="140" width="1422" height="1102"/>
  </clipPath>
</defs>
<path clip-path="url(#clip010)" d="M248.512 1241.33 L1632.76 1241.33 L1632.76 140.752 L248.512 140.752  Z" fill="#ffffff" fill-rule="evenodd" fill-opacity="1"/>
<defs>
  <clipPath id="clip012">
    <rect x="248" y="140" width="1385" height="1102"/>
  </clipPath>
</defs>
<polyline clip-path="url(#clip012)" style="stroke:#000000; stroke-linecap:round; stroke-linejoin:round; stroke-width:2; stroke-opacity:0.1; fill:none" points="559.971,1241.33 559.971,140.752 "/>
<polyline clip-path="url(#clip012)" style="stroke:#000000; stroke-linecap:round; stroke-linejoin:round; stroke-width:2; stroke-opacity:0.1; fill:none" points="910.456,1241.33 910.456,140.752 "/>
<polyline clip-path="url(#clip012)" style="stroke:#000000; stroke-linecap:round; stroke-linejoin:round; stroke-width:2; stroke-opacity:0.1; fill:none" points="1260.94,1241.33 1260.94,140.752 "/>
<polyline clip-path="url(#clip012)" style="stroke:#000000; stroke-linecap:round; stroke-linejoin:round; stroke-width:2; stroke-opacity:0.1; fill:none" points="1611.43,1241.33 1611.43,140.752 "/>
<polyline clip-path="url(#clip012)" style="stroke:#000000; stroke-linecap:round; stroke-linejoin:round; stroke-width:2; stroke-opacity:0.1; fill:none" points="248.512,1134.67 1632.76,1134.67 "/>
<polyline clip-path="url(#clip012)" style="stroke:#000000; stroke-linecap:round; stroke-linejoin:round; stroke-width:2; stroke-opacity:0.1; fill:none" points="248.512,930.621 1632.76,930.621 "/>
<polyline clip-path="url(#clip012)" style="stroke:#000000; stroke-linecap:round; stroke-linejoin:round; stroke-width:2; stroke-opacity:0.1; fill:none" points="248.512,726.57 1632.76,726.57 "/>
<polyline clip-path="url(#clip012)" style="stroke:#000000; stroke-linecap:round; stroke-linejoin:round; stroke-width:2; stroke-opacity:0.1; fill:none" points="248.512,522.52 1632.76,522.52 "/>
<polyline clip-path="url(#clip012)" style="stroke:#000000; stroke-linecap:round; stroke-linejoin:round; stroke-width:2; stroke-opacity:0.1; fill:none" points="248.512,318.469 1632.76,318.469 "/>
<polyline clip-path="url(#clip010)" style="stroke:#000000; stroke-linecap:round; stroke-linejoin:round; stroke-width:4; stroke-opacity:1; fill:none" points="248.512,1241.33 1632.76,1241.33 "/>
<polyline clip-path="url(#clip010)" style="stroke:#000000; stroke-linecap:round; stroke-linejoin:round; stroke-width:4; stroke-opacity:1; fill:none" points="559.971,1241.33 559.971,1222.43 "/>
<polyline clip-path="url(#clip010)" style="stroke:#000000; stroke-linecap:round; stroke-linejoin:round; stroke-width:4; stroke-opacity:1; fill:none" points="910.456,1241.33 910.456,1222.43 "/>
<polyline clip-path="url(#clip010)" style="stroke:#000000; stroke-linecap:round; stroke-linejoin:round; stroke-width:4; stroke-opacity:1; fill:none" points="1260.94,1241.33 1260.94,1222.43 "/>
<polyline clip-path="url(#clip010)" style="stroke:#000000; stroke-linecap:round; stroke-linejoin:round; stroke-width:4; stroke-opacity:1; fill:none" points="1611.43,1241.33 1611.43,1222.43 "/>
<path clip-path="url(#clip010)" d="M514.034 1281.14 L543.71 1281.14 L543.71 1285.07 L514.034 1285.07 L514.034 1281.14 Z" fill="#000000" fill-rule="nonzero" fill-opacity="1" /><path clip-path="url(#clip010)" d="M554.612 1294.03 L562.251 1294.03 L562.251 1267.67 L553.941 1269.33 L553.941 1265.08 L562.205 1263.41 L566.881 1263.41 L566.881 1294.03 L574.52 1294.03 L574.52 1297.97 L554.612 1297.97 L554.612 1294.03 Z" fill="#000000" fill-rule="nonzero" fill-opacity="1" /><path clip-path="url(#clip010)" d="M593.964 1266.49 Q590.353 1266.49 588.524 1270.05 Q586.719 1273.59 586.719 1280.72 Q586.719 1287.83 588.524 1291.39 Q590.353 1294.94 593.964 1294.94 Q597.598 1294.94 599.404 1291.39 Q601.232 1287.83 601.232 1280.72 Q601.232 1273.59 599.404 1270.05 Q597.598 1266.49 593.964 1266.49 M593.964 1262.78 Q599.774 1262.78 602.83 1267.39 Q605.908 1271.97 605.908 1280.72 Q605.908 1289.45 602.83 1294.06 Q599.774 1298.64 593.964 1298.64 Q588.154 1298.64 585.075 1294.06 Q582.02 1289.45 582.02 1280.72 Q582.02 1271.97 585.075 1267.39 Q588.154 1262.78 593.964 1262.78 Z" fill="#000000" fill-rule="nonzero" fill-opacity="1" /><path clip-path="url(#clip010)" d="M910.456 1266.49 Q906.845 1266.49 905.016 1270.05 Q903.211 1273.59 903.211 1280.72 Q903.211 1287.83 905.016 1291.39 Q906.845 1294.94 910.456 1294.94 Q914.09 1294.94 915.896 1291.39 Q917.724 1287.83 917.724 1280.72 Q917.724 1273.59 915.896 1270.05 Q914.09 1266.49 910.456 1266.49 M910.456 1262.78 Q916.266 1262.78 919.322 1267.39 Q922.4 1271.97 922.4 1280.72 Q922.4 1289.45 919.322 1294.06 Q916.266 1298.64 910.456 1298.64 Q904.646 1298.64 901.567 1294.06 Q898.512 1289.45 898.512 1280.72 Q898.512 1271.97 901.567 1267.39 Q904.646 1262.78 910.456 1262.78 Z" fill="#000000" fill-rule="nonzero" fill-opacity="1" /><path clip-path="url(#clip010)" d="M1235.63 1294.03 L1243.27 1294.03 L1243.27 1267.67 L1234.96 1269.33 L1234.96 1265.08 L1243.22 1263.41 L1247.9 1263.41 L1247.9 1294.03 L1255.54 1294.03 L1255.54 1297.97 L1235.63 1297.97 L1235.63 1294.03 Z" fill="#000000" fill-rule="nonzero" fill-opacity="1" /><path clip-path="url(#clip010)" d="M1274.98 1266.49 Q1271.37 1266.49 1269.54 1270.05 Q1267.73 1273.59 1267.73 1280.72 Q1267.73 1287.83 1269.54 1291.39 Q1271.37 1294.94 1274.98 1294.94 Q1278.61 1294.94 1280.42 1291.39 Q1282.25 1287.83 1282.25 1280.72 Q1282.25 1273.59 1280.42 1270.05 Q1278.61 1266.49 1274.98 1266.49 M1274.98 1262.78 Q1280.79 1262.78 1283.85 1267.39 Q1286.92 1271.97 1286.92 1280.72 Q1286.92 1289.45 1283.85 1294.06 Q1280.79 1298.64 1274.98 1298.64 Q1269.17 1298.64 1266.09 1294.06 Q1263.04 1289.45 1263.04 1280.72 Q1263.04 1271.97 1266.09 1267.39 Q1269.17 1262.78 1274.98 1262.78 Z" fill="#000000" fill-rule="nonzero" fill-opacity="1" /><path clip-path="url(#clip010)" d="M1590.2 1294.03 L1606.52 1294.03 L1606.52 1297.97 L1584.57 1297.97 L1584.57 1294.03 Q1587.24 1291.28 1591.82 1286.65 Q1596.43 1282 1597.61 1280.65 Q1599.85 1278.13 1600.73 1276.39 Q1601.63 1274.64 1601.63 1272.95 Q1601.63 1270.19 1599.69 1268.45 Q1597.77 1266.72 1594.67 1266.72 Q1592.47 1266.72 1590.01 1267.48 Q1587.58 1268.25 1584.81 1269.8 L1584.81 1265.08 Q1587.63 1263.94 1590.08 1263.36 Q1592.54 1262.78 1594.57 1262.78 Q1599.94 1262.78 1603.14 1265.47 Q1606.33 1268.15 1606.33 1272.64 Q1606.33 1274.77 1605.52 1276.7 Q1604.74 1278.59 1602.63 1281.19 Q1602.05 1281.86 1598.95 1285.07 Q1595.85 1288.27 1590.2 1294.03 Z" fill="#000000" fill-rule="nonzero" fill-opacity="1" /><path clip-path="url(#clip010)" d="M1626.33 1266.49 Q1622.72 1266.49 1620.89 1270.05 Q1619.09 1273.59 1619.09 1280.72 Q1619.09 1287.83 1620.89 1291.39 Q1622.72 1294.94 1626.33 1294.94 Q1629.97 1294.94 1631.77 1291.39 Q1633.6 1287.83 1633.6 1280.72 Q1633.6 1273.59 1631.77 1270.05 Q1629.97 1266.49 1626.33 1266.49 M1626.33 1262.78 Q1632.14 1262.78 1635.2 1267.39 Q1638.28 1271.97 1638.28 1280.72 Q1638.28 1289.45 1635.2 1294.06 Q1632.14 1298.64 1626.33 1298.64 Q1620.52 1298.64 1617.44 1294.06 Q1614.39 1289.45 1614.39 1280.72 Q1614.39 1271.97 1617.44 1267.39 Q1620.52 1262.78 1626.33 1262.78 Z" fill="#000000" fill-rule="nonzero" fill-opacity="1" /><path clip-path="url(#clip010)" d="M957.248 1339.74 L944.358 1357.09 L957.917 1375.39 L951.01 1375.39 L940.634 1361.39 L930.258 1375.39 L923.351 1375.39 L937.196 1356.74 L924.529 1339.74 L931.435 1339.74 L940.888 1352.44 L950.342 1339.74 L957.248 1339.74 Z" fill="#000000" fill-rule="nonzero" fill-opacity="1" /><polyline clip-path="url(#clip010)" style="stroke:#000000; stroke-linecap:round; stroke-linejoin:round; stroke-width:4; stroke-opacity:1; fill:none" points="248.512,1241.33 248.512,140.752 "/>
<polyline clip-path="url(#clip010)" style="stroke:#000000; stroke-linecap:round; stroke-linejoin:round; stroke-width:4; stroke-opacity:1; fill:none" points="248.512,1134.67 267.409,1134.67 "/>
<polyline clip-path="url(#clip010)" style="stroke:#000000; stroke-linecap:round; stroke-linejoin:round; stroke-width:4; stroke-opacity:1; fill:none" points="248.512,930.621 267.409,930.621 "/>
<polyline clip-path="url(#clip010)" style="stroke:#000000; stroke-linecap:round; stroke-linejoin:round; stroke-width:4; stroke-opacity:1; fill:none" points="248.512,726.57 267.409,726.57 "/>
<polyline clip-path="url(#clip010)" style="stroke:#000000; stroke-linecap:round; stroke-linejoin:round; stroke-width:4; stroke-opacity:1; fill:none" points="248.512,522.52 267.409,522.52 "/>
<polyline clip-path="url(#clip010)" style="stroke:#000000; stroke-linecap:round; stroke-linejoin:round; stroke-width:4; stroke-opacity:1; fill:none" points="248.512,318.469 267.409,318.469 "/>
<path clip-path="url(#clip010)" d="M131.437 1135.12 L161.113 1135.12 L161.113 1139.06 L131.437 1139.06 L131.437 1135.12 Z" fill="#000000" fill-rule="nonzero" fill-opacity="1" /><path clip-path="url(#clip010)" d="M175.233 1148.02 L191.553 1148.02 L191.553 1151.95 L169.608 1151.95 L169.608 1148.02 Q172.27 1145.26 176.854 1140.63 Q181.46 1135.98 182.641 1134.64 Q184.886 1132.11 185.766 1130.38 Q186.668 1128.62 186.668 1126.93 Q186.668 1124.17 184.724 1122.44 Q182.803 1120.7 179.701 1120.7 Q177.502 1120.7 175.048 1121.47 Q172.618 1122.23 169.84 1123.78 L169.84 1119.06 Q172.664 1117.92 175.118 1117.35 Q177.571 1116.77 179.608 1116.77 Q184.979 1116.77 188.173 1119.45 Q191.368 1122.14 191.368 1126.63 Q191.368 1128.76 190.557 1130.68 Q189.77 1132.58 187.664 1135.17 Q187.085 1135.84 183.983 1139.06 Q180.881 1142.25 175.233 1148.02 Z" fill="#000000" fill-rule="nonzero" fill-opacity="1" /><path clip-path="url(#clip010)" d="M211.367 1120.47 Q207.756 1120.47 205.928 1124.04 Q204.122 1127.58 204.122 1134.71 Q204.122 1141.81 205.928 1145.38 Q207.756 1148.92 211.367 1148.92 Q215.002 1148.92 216.807 1145.38 Q218.636 1141.81 218.636 1134.71 Q218.636 1127.58 216.807 1124.04 Q215.002 1120.47 211.367 1120.47 M211.367 1116.77 Q217.178 1116.77 220.233 1121.37 Q223.312 1125.96 223.312 1134.71 Q223.312 1143.43 220.233 1148.04 Q217.178 1152.62 211.367 1152.62 Q205.557 1152.62 202.479 1148.04 Q199.423 1143.43 199.423 1134.71 Q199.423 1125.96 202.479 1121.37 Q205.557 1116.77 211.367 1116.77 Z" fill="#000000" fill-rule="nonzero" fill-opacity="1" /><path clip-path="url(#clip010)" d="M131.437 931.072 L161.113 931.072 L161.113 935.008 L131.437 935.008 L131.437 931.072 Z" fill="#000000" fill-rule="nonzero" fill-opacity="1" /><path clip-path="url(#clip010)" d="M172.016 943.966 L179.655 943.966 L179.655 917.6 L171.344 919.267 L171.344 915.008 L179.608 913.341 L184.284 913.341 L184.284 943.966 L191.923 943.966 L191.923 947.901 L172.016 947.901 L172.016 943.966 Z" fill="#000000" fill-rule="nonzero" fill-opacity="1" /><path clip-path="url(#clip010)" d="M211.367 916.42 Q207.756 916.42 205.928 919.985 Q204.122 923.526 204.122 930.656 Q204.122 937.762 205.928 941.327 Q207.756 944.869 211.367 944.869 Q215.002 944.869 216.807 941.327 Q218.636 937.762 218.636 930.656 Q218.636 923.526 216.807 919.985 Q215.002 916.42 211.367 916.42 M211.367 912.716 Q217.178 912.716 220.233 917.323 Q223.312 921.906 223.312 930.656 Q223.312 939.383 220.233 943.989 Q217.178 948.572 211.367 948.572 Q205.557 948.572 202.479 943.989 Q199.423 939.383 199.423 930.656 Q199.423 921.906 202.479 917.323 Q205.557 912.716 211.367 912.716 Z" fill="#000000" fill-rule="nonzero" fill-opacity="1" /><path clip-path="url(#clip010)" d="M211.367 712.369 Q207.756 712.369 205.928 715.934 Q204.122 719.476 204.122 726.605 Q204.122 733.712 205.928 737.276 Q207.756 740.818 211.367 740.818 Q215.002 740.818 216.807 737.276 Q218.636 733.712 218.636 726.605 Q218.636 719.476 216.807 715.934 Q215.002 712.369 211.367 712.369 M211.367 708.665 Q217.178 708.665 220.233 713.272 Q223.312 717.855 223.312 726.605 Q223.312 735.332 220.233 739.938 Q217.178 744.522 211.367 744.522 Q205.557 744.522 202.479 739.938 Q199.423 735.332 199.423 726.605 Q199.423 717.855 202.479 713.272 Q205.557 708.665 211.367 708.665 Z" fill="#000000" fill-rule="nonzero" fill-opacity="1" /><path clip-path="url(#clip010)" d="M172.016 535.865 L179.655 535.865 L179.655 509.499 L171.344 511.166 L171.344 506.906 L179.608 505.24 L184.284 505.24 L184.284 535.865 L191.923 535.865 L191.923 539.8 L172.016 539.8 L172.016 535.865 Z" fill="#000000" fill-rule="nonzero" fill-opacity="1" /><path clip-path="url(#clip010)" d="M211.367 508.318 Q207.756 508.318 205.928 511.883 Q204.122 515.425 204.122 522.554 Q204.122 529.661 205.928 533.226 Q207.756 536.767 211.367 536.767 Q215.002 536.767 216.807 533.226 Q218.636 529.661 218.636 522.554 Q218.636 515.425 216.807 511.883 Q215.002 508.318 211.367 508.318 M211.367 504.615 Q217.178 504.615 220.233 509.221 Q223.312 513.804 223.312 522.554 Q223.312 531.281 220.233 535.888 Q217.178 540.471 211.367 540.471 Q205.557 540.471 202.479 535.888 Q199.423 531.281 199.423 522.554 Q199.423 513.804 202.479 509.221 Q205.557 504.615 211.367 504.615 Z" fill="#000000" fill-rule="nonzero" fill-opacity="1" /><path clip-path="url(#clip010)" d="M175.233 331.814 L191.553 331.814 L191.553 335.749 L169.608 335.749 L169.608 331.814 Q172.27 329.059 176.854 324.43 Q181.46 319.777 182.641 318.434 Q184.886 315.911 185.766 314.175 Q186.668 312.416 186.668 310.726 Q186.668 307.971 184.724 306.235 Q182.803 304.499 179.701 304.499 Q177.502 304.499 175.048 305.263 Q172.618 306.027 169.84 307.578 L169.84 302.856 Q172.664 301.721 175.118 301.143 Q177.571 300.564 179.608 300.564 Q184.979 300.564 188.173 303.249 Q191.368 305.934 191.368 310.425 Q191.368 312.555 190.557 314.476 Q189.77 316.374 187.664 318.967 Q187.085 319.638 183.983 322.856 Q180.881 326.05 175.233 331.814 Z" fill="#000000" fill-rule="nonzero" fill-opacity="1" /><path clip-path="url(#clip010)" d="M211.367 304.268 Q207.756 304.268 205.928 307.832 Q204.122 311.374 204.122 318.504 Q204.122 325.61 205.928 329.175 Q207.756 332.717 211.367 332.717 Q215.002 332.717 216.807 329.175 Q218.636 325.61 218.636 318.504 Q218.636 311.374 216.807 307.832 Q215.002 304.268 211.367 304.268 M211.367 300.564 Q217.178 300.564 220.233 305.17 Q223.312 309.754 223.312 318.504 Q223.312 327.23 220.233 331.837 Q217.178 336.42 211.367 336.42 Q205.557 336.42 202.479 331.837 Q199.423 327.23 199.423 318.504 Q199.423 309.754 202.479 305.17 Q205.557 300.564 211.367 300.564 Z" fill="#000000" fill-rule="nonzero" fill-opacity="1" /><path clip-path="url(#clip010)" d="M95.2915 689.353 Q101.657 691.836 103.599 694.191 Q105.54 696.547 105.54 700.493 L105.54 705.172 L100.639 705.172 L100.639 701.735 Q100.639 699.316 99.4928 697.979 Q98.347 696.642 94.082 695.019 L91.4084 693.968 L56.3333 708.387 L56.3333 702.18 L84.2151 691.04 L56.3333 679.9 L56.3333 673.694 L95.2915 689.353 Z" fill="#000000" fill-rule="nonzero" fill-opacity="1" /><path clip-path="url(#clip010)" d="M916.369 27.2059 L899.963 49.2833 L917.22 72.576 L908.429 72.576 L895.223 54.752 L882.017 72.576 L873.227 72.576 L890.848 48.8377 L874.726 27.2059 L883.516 27.2059 L895.547 43.369 L907.578 27.2059 L916.369 27.2059 Z" fill="#000000" fill-rule="nonzero" fill-opacity="1" /><path clip-path="url(#clip010)" d="M923.985 46.9338 L957.364 46.9338 L957.364 52.7671 L923.985 52.7671 L923.985 46.9338 Z" fill="#000000" fill-rule="nonzero" fill-opacity="1" /><path clip-path="url(#clip010)" d="M988.11 76.7889 Q984.951 84.8907 981.953 87.3618 Q978.955 89.8329 973.932 89.8329 L967.977 89.8329 L967.977 83.5945 L972.352 83.5945 Q975.431 83.5945 977.133 82.1361 Q978.834 80.6778 980.9 75.2496 L982.237 71.8468 L963.886 27.2059 L971.785 27.2059 L985.963 62.6918 L1000.14 27.2059 L1008.04 27.2059 L988.11 76.7889 Z" fill="#000000" fill-rule="nonzero" fill-opacity="1" /><polyline clip-path="url(#clip012)" style="stroke:#009af9; stroke-linecap:round; stroke-linejoin:round; stroke-width:1.6; stroke-opacity:1; fill:none" points="945.505,706.165 947.217,695.474 952.056,683.955 959.861,670.692 970.78,654.797 985.218,635.334 1003.81,611.276 1027.41,581.488 1057.1,544.765 1094.1,499.974 1139.75,446.396 1195.2,384.384 1260.95,316.534 1336.04,249.394 1416.73,195.195 1495.21,171.901 1559.1,198.531 1593.58,284.397 1586.78,418.179 1535.9,569.138 1449.16,703.61 1341.81,802.061 1229.48,862.605 1123.68,893.658 1030.69,905.768 952.644,907.454 889.104,904.355 838.346,899.792 798.19,895.555 766.453,892.517 741.171,891.031 720.672,891.166 703.597,892.833 688.874,895.858 675.689,900.019 663.45,905.057 651.758,910.688 640.378,916.603 629.218,922.466 618.312,927.924 607.798,932.611 597.902,936.173 588.917,938.287 581.171,938.697 574.998,937.244 570.702,933.896 568.519,928.767 568.583,922.109 570.904,914.301 575.359,905.8 581.699,897.1 589.565,888.675 598.528,880.94 608.117,874.224 617.863,868.756 627.325,864.669 636.114,862.015 643.907,860.782 650.45,860.915 655.556,862.331 659.103,864.933 661.02,868.614 661.285,873.265 659.913,878.77 656.955,885.002 652.495,891.818 646.65,899.05 639.572,906.5 631.454,913.928 622.535,921.058 613.103,927.576 603.496,933.14 594.098,937.405 585.329,940.046 577.625,940.799 571.411,939.499 567.065,936.112 564.882,930.762 565.041,923.725 567.579,915.416 572.381,906.339 579.189,897.036 587.626,888.027 597.228,879.764 607.494,872.6 617.918,866.777 628.031,862.431 637.418,859.611 645.739,858.294 652.728,858.415 658.193,859.88 662.01,862.585 664.108,866.419 664.465,871.267 663.101,877.013 660.068,883.532 655.449,890.681 649.362,898.293 641.961,906.168 633.44,914.061 624.041,921.685 614.059,928.709 603.846,934.768 593.803,939.485 584.378,942.499 576.038,943.51 569.245,942.319 564.419,938.871 561.891,933.282 561.869,925.841 564.407,916.992 569.393,907.284 576.557,897.309 585.492,887.639 595.702,878.766 606.642,871.074 617.768,864.822 628.571,860.151 638.609,857.104 647.519,855.65 655.019,855.713 660.911,857.189 665.063,859.963 667.406,863.917 667.919,868.936 666.62,874.902 663.564,881.691 658.834,889.165 652.546,897.158 644.852,905.471 635.945,913.857 626.07,922.021 615.525,929.616 604.67,936.253 593.926,941.521 583.763,945.021 574.686,946.407 567.197,945.437 561.76,942.023 558.755,936.263 558.427,928.455 560.858,919.067 565.946,908.695 573.411,897.989 582.825,887.577 593.652,878.004 605.304,869.691 617.189,862.919 628.758,857.839 639.533,854.491 649.124,852.836 657.23,852.784 663.641,854.219 668.221,857.016 670.897,861.051 671.649,866.205 670.496,872.36 667.491,879.395 662.716,887.176 656.285,895.543 648.346,904.301 639.09,913.204 628.755,921.952 617.643,930.186 606.119,937.496 594.617,943.434 583.631,947.558 573.7,949.467 565.373,948.867 559.166,945.622 555.514,939.8 554.715,931.691 556.889,921.786 561.957,910.726 569.639,899.225 579.486,887.977 590.925,877.593 603.32,868.541 616.028,861.135 628.449,855.539 640.064,851.793 650.447,849.85 659.276,849.608 666.324,850.937 671.447,853.699 674.568,857.762 675.666,863.003 674.76,869.304 671.901,876.547 667.171,884.605 660.678,893.327 652.565,902.524 643.013,911.959 632.257,921.331 620.592,930.273 608.383,938.356 596.073,945.101 584.177,950.014 573.265,952.635 563.934,952.603 556.761,949.715 552.248,943.99 550.759,935.693 552.472,925.327 557.344,913.574 565.111,901.216 575.309,889.029 587.331,877.699 600.489,867.761 614.082,859.572 627.452,853.319 640.026,849.049 651.337,846.708 661.033,846.178 668.863,847.314 674.673,849.965 678.381,853.988 679.961,859.252 679.431,865.64 676.844,873.038 672.275,881.326 665.829,890.366 657.64,899.981 647.878,909.946 636.766,919.967 624.587,929.68 611.7,938.639 598.549,946.338 585.66,952.235 573.634,955.801 563.114,956.59 554.743,954.316 549.102,948.921 546.64,940.62 547.613,929.903 552.04,917.489 559.689,904.227 570.099,890.988 582.633,878.554 596.55,867.546 611.083,858.384 625.506,851.292 639.178,846.332 651.581,843.444 662.318,842.499 671.113,843.331 677.791,845.773 682.262,849.665 684.495,854.869 684.509,861.266 682.352,868.745 678.098,877.195 671.844,886.492 663.714,896.479 653.864,906.947 642.499,917.622 629.885,928.146 616.363,938.076 602.367,946.882 588.425,953.977 575.158,958.763 563.252,960.698 553.417,959.382 546.324,954.648 542.527,946.626 542.388,935.762 546.019,922.785 553.249,908.61 563.644,894.211 576.549,880.493 591.175,868.189 606.681,857.81 622.258,849.64 637.185,843.767 650.871,840.137 662.865,838.605 672.849,838.986 680.622,841.089 686.08,844.735 689.185,849.774 689.952,856.077 688.429,863.537 684.686,872.054 678.815,881.518 670.926,891.795 661.161,902.704 649.699,913.998 636.782,925.342 622.722,936.306 607.929,946.356 592.918,954.872 578.314,961.188 564.832,964.658 553.246,964.746 544.324,961.138 538.742,953.824 537.003,943.156 539.349,929.834 545.718,914.817 555.735,899.187 568.758,883.994 583.957,870.124 600.417,858.219 617.23,848.654 633.575,841.571 648.767,836.931 662.276,834.582 673.728,834.314 682.882,835.906 689.61,839.156 693.863,843.891 695.652,849.97 695.022,857.284 692.044,865.738 686.802,875.241 679.397,885.685 669.951,896.922 658.617,908.744 645.602,920.857 631.179,932.864 615.718,944.249 599.698,954.382 583.725,962.545 568.523,967.993 554.913,970.039 543.751,968.177 535.854,962.198 531.893,952.286 532.293,939.037 537.157,923.408 546.231,906.572 558.931,889.744 574.419,874.008 591.707,860.19 609.78,848.814 627.692,840.115 644.632,834.095 659.964,830.605 673.226,829.414 684.12,830.265 692.479,832.919 698.235,837.171 701.388,842.859 701.985,849.861 700.095,858.086 695.8,867.456 689.193,877.89 680.378,889.278 669.482,901.463 656.67,914.208 642.166,927.173 626.281,939.89 609.436,951.756 592.184,962.036 575.223,969.91 559.386,974.544 545.599,975.215 534.808,971.447 527.878,963.155 525.467,950.724 527.921,935.006 535.192,917.208 546.835,898.706 562.062,880.819 579.847,864.636 599.067,850.909 618.624,840.036 637.546,832.114 655.044,827.022 670.533,824.515 683.619,824.297 694.071,826.08 701.786,829.612 706.749,834.694 709.002,841.179 708.615,848.966 705.675,857.982 700.271,868.169 692.495,879.458 682.449,891.747 670.259,904.871 656.092,918.57 640.184,932.462 622.874,946.016 604.627,958.54 586.066,969.191 567.98,977.033 551.311,981.13 537.099,980.699 526.393,975.282 520.122,964.895 518.95,950.119 523.154,932.053 532.555,912.154 546.531,891.992 564.096,872.994 584.052,856.254 605.143,842.454 626.191,831.879 646.199,824.501 664.392,820.089 680.227,818.315 693.368,818.828 703.642,821.31 711.001,825.501 715.473,831.207 717.132,838.298 716.072,846.691 712.388,856.337 706.172,867.2 697.511,879.231 686.496,892.343 673.243,906.377 657.908,921.067 640.726,936.008 622.043,950.619 602.351,964.13 582.326,975.591 562.835,983.937 544.925,988.097 529.765,987.18 518.53,980.678 512.254,968.655 511.659,951.834 517.007,931.541 528.034,909.485 543.97,887.458 563.654,867.029 585.712,849.344 608.743,835.051 631.472,824.352 652.849,817.114 672.09,813.008 688.674,811.623 702.3,812.554 712.842,815.448 720.295,820.03 724.726,826.106 726.238,833.557 724.944,842.317 720.951,852.362 714.348,863.683 705.215,876.262 693.625,890.041 679.669,904.891 663.478,920.57 645.257,936.682 625.33,952.635 604.181,967.614 582.497,980.58 561.191,990.329 541.399,995.611 524.42,995.337 511.597,988.826 504.143,976.049 502.935,957.759 508.334,935.441 520.089,911.063 537.352,886.701 558.818,864.169 582.93,844.768 608.106,829.204 632.918,817.653 656.208,809.909 677.129,805.552 695.138,804.081 709.941,805.018 721.438,807.959 729.655,812.596 734.696,818.719 736.695,826.207 735.788,835.006 732.096,845.113 725.714,856.549 716.71,869.338 705.14,883.472 691.058,898.883 674.546,915.396 655.752,932.68 634.927,950.202 612.487,967.172 589.059,982.527 565.532,994.956 543.066,1003 523.066,1005.26 507.067,1000.69 496.553,988.901 492.718,970.423 496.221,946.715 507.024,919.949 524.362,892.574 546.871,866.832 572.816,844.396 600.375,826.217 627.868,812.575 653.92,803.257 677.52,797.765 698.019,795.492 715.071,795.852 728.566,798.349 738.545,802.604 745.144,808.36 748.535,815.467 748.891,823.864 746.36,833.555 741.056,844.59 733.052,857.034 722.39,870.949 709.088,886.354 693.167,903.19 674.684,921.267 653.771,940.209 630.694,959.385 605.914,977.853 580.158,994.332 554.471,1007.24 530.231,1014.84 509.098,1015.5 492.866,1008.11 483.213,992.463 481.401,969.489 487.983,941.245 502.643,910.504 524.224,880.16 550.939,852.642 580.696,829.555 611.429,811.606 641.349,798.771 669.083,790.55 693.703,786.224 714.683,785.042 731.812,786.344 745.104,789.605 754.709,794.453 760.841,800.656 763.728,808.099 763.579,816.763 760.558,826.695 754.776,837.99 746.29,850.765 735.11,865.137 721.214,881.187 704.567,898.922 685.159,918.224 663.046,938.78 638.414,960.001 611.656,980.941 583.452,1000.23 554.855,1016.1 527.331,1026.46 502.739,1029.25 483.18,1022.88 470.723,1006.74 467.024,981.688 472.938,949.998 488.274,914.987 511.781,880.211 541.397,848.685 574.657,822.373 609.118,802.098 642.679,787.756 673.755,778.662 701.31,773.889 724.789,772.497 744.013,773.676 759.059,776.799 770.154,781.427 777.593,787.29 781.678,794.259 782.679,802.314 780.809,811.517 776.211,821.991 768.96,833.898 759.061,847.419 746.463,862.732 731.073,879.977 712.782,899.22 691.501,920.387 667.214,943.183 640.048,966.99 610.367,990.751 578.884,1012.87 546.769,1031.19 515.726,1043.15 487.97,1046.11 466.06,1038.03 452.534,1018.2 449.396,987.767 457.61,949.82 476.783,908.667 505.202,868.745 540.209,833.567 578.766,805.164 617.996,784.097 655.555,769.854 689.785,761.348 719.705,757.326 744.891,756.629 765.324,758.316 781.241,761.695 793.014,766.303 801.058,771.875 805.771,778.294 807.496,785.561 806.499,793.764 802.958,803.052 796.967,813.625 788.532,825.715 777.583,839.575 763.985,855.461 747.547,873.606 728.052,894.179 705.287,917.223 679.097,942.556 649.464,969.642 616.622,997.43 581.191,1024.19 544.35,1047.38 507.967,1063.78 474.648,1069.84 447.576,1062.5 430.078,1040.32 424.929,1004.42 433.602,958.688 455.759,908.858 489.259,860.873 530.685,819.307 576.157,786.577 622.084,763.067 665.646,747.781 704.965,739.088 739.036,735.268 767.544,734.822 790.641,736.588 808.761,739.74 822.468,743.746 832.349,748.298 838.953,753.259 842.754,758.612 844.128,764.424 843.353,770.826 840.607,777.994 835.975,786.141 829.456,795.517 820.964,806.403 810.337,819.112 797.34,833.988 781.67,851.39 762.969,871.672 740.837,895.137 714.873,921.958 684.73,952.052 650.22,984.882 611.46,1019.2 569.092,1052.74 524.546,1081.98 480.289,1102.18 439.941,1108.02 408.043,1094.95 389.327,1061.21 387.54,1009.42 404.211,946.502 438.004,881.615 485.036,823.052 540.014,775.973 597.59,741.92 653.367,719.76 704.346,707.034 748.896,701.038 786.481,699.407 817.31,700.328 842.033,702.522 861.503,705.156 876.624,707.721 888.258,709.935 897.169,711.661 904.014,712.851 909.334,713.502 913.572,713.631 917.083,713.259 920.152,712.397 923.012,711.042 925.858,709.17 928.86,706.736 932.174,703.672 935.957,699.877 940.37,695.223 945.592,689.543 951.829,682.626 959.322,674.215 968.358,663.992 979.281,651.575 992.503,636.51 1008.52,618.269 1027.89,596.263 1051.3,569.872 1079.47,538.521 1113.14,501.833 1152.99,459.888 1199.41,413.667 1252.18,365.67 1310.01,320.651 1369.92,286.094 1426.74,271.697 1473.19,286.937 1500.94,336.624 1503.09,416.567 1476.84,513.202 1424.98,608.881 1354.9,689.379 1275.88,748.195 1196.35,785.899 1122.31,806.913 1057.11,816.54 1001.93,819.356 956.509,818.724 919.754,816.891 890.229,815.259 866.414,814.656 846.872,815.546 830.319,818.179 815.648,822.689 801.919,829.158 788.34,837.651 774.244,848.232 759.064,860.966 742.317,875.902 723.6,893.043 702.594,912.299 679.092,933.415 653.041,955.88 624.612,978.825 594.289,1000.91 562.966,1020.3 532.028,1034.67 503.371,1041.5 479.305,1038.57 462.282,1024.55 454.478,999.735 457.288,966.231 470.942,927.659 494.371,888.265 525.421,851.874 561.316,821.124 599.19,797.227 636.525,780.184 671.394,769.219 702.53,763.209 729.252,761.007 751.341,761.612 768.894,764.248 782.194,768.366 791.611,773.623 797.527,779.841 800.289,786.969 800.178,795.056 797.4,804.223 792.075,814.644 784.241,826.53 773.859,840.113 760.825,855.631 744.981,873.296 726.143,893.258 704.128,915.544 678.813,939.969 650.201,966.017 618.532,992.692 584.407,1018.37 548.939,1040.71 513.881,1056.72 481.657,1063.11 455.229,1057.04 437.708,1037.07 431.736,1004.05 438.795,961.381 458.724,914.236 489.682,868.163 528.576,827.61 571.791,795.114 615.888,771.311 658.091,755.469 696.485,746.161 729.982,741.8 758.165,740.957 781.094,742.493 799.12,745.587 812.74,749.697 822.494,754.506 828.892,759.866 832.377,765.756 833.303,772.245 831.926,779.468 828.408,787.609 822.815,796.896 815.126,807.587 805.237,819.974 792.968,834.374 778.072,851.115 760.244,870.515 739.142,892.842 714.421,918.238 685.788,946.613 653.092,977.468 616.458,1009.68 576.475,1041.24 534.423,1069.04 492.488,1088.95 453.869,1096.22 422.6,1086.71 402.967,1058.47 398.523,1013.19 411.01,956.447 439.682,896.16 481.432,840.041 531.657,793.419 585.433,758.478 638.495,734.796 687.749,720.466 731.354,713.11 768.526,710.511 799.252,710.887 823.992,712.942 843.461,715.802 858.457,718.924 869.764,722.001 878.092,724.889 884.048,727.547 888.132,729.998 890.737,732.303 892.166,734.542 892.637,736.805 892.301,739.191 891.249,741.803 889.524,744.751 887.123,748.158 884.005,752.159 880.09,756.914 875.258,762.608 869.348,769.463 862.154,777.744 853.414,787.768 842.806,799.916 829.938,814.634 814.338,832.443 795.445,853.926 772.613,879.701 745.125,910.35 712.232,946.286 673.255,987.502 627.759,1033.16 575.86,1081 518.686,1126.6 458.962,1162.86 401.535,1180.33 353.44,1169.35 322.919,1124.26 317.2,1047.94 339.713,952.851 388.407,856.446 456.398,773.669 534.523,712.066 614.163,671.852 688.973,648.953 755.281,638.091 811.664,634.572 858.23,634.88 895.976,636.64 926.309,638.357 950.742,639.14 970.724,638.487 987.557,636.124 1002.37,631.905 1016.12,625.743 1029.62,617.571 1043.55,607.321 1058.49,594.927 1074.94,580.33 1093.3,563.511 1113.92,544.536 1137.04,523.62 1162.73,501.217 1190.87,478.126 1221.06,455.596 1252.46,435.397 1283.79,419.789 1313.21,411.312 1338.47,412.334 1357.07,424.403 1366.74,447.568 1365.88,480.021 1354.03,518.316 1332.03,558.188 1301.91,595.621 1266.4,627.706 1228.41,652.979 1190.58,671.264 1154.94,683.253 1122.9,690.052 1095.22,692.837 1072.2,692.653 1053.77,690.325 1039.66,686.444 1029.52,681.39 1022.95,675.37 1019.59,668.452 1019.14,660.603 1021.38,651.714 1026.17,641.617 1033.46,630.106 1043.27,616.948 1055.69,601.901 1070.88,584.739 1089.03,565.287 1110.33,543.474 1134.92,519.417 1162.85,493.533 1193.97,466.683 1227.77,440.328 1263.29,416.649 1298.93,398.529 1332.41,389.28 1360.84,392.003 1381.06,408.621 1390.2,438.912 1386.41,480.053 1369.4,527.109 1340.64,574.388 1303.02,616.995 1260.15,651.862 1215.6,677.927 1172.38,695.675 1132.63,706.451 1097.63,711.87 1067.94,713.44 1043.6,712.388 1024.29,709.622 1009.53,705.752 998.779,701.147 991.501,695.992 987.227,690.338 985.575,684.136 986.256,677.268 989.082,669.563 993.957,660.805 1000.88,650.745 1009.92,639.101 1021.25,625.561 1035.09,609.796 1051.73,591.471 1071.52,570.285 1094.81,546.021 1121.93,518.645 1153.12,488.453 1188.42,456.274 1227.45,423.727 1269.25,393.471 1312.02,369.309 1352.96,355.926 1388.27,358.009 1413.57,378.725 1424.8,418.02 1419.27,471.75 1396.68,532.509 1359.27,591.99 1311.25,643.573 1257.67,683.755 1203.22,712.049 1151.55,729.964 1105.02,739.851 1064.82,744.097 1031.21,744.71 1003.88,743.202 982.161,740.617 965.267,737.628 952.375,734.63 942.724,731.829 935.652,729.304 930.602,727.061 927.125,725.058 924.872,723.233 923.577,721.509 923.048,719.809 923.151,718.052 923.802,716.156 924.96,714.035 926.616,711.597 928.796,708.741 931.553,705.35 934.97,701.286 939.163,696.387 944.281,690.455 950.517,683.253 958.107,674.491 967.346,663.82 978.596,650.821 992.294,634.995 1008.97,615.765 1029.24,592.483 1053.83,564.473 1083.53,531.116 1119.15,492.025 1161.4,447.364 1210.64,398.358 1266.54,348.031 1327.47,302.031 1389.83,269.064 1447.6,260.003 1492.49,284.629 1515.57,346.3 1510.15,437.66 1474.72,541.831 1413.84,639.699 1336.46,717.972 1252.57,772.311 1170.53,805.244 1095.81,822.299 1031.11,829.135 977.019,830.259 932.866,828.815 897.296,826.818 868.712,825.483 845.522,825.499 826.259,827.236 809.644,830.881 794.587,836.523 780.174,844.208 765.648,853.962 750.384,865.799 733.867,879.708 715.687,895.627 695.542,913.404 673.253,932.729 648.808,953.065 622.409,973.564 594.548,992.996 566.073,1009.73 538.247,1021.8 512.734,1027.16 491.504,1024.04 476.603,1011.48 469.807,989.801 472.242,960.744 484.084,927.241 504.46,892.741 531.605,860.427 563.213,832.608 596.854,810.487 630.33,794.274 661.894,783.489 690.332,777.298 714.928,774.781 735.373,775.099 751.651,777.573 763.93,781.708 772.474,787.183 777.575,793.824 779.504,801.573 778.49,810.464 774.694,820.599 768.212,832.12 759.072,845.196 747.244,859.998 732.655,876.665 715.209,895.274 694.824,915.773 671.478,937.915 645.274,961.157 616.528,984.552 585.872,1006.65 554.363,1025.47 523.558,1038.58 495.521,1043.43 472.687,1037.88 457.547,1020.93 452.187,993.319 457.783,957.634 474.247,917.844 500.185,878.287 533.19,842.624 570.358,813.175 608.823,790.815 646.162,775.279 680.595,765.631 711.002,760.685 736.837,759.291 757.986,760.483 774.615,763.532 787.053,767.936 795.689,773.394 800.912,779.762 803.064,787.017 802.415,795.229 799.156,804.534 793.39,815.119 785.139,827.205 774.346,841.034 760.89,856.848 744.601,874.866 725.278,895.236 702.732,917.98 676.833,942.891 647.593,969.414 615.271,996.49 580.512,1022.4 544.498,1044.68 509.076,1060.2 476.788,1065.58 450.705,1057.99 434.005,1036.14 429.311,1001.17 437.984,956.841 459.666,908.611 492.286,862.132 532.57,821.766 576.794,789.85 621.503,766.801 663.97,751.716 702.358,743.066 735.667,739.219 763.561,738.739 786.162,740.503 803.868,743.713 817.205,747.848 826.731,752.61 832.967,757.866 836.359,763.604 837.263,769.9 835.935,776.891 832.535,784.762 827.129,793.739 819.696,804.082 810.131,816.082 798.254,830.06 783.815,846.352 766.502,865.295 745.962,887.188 721.825,912.23 693.758,940.411 661.542,971.357 625.207,1004.1 585.206,1036.83 542.649,1066.61 499.544,1089.37 458.952,1100.23 424.893,1094.57 401.838,1069.65 393.754,1026.35 402.942,969.703 429.186,907.694 469.698,848.645 519.904,798.703 574.669,760.712 629.395,734.603 680.654,718.541 726.34,710.05 765.495,706.758 798.01,706.727 824.313,708.534 845.126,711.211 861.279,714.148 873.598,716.992 882.838,719.567 889.655,721.808 894.593,723.717 898.089,725.334 900.488,726.715 902.052,727.924 902.975,729.024 903.397,730.076 903.415,731.137 903.091,732.263 902.457,733.509 901.523,734.933 900.277,736.599 898.691,738.577 896.715,740.951 894.281,743.82 891.3,747.303 887.657,751.545 883.207,756.727 877.77,763.068 871.123,770.836 862.989,780.362 853.027,792.049 840.82,806.383 825.861,823.94 807.539,845.391 785.133,871.479 757.817,902.965 724.69,940.502 684.858,984.388 637.612,1034.13 582.747,1087.71 521.082,1140.7 455.204,1185.26 390.231,1210.18 334.149,1202.98 296.896,1155.22 287.689,1068.95 311.322,959.066 365.704,847.575 442.547,753.257 530.732,684.98 619.999,642.147 703.068,619.094 775.985,609.156 837.44,606.767 887.836,607.982 928.496,610.264 961.117,612.095 987.45,612.621 1009.12,611.395 1027.55,608.211 1043.97,602.992 1059.36,595.734 1074.54,586.471 1090.17,575.27 1106.75,562.239 1124.66,547.555 1144.12,531.501 1165.21,514.516 1187.84,497.248 1211.67,480.603 1236.1,465.759 1260.25,454.13 1282.92,447.243 1302.67,446.5 1317.94,452.87 1327.27,466.564 1329.56,486.825 1324.29,511.957 1311.68,539.617 1292.68,567.298 1268.8,592.813 1241.87,614.629 1213.74,631.958 1186.06,644.671 1160.14,653.088 1136.92,657.774 1116.96,659.36 1100.55,658.431 1087.73,655.467 1078.44,650.825 1072.52,644.737 1069.78,637.33 1070.05,628.645 1073.18,618.66 1079.07,607.315 1087.66,594.534 1098.9,580.253 1112.8,564.454 1129.34,547.208 1148.45,528.724 1170,509.412 1193.71,489.956 1219.06,471.365 1245.29,455.002 1271.28,442.528 1295.57,435.74 1316.44,436.265 1332.03,445.143 1340.66,462.426 1341.14,486.95 1333.02,516.442 1316.79,547.97 1293.76,578.594 1265.84,605.943 1235.21,628.541 1203.95,645.827 1173.81,657.949 1146.11,665.496 1121.72,669.233 1101.1,669.927 1084.39,668.237 1071.56,664.672 1062.41,659.586 1056.72,653.19 1054.24,645.582 1054.78,636.765 1058.17,626.677 1064.3,615.212 1073.13,602.242 1084.66,587.643 1098.92,571.327 1115.95,553.283 1135.78,533.63 1158.35,512.69 1183.48,491.074 1210.76,469.763 1239.5,450.178 1268.6,434.173 1296.55,423.898 1321.42,421.491 1341.03,428.573 1353.26,445.69 1356.44,471.89 1349.74,504.713 1333.44,540.681 1308.89,576.12 1278.26,607.985 1244.11,634.351 1208.94,654.477 1174.87,668.558 1143.46,677.353 1115.73,681.842 1092.19,682.992 1072.98,681.628 1057.99,678.377 1046.97,673.674 1039.62,667.781 1035.6,660.819 1034.65,652.801 1036.55,643.654 1041.15,633.249 1048.38,621.415 1058.24,607.96 1070.78,592.693 1086.13,575.456 1104.38,556.161 1125.66,534.854 1150.02,511.793 1177.34,487.558 1207.32,463.171 1239.27,440.206 1272.07,420.828 1304.03,407.682 1332.91,403.53 1356.08,410.62 1370.88,429.892 1375.15,460.336 1367.76,498.907 1348.99,541.168 1320.5,582.452 1285.01,619 1245.65,648.6 1205.43,670.603 1166.82,685.514 1131.55,694.465 1100.68,698.771 1074.63,699.653 1053.45,698.104 1036.88,694.855 1024.53,690.396 1015.96,685.012 1010.75,678.831 1008.53,671.863 1009.02,664.026 1012.03,655.174 1017.43,645.109 1025.21,633.598 1035.44,620.381 1048.23,605.188 1063.79,587.755 1082.35,567.866 1104.15,545.399 1129.41,520.416 1158.22,493.282 1190.5,464.829 1225.82,436.535 1263.21,410.687 1301.07,390.404 1337,379.379 1367.85,381.19 1390.15,398.199 1400.62,430.376 1397.11,474.686 1379.22,525.608 1348.52,576.709 1308.22,622.489 1262.31,659.591 1214.73,686.969 1168.74,705.313 1126.62,716.231 1089.67,721.57 1058.43,723.012 1032.84,721.9 1012.51,719.207 996.871,715.583 985.287,711.419 977.157,706.913 971.95,702.128 969.225,697.029 968.644,691.517 969.971,685.444 973.062,678.625 977.866,670.84 984.411,661.84 992.806,651.339 1003.23,639.019 1015.94,624.526 1031.26,607.481 1049.58,587.495 1071.32,564.211 1096.93,537.377 1126.84,506.961 1161.33,473.349 1200.41,437.612 1243.61,401.846 1289.67,369.479 1336.28,345.366 1379.84,335.3 1415.63,344.653 1438.46,376.226 1443.92,428.213 1429.8,493.766 1396.97,562.991 1349.26,626.43 1292.27,677.9 1231.84,715.307 1172.86,739.708 1118.71,753.762 1071.26,760.464 1031.15,762.445 998.168,761.721 971.629,759.709 950.604,757.335 934.108,755.166 921.198,753.524 911.031,752.577 902.879,752.402 896.13,753.033 890.275,754.49 884.892,756.798 879.624,760.004 874.157,764.183 868.21,769.445 861.508,775.944 853.772,783.877 844.705,793.493 833.976,805.098 821.211,819.054 805.981,835.776 787.799,855.725 766.118,879.369 740.353,907.127 709.918,939.246 674.306,975.605 633.243,1015.4 586.918,1056.73 536.325,1096.08 483.682,1127.99 432.793,1145.33 389.097,1140.67 359.038,1109.09 348.581,1051.35 361.236,975.215 396.577,893.29 450.215,818.1 515.279,757.823 584.511,715.012 651.905,687.994 713.439,673.117 767.029,666.488 812.095,664.836 849.04,665.752 878.82,667.601 902.621,669.344 921.671,670.357 937.121,670.28 949.997,668.913 961.19,666.138 971.456,661.865 981.444,656.005 991.717,648.443 1002.78,639.031 1015.08,627.582 1029.08,613.875 1045.2,597.666 1063.89,578.717 1085.55,556.836 1110.59,531.959 1139.29,504.259 1171.8,474.316 1207.95,443.325 1247.09,413.331 1287.93,387.387 1328.25,369.482 1364.96,364.017 1394.18,374.701 1411.94,403.048 1415.02,447.154 1401.97,501.631 1373.65,559.071 1333.08,612.382 1284.63,656.693 1232.91,690.01 1181.94,712.713 1134.61,726.544 1092.69,733.697 1056.94,736.232 1027.38,735.818 1003.62,733.679 984.994,730.643 970.76,727.223 960.191,723.708 952.629,720.225 947.513,716.797 944.388,713.381 942.902,709.89 942.8,706.209 943.91,702.205 946.139,697.725 949.457,692.599 953.899,686.637 959.557,679.616 966.578,671.284 975.172,661.343 985.607,649.449 998.222,635.203 1013.42,618.153 1031.7,597.806 1053.59,573.655 1079.71,545.246 1110.67,512.297 1147,474.908 1189,433.891 1236.49,391.233 1288.45,350.63 1342.55,317.862 1394.77,300.52 1439.36,306.456 1469.52,340.743 1479.04,402.247 1464.39,482.292 1426.3,567.312 1369.67,644.234 1301.83,704.933 1230.35,747.289 1161.33,773.469 1098.74,787.481 1044.53,793.413 999.135,794.603 962.025,793.469 932.143,791.62 908.226,790.066 888.996,789.409 873.263,789.991 859.974,792.005 848.22,795.568 837.226,800.773 826.327,807.716 814.946,816.52 802.568,827.338 788.717,840.352 772.944,855.764 754.819,873.772 733.933,894.524 709.924,918.057 682.513,944.187 651.585,972.369 617.297,1001.51 580.232,1029.78 541.58,1054.46 503.293,1072.04 468.152,1078.57 439.6,1070.66 421.26,1046.7 416.163,1007.93 425.884,958.725 449.986,905.489 486.048,854.738 530.287,811.334 578.484,777.677 626.812,753.933 672.338,738.833 713.174,730.502 748.37,727.049 777.698,726.872 801.407,728.752 820.021,731.842 834.18,735.601 844.539,739.719 851.7,744.058 856.181,748.594 858.399,753.384 858.669,758.541 857.204,764.217 854.13,770.596 849.486,777.892 843.232,786.349 835.255,796.246 825.368,807.899 813.316,821.659 798.773,837.917 781.347,857.083 760.59,879.56 736.017,905.685 707.153,935.622 673.604,969.191 635.194,1005.61 592.168,1043.15 545.466,1078.75 497.064,1107.77 450.252,1124.26 409.66,1122.01 380.768,1096.73 368.752,1048.49 376.92,983.021 405.435,910.344 451.092,841.207 508.31,783.473 570.787,740.525 632.96,711.907 690.808,694.997 741.992,686.544 785.578,683.582 821.622,683.797 850.785,685.543 874.023,687.735 892.391,689.698 906.91,691.04 918.509,691.548 927.998,691.11 936.064,689.667 943.285,687.172 950.151,683.571 957.081,678.784 964.451,672.696 972.611,665.148 981.904,655.936 992.682,644.801 1005.32,631.435 1020.24,615.484 1037.89,596.559 1058.76,574.274 1083.38,548.297 1112.24,518.462 1145.76,484.935 1184.15,448.475 1227.19,410.783 1273.97,374.883 1322.56,345.381 1369.7,328.255 1410.78,329.78 1440.29,354.406 1452.97,402.239 1445.42,467.684 1417.36,540.712 1371.92,610.447 1314.67,668.848 1251.98,712.388 1189.46,741.456 1131.22,758.668 1079.64,767.306 1035.68,770.368 999.315,770.204 969.876,768.484 946.404,766.311 927.839,764.369 913.151,763.06 901.399,762.6 891.769,763.105 883.562,764.637 876.195,767.245 869.17,770.986 862.061,775.943 854.485,782.236 846.088,790.027 836.518,799.526 825.416,810.995 812.397,824.745 797.042,841.133 778.893,860.541 757.453,883.344 732.212,909.843 702.682,940.15 668.483,974.009 629.481,1010.52 585.993,1047.79 539.082,1082.56 490.881,1110.02 444.851,1124.14 405.746,1118.9 379.04,1090.51 369.7,1039.79 380.635,973.139 411.535,900.811 458.825,833.241 516.782,777.668 579.177,736.883 640.661,710.067 697.461,694.476 747.452,686.89 789.849,684.445 824.802,684.93 853.014,686.79 875.455,689.005 893.17,690.947 907.164,692.255 918.345,692.732 927.498,692.278 935.29,690.841 942.282,688.376 948.946,684.83 955.69,680.126 962.878,674.148 970.849,666.739 979.94,657.694 990.496,646.757 1002.89,633.619 1017.53,617.922 1034.87,599.274 1055.39,577.275 1079.64,551.571 1108.12,521.958 1141.28,488.542 1179.36,451.991 1222.23,413.887 1269.07,377.117 1318.07,346.177 1366.09,327.037 1408.58,326.169 1439.99,348.472 1454.87,394.658 1449.45,459.624 1423.07,533.441 1378.6,604.887 1321.54,665.354 1258.37,710.82 1194.93,741.406 1135.53,759.675 1082.74,768.974 1037.64,772.411 1000.24,772.439 969.923,770.809 945.71,768.682 926.527,766.781 911.316,765.531 899.114,765.166 889.077,765.811 880.486,767.537 872.734,770.398 865.306,774.458 857.755,779.807 849.683,786.573 840.718,794.925 830.493,805.084 818.632,817.319 804.735,831.946 788.372,849.318 769.074,869.8 746.352,893.724 719.713,921.31 688.725,952.526 653.109,986.881 612.902,1023.13 568.689,1058.94 521.9,1090.55 475.108,1112.8 432.184,1119.73 398.078,1106.15 378.026,1069.95 376.202,1013.99 394.307,946.054 430.814,876.449 481.366,814.325 540.104,765.13 601.206,730.212 659.995,708.013 713.376,695.654 759.759,690.118 798.712,688.852 830.577,689.942 856.133,692.068 876.347,694.38 892.219,696.366 904.69,697.737 914.593,698.347 922.644,698.124 929.443,697.037 935.491,695.056 941.209,692.144 946.954,688.237 953.048,683.238 959.786,677.012 967.463,669.378 976.382,660.103 986.874,648.905 999.305,635.442 1014.09,619.322 1031.7,600.108 1052.66,577.353 1077.53,550.65 1106.88,519.741 1141.21,484.698 1180.81,446.196 1225.57,405.912 1274.64,366.987 1326.07,334.372 1376.44,314.705 1420.73,315.168 1452.85,341.063 1466.85,392.78 1458.82,464.065 1428.43,543.469 1379.21,618.643 1317.45,680.713 1250.22,726.112 1183.64,755.697 1122.04,772.67 1067.85,780.789 1021.91,783.359 984.051,782.894 953.44,781.139 928.974,779.221 909.468,777.832 893.789,777.372 880.914,778.066 869.953,780.039 860.147,783.378 850.849,788.164 841.5,794.494 831.609,802.502 820.725,812.36 808.418,824.284 794.264,838.526 777.831,855.363 758.679,875.07 736.371,897.87 710.494,923.854 680.724,952.854 646.91,984.263 609.221,1016.79 568.344,1048.2 525.713,1075.14 483.727,1093.21 445.806,1097.6 416.154,1084.36 399.068,1052.12 397.885,1003.42 413.908,944.578 445.863,883.848 490.197,828.727 542.067,783.986 596.547,751.2 649.533,729.508 698.163,716.781 740.829,710.588 776.937,708.754 806.605,709.578 830.381,711.843 849.023,714.745 863.35,717.794 874.145,720.717 882.111,723.395 887.844,725.797 891.831,727.952 894.456,729.918 896.014,731.768 896.722,733.584 896.73,735.448 896.137,737.447 894.995,739.671 893.319,742.215 891.089,745.187 888.253,748.706 884.729,752.916 880.399,757.983 875.112,764.109 868.673,771.54 860.839,780.569 851.31,791.553 839.717,804.918 825.614,821.168 808.466,840.884 787.645,864.709 762.429,893.304 732.033,927.251 695.667,966.861 652.678,1011.84 602.785,1060.75 546.492,1110.27 485.655,1154.42 424.144,1184.23 368.26,1188.97 326.35,1159.63 307.057,1094.21 316.394,1001.4 355.054,898.482 417.838,803.795 495.666,729.313 578.79,678.317 659.303,647.819 732.16,632.296 794.983,626.297 847.348,625.548 890.023,627.089 924.381,629.032 952.001,630.241 974.448,630.073 993.148,628.183 1009.35,624.392 1024.11,618.614 1038.33,610.797 1052.73,600.907 1067.94,588.918 1084.46,574.826 1102.71,558.674 1123,540.599 1145.51,520.891 1170.27,500.074 1197.09,478.989 1225.5,458.879 1254.64,441.414 1283.24,428.623 1309.6,422.674 1331.66,425.451 1347.3,438.022 1354.63,460.133 1352.43,490 1340.48,524.574 1319.67,560.23 1291.82,593.619 1259.33,622.317 1224.73,645.075 1190.3,661.697 1157.87,672.711 1128.67,679.008 1103.43,681.563 1082.44,681.257 1065.72,678.8 1053.07,674.704 1044.21,669.304 1038.82,662.778 1036.6,655.184 1037.33,646.488 1040.83,636.583 1046.99,625.319 1055.78,612.515 1067.24,597.984 1081.45,581.557 1098.52,563.122 1118.56,542.676 1141.63,520.395 1167.7,496.733 1196.52,472.538 1227.57,449.161 1259.88,428.529 1291.99,413.097 1321.88,405.582 1347.07,408.44 1364.93,423.126 1373.08,449.375 1370.01,484.891 1355.46,525.722 1330.61,567.246 1297.8,605.354 1260.01,637.28 1220.3,661.832 1181.33,679.127 1145.09,690.084 1112.86,695.957 1085.29,697.994 1062.55,697.259 1044.5,694.567 1030.79,690.486 1021.01,685.367 1014.74,679.392 1011.6,672.606 1011.27,664.959 1013.54,656.327 1018.27,646.529 1025.41,635.345 1034.99,622.527 1047.12,607.812 1061.98,590.942 1079.78,571.695 1100.74,549.937 1125.08,525.695 1152.92,499.27 1184.2,471.387 1218.56,443.37 1255.16,417.302 1292.55,396.08 1328.52,383.224 1360.14,382.299 1384.02,395.912 1396.89,424.562 1396.37,465.893 1381.68,514.952 1353.98,565.532 1316.08,611.97 1271.81,650.488 1225.07,679.58 1179.23,699.583 1136.76,711.901 1099.14,718.312 1067.07,720.506 1040.61,719.873 1019.46,717.445 1003.08,713.926 990.89,709.751 982.278,705.15 976.714,700.209 973.755,694.907 973.052,689.152 974.36,682.799 977.53,675.66 982.504,667.516 989.307,658.11 998.047,647.155 1008.91,634.329 1022.14,619.281 1038.06,601.64 1057.06,581.037 1079.55,557.157 1105.96,529.815 1136.64,499.092 1171.8,465.538 1211.33,430.45 1254.56,396.193 1300.01,366.451 1345.1,346.182 1386.05,340.953 1418.12,355.426 1436.42,391.262 1437.15,445.484 1418.87,510.629 1383.17,577.09 1334.22,636.401 1277.55,683.517 1218.67,717.155 1161.98,738.716 1110.45,750.851 1065.61,756.37 1027.91,757.678 997.067,756.595 972.358,754.385 952.882,751.866 937.701,749.534 925.928,747.663 916.778,746.388 909.58,745.761 903.776,745.797 898.906,746.495 894.594,747.857 890.531,749.902 886.453,752.672 882.126,756.235 877.333,760.694 871.858,766.188 865.475,772.897 857.934,781.049 848.952,790.928 838.2,802.872 825.292,817.288 809.776,834.643 791.126,855.455 768.748,880.265 741.99,909.564 710.192,943.67 672.769,982.497 629.381,1025.2 580.204,1069.65 526.328,1111.87 470.252,1145.57 416.321,1162.5 370.756,1154.23 340.856,1115.59 333.149,1048.46 351.047,962.915 393.286,873.899 454.229,795.1 525.868,734.366 600.274,693.073 671.282,668.331 735.063,655.655 789.88,650.736 835.516,650.176 872.686,651.585 902.583,653.403 926.563,654.67 945.971,654.823 962.037,653.547 975.843,650.664 988.318,646.063 1000.25,639.653 1012.32,631.337 1025.12,620.994 1039.16,608.486 1054.92,593.661 1072.83,576.379 1093.28,556.556 1116.6,534.224 1143.03,509.629 1172.61,483.356 1205.14,456.488 1240.01,430.758 1276.07,408.637 1311.48,393.243 1343.72,387.942 1369.75,395.567 1386.41,417.39 1391.08,452.257 1382.44,496.445 1360.82,544.514 1328.31,590.844 1288.15,631.096 1244.06,662.936 1199.48,685.945 1157.13,701.015 1118.83,709.666 1085.6,713.52 1057.77,714.006 1035.21,712.244 1017.55,709.03 1004.24,704.883 994.751,700.102 988.55,694.817 985.196,689.042 984.337,682.699 985.718,675.652 989.18,667.712 994.66,658.656 1002.18,648.22 1011.85,636.114 1023.85,622.018 1038.42,605.595 1055.89,586.512 1076.6,564.476 1100.92,539.302 1129.17,511.019 1161.56,480.033 1198.04,447.35 1238.11,414.847 1280.63,385.5 1323.52,363.429 1363.68,353.495 1397.08,360.225 1419.26,386.148 1426.36,430.165 1416.21,487.056 1389.19,548.8 1348.19,607.202 1297.82,656.327 1243.18,693.517 1188.78,718.959 1137.97,734.526 1092.78,742.681 1054.11,745.763 1022.05,745.67 996.144,743.793 975.674,741.074 959.813,738.105 947.744,735.226 938.719,732.606 932.097,730.302 927.341,728.308 924.024,726.58 921.811,725.058 920.449,723.672 919.753,722.355 919.591,721.038 919.878,719.654 920.563,718.138 921.627,716.418 923.076,714.42 924.941,712.06 927.273,709.238 930.152,705.839 933.677,701.724 937.983,696.723 943.235,690.629 949.642,683.191 957.46,674.099 967.008,662.978 978.673,649.378 992.929,632.759 1010.34,612.498 1031.59,587.896 1057.44,558.227 1088.75,522.842 1126.37,481.371 1171.04,434.103 1223.08,382.584 1281.96,330.464 1345.63,284.394 1409.82,254.342 1467.54,252.178 1509.61,287.459 1526.74,361.354 1512.87,462.912 1468.1,572.308 1398.85,669.93 1315.34,744.246 1227.94,793.319 1144.62,821.408 1070.19,834.804 1006.65,839.253 954.085,839.052 911.456,837.069 877.207,835.078 849.642,834.11 827.13,834.729 808.21,837.219 791.625,841.707 776.32,848.239 761.426,856.821 746.232,867.429 730.17,880.017 712.794,894.486 693.782,910.658 672.947,928.224 650.26,946.68 625.894,965.268 600.277,982.921 574.141,998.247 548.566,1009.59 524.969,1015.23 505.026,1013.63 490.488,1003.92 482.918,986.181 483.381,961.666 492.185,932.654 508.768,901.979 531.781,872.426 559.337,846.194 589.339,824.624 619.793,808.201 649.03,796.749 675.807,789.698 699.316,786.314 719.126,785.874 735.094,787.756 747.275,791.483 755.837,796.725 760.998,803.287 762.982,811.081 761.982,820.108 758.147,830.43 751.572,842.147 742.3,855.376 730.332,870.222 715.642,886.744 698.204,904.914 678.025,924.556 655.201,945.278 629.978,966.388 602.83,986.818 574.547,1005.08 546.305,1019.29 519.69,1027.37 496.638,1027.37 479.255,1017.98 469.498,999.033 468.79,971.828 477.665,939.008 495.593,904.009 521.049,870.249 551.827,840.419 585.452,816.109 619.583,797.825 652.285,785.254 682.155,777.624 708.319,773.996 730.347,773.475 748.149,775.31 761.852,778.941 771.705,783.985 778.005,790.222 781.044,797.56 781.07,806.005 778.274,815.641 772.775,826.602 764.625,839.056 753.81,853.181 740.266,869.141 723.897,887.05 704.601,906.926 682.316,928.618 657.074,951.724 629.084,975.475 598.829,998.631 567.179,1019.4 535.488,1035.49 505.642,1044.26 479.987,1043.28 461.09,1030.94 451.321,1007.19 452.326,973.899 464.578,934.659 487.187,893.894 518.064,855.741 554.384,823.166 593.15,797.626 631.679,779.25 667.887,767.282 700.383,760.56 728.403,757.864 751.683,758.122 770.305,760.491 784.557,764.373 794.828,769.385 801.525,775.322 805.021,782.114 805.627,789.798 803.574,798.484 799.005,808.343 791.977,819.586 782.468,832.452 770.382,847.193 755.563,864.053 737.811,883.234 716.915,904.85 692.689,928.842 665.043,954.877 634.069,982.196 600.169,1009.45 564.208,1034.57 527.666,1054.7 492.737,1066.45 462.293,1066.45 439.601,1052.33 427.766,1023.78 428.993,983.221 443.929,935.468 471.381,886.455 508.575,841.544 551.843,804.292 597.418,776.115 642.072,756.695 683.443,744.703 720.08,738.453 751.319,736.335 777.073,737.019 797.633,739.515 813.493,743.148 825.222,747.5 833.387,752.351 838.492,757.628 840.958,763.357 841.107,769.642 839.163,776.637 835.252,784.542 829.412,793.592 821.592,804.057 811.664,816.237 799.423,830.462 784.596,847.081 766.85,866.444 745.808,888.86 721.08,914.534 692.314,943.451 659.285,975.208 622.026,1008.78 581.027,1042.21 537.474,1072.4 493.51,1095.02 452.381,1104.94 418.324,1097.4 395.99,1069.82 389.404,1023.48 400.734,964.07 429.467,900.146 472.439,840.265 524.759,790.443 581.109,753.182 636.858,728.049 688.649,712.939 734.499,705.23 773.58,702.495 805.897,702.797 831.968,704.737 852.578,707.377 868.599,710.132 880.887,712.67 890.217,714.822 897.257,716.525 902.564,717.776 906.59,718.6 909.693,719.033 912.156,719.111 914.202,718.86 916.006,718.296 917.709,717.42 919.428,716.217 921.266,714.659 923.319,712.698 925.685,710.267 928.465,707.28 931.776,703.622 935.752,699.151 940.554,693.689 946.375,687.013 953.45,678.853 962.067,668.873 972.575,656.669 985.401,641.753 1001.06,623.552 1020.16,601.412 1043.42,574.622 1071.65,542.482 1105.71,504.454 1146.4,460.425 1194.31,411.185 1249.4,359.134 1310.55,309.182 1374.76,269.467 1436.59,251.035 1487.95,265.22 1519.36,318.356 1522.68,406.199 1494.49,513.078 1437.88,618.308 1361.36,705.524 1275.51,767.801 1189.73,806.503 1110.51,827.154 1041.28,835.923 983.079,837.892 935.405,836.655 896.948,834.531 866.069,832.918 841.094,832.609 820.473,834.026 802.841,837.375 787.039,842.744 772.1,850.164 757.229,859.633 741.778,871.128 725.23,884.594 707.186,899.917 687.369,916.885 665.645,935.129 642.049,954.061 616.838,972.807 590.549,990.158 564.052,1004.58 538.574,1014.32 515.676,1017.61 497.136,1013.08 484.723,1000.11 479.901,979.224 483.509,952.144 495.544,921.501 515.106,890.278 540.565,861.173 569.856,836.13 600.832,816.167 631.558,801.475 660.487,791.669 686.531,786.06 709.03,783.872 727.68,784.39 742.433,787.029 753.409,791.36 760.815,797.099 764.887,804.094 765.848,812.297 763.885,821.735 759.128,832.495 751.656,844.692 741.492,858.454 728.619,873.887 712.998,891.042 694.595,909.867 673.425,930.145 649.603,951.415 623.419,972.888 595.419,993.365 566.495,1011.21 537.951,1024.4 511.516,1030.77 489.252,1028.41 473.329,1016.2 465.672,994.345 467.543,964.582 479.214,929.952 499.843,894.102 527.622,860.429 560.149,831.416 594.875,808.356 629.487,791.474 662.151,780.254 691.595,773.801 717.077,771.133 738.285,771.355 755.214,773.749 768.052,777.792 777.087,783.142 782.635,789.616 784.991,797.151 784.4,805.78 781.039,815.607 775.016,826.783 766.363,839.491 755.051,853.919 740.996,870.241 724.085,888.577 704.202,908.943 681.275,931.179 655.332,954.857 626.592,979.16 595.565,1002.77 563.171,1023.79 530.845,1039.78 500.579,1048.01 474.836,1045.94 456.288,1032.03 447.351,1006.38 449.638,971.18 463.495,930.325 487.84,888.47 520.382,849.828 558.129,817.286 597.99,792.139 637.261,774.335 673.889,762.976 706.547,756.805 734.544,754.557 757.684,755.142 776.109,757.724 790.15,761.717 800.228,766.755 806.77,772.646 810.164,779.336 810.726,786.869 808.69,795.366 804.199,805.004 797.308,816.001 787.992,828.605 776.145,843.081 761.602,859.693 744.147,878.671 723.544,900.17 699.574,924.194 672.093,950.485 641.124,978.387 606.981,1006.66 570.423,1033.31 532.824,1055.53 496.305,1069.8 463.735,1072.5 438.498,1060.77 423.957,1033.78 422.679,993.517 435.689,944.725 462.068,893.619 499.136,846.087 543.126,806.22 590.055,775.798 636.433,754.66 679.665,741.463 718.132,734.424 751.065,731.805 778.332,732.161 800.217,734.409 817.236,737.803 829.994,741.876 839.099,746.375 845.1,751.197 848.459,756.349 849.542,761.916 848.611,768.035 845.831,774.883 841.277,782.675 834.938,791.658 826.722,802.112 816.462,814.35 803.918,828.72 788.781,845.593 770.681,865.347 749.2,888.327 723.904,914.779 694.391,944.728 660.384,977.795 621.874,1012.94 579.326,1048.13 533.954,1080.06 488.008,1104.04 444.957,1114.47 409.373,1106.1 386.302,1076.1 380.089,1026.03 393.007,962.296 424.35,894.415 470.53,831.658 526.16,780.268 585.522,742.545 643.756,717.657 697.446,703.11 744.663,696.003 784.694,693.743 817.671,694.317 844.236,696.298 865.274,698.746 881.743,701.083 894.564,702.977 904.566,704.258 912.467,704.852 918.865,704.731 924.257,703.888 929.051,702.313 933.588,699.98 938.157,696.84 943.015,692.814 948.404,687.789 954.562,681.608 961.74,674.074 970.213,664.936 980.294,653.889 992.343,640.565 1006.78,624.54 1024.09,605.331 1044.82,582.429 1069.58,555.343 1099.02,523.704 1133.72,487.441 1174.1,447.073 1220.21,404.14 1271.34,361.747 1325.65,325.05 1379.67,301.281 1428.09,298.669 1464.21,323.78 1481.24,377.872 1474.45,454.488 1443.1,540.804 1390.96,622.647 1324.95,689.82 1252.97,738.36 1181.8,769.435 1116.18,786.83 1058.64,794.838 1010.05,797.143 970.078,796.483 937.777,794.718 911.891,793.032 891.11,792.137 874.188,792.445 860.012,794.184 847.615,797.489 836.171,802.459 824.974,809.185 813.414,817.782 800.954,828.391 787.103,841.18 771.405,856.335 753.429,874.037 732.771,894.419 709.075,917.498 682.078,943.083 651.672,970.628 618.022,999.065 581.704,1026.62 543.874,1050.68 506.42,1067.87 472.017,1074.44 443.969,1067.13 425.758,1044.37 420.312,1007.26 429.195,959.884 452.063,908.294 486.668,858.747 529.425,816.016 576.277,782.568 623.493,758.717 668.172,743.348 708.407,734.71 743.202,730.989 772.272,730.625 795.813,732.417 814.3,735.519 828.336,739.388 838.544,743.712 845.504,748.348 849.712,753.275 851.569,758.554 851.374,764.305 849.326,770.693 845.532,777.916 840.011,786.206 832.703,795.828 823.47,807.081 812.1,820.298 798.311,835.845 781.755,854.105 762.026,875.457 738.683,900.222 711.286,928.571 679.463,960.378 643.028,994.994 602.152,1030.95 557.614,1065.6 511.096,1094.91 465.453,1113.54 424.792,1115.7 394.126,1096.87 378.452,1056.09 381.366,997.397 403.795,929.288 443.506,861.834 495.758,803.271 554.698,757.972 614.811,726.504 671.84,706.955 723.09,696.422 767.273,692.029 804.154,691.413 834.176,692.831 858.154,695.099 877.048,697.461 891.83,699.47 903.4,700.88 912.546,701.57 919.944,701.489 926.153,700.613 931.639,698.926 936.79,696.397 941.938,692.973 947.373,688.569 953.368,683.066 960.188,676.298 968.11,668.055 977.434,658.074 988.498,646.036 1001.69,631.562 1017.44,614.221 1036.26,593.541 1058.71,569.049 1085.39,540.336 1116.88,507.195 1153.67,469.839 1195.99,429.236 1243.52,387.574 1295.08,348.753 1348.15,318.673 1398.56,304.798 1440.53,314.45 1467.47,351.777 1473.65,414.651 1456.19,493.895 1416.37,576.278 1359.3,649.675 1292.21,706.95 1222.31,746.585 1155.29,770.904 1094.79,783.795 1042.54,789.132 998.893,790.052 963.263,788.817 934.611,786.933 911.711,785.345 893.329,784.615 878.324,785.061 865.684,786.864 854.541,790.135 844.152,794.96 833.88,801.437 823.172,809.688 811.53,819.87 798.491,832.178 783.612,846.832 766.459,864.068 746.604,884.096 723.643,907.046 697.231,932.883 667.138,961.265 633.357,991.369 596.244,1021.67 556.709,1049.73 516.412,1072.15 477.903,1084.78 444.582,1083.51 420.344,1065.51 408.852,1030.69 412.579,982.415 431.997,926.983 465.311,871.702 508.916,822.703 558.343,783.567 609.258,755.204 658.162,736.614 702.673,725.861 741.49,720.831 774.172,719.663 800.874,720.909 822.103,723.537 838.538,726.873 850.899,730.513 859.867,734.246 866.043,738.001 869.927,741.791 871.911,745.691 872.289,749.811 871.262,754.291 868.947,759.292 865.386,764.997 860.554,771.612 854.36,779.375 846.651,788.558 837.21,799.476 825.754,812.49 811.93,828.01 795.317,846.488 775.422,868.397 751.698,894.189 723.572,924.201 690.506,958.502 652.115,996.637 608.36,1037.26 559.832,1077.65 508.144,1113.31 456.326,1137.86 409.053,1143.86 372.362,1124.98 352.567,1079.12 354.456,1010.82 379.477,930.802 424.994,852.031 485.119,784.883 552.631,734.407 620.886,700.651 684.964,680.693 741.944,670.67 790.608,667.015 830.95,666.951 863.695,668.518 889.935,670.433 910.877,671.904 927.703,672.464 941.488,671.852 953.174,669.92 963.569,666.572 973.361,661.724 983.142,655.279 993.431,647.106 1004.7,637.039 1017.39,624.871 1031.94,610.362 1048.78,593.254 1068.35,573.301 1091.07,550.324 1117.31,524.295 1147.37,495.472 1181.31,464.578 1218.86,433.039 1259.23,403.219 1300.84,378.54 1341.19,363.317 1376.83,362.048 1403.67,378.109 1417.72,412.165 1416.1,461.138 1397.96,518.609 1364.91,576.745 1320.59,628.752 1269.69,670.522 1216.85,700.887 1165.85,720.831 1119.3,732.413 1078.61,737.913 1044.28,739.344 1016.17,738.275 993.733,735.82 976.247,732.715 962.94,729.401 953.077,726.116 946.005,722.956 941.177,719.927 938.152,716.98 936.591,714.03 936.246,710.973 936.948,707.691 938.598,704.053 941.159,699.914 944.646,695.113 949.127,689.465 954.718,682.758 961.588,674.742 969.958,665.121 980.11,653.55 992.393,639.621 1007.23,622.868 1025.11,602.769 1046.63,578.775 1072.41,550.363 1103.13,517.153 1139.41,479.107 1181.66,436.866 1229.85,392.229 1283.14,348.762 1339.36,312.301 1394.55,290.85 1442.81,293.158 1476.85,325.518 1489.73,387.787 1477.13,471.365 1439.32,561.656 1381.2,644.044 1310.58,709.199 1235.67,754.545 1163.13,782.391 1097.29,797.146 1040.29,803.296 992.586,804.478 953.596,803.296 922.182,801.467 896.985,800.058 876.638,799.697 859.872,800.741 845.567,803.386 832.756,807.753 820.619,813.934 808.453,822.021 795.653,832.128 781.683,844.385 766.065,858.936 748.36,875.913 728.176,895.396 705.183,917.355 679.151,941.553 650.014,967.428 617.965,993.94 583.584,1019.43 547.978,1041.5 512.902,1057.15 480.791,1063.09 454.609,1056.5 437.452,1036.02 431.923,1002.59 439.447,959.68 459.797,912.509 491.076,866.598 530.161,826.329 573.434,794.164 617.477,770.678 659.545,755.103 697.755,746.003 731.045,741.792 759.02,741.051 781.753,742.656 799.601,745.795 813.064,749.936 822.681,754.769 828.959,760.153 832.338,766.07 833.168,772.591 831.702,779.853 828.097,788.044 822.416,797.39 814.634,808.153 804.644,820.626 792.264,835.126 777.244,851.98 759.277,871.505 738.021,893.964 713.132,919.492 684.323,947.982 651.453,978.912 614.664,1011.12 574.573,1042.56 532.496,1070.07 490.665,1089.48 452.321,1096.05 421.521,1085.69 402.537,1056.62 398.856,1010.71 412.112,953.673 441.443,893.475 483.654,837.742 534.106,791.663 587.894,757.28 640.803,734.081 689.798,720.123 733.093,713.028 769.947,710.597 800.37,711.074 824.84,713.182 844.076,716.067 858.876,719.198 870.022,722.277 878.217,725.166 884.064,727.829 888.055,730.291 890.581,732.614 891.937,734.879 892.339,737.18 891.933,739.614 890.807,742.287 888.999,745.312 886.504,748.812 883.277,752.928 879.232,757.823 874.246,763.688 868.151,770.749 860.735,779.279 851.727,789.605 840.797,802.114 827.541,817.265 811.475,835.587 792.028,857.668 768.543,884.124 740.297,915.519 706.547,952.215 666.642,994.106 620.212,1040.18 567.497,1087.89 509.83,1132.46 450.226,1166.38 393.865,1180.04 348.029,1164.11 320.942,1114.02 319.396,1034.14 346.038,938.047 398.003,843.184 467.907,763.517 546.547,705.365 625.601,668.101 699.141,647.334 763.875,637.821 818.651,635.043 863.743,635.677 900.226,637.501 929.533,639.126 953.169,639.732 972.561,638.858 988.984,636.255 1003.54,631.787 1017.16,625.371 1030.63,616.94 1044.61,606.423 1059.68,593.751 1076.32,578.865 1094.94,561.748 1115.86,542.475 1139.31,521.279 1165.36,498.642 1193.86,475.407 1224.35,452.882 1255.97,432.904 1287.36,417.796 1316.64,410.131 1341.47,412.255 1359.35,425.607 1368.02,450.052 1365.98,483.567 1352.88,522.53 1329.74,562.602 1298.69,599.815 1262.53,631.386 1224.2,656.003 1186.3,673.619 1150.8,685.007 1119.05,691.311 1091.74,693.715 1069.12,693.252 1051.09,690.728 1037.37,686.712 1027.58,681.565 1021.32,675.478 1018.23,668.507 1018.02,660.61 1020.47,651.669 1025.44,641.511 1032.91,629.925 1042.89,616.673 1055.49,601.512 1070.86,584.211 1089.2,564.594 1110.71,542.592 1135.54,518.327 1163.74,492.228 1195.13,465.177 1229.22,438.672 1265,414.941 1300.85,396.924 1334.43,387.985 1362.82,391.243 1382.81,408.59 1391.51,439.699 1387.11,481.603 1369.39,529.231 1339.92,576.813 1301.66,619.459 1258.29,654.168 1213.4,679.966 1169.99,697.418 1130.17,707.921 1095.2,713.118 1065.59,714.525 1041.35,713.368 1022.16,710.546 1007.5,706.662 996.832,702.076 989.611,696.969 985.365,691.386 983.709,685.277 984.355,678.522 987.114,670.949 991.891,662.345 998.679,652.46 1007.56,641.013 1018.69,627.692 1032.29,612.163 1048.66,594.087 1068.15,573.148 1091.12,549.107 1117.92,521.894 1148.82,491.748 1183.88,459.422 1222.82,426.437 1264.74,395.35 1307.94,369.891 1349.71,354.763 1386.29,354.825 1413.26,373.594 1426.39,411.471 1422.73,464.688 1401.65,525.942 1365.19,586.71 1317.48,639.967 1263.62,681.813 1208.46,711.508 1155.83,730.468 1108.25,741.064 1067,745.756 1032.44,746.634 1004.25,745.28 981.808,742.795 964.286,739.89 950.852,736.99 940.723,734.316 933.213,731.966 927.74,729.952 923.837,728.245 921.13,726.791 919.334,725.529 918.234,724.393 917.675,723.323 917.548,722.26 917.782,721.147 918.335,719.928 919.192,718.546 920.359,716.94 921.859,715.039 923.738,712.764 926.057,710.02 928.9,706.693 932.377,702.642 936.622,697.7 941.809,691.655 948.148,684.253 955.903,675.177 965.398,664.045 977.03,650.392 991.284,633.664 1008.74,613.213 1030.1,588.311 1056.16,558.195 1087.81,522.172 1125.95,479.828 1171.35,431.423 1224.39,378.518 1284.53,324.886 1349.7,277.472 1415.44,246.762 1474.44,245.264 1517.07,282.969 1533.63,360.805 1517.97,466.765 1470.47,579.702 1398.14,679.24 1311.76,753.936 1222.07,802.445 1137.12,829.629 1061.63,842.163 997.463,845.958 944.547,845.342 901.726,843.154 867.357,841.12 839.686,840.229 817.05,841.006 797.97,843.706 781.183,848.43 765.64,855.197 750.482,863.981 735.018,874.727 718.709,887.338 701.149,901.661 682.07,917.444 661.35,934.295 639.045,951.623 615.42,968.589 591.001,984.081 566.604,996.728 543.354,1005.01 522.644,1007.45 506.026,1002.94 495.014,991.033 490.84,972.239 494.193,948.04 505.046,920.669 522.622,892.656 545.518,866.321 571.95,843.389 600.043,824.837 628.07,810.941 654.621,801.468 678.666,795.893 699.546,793.584 716.919,793.931 730.677,796.423 740.874,800.67 747.656,806.409 751.203,813.488 751.697,821.847 749.292,831.494 744.106,842.483 736.212,854.891 725.647,868.788 712.426,884.212 696.557,901.12 678.082,919.35 657.111,938.551 633.885,958.12 608.837,977.136 582.664,994.328 556.389,1008.09 531.384,1016.64 509.327,1018.24 492.066,1011.65 481.368,996.501 478.605,973.637 484.442,945.076 498.653,913.653 520.12,882.388 547.047,853.865 577.286,829.82 608.691,811.049 639.39,797.559 667.939,788.849 693.356,784.169 715.082,782.735 732.889,783.848 746.788,786.956 756.936,791.661 763.557,797.716 766.893,804.995 767.166,813.473 764.552,823.196 759.171,834.264 751.086,846.802 740.309,860.94 726.812,876.783 710.547,894.37 691.482,913.63 669.638,934.309 645.153,955.889 618.354,977.505 589.846,997.862 560.599,1015.22 532.015,1027.47 505.919,1032.41 484.449,1028.2 469.796,1013.91 463.823,990.034 467.648,958.64 481.329,923.011 503.798,886.886 533.062,853.583 566.612,825.389 601.878,803.373 636.598,787.567 669.028,777.327 698,771.697 722.867,769.681 743.394,770.399 759.632,773.16 771.807,777.474 780.226,783.032 785.212,789.673 787.058,797.358 786.004,806.137 782.216,816.126 775.789,827.488 766.743,840.411 755.035,855.093 740.571,871.708 723.228,890.377 702.882,911.107 679.459,933.722 652.995,957.762 623.724,982.361 592.19,1006.13 559.367,1027.08 526.761,1042.68 496.449,1050.12 470.979,1046.87 453.074,1031.48 445.146,1004.25 448.729,967.648 464.023,925.795 489.773,883.47 523.527,844.86 562.193,812.726 602.642,788.189 642.192,771.049 678.849,760.304 711.354,754.646 739.086,752.789 761.906,753.654 779.997,756.418 793.721,760.517 803.517,765.601 809.82,771.496 813.023,778.158 813.441,785.641 811.305,794.074 806.754,803.638 799.838,814.557 790.525,827.085 778.703,841.493 764.2,858.052 746.79,877.008 726.223,898.532 702.264,922.649 674.748,949.136 643.669,977.366 609.307,1006.13 572.386,1033.47 534.246,1056.55 496.994,1071.81 463.517,1075.47 437.265,1064.5 421.719,1037.84 419.6,997.382 432.069,947.863 458.295,895.675 495.599,846.945 540.145,805.978 587.836,774.683 635.069,752.927 679.157,739.335 718.419,732.064 752.058,729.312 779.935,729.584 802.344,731.758 819.816,735.061 832.98,739.01 842.462,743.335 848.835,747.928 852.581,752.786 854.083,757.986 853.623,763.654 851.383,769.96 847.457,777.105 841.851,785.323 834.496,794.878 825.243,806.073 813.873,819.243 800.097,834.757 783.557,853.009 763.84,874.388 740.491,899.228 713.054,927.722 681.14,959.769 644.535,994.749 603.384,1031.21 558.437,1066.53 511.357,1096.62 465.005,1116.05 423.535,1118.85 392.06,1100.3 375.722,1059.25 378.266,999.741 400.712,930.443 440.828,861.721 493.782,802.072 553.586,756.006 614.593,724.088 672.453,704.329 724.422,693.733 769.201,689.345 806.565,688.748 836.98,690.163 861.285,692.387 880.47,694.655 895.529,696.512 907.381,697.707 916.838,698.115 924.588,697.677 931.211,696.36 937.188,694.137 942.925,690.963 948.773,686.766 955.046,681.44 962.041,674.838 970.055,666.765 979.399,656.977 990.411,645.175 1003.47,631.003 1019.02,614.057 1037.52,593.895 1059.53,570.076 1085.6,542.226 1116.3,510.162 1152.07,474.097 1193.12,434.95 1239.16,394.765 1289.06,357.168 1340.49,327.618 1389.58,313.05 1430.94,320.371 1458.38,353.754 1466.36,411.763 1451.88,486.403 1415.74,565.528 1362.41,637.464 1298.58,694.818 1231.16,735.448 1165.79,761.07 1106.25,775.172 1054.46,781.434 1010.94,782.941 975.289,781.972 946.583,780.076 923.682,778.24 905.41,777.059 890.665,776.873 878.463,777.872 867.955,780.165 858.42,783.834 849.238,788.96 839.876,795.651 829.857,804.047 818.742,814.334 806.105,826.736 791.521,841.516 774.559,858.958 754.775,879.333 731.732,902.852 705.027,929.568 674.357,959.245 639.62,991.159 601.068,1023.84 559.522,1054.84 516.604,1080.52 474.936,1096.3 438.16,1097.36 410.603,1080.11 396.498,1043.9 398.865,992.136 418.506,931.82 453.601,871.343 500.195,817.816 553.293,775.354 608.043,744.924 660.559,725.275 708.243,714.12 749.722,709.026 784.583,707.89 813.064,709.107 835.783,711.551 853.528,714.488 867.125,717.478 877.352,720.287 884.894,722.815 890.33,725.045 894.131,727.01 896.665,728.769 898.217,730.393 898.993,731.955 899.142,733.533 898.76,735.201 897.903,737.038 896.591,739.127 894.814,741.555 892.535,744.426 889.689,747.855 886.182,751.982 881.892,756.975 876.659,763.034 870.284,770.407 862.518,779.392 853.056,790.351 841.521,803.72 827.458,820.016 810.319,839.837 789.46,863.851 764.137,892.751 733.533,927.158 696.825,967.429 653.311,1013.31 602.668,1063.37 545.367,1114.24 483.277,1159.74 420.361,1190.56 363.142,1195.42 320.31,1164.86 300.879,1096.81 311.074,1000.55 351.505,894.383 416.599,797.457 496.819,721.955 582.056,670.872 664.238,640.778 738.306,625.794 801.96,620.272 854.878,619.858 897.927,621.581 932.556,623.568 960.404,624.707 983.074,624.379 1002.02,622.257 1018.5,618.183 1033.59,612.086 1048.17,603.936 1062.98,593.722 1078.62,581.452 1095.56,567.167 1114.2,550.972 1134.78,533.083 1157.42,513.891 1182.06,494.033 1208.4,474.466 1235.83,456.518 1263.4,441.877 1289.74,432.463 1313.13,430.159 1331.66,436.391 1343.43,451.653 1346.95,475.164 1341.45,504.84 1327.12,537.68 1305.09,570.445 1277.26,600.351 1245.88,625.532 1213.23,645.143 1181.3,659.193 1151.61,668.243 1125.18,673.109 1102.58,674.639 1084.03,673.583 1069.51,670.532 1058.84,665.905 1051.75,659.965 1047.99,652.844 1047.32,644.566 1049.53,635.081 1054.51,624.281 1062.18,612.023 1072.53,598.155 1085.6,582.54 1101.45,565.091 1120.16,545.818 1141.75,524.894 1166.16,502.736 1193.14,480.106 1222.2,458.199 1252.47,438.705 1282.66,423.768 1310.96,415.774 1335.2,416.926 1353.02,428.636 1362.23,450.91 1361.35,482.027 1349.95,518.747 1328.81,557.057 1299.85,593.163 1265.64,624.279 1228.97,648.952 1192.33,666.948 1157.74,678.863 1126.55,685.708 1099.55,688.585 1077.05,688.486 1059.03,686.203 1045.26,682.309 1035.4,677.176 1029.1,671.006 1026.01,663.871 1025.87,655.739 1028.46,646.505 1033.65,636.007 1041.4,624.047 1051.73,610.406 1064.74,594.865 1080.56,577.232 1099.36,557.386 1121.28,535.336 1146.43,511.308 1174.74,485.866 1205.94,460.045 1239.37,435.489 1273.88,414.511 1307.71,400.001 1338.46,395.041 1363.28,402.204 1379.24,422.63 1383.93,455.273 1376.07,496.761 1355.95,542.142 1325.44,586.23 1287.51,624.926 1245.61,655.911 1202.99,678.627 1162.28,693.766 1125.27,702.661 1093.01,706.794 1065.88,707.506 1043.86,705.863 1026.61,702.64 1013.67,698.346 1004.55,693.278 998.763,687.567 995.903,681.223 995.648,674.169 997.769,666.259 1002.13,657.3 1008.69,647.056 1017.5,635.261 1028.66,621.621 1042.39,605.832 1058.94,587.592 1078.59,566.644 1101.66,542.83 1128.43,516.191 1159.04,487.102 1193.45,456.469 1231.19,425.95 1271.23,398.154 1311.76,376.679 1350.04,365.801 1382.49,369.607 1405.14,390.634 1414.38,428.451 1407.96,479.042 1385.8,535.664 1350.07,590.918 1304.65,638.939 1254.14,676.587 1202.83,703.362 1154.07,720.535 1110.07,730.168 1071.97,734.393 1040.08,735.037 1014.16,733.489 993.628,730.725 977.788,727.372 965.905,723.801 957.297,720.196 951.368,716.615 947.627,713.035 945.689,709.38 945.266,705.542 946.162,701.385 948.261,696.757 951.52,691.486 955.958,685.375 961.66,678.201 968.766,669.708 977.481,659.596 988.071,647.521 1000.87,633.085 1016.28,615.842 1034.79,595.307 1056.93,570.992 1083.29,542.472 1114.47,509.51 1150.96,472.274 1193,431.664 1240.35,389.775 1291.88,350.398 1345.17,319.34 1396.13,304.055 1439.04,312.025 1467.27,347.755 1474.92,409.57 1458.87,488.614 1420.12,571.643 1363.63,646.222 1296.62,704.811 1226.39,745.594 1158.8,770.768 1097.6,784.222 1044.66,789.889 1000.36,790.978 964.162,789.811 935.035,787.939 911.746,786.337 893.053,785.586 877.798,786.015 864.958,787.812 853.651,791.089 843.122,795.937 832.728,802.45 821.905,810.752 810.152,820.996 797.001,833.374 782.008,848.105 764.736,865.415 744.764,885.505 721.691,908.493 695.182,934.321 665.024,962.622 631.23,992.538 594.188,1022.5 554.842,1050.06 514.888,1071.78 476.899,1083.58 444.273,1081.45 420.858,1062.71 410.221,1027.47 414.711,979.218 434.674,924.24 468.241,869.716 511.794,821.584 560.915,783.255 611.352,755.544 659.689,737.425 703.617,726.984 741.88,722.147 774.062,721.096 800.324,722.417 821.173,725.108 837.277,728.51 849.344,732.235 858.041,736.081 863.954,739.984 867.569,743.963 869.268,748.1 869.329,752.514 867.941,757.35 865.209,762.781 861.159,769.002 855.749,776.235 848.872,784.733 840.353,794.788 829.953,806.734 817.364,820.951 802.208,837.864 784.038,857.927 762.347,881.594 736.586,909.252 706.21,941.103 670.765,976.966 630.039,1015.97 584.294,1056.14 534.597,1093.96 483.211,1124.07 433.924,1139.6 392.042,1133.59 363.741,1101.66 354.622,1044.9 367.863,970.952 402.884,891.839 455.385,819.354 518.766,761.164 586.094,719.674 651.627,693.33 711.503,678.699 763.699,672.092 807.631,670.388 843.664,671.266 872.699,673.142 895.869,675.004 914.347,676.24 929.242,676.498 941.541,675.584 952.1,673.384 961.648,669.817 970.806,664.803 980.112,658.237 990.043,649.98 1001.04,639.851 1013.53,627.625 1027.93,613.043 1044.68,595.82 1064.22,575.68 1086.99,552.404 1113.4,525.918 1143.76,496.426 1178.2,464.602 1216.5,431.84 1257.91,400.517 1300.87,374.163 1342.84,357.321 1380.25,354.851 1408.8,370.536 1424.19,405.336 1423.25,456.166 1404.95,516.24 1370.93,577.142 1324.99,631.549 1272.13,675.063 1217.24,706.489 1164.34,726.952 1116.11,738.705 1074.04,744.202 1038.59,745.587 1009.57,744.51 986.378,742.138 968.23,739.231 954.297,736.252 943.794,733.448 936.023,730.93 930.395,728.719 926.43,726.787 923.747,725.078 922.056,723.525 921.139,722.054 920.843,720.594 921.064,719.072 921.738,717.415 922.837,715.548 924.363,713.388 926.345,710.845 928.834,707.814 931.911,704.171 935.682,699.768 940.287,694.424 945.901,687.923 952.743,679.997 961.084,670.323 971.259,658.508 983.675,644.083 998.824,626.493 1017.3,605.102 1039.79,579.213 1067.08,548.131 1100.02,511.287 1139.42,468.488 1185.9,420.341 1239.55,368.914 1299.46,318.602 1363.02,276.897 1425.27,254.312 1478.63,262.254 1513.81,308.207 1522.32,390.018 1499.8,493.948 1448.16,599.834 1375.06,690.247 1290.83,756.601 1205.14,798.994 1125,822.398 1054.32,832.946 994.502,835.907 945.294,835.108 905.507,833.058 873.555,831.293 847.773,830.699 826.592,831.755 808.622,834.702 792.672,839.65 777.744,846.643 763.013,855.692 747.806,866.788 731.575,879.898 713.891,894.936 694.441,911.734 673.043,929.981 649.676,949.162 624.525,968.483 598.043,986.816 571.008,1002.68 544.568,1014.3 520.235,1019.84 499.794,1017.67 485.108,1006.89 477.821,987.656 479.023,961.414 488.975,930.679 507.003,898.518 531.601,867.873 560.723,840.993 592.141,819.177 623.78,802.81 653.937,791.601 681.376,784.878 705.321,781.835 725.387,781.701 741.478,783.83 753.693,787.737 762.237,793.095 767.358,799.716 769.297,807.525 768.262,816.537 764.405,826.828 757.821,838.517 748.548,851.742 736.574,866.632 721.853,883.279 704.332,901.691 683.985,921.739 660.865,943.079 635.166,965.064 607.31,986.658 578.04,1006.36 548.5,1022.24 520.286,1032.06 495.404,1033.64 476.096,1025.38 464.521,1006.84 462.334,979.183 470.276,945.089 487.939,908.221 513.812,872.334 545.588,840.446 580.628,814.375 616.404,794.725 650.813,781.184 682.329,772.906 710.001,768.863 733.37,768.069 752.341,769.7 767.061,773.138 777.81,777.963 784.922,783.927 788.719,790.923 789.486,798.951 787.438,808.093 782.717,818.489 775.39,830.318 765.45,843.782 752.829,859.083 737.413,876.392 719.064,895.813 697.656,917.32 673.124,940.675 645.542,965.316 615.209,990.235 582.776,1013.85 549.367,1033.97 516.674,1047.88 486.969,1052.69 462.952,1046.01 447.385,1026.77 442.553,995.911 449.679,956.526 468.537,913.202 497.436,870.8 533.599,833.253 573.783,802.872 614.88,780.33 654.348,765.089 690.388,755.96 721.941,751.569 748.553,750.645 770.214,752.158 787.191,755.352 799.896,759.721 808.792,764.97 814.319,770.963 816.861,777.69 816.721,785.226 814.11,793.718 809.149,803.361 801.869,814.388 792.218,827.064 780.066,841.67 765.22,858.487 747.439,877.769 726.456,899.695 702.017,924.293 673.946,951.331 642.234,980.158 607.167,1009.51 569.499,1037.34 530.63,1060.67 492.762,1075.79 458.908,1078.77 432.654,1066.52 417.585,1038.12 416.441,995.71 430.299,944.414 458.142,890.937 497.072,841.543 543.061,800.483 591.893,769.49 639.931,748.23 684.513,735.171 724.023,728.367 757.737,725.971 785.585,726.471 807.919,728.752 825.314,732.052 838.432,735.899 847.923,740.037 854.374,744.36 858.281,748.87 860.036,753.639 859.931,758.789 858.159,764.479 854.825,770.897 849.95,778.262 843.482,786.82 835.291,796.856 825.18,808.689 812.881,822.679 798.055,839.222 780.299,858.734 759.153,881.622 734.125,908.221 704.73,938.681 670.581,972.788 631.519,1009.69 587.832,1047.54 540.543,1083.11 491.752,1111.56 "/>
</svg>
