<?xml version="1.0" encoding="utf-8"?>
<svg xmlns="http://www.w3.org/2000/svg" xmlns:xlink="http://www.w3.org/1999/xlink" width="380" height="380" viewBox="0 0 1520 1520">
<defs>
  <clipPath id="clip130">
    <rect x="0" y="0" width="1520" height="1520"/>
  </clipPath>
</defs>
<path clip-path="url(#clip130)" d="M0 1520 L1520 1520 L1520 0 L0 0  Z" fill="#ffffff" fill-rule="evenodd" fill-opacity="1"/>
<defs>
  <clipPath id="clip131">
    <rect x="47" y="153" width="1427" height="1320"/>
  </clipPath>
</defs>
<path clip-path="url(#clip130)" d="M47.2441 1472.76 L1472.76 1472.76 L1472.76 153.712 L47.2441 153.712  Z" fill="#ffffff" fill-rule="evenodd" fill-opacity="1"/>
<path clip-path="url(#clip130)" d="M450.045 14.0809 L450.045 22.0612 Q445.387 19.8332 441.255 18.7395 Q437.123 17.6457 433.274 17.6457 Q426.59 17.6457 422.945 20.2383 Q419.339 22.8309 419.339 27.611 Q419.339 31.6214 421.729 33.6873 Q424.16 35.7128 430.884 36.9686 L435.826 37.9813 Q444.981 39.7232 449.316 44.1387 Q453.691 48.5136 453.691 55.8863 Q453.691 64.6767 447.777 69.2137 Q441.903 73.7508 430.52 73.7508 Q426.226 73.7508 421.365 72.7785 Q416.544 71.8063 411.359 69.9024 L411.359 61.4765 Q416.342 64.2716 421.122 65.6895 Q425.902 67.1073 430.52 67.1073 Q437.528 67.1073 441.336 64.3527 Q445.143 61.598 445.143 56.4939 Q445.143 52.0379 442.389 49.5264 Q439.675 47.0148 433.436 45.759 L428.454 44.7868 Q419.299 42.9639 415.207 39.075 Q411.116 35.1862 411.116 28.2591 Q411.116 20.2383 416.747 15.6203 Q422.418 11.0023 432.343 11.0023 Q436.596 11.0023 441.012 11.7719 Q445.427 12.5416 450.045 14.0809 Z" fill="#000000" fill-rule="nonzero" fill-opacity="1" /><path clip-path="url(#clip130)" d="M466.127 27.2059 L473.581 27.2059 L473.581 72.576 L466.127 72.576 L466.127 27.2059 M466.127 9.54393 L473.581 9.54393 L473.581 18.9825 L466.127 18.9825 L466.127 9.54393 Z" fill="#000000" fill-rule="nonzero" fill-opacity="1" /><path clip-path="url(#clip130)" d="M527.984 48.0275 L527.984 51.6733 L493.714 51.6733 Q494.2 59.3701 498.332 63.421 Q502.504 67.4314 509.917 67.4314 Q514.211 67.4314 518.222 66.3781 Q522.273 65.3249 526.243 63.2184 L526.243 70.267 Q522.232 71.9684 518.019 72.8596 Q513.806 73.7508 509.472 73.7508 Q498.615 73.7508 492.255 67.4314 Q485.936 61.1119 485.936 50.3365 Q485.936 39.1965 491.931 32.6746 Q497.967 26.1121 508.176 26.1121 Q517.331 26.1121 522.637 32.0264 Q527.984 37.9003 527.984 48.0275 M520.531 45.84 Q520.45 39.7232 517.088 36.0774 Q513.766 32.4315 508.257 32.4315 Q502.018 32.4315 498.251 35.9558 Q494.524 39.4801 493.957 45.8805 L520.531 45.84 Z" fill="#000000" fill-rule="nonzero" fill-opacity="1" /><path clip-path="url(#clip130)" d="M566.509 34.1734 Q565.253 33.4443 563.754 33.1202 Q562.296 32.7556 560.513 32.7556 Q554.194 32.7556 550.791 36.8875 Q547.429 40.9789 547.429 48.6757 L547.429 72.576 L539.935 72.576 L539.935 27.2059 L547.429 27.2059 L547.429 34.2544 Q549.778 30.1225 553.546 28.1376 Q557.313 26.1121 562.701 26.1121 Q563.47 26.1121 564.402 26.2337 Q565.334 26.3147 566.468 26.5172 L566.509 34.1734 Z" fill="#000000" fill-rule="nonzero" fill-opacity="1" /><path clip-path="url(#clip130)" d="M581.537 65.7705 L581.537 89.8329 L574.043 89.8329 L574.043 27.2059 L581.537 27.2059 L581.537 34.0924 Q583.887 30.0415 587.452 28.0971 Q591.057 26.1121 596.04 26.1121 Q604.303 26.1121 609.448 32.6746 Q614.633 39.2371 614.633 49.9314 Q614.633 60.6258 609.448 67.1883 Q604.303 73.7508 596.04 73.7508 Q591.057 73.7508 587.452 71.8063 Q583.887 69.8214 581.537 65.7705 M606.896 49.9314 Q606.896 41.7081 603.493 37.0496 Q600.131 32.3505 594.217 32.3505 Q588.302 32.3505 584.9 37.0496 Q581.537 41.7081 581.537 49.9314 Q581.537 58.1548 584.9 62.8538 Q588.302 67.5124 594.217 67.5124 Q600.131 67.5124 603.493 62.8538 Q606.896 58.1548 606.896 49.9314 Z" fill="#000000" fill-rule="nonzero" fill-opacity="1" /><path clip-path="url(#clip130)" d="M626.989 27.2059 L634.442 27.2059 L634.442 72.576 L626.989 72.576 L626.989 27.2059 M626.989 9.54393 L634.442 9.54393 L634.442 18.9825 L626.989 18.9825 L626.989 9.54393 Z" fill="#000000" fill-rule="nonzero" fill-opacity="1" /><path clip-path="url(#clip130)" d="M671.265 5.93863 L679.326 5.93863 L666.12 21.17 L659.922 21.17 L671.265 5.93863 M687.752 45.1919 L687.752 72.576 L680.298 72.576 L680.298 45.4349 Q680.298 38.994 677.787 35.7938 Q675.275 32.5936 670.252 32.5936 Q664.216 32.5936 660.733 36.4419 Q657.249 40.2903 657.249 46.9338 L657.249 72.576 L649.755 72.576 L649.755 27.2059 L657.249 27.2059 L657.249 34.2544 Q659.922 30.163 663.528 28.1376 Q667.174 26.1121 671.913 26.1121 Q679.731 26.1121 683.742 30.9732 Q687.752 35.7938 687.752 45.1919 Z" fill="#000000" fill-rule="nonzero" fill-opacity="1" /><path clip-path="url(#clip130)" d="M731.542 28.5427 L731.542 35.5912 Q728.383 33.9709 724.98 33.1607 Q721.577 32.3505 717.931 32.3505 Q712.382 32.3505 709.586 34.0519 Q706.832 35.7533 706.832 39.156 Q706.832 41.7486 708.817 43.2475 Q710.802 44.7058 716.797 46.0426 L719.349 46.6097 Q727.289 48.3111 730.611 51.4303 Q733.973 54.509 733.973 60.0587 Q733.973 66.3781 728.95 70.0644 Q723.967 73.7508 715.217 73.7508 Q711.571 73.7508 707.602 73.0216 Q703.672 72.3329 699.297 70.9151 L699.297 63.2184 Q703.429 65.3654 707.44 66.4591 Q711.45 67.5124 715.379 67.5124 Q720.645 67.5124 723.481 65.73 Q726.317 63.9071 726.317 60.6258 Q726.317 57.5877 724.251 55.9673 Q722.225 54.3469 715.298 52.8481 L712.706 52.2405 Q705.779 50.7821 702.7 47.7845 Q699.621 44.7463 699.621 39.4801 Q699.621 33.0797 704.158 29.5959 Q708.695 26.1121 717.04 26.1121 Q721.172 26.1121 724.818 26.7198 Q728.464 27.3274 731.542 28.5427 Z" fill="#000000" fill-rule="nonzero" fill-opacity="1" /><path clip-path="url(#clip130)" d="M745.559 9.54393 L753.053 9.54393 L753.053 46.7717 L775.292 27.2059 L784.812 27.2059 L760.749 48.4326 L785.825 72.576 L776.102 72.576 L753.053 50.4176 L753.053 72.576 L745.559 72.576 L745.559 9.54393 Z" fill="#000000" fill-rule="nonzero" fill-opacity="1" /><path clip-path="url(#clip130)" d="M793.886 27.2059 L801.339 27.2059 L801.339 72.576 L793.886 72.576 L793.886 27.2059 M793.886 9.54393 L801.339 9.54393 L801.339 18.9825 L793.886 18.9825 L793.886 9.54393 Z" fill="#000000" fill-rule="nonzero" fill-opacity="1" /><path clip-path="url(#clip130)" d="M873.162 49.3643 Q873.162 41.2625 869.8 36.8065 Q866.478 32.3505 860.442 32.3505 Q854.447 32.3505 851.085 36.8065 Q847.763 41.2625 847.763 49.3643 Q847.763 57.4256 851.085 61.8816 Q854.447 66.3376 860.442 66.3376 Q866.478 66.3376 869.8 61.8816 Q873.162 57.4256 873.162 49.3643 M880.616 66.9452 Q880.616 78.5308 875.471 84.1616 Q870.326 89.8329 859.713 89.8329 Q855.784 89.8329 852.3 89.2252 Q848.816 88.6581 845.535 87.4428 L845.535 80.1917 Q848.816 81.9741 852.016 82.8248 Q855.217 83.6755 858.538 83.6755 Q865.87 83.6755 869.516 79.8271 Q873.162 76.0193 873.162 68.282 L873.162 64.5957 Q870.853 68.6061 867.248 70.5911 Q863.642 72.576 858.619 72.576 Q850.274 72.576 845.17 66.2161 Q840.066 59.8562 840.066 49.3643 Q840.066 38.832 845.17 32.472 Q850.274 26.1121 858.619 26.1121 Q863.642 26.1121 867.248 28.0971 Q870.853 30.082 873.162 34.0924 L873.162 27.2059 L880.616 27.2059 L880.616 66.9452 Z" fill="#000000" fill-rule="nonzero" fill-opacity="1" /><path clip-path="url(#clip130)" d="M916.588 49.7694 Q907.554 49.7694 904.07 51.8354 Q900.587 53.9013 900.587 58.8839 Q900.587 62.8538 903.179 65.2034 Q905.812 67.5124 910.309 67.5124 Q916.507 67.5124 920.234 63.1374 Q924.001 58.7219 924.001 51.4303 L924.001 49.7694 L916.588 49.7694 M931.455 46.6907 L931.455 72.576 L924.001 72.576 L924.001 65.6895 Q921.449 69.8214 917.641 71.8063 Q913.833 73.7508 908.324 73.7508 Q901.356 73.7508 897.224 69.8619 Q893.133 65.9325 893.133 59.3701 Q893.133 51.7138 898.237 47.825 Q903.382 43.9361 913.55 43.9361 L924.001 43.9361 L924.001 43.2069 Q924.001 38.0623 920.598 35.2672 Q917.236 32.4315 911.119 32.4315 Q907.23 32.4315 903.544 33.3632 Q899.857 34.295 896.455 36.1584 L896.455 29.2718 Q900.546 27.692 904.394 26.9223 Q908.243 26.1121 911.889 26.1121 Q921.732 26.1121 926.593 31.2163 Q931.455 36.3204 931.455 46.6907 Z" fill="#000000" fill-rule="nonzero" fill-opacity="1" /><path clip-path="url(#clip130)" d="M975.731 28.5427 L975.731 35.5912 Q972.571 33.9709 969.168 33.1607 Q965.766 32.3505 962.12 32.3505 Q956.57 32.3505 953.775 34.0519 Q951.02 35.7533 951.02 39.156 Q951.02 41.7486 953.005 43.2475 Q954.99 44.7058 960.986 46.0426 L963.538 46.6097 Q971.477 48.3111 974.799 51.4303 Q978.161 54.509 978.161 60.0587 Q978.161 66.3781 973.138 70.0644 Q968.156 73.7508 959.406 73.7508 Q955.76 73.7508 951.79 73.0216 Q947.861 72.3329 943.486 70.9151 L943.486 63.2184 Q947.618 65.3654 951.628 66.4591 Q955.638 67.5124 959.568 67.5124 Q964.834 67.5124 967.67 65.73 Q970.505 63.9071 970.505 60.6258 Q970.505 57.5877 968.439 55.9673 Q966.414 54.3469 959.487 52.8481 L956.894 52.2405 Q949.967 50.7821 946.888 47.7845 Q943.81 44.7463 943.81 39.4801 Q943.81 33.0797 948.347 29.5959 Q952.884 26.1121 961.229 26.1121 Q965.361 26.1121 969.006 26.7198 Q972.652 27.3274 975.731 28.5427 Z" fill="#000000" fill-rule="nonzero" fill-opacity="1" /><path clip-path="url(#clip130)" d="M989.747 9.54393 L997.241 9.54393 L997.241 46.7717 L1019.48 27.2059 L1029 27.2059 L1004.94 48.4326 L1030.01 72.576 L1020.29 72.576 L997.241 50.4176 L997.241 72.576 L989.747 72.576 L989.747 9.54393 Z" fill="#000000" fill-rule="nonzero" fill-opacity="1" /><path clip-path="url(#clip130)" d="M1073.92 48.0275 L1073.92 51.6733 L1039.65 51.6733 Q1040.14 59.3701 1044.27 63.421 Q1048.44 67.4314 1055.86 67.4314 Q1060.15 67.4314 1064.16 66.3781 Q1068.21 65.3249 1072.18 63.2184 L1072.18 70.267 Q1068.17 71.9684 1063.96 72.8596 Q1059.75 73.7508 1055.41 73.7508 Q1044.56 73.7508 1038.2 67.4314 Q1031.88 61.1119 1031.88 50.3365 Q1031.88 39.1965 1037.87 32.6746 Q1043.91 26.1121 1054.12 26.1121 Q1063.27 26.1121 1068.58 32.0264 Q1073.92 37.9003 1073.92 48.0275 M1066.47 45.84 Q1066.39 39.7232 1063.03 36.0774 Q1059.71 32.4315 1054.2 32.4315 Q1047.96 32.4315 1044.19 35.9558 Q1040.46 39.4801 1039.9 45.8805 L1066.47 45.84 Z" fill="#000000" fill-rule="nonzero" fill-opacity="1" /><path clip-path="url(#clip130)" d="M1093.53 14.324 L1093.53 27.2059 L1108.88 27.2059 L1108.88 32.9987 L1093.53 32.9987 L1093.53 57.6282 Q1093.53 63.1779 1095.03 64.7578 Q1096.57 66.3376 1101.23 66.3376 L1108.88 66.3376 L1108.88 72.576 L1101.23 72.576 Q1092.6 72.576 1089.32 69.3758 Q1086.04 66.1351 1086.04 57.6282 L1086.04 32.9987 L1080.57 32.9987 L1080.57 27.2059 L1086.04 27.2059 L1086.04 14.324 L1093.53 14.324 Z" fill="#000000" fill-rule="nonzero" fill-opacity="1" /><polyline clip-path="url(#clip131)" style="stroke:#2e8b57; stroke-linecap:round; stroke-linejoin:round; stroke-width:2.4; stroke-opacity:1; fill:none" points="87.5888,1386.46 108.602,1386.46 119.108,1368.26 108.602,1350.07 119.108,1331.87 140.121,1331.87 150.627,1350.07 140.121,1368.26 150.627,1386.46 171.64,1386.46 182.147,1368.26 203.159,1368.26 213.666,1386.46 234.679,1386.46 245.185,1368.26 234.679,1350.07 213.666,1350.07 203.159,1331.87 213.666,1313.67 203.159,1295.47 182.147,1295.47 171.64,1313.67 150.627,1313.67 140.121,1295.47 150.627,1277.27 171.64,1277.27 182.147,1259.08 171.64,1240.88 182.147,1222.68 203.159,1222.68 213.666,1240.88 234.679,1240.88 245.185,1222.68 234.679,1204.48 213.666,1204.48 203.159,1186.29 213.666,1168.09 234.679,1168.09 245.185,1149.89 234.679,1131.69 245.185,1113.5 266.198,1113.5 276.704,1131.69 266.198,1149.89 276.704,1168.09 297.717,1168.09 308.224,1186.29 297.717,1204.48 276.704,1204.48 266.198,1222.68 276.704,1240.88 297.717,1240.88 308.224,1222.68 329.237,1222.68 339.743,1240.88 329.237,1259.08 339.743,1277.27 360.756,1277.27 371.262,1295.47 360.756,1313.67 339.743,1313.67 329.237,1295.47 308.224,1295.47 297.717,1313.67 308.224,1331.87 297.717,1350.07 276.704,1350.07 266.198,1368.26 276.704,1386.46 297.717,1386.46 308.224,1368.26 329.237,1368.26 339.743,1386.46 360.756,1386.46 371.262,1368.26 360.756,1350.07 371.262,1331.87 392.275,1331.87 402.782,1350.07 392.275,1368.26 402.782,1386.46 423.794,1386.46 434.301,1368.26 455.314,1368.26 465.82,1386.46 486.833,1386.46 497.339,1368.26 486.833,1350.07 465.82,1350.07 455.314,1331.87 465.82,1313.67 486.833,1313.67 497.339,1295.47 486.833,1277.27 497.339,1259.08 518.352,1259.08 528.859,1277.27 518.352,1295.47 528.859,1313.67 549.871,1313.67 560.378,1331.87 549.871,1350.07 528.859,1350.07 518.352,1368.26 528.859,1386.46 549.871,1386.46 560.378,1368.26 581.391,1368.26 591.897,1386.46 612.91,1386.46 623.416,1368.26 612.91,1350.07 623.416,1331.87 644.429,1331.87 654.936,1350.07 644.429,1368.26 654.936,1386.46 675.949,1386.46 686.455,1368.26 707.468,1368.26 717.974,1386.46 738.987,1386.46 749.494,1368.26 738.987,1350.07 717.974,1350.07 707.468,1331.87 717.974,1313.67 707.468,1295.47 686.455,1295.47 675.949,1313.67 654.936,1313.67 644.429,1295.47 654.936,1277.27 675.949,1277.27 686.455,1259.08 675.949,1240.88 654.936,1240.88 644.429,1222.68 654.936,1204.48 644.429,1186.29 623.416,1186.29 612.91,1204.48 623.416,1222.68 612.91,1240.88 591.897,1240.88 581.391,1222.68 560.378,1222.68 549.871,1240.88 528.859,1240.88 518.352,1222.68 528.859,1204.48 549.871,1204.48 560.378,1186.29 549.871,1168.09 560.378,1149.89 581.391,1149.89 591.897,1168.09 612.91,1168.09 623.416,1149.89 612.91,1131.69 591.897,1131.69 581.391,1113.5 591.897,1095.3 581.391,1077.1 560.378,1077.1 549.871,1095.3 528.859,1095.3 518.352,1077.1 528.859,1058.9 549.871,1058.9 560.378,1040.7 549.871,1022.51 528.859,1022.51 518.352,1004.31 528.859,986.112 518.352,967.914 497.339,967.914 486.833,986.112 497.339,1004.31 486.833,1022.51 465.82,1022.51 455.314,1040.7 465.82,1058.9 486.833,1058.9 497.339,1077.1 486.833,1095.3 465.82,1095.3 455.314,1077.1 434.301,1077.1 423.794,1095.3 402.782,1095.3 392.275,1077.1 402.782,1058.9 392.275,1040.7 371.262,1040.7 360.756,1058.9 371.262,1077.1 360.756,1095.3 339.743,1095.3 329.237,1077.1 308.224,1077.1 297.717,1095.3 276.704,1095.3 266.198,1077.1 276.704,1058.9 297.717,1058.9 308.224,1040.7 297.717,1022.51 308.224,1004.31 329.237,1004.31 339.743,1022.51 360.756,1022.51 371.262,1004.31 360.756,986.112 339.743,986.112 329.237,967.914 339.743,949.716 360.756,949.716 371.262,931.519 360.756,913.321 371.262,895.123 392.275,895.123 402.782,913.321 392.275,931.519 402.782,949.716 423.794,949.716 434.301,931.519 455.314,931.519 465.82,949.716 486.833,949.716 497.339,931.519 486.833,913.321 465.82,913.321 455.314,895.123 465.82,876.926 455.314,858.728 434.301,858.728 423.794,876.926 402.782,876.926 392.275,858.728 402.782,840.531 423.794,840.531 434.301,822.333 423.794,804.135 434.301,785.938 455.314,785.938 465.82,804.135 486.833,804.135 497.339,785.938 486.833,767.74 465.82,767.74 455.314,749.542 465.82,731.345 486.833,731.345 497.339,713.147 486.833,694.949 497.339,676.752 518.352,676.752 528.859,694.949 518.352,713.147 528.859,731.345 549.871,731.345 560.378,749.542 549.871,767.74 528.859,767.74 518.352,785.938 528.859,804.135 549.871,804.135 560.378,785.938 581.391,785.938 591.897,804.135 612.91,804.135 623.416,785.938 612.91,767.74 623.416,749.542 644.429,749.542 654.936,767.74 644.429,785.938 654.936,804.135 675.949,804.135 686.455,785.938 707.468,785.938 717.974,804.135 738.987,804.135 749.494,785.938 738.987,767.74 717.974,767.74 707.468,749.542 717.974,731.345 707.468,713.147 686.455,713.147 675.949,731.345 654.936,731.345 644.429,713.147 654.936,694.949 675.949,694.949 686.455,676.752 675.949,658.554 654.936,658.554 644.429,640.356 654.936,622.159 644.429,603.961 623.416,603.961 612.91,622.159 623.416,640.356 612.91,658.554 591.897,658.554 581.391,640.356 560.378,640.356 549.871,658.554 528.859,658.554 518.352,640.356 528.859,622.159 549.871,622.159 560.378,603.961 549.871,585.763 560.378,567.566 581.391,567.566 591.897,585.763 612.91,585.763 623.416,567.566 612.91,549.368 591.897,549.368 581.391,531.17 591.897,512.973 612.91,512.973 623.416,494.775 612.91,476.577 623.416,458.38 644.429,458.38 654.936,476.577 644.429,494.775 654.936,512.973 675.949,512.973 686.455,494.775 707.468,494.775 717.974,512.973 738.987,512.973 749.494,494.775 738.987,476.577 717.974,476.577 707.468,458.38 717.974,440.182 707.468,421.984 686.455,421.984 675.949,440.182 654.936,440.182 644.429,421.984 654.936,403.787 675.949,403.787 686.455,385.589 675.949,367.391 686.455,349.194 707.468,349.194 717.974,367.391 738.987,367.391 749.494,349.194 738.987,330.996 717.974,330.996 707.468,312.798 717.974,294.601 738.987,294.601 749.494,276.403 738.987,258.205 749.494,240.008 770.506,240.008 781.013,258.205 770.506,276.403 781.013,294.601 802.026,294.601 812.532,312.798 802.026,330.996 781.013,330.996 770.506,349.194 781.013,367.391 802.026,367.391 812.532,349.194 833.545,349.194 844.051,367.391 833.545,385.589 844.051,403.787 865.064,403.787 875.571,421.984 865.064,440.182 844.051,440.182 833.545,421.984 812.532,421.984 802.026,440.182 812.532,458.38 802.026,476.577 781.013,476.577 770.506,494.775 781.013,512.973 802.026,512.973 812.532,494.775 833.545,494.775 844.051,512.973 865.064,512.973 875.571,494.775 865.064,476.577 875.571,458.38 896.584,458.38 907.09,476.577 896.584,494.775 907.09,512.973 928.103,512.973 938.609,531.17 928.103,549.368 907.09,549.368 896.584,567.566 907.09,585.763 928.103,585.763 938.609,567.566 959.622,567.566 970.129,585.763 959.622,603.961 970.129,622.159 991.141,622.159 1001.65,640.356 991.141,658.554 970.129,658.554 959.622,640.356 938.609,640.356 928.103,658.554 907.09,658.554 896.584,640.356 907.09,622.159 896.584,603.961 875.571,603.961 865.064,622.159 875.571,640.356 865.064,658.554 844.051,658.554 833.545,676.752 844.051,694.949 865.064,694.949 875.571,713.147 865.064,731.345 844.051,731.345 833.545,713.147 812.532,713.147 802.026,731.345 812.532,749.542 802.026,767.74 781.013,767.74 770.506,785.938 781.013,804.135 802.026,804.135 812.532,785.938 833.545,785.938 844.051,804.135 865.064,804.135 875.571,785.938 865.064,767.74 875.571,749.542 896.584,749.542 907.09,767.74 896.584,785.938 907.09,804.135 928.103,804.135 938.609,785.938 959.622,785.938 970.129,804.135 991.141,804.135 1001.65,785.938 991.141,767.74 970.129,767.74 959.622,749.542 970.129,731.345 991.141,731.345 1001.65,713.147 991.141,694.949 1001.65,676.752 1022.66,676.752 1033.17,694.949 1022.66,713.147 1033.17,731.345 1054.18,731.345 1064.69,749.542 1054.18,767.74 1033.17,767.74 1022.66,785.938 1033.17,804.135 1054.18,804.135 1064.69,785.938 1085.7,785.938 1096.21,804.135 1085.7,822.333 1096.21,840.531 1117.22,840.531 1127.72,858.728 1117.22,876.926 1096.21,876.926 1085.7,858.728 1064.69,858.728 1054.18,876.926 1064.69,895.123 1054.18,913.321 1033.17,913.321 1022.66,931.519 1033.17,949.716 1054.18,949.716 1064.69,931.519 1085.7,931.519 1096.21,949.716 1117.22,949.716 1127.72,931.519 1117.22,913.321 1127.72,895.123 1148.74,895.123 1159.24,913.321 1148.74,931.519 1159.24,949.716 1180.26,949.716 1190.76,967.914 1180.26,986.112 1159.24,986.112 1148.74,1004.31 1159.24,1022.51 1180.26,1022.51 1190.76,1004.31 1211.78,1004.31 1222.28,1022.51 1211.78,1040.7 1222.28,1058.9 1243.3,1058.9 1253.8,1077.1 1243.3,1095.3 1222.28,1095.3 1211.78,1077.1 1190.76,1077.1 1180.26,1095.3 1159.24,1095.3 1148.74,1077.1 1159.24,1058.9 1148.74,1040.7 1127.72,1040.7 1117.22,1058.9 1127.72,1077.1 1117.22,1095.3 1096.21,1095.3 1085.7,1077.1 1064.69,1077.1 1054.18,1095.3 1033.17,1095.3 1022.66,1077.1 1033.17,1058.9 1054.18,1058.9 1064.69,1040.7 1054.18,1022.51 1033.17,1022.51 1022.66,1004.31 1033.17,986.112 1022.66,967.914 1001.65,967.914 991.141,986.112 1001.65,1004.31 991.141,1022.51 970.129,1022.51 959.622,1040.7 970.129,1058.9 991.141,1058.9 1001.65,1077.1 991.141,1095.3 970.129,1095.3 959.622,1077.1 938.609,1077.1 928.103,1095.3 938.609,1113.5 928.103,1131.69 907.09,1131.69 896.584,1149.89 907.09,1168.09 928.103,1168.09 938.609,1149.89 959.622,1149.89 970.129,1168.09 959.622,1186.29 970.129,1204.48 991.141,1204.48 1001.65,1222.68 991.141,1240.88 970.129,1240.88 959.622,1222.68 938.609,1222.68 928.103,1240.88 907.09,1240.88 896.584,1222.68 907.09,1204.48 896.584,1186.29 875.571,1186.29 865.064,1204.48 875.571,1222.68 865.064,1240.88 844.051,1240.88 833.545,1259.08 844.051,1277.27 865.064,1277.27 875.571,1295.47 865.064,1313.67 844.051,1313.67 833.545,1295.47 812.532,1295.47 802.026,1313.67 812.532,1331.87 802.026,1350.07 781.013,1350.07 770.506,1368.26 781.013,1386.46 802.026,1386.46 812.532,1368.26 833.545,1368.26 844.051,1386.46 865.064,1386.46 875.571,1368.26 865.064,1350.07 875.571,1331.87 896.584,1331.87 907.09,1350.07 896.584,1368.26 907.09,1386.46 928.103,1386.46 938.609,1368.26 959.622,1368.26 970.129,1386.46 991.141,1386.46 1001.65,1368.26 991.141,1350.07 970.129,1350.07 959.622,1331.87 970.129,1313.67 991.141,1313.67 1001.65,1295.47 991.141,1277.27 1001.65,1259.08 1022.66,1259.08 1033.17,1277.27 1022.66,1295.47 1033.17,1313.67 1054.18,1313.67 1064.69,1331.87 1054.18,1350.07 1033.17,1350.07 1022.66,1368.26 1033.17,1386.46 1054.18,1386.46 1064.69,1368.26 1085.7,1368.26 1096.21,1386.46 1117.22,1386.46 1127.72,1368.26 1117.22,1350.07 1127.72,1331.87 1148.74,1331.87 1159.24,1350.07 1148.74,1368.26 1159.24,1386.46 1180.26,1386.46 1190.76,1368.26 1211.78,1368.26 1222.28,1386.46 1243.3,1386.46 1253.8,1368.26 1243.3,1350.07 1222.28,1350.07 1211.78,1331.87 1222.28,1313.67 1211.78,1295.47 1190.76,1295.47 1180.26,1313.67 1159.24,1313.67 1148.74,1295.47 1159.24,1277.27 1180.26,1277.27 1190.76,1259.08 1180.26,1240.88 1190.76,1222.68 1211.78,1222.68 1222.28,1240.88 1243.3,1240.88 1253.8,1222.68 1243.3,1204.48 1222.28,1204.48 1211.78,1186.29 1222.28,1168.09 1243.3,1168.09 1253.8,1149.89 1243.3,1131.69 1253.8,1113.5 1274.81,1113.5 1285.32,1131.69 1274.81,1149.89 1285.32,1168.09 1306.33,1168.09 1316.84,1186.29 1306.33,1204.48 1285.32,1204.48 1274.81,1222.68 1285.32,1240.88 1306.33,1240.88 1316.84,1222.68 1337.85,1222.68 1348.36,1240.88 1337.85,1259.08 1348.36,1277.27 1369.37,1277.27 1379.88,1295.47 1369.37,1313.67 1348.36,1313.67 1337.85,1295.47 1316.84,1295.47 1306.33,1313.67 1316.84,1331.87 1306.33,1350.07 1285.32,1350.07 1274.81,1368.26 1285.32,1386.46 1306.33,1386.46 1316.84,1368.26 1337.85,1368.26 1348.36,1386.46 1369.37,1386.46 1379.88,1368.26 1369.37,1350.07 1379.88,1331.87 1400.89,1331.87 1411.4,1350.07 1400.89,1368.26 1411.4,1386.46 1432.41,1386.46 "/>
</svg>
