<?xml version="1.0" encoding="utf-8"?>
<svg xmlns="http://www.w3.org/2000/svg" xmlns:xlink="http://www.w3.org/1999/xlink" width="420" height="360" viewBox="0 0 1680 1440">
<defs>
  <clipPath id="clip110">
    <rect x="0" y="0" width="1680" height="1440"/>
  </clipPath>
</defs>
<path clip-path="url(#clip110)" d="M0 1440 L1680 1440 L1680 0 L0 0  Z" fill="#ffffff" fill-rule="evenodd" fill-opacity="1"/>
<defs>
  <clipPath id="clip111">
    <rect x="248" y="140" width="1385" height="1102"/>
  </clipPath>
</defs>
<defs>
  <clipPath id="clip112">
    <rect x="210" y="140" width="1423" height="1102"/>
  </clipPath>
</defs>
<path clip-path="url(#clip112)" d="M805.539 642.615 L805.539 586.837 L834.748 558.948 L885.339 575.049 L885.339 630.828 L856.13 658.717 L805.539 642.615  Z" fill="#ffffff" fill-rule="evenodd" fill-opacity="1"/>
<polyline clip-path="url(#clip112)" style="stroke:#000000; stroke-linecap:round; stroke-linejoin:round; stroke-width:2; stroke-opacity:0.1; fill:none" points="606.772,1058.75 924.481,783.602 924.481,233.313 "/>
<polyline clip-path="url(#clip112)" style="stroke:#000000; stroke-linecap:round; stroke-linejoin:round; stroke-width:2; stroke-opacity:0.1; fill:none" points="733.249,1095.26 1050.96,820.112 1050.96,269.824 "/>
<polyline clip-path="url(#clip112)" style="stroke:#000000; stroke-linecap:round; stroke-linejoin:round; stroke-width:2; stroke-opacity:0.1; fill:none" points="859.727,1131.77 1177.44,856.623 1177.44,306.335 "/>
<polyline clip-path="url(#clip112)" style="stroke:#000000; stroke-linecap:round; stroke-linejoin:round; stroke-width:2; stroke-opacity:0.1; fill:none" points="986.204,1168.28 1303.91,893.134 1303.91,342.846 "/>
<polyline clip-path="url(#clip112)" style="stroke:#000000; stroke-linecap:round; stroke-linejoin:round; stroke-width:2; stroke-opacity:0.1; fill:none" points="1059.41,1164.51 509.118,1005.65 509.118,455.363 "/>
<polyline clip-path="url(#clip112)" style="stroke:#000000; stroke-linecap:round; stroke-linejoin:round; stroke-width:2; stroke-opacity:0.1; fill:none" points="1139.91,1094.78 589.627,935.928 589.627,385.64 "/>
<polyline clip-path="url(#clip112)" style="stroke:#000000; stroke-linecap:round; stroke-linejoin:round; stroke-width:2; stroke-opacity:0.1; fill:none" points="1220.42,1025.06 670.136,866.205 670.136,315.917 "/>
<polyline clip-path="url(#clip112)" style="stroke:#000000; stroke-linecap:round; stroke-linejoin:round; stroke-width:2; stroke-opacity:0.1; fill:none" points="1300.93,955.337 750.645,796.482 750.645,246.194 "/>
<polyline clip-path="url(#clip112)" style="stroke:#000000; stroke-linecap:round; stroke-linejoin:round; stroke-width:2; stroke-opacity:0.1; fill:none" points="487.55,1009.06 805.259,733.92 1355.55,892.774 "/>
<polyline clip-path="url(#clip112)" style="stroke:#000000; stroke-linecap:round; stroke-linejoin:round; stroke-width:2; stroke-opacity:0.1; fill:none" points="487.55,895.017 805.259,619.872 1355.55,778.727 "/>
<polyline clip-path="url(#clip112)" style="stroke:#000000; stroke-linecap:round; stroke-linejoin:round; stroke-width:2; stroke-opacity:0.1; fill:none" points="487.55,780.969 805.259,505.825 1355.55,664.68 "/>
<polyline clip-path="url(#clip112)" style="stroke:#000000; stroke-linecap:round; stroke-linejoin:round; stroke-width:2; stroke-opacity:0.1; fill:none" points="487.55,666.922 805.259,391.778 1355.55,550.633 "/>
<polyline clip-path="url(#clip112)" style="stroke:#000000; stroke-linecap:round; stroke-linejoin:round; stroke-width:2; stroke-opacity:0.1; fill:none" points="487.55,552.875 805.259,277.731 1355.55,436.586 "/>
<polyline clip-path="url(#clip110)" style="stroke:#000000; stroke-linecap:round; stroke-linejoin:round; stroke-width:4; stroke-opacity:1; fill:none" points="487.55,1024.33 1037.84,1183.18 "/>
<polyline clip-path="url(#clip110)" style="stroke:#000000; stroke-linecap:round; stroke-linejoin:round; stroke-width:4; stroke-opacity:1; fill:none" points="606.772,1058.75 610.584,1055.44 "/>
<polyline clip-path="url(#clip110)" style="stroke:#000000; stroke-linecap:round; stroke-linejoin:round; stroke-width:4; stroke-opacity:1; fill:none" points="733.249,1095.26 737.062,1091.95 "/>
<polyline clip-path="url(#clip110)" style="stroke:#000000; stroke-linecap:round; stroke-linejoin:round; stroke-width:4; stroke-opacity:1; fill:none" points="859.727,1131.77 863.539,1128.47 "/>
<polyline clip-path="url(#clip110)" style="stroke:#000000; stroke-linecap:round; stroke-linejoin:round; stroke-width:4; stroke-opacity:1; fill:none" points="986.204,1168.28 990.017,1164.98 "/>
<path clip-path="url(#clip110)" d="M539.94 1078.41 L569.616 1078.41 L569.616 1082.34 L539.94 1082.34 L539.94 1078.41 Z" fill="#000000" fill-rule="nonzero" fill-opacity="1" /><path clip-path="url(#clip110)" d="M579.755 1060.68 L598.111 1060.68 L598.111 1064.61 L584.037 1064.61 L584.037 1073.08 Q585.056 1072.74 586.074 1072.57 Q587.093 1072.39 588.112 1072.39 Q593.899 1072.39 597.278 1075.56 Q600.658 1078.73 600.658 1084.15 Q600.658 1089.73 597.186 1092.83 Q593.713 1095.91 587.394 1095.91 Q585.218 1095.91 582.95 1095.54 Q580.704 1095.17 578.297 1094.43 L578.297 1089.73 Q580.38 1090.86 582.602 1091.42 Q584.825 1091.97 587.301 1091.97 Q591.306 1091.97 593.644 1089.87 Q595.982 1087.76 595.982 1084.15 Q595.982 1080.54 593.644 1078.43 Q591.306 1076.32 587.301 1076.32 Q585.426 1076.32 583.551 1076.74 Q581.7 1077.16 579.755 1078.04 L579.755 1060.68 Z" fill="#000000" fill-rule="nonzero" fill-opacity="1" /><path clip-path="url(#clip110)" d="M715.191 1100.27 Q711.58 1100.27 709.751 1103.83 Q707.946 1107.37 707.946 1114.5 Q707.946 1121.61 709.751 1125.17 Q711.58 1128.71 715.191 1128.71 Q718.825 1128.71 720.631 1125.17 Q722.459 1121.61 722.459 1114.5 Q722.459 1107.37 720.631 1103.83 Q718.825 1100.27 715.191 1100.27 M715.191 1096.56 Q721.001 1096.56 724.057 1101.17 Q727.135 1105.75 727.135 1114.5 Q727.135 1123.23 724.057 1127.83 Q721.001 1132.42 715.191 1132.42 Q709.381 1132.42 706.302 1127.83 Q703.246 1123.23 703.246 1114.5 Q703.246 1105.75 706.302 1101.17 Q709.381 1096.56 715.191 1096.56 Z" fill="#000000" fill-rule="nonzero" fill-opacity="1" /><path clip-path="url(#clip110)" d="M832.71 1133.7 L851.066 1133.7 L851.066 1137.63 L836.992 1137.63 L836.992 1146.11 Q838.011 1145.76 839.029 1145.6 Q840.048 1145.41 841.066 1145.41 Q846.853 1145.41 850.233 1148.58 Q853.613 1151.75 853.613 1157.17 Q853.613 1162.75 850.14 1165.85 Q846.668 1168.93 840.349 1168.93 Q838.173 1168.93 835.904 1168.56 Q833.659 1168.19 831.252 1167.45 L831.252 1162.75 Q833.335 1163.88 835.557 1164.44 Q837.779 1164.99 840.256 1164.99 Q844.261 1164.99 846.599 1162.89 Q848.937 1160.78 848.937 1157.17 Q848.937 1153.56 846.599 1151.45 Q844.261 1149.35 840.256 1149.35 Q838.381 1149.35 836.506 1149.76 Q834.654 1150.18 832.71 1151.06 L832.71 1133.7 Z" fill="#000000" fill-rule="nonzero" fill-opacity="1" /><path clip-path="url(#clip110)" d="M928.794 1200.83 L936.433 1200.83 L936.433 1174.47 L928.123 1176.13 L928.123 1171.88 L936.387 1170.21 L941.063 1170.21 L941.063 1200.83 L948.701 1200.83 L948.701 1204.77 L928.794 1204.77 L928.794 1200.83 Z" fill="#000000" fill-rule="nonzero" fill-opacity="1" /><path clip-path="url(#clip110)" d="M968.146 1173.29 Q964.535 1173.29 962.706 1176.85 Q960.9 1180.39 960.9 1187.52 Q960.9 1194.63 962.706 1198.19 Q964.535 1201.74 968.146 1201.74 Q971.78 1201.74 973.586 1198.19 Q975.414 1194.63 975.414 1187.52 Q975.414 1180.39 973.586 1176.85 Q971.78 1173.29 968.146 1173.29 M968.146 1169.58 Q973.956 1169.58 977.011 1174.19 Q980.09 1178.77 980.09 1187.52 Q980.09 1196.25 977.011 1200.86 Q973.956 1205.44 968.146 1205.44 Q962.336 1205.44 959.257 1200.86 Q956.201 1196.25 956.201 1187.52 Q956.201 1178.77 959.257 1174.19 Q962.336 1169.58 968.146 1169.58 Z" fill="#000000" fill-rule="nonzero" fill-opacity="1" /><path clip-path="url(#clip110)" d="M656.188 1248.25 L643.298 1265.6 L656.857 1283.9 L649.95 1283.9 L639.574 1269.9 L629.198 1283.9 L622.291 1283.9 L636.136 1265.25 L623.469 1248.25 L630.375 1248.25 L639.828 1260.95 L649.282 1248.25 L656.188 1248.25 Z" fill="#000000" fill-rule="nonzero" fill-opacity="1" /><polyline clip-path="url(#clip110)" style="stroke:#000000; stroke-linecap:round; stroke-linejoin:round; stroke-width:4; stroke-opacity:1; fill:none" points="1037.84,1183.18 1355.55,908.04 "/>
<polyline clip-path="url(#clip110)" style="stroke:#000000; stroke-linecap:round; stroke-linejoin:round; stroke-width:4; stroke-opacity:1; fill:none" points="1059.41,1164.51 1052.8,1162.6 "/>
<polyline clip-path="url(#clip110)" style="stroke:#000000; stroke-linecap:round; stroke-linejoin:round; stroke-width:4; stroke-opacity:1; fill:none" points="1139.91,1094.78 1133.31,1092.88 "/>
<polyline clip-path="url(#clip110)" style="stroke:#000000; stroke-linecap:round; stroke-linejoin:round; stroke-width:4; stroke-opacity:1; fill:none" points="1220.42,1025.06 1213.82,1023.15 "/>
<polyline clip-path="url(#clip110)" style="stroke:#000000; stroke-linecap:round; stroke-linejoin:round; stroke-width:4; stroke-opacity:1; fill:none" points="1300.93,955.337 1294.33,953.43 "/>
<path clip-path="url(#clip110)" d="M1073.33 1179.54 L1103 1179.54 L1103 1183.47 L1073.33 1183.47 L1073.33 1179.54 Z" fill="#000000" fill-rule="nonzero" fill-opacity="1" /><path clip-path="url(#clip110)" d="M1113.91 1192.43 L1121.55 1192.43 L1121.55 1166.07 L1113.23 1167.73 L1113.23 1163.47 L1121.5 1161.81 L1126.17 1161.81 L1126.17 1192.43 L1133.81 1192.43 L1133.81 1196.37 L1113.91 1196.37 L1113.91 1192.43 Z" fill="#000000" fill-rule="nonzero" fill-opacity="1" /><path clip-path="url(#clip110)" d="M1153.26 1164.88 Q1149.65 1164.88 1147.82 1168.45 Q1146.01 1171.99 1146.01 1179.12 Q1146.01 1186.23 1147.82 1189.79 Q1149.65 1193.33 1153.26 1193.33 Q1156.89 1193.33 1158.7 1189.79 Q1160.53 1186.23 1160.53 1179.12 Q1160.53 1171.99 1158.7 1168.45 Q1156.89 1164.88 1153.26 1164.88 M1153.26 1161.18 Q1159.07 1161.18 1162.12 1165.79 Q1165.2 1170.37 1165.2 1179.12 Q1165.2 1187.85 1162.12 1192.45 Q1159.07 1197.04 1153.26 1197.04 Q1147.45 1197.04 1144.37 1192.45 Q1141.31 1187.85 1141.31 1179.12 Q1141.31 1170.37 1144.37 1165.79 Q1147.45 1161.18 1153.26 1161.18 Z" fill="#000000" fill-rule="nonzero" fill-opacity="1" /><path clip-path="url(#clip110)" d="M1153.84 1109.81 L1183.51 1109.81 L1183.51 1113.75 L1153.84 1113.75 L1153.84 1109.81 Z" fill="#000000" fill-rule="nonzero" fill-opacity="1" /><path clip-path="url(#clip110)" d="M1193.65 1092.08 L1212.01 1092.08 L1212.01 1096.02 L1197.93 1096.02 L1197.93 1104.49 Q1198.95 1104.14 1199.97 1103.98 Q1200.99 1103.8 1202.01 1103.8 Q1207.79 1103.8 1211.17 1106.97 Q1214.55 1110.14 1214.55 1115.56 Q1214.55 1121.13 1211.08 1124.24 Q1207.61 1127.31 1201.29 1127.31 Q1199.11 1127.31 1196.85 1126.94 Q1194.6 1126.57 1192.19 1125.83 L1192.19 1121.13 Q1194.28 1122.27 1196.5 1122.82 Q1198.72 1123.38 1201.2 1123.38 Q1205.2 1123.38 1207.54 1121.27 Q1209.88 1119.17 1209.88 1115.56 Q1209.88 1111.94 1207.54 1109.84 Q1205.2 1107.73 1201.2 1107.73 Q1199.32 1107.73 1197.45 1108.15 Q1195.6 1108.56 1193.65 1109.44 L1193.65 1092.08 Z" fill="#000000" fill-rule="nonzero" fill-opacity="1" /><path clip-path="url(#clip110)" d="M1246.29 1025.44 Q1242.68 1025.44 1240.85 1029 Q1239.04 1032.55 1239.04 1039.68 Q1239.04 1046.78 1240.85 1050.35 Q1242.68 1053.89 1246.29 1053.89 Q1249.92 1053.89 1251.73 1050.35 Q1253.56 1046.78 1253.56 1039.68 Q1253.56 1032.55 1251.73 1029 Q1249.92 1025.44 1246.29 1025.44 M1246.29 1021.74 Q1252.1 1021.74 1255.16 1026.34 Q1258.23 1030.93 1258.23 1039.68 Q1258.23 1048.4 1255.16 1053.01 Q1252.1 1057.59 1246.29 1057.59 Q1240.48 1057.59 1237.4 1053.01 Q1234.35 1048.4 1234.35 1039.68 Q1234.35 1030.93 1237.4 1026.34 Q1240.48 1021.74 1246.29 1021.74 Z" fill="#000000" fill-rule="nonzero" fill-opacity="1" /><path clip-path="url(#clip110)" d="M1316.31 952.638 L1334.67 952.638 L1334.67 956.573 L1320.6 956.573 L1320.6 965.045 Q1321.61 964.698 1322.63 964.536 Q1323.65 964.35 1324.67 964.35 Q1330.46 964.35 1333.84 967.522 Q1337.22 970.693 1337.22 976.11 Q1337.22 981.688 1333.74 984.79 Q1330.27 987.869 1323.95 987.869 Q1321.78 987.869 1319.51 987.498 Q1317.26 987.128 1314.85 986.387 L1314.85 981.688 Q1316.94 982.823 1319.16 983.378 Q1321.38 983.934 1323.86 983.934 Q1327.86 983.934 1330.2 981.827 Q1332.54 979.721 1332.54 976.11 Q1332.54 972.499 1330.2 970.392 Q1327.86 968.286 1323.86 968.286 Q1321.98 968.286 1320.11 968.702 Q1318.26 969.119 1316.31 969.999 L1316.31 952.638 Z" fill="#000000" fill-rule="nonzero" fill-opacity="1" /><path clip-path="url(#clip110)" d="M1321.5 1229.07 Q1319.02 1235.43 1316.66 1237.37 Q1314.31 1239.31 1310.36 1239.31 L1305.68 1239.31 L1305.68 1234.41 L1309.12 1234.41 Q1311.54 1234.41 1312.87 1233.27 Q1314.21 1232.12 1315.83 1227.86 L1316.88 1225.18 L1302.47 1190.11 L1308.67 1190.11 L1319.81 1217.99 L1330.95 1190.11 L1337.16 1190.11 L1321.5 1229.07 Z" fill="#000000" fill-rule="nonzero" fill-opacity="1" /><polyline clip-path="url(#clip110)" style="stroke:#000000; stroke-linecap:round; stroke-linejoin:round; stroke-width:4; stroke-opacity:1; fill:none" points="487.55,1024.33 487.55,474.041 "/>
<polyline clip-path="url(#clip110)" style="stroke:#000000; stroke-linecap:round; stroke-linejoin:round; stroke-width:4; stroke-opacity:1; fill:none" points="487.55,1009.06 491.362,1005.76 "/>
<polyline clip-path="url(#clip110)" style="stroke:#000000; stroke-linecap:round; stroke-linejoin:round; stroke-width:4; stroke-opacity:1; fill:none" points="487.55,895.017 491.362,891.715 "/>
<polyline clip-path="url(#clip110)" style="stroke:#000000; stroke-linecap:round; stroke-linejoin:round; stroke-width:4; stroke-opacity:1; fill:none" points="487.55,780.969 491.362,777.668 "/>
<polyline clip-path="url(#clip110)" style="stroke:#000000; stroke-linecap:round; stroke-linejoin:round; stroke-width:4; stroke-opacity:1; fill:none" points="487.55,666.922 491.362,663.62 "/>
<polyline clip-path="url(#clip110)" style="stroke:#000000; stroke-linecap:round; stroke-linejoin:round; stroke-width:4; stroke-opacity:1; fill:none" points="487.55,552.875 491.362,549.573 "/>
<path clip-path="url(#clip110)" d="M455.445 994.862 Q451.834 994.862 450.006 998.427 Q448.2 1001.97 448.2 1009.1 Q448.2 1016.2 450.006 1019.77 Q451.834 1023.31 455.445 1023.31 Q459.08 1023.31 460.885 1019.77 Q462.714 1016.2 462.714 1009.1 Q462.714 1001.97 460.885 998.427 Q459.08 994.862 455.445 994.862 M455.445 991.159 Q461.256 991.159 464.311 995.765 Q467.39 1000.35 467.39 1009.1 Q467.39 1017.83 464.311 1022.43 Q461.256 1027.01 455.445 1027.01 Q449.635 1027.01 446.557 1022.43 Q443.501 1017.83 443.501 1009.1 Q443.501 1000.35 446.557 995.765 Q449.635 991.159 455.445 991.159 Z" fill="#000000" fill-rule="nonzero" fill-opacity="1" /><path clip-path="url(#clip110)" d="M446.487 877.737 L464.843 877.737 L464.843 881.672 L450.769 881.672 L450.769 890.144 Q451.788 889.797 452.806 889.635 Q453.825 889.449 454.844 889.449 Q460.631 889.449 464.01 892.621 Q467.39 895.792 467.39 901.209 Q467.39 906.787 463.918 909.889 Q460.445 912.968 454.126 912.968 Q451.95 912.968 449.681 912.597 Q447.436 912.227 445.029 911.486 L445.029 906.787 Q447.112 907.922 449.334 908.477 Q451.556 909.033 454.033 909.033 Q458.038 909.033 460.376 906.926 Q462.714 904.82 462.714 901.209 Q462.714 897.598 460.376 895.491 Q458.038 893.385 454.033 893.385 Q452.158 893.385 450.283 893.801 Q448.432 894.218 446.487 895.098 L446.487 877.737 Z" fill="#000000" fill-rule="nonzero" fill-opacity="1" /><path clip-path="url(#clip110)" d="M416.094 794.314 L423.733 794.314 L423.733 767.949 L415.422 769.615 L415.422 765.356 L423.686 763.689 L428.362 763.689 L428.362 794.314 L436.001 794.314 L436.001 798.249 L416.094 798.249 L416.094 794.314 Z" fill="#000000" fill-rule="nonzero" fill-opacity="1" /><path clip-path="url(#clip110)" d="M455.445 766.768 Q451.834 766.768 450.006 770.333 Q448.2 773.874 448.2 781.004 Q448.2 788.111 450.006 791.675 Q451.834 795.217 455.445 795.217 Q459.08 795.217 460.885 791.675 Q462.714 788.111 462.714 781.004 Q462.714 773.874 460.885 770.333 Q459.08 766.768 455.445 766.768 M455.445 763.064 Q461.256 763.064 464.311 767.671 Q467.39 772.254 467.39 781.004 Q467.39 789.731 464.311 794.337 Q461.256 798.921 455.445 798.921 Q449.635 798.921 446.557 794.337 Q443.501 789.731 443.501 781.004 Q443.501 772.254 446.557 767.671 Q449.635 763.064 455.445 763.064 Z" fill="#000000" fill-rule="nonzero" fill-opacity="1" /><path clip-path="url(#clip110)" d="M417.089 680.267 L424.728 680.267 L424.728 653.901 L416.418 655.568 L416.418 651.309 L424.682 649.642 L429.358 649.642 L429.358 680.267 L436.996 680.267 L436.996 684.202 L417.089 684.202 L417.089 680.267 Z" fill="#000000" fill-rule="nonzero" fill-opacity="1" /><path clip-path="url(#clip110)" d="M446.487 649.642 L464.843 649.642 L464.843 653.577 L450.769 653.577 L450.769 662.05 Q451.788 661.702 452.806 661.54 Q453.825 661.355 454.844 661.355 Q460.631 661.355 464.01 664.526 Q467.39 667.698 467.39 673.114 Q467.39 678.693 463.918 681.795 Q460.445 684.874 454.126 684.874 Q451.95 684.874 449.681 684.503 Q447.436 684.133 445.029 683.392 L445.029 678.693 Q447.112 679.827 449.334 680.383 Q451.556 680.938 454.033 680.938 Q458.038 680.938 460.376 678.832 Q462.714 676.725 462.714 673.114 Q462.714 669.503 460.376 667.397 Q458.038 665.29 454.033 665.29 Q452.158 665.29 450.283 665.707 Q448.432 666.124 446.487 667.003 L446.487 649.642 Z" fill="#000000" fill-rule="nonzero" fill-opacity="1" /><path clip-path="url(#clip110)" d="M419.311 566.22 L435.631 566.22 L435.631 570.155 L413.686 570.155 L413.686 566.22 Q416.348 563.465 420.932 558.836 Q425.538 554.183 426.719 552.84 Q428.964 550.317 429.844 548.581 Q430.746 546.822 430.746 545.132 Q430.746 542.377 428.802 540.641 Q426.881 538.905 423.779 538.905 Q421.58 538.905 419.126 539.669 Q416.696 540.433 413.918 541.984 L413.918 537.262 Q416.742 536.127 419.196 535.549 Q421.649 534.97 423.686 534.97 Q429.057 534.97 432.251 537.655 Q435.445 540.34 435.445 544.831 Q435.445 546.961 434.635 548.882 Q433.848 550.78 431.742 553.373 Q431.163 554.044 428.061 557.262 Q424.959 560.456 419.311 566.22 Z" fill="#000000" fill-rule="nonzero" fill-opacity="1" /><path clip-path="url(#clip110)" d="M455.445 538.674 Q451.834 538.674 450.006 542.239 Q448.2 545.78 448.2 552.91 Q448.2 560.016 450.006 563.581 Q451.834 567.123 455.445 567.123 Q459.08 567.123 460.885 563.581 Q462.714 560.016 462.714 552.91 Q462.714 545.78 460.885 542.239 Q459.08 538.674 455.445 538.674 M455.445 534.97 Q461.256 534.97 464.311 539.577 Q467.39 544.16 467.39 552.91 Q467.39 561.637 464.311 566.243 Q461.256 570.826 455.445 570.826 Q449.635 570.826 446.557 566.243 Q443.501 561.637 443.501 552.91 Q443.501 544.16 446.557 539.577 Q449.635 534.97 455.445 534.97 Z" fill="#000000" fill-rule="nonzero" fill-opacity="1" /><path clip-path="url(#clip110)" d="M333.542 762.696 L333.542 734.878 L338.89 734.878 L364.512 756.903 L364.512 734.878 L369.19 734.878 L369.19 763.492 L363.843 763.492 L338.221 741.467 L338.221 762.696 L333.542 762.696 Z" fill="#000000" fill-rule="nonzero" fill-opacity="1" /><path clip-path="url(#clip110)" d="M720.603 44.2197 Q723.236 45.1109 725.707 48.0275 Q728.219 50.9442 730.73 56.0483 L739.035 72.576 L730.244 72.576 L722.507 57.061 Q719.509 50.9847 716.674 48.9997 Q713.879 47.0148 709.018 47.0148 L700.106 47.0148 L700.106 72.576 L691.923 72.576 L691.923 12.096 L710.395 12.096 Q720.765 12.096 725.869 16.4305 Q730.974 20.7649 730.974 29.5149 Q730.974 35.2267 728.3 38.994 Q725.667 42.7613 720.603 44.2197 M700.106 18.8205 L700.106 40.2903 L710.395 40.2903 Q716.309 40.2903 719.307 37.5762 Q722.345 34.8216 722.345 29.5149 Q722.345 24.2082 719.307 21.5346 Q716.309 18.8205 710.395 18.8205 L700.106 18.8205 Z" fill="#000000" fill-rule="nonzero" fill-opacity="1" /><path clip-path="url(#clip110)" d="M763.097 32.4315 Q757.102 32.4315 753.618 37.1306 Q750.134 41.7891 750.134 49.9314 Q750.134 58.0738 753.578 62.7728 Q757.061 67.4314 763.097 67.4314 Q769.052 67.4314 772.536 62.7323 Q776.02 58.0333 776.02 49.9314 Q776.02 41.8701 772.536 37.1711 Q769.052 32.4315 763.097 32.4315 M763.097 26.1121 Q772.819 26.1121 778.369 32.4315 Q783.919 38.7509 783.919 49.9314 Q783.919 61.0714 778.369 67.4314 Q772.819 73.7508 763.097 73.7508 Q753.335 73.7508 747.785 67.4314 Q742.276 61.0714 742.276 49.9314 Q742.276 38.7509 747.785 32.4315 Q753.335 26.1121 763.097 26.1121 M766.905 9.70597 L775.128 9.70597 L775.128 17.8888 L766.905 17.8888 L766.905 9.70597 M751.066 9.70597 L759.289 9.70597 L759.289 17.8888 L751.066 17.8888 L751.066 9.70597 Z" fill="#000000" fill-rule="nonzero" fill-opacity="1" /><path clip-path="url(#clip110)" d="M825.198 28.5427 L825.198 35.5912 Q822.038 33.9709 818.635 33.1607 Q815.232 32.3505 811.587 32.3505 Q806.037 32.3505 803.242 34.0519 Q800.487 35.7533 800.487 39.156 Q800.487 41.7486 802.472 43.2475 Q804.457 44.7058 810.452 46.0426 L813.004 46.6097 Q820.944 48.3111 824.266 51.4303 Q827.628 54.509 827.628 60.0587 Q827.628 66.3781 822.605 70.0644 Q817.622 73.7508 808.872 73.7508 Q805.227 73.7508 801.257 73.0216 Q797.327 72.3329 792.952 70.9151 L792.952 63.2184 Q797.084 65.3654 801.095 66.4591 Q805.105 67.5124 809.034 67.5124 Q814.301 67.5124 817.136 65.73 Q819.972 63.9071 819.972 60.6258 Q819.972 57.5877 817.906 55.9673 Q815.88 54.3469 808.953 52.8481 L806.361 52.2405 Q799.434 50.7821 796.355 47.7845 Q793.276 44.7463 793.276 39.4801 Q793.276 33.0797 797.813 29.5959 Q802.35 26.1121 810.695 26.1121 Q814.827 26.1121 818.473 26.7198 Q822.119 27.3274 825.198 28.5427 Z" fill="#000000" fill-rule="nonzero" fill-opacity="1" /><path clip-path="url(#clip110)" d="M868.421 28.5427 L868.421 35.5912 Q865.261 33.9709 861.858 33.1607 Q858.455 32.3505 854.81 32.3505 Q849.26 32.3505 846.465 34.0519 Q843.71 35.7533 843.71 39.156 Q843.71 41.7486 845.695 43.2475 Q847.68 44.7058 853.675 46.0426 L856.227 46.6097 Q864.167 48.3111 867.489 51.4303 Q870.851 54.509 870.851 60.0587 Q870.851 66.3781 865.828 70.0644 Q860.846 73.7508 852.096 73.7508 Q848.45 73.7508 844.48 73.0216 Q840.55 72.3329 836.176 70.9151 L836.176 63.2184 Q840.307 65.3654 844.318 66.4591 Q848.328 67.5124 852.258 67.5124 Q857.524 67.5124 860.359 65.73 Q863.195 63.9071 863.195 60.6258 Q863.195 57.5877 861.129 55.9673 Q859.104 54.3469 852.177 52.8481 L849.584 52.2405 Q842.657 50.7821 839.578 47.7845 Q836.5 44.7463 836.5 39.4801 Q836.5 33.0797 841.037 29.5959 Q845.574 26.1121 853.918 26.1121 Q858.05 26.1121 861.696 26.7198 Q865.342 27.3274 868.421 28.5427 Z" fill="#000000" fill-rule="nonzero" fill-opacity="1" /><path clip-path="url(#clip110)" d="M882.72 9.54393 L890.174 9.54393 L890.174 72.576 L882.72 72.576 L882.72 9.54393 Z" fill="#000000" fill-rule="nonzero" fill-opacity="1" /><path clip-path="url(#clip110)" d="M944.578 48.0275 L944.578 51.6733 L910.307 51.6733 Q910.793 59.3701 914.925 63.421 Q919.098 67.4314 926.511 67.4314 Q930.805 67.4314 934.815 66.3781 Q938.866 65.3249 942.836 63.2184 L942.836 70.267 Q938.825 71.9684 934.612 72.8596 Q930.4 73.7508 926.065 73.7508 Q915.209 73.7508 908.849 67.4314 Q902.529 61.1119 902.529 50.3365 Q902.529 39.1965 908.525 32.6746 Q914.561 26.1121 924.769 26.1121 Q933.924 26.1121 939.231 32.0264 Q944.578 37.9003 944.578 48.0275 M937.124 45.84 Q937.043 39.7232 933.681 36.0774 Q930.359 32.4315 924.85 32.4315 Q918.611 32.4315 914.844 35.9558 Q911.117 39.4801 910.55 45.8805 L937.124 45.84 Z" fill="#000000" fill-rule="nonzero" fill-opacity="1" /><path clip-path="url(#clip110)" d="M983.102 34.1734 Q981.846 33.4443 980.347 33.1202 Q978.889 32.7556 977.106 32.7556 Q970.787 32.7556 967.384 36.8875 Q964.022 40.9789 964.022 48.6757 L964.022 72.576 L956.528 72.576 L956.528 27.2059 L964.022 27.2059 L964.022 34.2544 Q966.372 30.1225 970.139 28.1376 Q973.906 26.1121 979.294 26.1121 Q980.064 26.1121 980.995 26.2337 Q981.927 26.3147 983.061 26.5172 L983.102 34.1734 Z" fill="#000000" fill-rule="nonzero" fill-opacity="1" /><path clip-path="url(#clip110)" d="M1043.14 39.9662 Q1049.01 41.222 1052.29 45.1919 Q1055.61 49.1618 1055.61 54.9951 Q1055.61 63.9476 1049.46 68.8492 Q1043.3 73.7508 1031.96 73.7508 Q1028.15 73.7508 1024.1 72.9811 Q1020.09 72.2519 1015.79 70.7531 L1015.79 62.8538 Q1019.2 64.8388 1023.25 65.8515 Q1027.3 66.8642 1031.71 66.8642 Q1039.41 66.8642 1043.42 63.826 Q1047.47 60.7879 1047.47 54.9951 Q1047.47 49.6479 1043.7 46.6502 Q1039.98 43.612 1033.29 43.612 L1026.24 43.612 L1026.24 36.8875 L1033.62 36.8875 Q1039.65 36.8875 1042.85 34.4975 Q1046.05 32.067 1046.05 27.5299 Q1046.05 22.8714 1042.73 20.4004 Q1039.45 17.8888 1033.29 17.8888 Q1029.93 17.8888 1026.08 18.618 Q1022.23 19.3471 1017.62 20.8865 L1017.62 13.5948 Q1022.27 12.2985 1026.32 11.6504 Q1030.42 11.0023 1034.02 11.0023 Q1043.34 11.0023 1048.77 15.2557 Q1054.2 19.4686 1054.2 26.6793 Q1054.2 31.7024 1051.32 35.1862 Q1048.44 38.6294 1043.14 39.9662 Z" fill="#000000" fill-rule="nonzero" fill-opacity="1" /><path clip-path="url(#clip110)" d="M1066.31 46.5287 L1088.14 46.5287 L1088.14 53.1722 L1066.31 53.1722 L1066.31 46.5287 Z" fill="#000000" fill-rule="nonzero" fill-opacity="1" /><path clip-path="url(#clip110)" d="M1108.52 18.8205 L1108.52 65.8515 L1118.4 65.8515 Q1130.92 65.8515 1136.71 60.1802 Q1142.55 54.509 1142.55 42.2752 Q1142.55 30.1225 1136.71 24.4918 Q1130.92 18.8205 1118.4 18.8205 L1108.52 18.8205 M1100.33 12.096 L1117.15 12.096 Q1134.73 12.096 1142.95 19.4281 Q1151.17 26.7198 1151.17 42.2752 Q1151.17 57.9117 1142.91 65.2439 Q1134.65 72.576 1117.15 72.576 L1100.33 72.576 L1100.33 12.096 Z" fill="#000000" fill-rule="nonzero" fill-opacity="1" /><polyline clip-path="url(#clip112)" style="stroke:#009af9; stroke-linecap:round; stroke-linejoin:round; stroke-width:1.6; stroke-opacity:1; fill:none" points="957.233,892.415 956.618,893.765 956.022,894.971 955.442,896.044 954.876,896.992 954.322,897.826 953.776,898.555 953.237,899.187 952.703,899.73 952.173,900.192 951.644,900.579 951.116,900.899 950.586,901.157 950.055,901.359 949.52,901.51 948.981,901.615 948.437,901.679 947.887,901.705 947.331,901.698 946.768,901.661 946.196,901.597 945.617,901.51 945.029,901.402 944.432,901.276 943.826,901.134 943.211,900.979 942.585,900.812 941.95,900.635 941.305,900.449 940.65,900.258 939.985,900.061 939.309,899.86 938.623,899.656 937.928,899.451 937.222,899.246 936.506,899.041 935.78,898.837 935.045,898.635 934.299,898.436 933.545,898.24 932.78,898.048 932.007,897.861 931.225,897.679 930.434,897.502 929.634,897.331 928.827,897.167 928.011,897.01 927.187,896.86 926.355,896.717 925.517,896.581 924.671,896.454 923.818,896.335 922.959,896.225 922.094,896.123 921.223,896.029 920.347,895.945 919.465,895.87 918.578,895.805 917.686,895.749 916.791,895.702 915.891,895.665 914.988,895.638 914.081,895.621 913.172,895.614 912.26,895.617 911.345,895.63 910.429,895.653 909.511,895.687 908.592,895.731 907.672,895.785 906.752,895.849 905.832,895.924 904.912,896.01 903.992,896.106 903.074,896.212 902.157,896.329 901.241,896.457 900.328,896.595 899.417,896.743 898.509,896.902 897.605,897.072 896.704,897.252 895.807,897.442 894.914,897.643 894.026,897.854 893.143,898.075 892.266,898.307 891.394,898.549 890.529,898.801 889.67,899.063 888.819,899.335 887.974,899.617 887.137,899.909 886.309,900.211 885.489,900.523 884.677,900.844 883.875,901.175 883.082,901.516 882.299,901.865 881.526,902.224 880.764,902.592 880.013,902.97 879.273,903.356 878.544,903.751 877.828,904.155 877.124,904.567 876.432,904.988 875.753,905.417 875.088,905.854 874.436,906.299 873.798,906.753 873.174,907.214 872.565,907.682 871.97,908.158 871.391,908.641 870.827,909.132 870.278,909.629 869.746,910.133 869.229,910.643 868.73,911.16 868.247,911.684 867.781,912.213 867.332,912.748 866.901,913.289 866.487,913.835 866.092,914.386 865.715,914.943 865.356,915.504 865.016,916.071 864.695,916.641 864.393,917.216 864.11,917.795 863.846,918.377 863.603,918.964 863.379,919.553 863.175,920.146 862.991,920.741 862.827,921.34 862.684,921.941 862.562,922.544 862.46,923.149 862.379,923.756 862.319,924.364 862.281,924.974 862.263,925.584 862.266,926.196 862.291,926.808 862.337,927.42 862.405,928.033 862.494,928.645 862.605,929.257 862.738,929.868 862.892,930.478 863.068,931.087 863.265,931.695 863.484,932.301 863.725,932.905 863.987,933.507 864.272,934.107 864.577,934.704 864.905,935.298 865.254,935.889 865.624,936.476 866.016,937.06 866.429,937.64 866.863,938.216 867.319,938.787 867.796,939.353 868.293,939.915 868.812,940.472 869.351,941.023 869.911,941.568 870.491,942.108 871.092,942.641 871.712,943.169 872.353,943.689 873.013,944.203 873.693,944.709 874.393,945.209 875.111,945.701 875.849,946.185 876.605,946.661 877.38,947.128 878.173,947.588 878.984,948.038 879.813,948.48 880.66,948.913 881.523,949.337 882.404,949.75 883.301,950.155 884.215,950.549 885.145,950.933 886.09,951.307 887.051,951.671 888.028,952.023 889.019,952.365 890.024,952.696 891.043,953.016 892.077,953.324 893.123,953.62 894.183,953.905 895.255,954.178 896.34,954.439 897.436,954.688 898.544,954.924 899.663,955.148 900.792,955.359 901.932,955.557 903.082,955.742 904.241,955.915 905.409,956.074 906.586,956.22 907.771,956.352 908.963,956.471 910.163,956.577 911.369,956.669 912.582,956.746 913.8,956.81 915.024,956.861 916.253,956.897 917.486,956.919 918.723,956.926 919.963,956.92 921.207,956.899 922.453,956.864 923.701,956.815 924.95,956.751 926.201,956.672 927.452,956.58 928.703,956.472 929.953,956.351 931.202,956.215 932.45,956.064 933.696,955.899 934.939,955.719 936.18,955.525 937.416,955.316 938.649,955.093 939.877,954.856 941.1,954.604 942.317,954.338 943.528,954.058 944.733,953.763 945.93,953.455 947.12,953.132 948.301,952.795 949.474,952.445 950.638,952.081 951.792,951.703 952.936,951.311 954.069,950.906 955.191,950.488 956.301,950.057 957.399,949.612 958.485,949.154 959.557,948.684 960.616,948.201 961.66,947.705 962.69,947.197 963.705,946.676 964.705,946.144 965.688,945.6 966.655,945.044 967.605,944.476 968.538,943.897 969.453,943.307 970.35,942.706 971.229,942.095 972.088,941.473 972.928,940.84 973.748,940.197 974.547,939.545 975.326,938.883 976.084,938.211 976.821,937.531 977.535,936.841 978.228,936.143 978.898,935.437 979.545,934.722 980.168,933.999 980.768,933.269 981.345,932.531 981.897,931.787 982.424,931.035 982.927,930.277 983.404,929.513 983.856,928.742 984.283,927.966 984.683,927.185 985.057,926.399 985.405,925.607 985.726,924.812 986.02,924.012 986.286,923.208 986.526,922.401 986.738,921.59 986.922,920.776 987.078,919.96 987.206,919.142 987.306,918.321 987.378,917.499 987.421,916.675 987.435,915.85 987.421,915.025 987.377,914.199 987.305,913.373 987.204,912.547 987.073,911.722 986.914,910.898 986.725,910.074 986.507,909.253 986.26,908.433 985.983,907.616 985.677,906.801 985.342,905.989 984.978,905.18 984.585,904.374 984.162,903.572 983.71,902.775 983.229,901.982 982.72,901.194 982.181,900.41 981.614,899.633 981.018,898.861 980.393,898.095 979.74,897.336 979.059,896.583 978.35,895.837 977.613,895.099 976.848,894.369 976.056,893.646 975.237,892.932 974.39,892.226 973.517,891.53 972.617,890.842 971.691,890.164 970.738,889.496 969.76,888.839 968.757,888.191 967.728,887.554 966.674,886.929 965.596,886.314 964.493,885.712 963.367,885.121 962.217,884.542 961.044,883.976 959.848,883.422 958.63,882.882 957.39,882.355 956.128,881.841 954.845,881.341 953.542,880.855 952.218,880.383 950.874,879.926 949.511,879.483 948.128,879.056 946.728,878.644 945.309,878.247 943.873,877.866 942.42,877.501 940.951,877.152 939.465,876.819 937.964,876.502 936.449,876.203 934.919,875.92 933.375,875.654 931.818,875.406 930.249,875.175 928.667,874.961 927.074,874.766 925.47,874.588 923.855,874.428 922.231,874.286 920.598,874.163 918.957,874.058 917.308,873.971 915.651,873.904 913.988,873.855 912.319,873.824 910.645,873.813 908.966,873.821 907.283,873.848 905.596,873.894 903.907,873.959 902.216,874.044 900.524,874.147 898.831,874.271 897.138,874.413 895.446,874.575 893.755,874.757 892.066,874.958 890.38,875.178 888.697,875.418 887.019,875.677 885.345,875.955 883.676,876.253 882.014,876.57 880.359,876.907 878.711,877.262 877.071,877.637 875.441,878.031 873.82,878.444 872.209,878.875 870.609,879.326 869.021,879.795 867.445,880.283 865.883,880.789 864.334,881.314 862.799,881.856 861.279,882.417 859.775,882.996 858.288,883.593 856.817,884.207 855.365,884.838 853.93,885.487 852.515,886.153 851.119,886.835 849.743,887.535 848.389,888.25 847.056,888.982 845.745,889.73 844.457,890.494 843.192,891.273 841.951,892.067 840.735,892.876 839.544,893.7 838.378,894.539 837.239,895.391 836.127,896.258 835.042,897.138 833.985,898.032 832.956,898.938 831.957,899.857 830.987,900.788 830.047,901.732 829.138,902.687 828.259,903.654 827.413,904.631 826.598,905.62 825.815,906.618 825.065,907.627 824.349,908.645 823.666,909.673 823.017,910.709 822.403,911.754 821.824,912.807 821.28,913.867 820.771,914.935 820.299,916.01 819.862,917.091 819.463,918.179 819.1,919.272 818.774,920.37 818.486,921.473 818.236,922.581 818.024,923.692 817.849,924.808 817.714,925.926 817.616,927.047 817.558,928.17 817.539,929.295 817.559,930.422 817.618,931.549 817.717,932.677 817.855,933.805 818.033,934.933 818.25,936.059 818.508,937.184 818.805,938.308 819.143,939.429 819.52,940.547 819.937,941.662 820.394,942.774 820.891,943.882 821.428,944.984 822.004,946.082 822.621,947.175 823.277,948.261 823.972,949.341 824.707,950.414 825.481,951.48 826.295,952.538 827.147,953.587 828.038,954.628 828.968,955.66 829.935,956.682 830.941,957.694 831.985,958.696 833.067,959.686 834.185,960.665 835.341,961.633 836.533,962.588 837.762,963.53 839.026,964.459 840.326,965.374 841.662,966.276 843.032,967.163 844.436,968.035 845.875,968.891 847.347,969.733 848.852,970.557 850.389,971.366 851.959,972.158 853.561,972.932 855.193,973.688 856.856,974.427 858.549,975.147 860.271,975.848 862.022,976.531 863.802,977.193 865.609,977.836 867.443,978.459 869.304,979.061 871.19,979.642 873.101,980.202 875.037,980.74 876.996,981.257 878.979,981.751 880.983,982.223 883.01,982.672 885.057,983.099 887.124,983.502 889.211,983.881 891.316,984.237 893.439,984.569 895.579,984.876 897.735,985.159 899.907,985.417 902.093,985.651 904.293,985.859 906.506,986.042 908.731,986.199 910.968,986.331 913.214,986.436 915.47,986.516 917.735,986.57 920.008,986.597 922.287,986.598 924.572,986.573 926.862,986.52 929.157,986.441 931.454,986.336 933.754,986.203 936.056,986.043 938.357,985.857 940.658,985.643 942.958,985.403 945.256,985.135 947.55,984.84 949.839,984.518 952.124,984.169 954.402,983.793 956.674,983.39 958.937,982.96 961.191,982.503 963.435,982.019 965.668,981.509 967.89,980.972 970.098,980.408 972.293,979.818 974.473,979.202 976.637,978.56 978.785,977.891 980.915,977.197 983.027,976.477 985.119,975.732 987.19,974.962 989.241,974.167 991.269,973.347 993.274,972.502 995.255,971.634 997.211,970.741 999.142,969.825 1001.05,968.885 1002.92,967.923 1004.77,966.938 1006.59,965.93 1008.38,964.9 1010.13,963.849 1011.86,962.776 1013.55,961.683 1015.21,960.569 1016.83,959.435 1018.42,958.282 1019.98,957.109 1021.49,955.917 1022.97,954.708 1024.42,953.48 1025.82,952.235 1027.18,950.974 1028.5,949.696 1029.79,948.402 1031.03,947.093 1032.23,945.77 1033.38,944.432 1034.49,943.08 1035.56,941.716 1036.59,940.339 1037.56,938.95 1038.5,937.55 1039.38,936.139 1040.22,934.717 1041.02,933.287 1041.76,931.847 1042.46,930.399 1043.11,928.943 1043.7,927.479 1044.25,926.01 1044.75,924.534 1045.2,923.053 1045.6,921.567 1045.95,920.077 1046.25,918.583 1046.49,917.086 1046.69,915.587 1046.83,914.086 1046.92,912.584 1046.96,911.081 1046.94,909.579 1046.87,908.076 1046.75,906.575 1046.58,905.075 1046.36,903.578 1046.08,902.083 1045.74,900.592 1045.36,899.104 1044.92,897.621 1044.43,896.142 1043.88,894.669 1043.29,893.202 1042.64,891.741 1041.93,890.288 1041.17,888.841 1040.36,887.403 1039.5,885.973 1038.59,884.553 1037.62,883.141 1036.6,881.74 1035.53,880.349 1034.41,878.969 1033.23,877.601 1032.01,876.245 1030.73,874.901 1029.4,873.57 1028.03,872.253 1026.6,870.95 1025.12,869.661 1023.6,868.387 1022.02,867.129 1020.4,865.887 1018.73,864.662 1017.01,863.453 1015.25,862.262 1013.44,861.09 1011.58,859.936 1009.68,858.801 1007.73,857.686 1005.74,856.59 1003.71,855.516 1001.63,854.463 999.51,853.431 997.349,852.422 995.146,851.436 992.904,850.472 990.622,849.533 988.301,848.617 985.943,847.726 983.547,846.861 981.114,846.021 978.646,845.207 976.144,844.42 973.607,843.66 971.037,842.927 968.435,842.222 965.802,841.545 963.139,840.898 960.446,840.279 957.724,839.69 954.975,839.13 952.2,838.601 949.399,838.103 946.573,837.635 943.724,837.199 940.852,836.795 937.959,836.422 935.046,836.082 932.113,835.774 929.162,835.499 926.195,835.258 923.211,835.049 920.212,834.874 917.2,834.733 914.175,834.626 911.138,834.553 908.092,834.514 905.036,834.51 901.973,834.54 898.903,834.606 895.827,834.706 892.747,834.841 889.664,835.012 886.579,835.218 883.494,835.459 880.409,835.735 877.326,836.047 874.246,836.394 871.171,836.776 868.101,837.194 865.038,837.648 861.983,838.136 858.937,838.661 855.902,839.22 852.879,839.814 849.869,840.444 846.873,841.108 843.893,841.808 840.93,842.542 837.985,843.31 835.059,844.113 832.154,844.951 829.271,845.822 826.41,846.727 823.575,847.666 820.764,848.638 817.981,849.643 815.226,850.681 812.5,851.751 809.804,852.854 807.14,853.988 804.509,855.155 801.912,856.352 799.35,857.581 796.824,858.839 794.336,860.129 791.887,861.447 789.478,862.796 787.109,864.173 784.782,865.579 782.499,867.012 780.26,868.474 778.066,869.962 775.919,871.477 773.818,873.019 771.767,874.585 769.765,876.177 767.813,877.794 765.913,879.434 764.065,881.098 762.27,882.785 760.53,884.494 758.845,886.225 757.216,887.977 755.644,889.75 754.13,891.542 752.674,893.353 751.278,895.183 749.942,897.031 748.668,898.896 747.455,900.778 746.304,902.676 745.217,904.588 744.194,906.516 743.235,908.456 742.342,910.41 741.514,912.376 740.753,914.354 740.059,916.343 739.432,918.341 738.874,920.349 738.384,922.365 737.963,924.389 737.612,926.42 737.33,928.458 737.119,930.5 736.979,932.547 736.909,934.598 736.911,936.652 736.984,938.708 737.129,940.765 737.347,942.823 737.636,944.88 737.998,946.936 738.433,948.99 738.94,951.042 739.52,953.09 740.173,955.133 740.898,957.171 741.697,959.202 742.568,961.227 743.512,963.244 744.529,965.252 745.618,967.25 746.78,969.239 748.014,971.215 749.32,973.18 750.698,975.132 752.147,977.07 753.667,978.993 755.258,980.901 756.92,982.793 758.652,984.667 760.454,986.524 762.325,988.361 764.264,990.18 766.272,991.977 768.348,993.754 770.491,995.508 772.7,997.24 774.975,998.948 777.316,1000.63 779.721,1002.29 782.19,1003.92 784.722,1005.53 787.317,1007.11 789.973,1008.65 792.69,1010.18 795.467,1011.67 798.303,1013.13 801.196,1014.56 804.148,1015.95 807.155,1017.32 810.217,1018.65 813.334,1019.94 816.503,1021.21 819.725,1022.43 822.998,1023.62 826.321,1024.78 829.692,1025.89 833.111,1026.97 836.576,1028.01 840.086,1029.01 843.64,1029.97 847.237,1030.89 850.874,1031.77 854.552,1032.61 858.269,1033.41 862.022,1034.16 865.812,1034.87 869.636,1035.53 873.493,1036.15 877.382,1036.73 881.301,1037.26 885.249,1037.75 889.223,1038.19 893.224,1038.58 897.248,1038.93 901.295,1039.23 905.363,1039.48 909.45,1039.68 913.556,1039.83 917.677,1039.94 921.812,1039.99 925.961,1040 930.12,1039.95 934.289,1039.86 938.466,1039.71 942.649,1039.51 946.836,1039.26 951.026,1038.96 955.216,1038.61 959.406,1038.2 963.592,1037.74 967.774,1037.23 971.95,1036.67 976.118,1036.05 980.275,1035.38 984.421,1034.65 988.552,1033.87 992.669,1033.03 996.768,1032.14 1000.85,1031.2 1004.91,1030.19 1008.94,1029.14 1012.95,1028.02 1016.93,1026.85 1020.89,1025.62 1024.81,1024.33 1028.7,1022.99 1032.56,1021.59 1036.37,1020.13 1040.15,1018.61 1043.89,1017.03 1047.59,1015.39 1051.24,1013.69 1054.84,1011.93 1058.4,1010.11 1061.91,1008.23 1065.36,1006.29 1068.75,1004.28 1072.09,1002.21 1075.37,1000.08 1078.59,997.88 1081.75,995.619 1084.84,993.293 1087.86,990.902 1090.81,988.446 1093.69,985.924 1096.49,983.337 1099.22,980.683 1101.87,977.964 1104.44,975.179 1106.93,972.329 1109.33,969.414 1111.65,966.435 1113.88,963.392 1116.01,960.287 1118.05,957.121 1120,953.895 1121.85,950.613 1123.6,947.275 1125.25,943.885 1126.8,940.445 1128.24,936.959 1129.58,933.431 1130.81,929.866 1131.94,926.267 1132.95,922.64 1133.85,918.992 1134.64,915.327 1135.31,911.652 1135.88,907.975 1136.33,904.303 1136.66,900.643 1136.88,897.003 1136.99,893.392 1136.98,889.817 1136.86,886.288 1136.62,882.812 1136.27,879.398 1135.82,876.054 1135.25,872.787 1134.57,869.605 1133.79,866.515 1132.91,863.523 1131.92,860.635 1130.83,857.856 1129.64,855.189 1128.36,852.637 1126.98,850.203 1125.52,847.888 1123.97,845.691 1122.33,843.612 1120.6,841.649 1118.8,839.799 1116.92,838.059 1114.97,836.423 1112.94,834.886 1110.84,833.442 1108.67,832.085 1106.44,830.807 1104.14,829.601 1101.78,828.461 1099.36,827.377 1096.88,826.342 1094.34,825.35 1091.75,824.392 1089.09,823.461 1086.38,822.552 1083.62,821.657 1080.8,820.772 1077.93,819.891 1075.01,819.01 1072.03,818.126 1069,817.235 1065.92,816.335 1062.78,815.424 1059.59,814.5 1056.35,813.564 1053.06,812.616 1049.71,811.654 1046.32,810.681 1042.87,809.698 1039.37,808.707 1035.81,807.709 1032.21,806.706 1028.55,805.702 1024.85,804.698 1021.09,803.698 1017.29,802.704 1013.44,801.72 1009.53,800.747 1005.58,799.79 1001.59,798.85 997.544,797.93 993.457,797.034 989.325,796.163 985.151,795.321 980.935,794.509 976.678,793.73 972.382,792.985 968.048,792.277 963.677,791.608 959.271,790.978 954.831,790.39 950.359,789.846 945.855,789.345 941.323,788.891 936.763,788.482 932.176,788.122 927.565,787.81 922.932,787.547 918.277,787.334 913.604,787.173 908.912,787.062 904.205,787.003 899.484,786.997 894.75,787.043 890.006,787.142 885.254,787.295 880.495,787.502 875.731,787.762 870.965,788.077 866.197,788.446 861.43,788.869 856.666,789.347 851.906,789.879 847.153,790.466 842.409,791.108 837.675,791.805 832.953,792.556 828.246,793.362 823.555,794.222 818.882,795.137 814.229,796.105 809.599,797.128 804.992,798.205 800.412,799.336 795.859,800.52 791.336,801.757 786.845,803.047 782.388,804.39 777.966,805.785 773.581,807.232 769.237,808.73 764.933,810.28 760.673,811.881 756.458,813.532 752.289,815.233 748.17,816.983 744.101,818.782 740.085,820.63 736.123,822.525 732.217,824.468 728.369,826.457 724.581,828.493 720.854,830.574 717.19,832.7 713.591,834.87 710.059,837.083 706.595,839.339 703.201,841.637 699.879,843.976 696.63,846.356 693.455,848.776 690.357,851.234 687.337,853.731 684.396,856.264 681.536,858.834 678.759,861.44 676.065,864.08 673.457,866.753 670.935,869.459 668.501,872.197 666.157,874.966 663.903,877.765 661.741,880.592 659.672,883.447 657.697,886.329 655.818,889.236 654.036,892.168 652.351,895.124 650.765,898.102 649.279,901.101 647.893,904.121 646.609,907.159 645.428,910.216 644.351,913.289 643.378,916.378 642.51,919.482 641.748,922.599 641.093,925.727 640.545,928.867 640.105,932.016 639.774,935.174 639.552,938.338 639.44,941.509 639.438,944.685 639.546,947.863 639.766,951.044 640.097,954.226 640.54,957.408 641.094,960.587 641.761,963.764 642.541,966.937 643.433,970.104 644.437,973.264 645.554,976.416 646.784,979.559 648.126,982.69 649.581,985.81 651.148,988.916 652.828,992.008 654.619,995.084 656.522,998.142 658.537,1001.18 660.662,1004.2 662.898,1007.2 665.244,1010.18 667.7,1013.13 670.265,1016.06 672.938,1018.96 675.719,1021.83 678.607,1024.68 681.602,1027.49 684.702,1030.27 687.908,1033.02 691.217,1035.74 694.629,1038.42 698.143,1041.06 701.758,1043.67 705.473,1046.24 709.287,1048.77 713.198,1051.25 717.206,1053.7 721.31,1056.1 725.507,1058.45 729.797,1060.76 734.179,1063.02 738.65,1065.24 743.21,1067.4 747.857,1069.51 752.589,1071.58 757.405,1073.59 762.304,1075.54 767.282,1077.44 772.34,1079.28 777.475,1081.07 782.686,1082.8 787.97,1084.47 793.325,1086.08 798.75,1087.63 804.244,1089.11 809.803,1090.54 815.425,1091.9 821.11,1093.19 826.854,1094.42 832.656,1095.58 838.514,1096.67 844.424,1097.69 850.386,1098.65 856.396,1099.53 862.453,1100.34 868.554,1101.08 874.696,1101.74 880.878,1102.33 887.096,1102.84 893.349,1103.28 899.634,1103.64 905.948,1103.92 912.288,1104.11 918.652,1104.23 925.038,1104.26 931.442,1104.21 937.862,1104.07 944.295,1103.84 950.738,1103.53 957.188,1103.12 963.642,1102.61 970.097,1102.01 976.551,1101.32 982.998,1100.52 989.438,1099.61 995.865,1098.59 1002.28,1097.47 1008.67,1096.22 1015.04,1094.85 1021.39,1093.35 1027.7,1091.71 1033.98,1089.93 1040.22,1088 1046.41,1085.91 1052.56,1083.64 1058.66,1081.18 1064.69,1078.53 1070.66,1075.65 1076.56,1072.54 1082.39,1069.17 1088.12,1065.52 1093.77,1061.55 1099.31,1057.25 1104.74,1052.56 1110.06,1047.46 1115.24,1041.9 1120.28,1035.82 1125.16,1029.18 1129.86,1021.9 1134.38,1013.91 1138.69,1005.15 1142.78,995.53 1146.62,984.953 1150.18,973.328 1153.45,960.553 1156.38,946.524 1158.96,931.136 1161.15,914.286 1162.9,895.879 1164.19,875.833 1164.97,854.085 1165.21,830.602 1164.85,805.389 1163.86,778.501 1162.21,750.053 1159.84,720.233 1156.74,689.311 1152.87,657.645 1148.22,625.687 1142.8,593.976 1136.6,563.13 1129.64,533.828 1121.98,506.779 1113.66,482.689 1104.76,462.222 1095.35,445.956 1085.54,434.344 1075.44,427.681 1065.16,426.08 1054.8,429.467 1044.48,437.588 1034.31,450.026 1024.37,466.236 1014.75,485.581 1005.52,507.378 996.713,530.934 988.38,555.583 980.539,580.715 973.199,605.792 966.359,630.362 960.008,654.063 954.128,676.62 948.694,697.836 943.68,717.589 939.055,735.814 934.789,752.499 930.851,767.668 927.21,781.376 923.837,793.698 920.705,804.724 917.789,814.55 915.063,823.276 912.507,831.003 910.101,837.829 907.827,843.847 905.67,849.143 903.615,853.801 901.651,857.893 899.765,861.488 897.95,864.647 896.195,867.426 894.495,869.874 892.842,872.035 891.232,873.948 889.659,875.646 888.121,877.16 886.612,878.517 885.131,879.74 883.676,880.849 882.243,881.861 880.832,882.792 879.442,883.656 878.07,884.463 876.717,885.224 875.381,885.947 874.063,886.64 872.761,887.309 871.476,887.959 870.208,888.596 868.956,889.223 867.721,889.844 866.502,890.461 865.301,891.077 864.116,891.694 862.949,892.314 861.799,892.938 860.668,893.568 859.555,894.205 858.461,894.848 857.386,895.5 856.331,896.161 855.295,896.831 854.281,897.51 853.287,898.199 852.314,898.897 851.363,899.606 850.434,900.324 849.528,901.053 848.644,901.791 847.784,902.54 846.948,903.298 846.137,904.066 845.349,904.843 844.587,905.629 843.851,906.425 843.14,907.229 842.455,908.042 841.797,908.864 841.166,909.693 840.563,910.531 839.987,911.376 839.438,912.228 838.919,913.087 838.428,913.954 837.965,914.826 837.532,915.705 837.129,916.589 836.756,917.479 836.412,918.374 836.099,919.274 835.816,920.178 835.564,921.087 835.344,921.999 835.154,922.914 834.996,923.833 834.87,924.755 834.775,925.678 834.712,926.604 834.682,927.532 834.683,928.46 834.717,929.39 834.784,930.32 834.883,931.251 835.015,932.181 835.18,933.11 835.377,934.039 835.607,934.966 835.87,935.892 836.167,936.816 836.496,937.737 836.858,938.655 837.253,939.57 837.681,940.481 838.141,941.389 838.635,942.292 839.161,943.19 839.72,944.083 840.311,944.971 840.935,945.853 841.591,946.728 842.28,947.597 843,948.459 843.753,949.313 844.537,950.16 845.352,950.998 846.199,951.828 847.077,952.649 847.985,953.461 848.925,954.263 849.894,955.055 850.894,955.837 851.924,956.608 852.983,957.368 854.071,958.117 855.188,958.854 856.334,959.578 857.508,960.291 858.709,960.99 859.938,961.677 861.194,962.35 862.477,963.009 863.786,963.654 865.121,964.284 866.481,964.9 867.867,965.501 869.276,966.087 870.71,966.657 872.167,967.21 873.647,967.748 875.15,968.269 876.675,968.774 878.221,969.261 879.788,969.731 881.376,970.183 882.983,970.618 884.61,971.034 886.255,971.432 887.918,971.811 889.599,972.172 891.297,972.513 893.011,972.836 894.741,973.138 896.485,973.422 898.244,973.685 900.017,973.928 901.802,974.151 903.6,974.353 905.41,974.535 907.231,974.697 909.062,974.837 910.903,974.956 912.752,975.054 914.61,975.131 916.475,975.186 918.347,975.22 920.225,975.232 922.108,975.223 923.996,975.191 925.887,975.138 927.782,975.063 929.679,974.965 931.577,974.846 933.476,974.705 935.375,974.541 937.274,974.355 939.17,974.147 941.065,973.917 942.956,973.665 944.844,973.39 946.727,973.093 948.604,972.775 950.475,972.434 952.339,972.071 954.196,971.686 956.044,971.279 957.882,970.851 959.711,970.4 961.528,969.929 963.334,969.435 965.127,968.92 966.907,968.384 968.673,967.827 970.425,967.249 972.161,966.65 973.88,966.03 975.582,965.39 977.267,964.73 978.933,964.05 980.58,963.349 982.206,962.63 983.812,961.89 985.396,961.132 986.959,960.354 988.498,959.558 990.013,958.744 991.504,957.911 992.97,957.061 994.41,956.193 995.824,955.307 997.211,954.405 998.57,953.487 999.901,952.552 1001.2,951.601 1002.47,950.634 1003.72,949.652 1004.93,948.655 1006.11,947.644 1007.25,946.619 1008.37,945.58 1009.45,944.528 1010.49,943.462 1011.51,942.385 1012.49,941.295 1013.43,940.193 1014.33,939.08 1015.21,937.956 1016.04,936.822 1016.83,935.678 1017.59,934.524 1018.31,933.361 1018.99,932.19 1019.64,931.011 1020.24,929.823 1020.8,928.629 1021.33,927.428 1021.81,926.22 1022.25,925.007 1022.65,923.788 1023.01,922.564 1023.33,921.336 1023.6,920.104 1023.83,918.869 1024.02,917.631 1024.17,916.39 1024.27,915.147 1024.34,913.902 1024.35,912.657 1024.33,911.411 1024.26,910.164 1024.15,908.918 1023.99,907.673 1023.79,906.43 1023.54,905.188 1023.25,903.948 1022.92,902.711 1022.54,901.478 1022.12,900.248 1021.66,899.022 1021.15,897.8 1020.59,896.584 1019.99,895.374 1019.35,894.169 1018.67,892.971 1017.94,891.78 1017.16,890.596 1016.35,889.42 1015.49,888.252 1014.59,887.093 1013.64,885.944 1012.65,884.804 1011.62,883.674 1010.55,882.555 1009.43,881.447 1008.27,880.35 1007.08,879.266 1005.84,878.193 1004.56,877.134 1003.23,876.088 1001.87,875.056 1000.47,874.038 999.034,873.034 997.555,872.046 996.038,871.073 994.483,870.116 992.891,869.176 991.261,868.252 989.596,867.346 987.894,866.457 986.156,865.587 984.384,864.735 982.577,863.901 980.737,863.088 978.863,862.294 976.957,861.52 975.019,860.767 973.05,860.034 971.05,859.323 969.02,858.634 966.96,857.966 964.872,857.322 962.757,856.699 960.614,856.1 958.444,855.525 956.25,854.973 954.03,854.446 951.786,853.943 949.519,853.464 947.229,853.011 944.918,852.583 942.586,852.181 940.234,851.804 937.862,851.454 935.473,851.131 933.066,850.834 930.643,850.563 928.204,850.32 925.75,850.105 923.283,849.917 920.803,849.756 918.311,849.624 915.808,849.52 913.295,849.444 910.773,849.396 908.243,849.377 905.706,849.387 903.163,849.426 900.615,849.493 898.063,849.59 895.507,849.716 892.95,849.87 890.391,850.054 887.833,850.268 885.275,850.511 882.72,850.783 880.167,851.084 877.618,851.415 875.075,851.775 872.538,852.164 870.008,852.583 867.486,853.031 864.973,853.508 862.471,854.015 859.98,854.55 857.501,855.114 855.036,855.708 852.585,856.329 850.15,856.98 847.732,857.659 845.331,858.366 842.948,859.101 840.585,859.865 838.243,860.656 835.923,861.474 833.625,862.32 831.351,863.193 829.101,864.093 826.877,865.02 824.68,865.972 822.511,866.951 820.37,867.956 818.259,868.986 816.179,870.041 814.13,871.122 812.113,872.226 810.13,873.355 808.182,874.508 806.268,875.684 804.391,876.884 802.551,878.105 800.749,879.35 798.986,880.616 797.262,881.904 795.579,883.212 793.937,884.542 792.338,885.891 790.782,887.26 789.269,888.648 787.801,890.056 786.378,891.481 785.001,892.924 783.672,894.384 782.389,895.861 781.155,897.355 779.97,898.864 778.835,900.388 777.75,901.926 776.716,903.479 775.733,905.045 774.802,906.624 773.924,908.216 773.1,909.819 772.329,911.433 771.612,913.057 770.95,914.692 770.344,916.336 769.793,917.988 769.299,919.649 768.861,921.316 768.48,922.991 768.157,924.672 767.891,926.358 767.684,928.049 767.534,929.744 767.444,931.443 767.413,933.144 767.44,934.848 767.528,936.552 767.674,938.258 767.881,939.964 768.148,941.669 768.475,943.373 768.862,945.075 769.309,946.775 769.817,948.471 770.385,950.162 771.013,951.85 771.702,953.531 772.451,955.207 773.261,956.875 774.13,958.536 775.06,960.189 776.05,961.833 777.099,963.467 778.208,965.091 779.377,966.704 780.605,968.305 781.891,969.894 783.236,971.469 784.64,973.031 786.101,974.578 787.621,976.11 789.197,977.626 790.83,979.125 792.52,980.608 794.265,982.072 796.066,983.518 797.922,984.944 799.832,986.351 801.797,987.737 803.814,989.102 805.884,990.445 808.007,991.765 810.18,993.063 812.405,994.336 814.679,995.586 817.003,996.81 819.375,998.009 821.795,999.181 824.262,1000.33 826.776,1001.45 829.335,1002.54 831.938,1003.6 834.585,1004.63 837.274,1005.64 840.006,1006.61 842.778,1007.55 845.591,1008.46 848.442,1009.34 851.331,1010.19 854.257,1011.01 857.22,1011.79 860.216,1012.54 863.247,1013.25 866.31,1013.93 869.405,1014.57 872.531,1015.18 875.685,1015.76 878.868,1016.29 882.077,1016.79 885.313,1017.26 888.572,1017.68 891.855,1018.07 895.161,1018.42 898.486,1018.73 901.832,1019.01 905.195,1019.24 908.575,1019.43 911.971,1019.59 915.382,1019.7 918.805,1019.78 922.239,1019.81 925.684,1019.81 929.138,1019.76 932.598,1019.67 936.065,1019.54 939.537,1019.37 943.012,1019.15 946.488,1018.9 949.965,1018.6 953.441,1018.26 956.914,1017.88 960.383,1017.46 963.847,1016.99 967.304,1016.48 970.752,1015.93 974.19,1015.33 977.617,1014.7 981.031,1014.01 984.431,1013.29 987.815,1012.53 991.182,1011.72 994.529,1010.86 997.856,1009.97 1001.16,1009.03 1004.44,1008.05 1007.7,1007.03 1010.93,1005.96 1014.13,1004.86 1017.31,1003.71 1020.45,1002.52 1023.56,1001.28 1026.64,1000.01 1029.68,998.689 1032.68,997.331 1035.65,995.932 1038.57,994.492 1041.46,993.011 1044.3,991.49 1047.1,989.93 1049.85,988.33 1052.56,986.691 1055.21,985.013 1057.82,983.297 1060.38,981.544 1062.88,979.754 1065.33,977.928 1067.72,976.065 1070.06,974.168 1072.34,972.236 1074.56,970.271 1076.72,968.273 1078.82,966.244 1080.85,964.183 1082.82,962.093 1084.73,959.974 1086.57,957.828 1088.34,955.655 1090.05,953.457 1091.68,951.235 1093.24,948.991 1094.74,946.726 1096.16,944.442 1097.5,942.14 1098.78,939.822 1099.97,937.489 1101.1,935.144 1102.14,932.788 1103.11,930.423 1104,928.052 1104.82,925.675 1105.55,923.295 1106.21,920.914 1106.78,918.533 1107.28,916.156 1107.7,913.783 1108.04,911.417 1108.3,909.06 1108.47,906.713 1108.57,904.379 1108.59,902.058 1108.53,899.753 1108.38,897.465 1108.16,895.196 1107.86,892.947 1107.48,890.719 1107.02,888.514 1106.48,886.332 1105.86,884.174 1105.17,882.04 1104.39,879.932 1103.54,877.85 1102.61,875.794 1101.61,873.764 1100.53,871.761 1099.38,869.783 1098.15,867.832 1096.85,865.906 1095.47,864.005 1094.02,862.13 1092.5,860.278 1090.91,858.451 1089.24,856.646 1087.51,854.864 1085.7,853.104 1083.82,851.365 1081.88,849.647 1079.87,847.949 1077.78,846.271 1075.63,844.612 1073.42,842.971 1071.13,841.349 1068.79,839.746 1066.37,838.161 1063.89,836.594 1061.35,835.046 1058.74,833.515 1056.07,832.004 1053.34,830.512 1050.54,829.039 1047.69,827.587 1044.77,826.156 1041.8,824.745 1038.76,823.358 1035.67,821.993 1032.52,820.652 1029.31,819.337 1026.05,818.047 1022.73,816.784 1019.36,815.55 1015.94,814.344 1012.46,813.168 1008.93,812.024 1005.36,810.912 1001.73,809.833 998.058,808.788 994.338,807.779 990.573,806.806 986.764,805.87 982.912,804.972 979.019,804.114 975.085,803.295 971.113,802.517 967.103,801.781 963.057,801.087 958.976,800.436 954.862,799.829 950.717,799.266 946.541,798.748 942.336,798.276 938.104,797.849 933.847,797.47 929.565,797.137 925.261,796.853 920.936,796.616 916.592,796.427 912.23,796.287 907.852,796.196 903.461,796.155 899.056,796.163 894.641,796.221 890.217,796.329 885.785,796.487 881.347,796.696 876.906,796.955 872.463,797.265 868.019,797.626 863.576,798.038 859.137,798.501 854.703,799.015 850.275,799.58 845.856,800.196 841.448,800.863 837.051,801.58 832.669,802.349 828.302,803.169 823.953,804.039 819.623,804.959 815.315,805.93 811.029,806.952 806.769,808.023 802.535,809.144 798.329,810.314 794.154,811.534 790.01,812.802 785.901,814.119 781.827,815.485 777.79,816.899 773.793,818.36 769.836,819.868 765.922,821.423 762.053,823.024 758.229,824.672 754.454,826.364 750.728,828.102 747.053,829.884 743.431,831.71 739.863,833.579 736.352,835.491 732.899,837.446 729.505,839.441 726.172,841.478 722.901,843.555 719.695,845.671 716.554,847.827 713.481,850.02 710.477,852.251 707.542,854.519 704.68,856.823 701.89,859.162 699.175,861.535 696.536,863.942 693.974,866.381 691.491,868.853 689.088,871.356 686.765,873.888 684.526,876.45 682.369,879.04 680.298,881.658 678.313,884.302 676.415,886.972 674.605,889.666 672.885,892.384 671.255,895.125 669.716,897.887 668.27,900.669 666.917,903.472 665.658,906.292 664.495,909.13 663.427,911.984 662.457,914.854 661.583,917.738 660.808,920.635 660.133,923.544 659.556,926.463 659.08,929.393 658.705,932.33 658.432,935.276 658.26,938.227 658.191,941.184 658.225,944.145 658.362,947.108 658.602,950.073 658.947,953.039 659.395,956.003 659.948,958.966 660.606,961.926 661.369,964.881 662.236,967.83 663.209,970.773 664.286,973.708 665.468,976.633 666.756,979.548 668.148,982.451 669.645,985.342 671.246,988.218 672.951,991.079 674.761,993.923 676.674,996.75 678.691,999.558 680.81,1002.35 683.032,1005.11 685.356,1007.86 687.781,1010.58 690.308,1013.27 692.934,1015.94 695.66,1018.58 698.485,1021.19 701.409,1023.78 704.429,1026.33 707.546,1028.85 710.759,1031.33 714.067,1033.79 717.468,1036.2 720.963,1038.58 724.549,1040.93 728.225,1043.23 731.992,1045.49 735.846,1047.71 739.788,1049.89 743.816,1052.03 747.928,1054.12 752.124,1056.17 756.402,1058.17 760.76,1060.12 765.198,1062.03 769.713,1063.88 774.304,1065.69 778.97,1067.44 783.709,1069.14 788.519,1070.79 793.399,1072.38 798.346,1073.92 803.36,1075.4 808.438,1076.82 813.579,1078.19 818.781,1079.49 824.041,1080.74 829.359,1081.92 834.731,1083.05 840.157,1084.11 845.633,1085.11 851.158,1086.04 856.731,1086.91 862.347,1087.71 868.007,1088.44 873.707,1089.11 879.445,1089.71 885.218,1090.24 891.026,1090.7 896.865,1091.09 902.733,1091.4 908.627,1091.64 914.545,1091.81 920.486,1091.9 926.445,1091.92 932.421,1091.86 938.411,1091.72 944.413,1091.5 950.424,1091.2 956.441,1090.81 962.462,1090.34 968.483,1089.79 974.502,1089.15 980.517,1088.42 986.523,1087.59 992.519,1086.67 998.501,1085.66 1004.47,1084.54 1010.41,1083.32 1016.33,1081.99 1022.23,1080.55 1028.09,1078.99 1033.92,1077.32 1039.71,1075.51 1045.46,1073.57 1051.16,1071.49 1056.82,1069.26 1062.42,1066.86 1067.96,1064.3 1073.43,1061.56 1078.84,1058.62 1084.17,1055.46 1089.42,1052.09 1094.59,1048.46 1099.65,1044.57 1104.62,1040.39 1109.48,1035.89 1114.22,1031.04 1118.83,1025.82 1123.3,1020.19 1127.63,1014.1 1131.8,1007.53 1135.79,1000.42 1139.59,992.716 1143.2,984.38 1146.58,975.353 1149.73,965.578 1152.63,954.999 1155.25,943.558 1157.57,931.2 1159.58,917.873 1161.24,903.534 1162.53,888.145 1163.42,871.686 1163.9,854.151 1163.93,835.559 1163.49,815.954 1162.55,795.414 1161.09,774.052 1159.1,752.022 1156.55,729.524 1153.44,706.801 1149.76,684.141 1145.51,661.873 1140.71,640.355 1135.37,619.972 1129.52,601.115 1123.2,584.168 1116.45,569.49 1109.33,557.395 1101.89,548.135 1094.2,541.889 1086.33,538.746 1078.35,538.706 1070.32,541.675 1062.31,547.476 1054.39,555.858 1046.62,566.509 1039.03,579.077 1031.68,593.185 1024.59,608.453 1017.79,624.508 1011.3,641.003 1005.12,657.621 999.265,674.088 993.724,690.17 988.492,705.679 983.557,720.47 978.905,734.435 974.519,747.504 970.382,759.637 966.474,770.82 962.777,781.061 959.272,790.383 955.941,798.823 952.767,806.428 949.733,813.249 946.824,819.342 944.025,824.764 941.324,829.572 938.708,833.823 936.167,837.571 933.692,840.866 931.272,843.758 928.901,846.29 926.573,848.505 924.28,850.44 922.017,852.129 919.781,853.605 917.567,854.895 915.372,856.024 913.193,857.016 911.028,857.89 908.874,858.664 906.731,859.355 904.596,859.975 902.469,860.539 900.349,861.055 898.235,861.535 896.127,861.986 894.025,862.416 891.928,862.83 889.838,863.235 887.753,863.634 885.674,864.033 883.603,864.435 881.538,864.842 879.48,865.257 877.431,865.684 875.39,866.122 873.358,866.575 871.337,867.043 869.326,867.528 867.326,868.031 865.338,868.552 863.363,869.092 861.401,869.651 859.454,870.23 857.522,870.83 855.606,871.45 853.706,872.091 851.824,872.753 849.96,873.436 848.114,874.139 846.289,874.864 844.485,875.609 842.701,876.376 840.94,877.162 839.202,877.97 837.487,878.797 835.797,879.645 834.133,880.513 832.494,881.4 830.882,882.307 829.298,883.233 827.742,884.178 826.215,885.142 824.718,886.124 823.251,887.124 821.815,888.142 820.411,889.177 819.04,890.229 817.702,891.298 816.398,892.383 815.128,893.485 813.894,894.602 812.695,895.734 811.533,896.881 810.408,898.043 809.32,899.219 808.271,900.408 807.261,901.61 806.29,902.826 805.358,904.053 804.468,905.293 803.618,906.544 802.81,907.806 802.044,909.079 801.32,910.361 800.639,911.654 800.001,912.955 799.407,914.265 798.858,915.583 798.352,916.909 797.892,918.242 797.477,919.582 797.108,920.927 796.785,922.279 796.508,923.635 796.277,924.996 796.094,926.362 795.957,927.73 795.868,929.102 795.827,930.476 795.833,931.852 795.887,933.229 795.99,934.607 796.141,935.985 796.34,937.363 796.587,938.74 796.884,940.116 797.229,941.49 797.622,942.861 798.065,944.229 798.556,945.593 799.097,946.954 799.685,948.309 800.323,949.659 801.009,951.003 801.744,952.341 802.528,953.671 803.36,954.994 804.239,956.309 805.168,957.615 806.143,958.911 807.167,960.198 808.238,961.474 809.356,962.739 810.521,963.993 811.733,965.235 812.991,966.464 814.295,967.68 815.645,968.882 817.04,970.069 818.48,971.242 819.965,972.4 821.494,973.541 823.066,974.667 824.682,975.775 826.34,976.866 828.041,977.938 829.783,978.993 831.566,980.028 833.39,981.044 835.254,982.039 837.158,983.015 839.1,983.969 841.081,984.902 843.099,985.813 845.154,986.702 847.246,987.568 849.372,988.41 851.534,989.229 853.729,990.024 855.958,990.794 858.22,991.539 860.513,992.258 862.837,992.952 865.191,993.62 867.575,994.261 869.987,994.875 872.427,995.462 874.893,996.021 877.385,996.552 879.902,997.055 882.443,997.529 885.007,997.973 887.593,998.389 890.2,998.775 892.828,999.131 895.474,999.456 898.139,999.752 900.821,1000.02 903.519,1000.25 906.232,1000.45 908.959,1000.62 911.699,1000.76 914.452,1000.87 917.215,1000.94 919.987,1000.99 922.769,1001 925.558,1000.97 928.354,1000.92 931.155,1000.83 933.96,1000.71 936.768,1000.56 939.579,1000.37 942.39,1000.15 945.201,999.894 948.01,999.606 950.817,999.286 953.62,998.931 956.418,998.543 959.21,998.122 961.994,997.667 964.771,997.178 967.537,996.656 970.293,996.101 973.037,995.512 975.767,994.89 978.484,994.235 981.184,993.546 983.868,992.825 986.534,992.071 989.181,991.284 991.808,990.465 994.414,989.613 996.997,988.73 999.556,987.814 1002.09,986.867 1004.6,985.888 1007.08,984.879 1009.53,983.838 1011.96,982.767 1014.35,981.666 1016.71,980.534 1019.04,979.374 1021.33,978.184 1023.59,976.965 1025.81,975.718 1028,974.443 1030.15,973.141 1032.26,971.812 1034.33,970.456 1036.35,969.075 1038.34,967.668 1040.28,966.236 1042.18,964.78 1044.03,963.3 1045.84,961.797 1047.6,960.272 1049.31,958.725 1050.97,957.157 1052.58,955.568 1054.15,953.96 1055.66,952.333 1057.12,950.688 1058.52,949.025 1059.88,947.346 1061.17,945.652 1062.42,943.942 1063.6,942.218 1064.74,940.481 1065.81,938.731 1066.83,936.97 1067.78,935.198 1068.68,933.416 1069.52,931.625 1070.3,929.827 1071.02,928.021 1071.68,926.209 1072.28,924.391 1072.82,922.569 1073.29,920.743 1073.7,918.915 1074.05,917.084 1074.34,915.253 1074.56,913.421 1074.72,911.59 1074.82,909.759 1074.85,907.931 1074.82,906.106 1074.73,904.284 1074.57,902.467 1074.34,900.654 1074.06,898.847 1073.71,897.047 1073.29,895.252 1072.81,893.466 1072.27,891.687 1071.66,889.917 1070.99,888.156 1070.25,886.404 1069.45,884.662 1068.59,882.931 1067.66,881.211 1066.67,879.502 1065.61,877.804 1064.5,876.119 1063.32,874.447 1062.08,872.788 1060.77,871.142 1059.41,869.51 1057.98,867.892 1056.49,866.289 1054.94,864.701 1053.33,863.129 1051.66,861.572 1049.94,860.032 1048.15,858.509 1046.3,857.003 1044.4,855.516 1042.43,854.046 1040.41,852.596 1038.34,851.165 1036.21,849.754 1034.02,848.363 1031.78,846.994 1029.48,845.646 1027.13,844.321 1024.72,843.019 1022.27,841.74 1019.76,840.485 1017.2,839.255 1014.6,838.051 1011.94,836.873 1009.23,835.721 1006.48,834.597 1003.68,833.501 1000.84,832.434 997.948,831.396 995.014,830.387 992.037,829.41 989.019,828.463 985.959,827.549 982.86,826.666 979.721,825.817 976.545,825.001 973.333,824.219 970.084,823.471 966.802,822.759 963.486,822.082 960.137,821.442 956.758,820.838 953.35,820.271 949.912,819.741 946.448,819.25 942.957,818.797 939.442,818.382 935.904,818.007 932.343,817.671 928.762,817.375 925.161,817.118 921.542,816.903 917.907,816.728 914.256,816.594 910.591,816.501 906.914,816.449 903.226,816.439 899.528,816.471 895.821,816.545 892.108,816.661 888.39,816.82 884.668,817.02 880.943,817.264 877.218,817.55 873.493,817.878 869.77,818.249 866.051,818.664 862.337,819.12 858.629,819.62 854.93,820.162 851.24,820.748 847.561,821.375 843.895,822.046 840.243,822.759 836.607,823.514 832.987,824.311 829.387,825.151 825.807,826.032 822.248,826.956 818.713,827.92 815.202,828.927 811.718,829.974 808.261,831.062 804.834,832.191 801.437,833.36 798.073,834.569 794.742,835.818 791.447,837.106 788.188,838.433 784.967,839.799 781.786,841.203 778.645,842.645 775.547,844.124 772.493,845.64 769.484,847.193 766.521,848.781 763.607,850.405 760.741,852.065 757.927,853.758 755.164,855.486 752.454,857.247 749.799,859.041 747.2,860.867 744.658,862.725 742.175,864.613 739.751,866.533 737.388,868.482 735.086,870.459 732.848,872.466 730.675,874.5 728.566,876.561 726.524,878.648 724.55,880.761 722.645,882.899 720.809,885.061 719.044,887.246 717.351,889.454 715.73,891.683 714.183,893.933 712.711,896.204 711.313,898.493 709.993,900.801 708.749,903.127 707.583,905.469 706.496,907.827 705.489,910.2 704.561,912.587 703.715,914.987 702.95,917.4 702.267,919.824 701.667,922.258 701.15,924.701 700.717,927.153 700.368,929.613 700.105,932.079 699.926,934.551 699.833,937.028 699.827,939.508 699.906,941.991 700.073,944.475 700.326,946.961 700.667,949.446 701.095,951.93 701.611,954.411 702.215,956.889 702.906,959.363 703.686,961.832 704.553,964.294 705.508,966.749 706.552,969.195 707.683,971.633 708.902,974.059 710.209,976.475 711.603,978.878 713.084,981.267 714.653,983.642 716.308,986.001 718.049,988.344 719.877,990.669 721.79,992.976 723.789,995.263 725.872,997.53 728.039,999.775 730.29,1002 732.625,1004.2 735.041,1006.37 737.54,1008.52 740.12,1010.64 742.78,1012.74 745.52,1014.8 748.339,1016.84 751.237,1018.85 754.211,1020.82 757.262,1022.77 760.388,1024.68 763.589,1026.55 766.863,1028.39 770.209,1030.2 773.627,1031.97 777.116,1033.7 780.673,1035.39 784.299,1037.04 787.991,1038.65 791.749,1040.22 795.571,1041.75 799.456,1043.24 803.403,1044.68 807.41,1046.08 811.476,1047.43 815.6,1048.74 819.779,1050 824.014,1051.21 828.301,1052.38 832.64,1053.49 837.029,1054.56 841.466,1055.58 845.951,1056.54 850.48,1057.45 855.053,1058.31 859.667,1059.12 864.322,1059.87 869.015,1060.57 873.744,1061.22 878.508,1061.8 883.305,1062.33 888.133,1062.81 892.99,1063.23 897.875,1063.58 902.784,1063.88 907.717,1064.13 912.672,1064.31 917.645,1064.43 922.637,1064.49 927.643,1064.48 932.663,1064.42 937.694,1064.29 942.734,1064.1 947.781,1063.84 952.833,1063.52 957.888,1063.13 962.943,1062.68 967.996,1062.16 973.045,1061.57 978.088,1060.91 983.122,1060.18 988.145,1059.38 993.155,1058.51 998.149,1057.57 1003.13,1056.56 1008.08,1055.46 1013.01,1054.3 1017.92,1053.05 1022.8,1051.73 1027.65,1050.32 1032.46,1048.83 1037.24,1047.26 1041.98,1045.59 1046.68,1043.84 1051.33,1042 1055.94,1040.06 1060.49,1038.02 1065,1035.89 1069.44,1033.64 1073.83,1031.29 1078.15,1028.83 1082.41,1026.24 1086.59,1023.54 1090.71,1020.7 1094.74,1017.73 1098.69,1014.62 1102.56,1011.37 1106.34,1007.96 1110.02,1004.39 1113.6,1000.65 1117.08,996.738 1120.45,992.639 1123.71,988.346 1126.85,983.851 1129.86,979.145 1132.75,974.22 1135.49,969.068 1138.1,963.679 1140.55,958.047 1142.85,952.165 1144.98,946.028 1146.95,939.633 1148.74,932.976 1150.35,926.057 1151.77,918.881 1153,911.452 1154.02,903.779 1154.83,895.876 1155.42,887.76 1155.8,879.454 1155.94,870.983 1155.86,862.381 1155.54,853.686 1154.99,844.941 1154.2,836.193 1153.17,827.497 1151.9,818.911 1150.39,810.494 1148.66,802.313 1146.69,794.431 1144.51,786.915 1142.11,779.829 1139.51,773.234 1136.72,767.187 1133.75,761.74 1130.61,756.935 1127.33,752.808 1123.9,749.381 1120.36,746.67 1116.71,744.677 1112.97,743.393 1109.17,742.799 1105.3,742.864 1101.4,743.55 1097.47,744.808 1093.52,746.586 1089.57,748.822 1085.63,751.456 1081.7,754.421 1077.8,757.652 1073.93,761.086 1070.09,764.661 1066.29,768.319 1062.54,772.006 1058.82,775.672 1055.15,779.275 1051.53,782.777 1047.94,786.146 1044.39,789.355 1040.87,792.383 1037.39,795.216 1033.94,797.841 1030.51,800.253 1027.1,802.448 1023.71,804.428 1020.33,806.196 1016.96,807.757 1013.6,809.121 1010.23,810.297 1006.87,811.295 1003.5,812.128 1000.12,812.807 996.737,813.347 993.337,813.759 989.922,814.056 986.49,814.251 983.04,814.356 979.57,814.382 976.079,814.341 972.566,814.244 969.031,814.1 965.473,813.918 961.892,813.707 958.287,813.475 954.66,813.23 951.009,812.977 947.336,812.723 943.642,812.473 939.925,812.233 936.188,812.007 932.432,811.799 928.657,811.611 924.863,811.449 921.053,811.313 917.228,811.208 913.388,811.134 909.535,811.094 905.67,811.09 901.795,811.123 897.91,811.193 894.018,811.303 890.119,811.454 886.216,811.645 882.309,811.878 878.4,812.154 874.491,812.472 870.582,812.833 866.677,813.238 862.776,813.687 858.88,814.179 854.992,814.716 851.112,815.297 847.244,815.923 843.387,816.592 839.543,817.306 835.715,818.065 831.904,818.867 828.111,819.714 824.338,820.605 820.587,821.539 816.859,822.518 813.155,823.54 809.478,824.605 805.829,825.713 802.209,826.864 798.62,828.057 795.064,829.293 791.541,830.57 788.055,831.889 784.606,833.249 781.195,834.65 777.825,836.092 774.496,837.573 771.211,839.094 767.971,840.655 764.777,842.254 761.63,843.891 758.533,845.565 755.486,847.277 752.491,849.026 749.55,850.81 746.663,852.63 743.833,854.485 741.06,856.375 738.346,858.298 735.693,860.254 733.1,862.242 730.571,864.262 728.106,866.314 725.706,868.395 723.372,870.507 721.106,872.647 718.909,874.815 716.783,877.011 714.727,879.233 712.744,881.482 710.834,883.755 708.998,886.053 707.238,888.374 705.554,890.718 703.948,893.083 702.42,895.469 700.972,897.876 699.604,900.301 698.316,902.745 697.111,905.206 695.989,907.683 694.95,910.176 693.995,912.684 693.125,915.205 692.341,917.739 691.644,920.284 691.033,922.84 690.51,925.406 690.075,927.98 689.728,930.562 689.471,933.151 689.303,935.746 689.225,938.345 689.238,940.948 689.341,943.553 689.535,946.16 689.821,948.768 690.199,951.375 690.668,953.981 691.229,956.583 691.882,959.183 692.627,961.777 693.465,964.366 694.395,966.948 695.418,969.522 696.532,972.087 697.739,974.641 699.038,977.185 700.429,979.716 701.912,982.235 703.486,984.738 705.151,987.227 706.907,989.699 708.754,992.153 710.691,994.589 712.717,997.005 714.833,999.4 717.038,1001.77 719.331,1004.12 721.712,1006.45 724.18,1008.75 726.734,1011.03 729.374,1013.28 732.1,1015.5 734.909,1017.69 737.802,1019.85 740.777,1021.98 743.835,1024.08 746.973,1026.15 750.191,1028.18 753.488,1030.17 756.863,1032.13 760.315,1034.06 763.842,1035.94 767.444,1037.79 771.12,1039.6 774.868,1041.36 778.687,1043.09 782.576,1044.77 786.533,1046.41 790.558,1048 794.648,1049.55 798.803,1051.06 803.021,1052.51 807.3,1053.92 811.64,1055.28 816.038,1056.6 820.492,1057.86 825.003,1059.07 829.567,1060.23 834.183,1061.33 838.849,1062.39 843.564,1063.39 848.326,1064.33 853.134,1065.22 857.984,1066.06 862.877,1066.83 867.809,1067.55 872.779,1068.21 877.784,1068.82 882.824,1069.36 887.896,1069.84 892.998,1070.26 898.129,1070.63 903.285,1070.92 908.465,1071.16 913.667,1071.33 918.889,1071.44 924.129,1071.48 929.384,1071.46 934.653,1071.37 939.932,1071.21 945.221,1070.99 950.516,1070.7 955.815,1070.33 961.116,1069.9 966.418,1069.4 971.716,1068.82 977.009,1068.17 982.295,1067.45 987.571,1066.65 992.834,1065.77 998.082,1064.82 1003.31,1063.78 1008.52,1062.66 1013.71,1061.46 1018.87,1060.18 1024,1058.81 1029.11,1057.34 1034.17,1055.79 1039.2,1054.14 1044.19,1052.39 1049.14,1050.54 1054.04,1048.59 1058.89,1046.52 1063.69,1044.35 1068.43,1042.05 1073.11,1039.63 1077.73,1037.07 1082.28,1034.39 1086.76,1031.55 1091.16,1028.57 1095.48,1025.43 1099.72,1022.11 1103.86,1018.62 1107.91,1014.94 1111.87,1011.06 1115.71,1006.97 1119.44,1002.65 1123.06,998.094 1126.55,993.284 1129.91,988.206 1133.13,982.846 1136.2,977.188 1139.12,971.217 1141.88,964.916 1144.47,958.273 1146.87,951.272 1149.09,943.902 1151.11,936.152 1152.92,928.015 1154.51,919.485 1155.87,910.561 1157,901.249 1157.87,891.558 1158.49,881.505 1158.84,871.114 1158.92,860.416 1158.71,849.454 1158.21,838.278 1157.41,826.949 1156.32,815.539 1154.92,804.127 1153.22,792.805 1151.22,781.67 1148.93,770.826 1146.34,760.383 1143.48,750.45 1140.34,741.138 1136.95,732.553 1133.32,724.792 1129.47,717.945 1125.42,712.086 1121.2,707.273 1116.82,703.545 1112.32,700.923 1107.71,699.407 1103.02,698.973 1098.28,699.582 1093.51,701.174 1088.73,703.674 1083.96,706.994 1079.22,711.035 1074.53,715.692 1069.9,720.856 1065.34,726.42 1060.85,732.275 1056.46,738.321 1052.16,744.463 1047.95,750.614 1043.84,756.697 1039.82,762.645 1035.9,768.401 1032.06,773.919 1028.31,779.163 1024.64,784.104 1021.04,788.723 1017.51,793.009 1014.05,796.956 1010.63,800.566 1007.27,803.843 1003.95,806.798 1000.66,809.443 997.409,811.794 994.179,813.866 990.969,815.68 987.774,817.252 984.589,818.604 981.41,819.753 978.235,820.72 975.059,821.522 971.879,822.177 968.694,822.702 965.5,823.113 962.297,823.426 959.082,823.653 955.855,823.809 952.614,823.905 949.359,823.952 946.088,823.961 942.803,823.939 939.502,823.896 936.186,823.84 932.855,823.775 929.51,823.71 926.15,823.648 922.777,823.595 919.391,823.555 915.992,823.532 912.583,823.528 909.163,823.547 905.735,823.591 902.298,823.663 898.853,823.764 895.403,823.895 891.948,824.059 888.49,824.257 885.03,824.489 881.568,824.756 878.107,825.059 874.647,825.4 871.19,825.777 867.737,826.193 864.291,826.646 860.851,827.138 857.419,827.668 853.998,828.237 850.587,828.845 847.189,829.491 843.805,830.177 840.436,830.901 837.084,831.664 833.75,832.466 830.436,833.307 827.143,834.186 823.872,835.104 820.625,836.059 817.403,837.053 814.207,838.084 811.039,839.153 807.901,840.259 804.793,841.402 801.717,842.581 798.675,843.797 795.668,845.049 792.696,846.337 789.762,847.66 786.867,849.017 784.011,850.41 781.197,851.836 778.426,853.296 775.699,854.789 773.016,856.315 770.381,857.873 767.793,859.463 765.253,861.084 762.764,862.736 760.327,864.418 757.941,866.13 755.61,867.871 753.333,869.64 751.112,871.437 748.948,873.261 746.843,875.113 744.796,876.99 742.81,878.892 740.885,880.819 739.023,882.771 737.224,884.745 735.489,886.743 733.819,888.762 732.216,890.802 730.68,892.863 729.211,894.944 727.812,897.044 726.482,899.162 725.222,901.297 724.034,903.449 722.918,905.617 721.875,907.8 720.905,909.997 720.009,912.208 719.188,914.431 718.442,916.666 717.773,918.912 717.18,921.168 716.664,923.433 716.226,925.707 715.866,927.988 715.584,930.275 715.382,932.568 715.259,934.866 715.216,937.167 715.252,939.472 715.37,941.778 715.568,944.086 715.846,946.394 716.206,948.701 716.648,951.006 717.17,953.309 717.774,955.608 718.46,957.902 719.228,960.191 720.077,962.474 721.008,964.75 722.021,967.017 723.115,969.275 724.291,971.522 725.548,973.759 726.886,975.983 728.305,978.195 729.804,980.392 731.384,982.575 733.044,984.742 734.784,986.892 736.603,989.024 738.501,991.137 740.478,993.231 742.532,995.305 744.664,997.357 746.872,999.386 749.157,1001.39 751.518,1003.37 753.954,1005.33 756.464,1007.26 759.048,1009.17 761.704,1011.04 764.433,1012.89 767.233,1014.71 770.104,1016.5 773.044,1018.25 776.052,1019.98 779.129,1021.67 782.272,1023.33 785.481,1024.95 788.755,1026.54 792.092,1028.09 795.492,1029.6 798.953,1031.08 802.474,1032.52 806.055,1033.91 809.693,1035.27 813.388,1036.59 817.139,1037.87 820.943,1039.1 824.8,1040.29 828.708,1041.44 832.667,1042.54 836.674,1043.6 840.728,1044.61 844.827,1045.57 848.971,1046.49 853.158,1047.36 857.385,1048.18 861.653,1048.96 865.958,1049.68 870.299,1050.35 874.675,1050.98 879.084,1051.55 883.525,1052.07 887.995,1052.54 892.493,1052.95 897.017,1053.31 901.566,1053.62 906.137,1053.87 910.729,1054.07 915.34,1054.21 919.969,1054.3 924.612,1054.33 929.269,1054.3 933.937,1054.22 938.615,1054.07 943.301,1053.87 947.992,1053.61 952.686,1053.3 957.383,1052.92 962.079,1052.48 966.772,1051.98 971.461,1051.41 976.144,1050.79 980.818,1050.1 985.481,1049.35 990.131,1048.54 994.766,1047.66 999.384,1046.72 1003.98,1045.71 1008.56,1044.63 1013.11,1043.49 1017.64,1042.27 1022.14,1040.99 1026.61,1039.64 1031.04,1038.22 1035.44,1036.72 1039.8,1035.15 1044.12,1033.5 1048.4,1031.78 1052.63,1029.98 1056.82,1028.1 1060.96,1026.13 1065.04,1024.09 1069.06,1021.96 1073.03,1019.74 1076.94,1017.43 1080.78,1015.02 1084.56,1012.53 1088.26,1009.93 1091.9,1007.24 1095.46,1004.44 1098.93,1001.53 1102.33,998.517 1105.64,995.39 1108.86,992.146 1111.99,988.784 1115.03,985.299 1117.96,981.688 1120.79,977.949 1123.52,974.078 1126.13,970.074 1128.63,965.933 1131.01,961.653 1133.27,957.234 1135.4,952.675 1137.4,947.976 1139.27,943.138 1141,938.163 1142.59,933.053 1144.03,927.815 1145.32,922.452 1146.47,916.973 1147.45,911.388 1148.27,905.706 1148.94,899.941 1149.44,894.108 1149.77,888.224 1149.93,882.308 1149.92,876.38 1149.75,870.463 1149.4,864.582 1148.88,858.763 1148.19,853.032 1147.34,847.419 1146.32,841.95 1145.14,836.656 1143.8,831.564 1142.3,826.701 1140.66,822.094 1138.87,817.766 1136.95,813.738 1134.9,810.029 1132.72,806.653 1130.42,803.623 1128.02,800.945 1125.52,798.622 1122.92,796.654 1120.24,795.034 1117.48,793.753 1114.65,792.797 1111.77,792.15 1108.82,791.791 1105.83,791.697 1102.8,791.843 1099.73,792.202 1096.63,792.747 1093.5,793.449 1090.35,794.279 1087.18,795.209 1083.99,796.214 1080.78,797.266 1077.56,798.341 1074.33,799.419 1071.09,800.478 1067.83,801.501 1064.56,802.472 1061.27,803.379 1057.97,804.211 1054.66,804.959 1051.33,805.617 1047.98,806.181 1044.61,806.648 1041.21,807.018 1037.8,807.291 1034.36,807.47 1030.89,807.559 1027.4,807.56 1023.87,807.48 1020.32,807.325 1016.74,807.1 1013.12,806.812 1009.47,806.468 1005.78,806.075 1002.06,805.639 998.311,805.169 994.522,804.67 990.698,804.148 986.839,803.611 982.946,803.064 979.018,802.513 975.055,801.962 971.06,801.418 967.031,800.885 962.97,800.366 958.879,799.867 954.757,799.39 950.606,798.938 946.427,798.516 942.221,798.125 937.989,797.768 933.734,797.447 929.455,797.164 925.155,796.921 920.835,796.719 916.497,796.56 912.141,796.445 907.771,796.374 903.386,796.35 898.989,796.372 894.582,796.442 890.166,796.56 885.743,796.726 881.314,796.942 876.882,797.207 872.447,797.521 868.012,797.886 863.579,798.3 859.149,798.766 854.724,799.281 850.306,799.848 845.897,800.464 841.498,801.132 837.111,801.85 832.738,802.619 828.381,803.438 824.041,804.308 819.721,805.229 815.422,806.199 811.147,807.219 806.896,808.29 802.671,809.409 798.475,810.579 794.309,811.797 790.176,813.064 786.076,814.38 782.011,815.744 777.984,817.155 773.996,818.614 770.049,820.121 766.144,821.674 762.284,823.273 758.47,824.918 754.704,826.608 750.987,828.343 747.321,830.122 743.708,831.946 740.149,833.812 736.647,835.721 733.202,837.672 729.816,839.665 726.492,841.698 723.23,843.771 720.032,845.884 716.9,848.036 713.835,850.226 710.839,852.453 707.912,854.717 705.057,857.017 702.276,859.351 699.568,861.721 696.936,864.123 694.382,866.558 691.906,869.025 689.509,871.523 687.194,874.051 684.961,876.609 682.812,879.194 680.747,881.807 678.768,884.446 676.876,887.111 675.072,889.8 673.358,892.513 671.733,895.248 670.2,898.005 668.759,900.782 667.412,903.579 666.158,906.394 664.999,909.226 663.936,912.075 662.97,914.939 662.101,917.817 661.33,920.708 660.658,923.611 660.086,926.524 659.613,929.448 659.241,932.38 658.971,935.319 658.802,938.264 658.735,941.215 658.772,944.169 658.911,947.127 659.153,950.085 659.5,953.045 659.95,956.003 660.504,958.959 661.163,961.912 661.927,964.861 662.795,967.804 663.768,970.74 664.845,973.669 666.028,976.588 667.315,979.496 668.707,982.393 670.203,985.277 671.803,988.147 673.508,991.001 675.316,993.839 677.228,996.66 679.242,999.461 681.36,1002.24 683.58,1005 685.901,1007.74 688.324,1010.45 690.847,1013.14 693.471,1015.8 696.193,1018.44 699.015,1021.04 701.934,1023.62 704.951,1026.17 708.064,1028.68 711.272,1031.16 714.575,1033.61 717.972,1036.02 721.461,1038.39 725.041,1040.73 728.712,1043.03 732.473,1045.28 736.321,1047.5 740.257,1049.67 744.278,1051.81 748.384,1053.89 752.573,1055.93 756.844,1057.93 761.195,1059.88 765.625,1061.78 770.132,1063.63 774.716,1065.43 779.373,1067.17 784.104,1068.87 788.905,1070.51 793.777,1072.1 798.715,1073.63 803.72,1075.11 808.789,1076.53 813.921,1077.89 819.113,1079.19 824.364,1080.43 829.671,1081.61 835.033,1082.73 840.449,1083.79 845.915,1084.78 851.429,1085.71 856.991,1086.58 862.597,1087.38 868.245,1088.11 873.934,1088.77 879.661,1089.37 885.423,1089.89 891.219,1090.35 897.046,1090.74 902.902,1091.05 908.785,1091.29 914.692,1091.45 920.62,1091.55 926.567,1091.56 932.531,1091.5 938.509,1091.36 944.498,1091.13 950.497,1090.83 956.501,1090.45 962.509,1089.98 968.518,1089.43 974.525,1088.78 980.526,1088.05 986.52,1087.23 992.503,1086.31 998.472,1085.3 1004.42,1084.18 1010.36,1082.96 1016.26,1081.64 1022.15,1080.2 1028,1078.65 1033.81,1076.98 1039.59,1075.18 1045.33,1073.24 1051.02,1071.17 1056.67,1068.94 1062.25,1066.56 1067.78,1064.01 1073.25,1061.28 1078.64,1058.35 1083.96,1055.22 1089.2,1051.86 1094.36,1048.26 1099.42,1044.39 1104.37,1040.24 1109.22,1035.77 1113.96,1030.96 1118.56,1025.78 1123.03,1020.2 1127.35,1014.17 1131.51,1007.65 1135.51,1000.61 1139.31,992.988 1142.92,984.741 1146.31,975.815 1149.47,966.154 1152.37,955.701 1155,944.402 1157.34,932.201 1159.37,919.048 1161.05,904.899 1162.37,889.718 1163.3,873.483 1163.82,856.19 1163.9,837.853 1163.51,818.515 1162.63,798.249 1161.23,777.166 1159.31,755.412 1156.84,733.182 1153.81,710.709 1150.22,688.273 1146.07,666.193 1141.37,644.82 1136.13,624.528 1130.39,605.701 1124.17,588.718 1117.52,573.933 1110.5,561.662 1103.16,552.158 1095.56,545.605 1087.77,542.102 1079.86,541.659 1071.9,544.196 1063.95,549.548 1056.08,557.478 1048.34,567.686 1040.78,579.832 1033.45,593.549 1026.37,608.463 1019.57,624.205 1013.07,640.431 1006.89,656.826 1001.02,673.111 995.456,689.052 990.201,704.458 985.241,719.176 980.563,733.098 976.149,746.148 971.984,758.28 968.047,769.478 964.322,779.746 960.789,789.103 957.431,797.584 954.23,805.233 951.169,812.1 948.234,818.239 945.411,823.705 942.685,828.556 940.046,832.847 937.481,836.632 934.983,839.961 932.541,842.882 930.149,845.441 927.798,847.679 925.484,849.634 923.2,851.34 920.943,852.83 918.707,854.131 916.491,855.269 914.291,856.266 912.104,857.144 909.929,857.921 907.763,858.612 905.607,859.232 903.457,859.794 901.314,860.307 899.177,860.783 897.046,861.229 894.921,861.653 892.8,862.061 890.686,862.459 888.576,862.852 886.473,863.244 884.376,863.638 882.285,864.038 880.202,864.446 878.126,864.865 876.059,865.296 874,865.742 871.951,866.203 869.912,866.681 867.885,867.176 865.868,867.69 863.865,868.224 861.874,868.777 859.898,869.35 857.936,869.944 855.99,870.559 854.06,871.195 852.147,871.852 850.253,872.53 848.377,873.229 846.52,873.95 844.685,874.692 842.87,875.455 841.077,876.239 839.307,877.044 837.56,877.869 835.838,878.715 834.141,879.582 832.47,880.468 830.826,881.374 829.209,882.3 827.62,883.245 826.06,884.209 824.53,885.192 823.03,886.193 821.561,887.212 820.125,888.249 818.72,889.304 817.349,890.376 816.012,891.464 814.709,892.569 813.442,893.69 812.21,894.826 811.015,895.978 809.857,897.145 808.737,898.326 807.655,899.521 806.613,900.729 805.609,901.951 804.646,903.185 803.723,904.432 802.842,905.691 802.002,906.961 801.204,908.242 800.449,909.533 799.737,910.835 799.068,912.146 798.444,913.465 797.864,914.794 797.329,916.13 796.839,917.474 796.394,918.825 795.996,920.182 795.644,921.546 795.339,922.914 795.08,924.288 794.869,925.666 794.705,927.048 794.589,928.433 794.521,929.821 794.501,931.211 794.53,932.603 794.607,933.996 794.733,935.39 794.908,936.783 795.132,938.176 795.405,939.568 795.727,940.958 796.098,942.346 796.519,943.73 796.989,945.112 797.509,946.49 798.077,947.863 798.695,949.231 799.363,950.593 800.079,951.949 800.845,953.298 801.659,954.64 802.522,955.974 803.434,957.299 804.395,958.615 805.404,959.922 806.461,961.218 807.565,962.503 808.718,963.777 809.918,965.039 811.164,966.289 812.458,967.525 813.797,968.748 815.183,969.957 816.615,971.151 818.092,972.33 819.613,973.493 821.179,974.64 822.789,975.77 824.442,976.882 826.139,977.977 827.877,979.053 829.658,980.11 831.48,981.148 833.343,982.166 835.246,983.163 837.189,984.139 839.171,985.094 841.191,986.028 843.248,986.938 845.343,987.826 847.474,988.691 849.64,989.532 851.842,990.349 854.077,991.141 856.346,991.908 858.647,992.649 860.98,993.365 863.344,994.055 865.738,994.717 868.161,995.353 870.613,995.961 873.092,996.542 875.598,997.094 878.129,997.618 880.685,998.113 883.265,998.578 885.868,999.014 888.492,999.421 891.138,999.797 893.803,1000.14 896.488,1000.46 899.19,1000.74 901.909,1000.99 904.644,1001.22 907.394,1001.41 910.158,1001.56 912.934,1001.69 915.722,1001.78 918.52,1001.84 921.327,1001.87 924.143,1001.87 926.966,1001.83 929.796,1001.76 932.63,1001.65 935.467,1001.51 938.308,1001.34 941.15,1001.14 943.992,1000.9 946.833,1000.63 949.672,1000.32 952.509,999.979 955.34,999.605 958.166,999.197 960.986,998.755 963.797,998.278 966.6,997.768 969.392,997.224 972.173,996.647 974.941,996.035 977.695,995.39 980.434,994.711 983.156,993.999 985.861,993.254 988.548,992.475 991.215,991.664 993.861,990.819 996.484,989.942 999.084,989.033 1001.66,988.091 1004.21,987.117 1006.73,986.112 1009.23,985.075 1011.69,984.007 1014.13,982.909 1016.53,981.779 1018.9,980.62 1021.24,979.431 1023.54,978.213 1025.81,976.965 1028.04,975.689 1030.23,974.385 1032.39,973.054 1034.5,971.695 1036.57,970.31 1038.6,968.898 1040.59,967.462 1042.53,966 1044.42,964.514 1046.27,963.004 1048.08,961.471 1049.83,959.916 1051.54,958.339 1053.19,956.741 1054.8,955.122 1056.35,953.484 1057.86,951.828 1059.31,950.153 1060.7,948.461 1062.04,946.753 1063.33,945.029 1064.55,943.29 1065.73,941.538 1066.84,939.772 1067.9,937.995 1068.89,936.206 1069.83,934.407 1070.71,932.599 1071.53,930.782 1072.29,928.957 1072.99,927.126 1073.62,925.289 1074.19,923.447 1074.7,921.601 1075.15,919.752 1075.54,917.901 1075.86,916.049 1076.11,914.196 1076.31,912.344 1076.44,910.492 1076.5,908.643 1076.5,906.796 1076.44,904.953 1076.31,903.114 1076.12,901.28 1075.86,899.451 1075.53,897.629 1075.14,895.813 1074.69,894.005 1074.17,892.205 1073.59,890.414 1072.94,888.631 1072.23,886.858 1071.45,885.096 1070.61,883.344 1069.71,881.602 1068.74,879.873 1067.7,878.155 1066.61,876.449 1065.45,874.757 1064.22,873.077 1062.94,871.411 1061.59,869.758 1060.18,868.12 1058.71,866.497 1057.17,864.888 1055.58,863.295 1053.92,861.718 1052.2,860.158 1050.43,858.614 1048.59,857.087 1046.7,855.578 1044.74,854.088 1042.73,852.616 1040.66,851.163 1038.54,849.73 1036.36,848.318 1034.12,846.926 1031.83,845.556 1029.48,844.209 1027.08,842.883 1024.63,841.582 1022.12,840.304 1019.56,839.05 1016.95,837.822 1014.3,836.62 1011.59,835.445 1008.83,834.296 1006.03,833.176 1003.18,832.084 1000.28,831.021 997.343,829.988 994.359,828.985 991.332,828.014 988.263,827.074 985.153,826.166 982.003,825.291 978.815,824.45 975.589,823.643 972.326,822.87 969.028,822.133 965.696,821.431 962.331,820.766 958.934,820.137 955.506,819.545 952.049,818.991 948.564,818.475 945.052,817.997 941.514,817.558 937.952,817.159 934.367,816.799 930.761,816.479 927.134,816.199 923.488,815.96 919.824,815.762 916.145,815.605 912.45,815.49 908.743,815.416 905.023,815.385 901.293,815.395 897.553,815.448 893.807,815.543 890.054,815.681 886.296,815.862 882.535,816.085 878.773,816.352 875.01,816.661 871.248,817.014 867.49,817.41 863.736,817.849 859.987,818.332 856.246,818.857 852.514,819.426 848.793,820.038 845.083,820.692 841.387,821.39 837.706,822.131 834.041,822.915 830.394,823.741 826.768,824.609 823.162,825.52 819.579,826.473 816.02,827.468 812.487,828.504 808.981,829.582 805.504,830.701 802.057,831.861 798.642,833.061 795.26,834.302 791.913,835.582 788.602,836.903 785.329,838.262 782.095,839.66 778.901,841.097 775.75,842.571 772.642,844.083 769.579,845.633 766.563,847.219 763.594,848.841 760.674,850.498 757.804,852.191 754.986,853.918 752.222,855.68 749.512,857.474 746.857,859.302 744.26,861.162 741.721,863.054 739.242,864.976 736.823,866.929 734.466,868.912 732.173,870.924 729.943,872.964 727.78,875.032 725.683,877.127 723.653,879.248 721.693,881.394 719.802,883.565 717.983,885.76 716.235,887.978 714.56,890.219 712.959,892.481 711.433,894.764 709.982,897.066 708.609,899.388 707.312,901.728 706.094,904.085 704.955,906.459 703.896,908.848 702.917,911.252 702.02,913.669 701.205,916.099 700.472,918.542 699.823,920.995 699.258,923.458 698.777,925.931 "/>
</svg>
